<svg width="40" height="40" viewBox="0 0 40 40" fill="none" xmlns="http://www.w3.org/2000/svg">
<path d="M24.0749 19.4997C23.9337 19.5004 23.7936 19.4749 23.6629 19.4246C23.5321 19.3743 23.4132 19.3002 23.3129 19.2065C23.1129 19.0171 23.0007 18.7609 23.0007 18.4938C23.0007 18.2267 23.1129 17.9705 23.3129 17.7811L27.3809 13.9497L23.4524 10.2295C23.3518 10.1355 23.2719 10.0237 23.2174 9.90051C23.163 9.77731 23.1349 9.64518 23.1349 9.51173C23.1349 9.37827 23.163 9.24614 23.2174 9.12295C23.2719 8.99976 23.3518 8.88795 23.4524 8.79397C23.6535 8.60568 23.9255 8.5 24.2091 8.5C24.4927 8.5 24.7647 8.60568 24.9658 8.79397L29.6886 13.242C29.8885 13.4315 30.0007 13.6877 30.0007 13.9547C30.0007 14.2218 29.8885 14.478 29.6886 14.6674L24.8585 19.2065C24.7557 19.3027 24.6332 19.3782 24.4986 19.4286C24.3639 19.479 24.2198 19.5031 24.0749 19.4997Z" fill="#EF5630"/>
<rect x="15.5" y="15" width="2" height="12" rx="1" transform="rotate(-90 15.5 15)" fill="#EF5630"/>
<path d="M16.9251 20.5003C17.0663 20.4996 17.2064 20.5251 17.3371 20.5754C17.4679 20.6257 17.5868 20.6998 17.6871 20.7935C17.8871 20.9829 17.9993 21.2391 17.9993 21.5062C17.9993 21.7733 17.8871 22.0295 17.6871 22.2189L13.6191 26.0503L17.5476 29.7705C17.6482 29.8645 17.7281 29.9763 17.7826 30.0995C17.837 30.2227 17.8651 30.3548 17.8651 30.4883C17.8651 30.6217 17.837 30.7539 17.7826 30.8771C17.7281 31.0002 17.6482 31.1121 17.5476 31.206C17.3465 31.3943 17.0745 31.5 16.7909 31.5C16.5073 31.5 16.2353 31.3943 16.0342 31.206L11.3114 26.758C11.1115 26.5685 10.9993 26.3123 10.9993 26.0453C10.9993 25.7782 11.1115 25.522 11.3114 25.3326L16.1415 20.7935C16.2443 20.6973 16.3668 20.6218 16.5014 20.5714C16.6361 20.521 16.7802 20.4969 16.9251 20.5003Z" fill="#B7BEC5"/>
<rect x="26.5" y="25" width="2" height="13" rx="1" transform="rotate(90 26.5 25)" fill="#B7BEC5"/>
</svg>
