<svg width="17" height="16" viewBox="0 0 17 16" fill="none" xmlns="http://www.w3.org/2000/svg">
<path d="M3.00033 9.57494C2.99956 9.43368 3.02506 9.29365 3.07537 9.16287C3.12567 9.0321 3.1998 8.91315 3.29349 8.81286C3.4829 8.61294 3.73912 8.50073 4.0062 8.50073C4.27327 8.50073 4.52949 8.61294 4.7189 8.81286L8.55031 12.8809L12.2705 8.95239C12.3645 8.85179 12.4763 8.77194 12.5995 8.71745C12.7227 8.66295 12.8548 8.6349 12.9883 8.6349C13.1217 8.6349 13.2539 8.66295 13.3771 8.71745C13.5002 8.77194 13.6121 8.85179 13.706 8.95239C13.8943 9.1535 14 9.42555 14 9.70911C14 9.99268 13.8943 10.2647 13.706 10.4658L9.25796 15.1886C9.06855 15.3885 8.81233 15.5007 8.54525 15.5007C8.27818 15.5007 8.02196 15.3885 7.83255 15.1886L3.2935 10.3585C3.19735 10.2557 3.1218 10.1332 3.07142 9.99856C3.02104 9.8639 2.99685 9.71979 3.00033 9.57494Z" fill="#EF5630"/>
<rect x="7.5" y="1" width="2" height="12" rx="1" fill="#EF5630"/>
</svg>
