<svg width="24" height="24" viewBox="0 0 24 24" fill="none" xmlns="http://www.w3.org/2000/svg">
<path d="M16.58 2.06H7.58002C7.3148 2.06 7.06045 1.95464 6.87291 1.76711C6.68537 1.57957 6.58002 1.32522 6.58002 1.06C6.58002 0.794785 6.68537 0.540431 6.87291 0.352895C7.06045 0.165358 7.3148 0.0600014 7.58002 0.0600014H16.58C16.8452 0.0600014 17.0996 0.165358 17.2871 0.352895C17.4747 0.540431 17.58 0.794785 17.58 1.06C17.58 1.32522 17.4747 1.57957 17.2871 1.76711C17.0996 1.95464 16.8452 2.06 16.58 2.06Z" fill="currentColor"/>
<path d="M12.05 23.94C11.6976 23.9414 11.3511 23.8497 11.0455 23.674C10.7399 23.4984 10.4862 23.2452 10.31 22.94L5.41001 14.94C5.1366 14.4869 5.05389 13.9439 5.18001 13.43L7.59001 4.11C7.6467 3.88998 7.77662 3.69582 7.95839 3.5595C8.14015 3.42318 8.36292 3.35282 8.59001 3.36H15.59C15.8184 3.35335 16.0423 3.42513 16.2242 3.56342C16.4062 3.7017 16.5353 3.89813 16.59 4.12L18.88 13.46C18.9423 13.7074 18.955 13.9647 18.9172 14.217C18.8794 14.4694 18.792 14.7117 18.66 14.93L13.86 22.93C13.6838 23.2352 13.4301 23.4884 13.1245 23.664C12.819 23.8397 12.4724 23.9314 12.12 23.93L12.05 23.94ZM9.34001 5.36L7.12001 14L12 21.92L12.93 22.43L12.08 21.92L16.87 13.92L14.77 5.36H9.34001Z" fill="currentColor"/>
<path d="M12.06 23.94C11.7948 23.94 11.5404 23.8346 11.3529 23.6471C11.1654 23.4596 11.06 23.2052 11.06 22.94V10.2C11.06 9.93478 11.1654 9.68043 11.3529 9.49289C11.5404 9.30536 11.7948 9.2 12.06 9.2C12.3252 9.2 12.5796 9.30536 12.7671 9.49289C12.9546 9.68043 13.06 9.93478 13.06 10.2V22.94C13.06 23.2052 12.9546 23.4596 12.7671 23.6471C12.5796 23.8346 12.3252 23.94 12.06 23.94Z" fill="currentColor"/>
</svg>
