<svg width="50" height="78" viewBox="0 0 50 78" fill="none" xmlns="http://www.w3.org/2000/svg">
<circle cx="24.9989" cy="25.0001" r="24.7407" transform="rotate(-179.396 24.9989 25.0001)" fill="#F15525"/>
<path d="M32.7699 13.4892L28.1234 15.6997C27.5871 15.9545 27.1364 16.3466 26.8223 16.8318C26.5081 17.3171 26.3431 17.8761 26.3457 18.4457V33.329L30.9922 31.1185C31.5286 30.8637 31.9793 30.4716 32.2934 29.9864C32.6075 29.5011 32.7726 28.9421 32.7699 28.3725" fill="white"/>
<path d="M23.1303 26.464L18.4838 28.6745C17.9474 28.9293 17.4967 29.3214 17.1826 29.8066C16.8685 30.2919 16.7034 30.8509 16.7061 31.4205V37.9285L21.3526 35.6837C21.8889 35.4289 22.3396 35.0368 22.6537 34.5516C22.9679 34.0663 23.1329 33.5073 23.1303 32.9377" fill="white"/>
<line x1="24.7406" y1="75.9893" x2="24.7406" y2="42.4126" stroke="#EF5630" stroke-width="3.53438" stroke-linecap="round"/>
</svg>
