<svg width="20" height="20" viewBox="0 0 20 20" fill="none" xmlns="http://www.w3.org/2000/svg">
<path d="M2.25716 7.49927L0 12.4943H2.70214L3.03713 11.6979H3.80283L4.13782 12.4943H7.11211V11.8864L7.37714 12.4943H8.91568L9.18071 11.8736V12.4943H15.3664L16.1186 11.7186L16.8229 12.4943L20 12.5007L17.7357 10.0107L20 7.49927H16.8722L16.14 8.26066L15.4579 7.49927H8.7286L8.15076 8.78853L7.55936 7.49927H4.86286V8.08643L4.5629 7.49927C4.5629 7.49927 2.25716 7.49927 2.25716 7.49927ZM2.78001 8.20857H4.09716L5.59433 11.5957V8.20857H7.03722L8.19361 10.6371L9.25936 8.20857H10.695V11.7928H9.82146L9.81433 8.98422L8.54074 11.7928H7.75929L6.47857 8.98422V11.7928H4.68143L4.34072 10.9893H2.50002L2.16002 11.7921H1.19713L2.78001 8.20857ZM11.4943 8.20857H15.0464L16.1329 9.38212L17.2543 8.20857H18.3407L16.69 10.01L18.3407 11.7907H17.205L16.1186 10.6035L14.9914 11.7907H11.4943V8.20857ZM3.42076 8.81501L2.81432 10.2465H4.0265L3.42076 8.81501ZM12.3715 8.95069V9.605H14.3093V10.3343H12.3715V11.0486H14.545L15.555 9.99647L14.5879 8.95007H12.3715V8.95069Z" fill="#4291D1"/>
<path d="M2.78002 8.20856H4.09717L5.59435 11.5957V8.20856H7.03723L8.19363 10.6371L9.25938 8.20856H10.6951V11.7928H9.82148L9.81435 8.98421L8.54076 11.7928H7.7593L6.47858 8.98421V11.7928H4.68144L4.34073 10.9893H2.50003L2.16003 11.7921H1.19714L2.78002 8.20856ZM11.4943 8.20856H15.0464L16.1329 9.38211L17.2543 8.20856H18.3407L16.69 10.01L18.3407 11.7907H17.205L16.1186 10.6035L14.9914 11.7907H11.4943V8.20856ZM3.42078 8.815L2.81434 10.2464H4.02651L3.42078 8.815ZM12.3715 8.95068V9.60499H14.3093V10.3343H12.3715V11.0486H14.545L15.555 9.99646L14.5879 8.95006L12.3715 8.95068Z" fill="white"/>
</svg>
