<svg width="20" height="20" viewBox="0 0 20 20" fill="none" xmlns="http://www.w3.org/2000/svg">
<path d="M3.25079 10.0964C3.25079 6.89386 5.81671 4.30865 8.9807 4.30865C12.1447 4.30865 14.7106 6.89386 14.7106 10.0964C14.7106 13.299 12.1447 15.8842 8.9807 15.8842C5.81671 15.8842 3.25079 13.299 3.25079 10.0964Z" fill="white"/>
<path d="M9 16C5.70096 16.0193 3 13.3183 3 10.0579C3 6.46945 5.70096 4 9 4H10.5434C13.7846 4 16.7556 6.46945 16.7556 10.0579C16.7556 13.3376 13.7846 16 10.5434 16H9ZM9 4.50161C6.00965 4.50161 3.55949 6.95177 3.55949 9.98071C3.55949 13.0096 5.99035 15.4791 9 15.4791C12.0096 15.4791 14.4405 13.0289 14.4405 9.98071C14.4598 6.95177 12.0096 4.50161 9 4.50161ZM7.76527 13.2412V6.73955C6.47267 7.24116 5.56592 8.49518 5.56592 9.98071C5.56592 11.4662 6.47267 12.7396 7.76527 13.2412ZM12.4534 9.98071C12.4534 8.49518 11.5273 7.24116 10.2347 6.73955V13.2412C11.5466 12.7396 12.4534 11.4662 12.4534 9.98071Z" fill="#004A98"/>
</svg>
