<svg width="20" height="20" viewBox="0 0 20 20" fill="none" xmlns="http://www.w3.org/2000/svg">
<path d="M4.52508 4.37054H9.01786C9.64501 4.37054 10.0351 4.88173 9.88878 5.51096L7.79707 14.4915C7.64945 15.1185 7.02153 15.6301 6.39395 15.6301H1.90161C1.27533 15.6301 0.884388 15.1185 1.03069 14.4915L3.12328 5.51096C3.26958 4.88173 3.89717 4.37054 4.52508 4.37054Z" fill="#E21836"/>
<path d="M8.64382 4.36993H13.8104C14.4374 4.36993 14.1547 4.88112 14.0072 5.51035L11.9158 14.4909C11.7691 15.1179 11.8148 15.6295 11.1865 15.6295H6.0199C5.39155 15.6295 5.00269 15.1179 5.1503 14.4909L7.24157 5.51035C7.39007 4.88112 8.01634 4.36993 8.64382 4.36993Z" fill="#00447C"/>
<path d="M13.6052 4.36993H18.098C18.726 4.36993 19.1161 4.88112 18.9686 5.51035L16.8772 14.4909C16.7296 15.1179 16.1012 15.6295 15.4733 15.6295H10.9826C10.3543 15.6295 9.96452 15.1179 10.1117 14.4909L12.2034 5.51035C12.3497 4.88112 12.9769 4.36993 13.6052 4.36993Z" fill="#007B84"/>
<path d="M5.69795 7.24791C5.23594 7.25262 5.09949 7.24791 5.05591 7.23762C5.03915 7.31723 4.72739 8.7554 4.72651 8.7566C4.65938 9.04756 4.61054 9.25497 4.44464 9.3889C4.35046 9.46676 4.24051 9.50432 4.11305 9.50432C3.90816 9.50432 3.78879 9.40259 3.76875 9.20964L3.76492 9.14338C3.76492 9.14338 3.82734 8.75364 3.82734 8.75145C3.82734 8.75145 4.15455 7.44087 4.21314 7.26762C4.2162 7.25777 4.21708 7.25262 4.21785 7.24791C3.58095 7.2535 3.46805 7.24791 3.46027 7.23762C3.456 7.25174 3.44023 7.333 3.44023 7.333L3.10612 8.81015L3.07743 8.93543L3.02191 9.34521C3.02191 9.46676 3.04578 9.56597 3.09331 9.64986C3.24553 9.91585 3.67972 9.95571 3.92535 9.95571C4.24183 9.95571 4.5387 9.88847 4.73932 9.76572C5.08756 9.55995 5.17867 9.23833 5.25992 8.95251L5.29759 8.80588C5.29759 8.80588 5.63466 7.4447 5.69193 7.26762C5.69412 7.25777 5.695 7.25262 5.69795 7.24791ZM6.8448 8.34599C6.76354 8.34599 6.61505 8.3657 6.48167 8.43108C6.43327 8.45594 6.38749 8.48463 6.3392 8.51321L6.38278 8.35585L6.35891 8.32935C6.07605 8.38662 6.01276 8.39428 5.75147 8.43108L5.72957 8.44564C5.69924 8.69718 5.6723 8.8863 5.55983 9.38073C5.51701 9.56295 5.47255 9.74692 5.42798 9.92871L5.44003 9.95181C5.70778 9.93769 5.78903 9.93769 6.02174 9.94152L6.04057 9.92104C6.07014 9.76959 6.07397 9.73411 6.13946 9.42738C6.17023 9.28195 6.2344 8.96241 6.26605 8.84863C6.3242 8.82169 6.38158 8.79519 6.43633 8.79519C6.56676 8.79519 6.55088 8.90897 6.54584 8.95431C6.54026 9.03041 6.49273 9.279 6.444 9.49243L6.41147 9.63019C6.38881 9.73192 6.36395 9.83081 6.34128 9.93166L6.35114 9.95181C6.61505 9.93769 6.69554 9.93769 6.9209 9.94152L6.9474 9.92104C6.98814 9.68451 7.00008 9.62121 7.07235 9.27681L7.10871 9.11857C7.17934 8.80888 7.21482 8.65185 7.16138 8.52394C7.10488 8.3806 6.96931 8.34599 6.8448 8.34599ZM8.12595 8.67023C7.98567 8.69717 7.8962 8.71513 7.80728 8.72674C7.71913 8.74086 7.63316 8.75368 7.49759 8.77251L7.48686 8.78226L7.47701 8.79003C7.46288 8.891 7.45302 8.97828 7.4343 9.08089C7.41842 9.187 7.394 9.30757 7.35425 9.48081C7.32348 9.61342 7.3076 9.65964 7.29008 9.70629C7.27299 9.75294 7.25416 9.79827 7.21955 9.9287L7.22766 9.94074L7.23445 9.9518C7.36115 9.94578 7.44404 9.94151 7.52924 9.94074C7.61433 9.93768 7.70248 9.94074 7.83893 9.94151L7.85087 9.93176L7.86368 9.92103C7.88339 9.80342 7.88635 9.77177 7.89839 9.71439C7.91033 9.65285 7.93092 9.56765 7.9814 9.34009C8.00527 9.23321 8.03188 9.12666 8.05663 9.01759C8.08237 8.90896 8.1093 8.80197 8.13493 8.69509L8.1311 8.68217L8.12595 8.67023ZM8.12894 8.23306C8.00147 8.15782 7.77775 8.1817 7.62717 8.28562C7.47704 8.38746 7.45996 8.53201 7.58699 8.60823C7.71226 8.68138 7.93686 8.65959 8.08612 8.55479C8.23593 8.45076 8.25465 8.30752 8.12894 8.23306ZM8.89982 9.97538C9.15771 9.97538 9.42206 9.90431 9.62104 9.6934C9.77413 9.52235 9.84432 9.26785 9.86864 9.16305C9.94781 8.81569 9.88616 8.65351 9.80873 8.55473C9.69112 8.40416 9.48328 8.35587 9.26766 8.35587C9.138 8.35587 8.82919 8.36868 8.58794 8.59109C8.4147 8.75152 8.33465 8.96922 8.28636 9.17794C8.23763 9.39061 8.18156 9.77345 8.53363 9.91592C8.64226 9.96257 8.79885 9.97538 8.89982 9.97538ZM8.87967 9.19382C8.93913 8.93078 9.00933 8.71002 9.18848 8.71002C9.32887 8.71002 9.33906 8.87428 9.27664 9.13819C9.26547 9.19678 9.21422 9.41459 9.1449 9.50734C9.0965 9.57579 9.03922 9.61729 8.97593 9.61729C8.95709 9.61729 8.84507 9.61729 8.84331 9.45095C8.84244 9.36882 8.85919 9.28493 8.87967 9.19382ZM10.5133 9.94155L10.5335 9.92107C10.562 9.76963 10.5667 9.73404 10.63 9.42741C10.6617 9.28199 10.7272 8.96244 10.7579 8.84866C10.8162 8.82162 10.8726 8.79512 10.9291 8.79512C11.0587 8.79512 11.0429 8.90889 11.0377 8.95423C11.033 9.03045 10.9855 9.27892 10.9359 9.49235L10.9051 9.63011C10.8816 9.73195 10.856 9.83073 10.8333 9.9317L10.8431 9.95185C11.1079 9.93772 11.1854 9.93772 11.412 9.94155L11.4394 9.92107C11.4792 9.68443 11.4899 9.62113 11.5644 9.27684L11.5998 9.11849C11.6708 8.8088 11.7067 8.65188 11.6542 8.52397C11.596 8.38063 11.4596 8.34602 11.3368 8.34602C11.2554 8.34602 11.1062 8.36563 10.9736 8.43111C10.9262 8.45597 10.8786 8.48455 10.832 8.51324L10.8726 8.35588L10.8508 8.32927C10.5681 8.38665 10.5035 8.39432 10.2425 8.43111L10.2225 8.44568C10.1908 8.69722 10.1651 8.88623 10.0526 9.38076C10.0098 9.56298 9.96533 9.74696 9.92087 9.92874L9.93281 9.95185C10.201 9.93772 10.281 9.93772 10.5133 9.94155ZM12.4588 9.95179C12.4754 9.87054 12.5743 9.38892 12.5752 9.38892C12.5752 9.38892 12.6594 9.03554 12.6645 9.02273C12.6645 9.02273 12.691 8.98593 12.7175 8.97137H12.7565C13.1244 8.97137 13.5397 8.97137 13.8653 8.73187C14.0868 8.56761 14.2383 8.32505 14.3058 8.03026C14.3234 7.95798 14.3363 7.87202 14.3363 7.78606C14.3363 7.67315 14.3136 7.56146 14.2481 7.47418C14.0821 7.24191 13.7515 7.23764 13.3699 7.23589C13.3687 7.23589 13.1817 7.23764 13.1817 7.23764C12.6932 7.24366 12.4973 7.24191 12.4168 7.23206C12.41 7.26765 12.3972 7.33094 12.3972 7.33094C12.3972 7.33094 12.2222 8.14196 12.2222 8.14327C12.2222 8.14327 11.8035 9.86758 11.7838 9.94883C12.2103 9.94369 12.3852 9.94369 12.4588 9.95179ZM12.783 8.51111C12.783 8.51111 12.9691 7.70173 12.9682 7.7048L12.9742 7.6633L12.9768 7.63165L13.0512 7.63932C13.0512 7.63932 13.4349 7.67228 13.4439 7.67315C13.5953 7.73174 13.6578 7.88275 13.6142 8.07987C13.5744 8.26001 13.4576 8.41145 13.3075 8.48461C13.1838 8.54659 13.0324 8.55173 12.8763 8.55173H12.7754L12.783 8.51111ZM13.9414 9.20881C13.8923 9.41841 13.8358 9.80125 14.1861 9.9377C14.2978 9.98522 14.3979 9.99935 14.4996 9.9942C14.607 9.9884 14.7066 9.93452 14.7988 9.85699C14.7905 9.88886 14.7821 9.92072 14.7738 9.9527L14.7897 9.97318C15.0417 9.96256 15.1199 9.96256 15.3929 9.96464L15.4176 9.9458C15.4575 9.71145 15.495 9.4839 15.5986 9.03557C15.6491 8.82083 15.6995 8.60816 15.7513 8.39429L15.7432 8.37075C15.4613 8.42299 15.386 8.43416 15.1148 8.47259L15.0942 8.48935C15.0915 8.51114 15.0886 8.53206 15.086 8.55297C15.0439 8.48486 14.9827 8.42671 14.8885 8.39046C14.7679 8.34304 14.4847 8.40415 14.2413 8.62579C14.0702 8.78403 13.9881 9.00086 13.9414 9.20881ZM14.5334 9.22163C14.5938 8.9633 14.6631 8.74472 14.8427 8.74472C14.9562 8.74472 15.016 8.84952 15.0039 9.02824C14.9942 9.07281 14.9838 9.11978 14.9715 9.1729C14.9535 9.24966 14.934 9.32577 14.9151 9.40199C14.8958 9.45411 14.8734 9.50328 14.8487 9.53602C14.8025 9.60151 14.6926 9.64214 14.6293 9.64214C14.6113 9.64214 14.5005 9.64214 14.4966 9.47875C14.4958 9.39739 14.5125 9.31361 14.5334 9.22163ZM17.6249 8.36866L17.6031 8.3438C17.3242 8.40031 17.2737 8.40929 17.0175 8.44389L16.9986 8.46273C16.9977 8.46579 16.997 8.4705 16.9957 8.47477L16.9948 8.4705C16.804 8.91061 16.8096 8.81567 16.6543 9.16215C16.6535 9.14638 16.6535 9.13653 16.6526 9.11977L16.6137 8.36866L16.5893 8.3438C16.2971 8.40031 16.2902 8.40929 16.0204 8.44389L15.9994 8.46273C15.9964 8.47171 15.9964 8.48156 15.9947 8.49229L15.9964 8.49613C16.0301 8.66849 16.022 8.63005 16.0559 8.90207C16.0716 9.03556 16.0927 9.16982 16.1084 9.30167C16.135 9.52232 16.1499 9.63096 16.1825 9.96769C16.0002 10.2684 15.9571 10.3822 15.7817 10.6461L15.7829 10.6487L15.6593 10.8441C15.6452 10.8647 15.6324 10.8788 15.6144 10.8848C15.5947 10.8946 15.5691 10.8963 15.5335 10.8963H15.4651L15.3633 11.2347L15.7123 11.2407C15.9172 11.2398 16.046 11.144 16.1153 11.0152L16.3348 10.6392H16.3313L16.3544 10.6127C16.502 10.2949 17.6249 8.36866 17.6249 8.36866ZM13.9414 12.8128H13.7934L14.3413 11.0003H14.5231L14.5808 10.8136L14.5864 11.0212C14.5796 11.1496 14.6806 11.2633 14.9458 11.2445H15.2526L15.3581 10.8955H15.2427C15.1763 10.8955 15.1456 10.8787 15.1494 10.8428L15.1438 10.6316H14.5758V10.6327C14.3922 10.6365 13.8437 10.6503 13.7327 10.6799C13.5983 10.7145 13.4567 10.8163 13.4567 10.8163L13.5124 10.6294H12.981L12.8703 11.0003L12.315 12.8405H12.2073L12.1016 13.1869H13.1599L13.1244 13.3025H13.6459L13.6805 13.1869H13.8268L13.9414 12.8128ZM13.5072 11.3686C13.4221 11.3921 13.2638 11.4635 13.2638 11.4635L13.4046 11.0003H13.8268L13.7249 11.3378C13.7249 11.3378 13.5945 11.3455 13.5072 11.3686ZM13.5153 12.0303C13.5153 12.0303 13.3827 12.047 13.2954 12.0667C13.2095 12.0927 13.0483 12.1749 13.0483 12.1749L13.1937 11.6928H13.6181L13.5153 12.0303ZM13.2788 12.817H12.8553L12.9781 12.4102H13.4002L13.2788 12.817ZM14.2986 11.6928H14.909L14.8213 11.9769H14.2028L14.1099 12.2875H14.6511L14.2413 12.8644C14.2126 12.9068 14.1869 12.9218 14.1583 12.9338C14.1296 12.9483 14.092 12.9654 14.0484 12.9654H13.8982L13.7951 13.3055H14.1878C14.3919 13.3055 14.5125 13.2127 14.6015 13.0908L14.8825 12.7062L14.9428 13.0967C14.9556 13.1699 15.0082 13.2127 15.0438 13.2293C15.0831 13.249 15.1237 13.2829 15.1811 13.2879C15.2427 13.2905 15.2871 13.2926 15.3167 13.2926H15.5096L15.6255 12.912H15.5494C15.5057 12.912 15.4305 12.9046 15.4177 12.8909C15.4048 12.8743 15.4048 12.8487 15.3979 12.8097L15.3367 12.4183H15.0861L15.196 12.2875H15.8133L15.9083 11.9769H15.3367L15.4258 11.6928H15.9955L16.1012 11.3425H14.4025L14.2986 11.6928ZM9.14317 12.8961L9.28564 12.4222H9.87118L9.97817 12.0697H9.39208L9.48155 11.7779H10.0543L10.1604 11.4366H8.72737L8.62344 11.7779H8.94901L8.86217 12.0697H8.53573L8.42753 12.4282H8.75299L8.56311 13.0552C8.53748 13.1383 8.57515 13.1699 8.59902 13.2084C8.62344 13.246 8.64819 13.2709 8.70382 13.285C8.7612 13.2978 8.80052 13.3055 8.85396 13.3055H9.51407L9.63168 12.915L9.33908 12.9552C9.28257 12.9552 9.12608 12.9484 9.14317 12.8961ZM9.21033 10.6273L9.06195 10.8954C9.03019 10.954 9.00161 10.9904 8.97587 11.0071C8.9532 11.0213 8.90831 11.0272 8.84326 11.0272H8.76584L8.66235 11.3703H8.91948C9.04311 11.3703 9.13805 11.3249 9.18339 11.3023C9.23212 11.2762 9.24493 11.2911 9.2826 11.2547L9.36944 11.1795H10.1724L10.2789 10.8223H9.69118L9.79379 10.6273H9.21033ZM10.3957 12.903C10.382 12.8833 10.3919 12.8486 10.4128 12.7763L10.6322 12.05H11.4129C11.5267 12.0483 11.6088 12.047 11.6623 12.0432C11.7196 12.0371 11.7821 12.0167 11.8501 11.9799C11.9203 11.9413 11.9562 11.9007 11.9865 11.854C12.0203 11.8075 12.0747 11.7057 12.1213 11.5486L12.3972 10.6294L11.587 10.6341C11.587 10.6341 11.3376 10.6709 11.2277 10.7115C11.1169 10.7569 10.9586 10.8835 10.9586 10.8835L11.0317 10.6315H10.5313L9.83063 12.9551C9.80577 13.0454 9.78912 13.1109 9.78529 13.1502C9.78397 13.1926 9.83873 13.2345 9.87421 13.2661C9.91615 13.2978 9.97813 13.2926 10.0376 13.2978C10.1001 13.3025 10.189 13.3055 10.3118 13.3055H10.6964L10.8144 12.9068L10.4702 12.9394C10.4334 12.9394 10.4067 12.9197 10.3957 12.903ZM10.7738 11.5594H11.5938L11.5417 11.7227C11.5343 11.7266 11.5168 11.7146 11.4334 11.7245H10.7233L10.7738 11.5594ZM10.9381 11.0114H11.765L11.7055 11.2082C11.7055 11.2082 11.3158 11.2043 11.2534 11.2158C10.9787 11.2634 10.8183 11.4101 10.8183 11.4101L10.9381 11.0114ZM11.56 12.2699C11.5532 12.2943 11.5425 12.3092 11.5275 12.3204C11.5109 12.3311 11.4839 12.3349 11.4437 12.3349H11.3269L11.3338 12.1359H10.8478L10.8281 13.1087C10.8273 13.1789 10.8341 13.2195 10.8855 13.2521C10.9368 13.2927 11.0951 13.2978 11.3081 13.2978H11.6126L11.7225 12.9337L11.4574 12.9483L11.3693 12.9534C11.3572 12.9483 11.3457 12.9436 11.3329 12.9308C11.3217 12.9197 11.3029 12.9265 11.306 12.8563L11.3081 12.6069L11.5861 12.5954C11.7362 12.5954 11.8004 12.5466 11.8552 12.5001C11.9074 12.4555 11.9245 12.4042 11.9442 12.3349L11.9908 12.1142H11.6088L11.56 12.2699Z" fill="#FEFEFE"/>
</svg>
