<svg width="20" height="20" viewBox="0 0 20 20" fill="none" xmlns="http://www.w3.org/2000/svg">
<path fill-rule="evenodd" clip-rule="evenodd" d="M6.94287 12.9808L8.29305 6.73326L9.90982 6.73593L8.56231 12.9831L6.94287 12.9808ZM17.5674 8.43872L18.0476 10.7868L16.7051 10.7832L17.5674 8.43872ZM16.2382 12.0626L18.3083 12.0665L18.5002 13.0013L19.9997 13.0036L18.7071 6.75112L17.3277 6.74809C17.0151 6.74809 16.7539 6.92789 16.637 7.20605L14.2007 12.9938L15.8987 12.9972L16.2382 12.0626ZM11.4697 13.0861C13.1676 13.0895 14.2806 12.2512 14.2886 10.9536C14.2949 9.96572 13.478 9.53501 12.8246 9.19053C12.3861 8.95932 12.0212 8.76695 12.0284 8.47102C12.033 8.24757 12.2477 8.00896 12.7142 7.94873C12.9477 7.91986 13.5856 7.89652 14.3093 8.23117L14.5946 6.90594C14.2066 6.76427 13.7047 6.62831 13.0822 6.62635C11.4849 6.62403 10.3578 7.4717 10.3457 8.6886C10.3346 9.58813 11.1468 10.0915 11.7582 10.3911C12.3878 10.6992 12.6 10.8964 12.5954 11.1703C12.5911 11.5901 12.092 11.773 11.6274 11.7803C10.8385 11.7896 10.3714 11.571 10.0018 11.398C9.99027 11.3926 9.97887 11.3873 9.96755 11.382L9.67139 12.7513C10.0508 12.9252 10.7455 13.0766 11.4697 13.0861ZM4.2079 10.9783L5.89986 6.72724L7.59895 6.73045L4.9679 12.976L3.2574 12.9726L1.97672 7.98245C1.89992 7.67382 1.83167 7.56227 1.59413 7.43183C1.20709 7.22084 0.564165 7.02216 0 6.89706L0.0392029 6.71655L2.79018 6.72261C3.13962 6.72261 3.4552 6.95622 3.53539 7.36037L4.2079 10.9783Z" fill="url(#paint0_linear)"/>
<defs>
<linearGradient id="paint0_linear" x1="9.99988" y1="6.62634" x2="9.99988" y2="13.0861" gradientUnits="userSpaceOnUse">
<stop offset="0.286458" stop-color="#2548A2"/>
<stop offset="1" stop-color="#242963"/>
</linearGradient>
</defs>
</svg>
