<svg width="16" height="16" viewBox="0 0 16 16" fill="none" xmlns="http://www.w3.org/2000/svg">
<g clip-path="url(#clip0)">
<path d="M7.71002 3.99952C7.8587 3.99385 8.00677 4.02143 8.14344 4.08025C8.28011 4.13907 8.40193 4.22765 8.50002 4.33952L13.79 10.3395C13.9517 10.5402 14.0296 10.7955 14.0076 11.0522C13.9856 11.309 13.8653 11.5473 13.6719 11.7175C13.4784 11.8877 13.2267 11.9767 12.9693 11.9659C12.7119 11.9551 12.4685 11.8454 12.29 11.6595L7.68002 6.49952L2.68003 11.7095C2.49237 11.8783 2.24784 11.9698 1.9955 11.9659C1.74315 11.9619 1.50165 11.8626 1.31943 11.688C1.13722 11.5133 1.02777 11.2763 1.01304 11.0243C0.998315 10.7724 1.0794 10.5242 1.24002 10.3295L6.95002 4.32952C7.04576 4.2234 7.16314 4.13903 7.29424 4.0821C7.42534 4.02518 7.56712 3.99702 7.71002 3.99952Z" fill="currentColor"/>
</g>
<defs>
<clipPath id="clip0">
<rect width="13" height="8" fill="white" transform="translate(14 12) rotate(180)"/>
</clipPath>
</defs>
</svg>
