<svg width="16" height="16" viewBox="0 0 16 16" fill="none" xmlns="http://www.w3.org/2000/svg">
<path d="M14.6104 4.33984H4.61035C4.34514 4.33984 4.09078 4.23449 3.90324 4.04695C3.71571 3.85941 3.61035 3.60506 3.61035 3.33984C3.61035 3.07463 3.71571 2.82027 3.90324 2.63274C4.09078 2.4452 4.34514 2.33984 4.61035 2.33984H14.6104C14.8756 2.33984 15.1299 2.4452 15.3175 2.63274C15.505 2.82027 15.6104 3.07463 15.6104 3.33984C15.6104 3.60506 15.505 3.85941 15.3175 4.04695C15.1299 4.23449 14.8756 4.33984 14.6104 4.33984Z" fill="currentColor"/>
<path d="M14.6104 9H4.61035C4.34514 9 4.09078 8.89464 3.90324 8.70711C3.71571 8.51957 3.61035 8.26522 3.61035 8C3.61035 7.73478 3.71571 7.48043 3.90324 7.29289C4.09078 7.10536 4.34514 7 4.61035 7H14.6104C14.8756 7 15.1299 7.10536 15.3175 7.29289C15.505 7.48043 15.6104 7.73478 15.6104 8C15.6104 8.26522 15.505 8.51957 15.3175 8.70711C15.1299 8.89464 14.8756 9 14.6104 9Z" fill="currentColor"/>
<path d="M14.6104 13.6602H4.61035C4.34514 13.6602 4.09078 13.5548 3.90324 13.3673C3.71571 13.1797 3.61035 12.9254 3.61035 12.6602C3.61035 12.3949 3.71571 12.1406 3.90324 11.953C4.09078 11.7655 4.34514 11.6602 4.61035 11.6602H14.6104C14.8756 11.6602 15.1299 11.7655 15.3175 11.953C15.505 12.1406 15.6104 12.3949 15.6104 12.6602C15.6104 12.9254 15.505 13.1797 15.3175 13.3673C15.1299 13.5548 14.8756 13.6602 14.6104 13.6602Z" fill="currentColor"/>
<path d="M1.13047 4.23994C1.62752 4.23994 2.03047 3.837 2.03047 3.33994C2.03047 2.84288 1.62752 2.43994 1.13047 2.43994C0.633412 2.43994 0.230469 2.84288 0.230469 3.33994C0.230469 3.837 0.633412 4.23994 1.13047 4.23994Z" fill="currentColor"/>
<path d="M1.13047 8.9001C1.62752 8.9001 2.03047 8.49715 2.03047 8.0001C2.03047 7.50304 1.62752 7.1001 1.13047 7.1001C0.633412 7.1001 0.230469 7.50304 0.230469 8.0001C0.230469 8.49715 0.633412 8.9001 1.13047 8.9001Z" fill="currentColor"/>
<path d="M1.13047 13.5598C1.62752 13.5598 2.03047 13.1568 2.03047 12.6598C2.03047 12.1627 1.62752 11.7598 1.13047 11.7598C0.633412 11.7598 0.230469 12.1627 0.230469 12.6598C0.230469 13.1568 0.633412 13.5598 1.13047 13.5598Z" fill="currentColor"/>
</svg>
