<svg width="16" height="16" viewBox="0 0 16 16" fill="none" xmlns="http://www.w3.org/2000/svg">
<path fill-rule="evenodd" clip-rule="evenodd" d="M6.40722 8.16685L3.13547 2.5C2.75057 1.83333 3.23169 1 4.00149 1H11.5715C12.3413 1 12.8224 1.83333 12.4375 2.5L9.16574 8.16685L12.4375 13.8337C12.8224 14.5004 12.3413 15.3337 11.5715 15.3337H4.00149C3.23169 15.3337 2.75057 14.5004 3.13547 13.8337L6.40722 8.16685ZM7.74155 8.7862C7.36418 8.7862 6.68501 9.23889 6.42809 9.78224C6.3827 9.87824 6.49986 9.92267 6.56748 9.8408C6.79631 9.56383 7.18766 9.2286 7.74155 9.2286C8.29544 9.2286 8.6868 9.56383 8.91562 9.8408C8.98325 9.92267 9.10041 9.87824 9.05502 9.78224C8.79809 9.23889 8.11893 8.7862 7.74155 8.7862ZM10.4316 3.18605L8.16214 6.71628C7.96532 7.02244 7.51778 7.02244 7.32096 6.71628L5.05153 3.18606C4.83762 2.8533 5.07617 2.41568 5.47175 2.41568L7.74155 2.41568L10.0113 2.41568C10.4069 2.41567 10.6455 2.8533 10.4316 3.18605Z" fill="#FF0000"/>
</svg>
