<svg width="49" height="48" viewBox="0 0 49 48" fill="none" xmlns="http://www.w3.org/2000/svg">
<path fill-rule="evenodd" clip-rule="evenodd" d="M20.3611 24.0776L11.3673 8.5C10.2126 6.5 11.656 4 13.9654 4H34.4845C36.7939 4 38.2373 6.5 37.0826 8.5L28.089 24.0774L37.0827 39.655C38.2374 41.655 36.794 44.1551 34.4846 44.1551H13.9655C11.6561 44.1551 10.2128 41.6551 11.3675 39.6551L20.3611 24.0776ZM24.0991 26C22.8742 26 20.5142 27.5416 20.1744 29.3455C20.1547 29.4499 20.2925 29.4919 20.3493 29.4021C20.8223 28.6542 22.0723 27.0518 24.0991 27.0518C26.126 27.0518 27.376 28.6542 27.849 29.4021C27.9058 29.4919 28.0436 29.4499 28.0239 29.3455C27.6841 27.5416 25.3241 26 24.0991 26ZM31.0415 11.0474L25.7815 19.2296C24.9943 20.4543 23.2041 20.4543 22.4168 19.2296L17.1568 11.0474C16.3011 9.71634 17.2561 7.96585 18.8384 7.96585L24.0992 7.96585L29.3593 7.96584C30.9416 7.96584 31.8972 9.71634 31.0415 11.0474Z" fill="#FF0000"/>
</svg>
