<svg width="24" height="24" viewBox="0 0 24 24" fill="none" xmlns="http://www.w3.org/2000/svg">
<path fill-rule="evenodd" clip-rule="evenodd" d="M10.0867 12.0758L5.13547 3.5C4.75057 2.83333 5.23169 2 6.00149 2H18.05C18.8198 2 19.3009 2.83333 18.916 3.5L13.9648 12.0757L18.9161 20.6515C19.301 21.3181 18.8199 22.1515 18.0501 22.1515H6.00155C5.23175 22.1515 4.75063 21.3181 5.13553 20.6515L10.0867 12.0758ZM11.9626 12.9465C11.3946 12.9465 10.3404 13.6758 10.0488 14.5102C10.0138 14.6104 10.1405 14.6539 10.2034 14.5684C10.5015 14.1631 11.0879 13.5684 11.9626 13.5684C12.8373 13.5684 13.4237 14.1631 13.7218 14.5684C13.7847 14.6539 13.9114 14.6104 13.8764 14.5102C13.5848 13.6758 12.5306 12.9465 11.9626 12.9465ZM15.9455 4.76068L12.3832 10.302C12.1864 10.6081 11.7388 10.6081 11.542 10.302L7.97976 4.76068C7.76584 4.42793 8.00428 3.9903 8.39986 3.99031L11.9626 3.9903L15.5258 3.9903C15.9214 3.9903 16.1594 4.42792 15.9455 4.76068Z" fill="#FF0000"/>
</svg>
