<svg width="49" height="48" viewBox="0 0 49 48" fill="none" xmlns="http://www.w3.org/2000/svg">
<path fill-rule="evenodd" clip-rule="evenodd" d="M36.5 15.4325C36.5 9.09153 31.1274 4 24.5 4L23.9022 4.01399C17.5646 4.31133 12.5 9.31009 12.5 15.4331V21.1429H9.50742C7.86728 21.1429 6.5 22.4182 6.5 23.9915V41.1513C6.5 42.7056 7.84647 44 9.50742 44H39.4926C41.1327 44 42.5 42.7246 42.5 41.1513V23.9915C42.5 22.4372 41.1535 21.1429 39.4926 21.1429H36.5V15.4325ZM24.0493 9.72996L24.5 9.71429C27.8137 9.71429 30.5 12.2507 30.5 15.4286V21.1429H18.5V15.4286C18.5 12.4161 20.9266 9.9481 24.0493 9.72996ZM24.5 35.4286C26.7091 35.4286 28.5 33.723 28.5 31.6191C28.5 29.5151 26.7091 27.8095 24.5 27.8095C22.2909 27.8095 20.5 29.5151 20.5 31.6191C20.5 33.723 22.2909 35.4286 24.5 35.4286Z" fill="#FF0000"/>
</svg>
