<svg width="16" height="16" viewBox="0 0 16 16" fill="none" xmlns="http://www.w3.org/2000/svg">
<path fill-rule="evenodd" clip-rule="evenodd" d="M12 5.00139C12 2.78203 10.2091 1 8 1L7.80074 1.0049C5.6882 1.10896 4 2.85853 4 5.00157V7H3.00247C2.45576 7 2 7.44639 2 7.99703V14.003C2 14.547 2.44882 15 3.00247 15H12.9975C13.5442 15 14 14.5536 14 14.003V7.99703C14 7.45304 13.5512 7 12.9975 7H12V5.00139ZM7.84978 3.00549L8 3C9.10457 3 10 3.88773 10 5V7H6V5C6 3.94564 6.80886 3.08183 7.84978 3.00549ZM8 12C8.73638 12 9.33333 11.403 9.33333 10.6667C9.33333 9.93029 8.73638 9.33333 8 9.33333C7.26362 9.33333 6.66667 9.93029 6.66667 10.6667C6.66667 11.403 7.26362 12 8 12Z" fill="#FF0000"/>
</svg>
