<svg width="24" height="24" viewBox="0 0 24 24" fill="none" xmlns="http://www.w3.org/2000/svg">
<path fill-rule="evenodd" clip-rule="evenodd" d="M18 7.71627C18 4.54576 15.3137 2 12 2L11.7011 2.007C8.53229 2.15566 6 4.65505 6 7.71653V10.5714H4.50371C3.68364 10.5714 3 11.2091 3 11.9958V20.5757C3 21.3528 3.67323 22 4.50371 22H19.4963C20.3164 22 21 21.3623 21 20.5757V11.9958C21 11.2186 20.3268 10.5714 19.4963 10.5714H18V7.71627ZM11.7747 4.86498L12 4.85714C13.6569 4.85714 15 6.12533 15 7.71429V10.5714H9V7.71429C9 6.20805 10.2133 4.97405 11.7747 4.86498ZM12 17.7143C13.1046 17.7143 14 16.8615 14 15.8095C14 14.7576 13.1046 13.9048 12 13.9048C10.8954 13.9048 10 14.7576 10 15.8095C10 16.8615 10.8954 17.7143 12 17.7143Z" fill="#FF0000"/>
</svg>
