<svg width="141" height="140" viewBox="0 0 141 140" fill="none" xmlns="http://www.w3.org/2000/svg">
<path d="M70.5 140C109.16 140 140.5 108.66 140.5 70C140.5 31.3401 109.16 0 70.5 0C31.8401 0 0.5 31.3401 0.5 70C0.5 108.66 31.8401 140 70.5 140Z" fill="#F6F7F8"/>
<g opacity="0.75">
<path opacity="0.75" d="M100.458 73.3418L127.779 29.3557C124.053 23.9903 119.59 19.178 114.523 15.0605L76.5771 73.3418H100.458Z" fill="white"/>
</g>
<g opacity="0.75">
<path opacity="0.75" d="M0.749331 73.3419H26.2147L69.911 0.0253906C57.6179 0.17535 45.5822 3.57485 35.0208 9.8802L1.10915 62.6458C0.838924 65.2239 0.708271 67.8147 0.717768 70.4069C0.717768 71.4063 0.717768 72.3741 0.749331 73.3419Z" fill="white"/>
</g>
<path d="M140.5 72.7998H0.5V74.1998H140.5V72.7998Z" fill="#B7BEC5"/>
<path d="M73.3 74.2V0L71.9001 0V74.2H73.3Z" fill="#B7BEC5"/>
<path d="M114.821 67.2002H125.558C125.878 67.2004 126.195 67.2648 126.488 67.3895C126.782 67.5141 127.047 67.6963 127.266 67.9248C127.485 68.1534 127.654 68.4234 127.762 68.7182C127.87 69.0131 127.916 69.3265 127.895 69.6391L127.157 80.4654C127.115 81.0441 126.85 81.5857 126.417 81.9816C125.983 82.3775 125.413 82.5985 124.819 82.6002H115.56C114.967 82.5999 114.396 82.3792 113.963 81.9828C113.531 81.5865 113.268 81.0441 113.228 80.4654L112.503 69.6138C112.487 69.3048 112.534 68.9957 112.643 68.7051C112.752 68.4145 112.919 68.1485 113.136 67.923C113.352 67.6975 113.613 67.5172 113.903 67.393C114.193 67.2688 114.505 67.2032 114.821 67.2002Z" fill="#B7BEC5"/>
<path d="M115.875 67.1879C115.875 67.1879 110.05 62.2157 113.705 46.2002C119.672 50.9392 117.832 67.2002 117.832 67.2002L115.875 67.1879Z" fill="#ECEEF1"/>
<path d="M125.369 67.2002C125.369 67.2002 129.745 63.8882 126.989 53.2002C122.529 56.3451 123.898 67.2002 123.898 67.2002H125.369Z" fill="#ECEEF1"/>
<path d="M121.092 67.2001C121.092 67.2001 123.811 52.8915 121.092 40.6001C115.516 45.0962 119.444 67.2001 119.444 67.2001H121.092Z" fill="#ECEEF1"/>
<path d="M114.252 46.2002L118.1 67.2002H117.002C117.002 67.2002 109.082 60.7486 114.252 46.2002Z" fill="#B7BEC5"/>
<path d="M126.5 46.2002L123.214 67.2002L122.292 67.1464C122.292 67.1464 117.197 58.8923 126.5 46.2002Z" fill="#B7BEC5"/>
<path d="M119.117 42L120.9 67.2H119.898C119.898 67.2 113.255 58.6791 119.117 42Z" fill="#B7BEC5"/>
<path d="M92.7727 35H24.4145C22.8989 35 21.4454 35.5975 20.3737 36.6611C19.302 37.7247 18.7 39.1672 18.7 40.6714V117.291C21.669 120.529 24.9386 123.483 28.4654 126.113H34.9673C35.3147 126.115 35.6474 126.253 35.8925 126.498C36.1377 126.742 36.2753 127.073 36.2753 127.418V131.155C45.7102 136.382 56.2327 139.379 67.0247 139.913C77.8167 140.448 88.5876 138.505 98.5 134.236V40.6714C98.5 39.9255 98.3517 39.187 98.0638 38.4981C97.7758 37.8092 97.3537 37.1834 96.8217 36.6567C96.2897 36.1299 95.6583 35.7124 94.9635 35.4281C94.2687 35.1438 93.5242 34.9984 92.7727 35Z" fill="white"/>
<path d="M36.9 127.449C36.9 127.066 36.7519 126.698 36.488 126.427C36.2242 126.155 35.8661 126.002 35.492 126H28.5C31.1754 128.056 33.9816 129.927 36.9 131.6V127.449Z" fill="#ECEEF1"/>
<path d="M35.1613 64.6445H27.2515C26.5299 64.6445 25.9448 65.2307 25.9448 65.9539V73.8795C25.9448 74.6026 26.5299 75.1888 27.2515 75.1888H35.1613C35.883 75.1888 36.468 74.6026 36.468 73.8795V65.9539C36.468 65.2307 35.883 64.6445 35.1613 64.6445Z" fill="#ECEEF1"/>
<path d="M35.1613 108.188H27.2515C26.5299 108.188 25.9448 108.774 25.9448 109.497V117.423C25.9448 118.146 26.5299 118.732 27.2515 118.732H35.1613C35.883 118.732 36.468 118.146 36.468 117.423V109.497C36.468 108.774 35.883 108.188 35.1613 108.188Z" fill="#ECEEF1"/>
<path d="M90.4859 68.1171H49.2768C49.1094 68.1171 48.9488 68.0505 48.8304 67.9319C48.712 67.8132 48.6455 67.6523 48.6455 67.4846C48.6455 67.3168 48.712 67.1559 48.8304 67.0373C48.9488 66.9187 49.1094 66.8521 49.2768 66.8521H90.4859C90.6533 66.8521 90.8139 66.9187 90.9323 67.0373C91.0507 67.1559 91.1172 67.3168 91.1172 67.4846C91.1172 67.6523 91.0507 67.8132 90.9323 67.9319C90.8139 68.0505 90.6533 68.1171 90.4859 68.1171Z" fill="#E6E6E6"/>
<path d="M90.4864 72.9814H49.2773C49.1098 72.9814 48.9493 72.9147 48.8309 72.7961C48.7125 72.6775 48.646 72.5166 48.646 72.3488C48.646 72.1811 48.7125 72.0202 48.8309 71.9016C48.9493 71.783 49.1098 71.7163 49.2773 71.7163H90.4864C90.6538 71.7163 90.8144 71.783 90.9328 71.9016C91.0512 72.0202 91.1177 72.1811 91.1177 72.3488C91.1177 72.5166 91.0512 72.6775 90.9328 72.7961C90.8144 72.9147 90.6538 72.9814 90.4864 72.9814Z" fill="#E6E6E6"/>
<path d="M49.2773 111.661C49.1098 111.661 48.9493 111.594 48.8309 111.475C48.7125 111.357 48.646 111.196 48.646 111.028C48.646 110.86 48.7125 110.699 48.8309 110.581C48.9493 110.462 49.1098 110.396 49.2773 110.396H90.4864C90.6538 110.396 90.8144 110.462 90.9328 110.581C91.0512 110.699 91.1177 110.86 91.1177 111.028C91.1177 111.196 91.0512 111.357 90.9328 111.475C90.8144 111.594 90.6538 111.661 90.4864 111.661H49.2773Z" fill="#E6E6E6"/>
<path d="M90.4864 116.524H49.2773C49.1098 116.524 48.9493 116.458 48.8309 116.339C48.7125 116.22 48.646 116.06 48.646 115.892C48.646 115.724 48.7125 115.563 48.8309 115.445C48.9493 115.326 49.1098 115.259 49.2773 115.259H90.4864C90.6538 115.259 90.8144 115.326 90.9328 115.445C91.0512 115.563 91.1177 115.724 91.1177 115.892C91.1177 116.06 91.0512 116.22 90.9328 116.339C90.8144 116.458 90.6538 116.524 90.4864 116.524Z" fill="#E6E6E6"/>
<path d="M90.4864 129.124H49.2773C49.1098 129.124 48.9493 129.058 48.8309 128.939C48.7125 128.821 48.646 128.66 48.646 128.492C48.646 128.324 48.7125 128.163 48.8309 128.045C48.9493 127.926 49.1098 127.859 49.2773 127.859H90.4864C90.6538 127.859 90.8144 127.926 90.9328 128.045C91.0512 128.163 91.1177 128.324 91.1177 128.492C91.1177 128.66 91.0512 128.821 90.9328 128.939C90.8144 129.058 90.6538 129.124 90.4864 129.124Z" fill="#E6E6E6"/>
<path d="M90.4864 133.989H49.2773C49.1098 133.989 48.9493 133.922 48.8309 133.803C48.7125 133.685 48.646 133.524 48.646 133.356C48.646 133.188 48.7125 133.028 48.8309 132.909C48.9493 132.79 49.1098 132.724 49.2773 132.724H90.4864C90.6538 132.724 90.8144 132.79 90.9328 132.909C91.0512 133.028 91.1177 133.188 91.1177 133.356C91.1177 133.524 91.0512 133.685 90.9328 133.803C90.8144 133.922 90.6538 133.989 90.4864 133.989Z" fill="#E6E6E6"/>
<path d="M105.951 78.3999H35.0492C32.2053 78.3999 29.8999 80.6879 29.8999 83.5102V94.2896C29.8999 97.1119 32.2053 99.3999 35.0492 99.3999H105.951C108.794 99.3999 111.1 97.1119 111.1 94.2896V83.5102C111.1 80.6879 108.794 78.3999 105.951 78.3999Z" fill="#F15525"/>
<path d="M46.4849 82.6001H39.915C38.2498 82.6001 36.8999 83.95 36.8999 85.6151V92.185C36.8999 93.8502 38.2498 95.2001 39.915 95.2001H46.4849C48.15 95.2001 49.4999 93.8502 49.4999 92.185V85.6151C49.4999 83.95 48.15 82.6001 46.4849 82.6001Z" fill="#ECEEF1"/>
<path d="M103.894 88.1999H59.5056C59.0798 88.1999 58.6713 88.0524 58.3702 87.7899C58.0691 87.5273 57.8999 87.1712 57.8999 86.7999C57.8999 86.4286 58.0691 86.0725 58.3702 85.81C58.6713 85.5474 59.0798 85.3999 59.5056 85.3999H103.894C104.32 85.3999 104.728 85.5474 105.03 85.81C105.331 86.0725 105.5 86.4286 105.5 86.7999C105.5 87.1712 105.331 87.5273 105.03 87.7899C104.728 88.0524 104.32 88.1999 103.894 88.1999Z" fill="#ECEEF1"/>
<path d="M94.1119 93.8H59.4879C59.0667 93.8 58.6628 93.6525 58.365 93.3899C58.0672 93.1274 57.8999 92.7713 57.8999 92.4C57.8999 92.0287 58.0672 91.6726 58.365 91.41C58.6628 91.1475 59.0667 91 59.4879 91H94.1119C94.5331 91 94.937 91.1475 95.2348 91.41C95.5326 91.6726 95.6999 92.0287 95.6999 92.4C95.6999 92.7713 95.5326 93.1274 95.2348 93.3899C94.937 93.6525 94.5331 93.8 94.1119 93.8Z" fill="#ECEEF1"/>
<path d="M90.5771 43.3999L88.002 44.6617C87.7038 44.8051 87.4534 45.0317 87.281 45.3141C87.1071 45.5888 87.0148 45.9073 87.0149 46.2325V54.7733L89.59 53.5115C89.8868 53.3661 90.1367 53.14 90.311 52.8591C90.4819 52.5834 90.5712 52.265 90.5685 51.9407" fill="#EF5630"/>
<path d="M85.2622 50.8335L82.6871 52.1039C82.3907 52.243 82.1403 52.464 81.9654 52.7408C81.7905 53.0176 81.6984 53.3387 81.7 53.6661V57.4L84.2751 56.1382C84.5733 55.9948 84.8237 55.7682 84.9961 55.4858C85.17 55.2111 85.2623 54.8926 85.2622 54.5674" fill="#EF5630"/>
</svg>
