<svg width="141" height="144" viewBox="0 0 141 144" fill="none" xmlns="http://www.w3.org/2000/svg">
<path d="M70.5473 143.97C109.181 143.97 140.5 112.637 140.5 73.9851C140.5 35.3334 109.181 4 70.5473 4C31.9136 4 0.594727 35.3334 0.594727 73.9851C0.594727 112.637 31.9136 143.97 70.5473 143.97Z" fill="#F2F2F7"/>
<g opacity="0.75">
<path opacity="0.75" d="M100.243 77.2317L127.565 33.3117C123.838 27.9544 119.376 23.1493 114.308 19.0381L76.3618 77.2317H100.243Z" fill="white"/>
</g>
<g opacity="0.75">
<path opacity="0.75" d="M0.532047 77.2301H25.998L69.6955 4.02393C57.4021 4.17366 45.3661 7.56805 34.8045 13.8639L0.891879 66.5501C0.621642 69.1243 0.490985 71.7112 0.500483 74.2996C0.500483 75.2975 0.500483 76.2638 0.532047 77.2301Z" fill="white"/>
</g>
<path d="M140.337 77.2314H0.76001V78.5894H140.337V77.2314Z" fill="#B7BEC5"/>
<path d="M73.2559 78.5893V4.37891H71.8986V78.5893H73.2559Z" fill="#B7BEC5"/>
<path d="M114.763 71.7241H125.23C125.542 71.7244 125.851 71.7886 126.137 71.9128C126.424 72.0371 126.682 72.2187 126.895 72.4466C127.109 72.6744 127.273 72.9436 127.379 73.2376C127.484 73.5315 127.529 73.844 127.509 74.1557L126.789 84.9494C126.748 85.5263 126.49 86.0663 126.067 86.461C125.645 86.8558 125.088 87.0761 124.51 87.0778H115.483C114.905 87.0775 114.349 86.8574 113.927 86.4623C113.505 86.0671 113.249 85.5263 113.21 84.9494L112.503 74.1304C112.487 73.8224 112.533 73.5142 112.639 73.2245C112.745 72.9348 112.909 72.6696 113.12 72.4447C113.331 72.2199 113.585 72.0402 113.868 71.9163C114.15 71.7925 114.455 71.7271 114.763 71.7241Z" fill="#B7BEC5"/>
<path d="M115.95 71.724C115.95 71.724 109.713 66.6082 113.626 50.1304C120.015 55.0062 118.045 71.7366 118.045 71.7366L115.95 71.724Z" fill="#ECEEF1"/>
<path d="M125.046 71.724C125.046 71.724 129.345 68.2188 126.637 56.9072C122.256 60.2356 123.601 71.724 123.601 71.724H125.046Z" fill="#ECEEF1"/>
<path d="M121.076 71.7242C121.076 71.7242 124.328 56.8505 121.076 44.0737C114.41 48.7474 119.107 71.7242 119.107 71.7242H121.076Z" fill="#ECEEF1"/>
<path d="M114.131 50.1304L117.382 71.7366H116.454C116.454 71.7366 109.763 65.0988 114.131 50.1304Z" fill="#B7BEC5"/>
<path d="M125.962 49.6064L122.969 71.7811L122.13 71.7243C122.13 71.7243 117.49 63.0085 125.962 49.6064Z" fill="#B7BEC5"/>
<path d="M118.879 45.4507L120.868 71.7875H119.75C119.75 71.7875 112.339 62.8822 118.879 45.4507Z" fill="#B7BEC5"/>
<path d="M92.5413 38.7622H24.5773C23.0705 38.7622 21.6253 39.3611 20.5598 40.4271C19.4943 41.4931 18.8958 42.9389 18.8958 44.4464V121.24C21.8477 124.486 25.0984 127.446 28.6049 130.082H35.0692C35.4147 130.084 35.7455 130.222 35.9892 130.467C36.2329 130.712 36.3697 131.044 36.3697 131.389V135.135C45.7502 140.374 56.212 143.378 66.9418 143.913C77.6716 144.449 88.3803 142.502 98.2355 138.223V44.4464C98.2355 43.6989 98.0881 42.9587 97.8018 42.2682C97.5155 41.5778 97.0959 40.9506 96.5669 40.4226C96.038 39.8946 95.4102 39.4762 94.7194 39.1913C94.0287 38.9064 93.2885 38.7606 92.5413 38.7622Z" fill="white"/>
<path d="M36.3708 131.364C36.3708 131.018 36.234 130.687 35.9903 130.442C35.7466 130.197 35.4158 130.058 35.0703 130.057H28.6123C31.0834 131.911 33.6753 133.599 36.3708 135.109V131.364Z" fill="white"/>
<path d="M29.6973 68.834H87.6712" stroke="#E6E6E6" stroke-width="2" stroke-linecap="round"/>
<path d="M29.6973 74.0269H68.3466" stroke="#E6E6E6" stroke-width="2" stroke-linecap="round"/>
<path d="M71.708 74.0269H80.9502" stroke="#E6E6E6" stroke-width="2" stroke-linecap="round"/>
<path d="M55.6855 94.7827H64.9278" stroke="#E6E6E6" stroke-width="2" stroke-linecap="round"/>
<path d="M29.6973 79.2197H42.3003" stroke="#E6E6E6" stroke-width="2" stroke-linecap="round"/>
<path d="M45.6602 79.2197L85.9899 79.2197" stroke="#E6E6E6" stroke-width="2" stroke-linecap="round"/>
<path d="M29.6973 84.4116H70.8672" stroke="#E6E6E6" stroke-width="2" stroke-linecap="round"/>
<path d="M29.6973 105.761H70.8672" stroke="#E6E6E6" stroke-width="2" stroke-linecap="round"/>
<path d="M29.6973 89.6045H87.6712" stroke="#E6E6E6" stroke-width="2" stroke-linecap="round"/>
<path d="M29.6973 110.954H87.6712" stroke="#E6E6E6" stroke-width="2" stroke-linecap="round"/>
<path d="M29.6973 94.7969H50.7023" stroke="#E6E6E6" stroke-width="2" stroke-linecap="round"/>
<path d="M29.6973 116.146H50.7023" stroke="#E6E6E6" stroke-width="2" stroke-linecap="round"/>
<path d="M29.6973 99.9897H87.6712" stroke="#E6E6E6" stroke-width="2" stroke-linecap="round"/>
<path d="M29.6973 121.339H87.6712" stroke="#E6E6E6" stroke-width="2" stroke-linecap="round"/>
<path d="M39.2041 45.8799L36.4463 47.2291C36.127 47.3825 35.8588 47.6247 35.6741 47.9267C35.4879 48.2205 35.3891 48.5611 35.3892 48.9088V58.0416L38.147 56.6923C38.4649 56.5368 38.7325 56.2951 38.9191 55.9947C39.1021 55.6999 39.1978 55.3594 39.1949 55.0126" fill="#EF5630"/>
<path d="M33.5123 53.8286L30.7545 55.187C30.437 55.3358 30.1689 55.5722 29.9815 55.8682C29.7942 56.1641 29.6956 56.5074 29.6973 56.8575V60.8502L32.4551 59.501C32.7744 59.3476 33.0426 59.1054 33.2273 58.8034C33.4135 58.5096 33.5123 58.169 33.5123 57.8213" fill="#EF5630"/>
<path d="M101.5 48C114.755 48 125.5 37.2548 125.5 24C125.5 10.7452 114.755 0 101.5 0C88.2452 0 77.5 10.7452 77.5 24C77.5 37.2548 88.2452 48 101.5 48Z" fill="#239A54"/>
<path d="M99.8198 34.5002C99.3097 34.4983 98.8197 34.3015 98.4498 33.9502L90.5998 26.5002C90.3968 26.3234 90.2315 26.1075 90.1139 25.8653C89.9964 25.6231 89.9289 25.3597 89.9155 25.0908C89.9022 24.822 89.9433 24.5532 90.0363 24.3006C90.1294 24.0479 90.2724 23.8167 90.457 23.6207C90.6415 23.4247 90.8637 23.268 91.1103 23.1599C91.3569 23.0519 91.6227 22.9947 91.8919 22.9919C92.1611 22.989 92.4281 23.0405 92.6769 23.1433C92.9257 23.2462 93.1512 23.3981 93.3398 23.5902L99.5898 29.5002L111.15 14.5702C111.476 14.1511 111.955 13.8789 112.482 13.8132C113.009 13.7476 113.541 13.894 113.96 14.2202C114.379 14.5464 114.651 15.0257 114.717 15.5527C114.782 16.0797 114.636 16.6111 114.31 17.0302L101.4 33.6802C101.237 33.9071 101.028 34.0973 100.787 34.2385C100.546 34.3798 100.278 34.4689 99.9998 34.5002H99.8198Z" fill="white"/>
</svg>
