<svg width="12" height="12" viewBox="0 0 12 12" fill="none" xmlns="http://www.w3.org/2000/svg">
<path d="M0.500327 6.07494C0.499558 5.93368 0.525059 5.79365 0.575367 5.66287C0.625675 5.5321 0.6998 5.41315 0.793495 5.31286C0.982904 5.11294 1.23912 5.00073 1.5062 5.00073C1.77327 5.00073 2.02949 5.11294 2.2189 5.31286L6.05031 9.38089L9.77052 5.45239C9.86449 5.35179 9.9763 5.27194 10.0995 5.21745C10.2227 5.16295 10.3548 5.1349 10.4883 5.1349C10.6217 5.1349 10.7539 5.16295 10.8771 5.21745C11.0002 5.27194 11.1121 5.35179 11.206 5.45239C11.3943 5.6535 11.5 5.92555 11.5 6.20911C11.5 6.49268 11.3943 6.76472 11.206 6.96583L6.75796 11.6886C6.56855 11.8885 6.31233 12.0007 6.04525 12.0007C5.77818 12.0007 5.52196 11.8885 5.33255 11.6886L0.793495 6.85849C0.697346 6.75566 0.621804 6.63322 0.57142 6.49856C0.521035 6.3639 0.496851 6.21979 0.500327 6.07494Z" fill="#EF5630"/>
<rect x="5" width="2" height="10" rx="1" fill="#EF5630"/>
</svg>
