<svg width="24" height="24" viewBox="0 0 24 24" fill="none" xmlns="http://www.w3.org/2000/svg">
<path d="M13.29 15.3701H19.44" stroke="#EF5630" stroke-width="2" stroke-miterlimit="10" stroke-linecap="round"/>
<path d="M13.29 18.1104H16.38H19.44" stroke="#EF5630" stroke-width="2" stroke-miterlimit="10" stroke-linecap="round"/>
<path d="M16.3701 22.3504L16.3801 18.1104" stroke="#EF5630" stroke-width="2" stroke-miterlimit="10" stroke-linecap="round"/>
<path d="M9.78018 2.78027H7.44018C6.97339 2.78027 6.52573 2.9657 6.19567 3.29577C5.8656 3.62583 5.68018 4.07349 5.68018 4.54027V4.54027C5.68017 4.77093 5.72577 4.99931 5.81434 5.21229C5.90291 5.42526 6.03271 5.61863 6.19627 5.78126C6.35983 5.94389 6.55393 6.07259 6.76741 6.15994C6.98088 6.2473 7.20952 6.29159 7.44018 6.29027H8.15018C8.58248 6.29027 8.99708 6.46201 9.30276 6.76769C9.60844 7.07337 9.78018 7.48797 9.78018 7.92027C9.78149 8.13517 9.74031 8.3482 9.65898 8.54712C9.57766 8.74604 9.4578 8.92691 9.30631 9.07933C9.15482 9.23175 8.97468 9.35271 8.77627 9.43525C8.57785 9.51779 8.36507 9.56028 8.15018 9.56027H5.68018" stroke="#EF5630" stroke-width="2" stroke-miterlimit="10" stroke-linecap="round"/>
<path d="M7.72998 1.65039V2.78039" stroke="#EF5630" stroke-width="2" stroke-miterlimit="10" stroke-linecap="round"/>
<path d="M7.72998 9.55957V10.6796" stroke="#EF5630" stroke-width="2" stroke-miterlimit="10" stroke-linecap="round"/>
<path d="M12.6201 4.41016H16.2001C17.2371 4.41016 18.2316 4.8221 18.9649 5.55537C19.6982 6.28864 20.1101 7.28316 20.1101 8.32016V12.0902" stroke="#EF5630" stroke-width="2" stroke-miterlimit="10" stroke-linecap="round"/>
<path d="M3.89014 12.6104V16.1804C3.89014 17.2173 4.30208 18.2119 5.03535 18.9451C5.76862 19.6784 6.76314 20.0904 7.80014 20.0904H11.5701" stroke="#EF5630" stroke-width="2" stroke-miterlimit="10" stroke-linecap="round"/>
</svg>
