<svg width="24" height="24" viewBox="0 0 24 24" fill="none" xmlns="http://www.w3.org/2000/svg">
<path d="M17.6898 8.90994C17.4929 8.90716 17.3012 8.8463 17.1387 8.73499C16.9763 8.62367 16.8503 8.46686 16.7766 8.28423C16.7029 8.1016 16.6848 7.90127 16.7245 7.70837C16.7642 7.51548 16.86 7.3386 16.9998 7.19994L19.5298 4.66994L16.9298 2.06994C16.7415 1.88296 16.6352 1.62884 16.6343 1.36347C16.6333 1.09811 16.7379 0.843241 16.9248 0.654937C17.1118 0.466634 17.3659 0.360319 17.6313 0.359381C17.8967 0.358444 18.1515 0.46296 18.3398 0.649937L21.6398 3.99994C21.8261 4.1873 21.9306 4.44075 21.9306 4.70494C21.9306 4.96912 21.8261 5.22257 21.6398 5.40994L18.3998 8.61994C18.3064 8.71262 18.1956 8.78594 18.0737 8.83571C17.9519 8.88547 17.8214 8.9107 17.6898 8.90994Z" fill="#EF5630"/>
<path d="M16.18 21.9999H7.57998C6.34846 21.9972 5.16828 21.5062 4.2984 20.6344C3.42851 19.7626 2.93998 18.5814 2.93998 17.3499V8.34988C2.93071 7.73421 3.04381 7.12283 3.27271 6.55122C3.50162 5.97961 3.84177 5.45915 4.27342 5.02005C4.70508 4.58095 5.21965 4.23195 5.78727 3.99331C6.35488 3.75467 6.96424 3.63114 7.57998 3.62988H19.78C20.0452 3.62988 20.2996 3.73524 20.4871 3.92278C20.6746 4.11031 20.78 4.36467 20.78 4.62988C20.78 4.8951 20.6746 5.14945 20.4871 5.33699C20.2996 5.52453 20.0452 5.62988 19.78 5.62988H7.57998C6.87889 5.63253 6.20742 5.91289 5.71261 6.40958C5.2178 6.90626 4.93998 7.57879 4.93998 8.27988V17.2799C4.93065 17.6329 4.99197 17.9842 5.12033 18.3132C5.2487 18.6422 5.44152 18.9422 5.68747 19.1956C5.93341 19.449 6.22753 19.6506 6.55253 19.7888C6.87752 19.9269 7.22685 19.9987 7.57998 19.9999H16.18C16.8811 19.9972 17.5525 19.7169 18.0474 19.2202C18.5422 18.7235 18.82 18.051 18.82 17.3499C18.82 17.0847 18.9253 16.8303 19.1129 16.6428C19.3004 16.4552 19.5548 16.3499 19.82 16.3499C20.0852 16.3499 20.3396 16.4552 20.5271 16.6428C20.7146 16.8303 20.82 17.0847 20.82 17.3499C20.82 18.5814 20.3314 19.7626 19.4616 20.6344C18.5917 21.5062 17.4115 21.9972 16.18 21.9999Z" fill="#EF5630"/>
<path d="M12.68 17.5905H10C9.73478 17.5905 9.48043 17.4851 9.29289 17.2976C9.10536 17.11 9 16.8557 9 16.5905C9 16.3253 9.10536 16.0709 9.29289 15.8834C9.48043 15.6958 9.73478 15.5905 10 15.5905H12.68C12.8842 15.5905 13.0801 15.5093 13.2245 15.3649C13.3689 15.2205 13.45 15.0247 13.45 14.8205C13.45 14.6163 13.3689 14.4204 13.2245 14.276C13.0801 14.1316 12.8842 14.0505 12.68 14.0505H11.91C11.1382 14.0505 10.398 13.7439 9.85232 13.1981C9.30659 12.6524 9 11.9122 9 11.1405C9 10.3687 9.30659 9.62852 9.85232 9.08279C10.398 8.53706 11.1382 8.23047 11.91 8.23047H14.45C14.7152 8.23047 14.9696 8.33583 15.1571 8.52336C15.3446 8.7109 15.45 8.96525 15.45 9.23047C15.45 9.49568 15.3446 9.75004 15.1571 9.93758C14.9696 10.1251 14.7152 10.2305 14.45 10.2305H11.91C11.6687 10.2305 11.4372 10.3263 11.2665 10.497C11.0959 10.6677 11 10.8991 11 11.1405C11 11.3818 11.0959 11.6133 11.2665 11.7839C11.4372 11.9546 11.6687 12.0505 11.91 12.0505H12.68C13.4146 12.0505 14.1192 12.3423 14.6387 12.8618C15.1582 13.3813 15.45 14.0858 15.45 14.8205C15.45 15.5551 15.1582 16.2597 14.6387 16.7792C14.1192 17.2986 13.4146 17.5905 12.68 17.5905Z" fill="#EF5630"/>
<path d="M12.23 10.23C11.9648 10.23 11.7104 10.1246 11.5229 9.93711C11.3353 9.74957 11.23 9.49522 11.23 9.23V8C11.23 7.73478 11.3353 7.48043 11.5229 7.29289C11.7104 7.10536 11.9648 7 12.23 7C12.4952 7 12.7496 7.10536 12.9371 7.29289C13.1246 7.48043 13.23 7.73478 13.23 8V9.23C13.23 9.49522 13.1246 9.74957 12.9371 9.93711C12.7496 10.1246 12.4952 10.23 12.23 10.23Z" fill="#EF5630"/>
<path d="M12.23 18.8198C11.9648 18.8198 11.7104 18.7145 11.5229 18.5269C11.3353 18.3394 11.23 18.0851 11.23 17.8198V16.5898C11.23 16.3246 11.3353 16.0703 11.5229 15.8827C11.7104 15.6952 11.9648 15.5898 12.23 15.5898C12.4952 15.5898 12.7496 15.6952 12.9371 15.8827C13.1246 16.0703 13.23 16.3246 13.23 16.5898V17.8198C13.23 18.0851 13.1246 18.3394 12.9371 18.5269C12.7496 18.7145 12.4952 18.8198 12.23 18.8198Z" fill="#EF5630"/>
</svg>
