<svg width="140" height="140" viewBox="0 0 140 140" fill="none" xmlns="http://www.w3.org/2000/svg">
<path d="M70 140C108.66 140 140 108.66 140 70C140 31.3401 108.66 0 70 0C31.3401 0 0 31.3401 0 70C0 108.66 31.3401 140 70 140Z" fill="#F6F7F8"/>
<g opacity="0.75">
<path opacity="0.75" d="M99.5515 73.2533L126.892 29.3177C123.164 23.9579 118.698 19.1516 113.626 15.041L75.6602 73.2533H99.5515Z" fill="white"/>
</g>
<g opacity="0.75">
<path opacity="0.75" d="M0.0631789 73.2534H25.5401L69.2735 0.0126953C56.9709 0.168375 44.9273 3.56771 34.3588 9.8674L0.423255 62.5901C0.140087 65.1556 -0.00121076 67.7348 7.81457e-06 70.3159C7.81457e-06 71.3203 0.0252762 72.2869 0.0631789 73.2534Z" fill="white"/>
</g>
<path d="M139.837 73.2529H0.165039V74.6111H139.837V73.2529Z" fill="#B7BEC5"/>
<path d="M72.7109 74.6051V0.378906L71.3527 0.378906V74.6051H72.7109Z" fill="#B7BEC5"/>
<path d="M22.2623 64.5293H36.1094C36.5227 64.5292 36.9317 64.6141 37.3108 64.7788C37.6899 64.9435 38.0311 65.1844 38.3132 65.4866C38.5952 65.7887 38.8121 66.1457 38.9502 66.5353C39.0884 66.9248 39.145 67.3387 39.1164 67.751L38.1625 82.0088C38.1113 82.7719 37.7724 83.4872 37.2143 84.0101C36.6561 84.5331 35.9204 84.8247 35.1555 84.8262H23.2288C22.464 84.8247 21.7282 84.5331 21.1701 84.0101C20.6119 83.4872 20.2731 82.7719 20.2219 82.0088L19.268 67.751C19.2394 67.3397 19.2956 66.927 19.433 66.5382C19.5704 66.1495 19.7862 65.7932 20.0668 65.4912C20.3475 65.1892 20.6872 64.948 21.0648 64.7825C21.4424 64.6171 21.85 64.5309 22.2623 64.5293Z" fill="#B7BEC5"/>
<path d="M28.6864 66.6519C28.6068 66.6522 28.5301 66.6224 28.4715 66.5685C28.4129 66.5146 28.3769 66.4406 28.3705 66.3613C28.3705 66.1339 26.6017 43.2154 33.2284 26.753C33.2437 26.7144 33.2665 26.6792 33.2955 26.6495C33.3244 26.6197 33.3589 26.5959 33.397 26.5795C33.4352 26.5631 33.4762 26.5543 33.5177 26.5537C33.5592 26.5532 33.6004 26.5608 33.639 26.5761C33.6776 26.5915 33.7127 26.6142 33.7425 26.6432C33.7723 26.6721 33.796 26.7066 33.8125 26.7448C33.8289 26.7829 33.8376 26.8239 33.8382 26.8654C33.8388 26.9069 33.8312 26.9481 33.8159 26.9867C27.2461 43.3102 28.9833 66.0834 29.0022 66.3108C29.0075 66.3942 28.9802 66.4765 28.9259 66.5401C28.8717 66.6038 28.7949 66.6439 28.7116 66.6519H28.6864Z" fill="#B7BEC5"/>
<path d="M31.952 67.6755C31.8734 67.6759 31.7975 67.647 31.7391 67.5944C31.6807 67.5419 31.644 67.4694 31.6361 67.3912C31.6361 67.2017 29.861 48.6104 36.5066 35.2497C36.5445 35.1753 36.6103 35.119 36.6896 35.0929C36.7689 35.0669 36.8553 35.0733 36.9299 35.1107C36.9673 35.1288 37.0007 35.1543 37.0281 35.1856C37.0555 35.2169 37.0763 35.2534 37.0892 35.2929C37.1022 35.3324 37.1071 35.3741 37.1036 35.4155C37.1001 35.4569 37.0883 35.4972 37.0688 35.534C30.5117 48.7305 32.2489 67.1196 32.2678 67.3281C32.2734 67.4112 32.2471 67.4934 32.1943 67.5579C32.1415 67.6224 32.0662 67.6645 31.9836 67.6755H31.952Z" fill="#B7BEC5"/>
<path d="M33.7533 68.2941C33.6758 68.2929 33.6014 68.2633 33.5444 68.2109C33.4873 68.1585 33.4515 68.0869 33.4437 68.0098C33.4437 67.8455 31.6686 51.282 38.3142 39.3806C38.3566 39.3074 38.426 39.2537 38.5076 39.2313C38.5891 39.2088 38.6763 39.2193 38.7501 39.2606C38.8217 39.3029 38.8741 39.3712 38.8965 39.4512C38.9189 39.5313 38.9094 39.6169 38.8701 39.6901C32.3193 51.4147 34.0502 67.776 34.0691 67.9403C34.0744 67.9815 34.0713 68.0233 34.0601 68.0633C34.0489 68.1032 34.0297 68.1405 34.0038 68.1729C33.9779 68.2054 33.9457 68.2322 33.9092 68.2519C33.8726 68.2717 33.8325 68.2838 33.7912 68.2877L33.7533 68.2941Z" fill="#B7BEC5"/>
<path d="M25.0794 67.0313H25.0415C24.9587 67.0217 24.883 66.9799 24.8309 66.9148C24.7789 66.8497 24.7546 66.7667 24.7635 66.6838C24.7635 66.5006 26.5197 48.0799 19.9562 34.8897C19.9378 34.8524 19.9271 34.8119 19.9245 34.7704C19.9218 34.7289 19.9274 34.6873 19.9409 34.648C19.9544 34.6086 19.9756 34.5724 20.0031 34.5412C20.0307 34.5101 20.0641 34.4847 20.1015 34.4665C20.1382 34.4471 20.1785 34.4353 20.22 34.4318C20.2614 34.4283 20.3031 34.4331 20.3426 34.4461C20.3821 34.4591 20.4186 34.4799 20.4499 34.5073C20.4812 34.5346 20.5066 34.568 20.5247 34.6055C27.164 47.9662 25.4078 66.5575 25.3889 66.747C25.3825 66.8246 25.3471 66.897 25.2898 66.9497C25.2324 67.0024 25.1573 67.0315 25.0794 67.0313Z" fill="#B7BEC5"/>
<path d="M21.9267 38.711C21.9267 38.711 20.2401 34.7565 24.0303 32.8613C26.1024 37.0054 21.9267 38.711 21.9267 38.711Z" fill="#B7BEC5"/>
<path d="M21.7567 39.122L21.6366 38.8314C21.6366 38.7935 19.8805 34.5737 23.8918 32.5775L24.1698 32.4385L24.3151 32.7164C24.631 33.2656 24.8271 33.8755 24.8902 34.506C24.9534 35.1364 24.8822 35.7731 24.6815 36.374C24.1696 37.5532 23.2276 38.4929 22.0472 39.002L21.7567 39.122ZM23.8603 33.2913C21.2576 34.7821 21.7946 37.3721 22.0788 38.2692C22.9698 37.816 23.6739 37.065 24.0687 36.1466C24.2242 35.6805 24.2859 35.1882 24.2501 34.6981C24.2143 34.208 24.0818 33.7299 23.8603 33.2913Z" fill="#B7BEC5"/>
<path d="M31.7188 34.1251C31.7188 34.1251 31.6493 29.8168 35.8755 29.501C36.2292 34.1251 31.7188 34.1251 31.7188 34.1251Z" fill="#B7BEC5"/>
<path d="M31.4404 34.4282V34.125C31.4404 34.0745 31.4404 29.5135 35.8624 29.1787H36.1783V29.4946C36.2643 30.1229 36.2165 30.7624 36.038 31.371C35.8594 31.9796 35.5542 32.5436 35.1423 33.0258C34.2182 33.9195 32.991 34.4316 31.7057 34.4598L31.4404 34.4282ZM35.6097 29.8357C34.6455 29.957 33.7573 30.4216 33.1076 31.1443C32.4579 31.867 32.0904 32.7996 32.0721 33.7713C33.0685 33.6864 34.0042 33.2576 34.719 32.5584C35.3493 31.7975 35.6576 30.8205 35.5781 29.8357H35.6097Z" fill="#B7BEC5"/>
<path d="M30.0762 40.4425C30.0762 40.4425 30.0068 36.1342 34.2266 35.8184C34.5993 40.4046 30.0762 40.4425 30.0762 40.4425Z" fill="#B7BEC5"/>
<path d="M29.7607 40.7262V40.4419C29.7607 40.3977 29.7607 35.8368 34.1827 35.502H34.4986V35.8178C34.5857 36.4452 34.5384 37.084 34.3598 37.6917C34.1812 38.2995 33.8754 38.8623 33.4626 39.3428C32.5402 40.2398 31.3124 40.7544 30.0261 40.7831L29.7607 40.7262ZM33.93 36.1337C30.961 36.5316 30.4809 39.128 30.4051 40.0692C31.3992 39.9829 32.3325 39.5542 33.0456 38.8563C33.3661 38.4838 33.6093 38.0512 33.7612 37.5838C33.913 37.1164 33.9704 36.6235 33.93 36.1337Z" fill="#B7BEC5"/>
<path d="M29.1856 45.9952C29.1856 45.9952 29.1161 41.7059 33.336 41.3711C33.696 45.9889 29.1856 45.9952 29.1856 45.9952Z" fill="#B7BEC5"/>
<path d="M28.876 46.3105V46.001C28.876 45.9505 28.876 41.3895 33.298 41.0547H33.6138V41.3705C33.7015 41.9903 33.658 42.6215 33.486 43.2233C33.3141 43.8251 33.0176 44.3841 32.6157 44.8639C31.6971 45.7627 30.4705 46.2777 29.1855 46.3042L28.876 46.3105ZM33.039 41.7054C30.0825 42.1033 29.5961 44.6997 29.514 45.6409C30.5095 45.553 31.4443 45.1246 32.1609 44.428C32.479 44.0542 32.7204 43.6213 32.871 43.1541C33.0217 42.6869 33.0788 42.1946 33.039 41.7054Z" fill="#B7BEC5"/>
<path d="M28.4522 56.9991C28.4522 56.9991 28.389 52.6972 32.6089 52.375C32.9626 56.9991 28.4522 56.9991 28.4522 56.9991Z" fill="#B7BEC5"/>
<path d="M28.1436 57.3154V57.0059C28.1436 56.9617 28.1436 52.4007 32.5655 52.0596H32.8814V52.3754C32.9691 53.0038 32.922 53.6437 32.7434 54.2526C32.5648 54.8614 32.2587 55.4253 31.8454 55.9067C30.9213 56.8004 29.6941 57.3125 28.4089 57.3407L28.1436 57.3154ZM32.3129 52.7229C29.3438 53.1208 28.8637 55.7172 28.7816 56.6584C29.7823 56.5764 30.723 56.1474 31.4411 55.4455C31.7584 55.0714 31.9988 54.6383 32.1484 54.1711C32.298 53.7039 32.3539 53.2117 32.3129 52.7229Z" fill="#B7BEC5"/>
<path d="M23.456 43.1455C23.456 43.1455 21.7694 39.1783 25.5596 37.2832C27.6506 41.4399 23.456 43.1455 23.456 43.1455Z" fill="#B7BEC5"/>
<path d="M23.2856 43.5566L23.1656 43.266C23.1656 43.2281 21.4094 39.0082 25.4145 37.012L25.6988 36.873L25.8377 37.151C26.1559 37.6993 26.3537 38.309 26.4179 38.9397C26.4822 39.5703 26.4115 40.2074 26.2104 40.8086C25.6985 41.9877 24.7565 42.9275 23.5762 43.4365L23.2856 43.5566ZM25.4145 37.7322C22.8245 39.2104 23.3488 41.8004 23.6331 42.7037C24.524 42.2505 25.2281 41.4995 25.623 40.5812C25.9339 39.6414 25.8589 38.6167 25.4145 37.7322Z" fill="#B7BEC5"/>
<path d="M24.6562 48.6543C24.6562 48.6543 22.9696 44.6935 26.7598 42.8047C28.8319 46.974 24.6562 48.6543 24.6562 48.6543Z" fill="#B7BEC5"/>
<path d="M24.4925 49.0907L24.3661 48.8065C24.3661 48.7622 22.61 44.5424 26.6213 42.5462L26.9056 42.4072L27.0446 42.6915C27.3616 43.2402 27.5587 43.8499 27.6229 44.4804C27.6872 45.1108 27.6171 45.7477 27.4173 46.3491C26.9026 47.527 25.9583 48.4645 24.7767 48.9707L24.4925 49.0907ZM26.615 43.2664C24.025 44.7509 24.5556 47.3409 24.8336 48.2379C25.7218 47.787 26.4253 47.041 26.8235 46.128C26.9816 45.6613 27.0447 45.1676 27.0089 44.6761C26.9731 44.1846 26.8391 43.7052 26.615 43.2664Z" fill="#B7BEC5"/>
<path d="M25.4707 55.2998C25.4707 55.2998 23.784 51.339 27.5743 49.4502C29.6463 53.5942 25.4707 55.2998 25.4707 55.2998Z" fill="#B7BEC5"/>
<path d="M25.2996 55.7109L25.1796 55.4266C25.1796 55.3824 23.4234 51.1688 27.4348 49.1663L27.7128 49.0273L27.8581 49.3116C28.1744 49.8607 28.3706 50.4706 28.4338 51.1011C28.4969 51.7316 28.4256 52.3683 28.2245 52.9692C27.7139 54.1507 26.7717 55.0929 25.5902 55.6035L25.2996 55.7109ZM27.4285 49.9181C24.8322 51.4026 25.3628 53.9926 25.6471 54.896C26.5453 54.4333 27.2536 53.6713 27.6496 52.7418C27.951 51.8082 27.8716 50.7934 27.4285 49.9181Z" fill="#B7BEC5"/>
<path d="M25.4967 62.8868C25.4967 62.8868 24.6313 59.7788 27.6509 58.7617C28.7627 62.0277 25.4967 62.8868 25.4967 62.8868Z" fill="#B7BEC5"/>
<path d="M25.2749 63.2721L25.1928 62.9752C25.1928 62.9373 24.2831 59.5639 27.5238 58.4521L27.827 58.3447L27.9281 58.648C28.1136 59.096 28.2017 59.5783 28.1865 60.063C28.1712 60.5477 28.053 61.0236 27.8397 61.4591C27.3323 62.3004 26.5237 62.917 25.5781 63.1836L25.2749 63.2721ZM27.4291 59.166C26.8124 59.4398 26.3091 59.9181 26.0041 60.52C25.6991 61.1219 25.6111 61.8106 25.755 62.4698C26.4029 62.2169 26.9491 61.7572 27.309 61.1622C27.6072 60.5377 27.6503 59.8216 27.4291 59.166Z" fill="#B7BEC5"/>
<path d="M34.1698 64.1698C34.1698 64.1698 33.2096 60.7332 36.5324 59.5898C37.758 63.2222 34.1698 64.1698 34.1698 64.1698Z" fill="#B7BEC5"/>
<path d="M33.9675 64.5546L33.8854 64.2577C33.8854 64.2198 32.8873 60.518 36.4122 59.2925L36.7154 59.1914L36.8165 59.4883C37.0186 59.981 37.1146 60.5107 37.0983 61.0429C37.0819 61.5752 36.9536 62.098 36.7217 62.5774C36.1622 63.4991 35.2757 64.1758 34.2391 64.4725L33.9675 64.5546ZM36.349 60.0063C35.6456 60.3114 35.0711 60.8529 34.725 61.5371C34.3788 62.2213 34.283 63.0049 34.4539 63.7524C35.1966 63.4761 35.8228 62.9546 36.229 62.2742C36.5539 61.5662 36.5902 60.7595 36.3301 60.0253L36.349 60.0063Z" fill="#B7BEC5"/>
<path d="M33.545 58.7619C33.545 58.7619 33.0459 54.4852 37.2152 53.7461C38.0301 58.3197 33.545 58.7619 33.545 58.7619Z" fill="#B7BEC5"/>
<path d="M33.2671 59.1222L33.2292 58.8127C33.2292 58.7621 32.7491 54.2264 37.1585 53.4494L37.468 53.3926L37.5249 53.7021C37.6738 54.318 37.6906 54.9584 37.5741 55.5812C37.4576 56.2041 37.2104 56.7951 36.8489 57.3155C36.0182 58.2951 34.8508 58.9284 33.5767 59.0906L33.2671 59.1222ZM36.95 54.1317C34.0378 54.8266 33.7914 57.4608 33.8357 58.4021C34.8245 58.2231 35.719 57.702 36.3625 56.9302C36.6411 56.526 36.8365 56.0704 36.9374 55.5899C37.0382 55.1095 37.0425 54.6138 36.95 54.1317Z" fill="#B7BEC5"/>
<path d="M35.0098 51.6806C35.0098 51.6806 35.1108 47.3786 39.337 47.2207C39.5202 51.8511 35.0098 51.6806 35.0098 51.6806Z" fill="#B7BEC5"/>
<path d="M35.0792 51.996H35.0034H34.6875V51.6864C34.6875 51.6422 34.8454 47.0812 39.318 46.917H39.6338V47.2328C39.6969 47.8637 39.6254 48.5007 39.4239 49.1019C39.2224 49.703 38.8956 50.2545 38.4651 50.7199C37.5327 51.5486 36.3266 52.0031 35.0792 51.996ZM39.0274 47.574C38.0621 47.659 37.1599 48.089 36.4858 48.7851C35.8118 49.4812 35.4111 50.3968 35.3571 51.3642C36.3541 51.3173 37.3036 50.9241 38.0419 50.2524C38.3764 49.8906 38.6353 49.4657 38.8035 49.0025C38.9716 48.5393 39.0456 48.0472 39.021 47.555L39.0274 47.574Z" fill="#B7BEC5"/>
<path d="M37.0693 43.6011C37.0693 43.6011 38.2127 39.4507 42.3568 40.3225C41.4029 44.8645 37.0693 43.6011 37.0693 43.6011Z" fill="#B7BEC5"/>
<path d="M38.3893 44.1065C37.9182 44.1088 37.4488 44.0493 36.9932 43.9296L36.6963 43.8412L36.7784 43.5443C36.7784 43.5001 38.0418 39.1223 42.4322 40.0446L42.7418 40.1078L42.6786 40.4173C42.5613 41.4601 42.054 42.42 41.2584 43.1043C40.4628 43.7885 39.4379 44.1466 38.3893 44.1065ZM37.4986 43.3927C38.4728 43.5841 39.4831 43.4346 40.3602 42.9694C40.7719 42.7006 41.1263 42.3528 41.4028 41.9462C41.6793 41.5396 41.8724 41.0822 41.9711 40.6005C39.021 40.1457 37.8207 42.5083 37.4859 43.3927H37.4986Z" fill="#B7BEC5"/>
<path d="M22.4832 41.7053C22.4832 41.7053 22.2305 37.4033 17.9981 37.4033C17.9854 42.0148 22.4832 41.7053 22.4832 41.7053Z" fill="#B7BEC5"/>
<path d="M22.2809 42.0093C21.0719 42.0278 19.8976 41.6057 18.9771 40.8217C18.5276 40.3751 18.1794 39.8371 17.9559 39.2442C17.7325 38.6513 17.6391 38.0173 17.682 37.3852V37.0693H17.9979C22.4767 37.0693 22.7989 41.624 22.7989 41.6682V41.9777H22.4894L22.2809 42.0093ZM18.3201 37.7074C18.3212 38.2017 18.4206 38.6908 18.6126 39.1463C18.8046 39.6018 19.0852 40.0146 19.4382 40.3606C20.2004 41.0043 21.1633 41.3618 22.1609 41.3713C21.9651 40.4427 21.3333 37.9158 18.3201 37.7074Z" fill="#B7BEC5"/>
<path d="M31.7688 30.8278C31.7688 30.8278 32.5143 26.5827 28.3955 25.6035C27.3153 30.1139 31.7688 30.8278 31.7688 30.8278Z" fill="#B7BEC5"/>
<path d="M32.0211 31.188L31.7179 31.1374C30.4559 30.9059 29.3279 30.2065 28.5594 29.1791C28.2276 28.6382 28.0144 28.0331 27.9338 27.4036C27.8532 26.7742 27.9071 26.1349 28.0919 25.5278L28.1677 25.2246L28.4709 25.2941C32.8297 26.3364 32.0906 30.8342 32.0843 30.8784L32.0211 31.188ZM28.6352 25.9953C28.5182 26.4728 28.4971 26.9688 28.573 27.4546C28.6489 27.9403 28.8203 28.4063 29.0774 28.8254C29.6695 29.6271 30.523 30.1969 31.4905 30.4362C31.5663 29.495 31.4905 26.8544 28.6352 25.9953Z" fill="#B7BEC5"/>
<path d="M30.4866 36.7218C30.4866 36.7218 31.232 32.4831 27.1133 31.5039C26.033 36.0206 30.4866 36.7218 30.4866 36.7218Z" fill="#B7BEC5"/>
<path d="M30.7457 37.0815L30.4361 37.0373C29.1739 36.8024 28.0462 36.1011 27.2776 35.0727C26.9429 34.5342 26.7279 33.93 26.6473 33.3011C26.5666 32.6721 26.6221 32.0333 26.8101 31.4277L26.8796 31.1182L27.1891 31.194C31.5479 32.23 30.8088 36.7341 30.8088 36.7783L30.7457 37.0815ZM27.3534 31.8952C27.233 32.3779 27.2107 32.8799 27.2877 33.3714C27.3648 33.863 27.5396 34.334 27.8019 34.7568C28.3969 35.5555 29.2492 36.1244 30.215 36.3677C30.2845 35.3885 30.215 32.748 27.3534 31.8952Z" fill="#B7BEC5"/>
<path d="M32.1675 51.1813C32.1675 51.1813 33.8163 47.2078 30.0134 45.3506C27.9793 49.5009 32.1675 51.1813 32.1675 51.1813Z" fill="#B7BEC5"/>
<path d="M32.3443 51.5733L32.0727 51.4596C30.8886 50.9578 29.9368 50.0286 29.4068 48.8569C29.2014 48.2568 29.1256 47.6199 29.1844 46.9884C29.2432 46.3568 29.4353 45.7449 29.748 45.193L29.8869 44.915L30.1712 45.0477C34.1952 47.0123 32.4959 51.2448 32.477 51.2827L32.3443 51.5733ZM30.1775 45.7678C29.952 46.2109 29.8179 46.6948 29.7832 47.1908C29.7485 47.6867 29.8138 48.1846 29.9754 48.6548C30.3822 49.5668 31.0919 50.31 31.9842 50.7584C32.2622 49.8234 32.7612 47.2271 30.1775 45.7678Z" fill="#B7BEC5"/>
<path d="M23.4051 47.486C23.4051 47.486 23.1524 43.1841 18.9199 43.1777C18.9073 47.8145 23.4051 47.486 23.4051 47.486Z" fill="#B7BEC5"/>
<path d="M23.2284 47.8013C22.0206 47.8199 20.8469 47.4002 19.9246 46.62C19.48 46.1699 19.1371 45.6297 18.9191 45.0357C18.7012 44.4418 18.6132 43.808 18.6612 43.1772V42.8613H18.977C23.4559 42.8613 23.778 47.416 23.778 47.4665V47.776H23.4685L23.2284 47.8013ZM19.2676 43.5057C19.2636 44.4992 19.6545 45.4535 20.3541 46.1589C21.1168 46.8017 22.0794 47.159 23.0768 47.1696C22.8999 46.2347 22.224 43.6826 19.2423 43.5057H19.2676Z" fill="#B7BEC5"/>
<path d="M24.7952 52.9752C24.7952 52.9752 24.5425 48.6543 20.3037 48.6543C20.2974 53.31 24.7952 52.9752 24.7952 52.9752Z" fill="#B7BEC5"/>
<path d="M24.5866 53.2978C23.3805 53.3171 22.2086 52.8973 21.2891 52.1165C20.8392 51.6647 20.4905 51.1224 20.2662 50.5256C20.0418 49.9287 19.9469 49.291 19.9878 48.6547V48.3389H20.3036C24.7888 48.3389 25.1046 52.8935 25.1109 52.9377V53.2473H24.7951L24.5866 53.2978ZM20.6321 48.9958C20.6266 49.4883 20.72 49.9768 20.9066 50.4325C21.0932 50.8882 21.3694 51.3019 21.7186 51.649C22.4789 52.2918 23.4395 52.6493 24.435 52.6598C24.2897 51.7312 23.6075 49.1727 20.6321 48.9958Z" fill="#B7BEC5"/>
<path d="M25.0164 59.1916C25.0164 59.1916 24.7637 54.896 20.5313 54.8896C20.5186 59.5264 25.0164 59.1916 25.0164 59.1916Z" fill="#B7BEC5"/>
<path d="M24.8144 59.5132C23.6065 59.5318 22.4329 59.1121 21.5106 58.3319C21.0623 57.8832 20.7149 57.3439 20.4916 56.7502C20.2683 56.1565 20.1742 55.522 20.2156 54.8891V54.5732H20.5314C25.0103 54.5732 25.3324 59.1279 25.3324 59.1721V59.488H25.0229L24.8144 59.5132ZM20.8536 55.2176C20.8611 56.2137 21.2605 57.1668 21.9654 57.8708C22.73 58.5104 23.6914 58.8673 24.6881 58.8815C24.4923 57.9466 23.8605 55.3881 20.8536 55.2176Z" fill="#B7BEC5"/>
<path d="M33.3799 27.1758C33.3799 27.1758 31.6932 23.215 35.4835 21.3262C37.5555 25.4892 33.3799 27.1758 33.3799 27.1758Z" fill="#B7BEC5"/>
<path d="M33.2095 27.6054L33.0894 27.3211C33.0894 27.2769 31.3333 23.0571 35.3383 21.0609L35.6226 20.9219L35.7616 21.1998C36.0798 21.7492 36.2777 22.36 36.3419 22.9917C36.4062 23.6234 36.3354 24.2615 36.1343 24.8638C35.6174 26.038 34.6767 26.9741 33.5 27.4854L33.2095 27.6054ZM35.3383 21.781C32.7483 23.2655 33.2726 25.8492 33.5569 26.7526C34.4427 26.3015 35.1456 25.5585 35.5468 24.649C35.7026 24.1808 35.7645 23.6864 35.7287 23.1942C35.6929 22.702 35.5603 22.2218 35.3383 21.781Z" fill="#B7BEC5"/>
<path d="M20.1006 34.4916C20.1006 34.4916 15.9882 33.2281 16.9863 29.1094C21.4904 30.1959 20.1006 34.4916 20.1006 34.4916Z" fill="#B7BEC5"/>
<path d="M20.3091 34.8833L20.0122 34.7886C19.968 34.7886 15.6218 33.3862 16.6768 29.0337L16.7526 28.7305L17.0621 28.8063C17.6813 28.9195 18.2694 29.1628 18.7877 29.5199C19.306 29.8771 19.7427 30.34 20.069 30.8783C20.6401 32.03 20.7508 33.356 20.3786 34.5864L20.3091 34.8833ZM17.2263 29.5012C16.6894 32.4386 19.0078 33.702 19.8795 34.0684C20.1051 33.0964 19.9868 32.0761 19.5447 31.1815C19.2876 30.7629 18.9505 30.399 18.5527 30.1107C18.1549 29.8223 17.7042 29.6152 17.2263 29.5012Z" fill="#B7BEC5"/>
<path d="M36.7663 35.3882C36.7663 35.3882 35.0796 31.421 38.8636 29.5322C40.9166 33.6889 36.7663 35.3882 36.7663 35.3882Z" fill="#B7BEC5"/>
<path d="M36.596 35.7987L36.495 35.5145C36.495 35.4703 34.7325 31.2567 38.7438 29.2605L39.0281 29.1152L39.1671 29.3995C39.4856 29.9477 39.6836 30.5574 39.7479 31.1881C39.8121 31.8188 39.7412 32.456 39.5398 33.0571C39.0242 34.2337 38.0834 35.1722 36.9056 35.685L36.596 35.7987ZM38.7249 29.9744C36.1286 31.4589 36.6592 34.0489 36.9435 34.9523C37.822 34.4975 38.5226 33.7612 38.9334 32.8613C39.0918 32.3903 39.155 31.8925 39.1192 31.3969C39.0834 30.9012 38.9494 30.4177 38.7249 29.9744Z" fill="#B7BEC5"/>
<path d="M38.5605 39.5391C38.5605 39.5391 36.8739 35.572 40.6641 33.6895C42.7362 37.8335 38.5605 39.5391 38.5605 39.5391Z" fill="#B7BEC5"/>
<path d="M38.3895 39.9491L38.2694 39.6586C38.2694 39.6206 36.5133 35.4008 40.5247 33.4046L40.8026 33.2656L40.9479 33.5436C41.2634 34.0929 41.4596 34.7025 41.5238 35.3327C41.5881 35.9629 41.5188 36.5995 41.3206 37.2012C40.8033 38.3743 39.8593 39.307 38.6801 39.8102L38.3895 39.9491ZM40.5183 34.1248C37.9283 35.6093 38.459 38.1993 38.7369 39.1026C39.6279 38.6494 40.3319 37.8984 40.7268 36.9801C40.8837 36.5142 40.9461 36.0217 40.9103 35.5314C40.8745 35.0411 40.7413 34.5629 40.5183 34.1248Z" fill="#B7BEC5"/>
<path d="M16.8291 28.5977L20.1898 34.4915C20.1898 34.4915 21.3837 32.2995 20.0003 30.3222C19.6159 29.8352 19.1366 29.4313 18.5915 29.1348C18.0464 28.8384 17.4469 28.6556 16.8291 28.5977Z" fill="#ECEEF1"/>
<path d="M28.1562 25.2812L31.5106 31.1751C31.8451 30.5239 32.0035 29.7966 31.9703 29.0653C31.937 28.334 31.7133 27.624 31.3211 27.0058C30.9382 26.5187 30.4601 26.1146 29.916 25.8181C29.3719 25.5217 28.7732 25.339 28.1562 25.2812Z" fill="#ECEEF1"/>
<path d="M35.6224 21.0166L33.5124 27.4601C33.0569 26.8884 32.7588 26.2074 32.648 25.4848C32.5372 24.7622 32.6174 24.0233 32.8807 23.3413C33.1576 22.7892 33.5432 22.2986 34.0143 21.8992C34.4854 21.4997 35.0324 21.1995 35.6224 21.0166Z" fill="#ECEEF1"/>
<path d="M34.5994 35.761L29.7605 40.5115C29.6168 39.7935 29.6631 39.0504 29.8946 38.3557C30.1262 37.6611 30.535 37.0389 31.0807 36.5507C31.5836 36.1884 32.1546 35.9317 32.7593 35.796C33.364 35.6603 33.9899 35.6484 34.5994 35.761Z" fill="#ECEEF1"/>
<path d="M36.3872 29.2041L31.5546 33.9609C31.4097 33.2429 31.4553 32.4995 31.6869 31.8046C31.9186 31.1097 32.3281 30.4875 32.8749 30.0001C33.3765 29.6376 33.9462 29.3802 34.5498 29.2435C35.1533 29.1067 35.7783 29.0933 36.3872 29.2041Z" fill="#ECEEF1"/>
<path d="M34.1765 41.0169L29.3376 45.7673C29.194 45.0493 29.2402 44.3063 29.4718 43.6116C29.7033 42.9169 30.1122 42.2947 30.6579 41.8065C31.1608 41.4443 31.7317 41.1876 32.3365 41.0519C32.9412 40.9162 33.5671 40.9043 34.1765 41.0169Z" fill="#ECEEF1"/>
<path d="M33.1213 52.3503L28.2824 57.1008C28.1393 56.3838 28.1858 55.6418 28.4174 54.9482C28.6489 54.2547 29.0575 53.6335 29.6027 53.1463C30.1048 52.7823 30.6755 52.5241 31.2804 52.3873C31.8852 52.2505 32.5115 52.2379 33.1213 52.3503Z" fill="#ECEEF1"/>
<path d="M39.6536 47.113L34.8147 51.8635C34.6715 51.1465 34.7181 50.4045 34.9496 49.7109C35.1812 49.0174 35.5897 48.3962 36.1349 47.909C36.637 47.545 37.2077 47.2868 37.8126 47.15C38.4174 47.0132 39.0437 47.0006 39.6536 47.113Z" fill="#ECEEF1"/>
<path d="M42.5962 40.0887L36.835 43.6642C36.835 43.6642 36.835 41.1689 38.9891 40.0887C39.5592 39.8452 40.1727 39.7197 40.7926 39.7197C41.4126 39.7197 42.0261 39.8452 42.5962 40.0887Z" fill="#ECEEF1"/>
<path d="M38.8445 29.2422L36.7409 35.692C36.286 35.1187 35.9884 34.4367 35.8776 33.7133C35.7668 32.9898 35.8466 32.25 36.1092 31.5669C36.3854 31.0154 36.77 30.5252 37.24 30.1258C37.71 29.7264 38.2557 29.4258 38.8445 29.2422Z" fill="#ECEEF1"/>
<path d="M24.3021 32.457L22.2048 38.9068C21.7498 38.3336 21.4522 37.6515 21.3415 36.9281C21.2307 36.2047 21.3105 35.4649 21.5731 34.7817C21.8486 34.2308 22.2322 33.7411 22.701 33.3417C23.1699 32.9423 23.7144 32.6414 24.3021 32.457Z" fill="#ECEEF1"/>
<path d="M25.8306 36.9932L23.7333 43.4429C23.2789 42.8707 22.9816 42.1897 22.8708 41.4674C22.76 40.7451 22.8396 40.0064 23.1016 39.3242C23.3773 38.7728 23.7609 38.2823 24.2297 37.8819C24.6985 37.4815 25.2429 37.1793 25.8306 36.9932Z" fill="#ECEEF1"/>
<path d="M26.9112 42.5332L24.8076 48.9767C24.3531 48.4044 24.0558 47.7235 23.945 47.0011C23.8343 46.2788 23.9138 45.5401 24.1759 44.8579C24.452 44.3064 24.8366 43.8163 25.3066 43.4168C25.7766 43.0174 26.3223 42.7168 26.9112 42.5332Z" fill="#ECEEF1"/>
<path d="M27.6505 49.0527L25.5469 55.4962C25.0931 54.9236 24.7961 54.2427 24.6853 53.5205C24.5746 52.7983 24.6538 52.0597 24.9152 51.3774C25.1914 50.8259 25.576 50.3358 26.046 49.9363C26.516 49.5369 27.0617 49.2364 27.6505 49.0527Z" fill="#ECEEF1"/>
<path d="M28.3333 58.5469L25.1748 63.0826C24.9529 62.5281 24.8793 61.9254 24.9612 61.3339C25.0432 60.7424 25.2779 60.1824 25.6422 59.7092C25.9912 59.3465 26.4088 59.0569 26.8709 58.8574C27.3329 58.6578 27.8301 58.5522 28.3333 58.5469Z" fill="#ECEEF1"/>
<path d="M37.6694 53.6577L33.3358 58.8883C33.1175 58.1899 33.0854 57.4465 33.2428 56.7318C33.4001 56.0171 33.7414 55.356 34.2329 54.8138C34.6972 54.398 35.2414 54.081 35.8322 53.8823C36.423 53.6835 37.0481 53.6071 37.6694 53.6577Z" fill="#ECEEF1"/>
<path d="M37.341 59.002L33.6897 64.7189C33.3891 64.0512 33.2678 63.3167 33.3375 62.5879C33.4073 61.859 33.6659 61.1608 34.0877 60.5623C34.4965 60.096 34.9955 59.7174 35.5547 59.4492C36.1138 59.1811 36.7214 59.0289 37.341 59.002Z" fill="#ECEEF1"/>
<path d="M40.7652 33.0381L38.2889 39.3552C37.8656 38.7588 37.6051 38.0623 37.5331 37.3345C37.4611 36.6067 37.5801 35.8727 37.8783 35.2049C38.1879 34.6672 38.6034 34.198 39.0996 33.8255C39.5959 33.4531 40.1625 33.1852 40.7652 33.0381Z" fill="#ECEEF1"/>
<path d="M26.8291 31.1689L30.1772 37.0565C30.5116 36.4053 30.6701 35.678 30.6368 34.9467C30.6036 34.2153 30.3798 33.5054 29.9877 32.8872C29.6043 32.4025 29.1269 32.0004 28.5841 31.7051C28.0412 31.4098 27.4443 31.2275 26.8291 31.1689Z" fill="#ECEEF1"/>
<path d="M29.0713 45.3066L32.4257 51.1816C32.7601 50.5303 32.9186 49.803 32.8853 49.0717C32.8521 48.3404 32.6283 47.6305 32.2362 47.0123C31.851 46.5292 31.372 46.129 30.8281 45.8359C30.2842 45.5428 29.6866 45.3628 29.0713 45.3066Z" fill="#ECEEF1"/>
<path d="M17.752 37.4096L22.6667 42.0716C22.7988 41.3523 22.74 40.611 22.4962 39.9215C22.2523 39.232 21.8319 38.6186 21.2769 38.1423C20.7697 37.7877 20.1956 37.5399 19.5897 37.414C18.9837 37.288 18.3585 37.2865 17.752 37.4096Z" fill="#ECEEF1"/>
<path d="M18.6738 43.0445L23.5949 47.7128C23.7249 46.9926 23.6652 46.251 23.4215 45.5609C23.1778 44.8708 22.7586 44.2561 22.2051 43.7773C21.6967 43.4225 21.1216 43.1746 20.5146 43.0487C19.9076 42.9227 19.2814 42.9213 18.6738 43.0445Z" fill="#ECEEF1"/>
<path d="M20.0703 48.5407L24.9913 53.2027C25.1197 52.4843 25.0577 51.7448 24.8117 51.0577C24.5657 50.3706 24.1441 49.7598 23.5889 49.2861C23.0831 48.9308 22.5106 48.6816 21.9059 48.5535C21.3012 48.4254 20.6768 48.4211 20.0703 48.5407Z" fill="#ECEEF1"/>
<path d="M20.2402 54.7126L25.1613 59.3935C25.2914 58.6734 25.2316 57.9317 24.9879 57.2416C24.7442 56.5515 24.325 55.9368 23.7715 55.458C23.2641 55.101 22.6894 54.8509 22.0824 54.7228C21.4754 54.5946 20.8486 54.5912 20.2402 54.7126Z" fill="#ECEEF1"/>
<path d="M34.3028 42.0089C34.3028 42.0089 34.2333 37.7006 38.4595 37.3848C38.8132 42.0026 34.3028 42.0089 34.3028 42.0089Z" fill="#B7BEC5"/>
<path d="M33.9678 42.3369V42.0274C33.9678 41.9768 33.9678 37.4159 38.3898 37.0811H38.7056V37.3969C38.7997 38.0121 38.764 38.6401 38.6008 39.2407C38.4376 39.8413 38.1505 40.401 37.758 40.884C36.8351 41.7933 35.5981 42.3135 34.3026 42.3369H33.9678ZM38.1308 37.7444C35.1617 38.1423 34.6816 40.7387 34.6058 41.6799C35.6139 41.5923 36.5594 41.1542 37.2779 40.4418C37.9173 39.69 38.233 38.7156 38.156 37.7317L38.1308 37.7444Z" fill="#B7BEC5"/>
<path d="M38.8445 37.3596L34.0119 42.1101C34.0119 42.1101 33.456 39.678 35.3258 38.1493C35.8287 37.7871 36.3997 37.5304 37.0044 37.3947C37.6091 37.2589 38.235 37.247 38.8445 37.3596Z" fill="#ECEEF1"/>
<path d="M33.001 47.6437C33.001 47.6437 32.9379 43.3417 37.1577 43.0195C37.5115 47.6437 33.001 47.6437 33.001 47.6437Z" fill="#B7BEC5"/>
<path d="M32.7041 47.9663V47.6504C32.7041 47.6062 32.7041 43.0452 37.1261 42.7041H37.4419V43.0136C37.5296 43.6421 37.4826 44.2819 37.304 44.8908C37.1253 45.4996 36.8192 46.0635 36.4059 46.5449C35.4847 47.4429 34.2557 47.9557 32.9694 47.9789L32.7041 47.9663ZM36.8734 43.3737C33.9044 43.7654 33.4243 46.368 33.3484 47.3093C34.3333 47.2258 35.2602 46.8091 35.9764 46.128C36.3008 45.7516 36.5463 45.3138 36.6982 44.8406C36.8501 44.3675 36.9054 43.8686 36.8608 43.3737H36.8734Z" fill="#B7BEC5"/>
<path d="M37.341 42.6973L33.0264 47.9279C32.8083 47.229 32.7769 46.4851 32.9354 45.7703C33.0939 45.0555 33.4367 44.3946 33.9298 43.8533C34.3907 43.4401 34.9307 43.1246 35.517 42.9259C36.1033 42.7272 36.7238 42.6494 37.341 42.6973Z" fill="#ECEEF1"/>
<path d="M29.4388 43.0192C29.4388 43.0192 30.1842 38.7804 26.0654 37.7949C24.9852 42.3369 29.4388 43.0192 29.4388 43.0192Z" fill="#B7BEC5"/>
<path d="M29.6918 43.3794L29.3886 43.3288C28.1252 43.1009 26.9959 42.4008 26.23 41.3705C25.8943 40.8325 25.6782 40.2285 25.5965 39.5996C25.5147 38.9707 25.5692 38.3316 25.7562 37.7256L25.832 37.416L26.1353 37.4918C30.4941 38.5278 29.755 43.0319 29.7486 43.0762L29.6918 43.3794ZM26.3058 38.1867C26.1871 38.6641 26.1651 39.1604 26.241 39.6464C26.317 40.1324 26.4894 40.5984 26.748 41.0168C27.3417 41.8182 28.1942 42.3895 29.1612 42.634C29.237 41.7053 29.1612 39.0458 26.3058 38.1867Z" fill="#B7BEC5"/>
<path d="M25.7549 37.4609L29.1093 43.3548C29.444 42.7023 29.602 41.9735 29.5676 41.2409C29.5333 40.5084 29.3077 39.7976 28.9134 39.1792C28.5294 38.6953 28.0517 38.2938 27.5091 37.9986C26.9664 37.7034 26.3698 37.5205 25.7549 37.4609Z" fill="#ECEEF1"/>
<path d="M47.31 45.2499C46.9382 42.0038 44.0318 39.6768 40.8184 40.0524C37.605 40.428 35.3014 43.3639 35.6732 46.61C36.045 49.856 38.9514 52.183 42.1648 51.8075C45.3782 51.4319 47.6818 48.4959 47.31 45.2499Z" fill="white"/>
<path d="M41.4795 52.1609C39.8707 52.165 38.3237 51.5354 37.1669 50.4059C36.0102 49.2764 35.3348 47.7359 35.2843 46.1115C35.2338 44.4871 35.8121 42.9068 36.8964 41.7062C37.9806 40.5056 39.4855 39.7792 41.0914 39.6813C42.6973 39.5834 44.2778 40.1217 45.4971 41.1819C46.7165 42.2421 47.4787 43.7407 47.6219 45.3594C47.7651 46.9782 47.278 48.5895 46.2641 49.8514C45.2502 51.1132 43.7894 51.9261 42.1917 52.1174C41.9555 52.1472 41.7176 52.1617 41.4795 52.1609ZM41.4795 40.3211C41.2741 40.3215 41.069 40.336 40.8656 40.3645C40.1414 40.4461 39.4404 40.6716 38.8029 41.028C38.1653 41.3844 37.6039 41.8646 37.1508 42.441C36.6977 43.0175 36.362 43.6787 36.1629 44.3868C35.9638 45.0948 35.9053 45.8356 35.9907 46.5666C36.1194 47.6321 36.5495 48.6375 37.2295 49.4623C37.9095 50.2872 38.8104 50.8965 39.8245 51.2172C40.8385 51.538 41.9226 51.5566 42.9468 51.2708C43.971 50.985 44.892 50.407 45.5993 49.606C46.3066 48.8049 46.7703 47.8149 46.9347 46.7544C47.0992 45.694 46.9575 44.6081 46.5266 43.6269C46.0957 42.6458 45.3939 41.8109 44.5053 41.2224C43.6167 40.6338 42.5789 40.3166 41.5164 40.3087L41.4795 40.3211Z" fill="#ACB4BB"/>
<path d="M42.1551 51.8005L51.0207 50.5601C50.64 48.3398 50.245 46.1153 49.8357 43.8867L41.0684 44.9783C41.9941 44.9504 42.8946 45.2854 43.5813 45.9131C44.2679 46.5409 44.6875 47.4127 44.7521 48.346C44.7534 49.1296 44.5 49.892 44.0308 50.5161C43.5616 51.1401 42.9027 51.5914 42.1551 51.8005Z" fill="white"/>
<path d="M42.1978 52.1173L42.0688 51.4971C42.7499 51.3062 43.3511 50.8969 43.7818 50.3309C44.2126 49.7649 44.4496 49.0728 44.4572 48.3588C44.3992 47.5094 44.0213 46.7147 43.4013 46.138C42.7813 45.5613 41.9661 45.2463 41.1233 45.2578H41.0742L41.0312 44.6376L50.1056 43.4902L51.3765 50.7776L42.1978 52.1173ZM42.8731 45.078C43.4462 45.3254 43.9465 45.7177 44.3258 46.2172C44.7052 46.7166 44.9508 47.3063 45.039 47.9295C45.1272 48.5527 45.0551 49.1883 44.8295 49.7752C44.6039 50.362 44.2325 50.8803 43.7511 51.28L50.6643 50.3063L49.6022 44.2345L42.8731 45.078Z" fill="#ACB4BB"/>
<path d="M107.223 106.999L55.3186 113.058L55.1835 112.872C52.752 109.534 51.2778 105.583 50.9226 101.454L46.1521 45.7473C46.0473 44.4378 45.561 43.1889 44.7547 42.1581C43.9484 41.1272 42.8581 40.3605 41.6211 39.9546L93.1509 33.9386C93.3963 33.9069 93.6456 33.9389 93.8754 34.0317C95.0369 34.4783 96.0492 35.2485 96.7947 36.253C97.5402 37.2575 97.9884 38.4551 98.0871 39.7065L102.833 95.4258C103.195 99.6224 104.716 103.632 107.223 106.999Z" fill="white"/>
<path d="M55.1771 113.4L54.9315 113.065C52.4755 109.678 50.9887 105.674 50.6338 101.492L45.8571 45.7724C45.7631 44.5256 45.3043 43.3352 44.5391 42.3524C43.7738 41.3696 42.7367 40.6387 41.5594 40.2526L40.2148 39.8122L93.1567 33.6102C93.45 33.5789 93.7464 33.6172 94.0224 33.7218C95.2355 34.1939 96.2925 35.0016 97.0721 36.0524C97.8518 37.1033 98.3226 38.3547 98.4306 39.6634L103.177 95.3764C103.522 99.5178 105.011 103.478 107.474 106.807L107.8 107.235L55.1771 113.4ZM42.8242 40.1285C43.8487 40.6728 44.7203 41.47 45.3579 42.4459C45.9955 43.4219 46.3784 44.5448 46.4711 45.7104L51.2293 101.417C51.578 105.488 53.0311 109.383 55.4288 112.674V112.717L106.633 106.739C104.281 103.408 102.856 99.5018 102.507 95.426L97.7614 39.7068C97.6638 38.5142 97.2353 37.3736 96.5251 36.4159C95.8148 35.4582 94.8517 34.7222 93.7461 34.2924C93.5617 34.2244 93.3645 34.1989 93.169 34.218L42.8242 40.1285Z" fill="#ACB4BB"/>
<path d="M53.6177 54.4058C53.2106 54.4296 52.8109 54.2891 52.5063 54.0152C52.2018 53.7413 52.0174 53.3564 51.9938 52.9452C51.9702 52.534 52.1092 52.1301 52.3804 51.8225C52.6516 51.5148 53.0326 51.3286 53.4397 51.3048L90.0134 47.0377C90.4204 46.99 90.8296 47.1077 91.1509 47.3647C91.4721 47.6218 91.6791 47.9972 91.7263 48.4084C91.7735 48.8196 91.6571 49.2329 91.4027 49.5575C91.1482 49.882 90.7765 50.0911 90.3695 50.1388L53.7958 54.3934L53.6177 54.4058Z" fill="#ECEEF1"/>
<path d="M54.2808 62.6542C53.8737 62.678 53.4739 62.5375 53.1694 62.2636C52.8648 61.9897 52.6805 61.6048 52.6569 61.1936C52.6333 60.7824 52.7723 60.3785 53.0435 60.0709C53.3146 59.7632 53.6957 59.577 54.1028 59.5531L90.6764 55.2799C91.0835 55.2322 91.4927 55.3498 91.8139 55.6069C92.1352 55.8639 92.3422 56.2394 92.3894 56.6506C92.4366 57.0618 92.3202 57.4751 92.0657 57.7996C91.8113 58.1242 91.4396 58.3333 91.0325 58.381L54.4589 62.648C54.3999 62.656 54.3402 62.6581 54.2808 62.6542Z" fill="#ECEEF1"/>
<path d="M54.9436 71.647C54.5365 71.67 54.137 71.5287 53.8331 71.2542C53.5291 70.9798 53.3455 70.5945 53.3227 70.1833C53.2999 69.7721 53.4398 69.3686 53.7115 69.0615C53.9832 68.7544 54.3646 68.569 54.7717 68.546L91.3454 64.2727C91.5469 64.2495 91.751 64.2666 91.9461 64.3231C92.1411 64.3796 92.3232 64.4743 92.482 64.6019C92.6407 64.7295 92.7731 64.8874 92.8714 65.0666C92.9698 65.2458 93.0323 65.4429 93.0552 65.6465C93.0782 65.8501 93.0613 66.0563 93.0054 66.2533C92.9495 66.4503 92.8557 66.6343 92.7294 66.7946C92.6031 66.955 92.4468 67.0887 92.2694 67.1881C92.092 67.2875 91.8969 67.3506 91.6953 67.3738L55.1216 71.647H54.9436Z" fill="#ECEEF1"/>
<path d="M55.7795 80.504C55.3724 80.527 54.973 80.3858 54.669 80.1113C54.365 79.8368 54.1815 79.4515 54.1587 79.0403C54.1359 78.6291 54.2757 78.2256 54.5474 77.9185C54.8192 77.6114 55.2005 77.426 55.6076 77.403L76.7217 74.9222C76.9233 74.8989 77.1274 74.9161 77.3224 74.9725C77.5175 75.029 77.6996 75.1237 77.8583 75.2513C78.0171 75.3789 78.1495 75.5368 78.2478 75.716C78.3462 75.8952 78.4086 76.0923 78.4316 76.2959C78.4546 76.4995 78.4377 76.7057 78.3817 76.9027C78.3258 77.0997 78.2321 77.2837 78.1058 77.4441C77.9795 77.6044 77.8232 77.7381 77.6458 77.8375C77.4683 77.9369 77.2733 78 77.0717 78.0232L55.9576 80.504H55.7795Z" fill="#ECEEF1"/>
<path d="M59.5914 102.54C59.1843 102.564 58.7845 102.424 58.4799 102.15C58.1754 101.876 57.991 101.491 57.9674 101.08C57.9438 100.668 58.0829 100.264 58.354 99.9568C58.6252 99.6492 59.0062 99.463 59.4133 99.4391L80.5336 96.9583C80.7352 96.9351 80.9393 96.9522 81.1343 97.0087C81.3293 97.0651 81.5114 97.1599 81.6702 97.2874C81.829 97.415 81.9613 97.5729 82.0597 97.7521C82.158 97.9314 82.2205 98.1284 82.2435 98.332C82.2664 98.5357 82.2495 98.7419 82.1936 98.9389C82.1377 99.1359 82.0439 99.3198 81.9176 99.4802C81.7914 99.6406 81.635 99.7743 81.4576 99.8736C81.2802 99.973 81.0851 100.036 80.8835 100.059L59.7694 102.54H59.5914Z" fill="#ECEEF1"/>
<path d="M57.7678 96.1081C57.3607 96.1311 56.9613 95.9898 56.6573 95.7153C56.3533 95.4409 56.1697 95.0556 56.1469 94.6444C56.1241 94.2332 56.264 93.8296 56.5357 93.5226C56.8075 93.2155 57.1888 93.0301 57.5959 93.0071L71.5144 91.3821C71.716 91.3589 71.9201 91.376 72.1151 91.4325C72.3101 91.489 72.4922 91.5837 72.651 91.7113C72.8098 91.8388 72.9421 91.9967 73.0405 92.176C73.1389 92.3552 73.2013 92.5523 73.2243 92.7559C73.2473 92.9595 73.2303 93.1657 73.1744 93.3627C73.1185 93.5597 73.0247 93.7436 72.8984 93.904C72.7722 94.0644 72.6159 94.1981 72.4384 94.2975C72.261 94.3968 72.0659 94.4599 71.8644 94.4831L57.9458 96.1081C57.8867 96.1144 57.827 96.1144 57.7678 96.1081Z" fill="#ECEEF1"/>
<path d="M93.771 93.5781L97.817 99.3274C97.8295 99.3464 97.8357 99.369 97.8344 99.3918C97.8332 99.4146 97.8247 99.4364 97.8101 99.4539C97.7956 99.4713 97.7758 99.4836 97.7538 99.4887C97.7318 99.4939 97.7087 99.4917 97.6881 99.4825L94.1209 97.5412C94.2806 99.0359 94.4463 100.531 94.606 102.019C94.6079 102.042 94.6022 102.066 94.5897 102.085C94.5772 102.105 94.5586 102.12 94.5369 102.127C94.5151 102.135 94.4914 102.136 94.4695 102.128C94.4476 102.121 94.4286 102.107 94.4156 102.087L90.6582 96.2326L93.771 93.5781Z" fill="#E6E6E6"/>
<path d="M94.5015 102.447C94.4336 102.446 94.3667 102.429 94.3068 102.397C94.2469 102.364 94.1957 102.318 94.1577 102.261L90.2529 96.1764L93.8262 93.125L98.0686 99.1472C98.1249 99.221 98.1554 99.3115 98.1554 99.4046C98.1554 99.4977 98.1249 99.5882 98.0686 99.662C98.0081 99.7336 97.925 99.782 97.8333 99.7989C97.7416 99.8159 97.6469 99.8004 97.5652 99.755L94.4954 98.0928L94.919 101.988C94.9286 102.08 94.9071 102.173 94.8582 102.252C94.8092 102.331 94.7355 102.39 94.6489 102.422C94.6019 102.44 94.5518 102.448 94.5015 102.447ZM91.0634 96.2943L94.2068 101.194L93.7525 96.9889L97.0618 98.7875L93.7157 94.0305L91.0634 96.2943Z" fill="#ACB4BB"/>
<path d="M95.4714 92.0214C95.5519 92.1412 95.6042 92.278 95.6243 92.4214C95.6444 92.5648 95.6318 92.711 95.5873 92.8487C95.5429 92.9863 95.4678 93.1119 95.3679 93.2158C95.268 93.3197 95.1459 93.399 95.0109 93.4479C94.6584 93.5792 94.353 93.8143 94.1341 94.1227C93.9152 94.4312 93.7929 94.7988 93.783 95.1782C93.7805 95.3265 93.7436 95.472 93.6754 95.6033C93.6072 95.7345 93.5095 95.8478 93.3901 95.934C93.2707 96.0203 93.133 96.077 92.988 96.0998C92.843 96.1226 92.6947 96.1107 92.555 96.0651C92.1926 95.9529 91.8047 95.9565 91.4443 96.0753C91.0838 96.194 90.7685 96.4222 90.5412 96.7288C90.4528 96.8423 90.3399 96.9341 90.2112 96.9972C90.0826 97.0603 89.9414 97.093 89.7983 97.093C89.6553 97.093 89.5141 97.0603 89.3854 96.9972C89.2568 96.9341 89.1439 96.8423 89.0555 96.7288C88.8807 96.4981 88.6558 96.3111 88.3982 96.182C88.1407 96.053 87.8572 95.9854 87.5697 95.9845C87.3886 95.9839 87.2085 96.0111 87.0355 96.0651C86.8959 96.1107 86.7476 96.1226 86.6026 96.0998C86.4576 96.077 86.3198 96.0203 86.2005 95.934C86.0811 95.8478 85.9834 95.7345 85.9151 95.6033C85.8469 95.472 85.8101 95.3265 85.8076 95.1782C85.8027 94.7975 85.6824 94.4275 85.4628 94.1181C85.2433 93.8087 84.935 93.5747 84.5797 93.4479C84.4418 93.3979 84.3176 93.3156 84.2173 93.2078C84.117 93.1 84.0434 92.9697 84.0025 92.8276C83.9572 92.6905 83.9441 92.5445 83.9643 92.4013C83.9846 92.2581 84.0376 92.1216 84.1192 92.0028C84.3385 91.6889 84.4563 91.3141 84.4563 90.9298C84.4563 90.5456 84.3385 90.1708 84.1192 89.8569C84.0376 89.738 83.9846 89.6016 83.9643 89.4584C83.9441 89.3152 83.9572 89.1692 84.0025 89.032C84.0434 88.8899 84.117 88.7596 84.2173 88.6518C84.3176 88.544 84.4418 88.4618 84.5797 88.4118C84.9336 88.2808 85.2401 88.0449 85.4592 87.7351C85.6783 87.4253 85.7997 87.0559 85.8076 86.6752C85.8134 86.5308 85.8512 86.3896 85.9181 86.2618C85.985 86.1341 86.0794 86.0232 86.1944 85.9372C86.3108 85.8523 86.4449 85.7954 86.5864 85.7707C86.7279 85.7459 86.8731 85.7541 87.011 85.7945C87.3746 85.9027 87.7622 85.8972 88.1227 85.7787C88.4832 85.6603 88.7998 85.4345 89.0309 85.1309C89.1194 85.0174 89.2322 84.9256 89.3609 84.8625C89.4896 84.7994 89.6307 84.7666 89.7738 84.7666C89.9168 84.7666 90.058 84.7994 90.1867 84.8625C90.3154 84.9256 90.4282 85.0174 90.5167 85.1309C90.7439 85.4374 91.0593 85.6656 91.4197 85.7844C91.7801 85.9032 92.168 85.9067 92.5305 85.7945C92.6683 85.7536 92.8136 85.7452 92.9552 85.77C93.0967 85.7947 93.2308 85.8519 93.347 85.9372C93.464 86.0212 93.5599 86.1317 93.627 86.2599C93.6942 86.388 93.7308 86.5302 93.7338 86.6752C93.7434 87.0554 93.8655 87.4241 94.0843 87.7336C94.3032 88.0431 94.6088 88.2793 94.9618 88.4118C95.0967 88.4606 95.2189 88.54 95.3188 88.6438C95.4187 88.7477 95.4938 88.8733 95.5382 89.011C95.5827 89.1487 95.5953 89.2948 95.5752 89.4382C95.5551 89.5816 95.5028 89.7184 95.4222 89.8383C95.2095 90.1548 95.0958 90.5286 95.0958 90.9112C95.0958 91.2938 95.2095 91.6676 95.4222 91.9842L95.4714 92.0214Z" fill="#E6E6E6"/>
<path d="M89.8046 97.4042C89.6134 97.4058 89.4245 97.3624 89.2529 97.2774C89.0813 97.1923 88.9317 97.068 88.8161 96.9142C88.6225 96.6611 88.3577 96.473 88.0564 96.3745C87.7551 96.276 87.4314 96.2717 87.1277 96.3622C86.9447 96.4204 86.7507 96.4344 86.5613 96.4031C86.372 96.3719 86.1925 96.2963 86.0373 96.1823C85.8821 96.0683 85.7555 95.9192 85.6676 95.7469C85.5798 95.5746 85.5331 95.3839 85.5314 95.19C85.5225 94.87 85.4181 94.5602 85.2319 94.3012C85.0456 94.0422 84.7862 93.8462 84.4877 93.7387C84.3051 93.6777 84.1393 93.5742 84.0035 93.4366C83.8678 93.299 83.766 93.1311 83.7063 92.9465C83.6465 92.7618 83.6305 92.5656 83.6596 92.3735C83.6887 92.1815 83.762 91.9991 83.8737 91.8409C84.0532 91.5772 84.1493 91.2647 84.1493 90.9447C84.1493 90.6247 84.0532 90.3122 83.8737 90.0485C83.7694 89.8912 83.7022 89.7119 83.6771 89.5243C83.6521 89.3367 83.6699 89.1458 83.7291 88.9662C83.7884 88.7866 83.8876 88.6231 84.019 88.4882C84.1505 88.3533 84.3108 88.2506 84.4877 88.1879C84.7862 88.0805 85.0456 87.8844 85.2319 87.6254C85.4181 87.3664 85.5225 87.0566 85.5314 86.7366C85.5361 86.5441 85.5852 86.3552 85.6747 86.1851C85.7642 86.0151 85.8917 85.8684 86.0471 85.7567C86.2001 85.6422 86.3774 85.5652 86.565 85.5319C86.7525 85.4985 86.9452 85.5097 87.1277 85.5644C87.4314 85.6558 87.7553 85.652 88.0568 85.5534C88.3583 85.4549 88.623 85.2662 88.8161 85.0125C88.9359 84.8656 89.0864 84.7474 89.2567 84.6662C89.4271 84.5851 89.6131 84.543 89.8015 84.543C89.9899 84.543 90.1759 84.5851 90.3463 84.6662C90.5166 84.7474 90.6671 84.8656 90.7869 85.0125C90.98 85.2662 91.2447 85.4549 91.5462 85.5534C91.8477 85.652 92.1716 85.6558 92.4753 85.5644C92.6583 85.5063 92.8523 85.4923 93.0417 85.5235C93.231 85.5548 93.4105 85.6304 93.5657 85.7444C93.7209 85.8583 93.8475 86.0075 93.9354 86.1798C94.0232 86.3521 94.0699 86.5428 94.0716 86.7366C94.0813 87.0564 94.186 87.3658 94.3722 87.6247C94.5583 87.8835 94.8173 88.0798 95.1153 88.1879C95.2922 88.2506 95.4525 88.3533 95.584 88.4882C95.7154 88.6231 95.8146 88.7866 95.8739 88.9662C95.9331 89.1458 95.9509 89.3367 95.9259 89.5243C95.9008 89.7119 95.8336 89.8912 95.7293 90.0485C95.5498 90.3122 95.4537 90.6247 95.4537 90.9447C95.4537 91.2647 95.5498 91.5772 95.7293 91.8409C95.8384 92.0001 95.9091 92.1828 95.9357 92.3745C95.9624 92.5662 95.9443 92.7615 95.8828 92.9449C95.8247 93.1283 95.725 93.2955 95.5918 93.4333C95.4586 93.5711 95.2955 93.6757 95.1153 93.7387C94.8173 93.8469 94.5583 94.0432 94.3722 94.302C94.186 94.5608 94.0813 94.8703 94.0716 95.19C94.0676 95.3685 94.0255 95.5441 93.9481 95.7046C93.8708 95.8652 93.76 96.007 93.6234 96.1203C93.4672 96.2542 93.2803 96.3464 93.0798 96.3887C92.8793 96.4309 92.6715 96.4218 92.4753 96.3622C92.1716 96.2717 91.8479 96.276 91.5466 96.3745C91.2453 96.473 90.9805 96.6611 90.7869 96.9142C90.6719 97.0671 90.5233 97.191 90.3528 97.276C90.1824 97.361 89.9947 97.4049 89.8046 97.4042ZM87.5759 95.6738C87.9098 95.6735 88.2392 95.7512 88.5384 95.9007C88.8377 96.0503 89.0987 96.2677 89.3011 96.5359C89.3622 96.6101 89.4387 96.6698 89.5252 96.7107C89.6116 96.7517 89.706 96.7729 89.8015 96.7729C89.897 96.7729 89.9914 96.7517 90.0778 96.7107C90.1643 96.6698 90.2408 96.6101 90.3019 96.5359C90.5697 96.1828 90.9373 95.9202 91.3561 95.7829C91.7749 95.6455 92.2252 95.6399 92.6472 95.7668C92.7511 95.8037 92.863 95.8116 92.971 95.7898C93.079 95.768 93.1793 95.7172 93.2612 95.6428C93.3308 95.5857 93.3872 95.514 93.4265 95.4325C93.4657 95.3511 93.4868 95.262 93.4883 95.1714C93.501 94.7272 93.646 94.2971 93.9045 93.9375C94.1631 93.5778 94.523 93.3054 94.9373 93.1557C95.0297 93.1248 95.1136 93.0722 95.1819 93.0021C95.2502 92.932 95.3011 92.8465 95.3302 92.7526C95.3615 92.6598 95.3706 92.5609 95.3568 92.4638C95.3429 92.3668 95.3064 92.2745 95.2504 92.1944C95.0044 91.8285 94.8729 91.3964 94.8729 90.954C94.8729 90.5117 95.0044 90.0796 95.2504 89.7136C95.3064 89.6336 95.3429 89.5412 95.3568 89.4442C95.3706 89.3472 95.3615 89.2482 95.3302 89.1554C95.3011 89.0616 95.2502 88.9761 95.1819 88.906C95.1136 88.8359 95.0297 88.7832 94.9373 88.7523C94.5239 88.6012 94.1649 88.3284 93.9066 87.9691C93.6483 87.6097 93.5026 87.1804 93.4883 86.7366C93.4869 86.6393 93.4628 86.5436 93.418 86.4574C93.3732 86.3712 93.309 86.2969 93.2305 86.2405C93.1528 86.1807 93.0622 86.1406 92.9661 86.1233C92.87 86.1061 92.7712 86.1122 92.6779 86.1412C92.2558 86.2664 91.8061 86.2599 91.3876 86.1227C90.9692 85.9855 90.6015 85.7239 90.3326 85.3722C90.2715 85.298 90.195 85.2383 90.1085 85.1973C90.0221 85.1563 89.9277 85.1351 89.8322 85.1351C89.7367 85.1351 89.6423 85.1563 89.5559 85.1973C89.4694 85.2383 89.3929 85.298 89.3318 85.3722C89.064 85.7253 88.6964 85.9879 88.2776 86.1252C87.8587 86.2625 87.4085 86.2681 86.9865 86.1412C86.8915 86.1087 86.79 86.1001 86.691 86.1163C86.592 86.1325 86.4984 86.173 86.4184 86.2342C86.3384 86.2954 86.2745 86.3754 86.2323 86.4673C86.19 86.5593 86.1707 86.6602 86.1761 86.7614C86.1643 87.2059 86.0195 87.6364 85.7609 87.9962C85.5023 88.356 85.1419 88.6282 84.7271 88.7771C84.6358 88.8088 84.5532 88.8619 84.486 88.9319C84.4188 89.002 84.3689 89.087 84.3403 89.1802C84.309 89.273 84.2999 89.372 84.3138 89.469C84.3277 89.566 84.3641 89.6584 84.4201 89.7384C84.6661 90.1044 84.7976 90.5365 84.7976 90.9788C84.7976 91.4212 84.6661 91.8533 84.4201 92.2192C84.3641 92.2993 84.3277 92.3916 84.3138 92.4886C84.2999 92.5857 84.309 92.6846 84.3403 92.7774C84.3689 92.8706 84.4188 92.9557 84.486 93.0257C84.5532 93.0958 84.6358 93.1488 84.7271 93.1806C85.1423 93.3287 85.5032 93.6008 85.762 93.9607C86.0207 94.3207 86.1651 94.7515 86.1761 95.1962C86.1776 95.2868 86.1987 95.3759 86.2379 95.4573C86.2772 95.5388 86.3336 95.6105 86.4032 95.6676C86.4851 95.742 86.5854 95.7928 86.6934 95.8146C86.8014 95.8364 86.9132 95.8285 87.0172 95.7916C87.1974 95.7273 87.3853 95.6877 87.5759 95.6738Z" fill="#ACB4BB"/>
<path d="M90.7139 88.4863L90.0079 88.9391C89.9231 88.993 89.8584 89.0736 89.8237 89.1686C89.7812 89.2703 89.7664 89.3816 89.7807 89.4911L90.1552 92.4867L90.8674 92.0339C90.9507 91.9784 91.0151 91.8982 91.0516 91.8044C91.092 91.7021 91.1047 91.5908 91.0885 91.4819" fill="#F15525"/>
<path d="M89.4544 91.1094L88.7422 91.5621C88.6575 91.616 88.5927 91.6967 88.5581 91.7916C88.5156 91.8933 88.5007 92.0047 88.5151 92.1141L88.6747 93.4103L89.3808 92.9576C89.4658 92.9024 89.5322 92.8224 89.5711 92.7281C89.6082 92.625 89.6208 92.5145 89.6079 92.4056" fill="#F15525"/>
<path d="M89.8049 94.7502C89.0603 94.7514 88.332 94.5295 87.7123 94.1125C87.0926 93.6955 86.6092 93.1021 86.3234 92.4076C86.0376 91.713 85.9622 90.9483 86.1067 90.2104C86.2513 89.4725 86.6092 88.7945 87.1353 88.2622C87.6614 87.7299 88.332 87.3672 89.0622 87.22C89.7925 87.0728 90.5495 87.1477 91.2376 87.4353C91.9256 87.7229 92.5138 88.2102 92.9276 88.8355C93.3414 89.4608 93.5623 90.1961 93.5623 90.9483C93.5607 91.9551 93.1645 92.9202 92.4604 93.6327C91.7562 94.3451 90.8015 94.7469 89.8049 94.7502ZM89.8049 87.7667C89.1817 87.7655 88.5721 87.951 88.0534 88.2999C87.5346 88.6487 87.13 89.1452 86.8906 89.7265C86.6513 90.3077 86.5881 90.9477 86.7089 91.5652C86.8297 92.1828 87.1292 92.7503 87.5694 93.1959C88.0097 93.6415 88.5709 93.9451 89.182 94.0684C89.7932 94.1917 90.4267 94.129 91.0026 93.8884C91.5785 93.6478 92.0708 93.24 92.4171 92.7166C92.7635 92.1933 92.9484 91.5779 92.9484 90.9483C92.9467 90.1067 92.615 89.2999 92.0259 88.7048C91.4367 88.1096 90.6381 87.7745 89.8049 87.7729V87.7667Z" fill="#ACB4BB"/>
</svg>
