<svg width="24" height="24" viewBox="0 0 24 24" fill="none" xmlns="http://www.w3.org/2000/svg">
<path d="M9.41994 12.2295C9.1576 12.2284 8.9062 12.1243 8.71994 11.9395L4.21994 7.44955C4.12161 7.35613 4.0433 7.24368 3.98979 7.11904C3.93628 6.9944 3.90869 6.86018 3.90869 6.72455C3.90869 6.58891 3.93628 6.45469 3.98979 6.33005C4.0433 6.20542 4.12161 6.09297 4.21994 5.99955L8.61994 1.60955C8.81461 1.44892 9.06281 1.36784 9.31475 1.38256C9.5667 1.39729 9.80376 1.50674 9.97839 1.68896C10.153 1.87117 10.2523 2.11267 10.2563 2.36502C10.2603 2.61737 10.1687 2.86189 9.99994 3.04955L6.33994 6.73955L10.1299 10.5195C10.2237 10.6125 10.2981 10.7231 10.3488 10.845C10.3996 10.9668 10.4257 11.0975 10.4257 11.2295C10.4257 11.3616 10.3996 11.4923 10.3488 11.6141C10.2981 11.736 10.2237 11.8466 10.1299 11.9395C10.0365 12.0322 9.92569 12.1056 9.80385 12.1553C9.68201 12.2051 9.55155 12.2303 9.41994 12.2295Z" fill="#EF5630"/>
<path d="M19.07 7.79004H6.72998C6.46476 7.79004 6.21041 7.68468 6.02287 7.49715C5.83534 7.30961 5.72998 7.05526 5.72998 6.79004C5.72998 6.52482 5.83534 6.27047 6.02287 6.08293C6.21041 5.8954 6.46476 5.79004 6.72998 5.79004H19.07C19.3352 5.79004 19.5896 5.8954 19.7771 6.08293C19.9646 6.27047 20.07 6.52482 20.07 6.79004C20.07 7.05526 19.9646 7.30961 19.7771 7.49715C19.5896 7.68468 19.3352 7.79004 19.07 7.79004Z" fill="#EF5630"/>
<path d="M14.5799 22.6503C14.4483 22.6511 14.3178 22.6259 14.196 22.5761C14.0742 22.5263 13.9633 22.453 13.8699 22.3603C13.6836 22.173 13.5791 21.9195 13.5791 21.6553C13.5791 21.3911 13.6836 21.1377 13.8699 20.9503L17.6599 17.1603L13.9999 13.4803C13.9062 13.3874 13.8318 13.2768 13.781 13.1549C13.7302 13.033 13.7041 12.9023 13.7041 12.7703C13.7041 12.6383 13.7302 12.5076 13.781 12.3857C13.8318 12.2639 13.9062 12.1533 13.9999 12.0603C14.1873 11.8741 14.4407 11.7695 14.7049 11.7695C14.9691 11.7695 15.2225 11.8741 15.4099 12.0603L19.8099 16.4603C19.9961 16.6477 20.1007 16.9011 20.1007 17.1653C20.1007 17.4295 19.9961 17.683 19.8099 17.8703L15.3099 22.3603C15.2141 22.4554 15.1 22.5302 14.9746 22.58C14.8491 22.6298 14.7148 22.6538 14.5799 22.6503Z" fill="#EF5630"/>
<path d="M17.2702 18.21H4.93018C4.66496 18.21 4.41061 18.1046 4.22307 17.9171C4.03553 17.7295 3.93018 17.4752 3.93018 17.21C3.93018 16.9447 4.03553 16.6904 4.22307 16.5029C4.41061 16.3153 4.66496 16.21 4.93018 16.21H17.2702C17.5354 16.21 17.7897 16.3153 17.9773 16.5029C18.1648 16.6904 18.2702 16.9447 18.2702 17.21C18.2702 17.4752 18.1648 17.7295 17.9773 17.9171C17.7897 18.1046 17.5354 18.21 17.2702 18.21Z" fill="#EF5630"/>
</svg>
