<svg width="24" height="24" viewBox="0 0 24 24" fill="none" xmlns="http://www.w3.org/2000/svg">
<path d="M15.3101 8.28027H8.31006C8.04484 8.28027 7.79049 8.17492 7.60295 7.98738C7.41542 7.79984 7.31006 7.54549 7.31006 7.28027C7.31006 7.01506 7.41542 6.7607 7.60295 6.57317C7.79049 6.38563 8.04484 6.28027 8.31006 6.28027H15.3101C15.5753 6.28027 15.8296 6.38563 16.0172 6.57317C16.2047 6.7607 16.3101 7.01506 16.3101 7.28027C16.3101 7.54549 16.2047 7.79984 16.0172 7.98738C15.8296 8.17492 15.5753 8.28027 15.3101 8.28027Z" fill="#EF5630"/>
<path d="M15.3101 11.2695H8.31006C8.04484 11.2695 7.79049 11.1642 7.60295 10.9766C7.41542 10.7891 7.31006 10.5347 7.31006 10.2695C7.31006 10.0043 7.41542 9.74996 7.60295 9.56242C7.79049 9.37489 8.04484 9.26953 8.31006 9.26953H15.3101C15.5753 9.26953 15.8296 9.37489 16.0172 9.56242C16.2047 9.74996 16.3101 10.0043 16.3101 10.2695C16.3101 10.5347 16.2047 10.7891 16.0172 10.9766C15.8296 11.1642 15.5753 11.2695 15.3101 11.2695Z" fill="#EF5630"/>
<path d="M11.8301 16.3799C11.5649 16.3799 11.3105 16.2745 11.123 16.087C10.9354 15.8995 10.8301 15.6451 10.8301 15.3799V10.3799C10.8301 10.1147 10.9354 9.86031 11.123 9.67278C11.3105 9.48524 11.5649 9.37988 11.8301 9.37988C12.0953 9.37988 12.3496 9.48524 12.5372 9.67278C12.7247 9.86031 12.8301 10.1147 12.8301 10.3799V15.3799C12.8301 15.6451 12.7247 15.8995 12.5372 16.087C12.3496 16.2745 12.0953 16.3799 11.8301 16.3799Z" fill="#EF5630"/>
<path d="M17.5101 23.6703C17.3778 23.6698 17.2469 23.643 17.125 23.5915C17.0031 23.54 16.8927 23.4648 16.8001 23.3703C16.6138 23.1829 16.5093 22.9295 16.5093 22.6653C16.5093 22.4011 16.6138 22.1477 16.8001 21.9603L19.4001 19.3603L16.8601 16.8303C16.7668 16.7371 16.6929 16.6264 16.6424 16.5046C16.5919 16.3827 16.566 16.2522 16.566 16.1203C16.566 15.9884 16.5919 15.8579 16.6424 15.7361C16.6929 15.6142 16.7668 15.5035 16.8601 15.4103C16.9533 15.3171 17.064 15.2431 17.1858 15.1926C17.3076 15.1422 17.4382 15.1162 17.5701 15.1162C17.7019 15.1162 17.8325 15.1422 17.9543 15.1926C18.0761 15.2431 18.1868 15.3171 18.2801 15.4103L21.5201 18.6603C21.7048 18.8466 21.809 19.098 21.8101 19.3603C21.8108 19.4919 21.7856 19.6224 21.7358 19.7442C21.6861 19.866 21.6128 19.9769 21.5201 20.0703L18.2101 23.3703C18.0254 23.5587 17.7738 23.6665 17.5101 23.6703Z" fill="#EF5630"/>
<path d="M19.6601 20.3898H7.46006C6.22853 20.3898 5.0473 19.9013 4.17554 19.0314C3.30379 18.1615 2.81271 16.9813 2.81006 15.7498V6.68981C2.81271 5.45828 3.30379 4.2781 4.17554 3.40822C5.0473 2.53834 6.22853 2.0498 7.46006 2.0498H16.0501C17.2807 2.0498 18.4609 2.53866 19.331 3.40883C20.2012 4.279 20.6901 5.4592 20.6901 6.68981C20.6901 6.95502 20.5847 7.20938 20.3972 7.39691C20.2096 7.58445 19.9553 7.68981 19.6901 7.68981C19.4248 7.68981 19.1705 7.58445 18.983 7.39691C18.7954 7.20938 18.6901 6.95502 18.6901 6.68981C18.6901 5.98963 18.4119 5.31814 17.9168 4.82304C17.4217 4.32795 16.7502 4.0498 16.0501 4.0498H7.46006C6.75896 4.0498 6.08644 4.32762 5.58975 4.82243C5.09307 5.31724 4.8127 5.98872 4.81006 6.68981V15.7498C4.8127 16.4509 5.09307 17.1224 5.58975 17.6172C6.08644 18.112 6.75896 18.3898 7.46006 18.3898H19.6601C19.9253 18.3898 20.1796 18.4952 20.3672 18.6827C20.5547 18.8702 20.6601 19.1246 20.6601 19.3898C20.6601 19.655 20.5547 19.9094 20.3672 20.0969C20.1796 20.2844 19.9253 20.3898 19.6601 20.3898Z" fill="#EF5630"/>
</svg>
