<svg width="28" height="28" viewBox="0 0 28 28" fill="none" xmlns="http://www.w3.org/2000/svg">
<rect y="4" width="28" height="20" rx="4" fill="#EF5630"/>
<path d="M14.5864 9.88944C14.5864 9.26866 14.9383 8.70156 15.4946 8.42603L17.8834 7.2428V15.2883C17.8834 15.9091 17.5314 16.4762 16.9751 16.7517L14.5864 17.935V9.88944ZM9.65625 16.884C9.65625 16.2633 10.0082 15.6962 10.5645 15.4206L12.9533 14.2374V17.7534C12.9533 18.3742 12.6013 18.9413 12.045 19.2168L9.65625 20.4V16.884Z" fill="white"/>
<path d="M14.5864 9.88944C14.5864 9.26866 14.9383 8.70156 15.4946 8.42603L17.8834 7.2428V15.2883C17.8834 15.9091 17.5314 16.4762 16.9751 16.7517L14.5864 17.935V9.88944ZM9.65625 16.884C9.65625 16.2633 10.0082 15.6962 10.5645 15.4206L12.9533 14.2374V17.7534C12.9533 18.3742 12.6013 18.9413 12.045 19.2168L9.65625 20.4V16.884Z" stroke="#F05323"/>
</svg>
