<svg width="24" height="24" viewBox="0 0 24 24" fill="none" xmlns="http://www.w3.org/2000/svg">
<path d="M13.29 15.3691H19.44" stroke="#EF5630" stroke-width="2" stroke-miterlimit="10" stroke-linecap="round"/>
<path d="M13.29 18.1094H16.38H19.44" stroke="white" stroke-width="2" stroke-miterlimit="10" stroke-linecap="round"/>
<path d="M16.3701 22.3494L16.3801 18.1094" stroke="#EF5630" stroke-width="2" stroke-miterlimit="10" stroke-linecap="round"/>
<path d="M9.77969 2.7793H7.43969C6.97291 2.7793 6.52524 2.96473 6.19518 3.29479C5.86512 3.62485 5.67969 4.07252 5.67969 4.5393V4.5393C5.67968 4.76995 5.72528 4.99834 5.81385 5.21131C5.90242 5.42428 6.03222 5.61765 6.19578 5.78028C6.35934 5.94292 6.55344 6.07161 6.76692 6.15897C6.9804 6.24632 7.20903 6.29061 7.43969 6.2893H8.14969C8.58199 6.2893 8.99659 6.46103 9.30227 6.76671C9.60796 7.0724 9.77969 7.48699 9.77969 7.9193C9.78101 8.13419 9.73982 8.34723 9.65849 8.54614C9.57717 8.74506 9.45731 8.92593 9.30582 9.07835C9.15433 9.23077 8.9742 9.35173 8.77578 9.43427C8.57736 9.51681 8.36459 9.5593 8.14969 9.5593H5.67969" stroke="#EF5630" stroke-width="2" stroke-miterlimit="10" stroke-linecap="round"/>
<path d="M7.73047 1.65039V2.78039" stroke="#EF5630" stroke-width="2" stroke-miterlimit="10" stroke-linecap="round"/>
<path d="M7.73047 9.56055V10.6805" stroke="#EF5630" stroke-width="2" stroke-miterlimit="10" stroke-linecap="round"/>
<path d="M12.6201 4.41016H16.2001C17.2371 4.41016 18.2316 4.8221 18.9649 5.55537C19.6982 6.28864 20.1101 7.28316 20.1101 8.32016V12.0902" stroke="#EF5630" stroke-width="2" stroke-miterlimit="10" stroke-linecap="round"/>
<path d="M3.88965 12.6094V16.1794C3.88965 17.2164 4.30159 18.2109 5.03486 18.9442C5.76813 19.6774 6.76265 20.0894 7.79965 20.0894H11.5696" stroke="#EF5630" stroke-width="2" stroke-miterlimit="10" stroke-linecap="round"/>
</svg>
