<svg width="24" height="24" viewBox="0 0 24 24" fill="none" xmlns="http://www.w3.org/2000/svg">
<path d="M7.45001 5.51005C7.69951 5.50875 7.94672 5.55766 8.17693 5.65386C8.40713 5.75007 8.61563 5.89161 8.79001 6.07005C9.14419 6.42608 9.34301 6.90786 9.34301 7.41005C9.34301 7.91225 9.14419 8.39402 8.79001 8.75005C8.61514 8.92715 8.40632 9.06715 8.17608 9.16165C7.94583 9.25616 7.69888 9.30323 7.45001 9.30005C6.97121 9.26525 6.52333 9.05049 6.19641 8.69894C5.86949 8.34739 5.68776 7.88512 5.68776 7.40505C5.68776 6.92499 5.86949 6.46272 6.19641 6.11117C6.52333 5.75962 6.97121 5.54486 7.45001 5.51005ZM7.45001 3.81005C6.96196 3.7843 6.47377 3.8582 6.01521 4.02724C5.55664 4.19627 5.13729 4.45691 4.78272 4.79327C4.42815 5.12963 4.14578 5.53466 3.95282 5.98369C3.75985 6.43271 3.66034 6.91632 3.66034 7.40505C3.66034 7.89378 3.75985 8.3774 3.95282 8.82642C4.14578 9.27545 4.42815 9.68048 4.78272 10.0168C5.13729 10.3532 5.55664 10.6138 6.01521 10.7829C6.47377 10.9519 6.96196 11.0258 7.45001 11.0001C7.93806 11.0258 8.42625 10.9519 8.88481 10.7829C9.34338 10.6138 9.76273 10.3532 10.1173 10.0168C10.4719 9.68048 10.7542 9.27545 10.9472 8.82642C11.1402 8.3774 11.2397 7.89378 11.2397 7.40505C11.2397 6.91632 11.1402 6.43271 10.9472 5.98369C10.7542 5.53466 10.4719 5.12963 10.1173 4.79327C9.76273 4.45691 9.34338 4.19627 8.88481 4.02724C8.42625 3.8582 7.93806 3.7843 7.45001 3.81005Z" fill="#EF5630"/>
<path d="M16.64 14.7C16.8887 14.698 17.1353 14.7456 17.3654 14.84C17.5955 14.9344 17.8044 15.0738 17.98 15.25C18.1571 15.4254 18.2977 15.6341 18.3938 15.8641C18.4899 16.094 18.5396 16.3408 18.54 16.59C18.54 17.0939 18.3398 17.5772 17.9835 17.9335C17.6272 18.2898 17.1439 18.49 16.64 18.49C16.1361 18.49 15.6528 18.2898 15.2965 17.9335C14.9402 17.5772 14.74 17.0939 14.74 16.59C14.7404 16.3408 14.79 16.094 14.8861 15.8641C14.9822 15.6341 15.1229 15.4254 15.3 15.25C15.4755 15.0738 15.6845 14.9344 15.9146 14.84C16.1447 14.7456 16.3913 14.698 16.64 14.7ZM16.64 13C15.8068 12.9997 14.9993 13.2885 14.3552 13.817C13.7111 14.3456 13.2703 15.0811 13.1079 15.8984C12.9455 16.7156 13.0716 17.5638 13.4647 18.2985C13.8578 19.0331 14.4935 19.6086 15.2635 19.9269C16.0335 20.2453 16.8901 20.2866 17.6872 20.044C18.4843 19.8014 19.1725 19.2897 19.6346 18.5964C20.0966 17.9031 20.3039 17.0709 20.221 16.2418C20.1381 15.4128 19.7702 14.6381 19.18 14.05C18.8467 13.7163 18.4507 13.4517 18.0148 13.2715C17.5789 13.0914 17.1117 12.9991 16.64 13Z" fill="#EF5630"/>
<path d="M5.49001 19.56C5.29138 19.5611 5.09691 19.5031 4.93139 19.3933C4.76588 19.2835 4.6368 19.1269 4.56064 18.9435C4.48447 18.76 4.46466 18.558 4.50373 18.3633C4.5428 18.1685 4.63898 17.9898 4.78001 17.85L17.9 4.73997C18.0913 4.57614 18.3374 4.49054 18.5891 4.50026C18.8407 4.50998 19.0795 4.61431 19.2576 4.79241C19.4357 4.9705 19.54 5.20924 19.5497 5.46092C19.5594 5.71259 19.4738 5.95867 19.31 6.14997L6.20001 19.26C6.10739 19.3545 5.99695 19.4296 5.87507 19.4811C5.7532 19.5326 5.62231 19.5594 5.49001 19.56Z" fill="#EF5630"/>
</svg>
