<svg width="24" height="24" viewBox="0 0 24 24" fill="none" xmlns="http://www.w3.org/2000/svg">
<path d="M17.6903 8.90994C17.4934 8.90716 17.3017 8.8463 17.1392 8.73499C16.9768 8.62367 16.8508 8.46686 16.7771 8.28423C16.7034 8.1016 16.6853 7.90127 16.725 7.70837C16.7647 7.51548 16.8605 7.3386 17.0003 7.19994L19.5303 4.66994L16.9303 2.06994C16.742 1.88296 16.6357 1.62884 16.6348 1.36347C16.6338 1.09811 16.7384 0.843241 16.9253 0.654937C17.1123 0.466634 17.3664 0.360319 17.6318 0.359381C17.8972 0.358444 18.152 0.46296 18.3403 0.649937L21.6403 3.99994C21.8266 4.1873 21.9311 4.44075 21.9311 4.70494C21.9311 4.96912 21.8266 5.22257 21.6403 5.40994L18.4003 8.61994C18.3069 8.71262 18.1961 8.78594 18.0742 8.83571C17.9524 8.88547 17.8219 8.9107 17.6903 8.90994Z" fill="#EF5630"/>
<path d="M16.18 22.0009H7.57998C6.34846 21.9982 5.16828 21.5071 4.2984 20.6354C3.42851 19.7636 2.93998 18.5824 2.93998 17.3509V8.35086C2.93071 7.73519 3.04381 7.12381 3.27271 6.55219C3.50162 5.98058 3.84177 5.46013 4.27342 5.02103C4.70508 4.58193 5.21965 4.23293 5.78727 3.99429C6.35488 3.75565 6.96424 3.63211 7.57998 3.63086H19.78C20.0452 3.63086 20.2996 3.73622 20.4871 3.92375C20.6746 4.11129 20.78 4.36564 20.78 4.63086C20.78 4.89608 20.6746 5.15043 20.4871 5.33797C20.2996 5.5255 20.0452 5.63086 19.78 5.63086H7.57998C6.87889 5.63351 6.20742 5.91387 5.71261 6.41055C5.2178 6.90724 4.93998 7.57976 4.93998 8.28086V17.2809C4.93065 17.6339 4.99197 17.9852 5.12033 18.3142C5.2487 18.6431 5.44152 18.9431 5.68747 19.1965C5.93341 19.4499 6.22753 19.6516 6.55253 19.7897C6.87752 19.9279 7.22685 19.9996 7.57998 20.0009H16.18C16.8811 19.9982 17.5525 19.7178 18.0474 19.2212C18.5422 18.7245 18.82 18.052 18.82 17.3509C18.82 17.0856 18.9253 16.8313 19.1129 16.6438C19.3004 16.4562 19.5548 16.3509 19.82 16.3509C20.0852 16.3509 20.3396 16.4562 20.5271 16.6438C20.7146 16.8313 20.82 17.0856 20.82 17.3509C20.82 18.5824 20.3314 19.7636 19.4616 20.6354C18.5917 21.5071 17.4115 21.9982 16.18 22.0009Z" fill="#EF5630"/>
<path d="M12.68 17.5905H10C9.73478 17.5905 9.48043 17.4851 9.29289 17.2976C9.10536 17.11 9 16.8557 9 16.5905C9 16.3253 9.10536 16.0709 9.29289 15.8834C9.48043 15.6958 9.73478 15.5905 10 15.5905H12.68C12.8842 15.5905 13.0801 15.5093 13.2245 15.3649C13.3689 15.2205 13.45 15.0247 13.45 14.8205C13.45 14.6163 13.3689 14.4204 13.2245 14.276C13.0801 14.1316 12.8842 14.0505 12.68 14.0505H11.91C11.1382 14.0505 10.398 13.7439 9.85232 13.1981C9.30659 12.6524 9 11.9122 9 11.1405C9 10.3687 9.30659 9.62852 9.85232 9.08279C10.398 8.53706 11.1382 8.23047 11.91 8.23047H14.45C14.7152 8.23047 14.9696 8.33583 15.1571 8.52336C15.3446 8.7109 15.45 8.96525 15.45 9.23047C15.45 9.49568 15.3446 9.75004 15.1571 9.93758C14.9696 10.1251 14.7152 10.2305 14.45 10.2305H11.91C11.6687 10.2305 11.4372 10.3263 11.2665 10.497C11.0959 10.6677 11 10.8991 11 11.1405C11 11.3818 11.0959 11.6133 11.2665 11.7839C11.4372 11.9546 11.6687 12.0505 11.91 12.0505H12.68C13.4146 12.0505 14.1192 12.3423 14.6387 12.8618C15.1582 13.3813 15.45 14.0858 15.45 14.8205C15.45 15.5551 15.1582 16.2597 14.6387 16.7792C14.1192 17.2986 13.4146 17.5905 12.68 17.5905Z" fill="#EF5630"/>
<path d="M12.2305 10.23C11.9653 10.23 11.7109 10.1246 11.5234 9.93711C11.3358 9.74957 11.2305 9.49522 11.2305 9.23V8C11.2305 7.73478 11.3358 7.48043 11.5234 7.29289C11.7109 7.10536 11.9653 7 12.2305 7C12.4957 7 12.75 7.10536 12.9376 7.29289C13.1251 7.48043 13.2305 7.73478 13.2305 8V9.23C13.2305 9.49522 13.1251 9.74957 12.9376 9.93711C12.75 10.1246 12.4957 10.23 12.2305 10.23Z" fill="#EF5630"/>
<path d="M12.2305 18.8198C11.9653 18.8198 11.7109 18.7145 11.5234 18.5269C11.3358 18.3394 11.2305 18.0851 11.2305 17.8198V16.5898C11.2305 16.3246 11.3358 16.0703 11.5234 15.8827C11.7109 15.6952 11.9653 15.5898 12.2305 15.5898C12.4957 15.5898 12.75 15.6952 12.9376 15.8827C13.1251 16.0703 13.2305 16.3246 13.2305 16.5898V17.8198C13.2305 18.0851 13.1251 18.3394 12.9376 18.5269C12.75 18.7145 12.4957 18.8198 12.2305 18.8198Z" fill="#EF5630"/>
</svg>
