<svg width="24" height="24" viewBox="0 0 24 24" fill="none" xmlns="http://www.w3.org/2000/svg">
<path d="M20.18 15.05H12.77C12.5048 15.05 12.2504 14.9447 12.0629 14.7572C11.8754 14.5696 11.77 14.3153 11.77 14.05C11.77 13.7848 11.8754 13.5305 12.0629 13.3429C12.2504 13.1554 12.5048 13.05 12.77 13.05H20.18C20.4452 13.05 20.6996 13.1554 20.8871 13.3429C21.0747 13.5305 21.18 13.7848 21.18 14.05C21.18 14.3153 21.0747 14.5696 20.8871 14.7572C20.6996 14.9447 20.4452 15.05 20.18 15.05Z" fill="#EF5630"/>
<path d="M20.18 18.35H12.77C12.5048 18.35 12.2504 18.2446 12.0629 18.0571C11.8754 17.8695 11.77 17.6152 11.77 17.35C11.77 17.0848 11.8754 16.8304 12.0629 16.6429C12.2504 16.4553 12.5048 16.35 12.77 16.35H20.18C20.4452 16.35 20.6996 16.4553 20.8871 16.6429C21.0747 16.8304 21.18 17.0848 21.18 17.35C21.18 17.6152 21.0747 17.8695 20.8871 18.0571C20.6996 18.2446 20.4452 18.35 20.18 18.35Z" fill="#EF5630"/>
<path d="M16.48 23.46C16.2148 23.46 15.9604 23.3546 15.7729 23.1671C15.5853 22.9796 15.48 22.7252 15.48 22.46V17.36C15.48 17.0948 15.5853 16.8404 15.7729 16.6529C15.9604 16.4653 16.2148 16.36 16.48 16.36C16.7452 16.36 16.9996 16.4653 17.1871 16.6529C17.3746 16.8404 17.48 17.0948 17.48 17.36V22.47C17.4773 22.7335 17.3708 22.9853 17.1836 23.1706C16.9963 23.356 16.7435 23.46 16.48 23.46Z" fill="#EF5630"/>
<path d="M8.14001 23.46C6.56947 23.4444 5.06767 22.8136 3.95707 21.703C2.84648 20.5924 2.21564 19.0906 2.20001 17.52V9.52004C2.20519 7.94255 2.83141 6.43056 3.94313 5.31136C5.05484 4.19217 6.56259 3.55581 8.14001 3.54004H16.26C17.4228 3.53869 18.5604 3.87923 19.5312 4.5193C20.5019 5.15938 21.2631 6.07075 21.72 7.14004C21.8248 7.38404 21.8283 7.65966 21.7299 7.90627C21.6314 8.15288 21.439 8.35028 21.195 8.45504C20.951 8.5598 20.6754 8.56334 20.4288 8.46489C20.1822 8.36643 19.9848 8.17404 19.88 7.93004C19.5778 7.22038 19.0733 6.61535 18.4296 6.19036C17.7859 5.76537 17.0314 5.5392 16.26 5.54004H8.14001C7.09989 5.55553 6.1067 5.97561 5.37114 6.71117C4.63558 7.44674 4.2155 8.43992 4.20001 9.48004V17.48C4.2155 18.5202 4.63558 19.5134 5.37114 20.2489C6.1067 20.9845 7.09989 21.4046 8.14001 21.42C8.40523 21.42 8.65958 21.5254 8.84712 21.7129C9.03466 21.9005 9.14001 22.1548 9.14001 22.42C9.14001 22.6853 9.03466 22.9396 8.84712 23.1272C8.65958 23.3147 8.40523 23.42 8.14001 23.42V23.46Z" fill="#EF5630"/>
<path d="M16.46 7C16.1948 7 15.9405 6.89464 15.7529 6.70711C15.5654 6.51957 15.46 6.26522 15.46 6V3C15.46 2.73478 15.5654 2.48043 15.7529 2.29289C15.9405 2.10536 16.1948 2 16.46 2C16.7252 2 16.9796 2.10536 17.1671 2.29289C17.3547 2.48043 17.46 2.73478 17.46 3V6C17.46 6.26522 17.3547 6.51957 17.1671 6.70711C16.9796 6.89464 16.7252 7 16.46 7Z" fill="#EF5630"/>
<path d="M7.53998 7C7.27476 7 7.02041 6.89464 6.83287 6.70711C6.64534 6.51957 6.53998 6.26522 6.53998 6V3C6.53998 2.86868 6.56584 2.73864 6.6161 2.61732C6.66635 2.49599 6.74001 2.38575 6.83287 2.29289C6.92573 2.20003 7.03597 2.12638 7.15729 2.07612C7.27862 2.02587 7.40866 2 7.53998 2C7.6713 2 7.80134 2.02587 7.92266 2.07612C8.04399 2.12638 8.15423 2.20003 8.24708 2.29289C8.33994 2.38575 8.4136 2.49599 8.46386 2.61732C8.51411 2.73864 8.53998 2.86868 8.53998 3V6C8.53998 6.26522 8.43462 6.51957 8.24708 6.70711C8.05955 6.89464 7.80519 7 7.53998 7Z" fill="#EF5630"/>
</svg>
