<svg width="24" height="24" viewBox="0 0 24 24" fill="none" xmlns="http://www.w3.org/2000/svg">
<path d="M14.62 23.54C14.4884 23.5407 14.3579 23.5155 14.2361 23.4657C14.1143 23.416 14.0034 23.3427 13.91 23.25C13.7237 23.0626 13.6192 22.8092 13.6192 22.545C13.6192 22.2808 13.7237 22.0273 13.91 21.84L16.91 18.84L14 16C13.9063 15.907 13.8319 15.7964 13.7811 15.6746C13.7303 15.5527 13.7042 15.422 13.7042 15.29C13.7042 15.158 13.7303 15.0273 13.7811 14.9054C13.8319 14.7835 13.9063 14.6729 14 14.58C14.1874 14.3937 14.4408 14.2892 14.705 14.2892C14.9692 14.2892 15.2226 14.3937 15.41 14.58L19.01 18.18C19.1037 18.2729 19.1781 18.3835 19.2289 18.5054C19.2797 18.6273 19.3058 18.758 19.3058 18.89C19.3058 19.022 19.2797 19.1527 19.2289 19.2746C19.1781 19.3964 19.1037 19.507 19.01 19.6L15.34 23.26C15.2445 23.3521 15.1317 23.4242 15.0081 23.4723C14.8845 23.5204 14.7526 23.5434 14.62 23.54Z" fill="#EF5630"/>
<path d="M12 2.28999C12.3338 2.28145 12.666 2.33988 12.9768 2.46182C13.2877 2.58377 13.571 2.76676 13.81 2.99999C14.2814 3.47242 14.5462 4.11258 14.5462 4.77999C14.5462 5.4474 14.2814 6.08755 13.81 6.55999C13.5759 6.79492 13.2977 6.98132 12.9914 7.10851C12.685 7.2357 12.3566 7.30118 12.025 7.30118C11.6933 7.30118 11.3649 7.2357 11.0586 7.10851C10.7523 6.98132 10.4741 6.79492 10.24 6.55999C9.89947 6.20739 9.66918 5.76313 9.57733 5.28164C9.48548 4.80014 9.53605 4.30231 9.72285 3.84912C9.90964 3.39593 10.2246 3.00706 10.629 2.73013C11.0335 2.4532 11.5099 2.30024 12 2.28999ZM12 0.589988C11.0242 0.595069 10.0804 0.938111 9.32916 1.56073C8.57789 2.18335 8.06559 3.04707 7.87945 4.00489C7.69331 4.96271 7.84483 5.95543 8.30823 6.81411C8.77163 7.67278 9.51827 8.34435 10.4211 8.71449C11.3239 9.08464 12.3271 9.13051 13.2599 8.84428C14.1927 8.55805 14.9975 7.95742 15.5373 7.14461C16.0771 6.3318 16.3186 5.35704 16.2206 4.38623C16.1227 3.41542 15.6913 2.50856 15 1.81999C14.2024 1.02873 13.1234 0.586342 12 0.589988Z" fill="#EF5630"/>
<path d="M14 20C7.38 20 5.5 16.18 5.05 14.87L5 14.69C4.86056 14.179 4.84034 13.6427 4.9409 13.1225C5.04146 12.6024 5.26011 12.1123 5.58 11.69C5.92617 11.2627 6.36142 10.916 6.85539 10.6742C7.34936 10.4324 7.89014 10.3013 8.44 10.29H16.26C16.3716 10.29 16.4822 10.312 16.5853 10.3547C16.6884 10.3975 16.7821 10.4601 16.861 10.539C16.94 10.6179 17.0026 10.7116 17.0453 10.8148C17.088 10.9179 17.11 11.0284 17.11 11.14C17.11 11.2517 17.088 11.3622 17.0453 11.4653C17.0026 11.5684 16.94 11.6622 16.861 11.7411C16.7821 11.82 16.6884 11.8826 16.5853 11.9253C16.4822 11.9681 16.3716 11.99 16.26 11.99H8.46C8.16361 11.9946 7.8717 12.0631 7.6042 12.1908C7.33669 12.3185 7.09991 12.5024 6.91 12.73C6.75187 12.9441 6.64373 13.1908 6.59355 13.4521C6.54336 13.7134 6.5524 13.9827 6.62 14.24V14.34C7.14 15.85 9.17 19.25 16.85 18.08C17.0728 18.0456 17.3001 18.101 17.482 18.2341C17.664 18.3673 17.7855 18.5673 17.82 18.79C17.8545 19.0128 17.799 19.2402 17.6659 19.4221C17.5327 19.604 17.3328 19.7256 17.11 19.76C16.0809 19.9189 15.0413 19.9991 14 20Z" fill="#EF5630"/>
</svg>
