<svg width="24" height="24" viewBox="0 0 24 24" fill="none" xmlns="http://www.w3.org/2000/svg">
<path d="M8.19998 21.1C8.06767 21.0994 7.93679 21.0726 7.81491 21.0211C7.69304 20.9696 7.58259 20.8944 7.48998 20.8L3.88998 17.21C3.79625 17.117 3.72185 17.0064 3.67108 16.8845C3.62032 16.7627 3.59418 16.632 3.59418 16.5C3.59418 16.3679 3.62032 16.2372 3.67108 16.1154C3.72185 15.9935 3.79625 15.8829 3.88998 15.79L7.55998 12.13C7.74695 11.939 8.00213 11.8301 8.26937 11.8273C8.53661 11.8245 8.79402 11.928 8.98498 12.115C9.17593 12.3019 9.28479 12.5571 9.2876 12.8243C9.29042 13.0916 9.18695 13.349 8.99998 13.54L5.99998 16.54L8.89998 19.39C9.08623 19.5773 9.19077 19.8308 9.19077 20.095C9.19077 20.3591 9.08623 20.6126 8.89998 20.8C8.71534 20.9884 8.46374 21.0962 8.19998 21.1Z" fill="#EF5630"/>
<path d="M18.72 17.46H4.99998C4.73476 17.46 4.48041 17.3546 4.29287 17.1671C4.10533 16.9796 3.99998 16.7252 3.99998 16.46C3.99998 16.1948 4.10533 15.9404 4.29287 15.7529C4.48041 15.5653 4.73476 15.46 4.99998 15.46H18.7C19.127 15.46 19.5365 15.2904 19.8384 14.9884C20.1404 14.6865 20.31 14.277 20.31 13.85V7.34999C20.31 6.92299 20.1404 6.51348 19.8384 6.21155C19.5365 5.90961 19.127 5.73999 18.7 5.73999H5.86998C5.46685 5.73999 5.08023 5.90013 4.79517 6.18519C4.51012 6.47024 4.34998 6.85686 4.34998 7.25999V9.84999C4.34998 10.1152 4.24462 10.3696 4.05708 10.5571C3.86955 10.7446 3.61519 10.85 3.34998 10.85C3.08476 10.85 2.83041 10.7446 2.64287 10.5571C2.45533 10.3696 2.34998 10.1152 2.34998 9.84999V7.25999C2.35261 6.32724 2.72432 5.43345 3.38387 4.77389C4.04343 4.11433 4.93722 3.74263 5.86998 3.73999H18.72C19.6774 3.73999 20.5956 4.12033 21.2726 4.79733C21.9496 5.47434 22.33 6.39256 22.33 7.34999V13.85C22.33 14.3241 22.2366 14.7935 22.0552 15.2315C21.8738 15.6695 21.6079 16.0674 21.2726 16.4026C20.9374 16.7379 20.5394 17.0038 20.1015 17.1852C19.6635 17.3666 19.194 17.46 18.72 17.46Z" fill="#EF5630"/>
<path d="M18 11.6H16.08C15.8148 11.6 15.5604 11.4946 15.3729 11.3071C15.1854 11.1195 15.08 10.8652 15.08 10.6C15.08 10.3348 15.1854 10.0804 15.3729 9.89287C15.5604 9.70533 15.8148 9.59998 16.08 9.59998H18C18.2652 9.59998 18.5196 9.70533 18.7071 9.89287C18.8947 10.0804 19 10.3348 19 10.6C19 10.8652 18.8947 11.1195 18.7071 11.3071C18.5196 11.4946 18.2652 11.6 18 11.6Z" fill="#EF5630"/>
</svg>
