<svg width="24" height="24" viewBox="0 0 24 24" fill="none" xmlns="http://www.w3.org/2000/svg">
<g clip-path="url(#clip0)">
<path d="M7.93997 21.52C6.33745 21.5187 4.77114 21.0432 3.43831 20.1535C2.10548 19.2637 1.06572 17.9995 0.449972 16.52C0.206245 15.9323 0.110375 15.2939 0.170763 14.6605C0.231151 14.0272 0.445954 13.4184 0.796347 12.8873C1.14674 12.3563 1.62203 11.9193 2.18056 11.6147C2.73909 11.3101 3.36381 11.1471 3.99997 11.14H11.83C12.4911 11.1409 13.1411 11.3098 13.7191 11.6309C14.297 11.952 14.7838 12.4148 15.1337 12.9757C15.4836 13.5366 15.6853 14.1772 15.7196 14.8375C15.7539 15.4977 15.6198 16.1558 15.33 16.75L15.22 16.97C14.5464 18.3278 13.5092 19.472 12.2239 20.2753C10.9386 21.0786 9.45562 21.5095 7.93997 21.52ZM3.99997 13.14C3.69081 13.1448 3.38762 13.2259 3.11725 13.3759C2.84688 13.5259 2.61769 13.7403 2.44997 14C2.27338 14.2602 2.16601 14.5611 2.13802 14.8743C2.11002 15.1875 2.16232 15.5026 2.28997 15.79C2.75874 16.9005 3.54502 17.8479 4.55017 18.5133C5.55531 19.1786 6.73456 19.5323 7.93997 19.53C9.08734 19.525 10.2108 19.2018 11.1854 18.5962C12.16 17.9906 12.9474 17.1265 13.46 16.1L13.56 15.88C13.7135 15.587 13.7861 15.2583 13.7703 14.9278C13.7545 14.5973 13.6508 14.2771 13.47 14C13.3003 13.7262 13.0632 13.5005 12.7813 13.3446C12.4993 13.1888 12.1821 13.108 11.86 13.11L3.99997 13.14Z" fill="#EF5630"/>
<path d="M16.74 21.52C16.4748 21.52 16.2204 21.4146 16.0329 21.2271C15.8453 21.0396 15.74 20.7852 15.74 20.52C15.74 20.2548 15.8453 20.0004 16.0329 19.8129C16.2204 19.6253 16.4748 19.52 16.74 19.52C17.7915 19.5169 18.8212 19.2204 19.7134 18.6639C20.6056 18.1074 21.3247 17.313 21.79 16.37L21.89 16.18C22.0185 15.9223 22.0778 15.6356 22.062 15.3481C22.0463 15.0605 21.956 14.7821 21.8 14.54C21.6527 14.293 21.4431 14.089 21.1921 13.9486C20.9411 13.8082 20.6576 13.7362 20.37 13.74H17.59C17.3248 13.74 17.0704 13.6346 16.8829 13.4471C16.6953 13.2596 16.59 13.0052 16.59 12.74C16.59 12.4748 16.6953 12.2204 16.8829 12.0329C17.0704 11.8453 17.3248 11.74 17.59 11.74H20.37C20.997 11.7401 21.6137 11.8999 22.1618 12.2045C22.7099 12.509 23.1714 12.9483 23.5026 13.4807C23.8338 14.013 24.024 14.6211 24.055 15.2473C24.086 15.8736 23.957 16.4974 23.68 17.06L23.59 17.26C22.9566 18.5362 21.9801 19.6108 20.7702 20.3632C19.5603 21.1157 18.1648 21.5162 16.74 21.52Z" fill="#EF5630"/>
<path d="M8 9.99998C7.45417 10.0053 6.91266 9.90279 6.40649 9.69847C5.90032 9.49416 5.43943 9.19199 5.05022 8.80928C4.66101 8.42657 4.35112 7.97083 4.1383 7.46817C3.92548 6.96552 3.81392 6.42581 3.81 5.87998V5.73998C3.81 4.64198 4.24617 3.58895 5.02258 2.81255C5.79898 2.03615 6.852 1.59998 7.95 1.59998C9.04799 1.59998 10.101 2.03615 10.8774 2.81255C11.6538 3.58895 12.09 4.64198 12.09 5.73998V5.87998C12.0823 6.9651 11.6498 8.00404 10.8853 8.77416C10.1208 9.54428 9.08504 9.98431 8 9.99998ZM8 3.60998C7.71563 3.60333 7.43279 3.65344 7.16801 3.75737C6.90324 3.86131 6.66184 4.01699 6.45793 4.21531C6.25402 4.41363 6.0917 4.65062 5.98045 4.9124C5.86919 5.17419 5.81125 5.45553 5.81 5.73998V5.87998C5.81 6.161 5.86535 6.43928 5.9729 6.69892C6.08044 6.95856 6.23807 7.19447 6.43679 7.39318C6.63551 7.5919 6.87142 7.74953 7.13105 7.85708C7.39069 7.96462 7.66897 8.01998 7.95 8.01998C8.23103 8.01998 8.5093 7.96462 8.76894 7.85708C9.02858 7.74953 9.26449 7.5919 9.46321 7.39318C9.66192 7.19447 9.81955 6.95856 9.9271 6.69892C10.0346 6.43928 10.09 6.161 10.09 5.87998V5.73998C10.0875 5.1827 9.8678 4.64837 9.4775 4.25059C9.0872 3.85282 8.55712 3.62299 8 3.60998Z" fill="#EF5630"/>
<path d="M16.74 10.73C15.802 10.7274 14.9031 10.3536 14.2398 9.69028C13.5765 9.02697 13.2027 8.12809 13.2 7.19004V7.08004C13.2 6.14117 13.573 5.24076 14.2369 4.57688C14.9007 3.913 15.8011 3.54004 16.74 3.54004C17.6789 3.54004 18.5793 3.913 19.2432 4.57688C19.907 5.24076 20.28 6.14117 20.28 7.08004V7.19004C20.2774 8.12809 19.9036 9.02697 19.2403 9.69028C18.5769 10.3536 17.6781 10.7274 16.74 10.73ZM16.74 5.54004C16.3316 5.54004 15.9399 5.70229 15.6511 5.99109C15.3623 6.2799 15.2 6.67161 15.2 7.08004V7.19004C15.2 7.59847 15.3623 7.99018 15.6511 8.27898C15.9399 8.56779 16.3316 8.73004 16.74 8.73004C17.1484 8.73004 17.5402 8.56779 17.829 8.27898C18.1178 7.99018 18.28 7.59847 18.28 7.19004V7.08004C18.28 6.67161 18.1178 6.2799 17.829 5.99109C17.5402 5.70229 17.1484 5.54004 16.74 5.54004Z" fill="#EF5630"/>
</g>
<defs>
<clipPath id="clip0">
<rect width="24" height="24" fill="white"/>
</clipPath>
</defs>
</svg>
