<svg width="24" height="24" viewBox="0 0 24 24" fill="none" xmlns="http://www.w3.org/2000/svg">
<path d="M12.29 10.3C12.4018 10.2986 12.5127 10.32 12.6158 10.363C12.719 10.406 12.8123 10.4696 12.89 10.55C13.0488 10.7093 13.1379 10.9251 13.1379 11.15C13.1379 11.3749 13.0488 11.5907 12.89 11.75C12.7298 11.9077 12.5148 11.9973 12.29 12C12.0654 11.9963 11.8508 11.9069 11.69 11.75C11.6106 11.6716 11.5476 11.5782 11.5046 11.4752C11.4617 11.3722 11.4397 11.2616 11.44 11.15C11.4386 11.0382 11.46 10.9274 11.503 10.8242C11.546 10.721 11.6096 10.6277 11.69 10.55C11.7684 10.4706 11.8618 10.4076 11.9649 10.3646C12.0679 10.3217 12.1784 10.2997 12.29 10.3ZM12.29 8.60001C11.7761 8.59086 11.2714 8.73721 10.8422 9.01989C10.4129 9.30257 10.079 9.70837 9.88444 10.1841C9.68982 10.6598 9.64351 11.1832 9.75158 11.6857C9.85964 12.1882 10.117 12.6464 10.49 13C10.7863 13.2974 11.1515 13.517 11.5531 13.6393C11.9547 13.7617 12.3802 13.783 12.792 13.7013C13.2038 13.6197 13.5891 13.4377 13.9136 13.1714C14.2382 12.9052 14.492 12.5629 14.6525 12.175C14.813 11.7871 14.8753 11.3656 14.8337 10.9478C14.7922 10.5301 14.6482 10.1291 14.4145 9.78033C14.1808 9.43161 13.8646 9.14598 13.494 8.9488C13.1234 8.75162 12.7098 8.64899 12.29 8.65001V8.60001Z" fill="#EF5630"/>
<path d="M18.8 16.81C19.0255 16.81 19.2417 16.8996 19.4011 17.059C19.5605 17.2184 19.65 17.4346 19.65 17.66C19.6503 17.7716 19.6283 17.8821 19.5854 17.9852C19.5425 18.0882 19.4795 18.1816 19.4 18.26C19.3223 18.3404 19.229 18.404 19.1259 18.447C19.0227 18.49 18.9118 18.5114 18.8 18.51C18.6884 18.5103 18.5779 18.4883 18.4749 18.4454C18.3719 18.4025 18.2784 18.3394 18.2 18.26C18.0413 18.1007 17.9521 17.8849 17.9521 17.66C17.9521 17.4351 18.0413 17.2193 18.2 17.06C18.2784 16.9806 18.3719 16.9175 18.4749 16.8746C18.5779 16.8317 18.6884 16.8097 18.8 16.81ZM18.8 15.11C18.2104 15.1109 17.6393 15.316 17.184 15.6906C16.7286 16.0651 16.4171 16.5858 16.3025 17.1642C16.1878 17.7425 16.2771 18.3428 16.5552 18.8627C16.8333 19.3826 17.2829 19.7901 17.8276 20.0158C18.3723 20.2415 18.9784 20.2714 19.5427 20.1006C20.107 19.9297 20.5947 19.5686 20.9227 19.0787C21.2507 18.5887 21.3989 18.0003 21.3418 17.4134C21.2848 16.8266 21.0262 16.2776 20.61 15.86C20.373 15.6214 20.091 15.4322 19.7803 15.3035C19.4695 15.1747 19.1364 15.109 18.8 15.11Z" fill="#EF5630"/>
<path d="M10.9 20.05C10.7684 20.0507 10.638 20.0255 10.5161 19.9758C10.3943 19.926 10.2835 19.8527 10.19 19.76C10.0963 19.667 10.0219 19.5564 9.97113 19.4346C9.92036 19.3127 9.89423 19.182 9.89423 19.05C9.89423 18.918 9.92036 18.7873 9.97113 18.6654C10.0219 18.5435 10.0963 18.4329 10.19 18.34L19.49 9.04998C19.5797 8.9453 19.69 8.86028 19.8141 8.80026C19.9381 8.74023 20.0733 8.7065 20.211 8.70118C20.3487 8.69587 20.486 8.71907 20.6143 8.76935C20.7427 8.81962 20.8592 8.89588 20.9567 8.99333C21.0541 9.09079 21.1304 9.20734 21.1807 9.33566C21.2309 9.46399 21.2541 9.60132 21.2488 9.73904C21.2435 9.87676 21.2098 10.0119 21.1497 10.136C21.0897 10.26 21.0047 10.3703 20.9 10.46L11.61 19.76C11.5166 19.8527 11.4058 19.926 11.2839 19.9758C11.1621 20.0255 11.0316 20.0507 10.9 20.05Z" fill="#EF5630"/>
<path d="M16.62 6.39001H2.61999C2.35478 6.39001 2.10042 6.28466 1.91289 6.09712C1.72535 5.90959 1.62 5.65523 1.62 5.39001C1.62 5.1248 1.72535 4.87044 1.91289 4.68291C2.10042 4.49537 2.35478 4.39001 2.61999 4.39001H16.62C16.8852 4.39001 17.1396 4.49537 17.3271 4.68291C17.5146 4.87044 17.62 5.1248 17.62 5.39001C17.62 5.65523 17.5146 5.90959 17.3271 6.09712C17.1396 6.28466 16.8852 6.39001 16.62 6.39001Z" fill="#EF5630"/>
<path d="M7.00002 11.11H2.65002C2.38481 11.11 2.13045 11.0046 1.94292 10.8171C1.75538 10.6296 1.65002 10.3752 1.65002 10.11C1.65002 9.84477 1.75538 9.59042 1.94292 9.40288C2.13045 9.21534 2.38481 9.10999 2.65002 9.10999H7.00002C7.26524 9.10999 7.51959 9.21534 7.70713 9.40288C7.89467 9.59042 8.00002 9.84477 8.00002 10.11C8.00002 10.3752 7.89467 10.6296 7.70713 10.8171C7.51959 11.0046 7.26524 11.11 7.00002 11.11Z" fill="#EF5630"/>
<path d="M7.00002 15.84H2.65002C2.38481 15.84 2.13045 15.7346 1.94292 15.5471C1.75538 15.3595 1.65002 15.1052 1.65002 14.84C1.65002 14.5747 1.75538 14.3204 1.94292 14.1329C2.13045 13.9453 2.38481 13.84 2.65002 13.84H7.00002C7.26524 13.84 7.51959 13.9453 7.70713 14.1329C7.89467 14.3204 8.00002 14.5747 8.00002 14.84C8.00002 15.1052 7.89467 15.3595 7.70713 15.5471C7.51959 15.7346 7.26524 15.84 7.00002 15.84Z" fill="#EF5630"/>
</svg>
