<?xml version="1.0" standalone="no"?>
<!DOCTYPE svg PUBLIC "-//W3C//DTD SVG 20010904//EN"
 "http://www.w3.org/TR/2001/REC-SVG-20010904/DTD/svg10.dtd">
<svg version="1.0" xmlns="http://www.w3.org/2000/svg"
 width="800.000000pt" height="800.000000pt" viewBox="0 0 800.000000 800.000000"
 preserveAspectRatio="xMidYMid meet">
<metadata>
Created by potrace 1.11, written by Peter Selinger 2001-2013
</metadata>
<g transform="translate(0.000000,800.000000) scale(0.100000,-0.100000)"
fill="#000000" stroke="none">
<path d="M895 7823 c-38 -8 -77 -15 -85 -16 -26 -4 -155 -49 -165 -58 -5 -5
-14 -9 -21 -9 -11 0 -144 -72 -169 -92 -214 -166 -320 -306 -398 -524 -23 -65
-37 -121 -41 -170 -2 -11 -5 -25 -9 -31 -9 -14 -4 -5861 5 -5888 3 -11 11 -41
17 -67 75 -325 349 -627 671 -738 36 -12 74 -26 85 -30 11 -5 38 -12 60 -16
22 -3 51 -9 65 -12 45 -11 6062 -13 6075 -2 6 5 14 8 16 5 6 -6 153 29 194 46
17 7 35 13 42 15 25 5 161 78 224 121 114 75 242 213 314 338 16 28 30 52 30
55 1 3 10 25 21 50 44 97 70 191 81 292 8 81 8 5759 0 5813 -16 103 -21 125
-44 200 -74 235 -255 460 -467 582 -58 33 -169 83 -184 83 -10 0 -23 5 -28 10
-6 6 -19 12 -30 15 -10 2 -50 12 -89 22 -66 17 -232 18 -3085 19 -2623 2
-3024 0 -3085 -13z m5980 -334 c324 -9 613 -262 667 -581 19 -110 17 -5745 -1
-5833 -23 -107 -99 -269 -133 -283 -4 -2 -8 -8 -8 -14 0 -17 -112 -117 -171
-154 -54 -32 -160 -83 -177 -84 -4 0 -23 -5 -43 -10 -20 -6 -52 -12 -70 -15
-39 -5 -5922 -6 -5959 -1 -110 16 -231 65 -325 131 -58 41 -165 145 -165 161
0 4 -6 15 -14 23 -14 18 -46 77 -70 131 -15 35 -33 106 -42 165 -6 44 -5 5703
1 5750 9 64 12 77 34 142 11 34 37 90 57 125 37 63 169 203 216 229 103 56
132 69 198 89 41 12 107 25 145 27 39 3 71 6 72 7 2 1 5723 -3 5788 -5z"/>
<path d="M5571 6705 c-95 -47 -177 -85 -182 -85 -5 0 -9 -4 -9 -10 0 -5 -5
-10 -11 -10 -30 0 -740 -355 -779 -390 -72 -63 -99 -89 -126 -127 -16 -21 -32
-40 -35 -43 -11 -9 -78 -157 -83 -184 -2 -14 -7 -30 -11 -36 -3 -5 -8 -29 -10
-52 -2 -24 -4 -43 -5 -43 -1 0 -3 -780 -3 -1733 -2 -1446 0 -1731 11 -1727 8
3 25 8 38 11 13 3 24 10 24 15 0 5 5 9 10 9 6 0 68 28 138 62 70 35 129 63
132 64 5 1 180 87 210 104 8 4 60 29 115 55 411 196 472 230 551 309 103 104
153 197 202 376 6 22 8 3520 2 3520 -3 -1 -83 -39 -179 -85z"/>
<path d="M3460 3760 c-115 -57 -276 -136 -595 -290 -276 -134 -369 -181 -386
-196 -8 -8 -19 -14 -22 -14 -10 0 -63 -47 -106 -94 -20 -21 -44 -47 -54 -57
-53 -57 -119 -223 -133 -334 -8 -63 -9 -1553 -1 -1561 6 -6 125 52 768 370
293 146 371 187 395 211 7 6 25 22 40 36 101 85 185 232 220 384 12 54 12
1605 0 1604 -6 -1 -63 -27 -126 -59z"/>
</g>
</svg>
