<svg width="40" height="40" viewBox="0 0 40 40" fill="none" xmlns="http://www.w3.org/2000/svg">
<rect width="40" height="40" rx="16" fill="white"/>
<circle cx="20" cy="20" r="10" fill="white"/>
<path fill-rule="evenodd" clip-rule="evenodd" d="M12.1401 24.6222C12.5403 25.9697 12.9647 27.3987 12.0055 31.3349C9.63143 30.6945 6.40349 26.1463 6 20.967V18.8786C6.06568 18.0618 6.20644 17.2449 6.44103 16.4374C11.0108 0.685989 35.0702 3.96251 33.8222 21.9509C33.6439 24.587 32.0956 26.9631 30.6599 29.1444C29.0272 28.0862 27.4132 23.1297 27.4695 21.329C27.5093 19.9747 28.3576 19.155 29.2446 18.298C30.2422 17.3342 31.2886 16.3231 31.2886 14.4511C30.4573 14.5258 29.8852 15.2306 29.2891 15.965C28.553 16.8718 27.7802 17.8238 26.4373 17.6905C26.1436 16.7752 26.4961 16.249 26.8432 15.731C27.1613 15.2561 27.4748 14.7881 27.2819 14.0334C26.0526 13.625 25.4052 14.1726 24.7483 15.1844C24.1809 16.0592 24.2796 16.3665 24.4209 16.8063C24.5179 17.1083 24.635 17.4729 24.57 18.1267C23.0593 19.6304 21.7831 19.6211 19.6718 19.3798C18.7281 18.4585 18.6399 18.1508 18.4744 17.5736C18.3881 17.2727 18.2808 16.8986 18.0203 16.326C17.644 15.5001 17.2935 15.1516 16.8879 14.7485C16.6463 14.5083 16.3851 14.2486 16.0873 13.857C16.1475 12.7348 16.4635 12.2647 16.7199 11.8834C17.0234 11.432 17.2433 11.1049 16.8568 9.96792C15.8945 9.73187 15.3996 10.2392 14.7244 10.9313C14.5766 11.0828 14.4201 11.2432 14.2481 11.4066L14.1355 14.0612C13.2054 14.9949 12.8839 15.3089 12.7677 15.6861C12.6459 16.0815 12.7498 16.5464 12.6154 17.8668C12.5643 18.3767 12.3778 19.1315 12.1893 19.8941C11.9627 20.8111 11.7333 21.7394 11.7333 22.2665C11.7333 23.2525 11.9335 23.9265 12.1401 24.6222ZM23.7613 26.2483C24.9114 32.713 25.2242 34.4717 19.0434 33.7482C18.0206 32.7441 18.0222 32.483 18.0281 31.5016C18.0295 31.2764 18.0311 31.0132 18.0205 30.6945C18.0058 30.2704 17.9521 29.7395 17.8916 29.141C17.6434 26.6875 17.2802 23.0969 19.0152 21.0598C22.4777 20.7907 23.0689 22.3129 23.5756 25.1996C23.6392 25.5621 23.7014 25.9116 23.7613 26.2483ZM28.4575 31.1128C27.7571 31.6714 27.5124 31.8664 26.522 31.9847C25.6681 30.5831 25.4523 28.0399 26.203 26.6104C27.7982 27.0838 28.821 29.46 28.6803 30.9358C28.6008 30.9986 28.5269 31.0574 28.4575 31.1128ZM15.8163 32.3017C15.8109 32.6369 15.806 32.9443 15.806 33.2099C14.1384 33.0636 14.168 32.0423 14.2076 30.6815C14.2132 30.488 14.219 30.2876 14.2202 30.0819C14.2222 29.5977 14.2061 29.1686 14.1918 28.7898C14.1397 27.4041 14.1128 26.6905 15.0929 26.4062C15.8928 27.4982 15.8472 30.3643 15.8163 32.3017Z" fill="#EF4635"/>
</svg>
