<svg width="40" height="40" viewBox="0 0 40 40" fill="none" xmlns="http://www.w3.org/2000/svg">
<rect width="40" height="40" rx="16" fill="white"/>
<path d="M8.47055 20L20.0027 31.53L31.5343 20L20.0027 8.47047L8.47055 20ZM11.8477 25.0275L10.6829 23.8629L6.82352 20.0024L10.6829 16.1425L11.8477 14.9779V11.8489H14.976L20.0002 6.82333L23.8591 10.6838L25.024 11.8484H28.1528V14.9774L29.3171 16.1425L33.1765 20.0024L29.3171 23.8624L28.1528 25.0275V28.157H25.024L23.8591 29.3221L20.0002 33.1821L16.1409 29.3221L14.976 28.157H11.8477V25.0275ZM19.9998 6L15.3174 10.6828H10.6829V15.3177L6 19.9995L10.6829 24.6828V29.3172H15.3174L20.0002 34L24.6826 29.3172H29.3171V24.6823L34 19.9995L29.3171 15.3167V10.6823H24.6826L19.9998 6Z" fill="#00805F"/>
<path d="M7 20.1767L12.0237 15.1526V12.0241H15.1525L20.1762 7L25.2 12.0241H28.3287V15.1531L33.3535 20.1762L28.3292 25.2002V28.3293H25.2005L20.1767 33.3533L15.153 28.3293H12.0242V25.2002L7 20.1767ZM12.0223 23.5516C13.9676 21.2063 16.9003 19.7098 20.1728 19.7093C22.6986 19.7093 24.7584 17.6495 24.7584 15.1233C24.7584 13.9303 24.2992 12.841 23.5485 12.0236L20.1728 8.64715L16.7966 12.0241L12.0228 16.7988L8.64704 20.1757L12.0228 23.5521L12.0223 23.5516ZM28.3287 16.8017C26.3834 19.147 23.4498 20.6436 20.1762 20.6436C17.6495 20.6441 15.5892 22.7044 15.5892 25.2306C15.5892 26.4235 16.0489 27.5123 16.8 28.3298H16.799L20.1762 31.7062L23.5534 28.3298L28.3287 23.5546L31.7059 20.1781L28.3287 16.8017Z" fill="#FAAE17"/>
</svg>
