<svg width="40" height="40" viewBox="0 0 40 40" fill="none" xmlns="http://www.w3.org/2000/svg">
<rect width="40" height="40" rx="16" fill="white"/>
<path d="M31.5508 12.1918C31.2514 11.7786 30.9554 11.3655 30.6947 10.9491L14.6928 20.2397L6.96869 15.7636C6.79141 16.2466 6.68304 16.7526 6.64685 17.2665L14.7668 22.0191L31.5508 12.1918Z" fill="#2F9A41"/>
<path d="M14.6929 23.7367L6.3959 18.9223C6.3345 19.2184 6.30964 19.5211 6.32188 19.8234C6.32188 23.5043 7.76856 27.0345 10.3437 29.6373C12.9188 32.2401 16.4114 33.7023 20.0531 33.7023C23.6949 33.7023 27.1875 32.2401 29.7626 29.6373C32.3377 27.0345 33.7844 23.5043 33.7844 19.8234C33.7998 17.6272 33.2897 15.4599 32.2975 13.506L14.6929 23.7367Z" fill="#2F9A41"/>
<path d="M29.578 9.78457C29.1869 9.41148 28.7765 9.05966 28.3485 8.73059L14.6929 16.7428L8.10807 12.9432C7.886 13.3564 7.66071 13.8085 7.40002 14.2965L14.6189 18.5091L29.578 9.78457Z" fill="#2F9A41"/>
<path d="M27.0096 7.8295C26.4928 7.51677 25.9551 7.24069 25.4004 7.00323L14.6929 13.236L9.89423 10.5002C9.57239 10.8255 9.25055 11.2517 8.92871 11.6648L14.6574 14.9764L27.0096 7.8295Z" fill="#2F9A41"/>
</svg>
