<svg width="30" height="24" viewBox="0 0 30 24" fill="none" xmlns="http://www.w3.org/2000/svg">
<rect width="30" height="23.8776" rx="4" fill="#DBDFE2"/>
<path d="M18.4542 18.3795C18.4636 18.4069 18.472 18.4309 18.4791 18.4515C18.4664 19.3875 18.2419 20.0663 17.9331 20.5634C17.6142 21.077 17.1877 21.4248 16.751 21.6623C16.3119 21.9011 15.8675 22.0252 15.5293 22.0889C15.3613 22.1206 15.2225 22.1368 15.1278 22.145C15.0806 22.1491 15.0446 22.1512 15.0217 22.1523L15.0028 22.153L14.9839 22.1521C14.9611 22.1508 14.9251 22.1483 14.8779 22.1436C14.7833 22.1344 14.6445 22.1166 14.4765 22.083C14.1385 22.0152 13.6938 21.8854 13.2542 21.6398C12.4171 21.1721 11.5464 20.2617 11.5211 18.3757C11.5281 18.3558 11.5361 18.3327 11.5452 18.3064C11.5794 18.2079 11.628 18.0654 11.6861 17.8877C11.8024 17.5325 11.9574 17.0355 12.1127 16.467C12.42 15.3423 12.7416 13.8922 12.745 12.7057C12.7484 11.5036 12.4266 10.0336 12.1178 8.89336C11.9616 8.317 11.8054 7.81301 11.6882 7.4529C11.6295 7.27272 11.5805 7.12821 11.546 7.02829C11.5365 7.00069 11.528 6.97649 11.5208 6.95586C11.5356 4.78659 12.1176 3.66717 12.7709 3.0787C13.4413 2.47494 14.2882 2.33691 15.0001 2.33691C15.712 2.33691 16.5589 2.47494 17.2293 3.0787C17.8827 3.66721 18.4646 4.78673 18.4794 6.95626C18.4722 6.97695 18.4638 7.00126 18.4542 7.02899C18.4199 7.12888 18.3711 7.27336 18.3127 7.45351C18.196 7.81355 18.0405 8.31744 17.8848 8.89368C17.5767 10.0338 17.2552 11.5031 17.2552 12.7043C17.2552 13.9054 17.5767 15.3747 17.8848 16.5148C18.0405 17.0911 18.196 17.595 18.3127 17.955C18.3711 18.1352 18.4199 18.2796 18.4542 18.3795Z" stroke="#1A1C1F"/>
<path d="M18.3672 6.73438L29.9998 6.73437" stroke="#1A1C1F"/>
<path d="M0 6.73438L11.6327 6.73437" stroke="#1A1C1F"/>
<path d="M18.3672 17.7549L29.9998 17.7549" stroke="#1A1C1F"/>
<path d="M0 17.7549L11.6327 17.7549" stroke="#1A1C1F"/>
</svg>
