<svg width="28" height="28" viewBox="0 0 28 28" fill="none" xmlns="http://www.w3.org/2000/svg">
<rect width="28" height="28" rx="8" fill="#F2F2F7"/>
<path d="M10.9667 9.67329C11.133 9.67242 11.2978 9.70502 11.4513 9.76916C11.6047 9.8333 11.7437 9.92766 11.86 10.0466C12.0961 10.284 12.2287 10.6052 12.2287 10.94C12.2287 11.2748 12.0961 11.5959 11.86 11.8333C11.7434 11.9514 11.6042 12.0447 11.4507 12.1077C11.2972 12.1707 11.1326 12.2021 10.9667 12.2C10.6475 12.1768 10.3489 12.0336 10.1309 11.7992C9.91298 11.5648 9.79183 11.2567 9.79183 10.9366C9.79183 10.6166 9.91298 10.3084 10.1309 10.074C10.3489 9.83967 10.6475 9.69649 10.9667 9.67329ZM10.9667 8.53995C10.6413 8.52279 10.3158 8.57205 10.0101 8.68474C9.70442 8.79744 9.42485 8.97119 9.18847 9.19543C8.95209 9.41967 8.76384 9.68969 8.6352 9.98904C8.50656 10.2884 8.44022 10.6108 8.44022 10.9366C8.44022 11.2624 8.50656 11.5849 8.6352 11.8842C8.76384 12.1835 8.95209 12.4536 9.18847 12.6778C9.42485 12.902 9.70442 13.0758 10.0101 13.1885C10.3158 13.3012 10.6413 13.3505 10.9667 13.3333C11.292 13.3505 11.6175 13.3012 11.9232 13.1885C12.2289 13.0758 12.5085 12.902 12.7449 12.6778C12.9812 12.4536 13.1695 12.1835 13.2981 11.8842C13.4268 11.5849 13.4931 11.2624 13.4931 10.9366C13.4931 10.6108 13.4268 10.2884 13.2981 9.98904C13.1695 9.68969 12.9812 9.41967 12.7449 9.19543C12.5085 8.97119 12.2289 8.79744 11.9232 8.68474C11.6175 8.57205 11.292 8.52279 10.9667 8.53995Z" fill="#666C72"/>
<path d="M17.0933 15.7998C17.2591 15.7985 17.4235 15.8302 17.5769 15.8932C17.7303 15.9561 17.8696 16.0491 17.9867 16.1665C18.1047 16.2834 18.1985 16.4226 18.2626 16.5759C18.3266 16.7292 18.3597 16.8937 18.36 17.0598C18.36 17.3958 18.2265 17.718 17.989 17.9555C17.7515 18.1931 17.4293 18.3265 17.0933 18.3265C16.7574 18.3265 16.4352 18.1931 16.1977 17.9555C15.9601 17.718 15.8267 17.3958 15.8267 17.0598C15.8269 16.8937 15.86 16.7292 15.9241 16.5759C15.9882 16.4226 16.0819 16.2834 16.2 16.1665C16.317 16.0491 16.4563 15.9561 16.6097 15.8932C16.7631 15.8302 16.9275 15.7985 17.0933 15.7998ZM17.0933 14.6665C16.5379 14.6663 15.9995 14.8588 15.5701 15.2112C15.1407 15.5635 14.8468 16.0539 14.7386 16.5987C14.6303 17.1436 14.7144 17.7091 14.9765 18.1988C15.2385 18.6886 15.6623 19.0723 16.1757 19.2845C16.689 19.4967 17.2601 19.5242 17.7915 19.3625C18.3228 19.2007 18.7817 18.8597 19.0897 18.3974C19.3977 17.9352 19.5359 17.3804 19.4806 16.8277C19.4254 16.275 19.1801 15.7586 18.7867 15.3665C18.5644 15.144 18.3004 14.9677 18.0098 14.8475C17.7192 14.7274 17.4078 14.6659 17.0933 14.6665Z" fill="#666C72"/>
<path d="M9.66 19.0398C9.52758 19.0406 9.39794 19.0019 9.28759 18.9287C9.17725 18.8555 9.0912 18.7511 9.04042 18.6288C8.98964 18.5065 8.97643 18.3719 9.00248 18.242C9.02853 18.1122 9.09265 17.9931 9.18667 17.8998L17.9333 9.15982C18.0609 9.0506 18.2249 8.99353 18.3927 9.00001C18.5605 9.00649 18.7196 9.07604 18.8384 9.19477C18.9571 9.3135 19.0267 9.47266 19.0331 9.64045C19.0396 9.80823 18.9826 9.97228 18.8733 10.0998L10.1333 18.8398C10.0716 18.9028 9.99796 18.9529 9.91671 18.9873C9.83546 19.0216 9.7482 19.0395 9.66 19.0398Z" fill="#666C72"/>
</svg>
