<svg width="50" height="48" viewBox="0 0 50 48" fill="none" xmlns="http://www.w3.org/2000/svg">
<path d="M42.7168 0H6.7453C4.95715 0.00259579 3.24301 0.693085 1.97861 1.92012C0.714197 3.14715 0.00267486 4.81062 0 6.5459L0 41.4541C0.00267486 43.1894 0.714197 44.8529 1.97861 46.0799C3.24301 47.3069 4.95715 47.9974 6.7453 48H42.7168C44.505 47.9974 46.2191 47.3069 47.4835 46.0799C48.7479 44.8529 49.4595 43.1894 49.4621 41.4541V6.5459C49.4595 4.81062 48.7479 3.14715 47.4835 1.92012C46.2191 0.693085 44.505 0.00259579 42.7168 0V0ZM42.7168 2.1787C43.9104 2.1787 45.055 2.63881 45.899 3.45782C46.7429 4.27683 47.2171 5.38765 47.2171 6.5459V41.4541C47.2171 42.6124 46.7429 43.7232 45.899 44.5422C45.055 45.3612 43.9104 45.8213 42.7168 45.8213H6.7453C5.55176 45.8213 4.40711 45.3612 3.56315 44.5422C2.71919 43.7232 2.24506 42.6124 2.24506 41.4541V6.5459C2.24506 5.38765 2.71919 4.27683 3.56315 3.45782C4.40711 2.63881 5.55176 2.1787 6.7453 2.1787H42.7168Z" fill="#F15525"/>
</svg>
