<svg width="16" height="16" viewBox="0 0 16 16" fill="none" xmlns="http://www.w3.org/2000/svg">
<g clip-path="url(#clip0)">
<path d="M12 7.71002C12.0057 7.8587 11.9781 8.00678 11.9193 8.14344C11.8604 8.28011 11.7719 8.40193 11.66 8.50002L5.65999 13.79C5.45932 13.9517 5.204 14.0296 4.94728 14.0076C4.69055 13.9856 4.45223 13.8653 4.282 13.6719C4.11178 13.4784 4.02279 13.2267 4.0336 12.9693C4.0444 12.7119 4.15416 12.4685 4.33999 12.29L9.49999 7.68002L4.28999 2.68003C4.12123 2.49237 4.02966 2.24784 4.03366 1.9955C4.03766 1.74315 4.13693 1.50165 4.31155 1.31943C4.48617 1.13722 4.72323 1.02777 4.97518 1.01304C5.22713 0.998315 5.47533 1.0794 5.66999 1.24002L11.67 6.95002C11.7761 7.04576 11.8605 7.16314 11.9174 7.29424C11.9743 7.42534 12.0025 7.56712 12 7.71002Z" fill="#666C72"/>
</g>
<defs>
<clipPath id="clip0">
<rect width="13" height="8" fill="white" transform="translate(4 14) rotate(-90)"/>
</clipPath>
</defs>
</svg>
