<svg width="24" height="14" viewBox="0 0 24 14" fill="none" xmlns="http://www.w3.org/2000/svg">
<path d="M19.6843 6.51042L19.4227 7.81554H16.7088L16.2511 10.3605H14.5508L15.7279 3.99805H20.1094L19.9132 5.27055H17.1993L16.9704 6.51042H19.6843Z" fill="#204177"/>
<path d="M6.04933 8.27234H7.45532L7.03025 6.8367L6.04933 8.27234ZM5.36268 9.51221L4.77412 10.3605H3.30273L7.52072 3.99805H7.68421L9.48257 10.3605H7.94579L7.7496 9.51221H5.36268Z" fill="#204177"/>
<path d="M14.6486 3.99805H10.5287L10.2998 5.27055H11.575L10.5614 10.3605H12.0328L13.1445 5.23792C13.5696 5.23792 13.9946 5.23792 14.4197 5.23792L14.6486 3.99805Z" fill="#204177"/>
<path d="M20.9264 4.09596L21.0245 4.19384L21.1226 4.29173L21.2534 4.42224L21.3515 4.52013L21.4169 4.68327L21.515 4.78115L21.6131 4.94429L21.7112 5.10743L21.7439 5.27058L21.8093 5.46634L21.8747 5.59686L21.9074 5.79263L21.9727 5.98839L22.0054 6.15154V6.37993L22.0381 6.54307V6.77147V6.96724L22.0054 7.16301L21.9727 7.35878L21.9074 7.55455L21.8747 7.78295L21.8093 7.97871L21.7112 8.20711L21.6458 8.40288L21.5477 8.56602L21.4169 8.79442L21.2861 8.95756L21.1553 9.15333L20.9918 9.3491L20.8283 9.54487L20.6322 9.67538L20.1744 10.0669L19.6512 10.4258L19.0954 10.7847L18.5068 11.111L17.8856 11.4047L17.2316 11.6983L16.545 11.9594L15.8256 12.2204L15.1063 12.4488L14.3542 12.6445L13.6349 12.8077L12.8501 12.9708L12.0981 13.0687L11.3134 13.1666L10.594 13.2645L9.84196 13.2971L9.08992 13.3297H8.37057L7.65123 13.2645L6.96458 13.1992L6.31063 13.0687L5.72207 12.9708L5.13351 12.7751L4.57766 12.6119L4.08719 12.3509L3.59673 12.0899L3.20436 11.7962L2.84469 11.4373L2.55041 11.0784L2.32153 10.6542L2.15804 10.2301L2.05995 9.74064L2.02725 9.21859V8.72916L2.09264 8.23974L2.19074 7.81557L2.35422 7.35878L2.51771 6.93461L2.77929 6.51045L3.04087 6.15154L3.30245 5.79263L3.62943 5.43372L3.9891 5.10743L4.38147 4.78115L4.77384 4.45487L5.19891 4.16122L5.59128 3.86756L6.04905 3.63917L6.50681 3.37814L6.93188 3.11711L7.38965 2.92135L7.88011 2.72558L8.30518 2.49718L8.76294 2.33404L9.22071 2.13827L9.61308 2.00776L10.0381 1.84461L10.4305 1.68147L10.8229 1.58359L11.1826 1.45308L11.5095 1.35519L11.8038 1.25731L12.0654 1.15942L12.2943 1.06154L11.9346 1.74673L14.9428 0.147949L11.346 0.343718L12.1635 0.702628L11.8692 0.800513L11.5749 0.898398L11.2153 0.996282L10.8883 1.09417L10.5286 1.22468L10.1362 1.35519L9.74387 1.45308L9.3515 1.61622L8.95913 1.74673L8.56676 1.90987L8.14169 2.07301L7.68392 2.26878L7.25886 2.43192L6.86648 2.62769L6.40872 2.82346L5.98365 3.05186L5.55858 3.24763L5.16621 3.47602L4.74114 3.73705L4.31608 3.96545L3.92371 4.22647L3.53134 4.4875L3.20436 4.78115L2.84469 5.04218L2.48501 5.33583L2.15804 5.66211L1.86376 5.95577L1.53678 6.28205L1.2752 6.60833L1.04632 6.96724L0.817439 7.32615L0.588556 7.68506L0.523161 7.8482L0.457766 8.01134L0.392371 8.17448L0.326975 8.305L0.26158 8.46814L0.196185 8.63128L0.163488 8.79442L0.13079 8.8923L0.0980926 9.05544L0.0653951 9.21859L0.0326976 9.3491V9.51224L0 9.64275V9.77326V9.90378V10.0343L0.0326976 10.1974V10.2953L0.0653951 10.4585L0.13079 10.589L0.163488 10.7195L0.196185 10.85L0.228883 10.9479L0.326975 11.111L0.392371 11.2415L0.457766 11.3394L0.523161 11.4699L0.621253 11.6331L0.752044 11.731L0.850136 11.8615L0.948229 11.9594L1.07902 12.0899L1.43869 12.3835L1.83106 12.6445L2.25613 12.9382L2.77929 13.134L3.30245 13.3297L3.89101 13.4602L4.54496 13.5908L5.19891 13.6886L5.88556 13.7539L6.57221 13.8192L7.29155 13.8518H8.07629L8.86104 13.8192L9.61308 13.7539L10.4305 13.6886L11.248 13.6234L12.0327 13.4929L12.8501 13.3624L13.6349 13.2319L14.4523 13.0361L15.2698 12.8729L16.0218 12.6445L16.8065 12.4488L17.5586 12.2204L18.2779 11.9594L18.9973 11.6657L19.6512 11.4047L20.2725 11.111L20.8937 10.7847L21.4496 10.4911L21.9727 10.1322L22.4305 9.80589L22.594 9.64275L22.7248 9.54487L22.8556 9.38173L22.9864 9.25121L23.0845 9.1207L23.2153 8.95756L23.3134 8.82705L23.3787 8.66391L23.4768 8.53339L23.5749 8.37025L23.673 8.20711L23.7384 8.04397L23.7711 7.88083L23.8365 7.75032L23.9019 7.55455L23.9346 7.42403L23.9673 7.26089L24 7.09775V6.93461V6.8041V6.64096L23.9673 6.47782V6.31468L23.9019 6.15154L23.8692 6.05365L23.8038 5.89051L23.7384 5.76L23.673 5.59686L23.6076 5.46634L23.4768 5.36846L23.3787 5.20532L23.2807 5.10743L23.2153 5.04218L23.1499 5.00955L23.0518 4.94429L23.0191 4.87904L22.9537 4.84641L22.8883 4.78115H22.8229L22.7248 4.74852L22.6921 4.68327L22.6267 4.65064L22.5613 4.61801L22.4632 4.58538L22.3324 4.52013L22.1689 4.4875L22.0381 4.42224H21.8747L21.7112 4.35699L21.5804 4.32436L21.3842 4.2591L21.2534 4.22647L21.0572 4.16122L20.9264 4.09596Z" fill="#EF5630"/>
</svg>
