<svg width="40" height="41" viewBox="0 0 40 41" fill="none" xmlns="http://www.w3.org/2000/svg">
<path d="M0 12.0049C0 5.37747 5.37258 0.00488281 12 0.00488281H28C34.6274 0.00488281 40 5.37747 40 12.0049V28.0049C40 34.6323 34.6274 40.0049 28 40.0049H12C5.37258 40.0049 0 34.6323 0 28.0049V12.0049Z" fill="#F6F7F8"/>
<g clip-path="url(#clip0_1801_8138)">
<circle opacity="0.2" cx="20" cy="20.0049" r="8" fill="#239A54"/>
<circle cx="20" cy="20.0049" r="4" fill="#239A54"/>
<path d="M27.9149 4.40734C28.0074 4.31374 28.1175 4.23933 28.2388 4.18836C28.3601 4.1374 28.4904 4.11089 28.622 4.11035C28.8861 4.11114 29.1393 4.21643 29.3261 4.40324C29.5129 4.59005 29.6182 4.84319 29.619 5.10737L29.619 10.4672L34.8091 10.4814C34.9412 10.4808 35.072 10.5064 35.194 10.5567C35.3161 10.607 35.427 10.6809 35.5204 10.7743C35.6137 10.8676 35.6876 10.9785 35.7379 11.1006C35.7882 11.2227 35.8138 11.3535 35.8132 11.4855C35.8125 11.7497 35.7072 12.0028 35.5204 12.1896C35.3335 12.3764 35.0804 12.4817 34.8162 12.4825L28.5937 12.4825C28.3295 12.4817 28.0764 12.3764 27.8895 12.1896C27.7027 12.0028 27.5974 11.7497 27.5967 11.4855L27.6037 5.12859C27.6042 4.99359 27.632 4.86009 27.6855 4.73614C27.739 4.61218 27.817 4.50033 27.9149 4.40734Z" fill="#239A54"/>
<path d="M28.8902 9.71195L34.369 4.23314C34.4867 4.11539 34.6741 4.07696 34.89 4.1263C35.1059 4.17565 35.3325 4.30873 35.5201 4.49626C35.7076 4.6838 35.8407 4.91043 35.89 5.1263C35.9394 5.34217 35.9009 5.5296 35.7832 5.64736L30.3044 11.1262C30.1866 11.2439 29.9992 11.2823 29.7833 11.233C29.5674 11.1837 29.3408 11.0506 29.1533 10.863C28.9657 10.6755 28.8327 10.4489 28.7833 10.233C28.734 10.0171 28.7724 9.8297 28.8902 9.71195Z" fill="#239A54"/>
</g>
<defs>
<clipPath id="clip0_1801_8138">
<rect width="24" height="24" fill="white" transform="translate(12 4.00488)"/>
</clipPath>
</defs>
</svg>
