<svg width="40" height="41" viewBox="0 0 40 41" fill="none" xmlns="http://www.w3.org/2000/svg">
<path d="M0 12.0049C0 5.37747 5.37258 0.00488281 12 0.00488281H28C34.6274 0.00488281 40 5.37747 40 12.0049V28.0049C40 34.6323 34.6274 40.0049 28 40.0049H12C5.37258 40.0049 0 34.6323 0 28.0049V12.0049Z" fill="#F6F7F8"/>
<circle opacity="0.2" cx="20" cy="20.0049" r="8" fill="#FF0000"/>
<circle cx="20" cy="20.0049" r="4" fill="#FF0000"/>
<path d="M35.0851 12.6024C34.9926 12.696 34.8825 12.7704 34.7612 12.8214C34.6399 12.8724 34.5096 12.8989 34.378 12.8994C34.1139 12.8986 33.8607 12.7933 33.6739 12.6065C33.4871 12.4197 33.3818 12.1666 33.381 11.9024L33.381 6.54252L28.1909 6.52838C28.0588 6.52892 27.928 6.50332 27.806 6.45305C27.6839 6.40278 27.573 6.32884 27.4796 6.23549C27.3863 6.14215 27.3124 6.03124 27.2621 5.90918C27.2118 5.78711 27.1862 5.6563 27.1868 5.52429C27.1875 5.2601 27.2928 5.00696 27.4796 4.82016C27.6665 4.63335 27.9196 4.52805 28.1838 4.52727L34.4063 4.52727C34.6705 4.52805 34.9236 4.63335 35.1105 4.82016C35.2973 5.00696 35.4026 5.2601 35.4033 5.52429L35.3963 11.8812C35.3958 12.0162 35.368 12.1497 35.3145 12.2736C35.261 12.3976 35.183 12.5094 35.0851 12.6024Z" fill="#FF0000"/>
<path d="M34.1589 7.24885L29.2857 12.1221C29.181 12.2268 29.006 12.2528 28.7993 12.1942C28.5927 12.1357 28.3712 11.9974 28.1837 11.8099C27.9961 11.6224 27.8579 11.4009 27.7993 11.1942C27.7408 10.9876 27.7667 10.8126 27.8715 10.7079L32.7447 5.83464C32.8494 5.7299 33.0244 5.70395 33.2311 5.7625C33.4377 5.82104 33.6592 5.95929 33.8467 6.14683C34.0343 6.33436 34.1725 6.55583 34.2311 6.7625C34.2896 6.96917 34.2637 7.14411 34.1589 7.24885Z" fill="#FF0000"/>
</svg>
