<svg width="16" height="17" viewBox="0 0 16 17" fill="none" xmlns="http://www.w3.org/2000/svg">
<path d="M10.2592 14.0049H5.74079C4.2394 14.0049 3.0395 12.7637 3.27145 11.2803C3.65587 8.82182 4.57436 5.5143 6.75 5.00488H9.25C11.4256 5.5143 12.3441 8.82182 12.7286 11.2803C12.9605 12.7637 11.7606 14.0049 10.2592 14.0049Z" stroke="#666C72" stroke-width="1.33333" stroke-linecap="round" stroke-linejoin="round"/>
<path d="M7.33333 5.00488C6.66667 4.36932 6 2.97134 6 2.46296C6 1.95458 6.88889 2.03931 7.33333 2.14522C7.55556 2.03931 8.13333 1.89105 8.66667 2.14524C9.22222 2.03935 10 2.01366 10 2.46296C10 3.09836 9.2 4.49641 8.66667 5.0048" stroke="#666C72" stroke-width="1.33333" stroke-linecap="round" stroke-linejoin="round"/>
<path d="M6.66675 8.67188H9.33341" stroke="#666C72" stroke-width="1.08401" stroke-miterlimit="10" stroke-linecap="round"/>
<path d="M6.66675 10.0049H8.00658H9.33341" stroke="#666C72" stroke-width="1.08401" stroke-miterlimit="10" stroke-linecap="round"/>
<path d="M8 12.0049V10.0049" stroke="#666C72" stroke-width="1.08401" stroke-miterlimit="10" stroke-linecap="round"/>
</svg>
