<svg width="24" height="24" viewBox="0 0 24 24" fill="none" xmlns="http://www.w3.org/2000/svg">
<path d="M16.36 21.9002H7.64C7.16293 21.9028 6.69005 21.8111 6.24854 21.6304C5.80703 21.4496 5.4056 21.1834 5.06733 20.847C4.72907 20.5106 4.46063 20.1106 4.27746 19.6701C4.09429 19.2296 3.99999 18.7572 4 18.2802V5.72015C3.99999 5.24308 4.09429 4.77071 4.27746 4.3302C4.46063 3.8897 4.72907 3.48974 5.06733 3.15333C5.4056 2.81692 5.80703 2.55069 6.24854 2.36995C6.69005 2.18921 7.16293 2.09752 7.64 2.10015H11.42C12.0201 2.10734 12.6021 2.30716 13.08 2.67015L19 7.27015C19.3147 7.52614 19.568 7.84952 19.7411 8.21644C19.9141 8.58337 20.0026 8.98447 20 9.39015V18.2802C20 18.7572 19.9057 19.2296 19.7225 19.6701C19.5394 20.1106 19.2709 20.5106 18.9327 20.847C18.5944 21.1834 18.193 21.4496 17.7515 21.6304C17.3099 21.8111 16.8371 21.9028 16.36 21.9002ZM7.64 4.10015C7.42558 4.09751 7.21277 4.13745 7.01391 4.21768C6.81505 4.29791 6.63409 4.41682 6.48154 4.56751C6.32898 4.71821 6.20786 4.89769 6.1252 5.09555C6.04254 5.29341 5.99998 5.50572 6 5.72015V18.2802C5.99998 18.4946 6.04254 18.7069 6.1252 18.9048C6.20786 19.1026 6.32898 19.2821 6.48154 19.4328C6.63409 19.5835 6.81505 19.7024 7.01391 19.7826C7.21277 19.8629 7.42558 19.9028 7.64 19.9002H16.36C16.5744 19.9028 16.7872 19.8629 16.9861 19.7826C17.185 19.7024 17.3659 19.5835 17.5185 19.4328C17.671 19.2821 17.7921 19.1026 17.8748 18.9048C17.9575 18.7069 18 18.4946 18 18.2802V9.39015C17.9996 9.28543 17.975 9.18221 17.9282 9.08855C17.8814 8.99488 17.8135 8.91329 17.73 8.85015L11.86 4.25015C11.7416 4.15293 11.5932 4.0999 11.44 4.10015H7.64Z" fill="currentColor"/>
<path d="M14.3596 15.6699H9.63965C9.37443 15.6699 9.12008 15.5646 8.93254 15.377C8.745 15.1895 8.63965 14.9351 8.63965 14.6699C8.63965 14.4047 8.745 14.1504 8.93254 13.9628C9.12008 13.7753 9.37443 13.6699 9.63965 13.6699H14.3596C14.6249 13.6699 14.8792 13.7753 15.0668 13.9628C15.2543 14.1504 15.3596 14.4047 15.3596 14.6699C15.3596 14.9351 15.2543 15.1895 15.0668 15.377C14.8792 15.5646 14.6249 15.6699 14.3596 15.6699Z" fill="currentColor"/>
<path d="M18.6 9.56982H12C11.7348 9.56982 11.4804 9.46447 11.2929 9.27693C11.1054 9.0894 11 8.83504 11 8.56982V3.56982C11 3.30461 11.1054 3.05025 11.2929 2.86272C11.4804 2.67518 11.7348 2.56982 12 2.56982C12.2652 2.56982 12.5196 2.67518 12.7071 2.86272C12.8946 3.05025 13 3.30461 13 3.56982V7.56982H18.6C18.8652 7.56982 19.1196 7.67518 19.3071 7.86272C19.4946 8.05025 19.6 8.30461 19.6 8.56982C19.6 8.83504 19.4946 9.0894 19.3071 9.27693C19.1196 9.46447 18.8652 9.56982 18.6 9.56982Z" fill="currentColor"/>
</svg>
