<svg width="24" height="25" viewBox="0 0 24 25" fill="none" xmlns="http://www.w3.org/2000/svg">
<path d="M5.12451 7.25586C3.71436 7.25586 3 8.03516 3 9.47314V11.6719C3 12.7759 3.39893 13.4902 4.25244 13.7686V19.2329C4.25244 20.9771 5.23584 21.9419 6.99854 21.9419H17.5469C19.3003 21.9419 20.2837 20.9771 20.2837 19.2329V13.7686C21.1372 13.4902 21.5361 12.7759 21.5361 11.6719V9.47314C21.5361 8.03516 20.8589 7.25586 19.4116 7.25586H17.9736C18.4932 6.72705 18.7993 6.03125 18.7993 5.25195C18.7993 3.35938 17.2871 2.00488 15.4131 2.00488C13.9658 2.00488 12.7412 2.83984 12.2681 4.32422C11.7949 2.83984 10.5703 2.00488 9.13232 2.00488C7.24902 2.00488 5.73682 3.35938 5.73682 5.25195C5.73682 6.03125 6.04297 6.72705 6.5625 7.25586H5.12451ZM9.93945 7.25586C8.51074 7.25586 7.74072 6.44873 7.74072 5.48389C7.74072 4.54688 8.39014 3.94385 9.35498 3.94385C10.4219 3.94385 11.2847 4.83447 11.2847 6.17041V7.25586H9.93945ZM14.5967 7.25586H13.2515V6.17041C13.2515 4.83447 14.1143 3.94385 15.1812 3.94385C16.146 3.94385 16.7954 4.54688 16.7954 5.48389C16.7954 6.44873 16.0161 7.25586 14.5967 7.25586ZM5.69971 9.12061H11.2383V12.0151H5.69971C5.27295 12.0151 5.0874 11.8296 5.0874 11.4028V9.73291C5.0874 9.31543 5.27295 9.12061 5.69971 9.12061ZM18.8457 9.12061C19.2725 9.12061 19.4487 9.31543 19.4487 9.73291V11.4307C19.4487 11.8574 19.2725 12.0151 18.8457 12.0151H13.3071V9.12061H18.8457ZM7.42529 20.04C6.72949 20.04 6.33057 19.6318 6.33057 18.9546V13.8892H11.229V20.04H7.42529ZM18.2056 18.9546C18.2056 19.6318 17.8066 20.04 17.1108 20.04H13.3071V13.8892H18.2056V18.9546Z" fill="#239A54"/>
</svg>
