<svg width="24" height="24" viewBox="0 0 24 24" fill="none" xmlns="http://www.w3.org/2000/svg">
<path d="M12 24C18.5529 24 24 18.5647 24 12C24 5.44706 18.5412 0 11.9882 0C5.42353 0 0 5.44706 0 12C0 18.5647 5.43529 24 12 24ZM12 22C6.44706 22 2.01176 17.5529 2.01176 12C2.01176 6.45882 6.43529 2 11.9882 2C17.5294 2 21.9882 6.45882 22 12C22.0118 17.5529 17.5412 22 12 22ZM11.7529 14.4353C12.3412 14.4353 12.7059 14.0706 12.7059 13.6L12.7059 13.4588C12.7059 12.8 13.0824 12.3882 13.9059 11.8471C15.0471 11.0941 15.8588 10.4 15.8588 9C15.8588 7.03529 14.1176 5.98824 12.1176 5.98824C10.0941 5.98824 8.76471 6.94118 8.44706 8.02353C8.38824 8.22353 8.34118 8.41177 8.34118 8.61176C8.34118 9.12941 8.76471 9.42353 9.15294 9.42353C9.82353 9.42353 9.92941 9.05882 10.3059 8.62353C10.6941 7.97647 11.2588 7.58824 12.0471 7.58824C13.1176 7.58824 13.8118 8.18824 13.8118 9.09412C13.8118 9.89412 13.3176 10.2824 12.2941 10.9882C11.4471 11.5765 10.8118 12.2 10.8118 13.3529L10.8118 13.5059C10.8118 14.1294 11.1529 14.4353 11.7529 14.4353ZM11.7294 17.9529C12.4118 17.9529 13 17.4118 13 16.7294C13 16.0353 12.4235 15.5059 11.7294 15.5059C11.0353 15.5059 10.4588 16.0471 10.4588 16.7294C10.4588 17.4 11.0471 17.9529 11.7294 17.9529Z" fill="#1586BB"/>
</svg>
