<svg width="172" height="48" viewBox="0 0 128 39" fill="none" xmlns="http://www.w3.org/2000/svg">
  <path d="M43.525 22.6473C42.5464 22.2345 41.7439 21.6384 41.1211 20.8608L43.6424 17.8732C44.5143 19.0085 45.4556 19.5761 46.4663 19.5761C47.1353 19.5761 47.646 19.375 47.9965 18.9693C48.3453 18.5654 48.5215 17.9747 48.5215 17.1953V11.1739C48.5215 8.64726 50.5695 6.59921 53.0962 6.59921V16.9159C53.0962 19.0316 52.5624 20.6188 51.4965 21.6775C50.4307 22.7362 48.8631 23.2647 46.7937 23.2647C45.5944 23.2647 44.5054 23.0583 43.525 22.6473Z" fill="#F15525"/>
  <path d="M70.5088 22.9373L70.4607 14.2789L66.2615 21.327H64.2063L60.0283 14.512V22.9373H55.7561V6.59921H59.5604L65.3024 16.028L70.9056 6.59921H74.7099L74.7561 22.9373H70.5088Z" fill="#F15525"/>
  <path d="M88.0837 16.3554L85.984 11.1259L83.8826 16.3554H88.0837ZM89.4377 19.7629H82.5303L81.2456 22.9373H76.5303L83.7438 6.59921H88.2954L95.5303 22.9373H90.7224L89.4377 19.7629Z" fill="#F15525"/>
  <path d="M106.641 10.8697C106.158 10.4497 105.441 10.2398 104.493 10.2398H101.925V15.0245H104.493C105.441 15.0245 106.158 14.8181 106.641 14.407C107.123 13.9942 107.365 13.407 107.365 12.6437C107.365 11.8821 107.123 11.2896 106.641 10.8697ZM104.447 18.5956H101.925V22.9373H97.3042V6.59921H104.772C106.251 6.59921 107.536 6.84298 108.625 7.33409C109.713 7.82519 110.553 8.52448 111.146 9.43373C111.737 10.3448 112.032 11.4159 112.032 12.6437C112.032 13.827 111.756 14.8572 111.205 15.7362C110.651 16.617 109.861 17.3038 108.834 17.802L112.359 22.9373H107.411L104.447 18.5956Z" fill="#F15525"/>
  <path d="M118.288 10.2629H116.934C114.909 10.2629 113.269 8.62234 113.269 6.59921H127.904C127.904 8.62234 126.265 10.2629 124.24 10.2629H122.909V18.3163C122.909 20.8679 120.84 22.9373 118.288 22.9373V10.2629Z" fill="#F15525"/>
  <path d="M46.621 31.5479V32.4678H42.7847V27.5123H46.5285V28.4322H43.9235V29.5087H46.2242V30.4002H43.9235V31.5479H46.621Z" fill="#F15525"/>
  <path d="M48.6139 32.2245C48.2065 32.0039 47.8844 31.6996 47.6513 31.3099C47.4182 30.922 47.3008 30.4825 47.3008 29.9914C47.3008 29.5003 47.4182 29.059 47.6513 28.6693C47.8844 28.2814 48.2065 27.9772 48.6139 27.7565C49.0214 27.5377 49.4805 27.4273 49.9912 27.4273C50.42 27.4273 50.8079 27.5039 51.1549 27.6551C51.5018 27.8063 51.7937 28.0216 52.0303 28.3063L51.2937 28.9861C50.9591 28.5982 50.5428 28.4042 50.0481 28.4042C49.7403 28.4042 49.4663 28.4718 49.226 28.6071C48.9858 28.7405 48.7972 28.9291 48.6638 29.1693C48.5285 29.4095 48.4609 29.6836 48.4609 29.9914C48.4609 30.2975 48.5285 30.5715 48.6638 30.8117C48.7972 31.0519 48.9858 31.2405 49.226 31.374C49.4663 31.5092 49.7403 31.5768 50.0481 31.5768C50.5428 31.5768 50.9591 31.3811 51.2937 30.9878L52.0303 31.6676C51.7937 31.9558 51.5018 32.1765 51.1513 32.3259C50.8026 32.4772 50.4129 32.5537 49.9841 32.5537C49.4787 32.5537 49.0214 32.4434 48.6139 32.2245Z" fill="#F15525"/>
  <path d="M56.6245 28.4465H55.0391V32.4678H53.9057V28.4465H52.3274V27.5123H56.6245V28.4465Z" fill="#F15525"/>
  <path d="M60.322 31.3984C60.4893 31.2525 60.5747 31.0408 60.5747 30.7614C60.5747 30.2472 60.2579 29.9892 59.6263 29.9892H58.5925V31.6191H59.6263C59.9234 31.6191 60.1547 31.5443 60.322 31.3984ZM61.2437 29.5443C61.5658 29.813 61.7277 30.2116 61.7277 30.7401C61.7277 31.3024 61.5498 31.7312 61.1939 32.0248C60.838 32.3202 60.3362 32.4678 59.6886 32.4678H57.4519V27.5123H58.5925V29.1404H59.8523C60.4555 29.1404 60.9199 29.2757 61.2437 29.5443Z" fill="#F15525"/>
  <path d="M67.9789 30.9803C67.9789 30.571 67.7102 30.3646 67.1728 30.3646H65.913V31.6191H67.1728C67.7102 31.6191 67.9789 31.4056 67.9789 30.9803ZM65.913 29.5657H66.9806C67.2315 29.5657 67.4201 29.5141 67.5483 29.4127C67.6746 29.3112 67.7386 29.1618 67.7386 28.9643C67.7386 28.7703 67.6728 28.6208 67.5447 28.5176C67.4148 28.4144 67.2262 28.3611 66.9806 28.3611H65.913V29.5657ZM68.8988 30.3219C69.0589 30.5248 69.1408 30.7757 69.1408 31.0728C69.1408 31.5123 68.9735 31.854 68.6408 32.0995C68.308 32.3451 67.833 32.4678 67.2137 32.4678H64.7725V27.5123H67.0803C67.655 27.5123 68.1034 27.6226 68.4255 27.845C68.7458 28.0675 68.9059 28.3842 68.9059 28.7934C68.9059 29.039 68.8454 29.2561 68.7226 29.4411C68.5999 29.628 68.4273 29.7757 68.2048 29.8842C68.5073 29.9732 68.7386 30.1191 68.8988 30.3219Z" fill="#F15525"/>
  <path d="M71.1247 32.2245C70.7172 32.0039 70.3969 31.6996 70.1638 31.3099C69.929 30.922 69.8115 30.4825 69.8115 29.9914C69.8115 29.5003 69.929 29.059 70.1638 28.6693C70.3969 28.2814 70.7172 27.9772 71.1247 27.7565C71.5339 27.5377 71.993 27.4273 72.5019 27.4273C72.9325 27.4273 73.3204 27.5039 73.6674 27.6551C74.0144 27.8063 74.3044 28.0216 74.541 28.3063L73.8062 28.9861C73.4699 28.5982 73.0553 28.4042 72.5588 28.4042C72.2528 28.4042 71.9788 28.4718 71.7386 28.6071C71.4966 28.7405 71.3097 28.9291 71.1745 29.1693C71.0411 29.4095 70.9734 29.6836 70.9734 29.9914C70.9734 30.2975 71.0411 30.5715 71.1745 30.8117C71.3097 31.0519 71.4966 31.2405 71.7386 31.374C71.9788 31.5092 72.2528 31.5768 72.5588 31.5768C73.0553 31.5768 73.4699 31.3811 73.8062 30.9878L74.541 31.6676C74.3044 31.9558 74.0126 32.1765 73.6638 32.3259C73.3151 32.4772 72.9254 32.5537 72.4966 32.5537C71.9894 32.5537 71.5339 32.4434 71.1247 32.2245Z" fill="#F15525"/>
  <path d="M77.6386 26.9361C77.5461 26.8436 77.4999 26.7279 77.4999 26.5856C77.4999 26.4433 77.5461 26.3276 77.6386 26.2351C77.7294 26.1425 77.8468 26.0963 77.9892 26.0963C78.1297 26.0963 78.249 26.1425 78.3433 26.2351C78.4376 26.3276 78.4838 26.4433 78.4838 26.5856C78.4838 26.7279 78.4376 26.8436 78.3433 26.9361C78.249 27.0269 78.1297 27.0731 77.9892 27.0731C77.8468 27.0731 77.7294 27.0269 77.6386 26.9361ZM76.2045 26.9361C76.1102 26.8436 76.0621 26.7279 76.0621 26.5856C76.0621 26.4433 76.1102 26.3276 76.2045 26.2351C76.2988 26.1425 76.4162 26.0963 76.5586 26.0963C76.7009 26.0963 76.8166 26.1425 76.9091 26.2351C77.0016 26.3276 77.0461 26.4433 77.0461 26.5856C77.0461 26.7279 77.0016 26.8436 76.9091 26.9361C76.8166 27.0269 76.7009 27.0731 76.5586 27.0731C76.4162 27.0731 76.2988 27.0269 76.2045 26.9361ZM79.2347 31.5482V32.4681H75.3984V27.5126H79.1422V28.4326H76.5372V29.5091H78.8379V30.4005H76.5372V31.5482H79.2347Z" fill="#F15525"/>
  <path d="M80.0194 27.5123H81.3379L81.1173 30.7472H80.24L80.0194 27.5123ZM80.1938 32.3361C80.0639 32.2116 79.998 32.0603 79.998 31.8806C79.998 31.7009 80.0621 31.5514 80.1902 31.4304C80.3166 31.3094 80.4803 31.2507 80.6778 31.2507C80.8771 31.2507 81.039 31.3094 81.1671 31.4304C81.2952 31.5514 81.3593 31.7009 81.3593 31.8806C81.3593 32.0603 81.2934 32.2116 81.1635 32.3361C81.0336 32.4624 80.8717 32.5247 80.6778 32.5247C80.4856 32.5247 80.3237 32.4624 80.1938 32.3361Z" fill="#F15525"/>
  <path fill-rule="evenodd" clip-rule="evenodd" d="M26.2589 25.3857C26.2603 25.3826 26.2616 25.3795 26.2616 25.3768V11.6971C26.2616 10.9533 25.8346 10.2754 25.1637 9.95156L20.4128 7.66508C19.7705 7.35547 19.025 7.82344 19.025 8.53697V21.8074C19.025 24.7256 17.2919 25.2131 17.2919 25.2131V25.2149C17.3221 27.964 19.4129 30.2202 22.0943 30.5085C24.4645 30.069 26.2616 27.9907 26.2616 25.4925C26.2616 25.4681 26.2601 25.4482 26.2585 25.428C26.2577 25.4172 26.2569 25.4063 26.2563 25.3946C26.2563 25.3919 26.2576 25.3888 26.2589 25.3857ZM8.18332 20.8252C8.18332 26.3394 12.6531 30.8092 18.1673 30.8092C18.3363 30.8092 18.4929 30.8092 18.6513 30.8074C16.7153 29.6651 15.4129 27.5636 15.4129 25.1544C15.4129 25.0741 15.4137 24.6171 15.4147 24.0322C15.4159 23.3992 15.4173 22.6165 15.4182 21.9996C15.4182 21.5032 15.1371 21.0548 14.6887 20.8395C14.5313 20.7627 14.3517 20.6763 14.156 20.5822C13.9845 20.4997 13.8006 20.4112 13.6086 20.3181V19.174C13.6086 18.2683 13.0819 17.432 12.2367 17.0245C11.8043 16.8163 11.3043 16.8448 10.8986 17.0992C10.4929 17.3537 10.2509 17.7914 10.2509 18.2701V18.7007C10.0967 18.6264 9.94664 18.5541 9.8026 18.4846C9.54953 18.3626 9.31496 18.2495 9.10858 18.1508C8.67976 17.9427 8.18332 18.2558 8.18332 18.7327V20.8252ZM0.177979 19.5761C0.177979 9.59213 8.2705 1.4996 18.2545 1.4996C28.2385 1.4996 36.3328 9.59213 36.3328 19.5761C36.3328 29.5601 28.2385 37.6526 18.2545 37.6526C8.2705 37.6526 0.177979 29.5601 0.177979 19.5761ZM11.3114 17.754C11.4912 17.6402 11.7065 17.6295 11.9307 17.738C12.4787 18.0014 12.8328 18.5654 12.8328 19.174V19.9444C12.2474 19.6615 11.6228 19.3608 11.025 19.0743V18.2718C11.025 18.0565 11.1299 17.8679 11.3114 17.754Z" fill="#F15525"/>
</svg>
