<svg width="172" height="48" viewBox="0 0 172 48" fill="none" xmlns="http://www.w3.org/2000/svg">
<path d="M35.9716 6.5459L29.469 9.70599C28.7184 10.0702 28.0877 10.6307 27.6481 11.3244C27.2085 12.0181 26.9775 12.8172 26.9812 13.6316V34.9082L33.4838 31.7481C34.2344 31.3839 34.8651 30.8234 35.3047 30.1297C35.7443 29.436 35.9753 28.6369 35.9716 27.8225" fill="#F15525"/>
<path d="M22.481 25.0942L15.9784 28.2543C15.2278 28.6185 14.5971 29.1791 14.1575 29.8727C13.7179 30.5664 13.4869 31.3656 13.4906 32.1799V41.4835L19.9932 38.2744C20.7438 37.9102 21.3745 37.3496 21.8141 36.6559C22.2537 35.9623 22.4847 35.1631 22.481 34.3488" fill="#F15525"/>
<path d="M42.7168 0H6.7453C4.95715 0.00259579 3.24301 0.693085 1.97861 1.92012C0.714197 3.14715 0.00267486 4.81062 0 6.5459L0 41.4541C0.00267486 43.1894 0.714197 44.8529 1.97861 46.0799C3.24301 47.3069 4.95715 47.9974 6.7453 48H42.7168C44.505 47.9974 46.2191 47.3069 47.4835 46.0799C48.7479 44.8529 49.4595 43.1894 49.4621 41.4541V6.5459C49.4595 4.81062 48.7479 3.14715 47.4835 1.92012C46.2191 0.693085 44.505 0.00259579 42.7168 0V0ZM42.7168 2.1787C43.9104 2.1787 45.055 2.63881 45.899 3.45782C46.7429 4.27683 47.2171 5.38765 47.2171 6.5459V41.4541C47.2171 42.6124 46.7429 43.7232 45.899 44.5422C45.055 45.3612 43.9104 45.8213 42.7168 45.8213H6.7453C5.55176 45.8213 4.40711 45.3612 3.56315 44.5422C2.71919 43.7232 2.24506 42.6124 2.24506 41.4541V6.5459C2.24506 5.38765 2.71919 4.27683 3.56315 3.45782C4.40711 2.63881 5.55176 2.1787 6.7453 2.1787H42.7168Z" fill="#F15525"/>
<path fill-rule="evenodd" clip-rule="evenodd" d="M115.342 43.998C114.785 44.0008 114.231 43.9104 113.703 43.7305C113.252 43.5931 112.833 43.3637 112.473 43.0565L112.998 41.8995C113.33 42.1687 113.707 42.3747 114.112 42.5075C114.536 42.6583 114.982 42.7358 115.431 42.7368C116.533 42.7368 117.084 42.3709 117.084 41.639C117.09 41.5323 117.072 41.4258 117.034 41.3264C116.995 41.227 116.936 41.137 116.861 41.0622C116.703 40.914 116.512 40.8068 116.304 40.7495C116.081 40.6835 115.765 40.6105 115.356 40.5272C114.889 40.4514 114.429 40.3352 113.981 40.1797C113.623 40.0436 113.309 39.8119 113.071 39.5092C112.798 39.125 112.664 38.6575 112.693 38.1854C112.681 37.8509 112.746 37.5182 112.882 37.2132C113.019 36.9082 113.223 36.6393 113.48 36.4274C114.082 35.9608 114.829 35.7267 115.586 35.7673C116.051 35.7693 116.514 35.8359 116.961 35.9653C117.37 36.0718 117.756 36.2519 118.102 36.4969L117.562 37.6539C116.983 37.2227 116.278 36.9979 115.559 37.0146C115.132 36.9853 114.707 37.091 114.342 37.3168C114.211 37.4056 114.104 37.5262 114.031 37.6677C113.957 37.8091 113.92 37.9668 113.923 38.1264C113.917 38.241 113.936 38.3556 113.976 38.4627C114.017 38.5698 114.08 38.6671 114.16 38.7483C114.322 38.9111 114.522 39.0305 114.741 39.0957C114.971 39.1687 115.297 39.2486 115.717 39.3389C116.176 39.4226 116.628 39.5387 117.071 39.6864C117.42 39.816 117.727 40.0409 117.957 40.3361C118.221 40.7057 118.35 41.1563 118.322 41.6112C118.333 41.9444 118.266 42.2755 118.126 42.5775C117.986 42.8795 117.778 43.1437 117.517 43.3483C116.881 43.8101 116.107 44.0381 115.325 43.9946L115.342 43.998ZM108.778 43.998C108.222 44.0011 107.669 43.9107 107.143 43.7305C106.691 43.5931 106.273 43.3637 105.912 43.0565L106.435 41.8995C106.767 42.1673 107.144 42.3732 107.548 42.5075C107.973 42.6583 108.42 42.7358 108.871 42.7368C109.971 42.7368 110.521 42.3709 110.521 41.639C110.526 41.5323 110.509 41.4256 110.471 41.3261C110.432 41.2266 110.373 41.1366 110.297 41.0622C110.14 40.9147 109.95 40.8075 109.744 40.7495C109.521 40.6835 109.204 40.6105 108.792 40.5272C108.325 40.4513 107.865 40.335 107.417 40.1797C107.059 40.0446 106.744 39.8126 106.507 39.5092C106.231 39.1262 106.096 38.6581 106.125 38.1854C106.114 37.851 106.18 37.5185 106.316 37.2137C106.453 36.9088 106.657 36.6398 106.912 36.4274C107.516 35.9608 108.264 35.7268 109.022 35.7673C109.487 35.7698 109.95 35.8364 110.397 35.9653C110.805 36.0718 111.19 36.2519 111.534 36.4969L110.998 37.6539C110.419 37.2227 109.714 36.9979 108.995 37.0146C108.568 36.9853 108.143 37.091 107.778 37.3168C107.646 37.4049 107.539 37.5254 107.465 37.667C107.392 37.8086 107.355 37.9666 107.359 38.1264C107.353 38.2408 107.37 38.3552 107.411 38.4624C107.451 38.5695 107.513 38.6669 107.593 38.7483C107.756 38.9109 107.957 39.0302 108.177 39.0957C108.407 39.1687 108.734 39.2486 109.153 39.3389C109.612 39.423 110.064 39.5391 110.507 39.6864C110.855 39.8161 111.161 40.041 111.39 40.3361C111.657 40.7045 111.787 41.1557 111.758 41.6112C111.769 41.9444 111.702 42.2755 111.562 42.5775C111.423 42.8795 111.214 43.1437 110.954 43.3483C110.316 43.8109 109.541 44.0389 108.758 43.9946L108.778 43.998ZM101.617 36.9972C101.334 36.9908 101.054 37.0445 100.793 37.1546C100.533 37.2647 100.298 37.4289 100.104 37.6365C99.6827 38.0949 99.4302 38.6864 99.3897 39.3111H103.857C103.811 38.6908 103.559 38.1043 103.142 37.6469C102.95 37.4364 102.716 37.2695 102.455 37.1575C102.195 37.0455 101.914 36.9908 101.63 36.9972H101.617ZM105.053 39.9191C105.053 40.0303 105.053 40.1797 105.029 40.3604H99.3897C99.44 41.012 99.7263 41.6218 100.194 42.0732C100.456 42.3048 100.762 42.4804 101.093 42.5896C101.424 42.6988 101.773 42.7394 102.12 42.7089C102.467 42.6784 102.804 42.5775 103.111 42.4121C103.419 42.2468 103.69 42.0205 103.909 41.7467L104.596 42.6882C104.291 43.1063 103.888 43.4417 103.424 43.6645C102.864 43.9133 102.253 44.0256 101.642 43.9924C101.031 43.9592 100.436 43.7814 99.9051 43.4734C99.3362 43.1212 98.8793 42.611 98.589 42.0038C98.2718 41.3402 98.1129 40.6108 98.125 39.874C98.113 39.1431 98.267 38.4193 98.5752 37.7581C98.8467 37.1617 99.2775 36.6539 99.8192 36.2919C100.35 35.9405 100.972 35.7578 101.606 35.7673C102.236 35.7567 102.855 35.9397 103.379 36.2919C103.913 36.6562 104.336 37.164 104.599 37.7581C104.901 38.437 105.05 39.175 105.036 39.9191H105.053ZM93.5269 35.7499C93.9207 35.7315 94.3137 35.8018 94.6774 35.9556C95.0411 36.1094 95.3665 36.343 95.6301 36.6393C96.1479 37.2346 96.4079 38.1044 96.4102 39.2486V43.9077H95.1387V39.4327C95.1838 38.8055 95.0126 38.1818 94.6541 37.6678C94.485 37.4692 94.2732 37.3125 94.035 37.2095C93.7967 37.1065 93.5383 37.06 93.2795 37.0736C92.9765 37.0597 92.6743 37.115 92.3952 37.2353C92.1162 37.3556 91.8676 37.5378 91.6677 37.7685C91.2414 38.3364 91.0327 39.0411 91.0801 39.7524V43.9216H89.8223V35.8437H91.0148V37.0597C91.2627 36.6487 91.62 36.3164 92.0458 36.1008C92.5014 35.8675 93.0059 35.7483 93.5166 35.7534L93.5269 35.7499ZM86.7982 34.2733C86.6824 34.2763 86.5675 34.2532 86.4617 34.2057C86.3559 34.1583 86.2619 34.0876 86.1865 33.9988C86.0252 33.8142 85.9392 33.5745 85.9459 33.3283C85.9398 33.08 86.0256 32.8385 86.1865 32.6508C86.2609 32.5604 86.3546 32.4881 86.4605 32.4394C86.5664 32.3906 86.6818 32.3667 86.7982 32.3694C86.9126 32.367 87.0263 32.3896 87.1313 32.4358C87.2362 32.482 87.3301 32.5506 87.4064 32.6369C87.5688 32.8181 87.6551 33.0561 87.647 33.3005C87.6554 33.5543 87.5695 33.8022 87.4064 33.9954C87.3323 34.0853 87.2392 34.1573 87.1339 34.206C87.0287 34.2547 86.9139 34.2789 86.7982 34.2768V34.2733ZM86.1693 35.8263H87.4236V43.9077H86.1693V35.8437V35.8263ZM81.5987 43.9807C81.0414 43.9837 80.4875 43.8933 79.9594 43.7131C79.5081 43.5757 79.0895 43.3463 78.7291 43.0391L79.2515 41.8821C79.5841 42.1499 79.9611 42.3558 80.3649 42.4902C80.7902 42.6409 81.2374 42.7184 81.688 42.7195C82.7877 42.7195 83.3376 42.3535 83.3376 41.6216C83.3431 41.5152 83.3263 41.4089 83.2884 41.3095C83.2505 41.2101 83.1923 41.1199 83.1176 41.0448C82.9588 40.898 82.7681 40.7909 82.5609 40.7321C82.3375 40.6661 82.0214 40.5932 81.609 40.5098C81.1418 40.4339 80.6819 40.3177 80.2344 40.1623C79.8759 40.0272 79.5609 39.7953 79.3237 39.4918C79.0509 39.1076 78.9174 38.6401 78.9456 38.1681C78.934 37.8339 78.9987 37.5015 79.1345 37.1966C79.2704 36.8918 79.4739 36.6226 79.7292 36.41C80.3326 35.9435 81.0806 35.7094 81.8392 35.7499C82.3042 35.7522 82.7667 35.8188 83.2138 35.948C83.6218 36.0537 84.0073 36.2338 84.3513 36.4795L83.8152 37.6365C83.2357 37.2053 82.5311 36.9805 81.8117 36.9972C81.385 36.968 80.9599 37.0736 80.5952 37.2995C80.4633 37.3876 80.3557 37.508 80.2823 37.6496C80.209 37.7912 80.1724 37.9492 80.1759 38.109C80.1706 38.2233 80.1886 38.3375 80.2288 38.4445C80.269 38.5515 80.3305 38.649 80.4096 38.7309C80.5737 38.8927 80.7742 39.0119 80.9938 39.0784C81.2241 39.1513 81.5505 39.2312 81.9698 39.3215C82.4285 39.4057 82.8809 39.5218 83.3238 39.669C83.6726 39.7994 83.9793 40.0241 84.2104 40.3187C84.4741 40.6883 84.6028 41.139 84.5747 41.5938C84.586 41.927 84.5191 42.2582 84.3793 42.5601C84.2395 42.8621 84.0309 43.1263 83.7706 43.331C83.134 43.7928 82.3604 44.0208 81.578 43.9772L81.5987 43.9807ZM77.2102 35.8263V43.9077H76.0177V42.6882C75.7748 43.0952 75.4282 43.4288 75.0142 43.6541C74.4429 43.9528 73.7926 44.0609 73.1567 43.9629C72.5208 43.8649 71.932 43.5659 71.4746 43.1086C70.9408 42.5133 70.6739 41.6378 70.6739 40.482V35.8437H71.9317V40.3291C71.8872 40.9585 72.0583 41.5841 72.4162 42.101C72.5839 42.3016 72.7953 42.4603 73.0338 42.5646C73.2723 42.6689 73.5314 42.7159 73.7908 42.7021C74.0878 42.7158 74.3839 42.6602 74.6562 42.5398C74.9285 42.4193 75.1698 42.2371 75.3613 42.0072C75.7785 41.4378 75.9831 40.7375 75.9387 40.0303V35.8611L77.2102 35.8263ZM65.33 42.6569C65.9198 42.6989 66.5074 42.5491 67.0071 42.2296C67.2014 42.0696 67.3542 41.8643 67.4524 41.6312C67.5506 41.3982 67.5912 41.1444 67.5707 40.892C67.5707 39.7037 66.8249 39.1131 65.33 39.1131H62.3196V42.6569H65.33ZM62.3196 34.4713V37.8971H65.0036C65.5538 37.9324 66.0998 37.7795 66.5535 37.4628C66.7257 37.3002 66.863 37.1036 66.9569 36.8852C67.0508 36.6667 67.0992 36.4311 67.0992 36.1929C67.0992 35.9547 67.0508 35.719 66.9569 35.5006C66.863 35.2821 66.7257 35.0855 66.5535 34.923C66.1005 34.6048 65.554 34.4517 65.0036 34.4887L62.3196 34.4713ZM67.1755 38.3661C67.6878 38.5237 68.1315 38.8534 68.4332 39.3007C68.7558 39.8109 68.9165 40.4085 68.8937 41.0135C68.9172 41.4145 68.8484 41.8154 68.6928 42.185C68.5371 42.5545 68.2989 42.8825 67.9968 43.1433C67.3988 43.6413 66.5271 43.8903 65.3816 43.8903H61V33.2553H65.1239C66.1731 33.2553 66.983 33.4985 67.5535 33.9849C67.8402 34.2338 68.0667 34.5458 68.2156 34.8969C68.3645 35.248 68.4319 35.629 68.4126 36.0105C68.4226 36.5141 68.3043 37.0118 68.069 37.4558C67.8649 37.8461 67.5533 38.1683 67.172 38.3835L67.1755 38.3661ZM153.161 4.23053V16.4394C152.9 16.0086 146.343 4.2479 146.343 4.2479H140.501V25.9001H146.343V13.6877C146.419 13.8093 152.917 25.4658 153.158 25.8966H159V4.2479L153.161 4.23053ZM95.2555 7.28797V4.25832H89.6058V17.9612C89.635 18.45 89.5683 18.9398 89.4097 19.4025C89.251 19.8652 89.0035 20.2916 88.6814 20.6573C88.0012 21.3201 87.0933 21.6904 86.1486 21.6904C85.204 21.6904 84.2961 21.3201 83.6159 20.6573C82.9709 19.9225 82.6398 18.9594 82.6949 17.9786V4.25832H77.0452V17.2872C77.0693 18.5016 77.2531 19.7073 77.5916 20.8727C77.8423 21.7498 78.2641 22.5673 78.8322 23.277C79.3764 24.0058 80.0557 24.6207 80.8323 25.0871C81.6847 25.5501 82.6188 25.8393 83.5815 25.9383C84.5965 26.0773 85.6193 26.1504 86.6435 26.1572C88.0495 26.195 89.4495 25.9591 90.7674 25.4623C91.6633 25.066 92.4605 24.4725 93.1008 23.7252C93.8469 22.8942 94.4051 21.909 94.7366 20.838C95.0898 19.6967 95.2672 18.5073 95.2624 17.3115V7.28797H95.2555ZM132.741 25.8966H138.583L129.817 4.2479H123.958L115.191 25.8966H121.033L122.226 22.9469H131.566L132.759 25.8966H132.741ZM123.806 19.0105L126.875 11.4329L129.941 19.0105H123.806ZM115.071 17.2107C115.387 18.3655 115.479 19.5713 115.342 20.7615C115.274 21.6368 114.982 22.4792 114.495 23.2059C114.007 23.9326 113.341 24.5186 112.562 24.9064C111.139 25.6882 109.579 25.9696 107.981 26.0912C106.951 26.1635 105.918 26.1635 104.888 26.0912C103.29 25.9696 101.73 25.6882 100.307 24.9064C99.5281 24.5186 98.8621 23.9326 98.3746 23.2059C97.8872 22.4792 97.5951 21.6368 97.5271 20.7615C97.4816 20.2092 97.4655 19.6548 97.4789 19.1008H102.878C102.878 19.3023 102.878 19.3301 102.878 19.5212C102.895 20.6816 103.338 21.2966 104.483 21.5711C105.772 21.8716 107.111 21.8716 108.4 21.5711C109.579 21.2896 110.015 20.5878 110.036 19.5177C110.031 19.3375 110.008 19.1582 109.967 18.9827C109.902 18.7586 109.787 18.5523 109.632 18.3791C109.476 18.2059 109.285 18.0702 109.07 17.982C108.407 17.6346 107.263 17.4887 106.534 17.3393C105.136 17.0544 103.733 16.8007 102.345 16.4776C101.351 16.2573 100.41 15.8405 99.5752 15.2512C99.4538 15.1655 99.3393 15.0752 99.2316 14.9802C98.5485 14.3943 98.0502 13.6188 97.7985 12.7497C97.5705 11.9911 97.4638 11.2006 97.4824 10.4079C97.477 10.0599 97.492 9.71188 97.5271 9.36563C97.5967 8.49477 97.888 7.65694 98.3728 6.93365C98.8576 6.21036 99.5192 5.62623 100.293 5.23809C101.716 4.45636 103.276 4.17494 104.874 4.05681C105.904 3.98106 106.938 3.98106 107.967 4.05681C109.565 4.17494 111.125 4.45636 112.548 5.23809C113.327 5.62589 113.993 6.21191 114.481 6.93861C114.968 7.6653 115.26 8.50768 115.328 9.383C115.374 9.93531 115.39 10.4897 115.376 11.0438H109.995V10.6233C109.978 9.46291 109.531 8.84794 108.39 8.57347C107.101 8.27469 105.761 8.27469 104.472 8.57347C103.627 8.77846 103.163 9.1676 102.971 9.82773C102.878 10.2065 102.878 10.6025 102.971 10.9812C103.036 11.2053 103.151 11.4115 103.306 11.5847C103.462 11.7579 103.653 11.8936 103.867 11.9818C104.531 12.3292 105.606 12.4752 106.335 12.6246C107.734 12.9095 109.136 13.1631 110.524 13.4862C111.518 13.7078 112.46 14.1258 113.294 14.7162C113.411 14.803 113.524 14.8933 113.638 14.9837C114.32 15.5705 114.818 16.3456 115.071 17.2142V17.2107ZM70.3955 6.39506C69.9104 6.6402 69.5023 7.01704 69.217 7.48341C68.9318 7.94977 68.7805 8.48723 68.7803 9.03556V17.6346C68.7803 18.0153 68.7597 18.3958 68.7185 18.7742C68.5707 20.0562 67.8456 20.8935 66.5809 20.9769H61V25.841H64.5878C65.7631 25.841 66.9383 25.841 68.1136 25.841C68.9112 25.8313 69.704 25.7145 70.4711 25.4936C72.1104 25.0211 73.3681 24.083 74.0589 22.464C74.4673 21.4274 74.6603 20.3168 74.6259 19.2015V18.7603C74.6259 18.7394 74.6259 18.7151 74.6259 18.6943V4.25832L70.3955 6.39506Z" fill="#F15525"/>
</svg>
