<svg xmlns="http://www.w3.org/2000/svg" width="132" height="40" viewBox="0 0 132 40" fill="none">
  <path d="M57.3114 39.7239L57.2976 32.461L53.7846 38.5133H53.1461L49.633 32.5037V39.724H48.3V29.7554H49.4386L53.493 36.7619L57.4919 29.7554H58.6305L58.6443 39.724H57.3114V39.7239ZM67.4285 37.2317H62.2634L61.1945 39.7239H59.7641L64.1657 29.7553H65.5403L69.9557 39.7239H68.4978L67.4287 37.2317H67.4285ZM66.9425 36.0924L64.846 31.208L62.7494 36.0924H66.9426H66.9425ZM77.4344 30.9941H72.436L72.4498 39.7239H71.0752V29.7553H77.4485L77.4344 30.9941ZM83.0115 37.2317H77.8463L76.7772 39.7239H75.347L79.7485 29.7553H81.1232L85.5384 39.7239H84.0806L83.0116 37.2317H83.0115ZM82.5252 36.0924L80.429 31.208L78.3323 36.0924H82.5254H82.5252ZM91.3097 34.526C91.9204 34.6966 92.397 34.9935 92.7396 35.4159C93.0822 35.8386 93.2532 36.3441 93.2532 36.9327C93.2532 37.5213 93.0705 38.0363 92.7049 38.4777C92.3392 38.9194 91.8533 39.2565 91.2471 39.4889C90.6408 39.7216 89.9812 39.8379 89.2684 39.8379C88.6203 39.8379 87.9771 39.7381 87.3383 39.5386C86.6998 39.3393 86.1165 39.0402 85.5889 38.6413L86.0749 37.5876C86.5006 37.9293 86.9775 38.1857 87.5051 38.3565C88.0325 38.5276 88.565 38.613 89.1017 38.613C89.8793 38.613 90.5317 38.4444 91.0595 38.1075C91.5872 37.7705 91.8509 37.3074 91.8509 36.7189C91.8509 36.2157 91.6518 35.8287 91.2537 35.5582C90.8558 35.2876 90.2957 35.1524 89.5737 35.1524H87.4077V33.9987H89.4766C90.0967 33.9987 90.5805 33.8682 90.9274 33.6072C91.2746 33.3463 91.448 32.983 91.448 32.5178C91.448 31.9957 91.2212 31.5827 90.7677 31.2788C90.3141 30.975 89.7401 30.8231 89.046 30.8231C88.5924 30.8231 88.132 30.8895 87.6646 31.0227C87.197 31.1557 86.755 31.3549 86.3384 31.6208L85.8942 30.4529C86.3849 30.1682 86.9032 29.9545 87.4493 29.8121C87.9955 29.6697 88.5414 29.5986 89.0876 29.5986C89.7726 29.5986 90.4022 29.7077 90.976 29.9261C91.5499 30.1445 92.0059 30.4625 92.3437 30.8801C92.6815 31.2979 92.8505 31.7869 92.8505 32.3469C92.8505 32.8503 92.7139 33.2917 92.4408 33.6713C92.1677 34.0511 91.7905 34.336 91.3091 34.5258L91.3097 34.526ZM95.0119 29.7553H96.3865V37.4453L102.135 29.7553H103.412V39.7239H102.051V32.0481L96.2894 39.7239H95.0119V29.7553ZM114.237 29.7553V39.7239H112.849V35.2807H107.267V39.7239H105.879V29.7553H107.267V34.0419H112.849V29.7553H114.237Z" fill="#F1511B"/>
  <path fill-rule="evenodd" clip-rule="evenodd" d="M59.8918 0.191406L59.8785 12.9531C59.8785 16.8134 58.1806 18.9367 54.4464 18.9367L48.228 18.9538V14.52H52.7596C54.2732 14.52 54.9211 14.0125 54.9211 12.2175V4.38533C54.9546 3.18575 55.6739 2.324 56.8841 1.73205L59.8918 0.191406Z" fill="#F1511B"/>
  <path fill-rule="evenodd" clip-rule="evenodd" d="M61.9572 0.184248H66.731V11.4299C66.731 13.4593 67.1851 15.2713 69.7345 15.2713C71.9351 15.2713 72.5977 13.5966 72.5977 11.3785V0.182373H77.3467V11.7208C77.3467 16.7362 74.4149 19.0648 69.6354 19.0648C64.8958 19.0648 61.8914 17.189 61.8914 11.7551L61.9572 0.183981V0.184248Z" fill="#F1511B"/>
  <path fill-rule="evenodd" clip-rule="evenodd" d="M94.4168 6.12242C94.4168 0.698095 91.2036 0.177271 86.5719 0.177002C82.4307 0.177002 79.2765 0.819729 79.2014 5.71104C79.1616 8.29588 80.3924 10.2475 83.0332 10.7446L88.7 11.9363C89.6213 12.1279 89.9112 12.672 89.8391 13.6629C89.7751 14.5464 89.2557 15.1329 88.3923 15.1588L87.026 15.1996C85.3161 15.2506 83.6895 15.33 83.9515 12.8503L79.3109 12.799C79.1864 18.6776 82.5707 19.0988 87.1829 19.0988C89.6599 19.0988 91.4129 18.8178 93.0963 17.2345C94.183 16.2121 94.4933 14.8257 94.4741 13.3628C94.4141 8.82394 91.5433 8.62809 88.3744 7.80011L85.2815 6.99207C84.3197 6.74091 83.8118 6.54961 83.8266 5.51279C83.8525 3.74146 85.4312 3.64421 86.7828 3.67074C88.8488 3.71239 89.828 3.97911 89.8602 6.1054L94.4171 6.12269L94.4168 6.12242Z" fill="#F1511B"/>
  <path fill-rule="evenodd" clip-rule="evenodd" d="M94.1042 18.9603L101.741 0.196402L106.548 0.162109L114.237 18.9608L109.174 18.9747L108.05 16.1856L100.172 16.1515L99.1589 18.9681L94.1042 18.9601V18.9603ZM104.111 6.53057L101.574 12.7277L106.581 12.6935L104.111 6.53057H104.111Z" fill="#F1511B"/>
  <path fill-rule="evenodd" clip-rule="evenodd" d="M115.661 0.178758V18.9801L120.802 18.9759V8.55014L126.376 18.9779L131.451 18.9696V0.182777L126.282 0.18425L126.276 10.4309L120.795 0.178223L115.661 0.178758Z" fill="#F1511B"/>
  <path fill-rule="evenodd" clip-rule="evenodd" d="M0 34.3918V5.37155V4.79727C0.286162 1.95939 3.0049 0 6.43924 0H32.7689C36.7758 0 39.0653 2.36488 39.0653 6.62163V33.7837C39.0653 37.3648 36.6326 40 33.4844 40H5.43761C2.57572 40 0.286162 37.8039 0 34.9662V34.3918ZM15.8581 31.7246C17.0413 31.1186 17.7877 29.8793 17.7877 28.5249V20.8956L12.7387 23.4837C11.5546 24.0895 10.809 25.3304 10.809 26.6852V34.3147L15.8581 31.7246ZM26.3266 26.3581C27.5083 25.7497 28.256 24.5112 28.256 23.1558V5.68512L23.2051 8.27372C22.0232 8.88121 21.2773 10.1206 21.2773 11.475V28.9462L26.3266 26.3581Z" fill="#F1511B"/>
</svg>
