<svg width="50" height="48" viewBox="0 0 50 48" fill="none" xmlns="http://www.w3.org/2000/svg">
<path d="M35.9716 6.5459L29.469 9.70599C28.7184 10.0702 28.0877 10.6307 27.6481 11.3244C27.2085 12.0181 26.9775 12.8172 26.9812 13.6316V34.9082L33.4838 31.7481C34.2344 31.3839 34.8651 30.8234 35.3047 30.1297C35.7443 29.436 35.9753 28.6369 35.9716 27.8225" fill="#F15525"/>
<path d="M22.481 25.0942L15.9784 28.2543C15.2278 28.6185 14.5971 29.1791 14.1575 29.8727C13.7179 30.5664 13.4869 31.3656 13.4906 32.1799V41.4835L19.9932 38.2744C20.7438 37.9102 21.3745 37.3496 21.8141 36.6559C22.2537 35.9623 22.4847 35.1631 22.481 34.3488" fill="#F15525"/>
<path d="M42.7168 0H6.7453C4.95715 0.00259579 3.24301 0.693085 1.97861 1.92012C0.714197 3.14715 0.00267486 4.81062 0 6.5459L0 41.4541C0.00267486 43.1894 0.714197 44.8529 1.97861 46.0799C3.24301 47.3069 4.95715 47.9974 6.7453 48H42.7168C44.505 47.9974 46.2191 47.3069 47.4835 46.0799C48.7479 44.8529 49.4595 43.1894 49.4621 41.4541V6.5459C49.4595 4.81062 48.7479 3.14715 47.4835 1.92012C46.2191 0.693085 44.505 0.00259579 42.7168 0V0ZM42.7168 2.1787C43.9104 2.1787 45.055 2.63881 45.899 3.45782C46.7429 4.27683 47.2171 5.38765 47.2171 6.5459V41.4541C47.2171 42.6124 46.7429 43.7232 45.899 44.5422C45.055 45.3612 43.9104 45.8213 42.7168 45.8213H6.7453C5.55176 45.8213 4.40711 45.3612 3.56315 44.5422C2.71919 43.7232 2.24506 42.6124 2.24506 41.4541V6.5459C2.24506 5.38765 2.71919 4.27683 3.56315 3.45782C4.40711 2.63881 5.55176 2.1787 6.7453 2.1787H42.7168Z" fill="#F15525"/>
</svg>
