<svg width="336" height="165" viewBox="0 0 336 165" fill="none" xmlns="http://www.w3.org/2000/svg">
<path d="M305.891 164.924H287.363C286.79 164.924 286.24 164.691 285.834 164.277C285.429 163.863 285.201 163.301 285.201 162.715C285.201 162.13 285.429 161.568 285.834 161.154C286.24 160.739 286.79 160.507 287.363 160.507H305.891C306.688 160.507 307.491 160.469 308.282 160.4C308.565 160.373 308.852 160.403 309.124 160.489C309.396 160.575 309.649 160.715 309.869 160.901C310.088 161.087 310.27 161.316 310.403 161.573C310.536 161.831 310.618 162.113 310.644 162.403C310.67 162.693 310.64 162.985 310.556 163.264C310.472 163.542 310.335 163.801 310.153 164.025C309.971 164.249 309.747 164.434 309.495 164.57C309.243 164.706 308.967 164.79 308.683 164.816C307.763 164.88 306.824 164.924 305.891 164.924ZM275.011 164.924H256.482C255.909 164.924 255.359 164.691 254.954 164.277C254.548 163.863 254.321 163.301 254.321 162.715C254.321 162.13 254.548 161.568 254.954 161.154C255.359 160.739 255.909 160.507 256.482 160.507H275.011C275.584 160.507 276.134 160.739 276.539 161.154C276.945 161.568 277.172 162.13 277.172 162.715C277.172 163.301 276.945 163.863 276.539 164.277C276.134 164.691 275.584 164.924 275.011 164.924ZM244.13 164.924H225.602C225.028 164.924 224.479 164.691 224.073 164.277C223.668 163.863 223.44 163.301 223.44 162.715C223.44 162.13 223.668 161.568 224.073 161.154C224.479 160.739 225.028 160.507 225.602 160.507H244.13C244.703 160.507 245.253 160.739 245.659 161.154C246.064 161.568 246.292 162.13 246.292 162.715C246.292 163.301 246.064 163.863 245.659 164.277C245.253 164.691 244.703 164.924 244.13 164.924ZM213.249 164.924H194.721C194.148 164.924 193.598 164.691 193.193 164.277C192.787 163.863 192.559 163.301 192.559 162.715C192.559 162.13 192.787 161.568 193.193 161.154C193.598 160.739 194.148 160.507 194.721 160.507H213.249C213.823 160.507 214.373 160.739 214.778 161.154C215.183 161.568 215.411 162.13 215.411 162.715C215.411 163.301 215.183 163.863 214.778 164.277C214.373 164.691 213.823 164.924 213.249 164.924ZM182.369 164.924H163.84C163.267 164.924 162.717 164.691 162.312 164.277C161.906 163.863 161.679 163.301 161.679 162.715C161.679 162.13 161.906 161.568 162.312 161.154C162.717 160.739 163.267 160.507 163.84 160.507H182.369C182.942 160.507 183.492 160.739 183.897 161.154C184.303 161.568 184.53 162.13 184.53 162.715C184.53 163.301 184.303 163.863 183.897 164.277C183.492 164.691 182.942 164.924 182.369 164.924ZM151.488 164.924H132.96C132.386 164.924 131.837 164.691 131.431 164.277C131.026 163.863 130.798 163.301 130.798 162.715C130.798 162.13 131.026 161.568 131.431 161.154C131.837 160.739 132.386 160.507 132.96 160.507H151.488C152.061 160.507 152.611 160.739 153.017 161.154C153.422 161.568 153.65 162.13 153.65 162.715C153.65 163.301 153.422 163.863 153.017 164.277C152.611 164.691 152.061 164.924 151.488 164.924ZM120.607 164.924H102.079C101.506 164.924 100.956 164.691 100.551 164.277C100.145 163.863 99.9175 163.301 99.9175 162.715C99.9175 162.13 100.145 161.568 100.551 161.154C100.956 160.739 101.506 160.507 102.079 160.507H120.607C121.181 160.507 121.731 160.739 122.136 161.154C122.541 161.568 122.769 162.13 122.769 162.715C122.769 163.301 122.541 163.863 122.136 164.277C121.731 164.691 121.181 164.924 120.607 164.924ZM89.7268 164.924H71.1985C70.6251 164.924 70.0753 164.691 69.6699 164.277C69.2646 163.863 69.0368 163.301 69.0368 162.715C69.0368 162.13 69.2646 161.568 69.6699 161.154C70.0753 160.739 70.6251 160.507 71.1985 160.507H89.7268C90.3001 160.507 90.85 160.739 91.2553 161.154C91.6607 161.568 91.8885 162.13 91.8885 162.715C91.8885 163.301 91.6607 163.863 91.2553 164.277C90.85 164.691 90.3001 164.924 89.7268 164.924ZM58.8462 164.924H40.3178C39.7445 164.924 39.1947 164.691 38.7893 164.277C38.3839 163.863 38.1562 163.301 38.1562 162.715C38.1562 162.13 38.3839 161.568 38.7893 161.154C39.1947 160.739 39.7445 160.507 40.3178 160.507H58.8462C59.4195 160.507 59.9693 160.739 60.3747 161.154C60.7801 161.568 61.0078 162.13 61.0078 162.715C61.0078 163.301 60.7801 163.863 60.3747 164.277C59.9693 164.691 59.4195 164.924 58.8462 164.924ZM27.9655 164.842H27.7988C21.1049 164.296 14.7805 161.485 9.82625 156.853C9.40282 156.458 9.15063 155.906 9.12515 155.32C9.09966 154.735 9.30298 154.162 9.69037 153.73C10.0778 153.297 10.6175 153.04 11.1908 153.014C11.7642 152.988 12.3241 153.195 12.7476 153.591C16.9841 157.555 22.3937 159.962 28.1199 160.431C28.4038 160.442 28.6828 160.51 28.9411 160.631C29.1993 160.752 29.4317 160.923 29.6249 161.136C29.8182 161.349 29.9686 161.598 30.0675 161.87C30.1664 162.142 30.2118 162.432 30.2013 162.722C30.1908 163.012 30.1244 163.297 30.006 163.56C29.8877 163.824 29.7196 164.062 29.5114 164.259C29.3032 164.457 29.059 164.61 28.7927 164.711C28.5264 164.812 28.2432 164.859 27.9594 164.848L27.9655 164.842ZM320.096 160.917C319.625 160.915 319.166 160.756 318.791 160.463C318.416 160.17 318.146 159.76 318.02 159.295C317.895 158.83 317.922 158.336 318.097 157.888C318.273 157.441 318.586 157.064 318.991 156.815C323.926 153.799 327.749 149.203 329.867 143.741C329.963 143.461 330.114 143.204 330.31 142.984C330.506 142.765 330.743 142.589 331.007 142.465C331.271 142.342 331.557 142.274 331.848 142.266C332.138 142.258 332.427 142.309 332.698 142.418C332.968 142.527 333.214 142.69 333.421 142.898C333.629 143.106 333.793 143.355 333.904 143.629C334.015 143.903 334.071 144.198 334.068 144.494C334.065 144.791 334.004 145.084 333.888 145.357C331.432 151.738 326.981 157.111 321.227 160.639C320.889 160.831 320.507 160.926 320.121 160.917H320.096ZM4.25538 147.199C3.82669 147.199 3.40778 147.068 3.0516 146.824C2.69543 146.581 2.41797 146.235 2.25431 145.83C0.760984 142.136 -0.00504788 138.178 2.50316e-05 134.182V126.345C2.50316e-05 125.759 0.22777 125.197 0.633157 124.783C1.03854 124.369 1.58837 124.136 2.16167 124.136C2.73497 124.136 3.2848 124.369 3.69019 124.783C4.09557 125.197 4.32332 125.759 4.32332 126.345V134.182C4.31841 137.6 4.97321 140.986 6.25027 144.145C6.38471 144.48 6.43651 144.845 6.40112 145.205C6.36573 145.566 6.24423 145.912 6.04728 146.214C5.85033 146.515 5.58395 146.763 5.27152 146.935C4.9591 147.106 4.61018 147.197 4.25538 147.199ZM333.838 134.384C333.265 134.384 332.715 134.151 332.31 133.737C331.904 133.322 331.677 132.761 331.677 132.175V113.245C331.677 112.659 331.904 112.098 332.31 111.683C332.715 111.269 333.265 111.037 333.838 111.037C334.412 111.037 334.961 111.269 335.367 111.683C335.772 112.098 336 112.659 336 113.245V132.175C336 132.761 335.772 133.322 335.367 133.737C334.961 134.151 334.412 134.384 333.838 134.384ZM2.1802 115.933C1.6069 115.933 1.05707 115.7 0.651685 115.286C0.246298 114.872 0.0185538 114.31 0.0185538 113.725V94.7948C0.0185538 94.209 0.246298 93.6473 0.651685 93.2331C1.05707 92.819 1.6069 92.5863 2.1802 92.5863C2.7535 92.5863 3.30333 92.819 3.70871 93.2331C4.1141 93.6473 4.34184 94.209 4.34184 94.7948V113.725C4.34184 114.31 4.1141 114.872 3.70871 115.286C3.30333 115.7 2.7535 115.933 2.1802 115.933ZM333.838 102.834C333.265 102.834 332.715 102.601 332.31 102.187C331.904 101.773 331.677 101.211 331.677 100.625V81.6953C331.677 81.1096 331.904 80.5478 332.31 80.1336C332.715 79.7195 333.265 79.4868 333.838 79.4868C334.412 79.4868 334.961 79.7195 335.367 80.1336C335.772 80.5478 336 81.1096 336 81.6953V100.625C336 101.211 335.772 101.773 335.367 102.187C334.961 102.601 334.412 102.834 333.838 102.834ZM2.1802 84.3833C1.6069 84.3833 1.05707 84.1507 0.651685 83.7365C0.246298 83.3223 0.0185538 82.7606 0.0185538 82.1748V63.2449C0.0185538 62.6592 0.246298 62.0975 0.651685 61.6833C1.05707 61.2691 1.6069 61.0364 2.1802 61.0364C2.7535 61.0364 3.30333 61.2691 3.70871 61.6833C4.1141 62.0975 4.34184 62.6592 4.34184 63.2449V82.1748C4.34184 82.7606 4.1141 83.3223 3.70871 83.7365C3.30333 84.1507 2.7535 84.3833 2.1802 84.3833ZM333.838 71.2838C333.265 71.2838 332.715 71.0511 332.31 70.637C331.904 70.2228 331.677 69.6611 331.677 69.0753V50.1454C331.677 49.5597 331.904 48.998 332.31 48.5838C332.715 48.1696 333.265 47.9369 333.838 47.9369C334.412 47.9369 334.961 48.1696 335.367 48.5838C335.772 48.998 336 49.5597 336 50.1454V69.0753C336 69.6611 335.772 70.2228 335.367 70.637C334.961 71.0511 334.412 71.2838 333.838 71.2838ZM2.1802 52.8335C1.6069 52.8335 1.05707 52.6008 0.651685 52.1866C0.246298 51.7725 0.0185538 51.2107 0.0185538 50.625V31.6951C0.0185538 31.1094 0.246298 30.5476 0.651685 30.1335C1.05707 29.7193 1.6069 29.4866 2.1802 29.4866C2.7535 29.4866 3.30333 29.7193 3.70871 30.1335C4.1141 30.5476 4.34184 31.1094 4.34184 31.6951V50.625C4.34184 51.2107 4.1141 51.7725 3.70871 52.1866C3.30333 52.6008 2.7535 52.8335 2.1802 52.8335ZM333.838 39.734C333.265 39.734 332.715 39.5013 332.31 39.0871C331.904 38.673 331.677 38.1112 331.677 37.5255V31.0073C331.679 27.176 330.85 23.3919 329.25 19.927C329.004 19.3965 328.974 18.788 329.168 18.2354C329.361 17.6828 329.762 17.2313 330.281 16.9802C330.8 16.7292 331.396 16.6992 331.937 16.8968C332.478 17.0945 332.919 17.5035 333.165 18.034C335.028 22.0868 335.99 26.5108 335.981 30.9884V37.5255C335.981 38.108 335.756 38.6668 335.355 39.0805C334.954 39.4941 334.408 39.729 333.838 39.734ZM4.58271 21.6307C4.27843 21.6331 3.9772 21.5686 3.69953 21.4414C3.44026 21.3226 3.20645 21.1528 3.01147 20.9417C2.81649 20.7306 2.66416 20.4822 2.56321 20.2109C2.46225 19.9395 2.41464 19.6505 2.4231 19.3604C2.43157 19.0702 2.49594 18.7846 2.61253 18.5199C5.36668 12.2707 10.0625 7.12486 15.9715 3.88075C16.4776 3.60462 17.0704 3.54522 17.6194 3.71563C17.8913 3.8 18.1442 3.93825 18.3637 4.12249C18.5833 4.30672 18.7652 4.53334 18.899 4.78938C19.0328 5.04543 19.116 5.3259 19.1437 5.61479C19.1714 5.90367 19.1432 6.1953 19.0606 6.47303C18.978 6.75076 18.8427 7.00916 18.6624 7.23346C18.482 7.45776 18.2602 7.64358 18.0096 7.78031C12.9447 10.5611 8.91805 14.97 6.5529 20.3245C6.38329 20.7136 6.10691 21.044 5.75722 21.2758C5.40754 21.5077 4.99957 21.6309 4.58271 21.6307ZM323.716 11.295C323.211 11.2935 322.721 11.1128 322.332 10.7839C317.934 7.00113 312.41 4.85447 306.663 4.69474C306.091 4.6766 305.549 4.42722 305.157 4.00135C304.764 3.57547 304.553 3.00788 304.57 2.42315C304.592 1.83956 304.838 1.2882 305.253 0.887184C305.669 0.48617 306.222 0.267405 306.793 0.277757C313.502 0.497769 319.947 3.0006 325.105 7.38909C325.447 7.67955 325.692 8.0705 325.809 8.5087C325.925 8.9469 325.906 9.41105 325.755 9.83797C325.604 10.2649 325.327 10.6338 324.964 10.8945C324.6 11.1552 324.166 11.2951 323.722 11.295H323.716ZM28.7931 4.71366C28.5093 4.72029 28.2269 4.66973 27.9622 4.56487C27.6974 4.46001 27.4555 4.3029 27.2502 4.10251C27.0448 3.90212 26.8802 3.66237 26.7655 3.39697C26.6509 3.13156 26.5886 2.84568 26.5821 2.55565C26.5756 2.26563 26.6251 1.97714 26.7277 1.70666C26.8304 1.43618 26.9841 1.189 27.1803 0.979233C27.3764 0.769468 27.6111 0.601227 27.8709 0.484116C28.1306 0.367004 28.4105 0.303315 28.6943 0.296686C29.1575 0.296686 29.6269 0.265137 30.0963 0.265137H47.3277C47.901 0.265137 48.4508 0.497816 48.8562 0.911988C49.2616 1.32616 49.4894 1.8879 49.4894 2.47363C49.4894 3.05935 49.2616 3.62109 48.8562 4.03526C48.4508 4.44944 47.901 4.68211 47.3277 4.68211H30.0963C29.6949 4.68211 29.2934 4.68211 28.8981 4.68211L28.7931 4.71366ZM294.367 4.68211H275.838C275.265 4.68211 274.715 4.44944 274.31 4.03526C273.904 3.62109 273.677 3.05935 273.677 2.47363C273.677 1.8879 273.904 1.32616 274.31 0.911988C274.715 0.497816 275.265 0.265137 275.838 0.265137H294.367C294.94 0.265137 295.49 0.497816 295.895 0.911988C296.301 1.32616 296.528 1.8879 296.528 2.47363C296.528 3.05935 296.301 3.62109 295.895 4.03526C295.49 4.44944 294.94 4.68211 294.367 4.68211ZM263.486 4.68211H244.958C244.384 4.68211 243.835 4.44944 243.429 4.03526C243.024 3.62109 242.796 3.05935 242.796 2.47363C242.796 1.8879 243.024 1.32616 243.429 0.911988C243.835 0.497816 244.384 0.265137 244.958 0.265137H263.486C264.059 0.265137 264.609 0.497816 265.015 0.911988C265.42 1.32616 265.648 1.8879 265.648 2.47363C265.648 3.05935 265.42 3.62109 265.015 4.03526C264.609 4.44944 264.059 4.68211 263.486 4.68211ZM232.605 4.68211H214.077C213.504 4.68211 212.954 4.44944 212.549 4.03526C212.143 3.62109 211.915 3.05935 211.915 2.47363C211.915 1.8879 212.143 1.32616 212.549 0.911988C212.954 0.497816 213.504 0.265137 214.077 0.265137H232.605C233.179 0.265137 233.729 0.497816 234.134 0.911988C234.539 1.32616 234.767 1.8879 234.767 2.47363C234.767 3.05935 234.539 3.62109 234.134 4.03526C233.729 4.44944 233.179 4.68211 232.605 4.68211ZM201.725 4.68211H183.196C182.623 4.68211 182.073 4.44944 181.668 4.03526C181.262 3.62109 181.035 3.05935 181.035 2.47363C181.035 1.8879 181.262 1.32616 181.668 0.911988C182.073 0.497816 182.623 0.265137 183.196 0.265137H201.725C202.298 0.265137 202.848 0.497816 203.253 0.911988C203.659 1.32616 203.886 1.8879 203.886 2.47363C203.886 3.05935 203.659 3.62109 203.253 4.03526C202.848 4.44944 202.298 4.68211 201.725 4.68211ZM170.844 4.68211H152.316C151.742 4.68211 151.193 4.44944 150.787 4.03526C150.382 3.62109 150.154 3.05935 150.154 2.47363C150.154 1.8879 150.382 1.32616 150.787 0.911988C151.193 0.497816 151.742 0.265137 152.316 0.265137H170.844C171.417 0.265137 171.967 0.497816 172.373 0.911988C172.778 1.32616 173.006 1.8879 173.006 2.47363C173.006 3.05935 172.778 3.62109 172.373 4.03526C171.967 4.44944 171.417 4.68211 170.844 4.68211ZM139.963 4.68211H121.435C120.862 4.68211 120.312 4.44944 119.907 4.03526C119.501 3.62109 119.273 3.05935 119.273 2.47363C119.273 1.8879 119.501 1.32616 119.907 0.911988C120.312 0.497816 120.862 0.265137 121.435 0.265137H139.963C140.537 0.265137 141.087 0.497816 141.492 0.911988C141.897 1.32616 142.125 1.8879 142.125 2.47363C142.125 3.05935 141.897 3.62109 141.492 4.03526C141.087 4.44944 140.537 4.68211 139.963 4.68211ZM109.083 4.68211H90.5544C89.9811 4.68211 89.4313 4.44944 89.0259 4.03526C88.6205 3.62109 88.3928 3.05935 88.3928 2.47363C88.3928 1.8879 88.6205 1.32616 89.0259 0.911988C89.4313 0.497816 89.9811 0.265137 90.5544 0.265137H109.083C109.656 0.265137 110.206 0.497816 110.611 0.911988C111.017 1.32616 111.244 1.8879 111.244 2.47363C111.244 3.05935 111.017 3.62109 110.611 4.03526C110.206 4.44944 109.656 4.68211 109.083 4.68211ZM78.2022 4.68211H59.6738C59.1005 4.68211 58.5507 4.44944 58.1453 4.03526C57.7399 3.62109 57.5121 3.05935 57.5121 2.47363C57.5121 1.8879 57.7399 1.32616 58.1453 0.911988C58.5507 0.497816 59.1005 0.265137 59.6738 0.265137H78.2022C78.7755 0.265137 79.3253 0.497816 79.7307 0.911988C80.1361 1.32616 80.3638 1.8879 80.3638 2.47363C80.3638 3.05935 80.1361 3.62109 79.7307 4.03526C79.3253 4.44944 78.7755 4.68211 78.2022 4.68211Z" fill="#ECEEF1"/>
</svg>
