<svg width="140" height="140" viewBox="0 0 140 140" fill="none" xmlns="http://www.w3.org/2000/svg">
<path d="M70 140C108.66 140 140 108.66 140 70C140 31.3401 108.66 0 70 0C31.3401 0 0 31.3401 0 70C0 108.66 31.3401 140 70 140Z" fill="#F6F7F8"/>
<g opacity="0.75">
<path opacity="0.75" d="M99.5517 73.2533L126.892 29.3178C123.165 23.958 118.698 19.1516 113.626 15.0411L75.6604 73.2533H99.5517Z" fill="white"/>
</g>
<g opacity="0.75">
<path opacity="0.75" d="M0.0631789 73.2533H25.5401L69.2735 0.0126457C56.9709 0.168326 44.9273 3.56766 34.3588 9.86735L0.423255 62.59C0.140087 65.1556 -0.00121076 67.7348 7.81457e-06 70.3159C7.81457e-06 71.3203 0.0252762 72.2868 0.0631789 73.2533Z" fill="white"/>
</g>
<path d="M139.836 73.2533H0.164551V74.6115H139.836V73.2533Z" fill="#B7BEC5"/>
<path d="M72.7107 74.6052V0.379053L71.3525 0.379053V74.6052H72.7107Z" fill="#B7BEC5"/>
<path d="M22.2623 64.5294H36.1094C36.5227 64.5292 36.9317 64.6142 37.3108 64.7788C37.6899 64.9435 38.0311 65.1844 38.3132 65.4866C38.5952 65.7888 38.8121 66.1458 38.9502 66.5353C39.0884 66.9249 39.145 67.3387 39.1164 67.7511L38.1625 82.0088C38.1113 82.772 37.7724 83.4872 37.2143 84.0102C36.6561 84.5331 35.9204 84.8248 35.1555 84.8263H23.2288C22.464 84.8248 21.7282 84.5331 21.1701 84.0102C20.6119 83.4872 20.2731 82.772 20.2219 82.0088L19.268 67.7511C19.2394 67.3398 19.2956 66.927 19.433 66.5383C19.5704 66.1496 19.7862 65.7932 20.0668 65.4912C20.3475 65.1892 20.6872 64.9481 21.0648 64.7826C21.4424 64.6172 21.85 64.531 22.2623 64.5294Z" fill="#B7BEC5"/>
<path d="M28.6861 66.6519C28.6066 66.6521 28.5298 66.6224 28.4713 66.5685C28.4127 66.5146 28.3766 66.4406 28.3703 66.3613C28.3703 66.1339 26.6015 43.2154 33.2281 26.753C33.2435 26.7144 33.2663 26.6792 33.2952 26.6494C33.3242 26.6197 33.3587 26.5959 33.3968 26.5795C33.4349 26.5631 33.4759 26.5543 33.5174 26.5537C33.5589 26.5531 33.6002 26.5607 33.6387 26.5761C33.6773 26.5914 33.7125 26.6142 33.7423 26.6432C33.772 26.6721 33.7958 26.7066 33.8122 26.7448C33.8286 26.7829 33.8374 26.8239 33.838 26.8654C33.8386 26.9069 33.831 26.9481 33.8156 26.9867C27.2458 43.3101 28.983 66.0833 29.002 66.3108C29.0073 66.3942 28.9799 66.4765 28.9257 66.5401C28.8715 66.6038 28.7946 66.6439 28.7114 66.6519H28.6861Z" fill="#B7BEC5"/>
<path d="M31.952 67.6753C31.8734 67.6757 31.7975 67.6468 31.7391 67.5943C31.6807 67.5417 31.644 67.4693 31.6361 67.3911C31.6361 67.2016 29.861 48.6103 36.5066 35.2496C36.5445 35.1752 36.6103 35.1188 36.6896 35.0928C36.7689 35.0667 36.8553 35.0731 36.9299 35.1106C36.9673 35.1287 37.0007 35.1541 37.0281 35.1854C37.0555 35.2167 37.0763 35.2532 37.0892 35.2927C37.1022 35.3322 37.1071 35.3739 37.1036 35.4153C37.1001 35.4568 37.0883 35.4971 37.0688 35.5338C30.5117 48.7303 32.2489 67.1194 32.2678 67.3279C32.2734 67.4111 32.2471 67.4932 32.1943 67.5578C32.1415 67.6223 32.0662 67.6643 31.9836 67.6753H31.952Z" fill="#B7BEC5"/>
<path d="M33.753 68.2944C33.6756 68.2932 33.6012 68.2636 33.5441 68.2112C33.4871 68.1588 33.4512 68.0872 33.4435 68.0101C33.4435 67.8459 31.6684 51.2824 38.314 39.3809C38.3563 39.3077 38.4258 39.2541 38.5073 39.2316C38.5889 39.2092 38.676 39.2197 38.7499 39.2609C38.8214 39.3032 38.8739 39.3715 38.8962 39.4516C38.9186 39.5316 38.9092 39.6172 38.8699 39.6905C32.3191 51.415 34.0499 67.7764 34.0689 67.9406C34.0742 67.9818 34.0711 68.0236 34.0599 68.0636C34.0486 68.1035 34.0295 68.1409 34.0036 68.1733C33.9776 68.2057 33.9454 68.2326 33.9089 68.2523C33.8724 68.272 33.8323 68.2842 33.7909 68.2881L33.753 68.2944Z" fill="#B7BEC5"/>
<path d="M25.0796 67.0309H25.0417C24.9589 67.0214 24.8832 66.9795 24.8312 66.9145C24.7791 66.8494 24.7549 66.7664 24.7637 66.6835C24.7637 66.5003 26.5199 48.0796 19.9564 34.8894C19.9381 34.8521 19.9273 34.8115 19.9247 34.7701C19.9221 34.7286 19.9277 34.687 19.9412 34.6476C19.9547 34.6083 19.9758 34.572 20.0034 34.5409C20.0309 34.5098 20.0643 34.4844 20.1017 34.4662C20.1385 34.4468 20.1788 34.435 20.2202 34.4315C20.2616 34.4279 20.3033 34.4328 20.3428 34.4458C20.3823 34.4588 20.4188 34.4796 20.4501 34.5069C20.4814 34.5343 20.5069 34.5677 20.525 34.6052C27.1643 47.9659 25.4081 66.5572 25.3891 66.7467C25.3828 66.8243 25.3474 66.8967 25.29 66.9494C25.2326 67.0021 25.1575 67.0312 25.0796 67.0309Z" fill="#B7BEC5"/>
<path d="M21.927 38.7113C21.927 38.7113 20.2403 34.7568 24.0306 32.8617C26.1026 37.0057 21.927 38.7113 21.927 38.7113Z" fill="#B7BEC5"/>
<path d="M21.7562 39.1219L21.6361 38.8313C21.6361 38.7934 19.88 34.5736 23.8914 32.5774L24.1693 32.4384L24.3146 32.7164C24.6306 33.2656 24.8266 33.8755 24.8897 34.5059C24.9529 35.1363 24.8817 35.773 24.681 36.374C24.1691 37.5531 23.2271 38.4928 22.0468 39.0019L21.7562 39.1219ZM23.8598 33.2912C21.2571 34.7821 21.7941 37.3721 22.0783 38.2691C22.9693 37.8159 23.6734 37.0649 24.0682 36.1466C24.2238 35.6804 24.2854 35.1881 24.2496 34.698C24.2138 34.2079 24.0813 33.7298 23.8598 33.2912Z" fill="#B7BEC5"/>
<path d="M31.7186 34.1251C31.7186 34.1251 31.6491 29.8169 35.8752 29.501C36.229 34.1251 31.7186 34.1251 31.7186 34.1251Z" fill="#B7BEC5"/>
<path d="M31.4407 34.4283V34.1251C31.4407 34.0745 31.4407 29.5136 35.8627 29.1788H36.1785V29.4946C36.2646 30.123 36.2167 30.7625 36.0382 31.3711C35.8596 31.9797 35.5544 32.5436 35.1425 33.0259C34.2185 33.9196 32.9912 34.4317 31.706 34.4599L31.4407 34.4283ZM35.61 29.8358C34.6458 29.9571 33.7575 30.4216 33.1078 31.1444C32.4582 31.8671 32.0906 32.7997 32.0724 33.7713C33.0687 33.6864 34.0045 33.2576 34.7193 32.5584C35.3496 31.7975 35.6578 30.8206 35.5784 29.8358H35.61Z" fill="#B7BEC5"/>
<path d="M30.0758 40.4422C30.0758 40.4422 30.0063 36.1339 34.2261 35.8181C34.5988 40.4043 30.0758 40.4422 30.0758 40.4422Z" fill="#B7BEC5"/>
<path d="M29.7603 40.7265V40.4422C29.7603 40.398 29.7603 35.837 34.1822 35.5022H34.4981V35.8181C34.5853 36.4455 34.538 37.0843 34.3593 37.692C34.1807 38.2998 33.8749 38.8626 33.4621 39.343C32.5397 40.2401 31.3119 40.7547 30.0256 40.7833L29.7603 40.7265ZM33.9296 36.1339C30.9605 36.5319 30.4804 39.1283 30.4046 40.0695C31.3987 39.9832 32.332 39.5545 33.0452 38.8566C33.3656 38.484 33.6089 38.0515 33.7607 37.5841C33.9125 37.1167 33.9699 36.6237 33.9296 36.1339Z" fill="#B7BEC5"/>
<path d="M29.1859 45.9949C29.1859 45.9949 29.1164 41.7056 33.3362 41.3708C33.6963 45.9886 29.1859 45.9949 29.1859 45.9949Z" fill="#B7BEC5"/>
<path d="M28.8765 46.3108V46.0013C28.8765 45.9507 28.8765 41.3898 33.2984 41.055H33.6143V41.3708C33.702 41.9905 33.6585 42.6218 33.4865 43.2236C33.3146 43.8254 33.0181 44.3843 32.6162 44.8642C31.6975 45.763 30.4709 46.278 29.186 46.3045L28.8765 46.3108ZM33.0394 41.7056C30.083 42.1036 29.5966 44.6999 29.5145 45.6412C30.51 45.5532 31.4448 45.1249 32.1614 44.4283C32.4795 44.0545 32.7209 43.6216 32.8715 43.1544C33.0222 42.6872 33.0793 42.1949 33.0394 41.7056Z" fill="#B7BEC5"/>
<path d="M28.4527 56.9994C28.4527 56.9994 28.3895 52.6974 32.6094 52.3752C32.9631 56.9994 28.4527 56.9994 28.4527 56.9994Z" fill="#B7BEC5"/>
<path d="M28.1431 57.3152V57.0057C28.1431 56.9615 28.1431 52.4005 32.565 52.0594H32.8809V52.3752C32.9686 53.0036 32.9216 53.6435 32.7429 54.2524C32.5643 54.8612 32.2582 55.4251 31.8449 55.9065C30.9208 56.8002 29.6936 57.3123 28.4084 57.3405L28.1431 57.3152ZM32.3124 52.7227C29.3433 53.1207 28.8632 55.717 28.7811 56.6582C29.7819 56.5762 30.7225 56.1472 31.4406 55.4454C31.7579 55.0712 31.9983 54.6381 32.1479 54.1709C32.2975 53.7037 32.3534 53.2115 32.3124 52.7227Z" fill="#B7BEC5"/>
<path d="M23.4556 43.146C23.4556 43.146 21.7689 39.1788 25.5592 37.2837C27.6501 41.4403 23.4556 43.146 23.4556 43.146Z" fill="#B7BEC5"/>
<path d="M23.2854 43.5565L23.1654 43.2659C23.1654 43.228 21.4092 39.0082 25.4142 37.012L25.6985 36.873L25.8375 37.151C26.1556 37.6993 26.3534 38.309 26.4177 38.9396C26.4819 39.5703 26.4112 40.2074 26.2102 40.8086C25.6983 41.9877 24.7563 42.9274 23.576 43.4365L23.2854 43.5565ZM25.4142 37.7321C22.8242 39.2103 23.3485 41.8004 23.6328 42.7037C24.5238 42.2505 25.2279 41.4995 25.6227 40.5812C25.9337 39.6414 25.8587 38.6166 25.4142 37.7321Z" fill="#B7BEC5"/>
<path d="M24.656 48.6544C24.656 48.6544 22.9693 44.6936 26.7596 42.8048C28.8316 46.9741 24.656 48.6544 24.656 48.6544Z" fill="#B7BEC5"/>
<path d="M24.4925 49.0903L24.3661 48.8061C24.3661 48.7618 22.61 44.542 26.6213 42.5458L26.9056 42.4068L27.0446 42.6911C27.3616 43.2398 27.5587 43.8495 27.6229 44.48C27.6872 45.1104 27.6171 45.7473 27.4173 46.3487C26.9026 47.5266 25.9583 48.4641 24.7767 48.9703L24.4925 49.0903ZM26.615 43.266C24.025 44.7505 24.5556 47.3405 24.8336 48.2375C25.7218 47.7866 26.4253 47.0406 26.8235 46.1276C26.9816 45.6609 27.0447 45.1672 27.0089 44.6757C26.9731 44.1842 26.8391 43.7048 26.615 43.266Z" fill="#B7BEC5"/>
<path d="M25.4709 55.3001C25.4709 55.3001 23.7843 51.3393 27.5745 49.4504C29.6466 53.5945 25.4709 55.3001 25.4709 55.3001Z" fill="#B7BEC5"/>
<path d="M25.3001 55.7107L25.1801 55.4264C25.1801 55.3822 23.4239 51.1687 27.4353 49.1661L27.7133 49.0271L27.8586 49.3114C28.1749 49.8605 28.3711 50.4704 28.4343 51.1009C28.4974 51.7314 28.4261 52.3681 28.2249 52.969C27.7144 54.1505 26.7722 55.0927 25.5907 55.6033L25.3001 55.7107ZM27.429 49.9179C24.8327 51.4024 25.3633 53.9924 25.6476 54.8958C26.5458 54.4331 27.2541 53.6712 27.6501 52.7416C27.9515 51.808 27.8721 50.7932 27.429 49.9179Z" fill="#B7BEC5"/>
<path d="M25.4967 62.887C25.4967 62.887 24.6313 59.7789 27.6509 58.7619C28.7627 62.0278 25.4967 62.887 25.4967 62.887Z" fill="#B7BEC5"/>
<path d="M25.2749 63.2723L25.1928 62.9754C25.1928 62.9375 24.2831 59.5641 27.5238 58.4523L27.827 58.3449L27.9281 58.6482C28.1136 59.0962 28.2017 59.5786 28.1865 60.0632C28.1712 60.5479 28.053 61.0238 27.8397 61.4593C27.3323 62.3006 26.5237 62.9172 25.5781 63.1839L25.2749 63.2723ZM27.4291 59.1662C26.8124 59.44 26.3091 59.9183 26.0041 60.5202C25.6991 61.1221 25.6111 61.8108 25.755 62.47C26.4029 62.2171 26.9491 61.7575 27.309 61.1624C27.6072 60.5379 27.6503 59.8218 27.4291 59.1662Z" fill="#B7BEC5"/>
<path d="M34.1703 64.1693C34.1703 64.1693 33.2101 60.7328 36.5329 59.5894C37.7584 63.2217 34.1703 64.1693 34.1703 64.1693Z" fill="#B7BEC5"/>
<path d="M33.9672 64.5547L33.8851 64.2578C33.8851 64.2199 32.887 60.518 36.412 59.2925L36.7152 59.1914L36.8163 59.4883C37.0183 59.981 37.1144 60.5107 37.098 61.043C37.0817 61.5752 36.9534 62.0981 36.7215 62.5774C36.162 63.4991 35.2755 64.1759 34.2389 64.4726L33.9672 64.5547ZM36.3488 60.0064C35.6454 60.3114 35.0708 60.853 34.7247 61.5371C34.3786 62.2213 34.2827 63.005 34.4537 63.7524C35.1964 63.4761 35.8226 62.9546 36.2288 62.2742C36.5537 61.5662 36.5899 60.7595 36.3298 60.0253L36.3488 60.0064Z" fill="#B7BEC5"/>
<path d="M33.5445 58.7619C33.5445 58.7619 33.0454 54.4852 37.2147 53.7461C38.0297 58.3197 33.5445 58.7619 33.5445 58.7619Z" fill="#B7BEC5"/>
<path d="M33.2669 59.1219L33.229 58.8124C33.229 58.7618 32.7489 54.2261 37.1582 53.4491L37.4678 53.3923L37.5246 53.7018C37.6736 54.3177 37.6904 54.9581 37.5739 55.5809C37.4573 56.2038 37.2102 56.7948 36.8487 57.3152C36.0179 58.2948 34.8506 58.9281 33.5764 59.0903L33.2669 59.1219ZM36.9498 54.1314C34.0376 54.8263 33.7912 57.4605 33.8354 58.4018C34.8243 58.2228 35.7187 57.7017 36.3623 56.9299C36.6409 56.5257 36.8363 56.0701 36.9371 55.5896C37.038 55.1092 37.0423 54.6135 36.9498 54.1314Z" fill="#B7BEC5"/>
<path d="M35.0103 51.6804C35.0103 51.6804 35.1113 47.3784 39.3375 47.2205C39.5207 51.8509 35.0103 51.6804 35.0103 51.6804Z" fill="#B7BEC5"/>
<path d="M35.0796 51.9962H35.0038H34.688V51.6867C34.688 51.6424 34.8459 47.0815 39.3184 46.9172H39.6343V47.2331C39.6974 47.8639 39.6258 48.501 39.4244 49.1021C39.2229 49.7032 38.8961 50.2547 38.4656 50.7201C37.5332 51.5488 36.3271 52.0033 35.0796 51.9962ZM39.0279 47.5742C38.0626 47.6593 37.1604 48.0892 36.4863 48.7853C35.8123 49.4814 35.4116 50.397 35.3576 51.3645C36.3546 51.3176 37.3041 50.9244 38.0424 50.2527C38.3769 49.8909 38.6358 49.4659 38.804 49.0027C38.9721 48.5395 39.0461 48.0474 39.0215 47.5553L39.0279 47.5742Z" fill="#B7BEC5"/>
<path d="M37.0688 43.6007C37.0688 43.6007 38.2122 39.4504 42.3563 40.3221C41.4024 44.8642 37.0688 43.6007 37.0688 43.6007Z" fill="#B7BEC5"/>
<path d="M38.3893 44.1062C37.9182 44.1084 37.4488 44.0489 36.9932 43.9293L36.6963 43.8408L36.7784 43.5439C36.7784 43.4997 38.0418 39.122 42.4322 40.0443L42.7418 40.1074L42.6786 40.417C42.5613 41.4598 42.054 42.4196 41.2584 43.1039C40.4628 43.7882 39.4379 44.1462 38.3893 44.1062ZM37.4986 43.3923C38.4728 43.5837 39.4831 43.4343 40.3602 42.9691C40.7719 42.7002 41.1263 42.3525 41.4028 41.9459C41.6793 41.5393 41.8724 41.0819 41.9711 40.6002C39.021 40.1453 37.8207 42.5079 37.4859 43.3923H37.4986Z" fill="#B7BEC5"/>
<path d="M22.4835 41.7056C22.4835 41.7056 22.2308 37.4036 17.9983 37.4036C17.9857 42.0151 22.4835 41.7056 22.4835 41.7056Z" fill="#B7BEC5"/>
<path d="M22.2812 42.0089C21.0722 42.0274 19.8978 41.6052 18.9773 40.8213C18.5278 40.3747 18.1796 39.8367 17.9562 39.2438C17.7327 38.6509 17.6393 38.0169 17.6823 37.3848V37.0689H17.9981C22.477 37.0689 22.7992 41.6235 22.7992 41.6678V41.9773H22.4896L22.2812 42.0089ZM18.3203 37.7069C18.3214 38.2012 18.4209 38.6903 18.6128 39.1458C18.8048 39.6013 19.0854 40.0141 19.4384 40.3601C20.2006 41.0038 21.1636 41.3613 22.1611 41.3709C21.9653 40.4422 21.3336 37.9154 18.3203 37.7069Z" fill="#B7BEC5"/>
<path d="M31.7691 30.8276C31.7691 30.8276 32.5145 26.5825 28.3957 25.6033C27.3155 30.1137 31.7691 30.8276 31.7691 30.8276Z" fill="#B7BEC5"/>
<path d="M32.0214 31.1876L31.7182 31.1371C30.4562 30.9056 29.3281 30.2062 28.5596 29.1788C28.2278 28.6379 28.0146 28.0327 27.934 27.4033C27.8534 26.7739 27.9073 26.1345 28.0921 25.5275L28.1679 25.2243L28.4712 25.2938C32.83 26.3361 32.0909 30.8339 32.0845 30.8781L32.0214 31.1876ZM28.6354 25.995C28.5185 26.4725 28.4974 26.9685 28.5733 27.4542C28.6492 27.94 28.8206 28.4059 29.0776 28.825C29.6697 29.6268 30.5232 30.1965 31.4907 30.4359C31.5665 29.4946 31.4907 26.8541 28.6354 25.995Z" fill="#B7BEC5"/>
<path d="M30.4871 36.7214C30.4871 36.7214 31.2325 32.4826 27.1138 31.5035C26.0335 36.0202 30.4871 36.7214 30.4871 36.7214Z" fill="#B7BEC5"/>
<path d="M30.7459 37.0815L30.4364 37.0373C29.1741 36.8024 28.0465 36.101 27.2778 35.0726C26.9431 34.5341 26.7282 33.9299 26.6475 33.301C26.5668 32.6721 26.6224 32.0332 26.8103 31.4277L26.8798 31.1181L27.1894 31.1939C31.5482 32.2299 30.8091 36.734 30.8091 36.7783L30.7459 37.0815ZM27.3536 31.8951C27.2332 32.3779 27.2109 32.8799 27.288 33.3714C27.365 33.8629 27.5398 34.334 27.8021 34.7568C28.3972 35.5554 29.2495 36.1244 30.2153 36.3677C30.2847 35.3885 30.2153 32.7479 27.3536 31.8951Z" fill="#B7BEC5"/>
<path d="M32.1673 51.1813C32.1673 51.1813 33.8161 47.2078 30.0131 45.3506C27.979 49.5009 32.1673 51.1813 32.1673 51.1813Z" fill="#B7BEC5"/>
<path d="M32.3443 51.5729L32.0727 51.4592C30.8886 50.9575 29.9368 50.0283 29.4068 48.8566C29.2014 48.2565 29.1256 47.6196 29.1844 46.988C29.2432 46.3564 29.4353 45.7445 29.748 45.1926L29.8869 44.9147L30.1712 45.0474C34.1952 47.012 32.4959 51.2444 32.477 51.2824L32.3443 51.5729ZM30.1775 45.7675C29.952 46.2106 29.8179 46.6945 29.7832 47.1904C29.7485 47.6864 29.8138 48.1842 29.9754 48.6544C30.3822 49.5664 31.0919 50.3096 31.9842 50.758C32.2622 49.8231 32.7612 47.2268 30.1775 45.7675Z" fill="#B7BEC5"/>
<path d="M23.4049 47.4858C23.4049 47.4858 23.1522 43.1838 18.9197 43.1775C18.9071 47.8143 23.4049 47.4858 23.4049 47.4858Z" fill="#B7BEC5"/>
<path d="M23.2287 47.8016C22.0208 47.8202 20.8471 47.4005 19.9248 46.6203C19.4802 46.1702 19.1373 45.63 18.9194 45.036C18.7014 44.4421 18.6135 43.8083 18.6614 43.1775V42.8616H18.9773C23.4561 42.8616 23.7783 47.4163 23.7783 47.4668V47.7763H23.4687L23.2287 47.8016ZM19.2678 43.506C19.2639 44.4995 19.6547 45.4538 20.3544 46.1592C21.1171 46.802 22.0797 47.1593 23.0771 47.1699C22.9002 46.235 22.2243 43.6828 19.2426 43.506H19.2678Z" fill="#B7BEC5"/>
<path d="M24.7949 52.9754C24.7949 52.9754 24.5423 48.6544 20.3035 48.6544C20.2972 53.3102 24.7949 52.9754 24.7949 52.9754Z" fill="#B7BEC5"/>
<path d="M24.5864 53.2975C23.3803 53.3168 22.2083 52.897 21.2888 52.1162C20.839 51.6644 20.4903 51.1221 20.2659 50.5253C20.0416 49.9285 19.9467 49.2907 19.9875 48.6545V48.3386H20.3034C24.7885 48.3386 25.1044 52.8932 25.1107 52.9375V53.247H24.7948L24.5864 53.2975ZM20.6319 48.9956C20.6264 49.488 20.7197 49.9765 20.9064 50.4322C21.093 50.888 21.3691 51.3016 21.7184 51.6488C22.4786 52.2916 23.4393 52.649 24.4348 52.6595C24.2895 51.7309 23.6072 49.1725 20.6319 48.9956Z" fill="#B7BEC5"/>
<path d="M25.0162 59.1914C25.0162 59.1914 24.7635 54.8958 20.531 54.8895C20.5184 59.5262 25.0162 59.1914 25.0162 59.1914Z" fill="#B7BEC5"/>
<path d="M24.8142 59.5136C23.6063 59.5321 22.4326 59.1125 21.5103 58.3323C21.0621 57.8835 20.7147 57.3443 20.4914 56.7506C20.268 56.1569 20.1739 55.5224 20.2153 54.8895V54.5736H20.5312C25.01 54.5736 25.3322 59.1282 25.3322 59.1725V59.4883H25.0226L24.8142 59.5136ZM20.8533 55.2179C20.8609 56.2141 21.2603 57.1672 21.9652 57.8711C22.7297 58.5107 23.6911 58.8676 24.6878 58.8819C24.492 57.9469 23.8603 55.3885 20.8533 55.2179Z" fill="#B7BEC5"/>
<path d="M33.3796 27.1763C33.3796 27.1763 31.693 23.2154 35.4832 21.3266C37.5553 25.4896 33.3796 27.1763 33.3796 27.1763Z" fill="#B7BEC5"/>
<path d="M33.2095 27.6058L33.0894 27.3216C33.0894 27.2773 31.3333 23.0575 35.3383 21.0613L35.6226 20.9223L35.7616 21.2003C36.0798 21.7497 36.2777 22.3605 36.3419 22.9922C36.4062 23.6238 36.3354 24.262 36.1343 24.8642C35.6174 26.0384 34.6767 26.9745 33.5 27.4858L33.2095 27.6058ZM35.3383 21.7815C32.7483 23.266 33.2726 25.8497 33.5569 26.753C34.4427 26.302 35.1456 25.5589 35.5468 24.6494C35.7026 24.1812 35.7645 23.6868 35.7287 23.1946C35.6929 22.7025 35.5603 22.2222 35.3383 21.7815Z" fill="#B7BEC5"/>
<path d="M20.1011 34.4915C20.1011 34.4915 15.9886 33.2281 16.9867 29.1093C21.4908 30.1958 20.1011 34.4915 20.1011 34.4915Z" fill="#B7BEC5"/>
<path d="M20.3096 34.8831L20.0127 34.7884C19.9685 34.7884 15.6223 33.386 16.6772 29.0335L16.753 28.7302L17.0626 28.8061C17.6818 28.9193 18.2699 29.1625 18.7882 29.5197C19.3065 29.8769 19.7432 30.3398 20.0695 30.8781C20.6406 32.0298 20.7513 33.3558 20.3791 34.5862L20.3096 34.8831ZM17.2268 29.5009C16.6899 32.4384 19.0083 33.7018 19.88 34.0682C20.1056 33.0961 19.9873 32.0759 19.5452 31.1813C19.2881 30.7626 18.951 30.3988 18.5532 30.1104C18.1554 29.8221 17.7047 29.615 17.2268 29.5009Z" fill="#B7BEC5"/>
<path d="M36.7665 35.3885C36.7665 35.3885 35.0798 31.4213 38.8638 29.5325C40.9169 33.6892 36.7665 35.3885 36.7665 35.3885Z" fill="#B7BEC5"/>
<path d="M36.5955 35.7991L36.4945 35.5148C36.4945 35.4706 34.732 31.2571 38.7434 29.2609L39.0276 29.1156L39.1666 29.3999C39.4851 29.948 39.6831 30.5578 39.7474 31.1885C39.8117 31.8192 39.7407 32.4563 39.5393 33.0575C39.0237 34.234 38.0829 35.1726 36.9051 35.6854L36.5955 35.7991ZM38.7244 29.9747C36.1281 31.4592 36.6587 34.0493 36.943 34.9526C37.8215 34.4978 38.5221 33.7616 38.9329 32.8616C39.0913 32.3907 39.1545 31.8929 39.1187 31.3972C39.0829 30.9016 38.9489 30.418 38.7244 29.9747Z" fill="#B7BEC5"/>
<path d="M38.5605 39.5389C38.5605 39.5389 36.8739 35.5717 40.6641 33.6892C42.7362 37.8332 38.5605 39.5389 38.5605 39.5389Z" fill="#B7BEC5"/>
<path d="M38.3897 39.9494L38.2697 39.6589C38.2697 39.621 36.5135 35.4011 40.5249 33.4049L40.8029 33.2659L40.9482 33.5439C41.2636 34.0932 41.4599 34.7028 41.5241 35.333C41.5883 35.9632 41.5191 36.5998 41.3209 37.2015C40.8035 38.3746 39.8596 39.3073 38.6803 39.8105L38.3897 39.9494ZM40.5186 34.1251C37.9286 35.6096 38.4592 38.1996 38.7372 39.103C39.6281 38.6497 40.3322 37.8987 40.727 36.9804C40.884 36.5145 40.9463 36.022 40.9106 35.5317C40.8748 35.0414 40.7415 34.5632 40.5186 34.1251Z" fill="#B7BEC5"/>
<path d="M16.8296 28.5976L20.1903 34.4915C20.1903 34.4915 21.3842 32.2994 20.0008 30.3222C19.6163 29.8351 19.1371 29.4312 18.592 29.1348C18.0469 28.8383 17.4473 28.6556 16.8296 28.5976Z" fill="#ECEEF1"/>
<path d="M28.156 25.2811L31.5104 31.175C31.8448 30.5237 32.0033 29.7964 31.97 29.0651C31.9368 28.3338 31.713 27.6239 31.3209 27.0057C30.9379 26.5186 30.4598 26.1145 29.9158 25.818C29.3717 25.5215 28.7729 25.3388 28.156 25.2811Z" fill="#ECEEF1"/>
<path d="M35.6224 21.017L33.5124 27.4605C33.0569 26.8888 32.7588 26.2078 32.648 25.4853C32.5372 24.7627 32.6174 24.0237 32.8807 23.3417C33.1576 22.7896 33.5432 22.2991 34.0143 21.8996C34.4854 21.5001 35.0324 21.1999 35.6224 21.017Z" fill="#ECEEF1"/>
<path d="M34.5991 35.7612L29.7602 40.5117C29.6166 39.7937 29.6628 39.0506 29.8944 38.356C30.1259 37.6613 30.5348 37.0391 31.0805 36.5509C31.5834 36.1886 32.1544 35.9319 32.7591 35.7962C33.3638 35.6605 33.9897 35.6486 34.5991 35.7612Z" fill="#ECEEF1"/>
<path d="M36.3867 29.204L31.5541 33.9608C31.4092 33.2428 31.4548 32.4994 31.6864 31.8045C31.9181 31.1096 32.3276 30.4875 32.8744 30C33.376 29.6375 33.9457 29.3802 34.5493 29.2434C35.1528 29.1066 35.7778 29.0932 36.3867 29.204Z" fill="#ECEEF1"/>
<path d="M34.1765 41.0171L29.3376 45.7676C29.194 45.0495 29.2402 44.3065 29.4718 43.6118C29.7033 42.9171 30.1122 42.295 30.6579 41.8067C31.1608 41.4445 31.7317 41.1878 32.3365 41.0521C32.9412 40.9164 33.5671 40.9045 34.1765 41.0171Z" fill="#ECEEF1"/>
<path d="M33.1213 52.35L28.2824 57.1004C28.1393 56.3834 28.1858 55.6414 28.4174 54.9478C28.6489 54.2543 29.0575 53.6332 29.6027 53.1459C30.1048 52.7819 30.6755 52.5237 31.2804 52.3869C31.8852 52.2501 32.5115 52.2375 33.1213 52.35Z" fill="#ECEEF1"/>
<path d="M39.6533 47.1131L34.8144 51.8636C34.6713 51.1465 34.7178 50.4045 34.9494 49.711C35.1809 49.0174 35.5895 48.3963 36.1347 47.9091C36.6368 47.5451 37.2075 47.2869 37.8123 47.15C38.4172 47.0132 39.0435 47.0006 39.6533 47.1131Z" fill="#ECEEF1"/>
<path d="M42.5964 40.0884L36.8352 43.6639C36.8352 43.6639 36.8352 41.1686 38.9893 40.0884C39.5595 39.845 40.173 39.7195 40.7929 39.7195C41.4128 39.7195 42.0263 39.845 42.5964 40.0884Z" fill="#ECEEF1"/>
<path d="M38.8445 29.2419L36.7409 35.6917C36.286 35.1185 35.9884 34.4364 35.8776 33.713C35.7668 32.9896 35.8466 32.2498 36.1092 31.5666C36.3854 31.0151 36.77 30.525 37.24 30.1255C37.71 29.7261 38.2557 29.4256 38.8445 29.2419Z" fill="#ECEEF1"/>
<path d="M24.3021 32.4574L22.2048 38.9071C21.7498 38.3339 21.4522 37.6519 21.3415 36.9285C21.2307 36.205 21.3105 35.4652 21.5731 34.7821C21.8486 34.2312 22.2322 33.7414 22.701 33.342C23.1699 32.9426 23.7144 32.6418 24.3021 32.4574Z" fill="#ECEEF1"/>
<path d="M25.8306 36.9931L23.7333 43.4428C23.2789 42.8706 22.9816 42.1896 22.8708 41.4673C22.76 40.745 22.8396 40.0063 23.1016 39.3241C23.3773 38.7727 23.7609 38.2822 24.2297 37.8818C24.6985 37.4814 25.2429 37.1792 25.8306 36.9931Z" fill="#ECEEF1"/>
<path d="M26.9112 42.5332L24.8076 48.9766C24.3531 48.4043 24.0558 47.7234 23.945 47.0011C23.8343 46.2788 23.9138 45.54 24.1759 44.8579C24.452 44.3063 24.8366 43.8162 25.3066 43.4168C25.7766 43.0173 26.3223 42.7168 26.9112 42.5332Z" fill="#ECEEF1"/>
<path d="M27.6505 49.0524L25.5469 55.4959C25.0931 54.9233 24.7961 54.2424 24.6853 53.5202C24.5746 52.798 24.6538 52.0594 24.9152 51.3771C25.1914 50.8256 25.576 50.3355 26.046 49.936C26.516 49.5366 27.0617 49.2361 27.6505 49.0524Z" fill="#ECEEF1"/>
<path d="M28.3331 58.5471L25.1745 63.0828C24.9526 62.5284 24.879 61.9257 24.961 61.3341C25.043 60.7426 25.2777 60.1827 25.642 59.7095C25.9909 59.3467 26.4086 59.0572 26.8706 58.8576C27.3327 58.658 27.8298 58.5525 28.3331 58.5471Z" fill="#ECEEF1"/>
<path d="M37.6694 53.6576L33.3358 58.8882C33.1175 58.1898 33.0854 57.4464 33.2428 56.7317C33.4001 56.017 33.7414 55.3559 34.2329 54.8137C34.6972 54.3979 35.2414 54.0809 35.8322 53.8822C36.423 53.6834 37.0481 53.607 37.6694 53.6576Z" fill="#ECEEF1"/>
<path d="M37.3407 59.0019L33.6894 64.7189C33.3889 64.0512 33.2675 63.3167 33.3373 62.5878C33.4071 61.8589 33.6656 61.1608 34.0874 60.5622C34.4963 60.096 34.9953 59.7174 35.5544 59.4492C36.1135 59.181 36.7212 59.0289 37.3407 59.0019Z" fill="#ECEEF1"/>
<path d="M40.765 33.0385L38.2887 39.3556C37.8654 38.7592 37.6049 38.0627 37.5329 37.3349C37.4609 36.6071 37.5799 35.8731 37.8781 35.2053C38.1877 34.6676 38.6032 34.1984 39.0994 33.8259C39.5956 33.4535 40.1622 33.1856 40.765 33.0385Z" fill="#ECEEF1"/>
<path d="M26.8296 31.1686L30.1777 37.0562C30.5121 36.405 30.6705 35.6777 30.6373 34.9463C30.6041 34.215 30.3803 33.5051 29.9881 32.8869C29.6048 32.4022 29.1274 32.0001 28.5845 31.7048C28.0417 31.4095 27.4448 31.2271 26.8296 31.1686Z" fill="#ECEEF1"/>
<path d="M29.0715 45.3064L32.4259 51.1813C32.7604 50.5301 32.9188 49.8028 32.8856 49.0714C32.8523 48.3401 32.6285 47.6302 32.2364 47.012C31.8512 46.5289 31.3722 46.1288 30.8283 45.8357C30.2844 45.5425 29.6868 45.3625 29.0715 45.3064Z" fill="#ECEEF1"/>
<path d="M17.752 37.41L22.6667 42.072C22.7988 41.3527 22.74 40.6114 22.4962 39.9219C22.2523 39.2325 21.8319 38.619 21.2769 38.1428C20.7697 37.7882 20.1956 37.5403 19.5897 37.4144C18.9837 37.2884 18.3585 37.2869 17.752 37.41Z" fill="#ECEEF1"/>
<path d="M18.6733 43.0448L23.5944 47.7132C23.7245 46.993 23.6647 46.2513 23.421 45.5612C23.1773 44.8712 22.7581 44.2564 22.2046 43.7776C21.6962 43.4229 21.1211 43.175 20.5141 43.049C19.9071 42.9231 19.2809 42.9216 18.6733 43.0448Z" fill="#ECEEF1"/>
<path d="M20.0698 48.5407L24.9909 53.2028C25.1192 52.4843 25.0573 51.7448 24.8112 51.0577C24.5652 50.3706 24.1436 49.7599 23.5885 49.2862C23.0826 48.9309 22.5101 48.6817 21.9054 48.5536C21.3007 48.4255 20.6763 48.4211 20.0698 48.5407Z" fill="#ECEEF1"/>
<path d="M20.2402 54.7126L25.1613 59.3936C25.2914 58.6734 25.2316 57.9317 24.9879 57.2416C24.7442 56.5515 24.325 55.9368 23.7715 55.458C23.2641 55.101 22.6894 54.8509 22.0824 54.7228C21.4754 54.5946 20.8486 54.5912 20.2402 54.7126Z" fill="#ECEEF1"/>
<path d="M34.3026 42.0089C34.3026 42.0089 34.2331 37.7006 38.4592 37.3847C38.813 42.0026 34.3026 42.0089 34.3026 42.0089Z" fill="#B7BEC5"/>
<path d="M33.9675 42.3373V42.0278C33.9675 41.9773 33.9675 37.4163 38.3895 37.0815H38.7054V37.3974C38.7995 38.0125 38.7638 38.6406 38.6006 39.2411C38.4374 39.8417 38.1503 40.4014 37.7578 40.8844C36.8348 41.7938 35.5978 42.3139 34.3023 42.3373H33.9675ZM38.1305 37.7448C35.1615 38.1428 34.6814 40.7391 34.6056 41.6804C35.6136 41.5928 36.5591 41.1547 37.2777 40.4422C37.9171 39.6904 38.2328 38.7161 38.1558 37.7322L38.1305 37.7448Z" fill="#B7BEC5"/>
<path d="M38.845 37.3594L34.0124 42.1099C34.0124 42.1099 33.4564 39.6778 35.3263 38.1491C35.8292 37.7868 36.4002 37.5301 37.0049 37.3944C37.6096 37.2587 38.2355 37.2468 38.845 37.3594Z" fill="#ECEEF1"/>
<path d="M33.0008 47.6437C33.0008 47.6437 32.9376 43.3417 37.1575 43.0196C37.5112 47.6437 33.0008 47.6437 33.0008 47.6437Z" fill="#B7BEC5"/>
<path d="M32.7041 47.9659V47.65C32.7041 47.6058 32.7041 43.0448 37.1261 42.7037H37.4419V43.0133C37.5296 43.6417 37.4826 44.2815 37.304 44.8904C37.1253 45.4992 36.8192 46.0631 36.4059 46.5445C35.4847 47.4425 34.2557 47.9553 32.9694 47.9785L32.7041 47.9659ZM36.8734 43.3733C33.9044 43.765 33.4243 46.3676 33.3484 47.3089C34.3333 47.2254 35.2602 46.8087 35.9764 46.1276C36.3008 45.7512 36.5463 45.3134 36.6982 44.8403C36.8501 44.3671 36.9054 43.8683 36.8608 43.3733H36.8734Z" fill="#B7BEC5"/>
<path d="M37.3413 42.6974L33.0267 47.928C32.8085 47.2291 32.7771 46.4852 32.9356 45.7704C33.0941 45.0556 33.4369 44.3947 33.93 43.8534C34.391 43.4402 34.9309 43.1247 35.5172 42.926C36.1035 42.7273 36.724 42.6495 37.3413 42.6974Z" fill="#ECEEF1"/>
<path d="M29.4385 43.0196C29.4385 43.0196 30.1839 38.7808 26.0652 37.7953C24.9849 42.3373 29.4385 43.0196 29.4385 43.0196Z" fill="#B7BEC5"/>
<path d="M29.6913 43.3797L29.3881 43.3292C28.1247 43.1013 26.9954 42.4011 26.2295 41.3708C25.8938 40.8328 25.6777 40.2288 25.596 39.5999C25.5142 38.971 25.5687 38.3319 25.7557 37.7259L25.8315 37.4163L26.1348 37.4921C30.4936 38.5281 29.7545 43.0322 29.7482 43.0765L29.6913 43.3797ZM26.3053 38.187C26.1866 38.6644 26.1646 39.1607 26.2406 39.6467C26.3165 40.1327 26.4889 40.5987 26.7475 41.0171C27.3412 41.8185 28.1938 42.3899 29.1607 42.6343C29.2365 41.7057 29.1607 39.0461 26.3053 38.187Z" fill="#B7BEC5"/>
<path d="M25.7554 37.4605L29.1098 43.3544C29.4444 42.7018 29.6025 41.973 29.5681 41.2405C29.5337 40.5079 29.3082 39.7971 28.9139 39.1788C28.5299 38.6949 28.0522 38.2934 27.5095 37.9982C26.9669 37.7029 26.3703 37.5201 25.7554 37.4605Z" fill="#ECEEF1"/>
<path d="M47.31 45.25C46.9382 42.0039 44.0318 39.6769 40.8184 40.0525C37.605 40.4281 35.3014 43.364 35.6732 46.6101C36.045 49.8562 38.9514 52.1832 42.1648 51.8076C45.3782 51.432 47.6818 48.4961 47.31 45.25Z" fill="white"/>
<path d="M41.48 52.1609C39.8712 52.1651 38.3242 51.5355 37.1674 50.406C36.0106 49.2765 35.3353 47.736 35.2848 46.1116C35.2343 44.4872 35.8126 42.9069 36.8968 41.7063C37.9811 40.5056 39.486 39.7792 41.0919 39.6814C42.6978 39.5835 44.2783 40.1218 45.4976 41.182C46.7169 42.2422 47.4792 43.7408 47.6224 45.3595C47.7656 46.9782 47.2785 48.5896 46.2646 49.8515C45.2507 51.1133 43.7899 51.9262 42.1922 52.1175C41.956 52.1472 41.7181 52.1617 41.48 52.1609ZM41.48 40.3212C41.2746 40.3216 41.0695 40.3361 40.8661 40.3646C40.1419 40.4462 39.4409 40.6717 38.8034 41.0281C38.1658 41.3845 37.6044 41.8647 37.1513 42.4411C36.6982 43.0176 36.3624 43.6788 36.1634 44.3869C35.9643 45.0949 35.9058 45.8357 35.9912 46.5667C36.1199 47.6322 36.55 48.6376 37.23 49.4624C37.91 50.2872 38.8109 50.8966 39.825 51.2173C40.839 51.5381 41.9231 51.5567 42.9473 51.2709C43.9715 50.9851 44.8925 50.4071 45.5998 49.6061C46.3071 48.805 46.7707 47.815 46.9352 46.7545C47.0997 45.6941 46.958 44.6082 46.5271 43.627C46.0962 42.6458 45.3944 41.811 44.5058 41.2225C43.6172 40.6339 42.5794 40.3167 41.5169 40.3088L41.48 40.3212Z" fill="#ACB4BB"/>
<path d="M42.1553 51.8012L51.0209 50.5608C50.6403 48.3405 50.2453 46.116 49.836 43.8874L41.0686 44.979C41.9943 44.9511 42.8948 45.2861 43.5815 45.9138C44.2682 46.5416 44.6878 47.4134 44.7524 48.3467C44.7536 49.1303 44.5002 49.8927 44.031 50.5168C43.5619 51.1408 42.9029 51.5921 42.1553 51.8012Z" fill="white"/>
<path d="M42.1983 52.1175L42.0693 51.4973C42.7504 51.3064 43.3516 50.8971 43.7823 50.3311C44.2131 49.7651 44.4501 49.073 44.4576 48.3591C44.3996 47.5097 44.0218 46.715 43.4018 46.1382C42.7818 45.5615 41.9666 45.2465 41.1238 45.258H41.0747L41.0317 44.6378L50.1061 43.4905L51.377 50.7779L42.1983 52.1175ZM42.8736 45.0782C43.4467 45.3256 43.947 45.7179 44.3263 46.2174C44.7057 46.7168 44.9513 47.3066 45.0395 47.9298C45.1277 48.5529 45.0556 49.1886 44.83 49.7754C44.6044 50.3622 44.233 50.8805 43.7516 51.2802L50.6648 50.3065L49.6026 44.2347L42.8736 45.0782Z" fill="#ACB4BB"/>
<path d="M107.223 106.999L55.3186 113.059L55.1835 112.873C52.752 109.534 51.2778 105.584 50.9226 101.455L46.1521 45.748C46.0473 44.4385 45.561 43.1896 44.7547 42.1587C43.9484 41.1279 42.8581 40.3612 41.6211 39.9553L93.1509 33.9393C93.3963 33.9076 93.6456 33.9396 93.8754 34.0323C95.0369 34.4789 96.0492 35.2492 96.7947 36.2537C97.5402 37.2582 97.9884 38.4557 98.0871 39.7072L102.833 95.4265C103.195 99.6231 104.716 103.633 107.223 106.999Z" fill="white"/>
<path d="M55.1773 113.4L54.9317 113.065C52.4758 109.678 50.989 105.675 50.634 101.492L45.8574 45.7728C45.7633 44.526 45.3045 43.3356 44.5393 42.3528C43.7741 41.37 42.737 40.6391 41.5597 40.253L40.2151 39.8126L93.157 33.6106C93.4502 33.5793 93.7466 33.6175 94.0227 33.7222C95.2358 34.1942 96.2927 35.002 97.0724 36.0528C97.852 37.1036 98.3228 38.3551 98.4309 39.6638L103.177 95.3768C103.522 99.5182 105.011 103.478 107.475 106.807L107.8 107.235L55.1773 113.4ZM42.8244 40.1289C43.8489 40.6732 44.7205 41.4704 45.3581 42.4463C45.9957 43.4222 46.3787 44.5452 46.4714 45.7108L51.2296 101.418C51.5782 105.489 53.0313 109.383 55.429 112.674V112.718L106.633 106.739C104.281 103.409 102.856 99.5022 102.508 95.4264L97.7617 39.7072C97.6641 38.5146 97.2356 37.374 96.5253 36.4163C95.8151 35.4586 94.8519 34.7226 93.7464 34.2928C93.5619 34.2247 93.3647 34.1993 93.1692 34.2184L42.8244 40.1289Z" fill="#ACB4BB"/>
<path d="M53.618 54.4061C53.2109 54.4299 52.8111 54.2894 52.5065 54.0155C52.202 53.7416 52.0176 53.3567 51.994 52.9455C51.9704 52.5343 52.1095 52.1304 52.3806 51.8228C52.6518 51.5151 53.0328 51.3289 53.4399 51.305L90.0136 47.038C90.4207 46.9903 90.8299 47.1079 91.1511 47.365C91.4723 47.622 91.6793 47.9975 91.7266 48.4087C91.7738 48.8199 91.6574 49.2332 91.4029 49.5577C91.1484 49.8823 90.7768 50.0914 90.3697 50.1391L53.796 54.3937L53.618 54.4061Z" fill="#ECEEF1"/>
<path d="M54.281 62.6548C53.874 62.6786 53.4742 62.5382 53.1696 62.2643C52.8651 61.9903 52.6807 61.6054 52.6571 61.1942C52.6335 60.783 52.7726 60.3791 53.0437 60.0715C53.3149 59.7638 53.6959 59.5776 54.103 59.5538L90.6767 55.2806C91.0838 55.2329 91.4929 55.3505 91.8142 55.6075C92.1354 55.8646 92.3424 56.24 92.3896 56.6512C92.4368 57.0624 92.3204 57.4758 92.066 57.8003C91.8115 58.1248 91.4399 58.3339 91.0328 58.3816L54.4591 62.6486C54.4001 62.6566 54.3405 62.6587 54.281 62.6548Z" fill="#ECEEF1"/>
<path d="M54.9441 71.6478C54.537 71.6708 54.1375 71.5295 53.8336 71.255C53.5296 70.9805 53.346 70.5953 53.3232 70.1841C53.3004 69.7729 53.4403 69.3693 53.712 69.0623C53.9837 68.7552 54.3651 68.5698 54.7722 68.5467L91.3458 64.2735C91.5474 64.2503 91.7515 64.2674 91.9466 64.3239C92.1416 64.3804 92.3237 64.4751 92.4824 64.6027C92.6412 64.7302 92.7736 64.8882 92.8719 65.0674C92.9703 65.2466 93.0328 65.4437 93.0557 65.6473C93.0787 65.8509 93.0618 66.0571 93.0059 66.2541C92.95 66.4511 92.8562 66.635 92.7299 66.7954C92.6036 66.9558 92.4473 67.0895 92.2699 67.1889C92.0924 67.2883 91.8974 67.3513 91.6958 67.3746L55.1221 71.6478H54.9441Z" fill="#ECEEF1"/>
<path d="M55.779 80.5043C55.3719 80.5274 54.9725 80.3861 54.6685 80.1116C54.3645 79.8371 54.181 79.4519 54.1582 79.0407C54.1354 78.6294 54.2752 78.2259 54.547 77.9188C54.8187 77.6118 55.2 77.4263 55.6071 77.4033L76.7213 74.9225C76.9228 74.8993 77.1269 74.9164 77.322 74.9729C77.517 75.0293 77.6991 75.1241 77.8578 75.2516C78.0166 75.3792 78.149 75.5371 78.2473 75.7163C78.3457 75.8956 78.4082 76.0926 78.4311 76.2962C78.4541 76.4999 78.4372 76.7061 78.3813 76.9031C78.3254 77.1001 78.2316 77.284 78.1053 77.4444C77.979 77.6048 77.8227 77.7385 77.6453 77.8378C77.4678 77.9372 77.2728 78.0003 77.0712 78.0235L55.9571 80.5043H55.779Z" fill="#ECEEF1"/>
<path d="M59.5918 102.54C59.1848 102.564 58.785 102.424 58.4804 102.15C58.1759 101.876 57.9915 101.491 57.9679 101.08C57.9443 100.668 58.0834 100.265 58.3545 99.9569C58.6257 99.6492 59.0067 99.463 59.4138 99.4391L80.5341 96.9583C80.7356 96.9351 80.9398 96.9522 81.1348 97.0087C81.3298 97.0652 81.5119 97.1599 81.6707 97.2875C81.8294 97.415 81.9618 97.5729 82.0602 97.7522C82.1585 97.9314 82.221 98.1285 82.244 98.3321C82.2669 98.5357 82.25 98.7419 82.1941 98.9389C82.1382 99.1359 82.0444 99.3198 81.9181 99.4802C81.7918 99.6406 81.6355 99.7743 81.4581 99.8737C81.2807 99.9731 81.0856 100.036 80.884 100.059L59.7699 102.54H59.5918Z" fill="#ECEEF1"/>
<path d="M57.7683 96.1087C57.3612 96.1317 56.9617 95.9904 56.6578 95.716C56.3538 95.4415 56.1702 95.0562 56.1474 94.645C56.1246 94.2338 56.2645 93.8303 56.5362 93.5232C56.8079 93.2161 57.1893 93.0307 57.5964 93.0077L71.5149 91.3827C71.7165 91.3595 71.9206 91.3766 72.1156 91.4331C72.3106 91.4896 72.4927 91.5843 72.6515 91.7119C72.8103 91.8394 72.9426 91.9973 73.041 92.1766C73.1393 92.3558 73.2018 92.5529 73.2248 92.7565C73.2477 92.9601 73.2308 93.1663 73.1749 93.3633C73.119 93.5603 73.0252 93.7442 72.8989 93.9046C72.7726 94.065 72.6163 94.1987 72.4389 94.2981C72.2615 94.3974 72.0664 94.4605 71.8648 94.4838L57.9463 96.1087C57.8872 96.1151 57.8275 96.1151 57.7683 96.1087Z" fill="#ECEEF1"/>
<path d="M93.771 93.5782L97.817 99.3275C97.8295 99.3465 97.8357 99.3691 97.8344 99.3919C97.8332 99.4147 97.8247 99.4365 97.8101 99.454C97.7956 99.4714 97.7758 99.4837 97.7538 99.4889C97.7318 99.494 97.7087 99.4918 97.6881 99.4826L94.1209 97.5413C94.2806 99.036 94.4463 100.531 94.606 102.019C94.6079 102.042 94.6022 102.066 94.5897 102.085C94.5772 102.105 94.5586 102.12 94.5369 102.128C94.5151 102.135 94.4914 102.136 94.4695 102.128C94.4476 102.121 94.4286 102.107 94.4156 102.087L90.6582 96.2327L93.771 93.5782Z" fill="#E6E6E6"/>
<path d="M94.5015 102.447C94.4336 102.447 94.3667 102.43 94.3068 102.397C94.2469 102.365 94.1957 102.318 94.1577 102.261L90.2529 96.1769L93.8262 93.1255L98.0686 99.1477C98.1249 99.2215 98.1554 99.312 98.1554 99.4051C98.1554 99.4982 98.1249 99.5887 98.0686 99.6625C98.0081 99.7341 97.925 99.7825 97.8333 99.7994C97.7416 99.8164 97.6469 99.8009 97.5652 99.7555L94.4954 98.0933L94.919 101.988C94.9286 102.081 94.9071 102.174 94.8582 102.252C94.8092 102.331 94.7355 102.391 94.6489 102.422C94.6019 102.44 94.5518 102.449 94.5015 102.447ZM91.0634 96.2947L94.2068 101.194L93.7525 96.9894L97.0618 98.788L93.7157 94.031L91.0634 96.2947Z" fill="#ACB4BB"/>
<path d="M95.4716 92.0215C95.5521 92.1413 95.6045 92.2782 95.6246 92.4216C95.6447 92.565 95.632 92.7111 95.5876 92.8488C95.5431 92.9865 95.4681 93.1121 95.3681 93.2159C95.2682 93.3198 95.1461 93.3992 95.0111 93.448C94.6586 93.5793 94.3532 93.8144 94.1343 94.1229C93.9154 94.4313 93.7931 94.799 93.7832 95.1784C93.7807 95.3266 93.7439 95.4722 93.6757 95.6034C93.6074 95.7347 93.5097 95.848 93.3903 95.9342C93.271 96.0204 93.1332 96.0772 92.9882 96.0999C92.8432 96.1227 92.6949 96.1108 92.5553 96.0653C92.1928 95.9531 91.8049 95.9566 91.4445 96.0754C91.0841 96.1942 90.7687 96.4224 90.5415 96.7289C90.453 96.8424 90.3402 96.9342 90.2115 96.9973C90.0828 97.0604 89.9416 97.0932 89.7986 97.0932C89.6555 97.0932 89.5144 97.0604 89.3857 96.9973C89.257 96.9342 89.1442 96.8424 89.0557 96.7289C88.8809 96.4983 88.6561 96.3112 88.3985 96.1822C88.1409 96.0532 87.8574 95.9856 87.5699 95.9846C87.3888 95.984 87.2087 96.0112 87.0358 96.0653C86.8961 96.1108 86.7478 96.1227 86.6028 96.0999C86.4578 96.0772 86.3201 96.0204 86.2007 95.9342C86.0813 95.848 85.9836 95.7347 85.9154 95.6034C85.8472 95.4722 85.8103 95.3266 85.8078 95.1784C85.803 94.7977 85.6827 94.4277 85.4631 94.1182C85.2435 93.8088 84.9352 93.5749 84.5799 93.448C84.4421 93.398 84.3179 93.3158 84.2176 93.208C84.1172 93.1002 84.0436 92.9699 84.0028 92.8278C83.9574 92.6906 83.9443 92.5446 83.9646 92.4014C83.9848 92.2582 84.0379 92.1218 84.1194 92.0029C84.3388 91.689 84.4565 91.3142 84.4565 90.93C84.4565 90.5457 84.3388 90.1709 84.1194 89.857C84.0379 89.7381 83.9848 89.6017 83.9646 89.4585C83.9443 89.3153 83.9574 89.1693 84.0028 89.0321C84.0436 88.8901 84.1172 88.7598 84.2176 88.652C84.3179 88.5442 84.4421 88.4619 84.5799 88.4119C84.9338 88.2809 85.2404 88.0451 85.4594 87.7353C85.6785 87.4254 85.7999 87.056 85.8078 86.6753C85.8136 86.531 85.8514 86.3897 85.9184 86.262C85.9853 86.1343 86.0797 86.0233 86.1946 85.9373C86.3111 85.8524 86.4451 85.7955 86.5866 85.7708C86.7281 85.7461 86.8733 85.7542 87.0112 85.7947C87.3749 85.9028 87.7624 85.8973 88.1229 85.7789C88.4834 85.6604 88.8 85.4346 89.0311 85.131C89.1196 85.0175 89.2325 84.9257 89.3611 84.8626C89.4898 84.7995 89.631 84.7667 89.774 84.7667C89.9171 84.7667 90.0582 84.7995 90.1869 84.8626C90.3156 84.9257 90.4284 85.0175 90.5169 85.131C90.7442 85.4376 91.0595 85.6658 91.4199 85.7845C91.7803 85.9033 92.1682 85.9068 92.5307 85.7947C92.6686 85.7538 92.8139 85.7454 92.9554 85.7701C93.097 85.7948 93.231 85.852 93.3473 85.9373C93.4642 86.0214 93.5601 86.1319 93.6273 86.26C93.6944 86.3882 93.731 86.5304 93.7341 86.6753C93.7436 87.0556 93.8657 87.4242 94.0846 87.7338C94.3034 88.0433 94.609 88.2795 94.962 88.4119C95.097 88.4607 95.2191 88.5401 95.319 88.644C95.4189 88.7478 95.494 88.8734 95.5385 89.0111C95.5829 89.1488 95.5955 89.295 95.5754 89.4383C95.5553 89.5817 95.503 89.7186 95.4225 89.8384C95.2097 90.155 95.096 90.5287 95.096 90.9114C95.096 91.294 95.2097 91.6678 95.4225 91.9843L95.4716 92.0215Z" fill="#E6E6E6"/>
<path d="M89.8048 97.4049C89.6137 97.4066 89.4248 97.3632 89.2532 97.2781C89.0816 97.1931 88.932 97.0687 88.8163 96.9149C88.6227 96.6618 88.3579 96.4737 88.0566 96.3752C87.7554 96.2767 87.4317 96.2724 87.1279 96.363C86.9449 96.4211 86.7509 96.4351 86.5616 96.4039C86.3722 96.3726 86.1927 96.297 86.0375 96.183C85.8823 96.0691 85.7557 95.9199 85.6679 95.7476C85.58 95.5753 85.5334 95.3846 85.5316 95.1908C85.5228 94.8708 85.4184 94.5609 85.2321 94.302C85.0458 94.043 84.7864 93.8469 84.4879 93.7395C84.3053 93.6785 84.1395 93.575 84.0038 93.4373C83.8681 93.2997 83.7662 93.1318 83.7065 92.9472C83.6468 92.7625 83.6308 92.5663 83.6599 92.3743C83.689 92.1822 83.7623 91.9998 83.8739 91.8417C84.0535 91.578 84.1496 91.2655 84.1496 90.9455C84.1496 90.6254 84.0535 90.3129 83.8739 90.0493C83.7697 89.892 83.7024 89.7126 83.6774 89.525C83.6523 89.3374 83.6701 89.1465 83.7294 88.9669C83.7886 88.7873 83.8878 88.6238 84.0193 88.4889C84.1508 88.354 84.3111 88.2513 84.4879 88.1886C84.7864 88.0812 85.0458 87.8852 85.2321 87.6262C85.4184 87.3672 85.5228 87.0574 85.5316 86.7374C85.5364 86.5448 85.5854 86.356 85.675 86.1859C85.7645 86.0158 85.892 85.8691 86.0474 85.7574C86.2004 85.6429 86.3777 85.566 86.5652 85.5326C86.7528 85.4992 86.9454 85.5104 87.1279 85.5652C87.4316 85.6566 87.7556 85.6527 88.057 85.5542C88.3585 85.4556 88.6233 85.267 88.8163 85.0132C88.9361 84.8664 89.0866 84.7481 89.257 84.667C89.4273 84.5858 89.6134 84.5437 89.8017 84.5437C89.9901 84.5437 90.1761 84.5858 90.3465 84.667C90.5169 84.7481 90.6673 84.8664 90.7871 85.0132C90.9802 85.267 91.245 85.4556 91.5464 85.5542C91.8479 85.6527 92.1719 85.6566 92.4755 85.5652C92.6586 85.507 92.8526 85.493 93.0419 85.5242C93.2313 85.5555 93.4108 85.6311 93.566 85.7451C93.7212 85.8591 93.8478 86.0082 93.9356 86.1805C94.0235 86.3528 94.0701 86.5435 94.0718 86.7374C94.0815 87.0571 94.1863 87.3666 94.3724 87.6254C94.5586 87.8842 94.8175 88.0805 95.1156 88.1886C95.2924 88.2513 95.4527 88.354 95.5842 88.4889C95.7157 88.6238 95.8149 88.7873 95.8741 88.9669C95.9334 89.1465 95.9512 89.3374 95.9261 89.525C95.901 89.7126 95.8338 89.892 95.7295 90.0493C95.55 90.3129 95.4539 90.6254 95.4539 90.9455C95.4539 91.2655 95.55 91.578 95.7295 91.8417C95.8386 92.0008 95.9093 92.1835 95.936 92.3752C95.9626 92.5669 95.9445 92.7623 95.883 92.9456C95.8249 93.129 95.7253 93.2963 95.5921 93.4341C95.4589 93.5719 95.2957 93.6764 95.1156 93.7395C94.8175 93.8476 94.5586 94.0439 94.3724 94.3027C94.1863 94.5616 94.0815 94.871 94.0718 95.1908C94.0678 95.3693 94.0257 95.5448 93.9484 95.7054C93.871 95.8659 93.7602 96.0077 93.6237 96.1211C93.4674 96.2549 93.2806 96.3472 93.08 96.3894C92.8795 96.4317 92.6717 96.4226 92.4755 96.363C92.1718 96.2724 91.8481 96.2767 91.5469 96.3752C91.2456 96.4737 90.9808 96.6618 90.7871 96.9149C90.6721 97.0679 90.5235 97.1917 90.3531 97.2767C90.1826 97.3617 89.9949 97.4056 89.8048 97.4049ZM87.5761 95.6745C87.91 95.6743 88.2394 95.7519 88.5387 95.9015C88.8379 96.051 89.099 96.2684 89.3014 96.5366C89.3624 96.6108 89.4389 96.6705 89.5254 96.7115C89.6119 96.7524 89.7062 96.7737 89.8017 96.7737C89.8973 96.7737 89.9916 96.7524 90.0781 96.7115C90.1646 96.6705 90.241 96.6108 90.3021 96.5366C90.5699 96.1835 90.9376 95.9209 91.3564 95.7836C91.7752 95.6463 92.2254 95.6407 92.6475 95.7676C92.7514 95.8044 92.8632 95.8124 92.9713 95.7905C93.0793 95.7687 93.1795 95.7179 93.2614 95.6435C93.3311 95.5865 93.3875 95.5147 93.4267 95.4333C93.466 95.3518 93.4871 95.2627 93.4886 95.1722C93.5012 94.7279 93.6463 94.2978 93.9048 93.9382C94.1633 93.5786 94.5232 93.3061 94.9375 93.1565C95.03 93.1256 95.1138 93.0729 95.1822 93.0028C95.2505 92.9327 95.3013 92.8472 95.3305 92.7534C95.3618 92.6606 95.3709 92.5616 95.357 92.4646C95.3431 92.3675 95.3067 92.2752 95.2507 92.1952C95.0047 91.8292 94.8731 91.3971 94.8731 90.9548C94.8731 90.5124 95.0047 90.0803 95.2507 89.7144C95.3067 89.6343 95.3431 89.542 95.357 89.445C95.3709 89.3479 95.3618 89.249 95.3305 89.1562C95.3013 89.0623 95.2505 88.9768 95.1822 88.9067C95.1138 88.8366 95.03 88.7839 94.9375 88.753C94.5242 88.6019 94.1652 88.3291 93.9069 87.9698C93.6486 87.6105 93.5029 87.1812 93.4886 86.7374C93.4872 86.64 93.4631 86.5444 93.4183 86.4582C93.3735 86.372 93.3092 86.2977 93.2307 86.2412C93.153 86.1815 93.0624 86.1413 92.9663 86.1241C92.8702 86.1068 92.7714 86.1129 92.6782 86.142C92.256 86.2671 91.8063 86.2606 91.3879 86.1234C90.9694 85.9862 90.6017 85.7246 90.3328 85.3729C90.2717 85.2987 90.1953 85.239 90.1088 85.1981C90.0223 85.1571 89.928 85.1359 89.8324 85.1359C89.7369 85.1359 89.6426 85.1571 89.5561 85.1981C89.4696 85.239 89.3931 85.2987 89.3321 85.3729C89.0643 85.726 88.6966 85.9886 88.2778 86.1259C87.859 86.2633 87.4088 86.2689 86.9867 86.142C86.8917 86.1094 86.7903 86.1008 86.6912 86.117C86.5922 86.1332 86.4986 86.1737 86.4186 86.2349C86.3387 86.2961 86.2748 86.3762 86.2325 86.4681C86.1903 86.56 86.171 86.661 86.1763 86.7622C86.1645 87.2067 86.0198 87.6371 85.7611 87.9969C85.5025 88.3567 85.1421 88.6289 84.7273 88.7778C84.636 88.8096 84.5534 88.8626 84.4862 88.9327C84.419 89.0027 84.3691 89.0878 84.3406 89.181C84.3092 89.2738 84.3001 89.3727 84.314 89.4698C84.3279 89.5668 84.3643 89.6591 84.4204 89.7392C84.6664 90.1051 84.7979 90.5372 84.7979 90.9796C84.7979 91.4219 84.6664 91.854 84.4204 92.22C84.3643 92.3 84.3279 92.3924 84.314 92.4894C84.3001 92.5864 84.3092 92.6854 84.3406 92.7782C84.3691 92.8714 84.419 92.9564 84.4862 93.0265C84.5534 93.0965 84.636 93.1496 84.7273 93.1813C85.1426 93.3294 85.5035 93.6015 85.7622 93.9615C86.021 94.3214 86.1654 94.7523 86.1763 95.197C86.1778 95.2875 86.1989 95.3767 86.2382 95.4581C86.2774 95.5395 86.3338 95.6113 86.4035 95.6683C86.4854 95.7427 86.5856 95.7935 86.6936 95.8153C86.8016 95.8372 86.9135 95.8292 87.0174 95.7924C87.1976 95.728 87.3855 95.6884 87.5761 95.6745Z" fill="#ACB4BB"/>
<path d="M90.7134 88.4863L90.0074 88.9391C89.9226 88.993 89.8579 89.0737 89.8232 89.1686C89.7807 89.2703 89.7659 89.3816 89.7802 89.4911L90.1547 92.4867L90.8669 92.0339C90.9502 91.9784 91.0146 91.8982 91.0511 91.8044C91.0915 91.7021 91.1043 91.5908 91.088 91.4819" fill="#F15525"/>
<path d="M89.4549 91.1098L88.7427 91.5626C88.658 91.6165 88.5932 91.6971 88.5585 91.7921C88.5161 91.8938 88.5012 92.0051 88.5156 92.1146L88.6752 93.4108L89.3813 92.958C89.4663 92.9029 89.5327 92.8228 89.5716 92.7286C89.6087 92.6255 89.6213 92.515 89.6084 92.4061" fill="#F15525"/>
<path d="M89.8049 94.7505C89.0603 94.7517 88.332 94.5298 87.7123 94.1127C87.0926 93.6957 86.6092 93.1024 86.3234 92.4078C86.0376 91.7132 85.9622 90.9486 86.1067 90.2107C86.2513 89.4728 86.6092 88.7948 87.1353 88.2625C87.6614 87.7302 88.332 87.3674 89.0622 87.2203C89.7925 87.0731 90.5495 87.148 91.2376 87.4356C91.9256 87.7231 92.5138 88.2104 92.9276 88.8358C93.3414 89.4611 93.5623 90.1964 93.5623 90.9486C93.5607 91.9553 93.1645 92.9205 92.4604 93.6329C91.7562 94.3454 90.8015 94.7472 89.8049 94.7505ZM89.8049 87.767C89.1817 87.7657 88.5721 87.9513 88.0534 88.3001C87.5346 88.649 87.13 89.1455 86.8906 89.7267C86.6513 90.308 86.5881 90.9479 86.7089 91.5655C86.8297 92.1831 87.1292 92.7506 87.5694 93.1962C88.0097 93.6418 88.5709 93.9454 89.182 94.0687C89.7932 94.1919 90.4267 94.1293 91.0026 93.8887C91.5785 93.648 92.0708 93.2402 92.4171 92.7169C92.7635 92.1935 92.9484 91.5781 92.9484 90.9486C92.9467 90.1069 92.615 89.3002 92.0259 88.705C91.4367 88.1099 90.6381 87.7748 89.8049 87.7732V87.767Z" fill="#ACB4BB"/>
</svg>
