<svg width="107" height="80" viewBox="0 0 107 80" fill="none" xmlns="http://www.w3.org/2000/svg">
<path d="M47.674 9.85502L18.3087 10.0631C15.7042 10.0927 13.1897 11.215 11.2537 13.2119C9.31778 15.2087 8.09866 17.9375 7.83327 20.8681L7.24566 63.8547C7.08502 65.6813 7.26254 67.5207 7.76691 69.2556C8.27127 70.9906 9.09143 72.5831 10.1751 73.9316C11.2588 75.2802 12.5823 76.3553 14.0612 77.0883C15.5401 77.8214 17.1421 78.1964 18.765 78.1895L88.9549 77.6922C91.5338 77.6758 94.0287 76.5823 95.9593 74.6221C97.8899 72.6619 99.1196 69.9737 99.4117 67.0751L99.6171 33.6264C99.8027 31.7818 99.6431 29.9189 99.1486 28.1588C98.6541 26.3986 97.8359 24.7806 96.747 23.41C95.6582 22.0393 94.3231 20.9467 92.8286 20.2032C91.3342 19.4596 89.7137 19.0817 88.0727 19.0941L55.2871 19.3264C54.8196 19.3293 54.3581 19.2219 53.932 19.0112C53.5059 18.8005 53.1246 18.491 52.8124 18.1026C52.5003 17.7142 52.2643 17.2554 52.1194 16.7556C51.9745 16.2558 51.924 15.7259 51.971 15.1999C52.0284 14.5192 51.9604 13.8344 51.7713 13.1885C51.5822 12.5427 51.2761 11.95 50.8723 11.4478C50.4685 10.9455 49.9758 10.5447 49.4254 10.2705C48.8749 9.99641 48.2785 9.85492 47.674 9.85502Z" fill="#DFE0E1"/>
<path d="M88.943 78.1863L18.7618 78.6835C17.0746 78.6967 15.4081 78.312 13.8691 77.5539C12.33 76.7958 10.9522 75.6811 9.8238 74.281C8.69541 72.8809 7.84126 71.2263 7.31601 69.423C6.79075 67.6198 6.60595 65.7075 6.77342 63.8086L7.3608 20.8615C7.61083 17.7864 8.87722 14.9156 10.9071 12.8224C12.9371 10.7291 15.5812 9.56731 18.3116 9.56899L47.7206 9.36064C48.3877 9.35815 49.0461 9.51267 49.6538 9.81437C50.2615 10.1161 50.8052 10.5583 51.2503 11.1129C51.6954 11.6675 52.0321 12.3224 52.2389 13.0356C52.4457 13.7489 52.5182 14.505 52.4516 15.2557C52.4097 15.7131 52.453 16.1741 52.5785 16.609C52.7041 17.0438 52.9092 17.443 53.1806 17.7808C53.4521 18.1186 53.7839 18.3875 54.1547 18.5702C54.5255 18.753 54.9271 18.8455 55.3336 18.8419L88.1105 18.6097C89.8129 18.5948 91.4943 18.9854 93.0451 19.756C94.5958 20.5266 95.981 21.6599 97.1103 23.0821C98.2397 24.5042 99.0879 26.1833 99.5996 28.0097C100.111 29.8362 100.275 31.7691 100.08 33.6824L99.8751 67.0817C99.5806 70.1173 98.2984 72.9356 96.2777 74.9882C94.2571 77.0407 91.6426 78.1807 88.943 78.1863ZM18.3055 10.5571C15.8056 10.564 13.3867 11.6313 11.5281 13.5477C9.66954 15.4641 8.50679 18.0897 8.27023 20.9045L7.68286 63.8516C7.52229 65.6132 7.68862 67.3884 8.1712 69.0637C8.65379 70.739 9.442 72.2774 10.4854 73.5804C11.5288 74.8835 12.8044 75.9226 14.2306 76.6311C15.6568 77.3397 17.2022 77.7022 18.7679 77.6954L88.9578 77.1981C91.4308 77.1882 93.8247 76.1415 95.6754 74.2608C97.526 72.3801 98.7017 69.7994 98.9745 67.0189L99.1796 33.6295C99.3638 31.8503 99.2145 30.0522 98.7413 28.3523C98.2682 26.6525 97.4818 25.0892 96.4335 23.7643C95.3852 22.4395 94.0985 21.3828 92.6574 20.6632C91.2162 19.9436 89.6529 19.5773 88.0695 19.5882L55.2839 19.8205C54.7551 19.8241 54.233 19.703 53.7509 19.4648C53.2688 19.2266 52.8375 18.8766 52.4844 18.4373C52.1314 17.9979 51.8645 17.4789 51.7008 16.9134C51.5371 16.3479 51.4802 15.7485 51.5338 15.1536C51.5901 14.5406 51.5322 13.9227 51.364 13.3399C51.1957 12.7571 50.9208 12.2221 50.5569 11.7695C50.1929 11.3169 49.7481 10.9567 49.2511 10.712C48.754 10.4674 48.2157 10.3437 47.6708 10.3491L18.3055 10.5571Z" fill="#DFE0E1"/>
<path d="M88.9046 36.9607C98.8985 36.9607 107 28.6868 107 18.4804C107 8.27394 98.8985 0 88.9046 0C78.9107 0 70.8091 8.27394 70.8091 18.4804C70.8091 28.6868 78.9107 36.9607 88.9046 36.9607Z" fill="#F5F5F5"/>
<path d="M83.4307 19.6681L89.2715 25.5083L95.111 19.6681" stroke="#B7BEC5" stroke-width="2" stroke-linecap="round" stroke-linejoin="round"/>
<path d="M89.271 24.674V8.82214" stroke="#B7BEC5" stroke-width="2" stroke-miterlimit="10" stroke-linecap="round"/>
<path d="M39.4258 17.8461H10.8277C9.41847 17.8575 8.02606 18.16 6.73432 18.7354C5.44258 19.3109 4.27824 20.1474 3.31143 21.1945C2.34462 22.2417 1.59534 23.4779 1.1087 24.8286C0.622064 26.1793 0.408145 27.6167 0.479828 29.054L6.42399 67.895C6.57795 70.9353 7.8694 73.7991 10.0316 75.8948C12.1938 77.9905 15.0616 79.1581 18.0425 79.1563H87.8842C89.3033 79.1578 90.7076 78.8624 92.0106 78.2885C93.3135 77.7145 94.4876 76.8741 95.4604 75.819C96.4332 74.7639 97.1841 73.5165 97.6667 72.1537C98.1494 70.7909 98.3537 69.3415 98.2669 67.895L92.5055 37.5955C92.3364 34.5608 91.035 31.7077 88.869 29.623C86.703 27.5383 83.8372 26.3804 80.8609 26.3876H47.1976C46.366 26.3869 45.5645 26.0696 44.9497 25.4976C44.3349 24.9257 43.951 24.1401 43.8731 23.2945L43.7338 21.828C43.6223 20.7388 43.1209 19.7301 42.3259 18.9952C41.5309 18.2603 40.4981 17.8512 39.4258 17.8461Z" fill="#ECEEF1"/>
<path d="M87.849 79.5739H18.0073C14.9159 79.5738 11.9425 78.3624 9.69982 76.1894C7.45718 74.0165 6.11631 71.0477 5.95361 67.895L0.0181496 29.0984C-0.067197 27.595 0.149084 26.0896 0.653728 24.6746C1.15837 23.2595 1.94074 21.9647 2.95285 20.8695C3.96496 19.7743 5.18548 18.9017 6.53955 18.3054C7.89362 17.7091 9.35269 17.4016 10.8273 17.4017H39.4254C40.6184 17.3975 41.769 17.8526 42.6481 18.6762C43.5272 19.4999 44.07 20.6315 44.1685 21.8457L44.3078 23.3123C44.3753 24.0454 44.7095 24.726 45.2445 25.2196C45.7794 25.7133 46.4762 25.9841 47.1972 25.9787H80.8604C83.9292 25.9835 86.8813 27.1801 89.118 29.3258C91.3548 31.4715 92.7088 34.4056 92.9054 37.5332L98.6581 67.7528C98.7571 69.2641 98.5509 70.7801 98.0524 72.2067C97.5539 73.6333 96.7737 74.9401 95.7602 76.046C94.7467 77.1519 93.5215 78.0333 92.1606 78.6356C90.7997 79.2379 89.3321 79.5482 87.849 79.5473V79.5739ZM10.8273 18.2905C9.47887 18.2913 8.14464 18.5716 6.90538 19.1144C5.66613 19.6572 4.54763 20.4512 3.61762 21.4484C2.68762 22.4455 1.96545 23.6251 1.49484 24.9156C1.02423 26.2061 0.814974 27.5807 0.879746 28.9562L6.8152 67.7617C6.9581 70.6951 8.19952 73.4602 10.2827 75.4851C12.3658 77.51 15.1314 78.6398 18.0073 78.6407H87.849C89.2086 78.6421 90.5541 78.3591 91.8025 77.8091C93.0509 77.2591 94.1758 76.4538 95.1078 75.4428C96.0398 74.4319 96.7592 73.2367 97.2216 71.9309C97.6841 70.6251 97.8797 69.2365 97.7965 67.8505L92.0438 37.631C91.8776 34.7139 90.628 31.9715 88.5498 29.9631C86.4717 27.9548 83.7216 26.8317 80.8604 26.8231H47.1972C46.2556 26.829 45.3462 26.4731 44.6497 25.826C43.9532 25.1789 43.5205 24.2879 43.4375 23.33L43.2982 21.9435C43.2131 20.9557 42.7679 20.0366 42.0506 19.3682C41.3333 18.6999 40.3964 18.3311 39.4254 18.3349L10.8273 18.2905Z" fill="#ECEEF1"/>
<path d="M50.7839 40.635L47.7727 42.515C47.4271 42.7516 47.1554 43.0847 46.99 43.4745C46.8161 43.9158 46.7545 44.3949 46.811 44.8671L48.3005 57.6414L51.3258 55.7595C51.6822 55.5306 51.9605 55.1947 52.1227 54.798C52.2858 54.3597 52.343 53.8876 52.2894 53.4219" fill="#B7BEC5"/>
<path d="M45.422 51.7942L42.3967 53.6761C42.0444 53.9109 41.7717 54.251 41.6159 54.6501C41.4494 55.0832 41.3867 55.5508 41.4332 56.0137L42.0688 61.5624L45.08 59.6824C45.4366 59.4479 45.7141 59.1073 45.875 58.7065C46.047 58.2704 46.1044 57.796 46.0416 57.3303" fill="#B7BEC5"/>
</svg>
