<svg width="24" height="24" viewBox="0 0 24 24" fill="none" xmlns="http://www.w3.org/2000/svg">
<path d="M19 23H6C5.20435 23 4.44129 22.6839 3.87868 22.1213C3.31607 21.5587 3 20.7956 3 20V4C3 3.20435 3.31607 2.44129 3.87868 1.87868C4.44129 1.31607 5.20435 1 6 1H11.5C12.1491 1 12.7807 1.21053 13.3 1.6L20.8 7.25C21.1726 7.52944 21.475 7.89179 21.6833 8.30836C21.8916 8.72493 22 9.18426 22 9.65V20C22 20.7956 21.6839 21.5587 21.1213 22.1213C20.5587 22.6839 19.7956 23 19 23ZM6 3C5.73478 3 5.48043 3.10536 5.29289 3.29289C5.10536 3.48043 5 3.73478 5 4V20C5 20.2652 5.10536 20.5196 5.29289 20.7071C5.48043 20.8946 5.73478 21 6 21H19C19.2652 21 19.5196 20.8946 19.7071 20.7071C19.8946 20.5196 20 20.2652 20 20V9.65C20 9.49475 19.9639 9.34164 19.8944 9.20279C19.825 9.06393 19.7242 8.94315 19.6 8.85L12.1 3.2C11.9269 3.07018 11.7164 3 11.5 3H6Z" fill="currentColor"/>
<path d="M12.5 19C12.358 18.9998 12.2177 18.9694 12.0884 18.9108C11.959 18.8522 11.8437 18.7667 11.75 18.66L8.24999 14.66C8.15648 14.5627 8.08364 14.4474 8.03588 14.3211C7.98812 14.1949 7.96641 14.0602 7.97207 13.9254C7.97773 13.7905 8.01064 13.6582 8.06881 13.5363C8.12699 13.4145 8.20922 13.3058 8.31056 13.2166C8.4119 13.1274 8.53025 13.0597 8.65847 13.0174C8.78669 12.9752 8.92213 12.9594 9.05663 12.9709C9.19113 12.9825 9.3219 13.0211 9.44106 13.0846C9.56022 13.148 9.66531 13.2349 9.74999 13.34L12.5 16.48L15.25 13.34C15.4285 13.1542 15.6718 13.0444 15.9293 13.0336C16.1867 13.0228 16.4384 13.1118 16.6318 13.282C16.8253 13.4522 16.9455 13.6906 16.9675 13.9473C16.9895 14.204 16.9116 14.4593 16.75 14.66L13.25 18.66C13.1563 18.7667 13.0409 18.8522 12.9116 18.9108C12.7823 18.9694 12.642 18.9998 12.5 19Z" fill="currentColor"/>
<path d="M12.5 18C12.2348 18 11.9804 17.8946 11.7929 17.7071C11.6054 17.5196 11.5 17.2652 11.5 17V11C11.5 10.7348 11.6054 10.4804 11.7929 10.2929C11.9804 10.1054 12.2348 10 12.5 10C12.7652 10 13.0196 10.1054 13.2071 10.2929C13.3946 10.4804 13.5 10.7348 13.5 11V17C13.5 17.2652 13.3946 17.5196 13.2071 17.7071C13.0196 17.8946 12.7652 18 12.5 18Z" fill="currentColor"/>
<path d="M20 9H16C14.9391 9 13.9217 8.57857 13.1716 7.82843C12.4214 7.07828 12 6.06087 12 5V3H14V5C14 5.53043 14.2107 6.03914 14.5858 6.41421C14.9609 6.78929 15.4696 7 16 7H20V9Z" fill="currentColor"/>
</svg>
