<svg width="24" height="24" viewBox="0 0 24 24" fill="none" xmlns="http://www.w3.org/2000/svg">
<path fill-rule="evenodd" clip-rule="evenodd" d="M16.4893 14.18L14.5201 12.2108C14.4263 12.1178 14.3519 12.0072 14.3012 11.8854C14.2504 11.7635 14.2243 11.6328 14.2243 11.5008C14.2243 11.3688 14.2504 11.2381 14.3012 11.1162C14.3519 10.9944 14.4263 10.8838 14.5201 10.7908C14.7074 10.6045 14.9609 10.5 15.2251 10.5C15.4893 10.5 15.7427 10.6045 15.9301 10.7908L19.5301 14.3908C19.7163 14.5782 19.8209 14.8316 19.8209 15.0958C19.8209 15.36 19.7163 15.6134 19.5301 15.8008L15.8201 19.4708C15.7266 19.5635 15.6158 19.6368 15.494 19.6866C15.3721 19.7363 15.2417 19.7616 15.1101 19.7608C14.9123 19.76 14.7192 19.7005 14.5552 19.5899C14.3912 19.4794 14.2637 19.3227 14.1888 19.1396C14.1139 18.9566 14.0949 18.7555 14.1343 18.5617C14.1737 18.3678 14.2696 18.1901 14.4101 18.0508L16.3126 16.18H8.39973C7.29112 16.18 6.22792 15.7396 5.44402 14.9557C4.66012 14.1718 4.21973 13.1086 4.21973 12V5C4.21973 4.73478 4.32508 4.48043 4.51262 4.29289C4.70016 4.10536 4.95451 4 5.21973 4C5.48494 4 5.7393 4.10536 5.92683 4.29289C6.11437 4.48043 6.21973 4.73478 6.21973 5V12C6.22236 12.5774 6.45288 13.1303 6.86114 13.5386C7.2694 13.9468 7.82236 14.1774 8.39973 14.18H16.4893Z" fill="#B7BEC5"/>
</svg>
