<svg width="17" height="16" viewBox="0 0 17 16" fill="none"
    xmlns="http://www.w3.org/2000/svg">
    <path fill-rule="evenodd" clip-rule="evenodd" d="M6.34271 0.670044C6.39166 0.564263 6.45917 0.466858 6.54317 0.382859C6.7307 0.195323 6.98506 0.0899658 7.25027 0.0899658H9.75027C10.0155 0.0899658 10.2698 0.195323 10.4574 0.382859C10.5414 0.466858 10.6089 0.564263 10.6578 0.670044H13.9703C14.2355 0.670044 14.4898 0.775401 14.6774 0.962937C14.8649 1.15047 14.9703 1.40483 14.9703 1.67004C14.9703 1.93526 14.8649 2.18961 14.6774 2.37715C14.4898 2.56469 14.2355 2.67004 13.9703 2.67004H3.03027C2.76506 2.67004 2.5107 2.56469 2.32317 2.37715C2.13563 2.18961 2.03027 1.93526 2.03027 1.67004C2.03027 1.40483 2.13563 1.15047 2.32317 0.962937C2.5107 0.775401 2.76506 0.670044 3.03027 0.670044H6.34271ZM7.03027 15.77H9.97027C11.0692 15.77 12.1232 15.3341 12.9012 14.558C13.6792 13.7819 14.1176 12.7289 14.1203 11.63V4.33997C14.1203 4.07475 14.0149 3.8204 13.8274 3.63286C13.6398 3.44532 13.3855 3.33997 13.1203 3.33997C12.8551 3.33997 12.6007 3.44532 12.4132 3.63286C12.2256 3.8204 12.1203 4.07475 12.1203 4.33997V11.63C12.1176 12.1984 11.8899 12.7427 11.487 13.1438C11.0841 13.5448 10.5388 13.77 9.97027 13.77H7.03027C6.46178 13.77 5.91643 13.5448 5.51352 13.1438C5.1106 12.7427 4.88292 12.1984 4.88027 11.63V4.33997C4.88027 4.07475 4.77491 3.8204 4.58738 3.63286C4.39984 3.44532 4.14549 3.33997 3.88027 3.33997C3.61506 3.33997 3.3607 3.44532 3.17317 3.63286C2.98563 3.8204 2.88027 4.07475 2.88027 4.33997V11.63C2.88292 12.7289 3.32132 13.7819 4.09931 14.558C4.8773 15.3341 5.93135 15.77 7.03027 15.77ZM6.93027 12.11C6.66506 12.11 6.4107 12.0046 6.22317 11.8171C6.03563 11.6295 5.93027 11.3752 5.93027 11.11V5.82996C5.93027 5.56474 6.03563 5.31039 6.22317 5.12285C6.4107 4.93531 6.66506 4.82996 6.93027 4.82996C7.19549 4.82996 7.44985 4.93531 7.63738 5.12285C7.82492 5.31039 7.93027 5.56474 7.93027 5.82996V11.11C7.93027 11.3752 7.82492 11.6295 7.63738 11.8171C7.44985 12.0046 7.19549 12.11 6.93027 12.11ZM10.0703 12.11C9.80506 12.11 9.5507 12.0046 9.36317 11.8171C9.17563 11.6295 9.07027 11.3752 9.07027 11.11V5.82996C9.07027 5.56474 9.17563 5.31039 9.36317 5.12285C9.5507 4.93531 9.80506 4.82996 10.0703 4.82996C10.3355 4.82996 10.5898 4.93531 10.7774 5.12285C10.9649 5.31039 11.0703 5.56474 11.0703 5.82996V11.11C11.0703 11.3752 10.9649 11.6295 10.7774 11.8171C10.5898 12.0046 10.3355 12.11 10.0703 12.11Z" fill="currentColor"/>
</svg>
