<svg width="25" height="24" viewBox="0 0 25 24" fill="none"
    xmlns="http://www.w3.org/2000/svg">
    <path d="M16.86 21.9H8.14C7.66293 21.9026 7.19005 21.8109 6.74854 21.6302C6.30703 21.4495 5.9056 21.1832 5.56733 20.8468C5.22907 20.5104 4.96063 20.1105 4.77746 19.6699C4.59429 19.2294 4.49999 18.7571 4.5 18.28V5.72C4.49999 5.24293 4.59429 4.77056 4.77746 4.33005C4.96063 3.88954 5.22907 3.48959 5.56733 3.15318C5.9056 2.81677 6.30703 2.55054 6.74854 2.3698C7.19005 2.18905 7.66293 2.09736 8.14 2.1H11.92C12.5201 2.10718 13.1021 2.307 13.58 2.67L19.5 7.27C19.8147 7.52598 20.068 7.84937 20.2411 8.21629C20.4141 8.58321 20.5026 8.98431 20.5 9.39V18.28C20.5 18.7571 20.4057 19.2294 20.2225 19.6699C20.0394 20.1105 19.7709 20.5104 19.4327 20.8468C19.0944 21.1832 18.693 21.4495 18.2515 21.6302C17.8099 21.8109 17.3371 21.9026 16.86 21.9ZM8.14 4.1C7.92558 4.09735 7.71277 4.1373 7.51391 4.21753C7.31505 4.29775 7.13409 4.41666 6.98154 4.56736C6.82898 4.71805 6.70786 4.89754 6.6252 5.0954C6.54254 5.29326 6.49998 5.50557 6.5 5.72V18.28C6.49998 18.4944 6.54254 18.7067 6.6252 18.9046C6.70786 19.1025 6.82898 19.2819 6.98154 19.4326C7.13409 19.5833 7.31505 19.7022 7.51391 19.7825C7.71277 19.8627 7.92558 19.9026 8.14 19.9H16.86C17.0744 19.9026 17.2872 19.8627 17.4861 19.7825C17.685 19.7022 17.8659 19.5833 18.0185 19.4326C18.171 19.2819 18.2921 19.1025 18.3748 18.9046C18.4575 18.7067 18.5 18.4944 18.5 18.28V9.39C18.4996 9.28528 18.475 9.18206 18.4282 9.08839C18.3814 8.99473 18.3135 8.91314 18.23 8.85L12.36 4.25C12.2416 4.15278 12.0932 4.09975 11.94 4.1H8.14Z" fill="currentColor"/>
    <path d="M14.8596 15.67H10.1396C9.87443 15.67 9.62008 15.5647 9.43254 15.3771C9.245 15.1896 9.13965 14.9352 9.13965 14.67C9.13965 14.4048 9.245 14.1504 9.43254 13.9629C9.62008 13.7754 9.87443 13.67 10.1396 13.67H14.8596C15.1249 13.67 15.3792 13.7754 15.5668 13.9629C15.7543 14.1504 15.8596 14.4048 15.8596 14.67C15.8596 14.9352 15.7543 15.1896 15.5668 15.3771C15.3792 15.5647 15.1249 15.67 14.8596 15.67Z" fill="currentColor"/>
    <path d="M19.1 9.57001H12.5C12.2348 9.57001 11.9804 9.46465 11.7929 9.27711C11.6054 9.08958 11.5 8.83522 11.5 8.57001V3.57001C11.5 3.30479 11.6054 3.05044 11.7929 2.8629C11.9804 2.67536 12.2348 2.57001 12.5 2.57001C12.7652 2.57001 13.0196 2.67536 13.2071 2.8629C13.3946 3.05044 13.5 3.30479 13.5 3.57001V7.57001H19.1C19.3652 7.57001 19.6196 7.67536 19.8071 7.8629C19.9946 8.05044 20.1 8.30479 20.1 8.57001C20.1 8.83522 19.9946 9.08958 19.8071 9.27711C19.6196 9.46465 19.3652 9.57001 19.1 9.57001Z" fill="currentColor"/>
</svg>
