<svg width="24" height="24" viewBox="0 0 24 24" fill="none" xmlns="http://www.w3.org/2000/svg">
<path d="M19.7002 7.13001C19.4349 7.13001 19.1806 7.02465 18.993 6.83711C18.8055 6.64958 18.7002 6.39522 18.7002 6.13001V4.80001C18.6563 4.0677 18.3247 3.38242 17.7778 2.89353C17.2308 2.40463 16.5128 2.15175 15.7802 2.19001H8.57016C7.83922 2.15447 7.12375 2.40857 6.57897 2.89719C6.03419 3.38581 5.70404 4.06952 5.66016 4.80001V6.13001C5.66016 6.39522 5.5548 6.64958 5.36726 6.83711C5.17973 7.02465 4.92537 7.13001 4.66016 7.13001C4.39494 7.13001 4.14059 7.02465 3.95305 6.83711C3.76551 6.64958 3.66016 6.39522 3.66016 6.13001V4.80001C3.70194 3.53826 4.2422 2.34453 5.16255 1.48041C6.08291 0.616293 7.30828 0.152262 8.57016 0.190007H15.7802C17.043 0.152223 18.2695 0.615943 19.1914 1.4798C20.1133 2.34365 20.6558 3.53737 20.7002 4.80001V6.13001C20.7002 6.39522 20.5948 6.64958 20.4073 6.83711C20.2197 7.02465 19.9654 7.13001 19.7002 7.13001Z" fill="#EF5630"/>
<path d="M15.7806 23.81H8.57061C7.45557 23.8358 6.36585 23.4756 5.48576 22.7905C4.60566 22.1054 3.98919 21.1373 3.74061 20.05C3.6907 19.7901 3.74582 19.5211 3.89389 19.3018C4.04197 19.0825 4.27093 18.9308 4.53061 18.88C4.78904 18.8298 5.05682 18.8836 5.27586 19.0296C5.49489 19.1757 5.64752 19.4022 5.70061 19.66C5.85878 20.2938 6.23058 20.8536 6.75336 21.2453C7.27614 21.6369 7.91794 21.8363 8.57061 21.81H15.7806C16.4382 21.8387 17.0851 21.6365 17.6093 21.2383C18.1335 20.8402 18.5018 20.2712 18.6506 19.63C18.6997 19.3648 18.8521 19.1299 19.0743 18.9771C19.2965 18.8242 19.5704 18.7659 19.8356 18.815C20.1008 18.8641 20.3357 19.0165 20.4885 19.2387C20.6414 19.4609 20.6997 19.7348 20.6506 20C20.4126 21.1044 19.795 22.0903 18.9052 22.7864C18.0154 23.4825 16.9098 23.8447 15.7806 23.81Z" fill="#EF5630"/>
<path d="M3.13086 17C2.86564 17 2.61129 16.8946 2.42375 16.7071C2.23622 16.5196 2.13086 16.2652 2.13086 16V10C2.13086 9.73478 2.23622 9.48043 2.42375 9.29289C2.61129 9.10535 2.86564 9 3.13086 9H5.32086C5.68858 8.97759 6.057 9.03067 6.40343 9.15597C6.74987 9.28127 7.067 9.47614 7.33531 9.7286C7.60361 9.98105 7.81742 10.2857 7.96356 10.6239C8.10971 10.9621 8.1851 11.3266 8.1851 11.695C8.1851 12.0634 8.10971 12.4279 7.96356 12.7661C7.81742 13.1043 7.60361 13.4089 7.33531 13.6614C7.067 13.9138 6.74987 14.1087 6.40343 14.234C6.057 14.3593 5.68858 14.4124 5.32086 14.39H4.13086V16C4.13086 16.2652 4.0255 16.5196 3.83797 16.7071C3.65043 16.8946 3.39608 17 3.13086 17ZM4.13086 12.44H5.32086C5.41913 12.4518 5.51878 12.4426 5.61325 12.4131C5.70771 12.3836 5.79484 12.3343 5.86889 12.2687C5.94293 12.203 6.0022 12.1224 6.04279 12.0321C6.08339 11.9418 6.10438 11.844 6.10438 11.745C6.10438 11.646 6.08339 11.5482 6.04279 11.4579C6.0022 11.3676 5.94293 11.287 5.86889 11.2213C5.79484 11.1556 5.70771 11.1064 5.61325 11.0769C5.51878 11.0474 5.41913 11.0382 5.32086 11.05H4.13086V12.44Z" fill="#EF5630"/>
<path d="M11.2793 17H10.2793C10.0141 17 9.75973 16.8946 9.57219 16.7071C9.38465 16.5196 9.2793 16.2652 9.2793 16V10C9.2793 9.73478 9.38465 9.48043 9.57219 9.29289C9.75973 9.10536 10.0141 9 10.2793 9H11.2793C12.0275 9.0053 12.7579 9.2285 13.3813 9.6423C14.0046 10.0561 14.4939 10.6426 14.7893 11.33C15.012 11.8428 15.1269 12.3959 15.1269 12.955C15.1269 13.5141 15.012 14.0672 14.7893 14.58C14.5066 15.2835 14.0229 15.8882 13.3987 16.3186C12.7745 16.7489 12.0374 16.9859 11.2793 17ZM11.2793 15C11.6534 14.9962 12.0177 14.8796 12.3246 14.6655C12.6314 14.4515 12.8666 14.1498 12.9993 13.8C13.1079 13.542 13.1639 13.2649 13.1639 12.985C13.1639 12.7051 13.1079 12.428 12.9993 12.17C12.86 11.825 12.621 11.5294 12.3129 11.321C12.0047 11.1126 11.6413 11.0008 11.2693 11L11.2793 15Z" fill="#EF5630"/>
<path d="M17.4199 17C17.1547 17 16.9004 16.8946 16.7128 16.7071C16.5253 16.5196 16.4199 16.2652 16.4199 16V10C16.4199 9.73478 16.5253 9.48043 16.7128 9.29289C16.9004 9.10536 17.1547 9 17.4199 9H21.2299C21.4951 9 21.7495 9.10536 21.937 9.29289C22.1246 9.48043 22.2299 9.73478 22.2299 10C22.2299 10.2652 22.1246 10.5196 21.937 10.7071C21.7495 10.8946 21.4951 11 21.2299 11H18.4199V16C18.4199 16.2652 18.3146 16.5196 18.127 16.7071C17.9395 16.8946 17.6851 17 17.4199 17Z" fill="#EF5630"/>
<path d="M20.3299 14.39H17.4199C17.1547 14.39 16.9004 14.2847 16.7128 14.0971C16.5253 13.9096 16.4199 13.6552 16.4199 13.39C16.4199 13.1248 16.5253 12.8704 16.7128 12.6829C16.9004 12.4954 17.1547 12.39 17.4199 12.39H20.3299C20.5951 12.39 20.8495 12.4954 21.037 12.6829C21.2246 12.8704 21.3299 13.1248 21.3299 13.39C21.3299 13.6552 21.2246 13.9096 21.037 14.0971C20.8495 14.2847 20.5951 14.39 20.3299 14.39Z" fill="#EF5630"/>
</svg>
