<svg width="140" height="140" viewBox="0 0 140 140" fill="none" xmlns="http://www.w3.org/2000/svg">
<path d="M70 140C108.66 140 140 108.66 140 70C140 31.3401 108.66 0 70 0C31.3401 0 0 31.3401 0 70C0 108.66 31.3401 140 70 140Z" fill="#F6F7F8"/>
<g opacity="0.75">
<path opacity="0.75" d="M99.958 73.3418L127.279 29.3557C123.553 23.9903 119.09 19.178 114.023 15.0605L76.0771 73.3418H99.958Z" fill="white"/>
</g>
<g opacity="0.75">
<path opacity="0.75" d="M0.24982 73.3419H25.7151L69.4115 0.0253906C57.1184 0.17535 45.0827 3.57485 34.5213 9.8802L0.609642 62.6458C0.339412 65.2239 0.208759 67.8147 0.218256 70.4069C0.218256 71.4063 0.218256 72.3741 0.24982 73.3419Z" fill="white"/>
</g>
<path d="M140 72.7998H0V74.1998H140V72.7998Z" fill="#B7BEC5"/>
<path d="M72.7998 74.2V0L71.3998 0V74.2H72.7998Z" fill="#B7BEC5"/>
<path d="M36.4 127.449C36.4 127.066 36.2519 126.698 35.988 126.427C35.7242 126.155 35.3661 126.002 34.992 126H28C30.6754 128.056 33.4816 129.927 36.4 131.6V127.449Z" fill="#ECEEF1"/>
<path d="M89.3385 66.1835L79.366 65.2762L80.6102 51.6004C81.0245 47.0469 77.6578 43.0062 73.1042 42.5919C68.5507 42.1776 64.51 45.5443 64.0957 50.0979L62.8515 63.7724L52.879 62.8651L54.1231 49.1905C55.0376 39.1391 63.9601 31.7048 74.0116 32.6193C84.063 33.5338 91.4973 42.4563 90.5828 52.5078L89.3385 66.1835Z" fill="#ECEEF1" stroke="#B7BEC5"/>
<path d="M75.4993 108.113L59.7019 106.675C50.0388 105.796 42.9182 97.2501 43.7974 87.587L45.7918 65.6665C45.9669 63.7415 47.6694 62.3229 49.5945 62.4981L93.4135 66.4849C95.3385 66.66 96.7571 68.3625 96.582 70.2876L94.5876 92.2081C93.7084 101.871 85.1622 108.992 75.4993 108.113Z" fill="#ECEEF1" stroke="#B7BEC5"/>
<path d="M76.3412 81.9892C76.6616 78.4675 74.0664 75.3527 70.5447 75.0323C67.023 74.7119 63.9082 77.3072 63.5878 80.8289C63.4134 82.746 64.1044 84.5414 65.3372 85.8322L62.7 96.3205L74.4186 97.3867L73.7176 86.5947C75.1631 85.5476 76.1668 83.9064 76.3412 81.9892Z" fill="#B7BEC5"/>
<path d="M73.7176 86.5944L74.419 97.3868L68.5597 96.8537L70.5449 75.0337C74.0659 75.354 76.662 78.4678 76.3415 81.9906C76.1671 83.907 75.1634 85.5481 73.7176 86.5944Z" fill="#D6DADF"/>
</svg>
