<svg width="16" height="16" viewBox="0 0 16 16" fill="none" xmlns="http://www.w3.org/2000/svg">
<path d="M9.01995 15.12C8.2602 15.1182 7.53208 14.8157 6.99485 14.2784C6.45763 13.7412 6.15504 13.0131 6.15328 12.2533V5.77333C6.13795 5.5148 6.17563 5.25586 6.26401 5.01242C6.3524 4.76899 6.48962 4.54619 6.66724 4.35771C6.84487 4.16924 7.05915 4.01907 7.29693 3.91643C7.53471 3.81378 7.79096 3.76084 8.04995 3.76084C8.30893 3.76084 8.56519 3.81378 8.80296 3.91643C9.04074 4.01907 9.25503 4.16924 9.43265 4.35771C9.61028 4.54619 9.7475 4.76899 9.83588 5.01242C9.92427 5.25586 9.96195 5.5148 9.94661 5.77333V11.5C9.94661 11.6768 9.87638 11.8464 9.75135 11.9714C9.62633 12.0964 9.45676 12.1667 9.27995 12.1667C9.10314 12.1667 8.93357 12.0964 8.80854 11.9714C8.68352 11.8464 8.61328 11.6768 8.61328 11.5V5.77333C8.6219 5.69421 8.61376 5.61415 8.58938 5.53839C8.565 5.46262 8.52493 5.39284 8.47178 5.33359C8.41864 5.27433 8.3536 5.22694 8.28092 5.1945C8.20824 5.16206 8.12954 5.14529 8.04995 5.14529C7.97035 5.14529 7.89165 5.16206 7.81897 5.1945C7.74629 5.22694 7.68126 5.27433 7.62811 5.33359C7.57497 5.39284 7.5349 5.46262 7.51052 5.53839C7.48614 5.61415 7.47799 5.69421 7.48661 5.77333V12.2533C7.48661 12.66 7.64816 13.05 7.93572 13.3376C8.22327 13.6251 8.61328 13.7867 9.01995 13.7867C9.42661 13.7867 9.81662 13.6251 10.1042 13.3376C10.3917 13.05 10.5533 12.66 10.5533 12.2533V4.38C10.5533 3.70281 10.2843 3.05336 9.80543 2.57452C9.32658 2.09568 8.67713 1.82667 7.99995 1.82667C7.32276 1.82667 6.67331 2.09568 6.19447 2.57452C5.71563 3.05336 5.44661 3.70281 5.44661 4.38V11.5C5.44661 11.6768 5.37638 11.8464 5.25135 11.9714C5.12633 12.0964 4.95676 12.1667 4.77995 12.1667C4.60314 12.1667 4.43357 12.0964 4.30854 11.9714C4.18352 11.8464 4.11328 11.6768 4.11328 11.5V4.38C4.11328 3.34919 4.52277 2.3606 5.25166 1.63171C5.98055 0.902819 6.96914 0.493332 7.99995 0.493332C9.03076 0.493332 10.0193 0.902819 10.7482 1.63171C11.4771 2.3606 11.8866 3.34919 11.8866 4.38V12.2533C11.8849 13.0131 11.5823 13.7412 11.045 14.2784C10.5078 14.8157 9.77969 15.1182 9.01995 15.12Z" fill="currentColor"/>
</svg>
