<svg width="16" height="16" viewBox="0 0 16 16" fill="none"
    xmlns="http://www.w3.org/2000/svg">
    <g clip-path="url(#clip0)">
        <path d="M12 7.70999C12.0057 7.85867 11.9781 8.00674 11.9193 8.14341C11.8604 8.28008 11.7719 8.4019 11.66 8.49999L5.65999 13.79C5.45932 13.9516 5.204 14.0296 4.94728 14.0075C4.69055 13.9855 4.45223 13.8653 4.282 13.6718C4.11178 13.4784 4.02279 13.2267 4.0336 12.9693C4.0444 12.7118 4.15416 12.4685 4.33999 12.29L9.49999 7.67999L4.28999 2.67999C4.12123 2.49234 4.02966 2.24781 4.03366 1.99547C4.03766 1.74312 4.13693 1.50162 4.31155 1.3194C4.48617 1.13719 4.72323 1.02774 4.97518 1.01301C5.22713 0.998284 5.47533 1.07937 5.66999 1.23999L11.67 6.94999C11.7761 7.04573 11.8605 7.16311 11.9174 7.29421C11.9743 7.42531 12.0025 7.56709 12 7.70999Z" fill="currentColor"/>
    </g>
    <defs>
        <clipPath id="clip0">
            <rect width="13" height="8" fill="white" transform="translate(4 14) rotate(-90)"/>
        </clipPath>
    </defs>
</svg>
