<svg width="150" height="37" viewBox="0 0 150 37" fill="none" xmlns="http://www.w3.org/2000/svg">
<path d="M80.0565 10.8475C79.8037 10.5112 79.5509 10.343 79.1295 10.1748C78.7925 10.0066 78.5396 9.83846 78.1183 9.75436C77.7812 9.67027 77.5284 9.58618 77.1913 9.58618C76.8543 9.58618 76.6857 9.58618 76.3486 9.58618H72.1352L68.8486 26.2362H73.5677C74.1576 26.2362 74.8318 26.1521 75.5902 26.068C76.3486 25.8998 77.1071 25.6475 77.7812 25.0589C78.3711 24.6385 78.8767 24.0498 79.2981 23.3771C79.7194 22.6203 79.888 21.7794 79.888 20.8544C79.888 20.3498 79.8037 19.7612 79.6352 19.4248C79.4666 19.0044 79.2981 18.7521 79.1295 18.4157C78.961 18.1635 78.7082 17.9953 78.3711 17.6589C78.2868 17.6589 78.2868 17.5748 78.2026 17.5748C78.5397 17.4066 78.7925 17.2385 79.0453 17.0703C79.5509 16.6498 80.0565 16.1453 80.3093 15.7248C80.4779 15.3885 80.6464 15.0521 80.7307 14.6316C80.8149 14.2112 80.8992 13.7907 80.8992 13.3703C80.8992 12.7816 80.8149 12.2771 80.6464 11.8566C80.4778 11.4362 80.225 11.1839 80.0565 10.8475ZM76.8543 19.4248C77.1071 19.6771 77.1913 19.8453 77.2756 20.0135C77.3599 20.1816 77.3599 20.518 77.3599 20.7703C77.3599 21.2748 77.2756 21.6953 77.0228 22.1157C76.8543 22.5362 76.6014 22.7885 76.3486 23.1248C75.843 23.5453 75.4217 23.7975 75.0003 23.8816C74.4947 23.9657 73.9048 24.0498 73.4835 24.0498H71.6295L72.725 18.8362H74.8318C75.1689 18.8362 75.5059 18.9203 75.9273 19.0044C76.3486 19.0044 76.6857 19.2566 76.8543 19.4248ZM75.0003 16.6498H73.0621L73.9891 11.8566H76.1801C76.6014 11.8566 76.9385 11.9407 77.2756 12.0248C77.5284 12.1089 77.697 12.2771 77.8655 12.3612C78.2026 12.6975 78.2868 12.9498 78.2868 13.4544C78.2868 13.7907 78.2026 13.9589 78.1183 14.2953C78.034 14.6316 77.8655 14.7998 77.7812 15.0521C77.6127 15.3044 77.4441 15.4725 77.3599 15.6407C77.1913 15.8089 77.0228 15.9771 76.8543 16.0612C76.4329 16.3135 76.1801 16.4816 75.843 16.4816C75.6745 16.5657 75.3374 16.6498 75.0003 16.6498Z" fill="#204177"/>
<path d="M90.0849 13.875L88.7366 20.9386C88.6523 21.275 88.5681 21.5273 88.3995 21.8636C88.231 22.2 88.1467 22.3682 87.9782 22.5364C87.8096 22.7886 87.6411 22.9568 87.5568 23.0409C87.3883 23.2091 87.304 23.2932 87.1355 23.4614C86.5456 24.05 85.7872 24.3864 84.8602 24.3864C84.5231 24.3864 84.3546 24.3864 84.1861 24.3023C84.0175 24.2182 83.849 24.1341 83.7647 24.05C83.6804 23.9659 83.5962 23.8818 83.5962 23.7977C83.5119 23.7136 83.5119 23.5455 83.5119 23.4614C83.5119 23.2932 83.4276 23.2091 83.4276 23.125C83.4276 22.9568 83.4276 22.8727 83.4276 22.7886C83.4276 22.4523 83.4276 22.3682 83.5119 22.2C83.5119 21.9477 83.5962 21.7795 83.5962 21.6955L85.113 13.9591H82.8377L81.4051 21.3591C81.3209 21.6114 81.3209 21.8636 81.2366 22.1159C81.1523 22.3682 81.1523 22.6205 81.1523 22.9568C81.1523 23.4614 81.2366 23.9659 81.4051 24.3864C81.5737 24.8909 81.8265 25.3114 82.3321 25.7318C82.7535 26.0682 83.0905 26.2364 83.5119 26.3205C83.9332 26.4045 84.2703 26.4886 84.7759 26.4886C85.4501 26.4886 86.04 26.4045 86.6299 26.1523C87.0512 25.9 87.4726 25.7318 87.8096 25.5636C87.9782 25.4795 88.1467 25.3114 88.231 25.2273L87.9782 26.3205H90.1692L90.6748 23.2932L92.5287 13.875H90.0849Z" fill="#204177"/>
<path d="M101.63 14.2952C101.208 14.043 100.703 13.8748 100.197 13.8748C99.3543 13.7066 98.2588 13.6225 97.1633 13.8748C96.6577 13.9589 96.0678 14.2112 95.6465 14.4634C95.1408 14.7998 94.7195 15.3043 94.3824 15.8089C94.0453 16.3134 93.9611 16.9862 93.9611 17.4907C93.9611 17.8271 94.0453 18.1634 94.2139 18.5839C94.3824 19.0043 94.6352 19.4248 95.1408 19.8452C95.3094 20.0134 95.5622 20.1816 95.815 20.2657C96.0678 20.3498 96.4892 20.6862 97.079 20.8543C97.3319 21.0225 97.5847 21.1066 97.8375 21.2748C98.0903 21.3589 98.2588 21.5271 98.2588 21.6952C98.3431 21.7793 98.4274 21.9475 98.4274 22.0316C98.4274 22.1157 98.5116 22.2839 98.5116 22.368C98.5116 22.6202 98.4274 22.7884 98.3431 23.0407C98.2588 23.293 98.0903 23.4612 97.9217 23.7134C97.5847 24.0498 97.3319 24.1339 96.9105 24.218C96.4892 24.3021 96.1521 24.3862 95.815 24.3862C95.3936 24.3862 94.9723 24.3021 94.551 24.218C94.1296 24.1339 93.7083 23.9657 93.2869 23.7975L92.7813 23.5452L92.1914 25.7316L92.6128 25.8998C93.1184 26.1521 93.624 26.3202 94.1296 26.3202C94.6352 26.3202 95.2251 26.4884 95.7307 26.4884C96.3206 26.4884 96.9948 26.4043 97.5847 26.2362C98.1746 26.068 98.8487 25.8157 99.3543 25.3952C99.9442 24.9748 100.45 24.3862 100.618 23.7975C100.871 23.293 100.955 22.7043 100.955 22.2839C100.955 21.443 100.618 20.6862 100.113 20.0975C99.8599 19.8452 99.6071 19.6771 99.2701 19.5089C98.933 19.3407 98.6802 19.0884 98.2588 19.0043C97.5847 18.668 96.9948 18.4157 96.8262 18.1634C96.5734 17.9952 96.4892 17.743 96.4892 17.4907C96.4892 17.0702 96.5734 16.9021 96.742 16.7339C96.9948 16.3975 97.1633 16.3134 97.1633 16.3134C97.4161 16.1452 97.6689 15.9771 97.9217 15.9771C98.2588 15.893 98.4274 15.893 98.7644 15.893C99.1858 15.893 99.6071 15.893 100.028 15.9771C100.45 16.0612 100.787 16.2293 101.208 16.3975L101.63 16.6498L102.219 14.5475L101.63 14.2952Z" fill="#204177"/>
<path d="M107.697 9.67041H105.253L104.579 12.3613H107.107L107.697 9.67041Z" fill="#204177"/>
<path d="M101.883 26.3205H104.327L106.77 13.875H104.411L101.883 26.3205Z" fill="#204177"/>
<path d="M117.472 14.5475C117.051 14.2111 116.629 13.9588 116.208 13.8747C115.786 13.7906 115.365 13.7065 114.86 13.7065C114.354 13.7065 113.764 13.7906 113.427 13.9588C113.006 14.127 112.5 14.3793 112.163 14.5475C111.91 14.7156 111.742 14.8838 111.489 15.052L111.742 13.8747H109.551L109.045 16.902L107.022 26.4043H109.298L110.646 19.3406C110.815 18.752 110.983 18.1634 111.236 17.827C111.573 17.4065 111.826 17.0702 112.163 16.8179C112.5 16.4815 112.837 16.3975 113.258 16.2293C113.68 16.0611 114.017 15.977 114.438 15.977C114.775 15.977 114.944 15.977 115.112 16.0611C115.281 16.1452 115.449 16.2293 115.534 16.3134C115.618 16.3975 115.786 16.4815 115.786 16.5656C115.871 16.6497 115.955 16.8179 115.955 16.902C116.039 17.1543 116.124 17.4065 116.124 17.7429C116.124 17.9952 116.124 18.1634 116.039 18.3315C116.039 18.5838 115.955 18.752 115.955 18.8361L114.438 26.4884H116.713L118.23 19.0043C118.399 18.4156 118.399 17.827 118.399 17.3225C118.399 16.902 118.315 16.3975 118.146 15.977C118.146 15.3043 117.809 14.9679 117.472 14.5475Z" fill="#204177"/>
<path d="M126.32 24.2181C125.815 24.3022 125.225 24.3863 124.635 24.3863C124.298 24.3863 123.961 24.3022 123.455 24.2181C123.034 24.134 122.781 23.8817 122.528 23.6295C122.191 23.2931 122.107 22.8726 122.023 22.284C121.938 21.8635 121.938 21.359 122.023 20.9385H130.028L130.281 19.7613C130.365 19.3408 130.45 19.0045 130.45 18.4999C130.534 18.0795 130.534 17.659 130.45 17.1545C130.365 16.6499 130.281 16.2295 130.113 15.809C129.944 15.3885 129.691 14.9681 129.27 14.5476C128.933 14.2113 128.511 13.959 128.006 13.7067C127.5 13.4545 126.91 13.3704 126.236 13.3704C125.478 13.3704 124.635 13.5385 123.877 13.7908C123.118 14.1272 122.275 14.7158 121.517 15.5567C120.843 16.3135 120.337 17.1545 120.084 18.1635C119.747 19.0885 119.663 20.0976 119.663 21.0226C119.663 21.8635 119.747 22.5363 120 23.1249C120.253 23.6295 120.422 24.134 120.674 24.4704C120.927 24.8908 121.18 25.059 121.601 25.3113C121.938 25.5635 122.275 25.7317 122.613 25.8158C122.95 25.984 123.287 26.0681 123.708 26.0681C124.045 26.1522 124.298 26.1522 124.635 26.1522C125.225 26.1522 125.899 26.0681 126.405 25.984C126.91 25.8999 127.5 25.6476 128.006 25.5635L128.259 25.4795L128.764 23.0408L127.922 23.4613C127.332 23.8817 126.91 24.0499 126.32 24.2181ZM122.528 18.8363C122.613 18.584 122.781 18.3317 122.865 18.0795C123.118 17.659 123.287 17.3226 123.624 16.9863C123.961 16.5658 124.298 16.3976 124.719 16.1454C125.141 15.8931 125.646 15.809 126.152 15.809C126.32 15.809 126.573 15.809 126.91 15.8931C127.163 15.9772 127.332 16.1454 127.584 16.3135C127.922 16.6499 128.006 16.9863 128.006 17.5749C128.006 17.9954 128.006 18.4158 127.922 18.9204L122.528 18.8363Z" fill="#204177"/>
<path d="M134.832 16.2293C135.085 16.0612 135.253 15.893 135.59 15.893C135.927 15.8089 136.096 15.8089 136.433 15.8089C136.854 15.8089 137.276 15.8089 137.697 15.893C138.118 15.9771 138.455 16.1452 138.877 16.3134L139.298 16.5657L139.888 14.4634L139.467 14.2952C139.045 14.043 138.54 13.8748 138.034 13.8748C137.191 13.7066 136.096 13.6225 135 13.8748C134.495 13.9589 133.905 14.2112 133.483 14.4634C132.978 14.7998 132.556 15.3043 132.219 15.8089C131.882 16.3134 131.798 16.9862 131.798 17.4907C131.798 17.8271 131.882 18.1634 132.051 18.5839C132.219 19.0043 132.472 19.4248 132.978 19.8452C133.146 20.0134 133.399 20.1816 133.652 20.2657C133.989 20.4339 134.326 20.6862 134.916 20.8543C135.169 21.0225 135.422 21.1066 135.674 21.2748C135.927 21.3589 136.096 21.5271 136.096 21.6952C136.18 21.7793 136.264 21.9475 136.264 22.0316C136.264 22.1157 136.349 22.2839 136.349 22.368C136.349 22.6202 136.264 22.7884 136.18 23.0407C136.096 23.293 135.927 23.4612 135.759 23.7134C135.422 24.0498 135.169 24.1339 134.747 24.218C134.326 24.3021 133.989 24.3862 133.652 24.3862C133.231 24.3862 132.809 24.3021 132.388 24.218C131.967 24.1339 131.545 23.9657 131.124 23.7975L130.618 23.5452L130.028 25.7316L130.45 25.8998C130.955 26.1521 131.461 26.3202 131.967 26.3202C132.472 26.4043 133.062 26.4884 133.568 26.4884C134.158 26.4884 134.832 26.4043 135.422 26.2362C136.011 26.068 136.686 25.8157 137.191 25.3952C137.781 24.9748 138.287 24.3862 138.455 23.7975C138.708 23.293 138.792 22.7043 138.792 22.2839C138.792 21.443 138.455 20.6862 137.95 20.0975C137.697 19.8452 137.444 19.6771 137.107 19.5089C136.77 19.3407 136.517 19.0884 136.096 19.0043C135.422 18.668 134.832 18.4157 134.663 18.1634C134.41 17.9952 134.326 17.743 134.326 17.4907C134.326 17.0702 134.41 16.9021 134.579 16.7339C134.663 16.3134 134.747 16.2293 134.832 16.2293Z" fill="#204177"/>
<path d="M148.736 14.2952C148.315 14.043 147.809 13.8748 147.303 13.8748C146.461 13.7066 145.365 13.6225 144.27 13.8748C143.764 13.9589 143.174 14.2112 142.753 14.4634C142.247 14.7998 141.826 15.3043 141.489 15.8089C141.152 16.3134 141.068 16.9862 141.068 17.4907C141.068 17.8271 141.152 18.1634 141.32 18.5839C141.489 19.0043 141.742 19.4248 142.247 19.8452C142.416 20.0134 142.669 20.1816 142.921 20.2657C143.259 20.4339 143.596 20.6862 144.185 20.8543C144.438 21.0225 144.691 21.1066 144.944 21.2748C145.197 21.3589 145.365 21.5271 145.365 21.6952C145.45 21.7793 145.534 21.9475 145.534 22.0316C145.534 22.1157 145.618 22.2839 145.618 22.368C145.618 22.6202 145.534 22.7884 145.45 23.0407C145.365 23.293 145.197 23.4612 145.028 23.7134C144.691 24.0498 144.438 24.1339 144.017 24.218C143.596 24.3021 143.259 24.3862 142.921 24.3862C142.5 24.3862 142.079 24.3021 141.657 24.218C141.236 24.1339 140.815 23.9657 140.393 23.7975L139.888 23.5452L139.298 25.7316L139.719 25.8998C140.225 26.1521 140.73 26.3202 141.236 26.3202C141.742 26.4043 142.332 26.4884 142.837 26.4884C143.427 26.4884 144.101 26.4043 144.691 26.2362C145.281 26.068 145.955 25.8157 146.461 25.3952C147.051 24.9748 147.556 24.3862 147.725 23.7975C147.978 23.293 148.062 22.7043 148.062 22.2839C148.062 21.443 147.725 20.6862 147.219 20.0975C146.966 19.8452 146.714 19.6771 146.376 19.5089C146.039 19.3407 145.787 19.0884 145.365 19.0043C144.691 18.668 144.101 18.4157 143.933 18.1634C143.68 17.9952 143.596 17.743 143.596 17.4907C143.596 17.0702 143.68 16.9021 143.848 16.7339C144.101 16.3975 144.27 16.3134 144.27 16.3134C144.523 16.1452 144.775 15.9771 145.028 15.9771C145.365 15.893 145.534 15.893 145.871 15.893C146.292 15.893 146.714 15.893 147.135 15.9771C147.556 16.0612 147.893 16.2293 148.315 16.3975L148.736 16.6498L149.326 14.5475L148.736 14.2952Z" fill="#204177"/>
<path d="M51.5731 16.8183L50.899 20.1819H43.9046L42.7248 26.741H38.3428L41.3765 10.3433H52.6686L52.163 13.6228H45.1686L44.5787 16.8183H51.5731Z" fill="#204177"/>
<path d="M16.4322 21.3592H20.0558L18.9603 17.6592L16.4322 21.3592ZM14.6625 24.5546L13.1457 26.741H9.35352L20.2243 10.3433H20.6456L25.2805 26.741H21.3198L20.8142 24.5546H14.6625Z" fill="#204177"/>
<path d="M38.5956 10.3433H27.9776L27.3877 13.6228H30.6742L28.0619 26.741H31.854L34.7192 13.5387C35.8147 13.5387 36.9102 13.5387 38.0057 13.5387L38.5956 10.3433Z" fill="#204177"/>
<path d="M54.7754 10.5954L55.0282 10.8477L55.281 11.1L55.6181 11.4363L55.8709 11.6886L56.0394 12.109L56.2922 12.3613L56.545 12.7818L56.7978 13.2022L56.8821 13.6227L57.0506 14.1272L57.2192 14.4636L57.3035 14.9681L57.472 15.4727L57.5563 15.8931V16.4818L57.6405 16.9022V17.4909V17.9954L57.5563 18.5L57.472 19.0045L57.3035 19.509L57.2192 20.0977L57.0506 20.6022L56.7978 21.1909L56.6293 21.6954L56.3765 22.1159L56.0394 22.7045L55.7023 23.125L55.3652 23.6295L54.9439 24.134L54.5225 24.6386L54.0169 24.975L52.8372 25.984L51.4888 26.909L50.0563 27.834L48.5394 28.675L46.9383 29.4318L45.2529 30.1886L43.4832 30.8613L41.6293 31.534L39.7754 32.1227L37.8372 32.6272L35.9832 33.0477L33.9608 33.4681L32.0226 33.7204L30.0001 33.9727L28.1461 34.225L26.2079 34.309L24.2697 34.3931H22.4158L20.5619 34.225L18.7922 34.0568L17.1068 33.7204L15.59 33.4681L14.0731 32.9636L12.6405 32.5431L11.3765 31.8704L10.1124 31.1977L9.1012 30.4409L8.17423 29.5159L7.41581 28.5909L6.82592 27.4977L6.40457 26.4045L6.15176 25.1431L6.06749 23.7977V22.5363L6.23603 21.275L6.48884 20.1818L6.91019 19.0045L7.33154 17.9113L8.0057 16.8181L8.67985 15.8931L9.35401 14.9681L10.1967 14.0431L11.1237 13.2022L12.1349 12.3613L13.1461 11.5204L14.2417 10.7636L15.2529 10.0068L16.4327 9.41814L17.6124 8.74541L18.7079 8.07268L19.8877 7.56814L21.1518 7.06359L22.2473 6.47496L23.427 6.0545L24.6068 5.54996L25.6181 5.21359L26.7136 4.79314L27.7248 4.37268L28.736 4.12041L29.663 3.78405L30.5057 3.53177L31.2641 3.2795L31.9383 3.02723L32.5282 2.77496L31.6012 4.54086L39.354 0.42041L30.0843 0.924956L32.1911 1.84996L31.4327 2.10223L30.6742 2.3545L29.7473 2.60677L28.9046 2.85905L27.9776 3.19541L26.9664 3.53177L25.9551 3.78405L24.9439 4.2045L23.9327 4.54086L22.9214 4.96132L21.8259 5.38177L20.6461 5.88632L19.5506 6.30677L18.5394 6.81132L17.3596 7.31586L16.2641 7.9045L15.1686 8.40905L14.1574 8.99768L13.0619 9.67041L11.9664 10.259L10.9551 10.9318L9.9439 11.6045L9.1012 12.3613L8.17423 13.034L7.24727 13.7909L6.40457 14.6318L5.64614 15.3886L4.80345 16.2295L4.12929 17.0704L3.5394 17.9954L2.94952 18.9204L2.35963 19.8454L2.19109 20.2659L2.02255 20.6863L1.85401 21.1068L1.68547 21.4431L1.51693 21.8636L1.34839 22.284L1.26412 22.7045L1.17985 22.9568L1.09558 23.3772L1.01131 23.7977L0.927043 24.134V24.5545L0.842773 24.8909V25.2272V25.5636V25.9L0.927043 26.3204V26.5727L1.01131 26.9931L1.17985 27.3295L1.26412 27.6659L1.34839 28.0022L1.43266 28.2545L1.68547 28.675L1.85401 29.0113L2.02255 29.2636L2.19109 29.6L2.4439 30.0204L2.78098 30.2727L3.03378 30.609L3.28659 30.8613L3.62367 31.1977L4.55064 31.9545L5.56187 32.6272L6.65738 33.384L8.0057 33.8886L9.35401 34.3931L10.8709 34.7295L12.5563 35.0659L14.2417 35.3181L16.0113 35.4863L17.781 35.6545L19.6349 35.7386H21.6574L23.6799 35.6545L25.6181 35.4863L27.7248 35.3181L29.8315 35.15L31.854 34.8136L33.9608 34.4772L35.9832 34.1409L38.09 33.6363L40.1967 33.2159L42.1349 32.6272L44.1574 32.1227L46.0956 31.534L47.9495 30.8613L49.8034 30.1045L51.4888 29.4318L53.09 28.675L54.6911 27.834L56.1237 27.0772L57.472 26.1522L58.6518 25.3113L59.0731 24.8909L59.4102 24.6386L59.7473 24.2181L60.0844 23.8818L60.3372 23.5454L60.6742 23.125L60.927 22.7886L61.0956 22.3681L61.3484 22.0318L61.6012 21.6113L61.854 21.1909L62.0225 20.7704L62.1068 20.35L62.2754 20.0136L62.4439 19.509L62.5282 19.1727L62.6124 18.7522L62.6967 18.3318V17.9113V17.575V17.1545L62.6124 16.734V16.3136L62.4439 15.8931L62.3596 15.6409L62.1911 15.2204L62.0225 14.884L61.854 14.4636L61.6855 14.1272L61.3484 13.875L61.0956 13.4545L60.8428 13.2022L60.6742 13.034L60.5057 12.95L60.2529 12.7818L60.1686 12.6136L60.0001 12.5295L59.8315 12.3613H59.663L59.4102 12.2772L59.3259 12.109L59.1574 12.025L58.9888 11.9409L58.736 11.8568L58.399 11.6886L57.9776 11.6045L57.6405 11.4363H57.2192L56.7978 11.2681L56.4608 11.184L55.9551 11.0159L55.6181 10.9318L55.1124 10.7636L54.7754 10.5954Z" fill="#EF5630"/>
</svg>
