<svg width="24" height="25" viewBox="0 0 24 25" fill="none" xmlns="http://www.w3.org/2000/svg">
<g clip-path="url(#clip0)">
<circle opacity="0.2" cx="8" cy="16.5" r="8" fill="#1A1C1F"/>
<path d="M15.9149 0.902455C16.0074 0.808857 16.1175 0.734443 16.2388 0.68348C16.3601 0.632516 16.4904 0.606006 16.622 0.605469C16.8861 0.606255 17.1393 0.711551 17.3261 0.898358C17.5129 1.08517 17.6182 1.33831 17.619 1.60249L17.619 6.96236L22.8091 6.9765C22.9412 6.97596 23.072 7.00156 23.194 7.05183C23.3161 7.1021 23.427 7.17604 23.5204 7.26939C23.6137 7.36273 23.6876 7.47364 23.7379 7.59571C23.7882 7.71777 23.8138 7.84858 23.8132 7.9806C23.8125 8.24478 23.7072 8.49792 23.5204 8.68473C23.3335 8.87154 23.0804 8.97683 22.8162 8.97762L16.5937 8.97762C16.3295 8.97683 16.0764 8.87153 15.8895 8.68473C15.7027 8.49792 15.5974 8.24478 15.5967 7.98059L15.6037 1.6237C15.6042 1.48871 15.632 1.35521 15.6855 1.23125C15.739 1.1073 15.817 0.99545 15.9149 0.902455Z" fill="#1A1C1F"/>
<path d="M16.8905 6.2078L22.3693 0.728992C22.4871 0.611239 22.6745 0.572808 22.8904 0.622152C23.1063 0.671497 23.3329 0.804576 23.5204 0.992112C23.708 1.17965 23.841 1.40628 23.8904 1.62215C23.9397 1.83802 23.9013 2.02545 23.7836 2.14321L18.3047 7.62201C18.187 7.73976 17.9996 7.77819 17.7837 7.72885C17.5678 7.6795 17.3412 7.54643 17.1537 7.35889C16.9661 7.17135 16.833 6.94472 16.7837 6.72885C16.7344 6.51298 16.7728 6.32555 16.8905 6.2078Z" fill="#1A1C1F"/>
<circle cx="8" cy="16.5" r="4" fill="#1A1C1F"/>
</g>
<defs>
<clipPath id="clip0">
<rect width="24" height="24" fill="white" transform="translate(0 0.5)"/>
</clipPath>
</defs>
</svg>
