<svg width="49" height="48" viewBox="0 0 49 48" fill="none" xmlns="http://www.w3.org/2000/svg">
<g clip-path="url(#clip0)">
<path d="M24.5 48C37.7548 48 48.5 37.2548 48.5 24C48.5 10.7452 37.7548 0 24.5 0C11.2452 0 0.5 10.7452 0.5 24C0.5 37.2548 11.2452 48 24.5 48Z" fill="#FF0000"/>
<path d="M32.9999 34.5002C32.4703 34.498 31.9632 34.2858 31.5899 33.9102L14.5899 16.9102C14.3888 16.7286 14.2267 16.5081 14.1134 16.262C14.0001 16.0159 13.938 15.7493 13.9309 15.4785C13.9237 15.2077 13.9717 14.9382 14.0718 14.6865C14.172 14.4348 14.3222 14.206 14.5135 14.0141C14.7047 13.8222 14.9329 13.6711 15.1843 13.5701C15.4357 13.469 15.705 13.4201 15.9758 13.4263C16.2467 13.4325 16.5135 13.4936 16.76 13.606C17.0065 13.7185 17.2276 13.8798 17.4099 14.0802L34.4099 31.0802C34.6913 31.3594 34.8834 31.7158 34.9619 32.1044C35.0403 32.4929 35.0016 32.8961 34.8505 33.2625C34.6994 33.629 34.4428 33.9423 34.1133 34.1627C33.7838 34.383 33.3962 34.5005 32.9999 34.5002Z" fill="white"/>
<path d="M16.0001 34.5002C15.6037 34.5005 15.2162 34.383 14.8867 34.1627C14.5572 33.9423 14.3006 33.629 14.1495 33.2625C13.9984 32.8961 13.9596 32.4929 14.0381 32.1044C14.1165 31.7158 14.3087 31.3594 14.5901 31.0802L31.5901 14.0802C31.7724 13.8798 31.9935 13.7185 32.24 13.606C32.4865 13.4936 32.7533 13.4325 33.0242 13.4263C33.295 13.4201 33.5643 13.469 33.8157 13.5701C34.0671 13.6711 34.2953 13.8222 34.4865 14.0141C34.6778 14.206 34.828 14.4348 34.9282 14.6865C35.0283 14.9382 35.0763 15.2077 35.0691 15.4785C35.062 15.7493 34.9999 16.0159 34.8866 16.262C34.7733 16.5081 34.6112 16.7286 34.4101 16.9102L17.4101 33.9102C17.0368 34.2858 16.5297 34.498 16.0001 34.5002Z" fill="white"/>
</g>
<defs>
<clipPath id="clip0">
<rect width="48" height="48" fill="white" transform="translate(0.5)"/>
</clipPath>
</defs>
</svg>
