<svg width="49" height="50" viewBox="0 0 49 50" fill="none" xmlns="http://www.w3.org/2000/svg">
<path d="M47 25C47 37.4264 36.9264 47.5 24.5 47.5C12.0736 47.5 2 37.4264 2 25C2 12.5736 12.0736 2.5 24.5 2.5C36.9264 2.5 47 12.5736 47 25Z" fill="white" stroke="#DBDFE2" stroke-width="3"/>
<path d="M22.8198 35.5002C22.3097 35.4983 21.8197 35.3015 21.4498 34.9502L13.5998 27.5002C13.3968 27.3234 13.2315 27.1075 13.1139 26.8653C12.9964 26.6231 12.9289 26.3597 12.9155 26.0908C12.9022 25.822 12.9433 25.5532 13.0363 25.3006C13.1294 25.0479 13.2724 24.8167 13.457 24.6207C13.6415 24.4247 13.8637 24.268 14.1103 24.1599C14.3569 24.0519 14.6227 23.9947 14.8919 23.9919C15.1611 23.989 15.4281 24.0405 15.6769 24.1433C15.9257 24.2462 16.1512 24.3981 16.3398 24.5902L22.5898 30.5002L34.1498 15.5702C34.476 15.1511 34.9554 14.8789 35.4823 14.8132C36.0093 14.7476 36.5408 14.894 36.9598 15.2202C37.3789 15.5464 37.6512 16.0257 37.7168 16.5527C37.7824 17.0797 37.636 17.6111 37.3098 18.0302L24.3998 34.6802C24.2367 34.9071 24.0279 35.0973 23.7867 35.2385C23.5456 35.3798 23.2775 35.4689 22.9998 35.5002H22.8198Z" fill="#239A54"/>
<path d="M24.25 47.5C36.8145 47.5 47 37.3145 47 24.75C47 12.1855 36.8145 2 24.25 2" stroke="#239A54" stroke-width="4" stroke-linecap="round"/>
</svg>
