<svg width="49" height="48" viewBox="0 0 49 48" fill="none" xmlns="http://www.w3.org/2000/svg">
<path d="M24.5 48C37.7548 48 48.5 37.2548 48.5 24C48.5 10.7452 37.7548 0 24.5 0C11.2452 0 0.5 10.7452 0.5 24C0.5 37.2548 11.2452 48 24.5 48Z" fill="#239A54"/>
<path d="M22.8198 34.5002C22.3097 34.4983 21.8197 34.3015 21.4498 33.9502L13.5998 26.5002C13.3968 26.3234 13.2315 26.1075 13.1139 25.8653C12.9964 25.6231 12.9289 25.3597 12.9155 25.0908C12.9022 24.822 12.9433 24.5532 13.0363 24.3006C13.1294 24.0479 13.2724 23.8167 13.457 23.6207C13.6415 23.4247 13.8637 23.268 14.1103 23.1599C14.3569 23.0519 14.6227 22.9947 14.8919 22.9919C15.1611 22.989 15.4281 23.0405 15.6769 23.1433C15.9257 23.2462 16.1512 23.3981 16.3398 23.5902L22.5898 29.5002L34.1498 14.5702C34.476 14.1511 34.9554 13.8789 35.4823 13.8132C36.0093 13.7476 36.5408 13.894 36.9598 14.2202C37.3789 14.5464 37.6512 15.0257 37.7168 15.5527C37.7824 16.0797 37.636 16.6111 37.3098 17.0302L24.3998 33.6802C24.2367 33.9071 24.0279 34.0973 23.7867 34.2385C23.5456 34.3798 23.2775 34.4689 22.9998 34.5002H22.8198Z" fill="white"/>
</svg>
