<svg width="16" height="16" viewBox="0 0 16 16" fill="none" xmlns="http://www.w3.org/2000/svg">
<path fill-rule="evenodd" clip-rule="evenodd" d="M5.84369 0.669922C5.89263 0.564141 5.96015 0.466736 6.04414 0.382737C6.23168 0.195201 6.48603 0.0898438 6.75125 0.0898438H9.25125C9.51647 0.0898438 9.77082 0.195201 9.95836 0.382737C10.0424 0.466736 10.1099 0.564141 10.1588 0.669922H13.4713C13.7365 0.669922 13.9908 0.775279 14.1784 0.962815C14.3659 1.15035 14.4713 1.40471 14.4713 1.66992C14.4713 1.93514 14.3659 2.18949 14.1784 2.37703C13.9908 2.56456 13.7365 2.66992 13.4713 2.66992H2.53125C2.26603 2.66992 2.01168 2.56456 1.82414 2.37703C1.63661 2.18949 1.53125 1.93514 1.53125 1.66992C1.53125 1.40471 1.63661 1.15035 1.82414 0.962815C2.01168 0.775279 2.26603 0.669922 2.53125 0.669922H5.84369ZM6.53125 15.7698H9.47125C10.5702 15.7698 11.6242 15.334 12.4022 14.5579C13.1802 13.7818 13.6186 12.7288 13.6212 11.6298V4.33984C13.6212 4.07463 13.5159 3.82027 13.3284 3.63274C13.1408 3.4452 12.8865 3.33984 12.6212 3.33984C12.356 3.33984 12.1017 3.4452 11.9141 3.63274C11.7266 3.82027 11.6212 4.07463 11.6212 4.33984V11.6298C11.6186 12.1983 11.3909 12.7426 10.988 13.1437C10.5851 13.5447 10.0397 13.7698 9.47125 13.7698H6.53125C5.96276 13.7698 5.41741 13.5447 5.01449 13.1437C4.61158 12.7426 4.38389 12.1983 4.38125 11.6298V4.33984C4.38125 4.07463 4.27589 3.82027 4.08836 3.63274C3.90082 3.4452 3.64647 3.33984 3.38125 3.33984C3.11603 3.33984 2.86168 3.4452 2.67414 3.63274C2.48661 3.82027 2.38125 4.07463 2.38125 4.33984V11.6298C2.3839 12.7288 2.8223 13.7818 3.60029 14.5579C4.37827 15.334 5.43233 15.7698 6.53125 15.7698ZM6.43125 12.1098C6.16604 12.1098 5.91168 12.0045 5.72414 11.8169C5.53661 11.6294 5.43125 11.3751 5.43125 11.1098V5.82983C5.43125 5.56462 5.53661 5.31026 5.72414 5.12273C5.91168 4.93519 6.16604 4.82983 6.43125 4.82983C6.69647 4.82983 6.95082 4.93519 7.13836 5.12273C7.32589 5.31026 7.43125 5.56462 7.43125 5.82983V11.1098C7.43125 11.3751 7.32589 11.6294 7.13836 11.8169C6.95082 12.0045 6.69647 12.1098 6.43125 12.1098ZM9.57125 12.1098C9.30603 12.1098 9.05168 12.0045 8.86414 11.8169C8.67661 11.6294 8.57125 11.3751 8.57125 11.1098V5.82983C8.57125 5.56462 8.67661 5.31026 8.86414 5.12273C9.05168 4.93519 9.30603 4.82983 9.57125 4.82983C9.83647 4.82983 10.0908 4.93519 10.2784 5.12273C10.4659 5.31026 10.5713 5.56462 10.5713 5.82983V11.1098C10.5713 11.3751 10.4659 11.6294 10.2784 11.8169C10.0908 12.0045 9.83647 12.1098 9.57125 12.1098Z" fill="currentColor"/>
</svg>
