<svg width="24" height="25" viewBox="0 0 24 25" fill="none"
    xmlns="http://www.w3.org/2000/svg">
    <path d="M14 17.7896C13.7348 17.7896 13.4804 17.6843 13.2929 17.4967C13.1054 17.3092 13 17.0548 13 16.7896V9.34961C13 9.08439 13.1054 8.83004 13.2929 8.6425C13.4804 8.45497 13.7348 8.34961 14 8.34961C14.2652 8.34961 14.5196 8.45497 14.7071 8.6425C14.8946 8.83004 15 9.08439 15 9.34961V16.7896C15 17.0548 14.8946 17.3092 14.7071 17.4967C14.5196 17.6843 14.2652 17.7896 14 17.7896Z" fill="currentColor"/>
    <path d="M10 17.7896C9.73478 17.7896 9.48043 17.6843 9.29289 17.4967C9.10536 17.3092 9 17.0548 9 16.7896V9.34961C9 9.08439 9.10536 8.83004 9.29289 8.6425C9.48043 8.45497 9.73478 8.34961 10 8.34961C10.2652 8.34961 10.5196 8.45497 10.7071 8.6425C10.8946 8.83004 11 9.08439 11 9.34961V16.7896C11 17.0548 10.8946 17.3092 10.7071 17.4967C10.5196 17.6843 10.2652 17.7896 10 17.7896Z" fill="currentColor"/>
    <path d="M13.91 22.3808H10.09C8.74178 22.3808 7.44863 21.8459 6.49436 20.8935C5.54008 19.9411 5.00265 18.649 5 17.3008V7.30078C5 7.03556 5.10536 6.78121 5.29289 6.59367C5.48043 6.40614 5.73478 6.30078 6 6.30078C6.26522 6.30078 6.51957 6.40614 6.70711 6.59367C6.89464 6.78121 7 7.03556 7 7.30078V17.3008C7 18.1176 7.3245 18.9011 7.90211 19.4787C8.18812 19.7647 8.52765 19.9915 8.90133 20.1463C9.27502 20.3011 9.67553 20.3808 10.08 20.3808H13.9C14.3062 20.3834 14.7088 20.3057 15.0848 20.1521C15.4608 19.9985 15.8027 19.772 16.0908 19.4858C16.379 19.1995 16.6076 18.8591 16.7637 18.4841C16.9197 18.1091 17 17.7069 17 17.3008V7.30078C17 7.03556 17.1054 6.78121 17.2929 6.59367C17.4804 6.40614 17.7348 6.30078 18 6.30078C18.2652 6.30078 18.5196 6.40614 18.7071 6.59367C18.8946 6.78121 19 7.03556 19 7.30078V17.3008C18.9974 18.649 18.4599 19.9411 17.5056 20.8935C16.5514 21.8459 15.2582 22.3808 13.91 22.3808Z" fill="currentColor"/>
    <path d="M19.1096 5.36914H4.88965C4.62443 5.36914 4.37008 5.26378 4.18254 5.07625C3.99501 4.88871 3.88965 4.63436 3.88965 4.36914C3.88965 4.10392 3.99501 3.84957 4.18254 3.66203C4.37008 3.4745 4.62443 3.36914 4.88965 3.36914H19.1096C19.3749 3.36914 19.6292 3.4745 19.8168 3.66203C20.0043 3.84957 20.1096 4.10392 20.1096 4.36914C20.1096 4.63436 20.0043 4.88871 19.8168 5.07625C19.6292 5.26378 19.3749 5.36914 19.1096 5.36914Z" fill="currentColor"/>
    <path d="M13.6301 4.61914H10.3701C10.1049 4.61914 9.85055 4.51378 9.66301 4.32625C9.47547 4.13871 9.37012 3.88436 9.37012 3.61914C9.37012 3.35392 9.47547 3.09957 9.66301 2.91203C9.85055 2.7245 10.1049 2.61914 10.3701 2.61914H13.6301C13.8953 2.61914 14.1497 2.7245 14.3372 2.91203C14.5248 3.09957 14.6301 3.35392 14.6301 3.61914C14.6301 3.88436 14.5248 4.13871 14.3372 4.32625C14.1497 4.51378 13.8953 4.61914 13.6301 4.61914Z" fill="currentColor"/>
</svg>
