<svg width="24" height="25" viewBox="0 0 24 25" fill="none"
    xmlns="http://www.w3.org/2000/svg">
    <path fill-rule="evenodd" clip-rule="evenodd" d="M20.8251 8.69196L20.8255 8.69158C21.1036 8.42611 21.3234 8.11171 21.4731 7.76669C21.6229 7.42155 21.6998 7.05212 21.6998 6.6794C21.6998 6.30668 21.6229 5.93725 21.4731 5.59211C21.3233 5.24692 21.1034 4.93238 20.8251 4.66684L20.825 4.66677L19.7515 3.64167L19.7514 3.64161C19.4733 3.37588 19.1423 3.16439 18.777 3.01986C18.4118 2.87533 18.0198 2.80078 17.6236 2.80078C17.2275 2.80078 16.8355 2.87533 16.4702 3.01986C16.105 3.16437 15.7741 3.37582 15.496 3.64149L15.4959 3.64161L5.11111 13.6088C4.69005 14.0243 4.36725 14.5196 4.16325 15.0615L4.16281 15.0627L2.3532 20.0033L2.35267 20.0048C2.30137 20.1505 2.28721 20.3054 2.31104 20.4569C2.33496 20.609 2.39665 20.7545 2.49213 20.8812C2.58767 21.008 2.71447 21.1124 2.86288 21.1848C3.011 21.257 3.17575 21.2949 3.34336 21.2946C3.45933 21.2933 3.57439 21.2763 3.68507 21.2442L8.85958 19.5162L8.86178 19.5154C9.43641 19.3285 9.95722 19.0183 10.3845 18.61L10.3852 18.6094L20.8251 8.69196ZM17.6265 4.7648L17.6265 4.76488C17.8674 4.76717 18.1002 4.86002 18.2737 5.02727L18.2752 5.02876L19.3459 6.03827L19.3511 6.04321L19.3561 6.04838C19.518 6.21645 19.6102 6.4392 19.6102 6.67299C19.6102 6.90679 19.518 7.12953 19.3561 7.2976L19.3474 7.3066L19.3472 7.30641L17.7887 8.79457L15.3592 6.57965L16.9846 5.0296C17.0676 4.94696 17.1662 4.88149 17.2743 4.83634C17.3837 4.79063 17.5011 4.76646 17.6197 4.76489L17.6265 4.7648ZM13.9098 7.96181L6.58701 14.945L6.58598 14.946C6.36953 15.1544 6.20568 15.409 6.10851 15.6903L5.22351 18.1486L5.0153 18.727L5.59934 18.5353L8.17214 17.6908L8.17408 17.6902C8.4635 17.599 8.72797 17.4446 8.94617 17.2379L8.94707 17.2371L16.3403 10.1776L13.9098 7.96181Z" fill="currentColor"/>
</svg>
