<svg width="24" height="24" viewBox="0 0 24 24" fill="none" xmlns="http://www.w3.org/2000/svg">
<path d="M16.2298 23.5106C16.0982 23.5114 15.9677 23.4862 15.8459 23.4364C15.7241 23.3866 15.6132 23.3133 15.5198 23.2206C15.3335 23.0333 15.229 22.7798 15.229 22.5156C15.229 22.2515 15.3335 21.998 15.5198 21.8106L17.7498 19.5806L15.5798 17.4106C15.4872 17.3174 15.4139 17.2068 15.3641 17.0853C15.3142 16.9637 15.2888 16.8335 15.2892 16.7021C15.2897 16.5707 15.316 16.4407 15.3668 16.3195C15.4175 16.1983 15.4916 16.0882 15.5848 15.9956C15.678 15.9031 15.7886 15.8297 15.9102 15.7799C16.0317 15.73 16.1619 15.7046 16.2933 15.7051C16.4247 15.7055 16.5547 15.7319 16.676 15.7826C16.7972 15.8333 16.9072 15.9074 16.9998 16.0006L19.8798 18.8706C19.9735 18.9636 20.0479 19.0742 20.0987 19.1961C20.1495 19.3179 20.1756 19.4486 20.1756 19.5806C20.1756 19.7127 20.1495 19.8434 20.0987 19.9652C20.0479 20.0871 19.9735 20.1977 19.8798 20.2906L16.9498 23.2206C16.8552 23.3145 16.7427 23.3885 16.6191 23.4383C16.4954 23.4882 16.3631 23.5127 16.2298 23.5106Z" fill="currentColor"/>
<path d="M17.4598 20.6209H5.7898C4.5286 20.5385 3.35079 19.962 2.51204 19.0166C1.67329 18.0711 1.24128 16.833 1.3098 15.5709V5.57094C1.2522 4.31666 1.68941 3.08991 2.52729 2.15477C3.36518 1.21963 4.53674 0.650875 5.7898 0.570936H13.9998C14.6097 0.560423 15.2146 0.682903 15.7724 0.929856C16.3302 1.17681 16.8276 1.54231 17.2298 2.00094C17.329 2.09777 17.4069 2.21416 17.4587 2.34273C17.5105 2.47129 17.5351 2.60922 17.5307 2.74776C17.5264 2.88631 17.4933 3.02243 17.4335 3.1475C17.3738 3.27258 17.2887 3.38386 17.1837 3.4743C17.0786 3.56473 16.9559 3.63234 16.8233 3.67283C16.6908 3.71333 16.5513 3.72582 16.4136 3.70952C16.276 3.69322 16.1432 3.64848 16.0238 3.57814C15.9043 3.5078 15.8008 3.41341 15.7198 3.30094C15.5078 3.05062 15.2446 2.84875 14.9478 2.70901C14.6511 2.56926 14.3278 2.49489 13.9998 2.49094H5.7898C5.06808 2.57174 4.40599 2.9298 3.94327 3.48954C3.48055 4.04928 3.25342 4.7669 3.3098 5.49094V15.4909C3.24232 16.2226 3.46413 16.9517 3.9277 17.5218C4.39127 18.0919 5.05972 18.4577 5.7898 18.5409H17.4598C17.725 18.5409 17.9794 18.6463 18.1669 18.8338C18.3544 19.0214 18.4598 19.2757 18.4598 19.5409C18.4598 19.8062 18.3544 20.0605 18.1669 20.248C17.9794 20.4356 17.725 20.5409 17.4598 20.5409V20.6209Z" fill="currentColor"/>
<path d="M12.37 15.919C12.2136 15.9244 12.0582 15.8931 11.9161 15.8275C11.7741 15.7619 11.6494 15.6639 11.5522 15.5413C11.4549 15.4187 11.3877 15.2751 11.3561 15.1218C11.3245 14.9686 11.3292 14.8101 11.37 14.659L12.18 11.659C12.2895 11.2549 12.4915 10.8817 12.77 10.569L18.32 4.19904C18.5027 3.98753 18.7254 3.81422 18.9754 3.68911C19.2253 3.56399 19.4975 3.48954 19.7763 3.47002C20.0551 3.4505 20.3351 3.48631 20.6 3.57539C20.8649 3.66446 21.1096 3.80504 21.32 3.98904L21.98 4.55904C22.1908 4.74244 22.3633 4.9657 22.4875 5.21599C22.6117 5.46628 22.6852 5.73866 22.7038 6.01746C22.7224 6.29625 22.6857 6.57598 22.5958 6.84054C22.5059 7.1051 22.3646 7.34928 22.18 7.55904L16.66 13.899C16.3877 14.2165 16.0454 14.4665 15.66 14.629L12.78 15.849C12.6491 15.8985 12.5099 15.9222 12.37 15.919ZM19.92 5.46904C19.9058 5.4627 19.8905 5.45942 19.875 5.45942C19.8595 5.45942 19.8442 5.4627 19.83 5.46904L14.3 11.849C14.2268 11.9356 14.1753 12.0385 14.15 12.149L13.86 13.149L14.86 12.729C14.9643 12.6843 15.0568 12.6158 15.13 12.529L20.65 6.18904C20.6612 6.1779 20.6701 6.16465 20.6761 6.15006C20.6822 6.13548 20.6853 6.11984 20.6853 6.10404C20.6853 6.08825 20.6822 6.07261 20.6761 6.05803C20.6701 6.04344 20.6612 6.03019 20.65 6.01904L20 5.49904C19.9893 5.48896 19.9768 5.48111 19.963 5.47596C19.9493 5.47081 19.9347 5.46846 19.92 5.46904Z" fill="currentColor"/>
<path d="M18.3991 5.05641L17.0854 6.56445L19.4305 8.60725L20.7442 7.09921L18.3991 5.05641Z" fill="currentColor"/>
<path d="M11.4999 16.1495C11.1065 16.1327 10.7221 16.0267 10.3756 15.8396C10.0291 15.6525 9.72969 15.3892 9.49987 15.0695C9.30986 14.8495 9.16987 14.6795 8.66987 15.0695C7.97213 15.7248 7.04702 16.0834 6.08987 16.0695C5.82273 16.0303 5.56628 15.9375 5.33598 15.7966C5.10569 15.6556 4.90631 15.4695 4.74987 15.2495C4.66779 15.1444 4.60721 15.0242 4.57158 14.8958C4.53596 14.7673 4.52599 14.6331 4.54224 14.5007C4.55849 14.3684 4.60064 14.2406 4.66629 14.1246C4.73195 14.0085 4.81981 13.9066 4.92487 13.8245C5.02992 13.7424 5.15012 13.6818 5.27859 13.6462C5.40706 13.6106 5.54129 13.6006 5.67361 13.6169C5.80593 13.6331 5.93376 13.6753 6.04979 13.7409C6.16582 13.8066 6.26779 13.8944 6.34987 13.9995C6.34987 13.9995 6.65987 14.0795 7.45987 13.4695C7.70881 13.2422 8.00233 13.0692 8.32176 12.9614C8.64119 12.8537 8.97954 12.8136 9.3153 12.8437C9.65106 12.8738 9.97689 12.9734 10.2721 13.1362C10.5672 13.2991 10.8253 13.5215 11.0299 13.7895C11.2899 14.0895 11.4299 14.1295 11.4999 14.1495C11.5699 14.1695 11.6999 14.0195 11.7099 14.0095C11.7873 13.9031 11.885 13.813 11.9973 13.7444C12.1096 13.6758 12.2343 13.63 12.3643 13.6095C12.4943 13.5891 12.6271 13.5945 12.755 13.6254C12.8829 13.6562 13.0035 13.712 13.1099 13.7895C13.2162 13.867 13.3063 13.9646 13.3749 14.0769C13.4436 14.1892 13.4894 14.3139 13.5098 14.4439C13.5302 14.5739 13.5249 14.7067 13.494 14.8346C13.4631 14.9625 13.4073 15.0831 13.3299 15.1895C13.1222 15.4717 12.8571 15.7068 12.552 15.8792C12.247 16.0515 11.9088 16.1573 11.5599 16.1895L11.4999 16.1495Z" fill="currentColor"/>
</svg>
