<svg width="24" height="25" viewBox="0 0 24 25" fill="none" xmlns="http://www.w3.org/2000/svg">
<g clip-path="url(#clip0)">
<path d="M19.7002 7.62964C19.4349 7.62964 19.1806 7.52428 18.993 7.33675C18.8055 7.14921 18.7002 6.89486 18.7002 6.62964V5.29964C18.6563 4.56734 18.3247 3.88206 17.7778 3.39316C17.2308 2.90426 16.5128 2.65138 15.7802 2.68964H8.57016C7.83922 2.6541 7.12375 2.90821 6.57897 3.39682C6.03419 3.88544 5.70404 4.56916 5.66016 5.29964V6.62964C5.66016 6.89486 5.5548 7.14921 5.36726 7.33675C5.17973 7.52428 4.92537 7.62964 4.66016 7.62964C4.39494 7.62964 4.14059 7.52428 3.95305 7.33675C3.76551 7.14921 3.66016 6.89486 3.66016 6.62964V5.29964C3.70194 4.03789 4.2422 2.84417 5.16255 1.98005C6.08291 1.11593 7.30828 0.651896 8.57016 0.68964H15.7802C17.043 0.651857 18.2695 1.11558 19.1914 1.97943C20.1133 2.84328 20.6558 4.037 20.7002 5.29964V6.62964C20.7002 6.89486 20.5948 7.14921 20.4073 7.33675C20.2197 7.52428 19.9654 7.62964 19.7002 7.62964Z" fill="currentColor"/>
<path d="M15.7801 24.3108H8.57012C7.45508 24.3365 6.36537 23.9764 5.48527 23.2913C4.60517 22.6061 3.9887 21.6381 3.74012 20.5508C3.69021 20.2909 3.74533 20.0219 3.89341 19.8026C4.04148 19.5833 4.27044 19.4316 4.53012 19.3808C4.78855 19.3306 5.05633 19.3844 5.27537 19.5304C5.49441 19.6765 5.64703 19.903 5.70012 20.1608C5.85829 20.7946 6.23009 21.3544 6.75287 21.7461C7.27565 22.1377 7.91745 22.3371 8.57012 22.3108H15.7801C16.4377 22.3395 17.0847 22.1373 17.6088 21.7391C18.133 21.341 18.5014 20.772 18.6501 20.1308C18.6992 19.8656 18.8516 19.6307 19.0738 19.4779C19.2961 19.325 19.5699 19.2667 19.8351 19.3158C20.1003 19.3649 20.3352 19.5173 20.488 19.7395C20.6409 19.9617 20.6992 20.2356 20.6501 20.5008C20.4121 21.6051 19.7945 22.5911 18.9047 23.2872C18.0149 23.9833 16.9093 24.3455 15.7801 24.3108Z" fill="currentColor"/>
<path d="M3.12988 17.4991C2.86467 17.4991 2.61031 17.3938 2.42278 17.2062C2.23524 17.0187 2.12988 16.7644 2.12988 16.4991V10.4991C2.12988 10.2339 2.23524 9.97957 2.42278 9.79203C2.61031 9.6045 2.86467 9.49914 3.12988 9.49914H5.31988C5.6876 9.47673 6.05602 9.52981 6.40246 9.65511C6.7489 9.78042 7.06603 9.97529 7.33433 10.2277C7.60264 10.4802 7.81644 10.7849 7.96259 11.1231C8.10873 11.4612 8.18412 11.8257 8.18412 12.1941C8.18412 12.5625 8.10873 12.927 7.96259 13.2652C7.81644 13.6034 7.60264 13.9081 7.33433 14.1605C7.06603 14.413 6.7489 14.6079 6.40246 14.7332C6.05602 14.8585 5.6876 14.9116 5.31988 14.8891H4.12988V16.4991C4.12988 16.7644 4.02453 17.0187 3.83699 17.2062C3.64945 17.3938 3.3951 17.4991 3.12988 17.4991ZM4.12988 12.9391H5.31988C5.41815 12.9509 5.51781 12.9418 5.61227 12.9123C5.70674 12.8827 5.79387 12.8335 5.86791 12.7678C5.94195 12.7021 6.00122 12.6215 6.04182 12.5312C6.08241 12.441 6.1034 12.3431 6.1034 12.2441C6.1034 12.1452 6.08241 12.0473 6.04182 11.957C6.00122 11.8668 5.94195 11.7861 5.86791 11.7205C5.79387 11.6548 5.70674 11.6056 5.61227 11.576C5.51781 11.5465 5.41815 11.5373 5.31988 11.5491H4.12988V12.9391Z" fill="currentColor"/>
<path d="M11.2798 17.5H10.2798C10.0146 17.5 9.76021 17.3946 9.57268 17.2071C9.38514 17.0196 9.27979 16.7652 9.27979 16.5V10.5C9.27979 10.2348 9.38514 9.98043 9.57268 9.79289C9.76021 9.60536 10.0146 9.5 10.2798 9.5H11.2798C12.028 9.5053 12.7584 9.7285 13.3818 10.1423C14.0051 10.5561 14.4944 11.1426 14.7898 11.83C15.0125 12.3428 15.1274 12.8959 15.1274 13.455C15.1274 14.0141 15.0125 14.5672 14.7898 15.08C14.5071 15.7835 14.0234 16.3882 13.3992 16.8186C12.775 17.2489 12.0379 17.4859 11.2798 17.5ZM11.2798 15.5C11.6539 15.4962 12.0182 15.3796 12.325 15.1655C12.6319 14.9515 12.867 14.6498 12.9998 14.3C13.1084 14.042 13.1644 13.7649 13.1644 13.485C13.1644 13.2051 13.1084 12.928 12.9998 12.67C12.8605 12.325 12.6215 12.0294 12.3133 11.821C12.0052 11.6126 11.6418 11.5008 11.2698 11.5L11.2798 15.5Z" fill="currentColor"/>
<path d="M17.4199 17.5C17.1547 17.5 16.9004 17.3946 16.7128 17.2071C16.5253 17.0196 16.4199 16.7652 16.4199 16.5V10.5C16.4199 10.2348 16.5253 9.98043 16.7128 9.79289C16.9004 9.60536 17.1547 9.5 17.4199 9.5H21.2299C21.4951 9.5 21.7495 9.60536 21.937 9.79289C22.1246 9.98043 22.2299 10.2348 22.2299 10.5C22.2299 10.7652 22.1246 11.0196 21.937 11.2071C21.7495 11.3946 21.4951 11.5 21.2299 11.5H18.4199V16.5C18.4199 16.7652 18.3146 17.0196 18.127 17.2071C17.9395 17.3946 17.6851 17.5 17.4199 17.5Z" fill="currentColor"/>
<path d="M20.3299 14.8906H17.4199C17.1547 14.8906 16.9004 14.7853 16.7128 14.5977C16.5253 14.4102 16.4199 14.1558 16.4199 13.8906C16.4199 13.6254 16.5253 13.3711 16.7128 13.1835C16.9004 12.996 17.1547 12.8906 17.4199 12.8906H20.3299C20.5951 12.8906 20.8495 12.996 21.037 13.1835C21.2246 13.3711 21.3299 13.6254 21.3299 13.8906C21.3299 14.1558 21.2246 14.4102 21.037 14.5977C20.8495 14.7853 20.5951 14.8906 20.3299 14.8906Z" fill="currentColor"/>
</g>
<defs>
<clipPath id="clip0">
<rect width="24" height="24" fill="white" transform="translate(0 0.5)"/>
</clipPath>
</defs>
</svg>
