<svg width="24" height="25" viewBox="0 0 24 25" fill="none" xmlns="http://www.w3.org/2000/svg">
<path d="M13.1396 18.9894H6.45961C5.36957 18.9894 4.32418 18.5564 3.5534 17.7856C2.78263 17.0148 2.34961 15.9694 2.34961 14.8794V5.96937C2.34961 4.87933 2.78263 3.83394 3.5534 3.06317C4.32418 2.29239 5.36957 1.85938 6.45961 1.85938H13.1396C14.2297 1.85938 15.275 2.29239 16.0458 3.06317C16.8166 3.83394 17.2496 4.87933 17.2496 5.96937V14.8794C17.2496 15.9694 16.8166 17.0148 16.0458 17.7856C15.275 18.5564 14.2297 18.9894 13.1396 18.9894ZM6.45961 3.85937C5.9 3.85937 5.36332 4.08168 4.96761 4.47738C4.57191 4.87308 4.34961 5.40977 4.34961 5.96937V14.8794C4.35224 15.4382 4.57539 15.9733 4.97052 16.3685C5.36565 16.7636 5.90081 16.9867 6.45961 16.9894H13.1396C13.6984 16.9867 14.2336 16.7636 14.6287 16.3685C15.0238 15.9733 15.247 15.4382 15.2496 14.8794V5.96937C15.2496 5.40977 15.0273 4.87308 14.6316 4.47738C14.2359 4.08168 13.6992 3.85937 13.1396 3.85937H6.45961Z" fill="currentColor"/>
<path d="M17.54 23.1398H10.86C9.76996 23.1398 8.72457 22.7067 7.95379 21.936C7.18302 21.1652 6.75 20.1198 6.75 19.0298V18.0298H8.75V19.0298C8.75 19.5894 8.9723 20.1261 9.368 20.5218C9.76371 20.9175 10.3004 21.1398 10.86 21.1398H17.54C18.0996 21.1398 18.6363 20.9175 19.032 20.5218C19.4277 20.1261 19.65 19.5894 19.65 19.0298V10.1198C19.6474 9.56097 19.4242 9.02581 19.0291 8.63068C18.634 8.23554 18.0988 8.0124 17.54 8.00977H16.25V6.00977H17.54C18.63 6.00977 19.6754 6.44278 20.4462 7.21356C21.217 7.98433 21.65 9.02973 21.65 10.1198V19.0298C21.65 20.1198 21.217 21.1652 20.4462 21.936C19.6754 22.7067 18.63 23.1398 17.54 23.1398Z" fill="currentColor"/>
<path d="M11.59 9.28906H8C7.73478 9.28906 7.48043 9.18371 7.29289 8.99617C7.10536 8.80863 7 8.55428 7 8.28906C7 8.02385 7.10536 7.76949 7.29289 7.58196C7.48043 7.39442 7.73478 7.28906 8 7.28906H11.58C11.8452 7.28906 12.0996 7.39442 12.2871 7.58196C12.4746 7.76949 12.58 8.02385 12.58 8.28906C12.58 8.55428 12.4746 8.80863 12.2871 8.99617C12.0996 9.18371 11.8452 9.28906 11.58 9.28906H11.59Z" fill="currentColor"/>
<path d="M11.59 13.0801H8C7.73478 13.0801 7.48043 12.9747 7.29289 12.7872C7.10536 12.5996 7 12.3453 7 12.0801C7 11.8149 7.10536 11.5605 7.29289 11.373C7.48043 11.1854 7.73478 11.0801 8 11.0801H11.58C11.8452 11.0801 12.0996 11.1854 12.2871 11.373C12.4746 11.5605 12.58 11.8149 12.58 12.0801C12.58 12.3453 12.4746 12.5996 12.2871 12.7872C12.0996 12.9747 11.8452 13.0801 11.58 13.0801H11.59Z" fill="currentColor"/>
</svg>
