<svg width="24" height="25" viewBox="0 0 24 25" fill="none"
    xmlns="http://www.w3.org/2000/svg">
    <g clip-path="url(#clip0)">
        <path d="M16.5801 2.56055H7.58008C7.31486 2.56055 7.06051 2.45519 6.87297 2.26765C6.68544 2.08012 6.58008 1.82576 6.58008 1.56055C6.58008 1.29533 6.68544 1.04098 6.87297 0.85344C7.06051 0.665904 7.31486 0.560547 7.58008 0.560547H16.5801C16.8453 0.560547 17.0996 0.665904 17.2872 0.85344C17.4747 1.04098 17.5801 1.29533 17.5801 1.56055C17.5801 1.82576 17.4747 2.08012 17.2872 2.26765C17.0996 2.45519 16.8453 2.56055 16.5801 2.56055Z" fill="currentColor"/>
        <path d="M12.0502 24.4399C11.6978 24.4413 11.3512 24.3495 11.0457 24.1739C10.7401 23.9983 10.4864 23.7451 10.3102 23.4399L5.4102 15.4399C5.13678 14.9868 5.05407 14.4438 5.1802 13.9299L7.5902 4.60988C7.64688 4.38986 7.77681 4.1957 7.95857 4.05938C8.14034 3.92305 8.3631 3.85269 8.5902 3.85988H15.5902C15.8186 3.85322 16.0425 3.92501 16.2244 4.06329C16.4063 4.20157 16.5354 4.398 16.5902 4.61988L18.8802 13.9599C18.9425 14.2073 18.9551 14.4646 18.9174 14.7169C18.8796 14.9692 18.7922 15.2116 18.6602 15.4299L13.8602 23.4299C13.684 23.7351 13.4303 23.9883 13.1247 24.1639C12.8191 24.3395 12.4726 24.4313 12.1202 24.4299L12.0502 24.4399ZM9.3402 5.85988L7.1202 14.4999L12.0002 22.4199L12.9302 22.9299L12.0802 22.4199L16.8702 14.4199L14.7702 5.85988H9.3402Z" fill="currentColor"/>
        <path d="M12.0601 24.4392C11.7948 24.4392 11.5405 24.3339 11.353 24.1463C11.1654 23.9588 11.0601 23.7044 11.0601 23.4392V10.6992C11.0601 10.434 11.1654 10.1796 11.353 9.99211C11.5405 9.80458 11.7948 9.69922 12.0601 9.69922C12.3253 9.69922 12.5796 9.80458 12.7672 9.99211C12.9547 10.1796 13.0601 10.434 13.0601 10.6992V23.4392C13.0601 23.7044 12.9547 23.9588 12.7672 24.1463C12.5796 24.3339 12.3253 24.4392 12.0601 24.4392Z" fill="currentColor"/>
    </g>
    <defs>
        <clipPath id="clip0">
            <rect width="24" height="24" fill="white" transform="translate(0 0.5)"/>
        </clipPath>
    </defs>
</svg>
