<svg width="24" height="24" viewBox="0 0 24 24" fill="none"
    xmlns="http://www.w3.org/2000/svg">
    <path fill-rule="evenodd" clip-rule="evenodd" d="M16.4883 14.18L14.5191 12.2108C14.4254 12.1178 14.351 12.0072 14.3002 11.8854C14.2494 11.7635 14.2233 11.6328 14.2233 11.5008C14.2233 11.3688 14.2494 11.2381 14.3002 11.1162C14.351 10.9944 14.4254 10.8838 14.5191 10.7908C14.7065 10.6045 14.9599 10.5 15.2241 10.5C15.4883 10.5 15.7417 10.6045 15.9291 10.7908L19.5291 14.3908C19.7153 14.5782 19.8199 14.8316 19.8199 15.0958C19.8199 15.36 19.7153 15.6134 19.5291 15.8008L15.8191 19.4708C15.7256 19.5635 15.6148 19.6368 15.493 19.6866C15.3712 19.7363 15.2407 19.7616 15.1091 19.7608C14.9113 19.76 14.7182 19.7005 14.5542 19.5899C14.3903 19.4794 14.2627 19.3227 14.1878 19.1396C14.1129 18.9566 14.0939 18.7555 14.1333 18.5617C14.1727 18.3678 14.2687 18.1901 14.4091 18.0508L16.3116 16.18H8.39875C7.29014 16.18 6.22695 15.7396 5.44304 14.9557C4.65914 14.1718 4.21875 13.1086 4.21875 12V5C4.21875 4.73478 4.32411 4.48043 4.51164 4.29289C4.69918 4.10536 4.95353 4 5.21875 4C5.48397 4 5.73832 4.10536 5.92586 4.29289C6.11339 4.48043 6.21875 4.73478 6.21875 5V12C6.22138 12.5774 6.4519 13.1303 6.86016 13.5386C7.26842 13.9468 7.82139 14.1774 8.39875 14.18H16.4883Z" fill="currentColor"/>
</svg>
