<svg width="140" height="140" viewBox="0 0 140 140" fill="none" xmlns="http://www.w3.org/2000/svg">
<path d="M70 140C108.66 140 140 108.66 140 70C140 31.3401 108.66 0 70 0C31.3401 0 0 31.3401 0 70C0 108.66 31.3401 140 70 140Z" fill="#F6F7F8"/>
<g opacity="0.75">
<path opacity="0.75" d="M99.959 73.3418L127.28 29.3557C123.553 23.9903 119.091 19.178 114.024 15.0605L76.0781 73.3418H99.959Z" fill="white"/>
</g>
<g opacity="0.75">
<path opacity="0.75" d="M0.250796 73.3419H25.7161L69.4125 0.0253906C57.1194 0.17535 45.0837 3.57485 34.5223 9.8802L0.610618 62.6458C0.340389 65.2239 0.209736 67.8147 0.219233 70.4069C0.219233 71.4063 0.219233 72.3741 0.250796 73.3419Z" fill="white"/>
</g>
<path d="M140 72.8008H0V74.2008H140V72.8008Z" fill="#B7BEC5"/>
<path d="M72.8008 74.2V0L71.4008 0V74.2H72.8008Z" fill="#B7BEC5"/>
<path d="M114.321 67.1992H125.058C125.378 67.1995 125.695 67.2639 125.988 67.3885C126.282 67.5131 126.547 67.6953 126.766 67.9239C126.985 68.1524 127.154 68.4224 127.262 68.7172C127.37 69.0121 127.416 69.3255 127.395 69.6381L126.657 80.4644C126.615 81.0431 126.35 81.5847 125.917 81.9806C125.483 82.3766 124.913 82.5975 124.319 82.5992H115.06C114.467 82.5989 113.896 82.3782 113.463 81.9819C113.031 81.5855 112.768 81.0431 112.728 80.4644L112.003 69.6128C111.987 69.3038 112.034 68.9947 112.143 68.7041C112.252 68.4136 112.419 68.1475 112.636 67.922C112.852 67.6965 113.113 67.5162 113.403 67.392C113.693 67.2678 114.005 67.2022 114.321 67.1992Z" fill="#B7BEC5"/>
<path d="M115.375 67.1869C115.375 67.1869 109.55 62.2147 113.205 46.1992C119.172 50.9382 117.332 67.1992 117.332 67.1992L115.375 67.1869Z" fill="#ECEEF1"/>
<path d="M124.869 67.1992C124.869 67.1992 129.244 63.8872 126.488 53.1992C122.029 56.3441 123.397 67.1992 123.397 67.1992H124.869Z" fill="#ECEEF1"/>
<path d="M120.593 67.1996C120.593 67.1996 123.312 52.891 120.593 40.5996C115.017 45.0957 118.946 67.1996 118.946 67.1996H120.593Z" fill="#ECEEF1"/>
<path d="M113.752 46.1992L117.6 67.1992H116.502C116.502 67.1992 108.582 60.7476 113.752 46.1992Z" fill="#B7BEC5"/>
<path d="M125.998 46.1992L122.713 67.1992L121.791 67.1454C121.791 67.1454 116.696 58.8913 125.998 46.1992Z" fill="#B7BEC5"/>
<path d="M118.617 42L120.399 67.2H119.398C119.398 67.2 112.754 58.6791 118.617 42Z" fill="#B7BEC5"/>
<path d="M92.272 35H23.9137C22.3981 35 20.9446 35.5975 19.873 36.6611C18.8013 37.7247 18.1992 39.1672 18.1992 40.6714V117.291C21.1683 120.529 24.4379 123.483 27.9647 126.113H34.4665C34.814 126.115 35.1467 126.253 35.3918 126.498C35.6369 126.742 35.7745 127.073 35.7745 127.418V131.155C45.2094 136.382 55.7319 139.379 66.524 139.913C77.316 140.448 88.0869 138.505 97.9992 134.236V40.6714C97.9992 39.9255 97.851 39.187 97.563 38.4981C97.275 37.8092 96.853 37.1834 96.321 36.6567C95.789 36.1299 95.1575 35.7124 94.4628 35.4281C93.768 35.1438 93.0235 34.9984 92.272 35Z" fill="white"/>
<path d="M36.4 127.449C36.4 127.066 36.2519 126.698 35.988 126.427C35.7242 126.155 35.3661 126.002 34.992 126H28C30.6754 128.056 33.4816 129.927 36.4 131.6V127.449Z" fill="#ECEEF1"/>
<path d="M34.6618 64.6445H26.752C26.0304 64.6445 25.4453 65.2307 25.4453 65.9539V73.8795C25.4453 74.6026 26.0304 75.1888 26.752 75.1888H34.6618C35.3835 75.1888 35.9685 74.6026 35.9685 73.8795V65.9539C35.9685 65.2307 35.3835 64.6445 34.6618 64.6445Z" fill="#ECEEF1"/>
<path d="M34.6618 108.188H26.752C26.0304 108.188 25.4453 108.774 25.4453 109.497V117.422C25.4453 118.146 26.0304 118.732 26.752 118.732H34.6618C35.3835 118.732 35.9685 118.146 35.9685 117.422V109.497C35.9685 108.774 35.3835 108.188 34.6618 108.188Z" fill="#ECEEF1"/>
<path d="M89.9849 68.1166H48.7758C48.6084 68.1166 48.4478 68.05 48.3294 67.9314C48.211 67.8127 48.1445 67.6519 48.1445 67.4841C48.1445 67.3163 48.211 67.1555 48.3294 67.0368C48.4478 66.9182 48.6084 66.8516 48.7758 66.8516H89.9849C90.1524 66.8516 90.3129 66.9182 90.4313 67.0368C90.5497 67.1555 90.6162 67.3163 90.6162 67.4841C90.6162 67.6519 90.5497 67.8127 90.4313 67.9314C90.3129 68.05 90.1524 68.1166 89.9849 68.1166Z" fill="#E6E6E6"/>
<path d="M89.9849 72.9818H48.7758C48.6084 72.9818 48.4478 72.9152 48.3294 72.7966C48.211 72.678 48.1445 72.5171 48.1445 72.3493C48.1445 72.1816 48.211 72.0207 48.3294 71.9021C48.4478 71.7834 48.6084 71.7168 48.7758 71.7168H89.9849C90.1524 71.7168 90.3129 71.7834 90.4313 71.9021C90.5497 72.0207 90.6162 72.1816 90.6162 72.3493C90.6162 72.5171 90.5497 72.678 90.4313 72.7966C90.3129 72.9152 90.1524 72.9818 89.9849 72.9818Z" fill="#E6E6E6"/>
<path d="M48.7758 111.66C48.6084 111.66 48.4478 111.593 48.3294 111.474C48.211 111.356 48.1445 111.195 48.1445 111.027C48.1445 110.859 48.211 110.698 48.3294 110.58C48.4478 110.461 48.6084 110.395 48.7758 110.395H89.9849C90.1524 110.395 90.3129 110.461 90.4313 110.58C90.5497 110.698 90.6162 110.859 90.6162 111.027C90.6162 111.195 90.5497 111.356 90.4313 111.474C90.3129 111.593 90.1524 111.66 89.9849 111.66H48.7758Z" fill="#E6E6E6"/>
<path d="M89.9849 116.525H48.7758C48.6084 116.525 48.4478 116.458 48.3294 116.34C48.211 116.221 48.1445 116.06 48.1445 115.892C48.1445 115.725 48.211 115.564 48.3294 115.445C48.4478 115.326 48.6084 115.26 48.7758 115.26H89.9849C90.1524 115.26 90.3129 115.326 90.4313 115.445C90.5497 115.564 90.6162 115.725 90.6162 115.892C90.6162 116.06 90.5497 116.221 90.4313 116.34C90.3129 116.458 90.1524 116.525 89.9849 116.525Z" fill="#E6E6E6"/>
<path d="M89.9849 129.124H48.7758C48.6084 129.124 48.4478 129.058 48.3294 128.939C48.211 128.821 48.1445 128.66 48.1445 128.492C48.1445 128.324 48.211 128.163 48.3294 128.045C48.4478 127.926 48.6084 127.859 48.7758 127.859H89.9849C90.1524 127.859 90.3129 127.926 90.4313 128.045C90.5497 128.163 90.6162 128.324 90.6162 128.492C90.6162 128.66 90.5497 128.821 90.4313 128.939C90.3129 129.058 90.1524 129.124 89.9849 129.124Z" fill="#E6E6E6"/>
<path d="M89.9849 133.99H48.7758C48.6084 133.99 48.4478 133.923 48.3294 133.804C48.211 133.686 48.1445 133.525 48.1445 133.357C48.1445 133.189 48.211 133.028 48.3294 132.91C48.4478 132.791 48.6084 132.725 48.7758 132.725H89.9849C90.1524 132.725 90.3129 132.791 90.4313 132.91C90.5497 133.028 90.6162 133.189 90.6162 133.357C90.6162 133.525 90.5497 133.686 90.4313 133.804C90.3129 133.923 90.1524 133.99 89.9849 133.99Z" fill="#E6E6E6"/>
<path d="M105.449 78.4004H34.5478C31.7039 78.4004 29.3984 80.6884 29.3984 83.5107V94.2901C29.3984 97.1124 31.7039 99.4004 34.5478 99.4004H105.449C108.293 99.4004 110.598 97.1124 110.598 94.2901V83.5107C110.598 80.6884 108.293 78.4004 105.449 78.4004Z" fill="#F15525"/>
<path d="M45.9834 82.5996H39.4135C37.7483 82.5996 36.3984 83.9495 36.3984 85.6147V92.1846C36.3984 93.8497 37.7483 95.1996 39.4135 95.1996H45.9834C47.6486 95.1996 48.9984 93.8497 48.9984 92.1846V85.6147C48.9984 83.9495 47.6486 82.5996 45.9834 82.5996Z" fill="#ECEEF1"/>
<path d="M103.393 88.2004H59.0042C58.5783 88.2004 58.1699 88.0529 57.8687 87.7903C57.5676 87.5278 57.3984 87.1717 57.3984 86.8004C57.3984 86.4291 57.5676 86.073 57.8687 85.8104C58.1699 85.5479 58.5783 85.4004 59.0042 85.4004H103.393C103.819 85.4004 104.227 85.5479 104.528 85.8104C104.829 86.073 104.998 86.4291 104.998 86.8004C104.998 87.1717 104.829 87.5278 104.528 87.7903C104.227 88.0529 103.819 88.2004 103.393 88.2004Z" fill="#ECEEF1"/>
<path d="M93.6105 93.8H58.9864C58.5653 93.8 58.1613 93.6525 57.8635 93.3899C57.5657 93.1274 57.3984 92.7713 57.3984 92.4C57.3984 92.0287 57.5657 91.6726 57.8635 91.41C58.1613 91.1475 58.5653 91 58.9864 91H93.6105C94.0316 91 94.4355 91.1475 94.7333 91.41C95.0311 91.6726 95.1984 92.0287 95.1984 92.4C95.1984 92.7713 95.0311 93.1274 94.7333 93.3899C94.4355 93.6525 94.0316 93.8 93.6105 93.8Z" fill="#ECEEF1"/>
<path d="M90.0779 43.4004L87.5027 44.6622C87.2046 44.8056 86.9542 45.0322 86.7817 45.3146C86.6078 45.5893 86.5155 45.9078 86.5156 46.233V54.7738L89.0907 53.512C89.3876 53.3665 89.6375 53.1405 89.8118 52.8596C89.9826 52.5839 90.0719 52.2655 90.0693 51.9412" fill="#EF5630"/>
<path d="M84.7615 50.834L82.1864 52.1044C81.89 52.2435 81.6396 52.4645 81.4647 52.7413C81.2898 53.0181 81.1977 53.3392 81.1992 53.6666V57.4005L83.7743 56.1387C84.0725 55.9953 84.3229 55.7687 84.4954 55.4863C84.6693 55.2116 84.7616 54.8931 84.7615 54.5679" fill="#EF5630"/>
</svg>
