<svg width="141" height="140" viewBox="0 0 141 140" fill="none" xmlns="http://www.w3.org/2000/svg">
<path d="M127.576 29.1724L99.3053 73.2281H74.6065L113.864 14.898C99.9269 3.97853 82.3696 -1.25388 64.7286 0.254705C47.0875 1.76329 30.6736 9.90079 18.7927 23.0281C6.91192 36.1555 0.447002 53.2973 0.700157 71.0009C0.953312 88.7045 7.90573 105.654 20.157 118.437C32.4084 131.219 49.0483 138.884 66.7253 139.887C84.4022 140.891 101.803 135.159 115.422 123.845C129.041 112.532 137.867 96.4774 140.123 78.9162C142.378 61.355 137.895 43.5916 127.576 29.204V29.1724Z" fill="#F6F7F8"/>
<path opacity="0.75" d="M99.3259 74.2L128.093 29.3172C124.154 23.8093 119.457 18.8881 114.14 14.7L74.1931 74.2H99.3259Z" fill="white"/>
<path d="M140.693 73.1356H0.692993V74.4801H140.693V73.1356Z" fill="#ACB4BB"/>
<path d="M70.9606 73.4794V0L69.5992 0V73.4794H70.9606Z" fill="#ACB4BB"/>
<path opacity="0.75" d="M0.712778 73.5H26.3823L69.293 0C57.0719 0.165874 45.4839 3.45964 35.0028 9.73718L1.02557 62.8205C0.714599 65.6474 0.715629 68.1064 0.711974 70.6731C0.711974 71.6405 0.668736 72.5451 0.712778 73.5Z" fill="white"/>
<path d="M31.7003 65.856C31.6297 65.8563 31.5617 65.8299 31.5098 65.7821C31.4579 65.7343 31.4259 65.6688 31.4203 65.5984C31.4203 65.3968 29.8523 45.08 35.7267 30.492C35.7403 30.4578 35.7605 30.4266 35.7861 30.4002C35.8118 30.3738 35.8424 30.3527 35.8762 30.3382C35.91 30.3236 35.9463 30.3158 35.9831 30.3153C36.0199 30.3148 36.0565 30.3216 36.0907 30.3352C36.1254 30.3482 36.1571 30.368 36.1839 30.3935C36.2107 30.4191 36.2321 30.4498 36.2468 30.4838C36.2614 30.5178 36.269 30.5544 36.2692 30.5914C36.2693 30.6285 36.2619 30.6651 36.2475 30.6992C30.4291 45.164 31.9691 65.38 31.9859 65.5536C31.9889 65.5904 31.9847 65.6275 31.9734 65.6626C31.9621 65.6978 31.9439 65.7303 31.92 65.7584C31.8961 65.7865 31.8668 65.8096 31.8339 65.8264C31.801 65.8431 31.7651 65.8532 31.7283 65.856H31.7003Z" fill="#B7BEC5"/>
<path d="M34.6017 66.7631C34.5323 66.7622 34.4657 66.7362 34.4142 66.6898C34.3627 66.6435 34.3298 66.5799 34.3217 66.5111C34.3217 66.3487 32.748 49.8623 38.6393 38.0239C38.6554 37.9908 38.6779 37.9612 38.7055 37.9367C38.7331 37.9123 38.7653 37.8936 38.8001 37.8816C38.835 37.8697 38.8719 37.8647 38.9086 37.867C38.9454 37.8693 38.9814 37.8789 39.0145 37.8951C39.0476 37.9112 39.0773 37.9337 39.1015 37.9615C39.1258 37.9892 39.1442 38.0215 39.1557 38.0566C39.1672 38.0916 39.1716 38.1286 39.1685 38.1653C39.1653 38.202 39.1549 38.2377 39.1377 38.2703C33.3248 49.9687 34.8649 66.2703 34.8817 66.4551C34.8855 66.4919 34.8821 66.5291 34.8715 66.5646C34.8608 66.6 34.8433 66.633 34.8199 66.6617C34.7965 66.6903 34.7676 66.714 34.7349 66.7314C34.7023 66.7489 34.6665 66.7596 34.6297 66.7631H34.6017Z" fill="#B7BEC5"/>
<path d="M36.1809 67.3119C36.1124 67.3112 36.0465 67.286 35.9951 67.2407C35.9437 67.1955 35.9103 67.1333 35.9009 67.0655C35.9009 66.9199 34.3273 52.2367 40.2241 41.6863C40.2416 41.6538 40.2655 41.6252 40.2943 41.6021C40.3231 41.5791 40.3563 41.562 40.3918 41.5521C40.4274 41.5422 40.4646 41.5395 40.5012 41.5443C40.5378 41.5491 40.5731 41.5612 40.6049 41.5799C40.6694 41.6164 40.7168 41.6769 40.7368 41.7483C40.7567 41.8197 40.7476 41.8961 40.7113 41.9607C34.9041 52.3543 36.4385 66.8583 36.4553 67.0039C36.4632 67.0774 36.4417 67.151 36.3955 67.2087C36.3494 67.2663 36.2823 67.3035 36.2089 67.3119H36.1809Z" fill="#B7BEC5"/>
<path d="M28.5077 66.192C28.4708 66.1885 28.4351 66.1778 28.4024 66.1604C28.3697 66.1429 28.3409 66.1192 28.3174 66.0906C28.294 66.062 28.2765 66.029 28.2659 65.9935C28.2553 65.958 28.2518 65.9208 28.2557 65.884C28.2557 65.7216 29.8125 49.3976 23.9941 37.6992C23.9779 37.6661 23.9684 37.6302 23.9661 37.5934C23.9638 37.5567 23.9688 37.5198 23.9808 37.485C23.9927 37.4501 24.0114 37.418 24.0358 37.3904C24.0602 37.3628 24.0898 37.3402 24.1229 37.324C24.156 37.3079 24.1919 37.2984 24.2287 37.2961C24.2655 37.2938 24.3023 37.2988 24.3372 37.3107C24.372 37.3227 24.4041 37.3414 24.4318 37.3658C24.4594 37.3902 24.4819 37.4197 24.4981 37.4528C30.3837 49.2912 28.8269 65.7776 28.8101 65.94C28.8073 65.9766 28.7972 66.0123 28.7804 66.0449C28.7635 66.0775 28.7403 66.1065 28.7121 66.13C28.6839 66.1535 28.6513 66.1711 28.6162 66.1817C28.5811 66.1924 28.5442 66.1959 28.5077 66.192Z" fill="#B7BEC5"/>
<path d="M25.7147 41.0872C25.7147 41.0872 24.2195 37.576 27.5795 35.9016C29.4163 39.5752 25.7147 41.0872 25.7147 41.0872Z" fill="#B7BEC5"/>
<path d="M25.5675 41.4512L25.4555 41.1992C25.4555 41.16 23.8987 37.4248 27.4547 35.6496L27.7011 35.5264L27.8299 35.7784C28.1096 36.2653 28.2835 36.8057 28.3405 37.3644C28.3974 37.923 28.336 38.4874 28.1603 39.0208C27.6991 40.0629 26.8638 40.8942 25.8195 41.3504L25.5675 41.4512ZM27.4491 36.288C25.1475 37.604 25.6179 39.9 25.8699 40.7008C26.6572 40.2956 27.2803 39.6309 27.6339 38.8192C27.7733 38.4062 27.8288 37.9696 27.797 37.5349C27.7653 37.1002 27.647 36.6763 27.4491 36.288Z" fill="#B7BEC5"/>
<path d="M34.3935 37.0105C34.3935 37.0105 34.3375 33.1969 38.0783 32.9113C38.4199 37.0105 34.3935 37.0105 34.3935 37.0105Z" fill="#B7BEC5"/>
<path d="M34.12 37.2904V37.016C34.12 36.9768 34.12 32.9336 38.04 32.6312H38.32V32.9112C38.3973 33.4674 38.3553 34.0337 38.197 34.5724C38.0386 35.1112 37.7675 35.6101 37.4016 36.036C36.5849 36.8321 35.4954 37.2867 34.3552 37.3072L34.12 37.2904ZM37.816 33.2248C35.1896 33.572 34.7584 35.8736 34.6912 36.7136C35.5717 36.6344 36.3982 36.2548 37.032 35.6384C37.315 35.3075 37.53 34.9239 37.6645 34.5098C37.7991 34.0956 37.8505 33.6589 37.816 33.2248Z" fill="#B7BEC5"/>
<path d="M32.9388 42.5936C32.9388 42.5936 32.8772 38.78 36.618 38.5C36.9372 42.5936 32.9388 42.5936 32.9388 42.5936Z" fill="#B7BEC5"/>
<path d="M32.6587 42.8738V42.5994C32.6587 42.5602 32.6587 38.517 36.5787 38.2146H36.8531V38.489C36.9308 39.0461 36.8891 39.6133 36.7308 40.153C36.5724 40.6928 36.3011 41.1926 35.9347 41.6194C35.1169 42.4103 34.0313 42.8642 32.8939 42.8906L32.6587 42.8738ZM36.3547 38.8026C33.7339 39.1554 33.3027 41.457 33.2299 42.2914C34.1111 42.2149 34.9385 41.8349 35.5707 41.2162C35.8556 40.8864 36.0717 40.503 36.2063 40.0885C36.341 39.6741 36.3914 39.2369 36.3547 38.8026Z" fill="#B7BEC5"/>
<path d="M32.1491 47.544C32.1491 47.544 32.0875 43.7304 35.8339 43.4448C36.1475 47.544 32.1491 47.544 32.1491 47.544Z" fill="#B7BEC5"/>
<path d="M31.8734 47.8241V47.5497C31.8734 47.5105 31.8734 43.4673 35.7934 43.1649H36.0734V43.4393C36.1497 43.9964 36.1073 44.5632 35.949 45.1027C35.7907 45.6422 35.5202 46.1422 35.155 46.5697C34.3359 47.362 33.2479 47.8159 32.1086 47.8409L31.8734 47.8241ZM35.5694 43.7529C34.7157 43.8617 33.9296 44.2741 33.3548 44.9146C32.78 45.5552 32.455 46.3812 32.439 47.2417C33.3222 47.1665 34.1518 46.7864 34.7854 46.1665C35.3554 45.4972 35.6373 44.6294 35.5694 43.7529Z" fill="#B7BEC5"/>
<path d="M31.4994 57.3048C31.4994 57.3048 31.4434 53.4856 35.1842 53.2056C35.4978 57.2992 31.4994 57.3048 31.4994 57.3048Z" fill="#B7BEC5"/>
<path d="M31.2238 57.5847V57.3103C31.2238 57.2655 31.2238 53.2223 35.1438 52.9255H35.4238V53.2055C35.501 53.7617 35.4591 54.328 35.3008 54.8667C35.1424 55.4055 34.8713 55.9044 34.5054 56.3303C33.6877 57.1256 32.5993 57.5817 31.459 57.6071L31.2238 57.5847ZM34.9198 53.5135C32.2878 53.8607 31.8622 56.1679 31.795 57.0023C32.6755 56.9231 33.502 56.5435 34.1358 55.9271C34.4199 55.5969 34.6355 55.2134 34.7701 54.799C34.9047 54.3847 34.9555 53.9477 34.9198 53.5135Z" fill="#B7BEC5"/>
<path d="M27.0687 45.0184C27.0687 45.0184 25.5735 41.5072 28.9335 39.8328C30.7703 43.5064 27.0687 45.0184 27.0687 45.0184Z" fill="#B7BEC5"/>
<path d="M26.9182 45.3824L26.8118 45.1304C26.8118 45.0912 25.255 41.356 28.811 39.5808L29.0574 39.4576L29.1806 39.7096C29.467 40.1992 29.6448 40.7446 29.7018 41.3089C29.7588 41.8732 29.6937 42.4431 29.511 42.98C29.0516 44.0215 28.2184 44.8528 27.1758 45.3096L26.9182 45.3824ZM28.8054 40.2192C26.4982 41.5352 26.9742 43.8312 27.2206 44.66C28.0068 44.2534 28.6295 43.5892 28.9846 42.7784C29.1272 42.3615 29.1848 41.9203 29.154 41.4807C29.1232 41.0412 29.0047 40.6122 28.8054 40.2192Z" fill="#B7BEC5"/>
<path d="M28.1327 49.9297C28.1327 49.9297 26.6599 46.4129 30.0199 44.7385C31.8343 48.4177 28.1327 49.9297 28.1327 49.9297Z" fill="#B7BEC5"/>
<path d="M27.9868 50.2938L27.8748 50.0362C27.8748 50.0026 26.318 46.2618 29.874 44.4922L30.126 44.3634L30.2492 44.6154C30.5316 45.1013 30.7071 45.6419 30.7641 46.201C30.821 46.7601 30.7581 47.3249 30.5796 47.8578C30.1245 48.9041 29.2873 49.7373 28.2388 50.1874L27.9868 50.2938ZM29.8684 45.125C29.1185 45.5476 28.5465 46.2267 28.2574 47.0375C27.9682 47.8482 27.9815 48.7361 28.2948 49.5378C29.0821 49.1326 29.7052 48.4679 30.0588 47.6562C30.1958 47.2426 30.2495 46.806 30.2168 46.3716C30.1842 45.9371 30.0657 45.5134 29.8684 45.125Z" fill="#B7BEC5"/>
<path d="M28.856 55.7984C28.856 55.7984 27.3608 52.2816 30.7208 50.6128C32.5576 54.2864 28.856 55.7984 28.856 55.7984Z" fill="#B7BEC5"/>
<path d="M28.7109 56.1625L28.5989 55.9049C28.5989 55.8713 27.0421 52.1305 30.5981 50.3609L30.8445 50.2377L30.9733 50.4841C31.2543 50.9705 31.4291 51.511 31.486 52.0699C31.543 52.6287 31.4808 53.1934 31.3037 53.7265C30.8486 54.7728 30.0114 55.606 28.9629 56.0561L28.7109 56.1625ZM30.5813 50.9937C28.2797 52.3153 28.7501 54.6057 29.0021 55.4065C29.7904 55.0053 30.4142 54.3419 30.7661 53.5305C30.9054 53.1166 30.9608 52.679 30.929 52.2435C30.8973 51.8079 30.7791 51.383 30.5813 50.9937Z" fill="#B7BEC5"/>
<path d="M28.9005 62.5239C28.9005 62.5239 28.1333 59.7687 30.7933 58.8503C31.7733 61.7623 28.9005 62.5239 28.9005 62.5239Z" fill="#B7BEC5"/>
<path d="M28.6817 62.8656L28.6089 62.5968C28.6089 62.5968 27.8025 59.5784 30.6753 58.5872L30.9441 58.4976L31.0337 58.7608C31.1994 59.1586 31.2781 59.5873 31.2645 60.018C31.251 60.4488 31.1456 60.8717 30.9553 61.2584C30.5049 62.0048 29.7886 62.553 28.9505 62.7928L28.6817 62.8656ZM30.5801 59.22C30.0296 59.459 29.5791 59.8816 29.3055 60.4157C29.0318 60.9498 28.9518 61.5623 29.0793 62.1488C29.6551 61.9272 30.1401 61.519 30.4569 60.9896C30.7239 60.4375 30.768 59.8037 30.5801 59.22Z" fill="#B7BEC5"/>
<path d="M36.5669 63.6609C36.5669 63.6609 35.7213 60.6146 38.6613 59.601C39.7701 62.8154 36.5669 63.6609 36.5669 63.6609Z" fill="#B7BEC5"/>
<path d="M36.3699 64.0024L36.2971 63.7336C36.2971 63.7 35.4123 60.4184 38.5651 59.3376L38.8339 59.2424L38.9235 59.5112C39.1026 59.948 39.1877 60.4175 39.1733 60.8894C39.1588 61.3612 39.0451 61.8247 38.8395 62.2496C38.3431 63.0663 37.5573 63.6661 36.6387 63.9296L36.3699 64.0024ZM38.4811 59.9704C37.8568 60.24 37.3468 60.7199 37.0399 61.3267C36.7329 61.9334 36.6484 62.6286 36.8011 63.2912C37.4595 63.0463 38.0146 62.584 38.3747 61.9808C38.6728 61.3507 38.711 60.6285 38.4811 59.9704Z" fill="#B7BEC5"/>
<path d="M36.0133 58.8728C36.0133 58.8728 35.5709 55.0816 39.2669 54.4264C39.9893 58.4696 36.0133 58.8728 36.0133 58.8728Z" fill="#B7BEC5"/>
<path d="M35.7663 59.1808L35.7327 58.9064C35.7327 58.8672 35.3071 54.8464 39.2159 54.152L39.4903 54.1016L39.5407 54.376C39.6725 54.9228 39.6873 55.4914 39.584 56.0444C39.4808 56.5974 39.2618 57.1223 38.9415 57.5848C38.2091 58.4572 37.1718 59.0179 36.0407 59.1528L35.7663 59.1808ZM39.0367 54.74C36.4495 55.3504 36.2367 57.6856 36.2703 58.5256C37.1451 58.362 37.9365 57.901 38.5103 57.2208C38.7569 56.8622 38.9302 56.4585 39.0206 56.0328C39.1109 55.6071 39.1164 55.1678 39.0367 54.74Z" fill="#B7BEC5"/>
<path d="M37.3007 52.5896C37.3007 52.5896 37.3847 48.7704 41.131 48.6304C41.3102 52.7352 37.3007 52.5896 37.3007 52.5896Z" fill="#B7BEC5"/>
<path d="M37.3734 52.8696H37.3006H37.0206V52.5952C37.0206 52.5504 37.155 48.5128 41.1254 48.3616H41.4054V48.6416C41.4606 49.2012 41.3963 49.7662 41.2167 50.2991C41.0372 50.832 40.7465 51.3207 40.3638 51.7328C39.5409 52.4668 38.4762 52.8716 37.3734 52.8696ZM40.8734 48.9496C38.2302 49.2016 37.7206 51.4864 37.6198 52.3096C38.5031 52.2652 39.3438 51.917 39.9998 51.324C40.2978 51.0028 40.5286 50.6254 40.6786 50.2138C40.8286 49.8022 40.8949 49.3647 40.8734 48.9272V48.9496Z" fill="#B7BEC5"/>
<path d="M39.1425 45.4498C39.1425 45.4498 40.1505 41.765 43.8241 42.5434C42.9785 46.5642 39.1425 45.4498 39.1425 45.4498Z" fill="#B7BEC5"/>
<path d="M40.2977 45.8696C39.8822 45.8721 39.4682 45.8213 39.0657 45.7184L38.7969 45.64L38.8697 45.3712C38.8697 45.332 39.9897 41.4512 43.9097 42.2688L44.1841 42.3248L44.1281 42.5992C44.028 43.5252 43.5793 44.3784 42.8732 44.9858C42.167 45.5931 41.2562 45.9091 40.3257 45.8696H40.2977ZM39.5081 45.22C40.3759 45.3901 41.2759 45.2556 42.0561 44.8392C42.78 44.3614 43.2854 43.6165 43.4617 42.7672C40.8689 42.3696 39.8105 44.4584 39.5081 45.22Z" fill="#B7BEC5"/>
<path d="M26.2069 43.7249C26.2069 43.7249 25.9829 39.9169 22.2309 39.9113C22.2197 44.0217 26.2069 43.7249 26.2069 43.7249Z" fill="#B7BEC5"/>
<path d="M26.0274 44.0105C24.9588 44.0316 23.9186 43.6657 23.0986 42.9801C22.7063 42.5799 22.4035 42.1007 22.2104 41.5746C22.0173 41.0484 21.9383 40.4872 21.9786 39.9281V39.6201H22.2586C26.229 39.6201 26.5146 43.6577 26.5146 43.6969V43.9769H26.2402L26.0274 44.0105ZM22.5162 40.1801C22.5131 40.6156 22.5966 41.0473 22.762 41.4501C22.9273 41.853 23.1712 42.2189 23.4794 42.5265C24.1562 43.0959 25.0087 43.4144 25.893 43.4281C25.7586 42.6217 25.1594 40.3593 22.5162 40.1801Z" fill="#B7BEC5"/>
<path d="M34.4383 34.0984C34.4383 34.0984 35.0991 30.3408 31.4479 29.4728C30.4903 33.46 34.4383 34.0984 34.4383 34.0984Z" fill="#B7BEC5"/>
<path d="M34.6684 34.4176L34.394 34.3784C33.2753 34.1697 32.2758 33.5481 31.594 32.6368C31.3014 32.1578 31.1132 31.6223 31.0418 31.0655C30.9704 30.5087 31.0174 29.943 31.1796 29.4056L31.2468 29.1312L31.5212 29.1984C35.3796 30.1168 34.7244 34.1096 34.7188 34.1488L34.6684 34.4176ZM31.6612 29.82C31.5576 30.2434 31.5389 30.683 31.6061 31.1137C31.6734 31.5443 31.8254 31.9573 32.0532 32.3288C32.5828 33.0372 33.3402 33.5415 34.198 33.7568C34.2596 32.9 34.198 30.576 31.6612 29.82Z" fill="#B7BEC5"/>
<path d="M33.3073 39.3288C33.3073 39.3288 33.9681 35.5656 30.3169 34.6976C29.3593 38.696 33.3073 39.3288 33.3073 39.3288Z" fill="#B7BEC5"/>
<path d="M33.532 39.648L33.2632 39.62C32.1432 39.4179 31.1421 38.7973 30.4632 37.884C30.1606 37.405 29.9646 36.8666 29.8882 36.3053C29.8119 35.7439 29.8571 35.1727 30.0208 34.6304L30.088 34.3616L30.3568 34.4232C34.2208 35.3472 33.5656 39.3344 33.56 39.3736L33.532 39.648ZM30.5248 35.0448C30.4219 35.4685 30.4041 35.9084 30.4724 36.339C30.5406 36.7696 30.6936 37.1824 30.9224 37.5536C31.4473 38.2643 32.2039 38.7694 33.0616 38.9816C33.1812 38.1302 32.9908 37.2642 32.5251 36.5415C32.0594 35.8188 31.3495 35.2876 30.5248 35.0448Z" fill="#B7BEC5"/>
<path d="M34.7911 52.1303C34.7911 52.1303 36.2527 48.6023 32.8815 46.9615C31.0783 50.6519 34.7911 52.1303 34.7911 52.1303Z" fill="#B7BEC5"/>
<path d="M34.9492 52.5001L34.6916 52.3993C33.6417 51.9577 32.7975 51.1355 32.3284 50.0977C32.1462 49.5657 32.079 49.0011 32.1311 48.4412C32.1833 47.8813 32.3536 47.3389 32.6308 46.8497L32.754 46.5977L33.006 46.7209C36.5732 48.4569 35.0668 52.2089 35.0556 52.2481L34.9492 52.5001ZM33.0116 47.3481C32.819 47.7395 32.7059 48.1653 32.679 48.6007C32.6521 49.0362 32.7118 49.4727 32.8548 49.8849C33.217 50.689 33.8434 51.3451 34.63 51.7441C34.8764 50.9377 35.3244 48.6417 33.0116 47.3481Z" fill="#B7BEC5"/>
<path d="M27.0251 48.8657C27.0251 48.8657 26.8011 45.0521 23.0491 45.0521C23.0379 49.1401 27.0251 48.8657 27.0251 48.8657Z" fill="#B7BEC5"/>
<path d="M26.8464 49.1402C25.7756 49.1566 24.7351 48.7846 23.9176 48.093C23.5228 47.6933 23.2166 47.215 23.0188 46.6891C22.821 46.1633 22.7361 45.6018 22.7696 45.041V44.761H23.0496C27.02 44.761 27.3056 48.7986 27.3056 48.8378V49.1122H27.0312L26.8464 49.1402ZM23.3352 45.3266C23.3328 45.7628 23.4167 46.1951 23.582 46.5987C23.7473 47.0024 23.9907 47.3694 24.2984 47.6786C24.9739 48.25 25.8272 48.5688 26.712 48.5802C26.5832 47.7626 25.9784 45.4946 23.3352 45.3378V45.3266Z" fill="#B7BEC5"/>
<path d="M28.2567 53.7377C28.2567 53.7377 28.0327 49.9241 24.2807 49.9185C24.2695 54.0289 28.2567 53.7377 28.2567 53.7377Z" fill="#B7BEC5"/>
<path d="M28.0781 54.0178C27.0069 54.0373 25.9654 53.6649 25.1493 52.9705C24.7552 52.5716 24.4513 52.0926 24.258 51.5661C24.0648 51.0396 23.9868 50.4778 24.0293 49.9185V49.6385H24.3093C28.2797 49.6385 28.5597 53.6762 28.5653 53.721V53.9954H28.2909L28.0781 54.0178ZM24.5669 50.2098C24.5642 50.647 24.649 51.0803 24.8163 51.4843C24.9837 51.8882 25.2302 52.2546 25.5413 52.5618C26.2175 53.1316 27.0708 53.4484 27.9549 53.4578C27.8093 52.629 27.2213 50.3666 24.5669 50.2098Z" fill="#B7BEC5"/>
<path d="M28.4536 59.2482C28.4536 59.2482 28.2296 55.4346 24.4776 55.4346C24.4664 59.5394 28.4536 59.2482 28.4536 59.2482Z" fill="#B7BEC5"/>
<path d="M28.2728 59.5337C27.2011 59.5501 26.16 59.1759 25.344 58.4809C24.9539 58.0803 24.6525 57.6019 24.4595 57.077C24.2665 56.5522 24.1863 55.9925 24.224 55.4345V55.1545H24.504C28.4744 55.1545 28.76 59.1921 28.76 59.2313V59.5057H28.4856L28.2728 59.5337ZM24.7616 55.7201C24.7624 56.6 25.1082 57.4445 25.7248 58.0721C26.4019 58.6403 27.2546 58.9569 28.1384 58.9681C28.0096 58.1393 27.4048 55.8601 24.7616 55.7201Z" fill="#B7BEC5"/>
<path d="M35.8668 30.8784C35.8668 30.8784 34.3716 27.3672 37.7316 25.6927C39.5684 29.372 35.8668 30.8784 35.8668 30.8784Z" fill="#B7BEC5"/>
<path d="M35.7167 31.22L35.6215 30.9904C35.6215 30.9512 34.0647 27.216 37.6151 25.4464L37.8671 25.3176L37.9903 25.5696C38.2726 26.0556 38.4481 26.5961 38.5051 27.1552C38.5621 27.7143 38.4992 28.2791 38.3207 28.812C37.8631 29.8547 37.0293 30.6866 35.9855 31.1416L35.7167 31.22ZM37.6039 26.0568C35.2967 27.3784 35.7727 29.6688 36.0247 30.4696C36.8119 30.0645 37.4351 29.3998 37.7887 28.588C38.0585 27.7599 37.9921 26.8589 37.6039 26.0792V26.0568Z" fill="#B7BEC5"/>
<path d="M24.101 37.3465C24.101 37.3465 20.4498 36.2265 21.3346 32.5809C25.3274 33.5441 24.101 37.3465 24.101 37.3465Z" fill="#B7BEC5"/>
<path d="M24.2815 37.6935L24.0183 37.6151C23.9791 37.6151 20.0983 36.3719 21.0671 32.5135L21.1287 32.2391L21.4031 32.3063C21.9564 32.4048 22.4825 32.6193 22.9468 32.936C23.4111 33.2526 23.803 33.664 24.0967 34.1431C24.5965 35.1681 24.6925 36.3435 24.3655 37.4359L24.2815 37.6935ZM21.5487 32.9279C21.0727 35.5375 23.1279 36.6519 23.9063 36.9767C24.1013 36.1142 23.9946 35.2109 23.6039 34.4175C23.3769 34.0456 23.0784 33.7224 22.7256 33.4667C22.3728 33.211 21.9728 33.0279 21.5487 32.9279Z" fill="#B7BEC5"/>
<path d="M38.8682 38.1472C38.8682 38.1472 37.373 34.6359 40.733 32.9615C42.5698 36.6351 38.8682 38.1472 38.8682 38.1472Z" fill="#B7BEC5"/>
<path d="M38.7181 38.5L38.6117 38.248C38.6117 38.2088 37.0549 34.468 40.6053 32.6984L40.8573 32.5752L40.9805 32.8272C41.2629 33.3131 41.4384 33.8537 41.4954 34.4128C41.5523 34.9719 41.4895 35.5367 41.3109 36.0696C40.8596 37.1159 40.0266 37.951 38.9813 38.4048L38.7181 38.5ZM40.6053 33.348C38.2981 34.664 38.7741 36.96 39.0261 37.7552C39.8133 37.3525 40.4366 36.6896 40.7901 35.8792C41.0661 35.0443 40.9996 34.134 40.6053 33.348Z" fill="#B7BEC5"/>
<path d="M40.4595 41.8209C40.4595 41.8209 38.9811 38.3097 42.3411 36.6353C44.1611 40.3089 40.4595 41.8209 40.4595 41.8209Z" fill="#B7BEC5"/>
<path d="M40.3135 42.1848L40.2015 41.9328C40.2015 41.8936 38.6447 38.1584 42.2007 36.3832L42.4527 36.26L42.5759 36.512C42.856 36.9989 43.0297 37.5395 43.0857 38.0984C43.1417 38.6573 43.0786 39.2217 42.9007 39.7544C42.4395 40.7965 41.6042 41.6278 40.5599 42.084L40.3135 42.1848ZM42.1951 37.0216C39.8935 38.3376 40.3639 40.6336 40.6159 41.4344C41.4031 41.0292 42.0263 40.3646 42.3799 39.5528C42.5193 39.1399 42.5748 38.7032 42.543 38.2686C42.5113 37.8339 42.393 37.4099 42.1951 37.0216Z" fill="#B7BEC5"/>
<path d="M21.1941 32.1273L24.1733 37.3465C24.4698 36.7692 24.6102 36.1245 24.5808 35.4762C24.5513 34.8279 24.3529 34.1985 24.0053 33.6505C23.6635 33.2203 23.2383 32.8636 22.7552 32.6018C22.2722 32.3401 21.7411 32.1787 21.1941 32.1273Z" fill="#ECEEF1"/>
<path d="M31.2368 29.1761L34.2104 34.3953C34.5069 33.8181 34.6473 33.1733 34.6179 32.525C34.5884 31.8767 34.39 31.2474 34.0424 30.6993C33.702 30.269 33.2778 29.9122 32.7956 29.6504C32.3134 29.3886 31.7831 29.2273 31.2368 29.1761Z" fill="#ECEEF1"/>
<path d="M37.8606 25.4073L35.9902 31.1193C35.9902 31.1193 34.5622 29.4393 35.4302 27.4625C35.6759 26.9739 36.0179 26.54 36.4356 26.1869C36.8532 25.8337 37.3379 25.5685 37.8606 25.4073Z" fill="#ECEEF1"/>
<path d="M36.9656 38.5L32.676 42.7113C32.5492 42.0756 32.5904 41.4178 32.7957 40.803C33.0009 40.1882 33.3631 39.6376 33.8464 39.2056C34.2915 38.883 34.7975 38.6541 35.3336 38.5328C35.8698 38.4115 36.425 38.4004 36.9656 38.5Z" fill="#ECEEF1"/>
<path d="M38.5333 32.6648L34.2493 36.876C34.122 36.2395 34.163 35.5808 34.3683 34.9649C34.5735 34.3491 34.936 33.7976 35.4197 33.3648C35.8644 33.0435 36.3696 32.8159 36.9048 32.6955C37.44 32.5752 37.994 32.5647 38.5333 32.6648Z" fill="#ECEEF1"/>
<path d="M36.5729 43.1368L32.2609 47.348C32.1336 46.7115 32.1746 46.0528 32.3799 45.4369C32.5851 44.8211 32.9476 44.2696 33.4313 43.8368C33.8799 43.5127 34.3899 43.2835 34.93 43.1631C35.4702 43.0428 36.0292 43.0338 36.5729 43.1368Z" fill="#ECEEF1"/>
<path d="M35.6209 53.1834L31.3313 57.3946C31.2039 56.7581 31.2449 56.0993 31.4502 55.4835C31.6554 54.8677 32.0179 54.3162 32.5017 53.8834C32.9474 53.5623 33.4536 53.3347 33.9897 53.2144C34.5257 53.0941 35.0806 53.0835 35.6209 53.1834Z" fill="#ECEEF1"/>
<path d="M41.411 48.5409L37.127 52.7521C36.9985 52.1156 37.0389 51.4565 37.2443 50.8405C37.4496 50.2245 37.8127 49.673 38.2974 49.2409C38.742 48.9196 39.2472 48.692 39.7824 48.5716C40.3176 48.4513 40.8716 48.4408 41.411 48.5409Z" fill="#ECEEF1"/>
<path d="M44.02 42.3138L38.9128 45.4778C38.9277 44.8297 39.1118 44.1967 39.4467 43.6417C39.7817 43.0867 40.256 42.6289 40.8224 42.3138C41.3278 42.098 41.8717 41.9867 42.4212 41.9867C42.9708 41.9867 43.5146 42.098 44.02 42.3138Z" fill="#ECEEF1"/>
<path d="M40.7119 32.6985L38.8471 38.4105C38.4432 37.9037 38.179 37.3 38.0808 36.6595C37.9825 36.0189 38.0536 35.3638 38.2871 34.7593C38.5311 34.2698 38.8718 33.8349 39.2885 33.4807C39.7053 33.1265 40.1894 32.8604 40.7119 32.6985Z" fill="#ECEEF1"/>
<path d="M27.8203 35.5488L25.9611 41.2608C25.5582 40.7535 25.2947 40.1499 25.1965 39.5096C25.0983 38.8692 25.1688 38.2144 25.4011 37.6096C25.6453 37.1213 25.9854 36.6871 26.401 36.3331C26.8166 35.979 27.2993 35.7123 27.8203 35.5488Z" fill="#ECEEF1"/>
<path d="M29.1743 39.5697L27.3151 45.2817C26.9122 44.7744 26.6487 44.1707 26.5505 43.5304C26.4523 42.8901 26.5228 42.2352 26.7551 41.6305C26.9993 41.1421 27.3394 40.708 27.755 40.3539C28.1706 39.9999 28.6533 39.7332 29.1743 39.5697Z" fill="#ECEEF1"/>
<path d="M30.1316 44.4752L28.2668 50.1928C27.8624 49.6852 27.598 49.0805 27.4998 48.439C27.4015 47.7975 27.4729 47.1414 27.7068 46.536C27.9508 46.0466 28.2915 45.6116 28.7082 45.2574C29.125 44.9032 29.6092 44.6371 30.1316 44.4752Z" fill="#ECEEF1"/>
<path d="M30.7981 50.26L28.9389 55.972C28.5356 55.4638 28.2718 54.8592 28.1736 54.2179C28.0754 53.5766 28.1462 52.9208 28.3789 52.3152C28.6237 51.8279 28.9641 51.3948 29.3797 51.0417C29.7953 50.6887 30.2777 50.4228 30.7981 50.26Z" fill="#ECEEF1"/>
<path d="M31.3983 58.66L28.5983 62.6808C28.3999 62.1897 28.3338 61.655 28.4065 61.1303C28.4792 60.6056 28.6882 60.1091 29.0127 59.6904C29.3201 59.3664 29.6899 59.108 30.0999 58.9309C30.51 58.7537 30.9517 58.6616 31.3983 58.66Z" fill="#ECEEF1"/>
<path d="M39.6694 54.3424L35.8446 58.9791C35.8446 58.9791 35.1334 56.8847 36.6454 55.3671C37.054 55.0008 37.5327 54.7211 38.0524 54.545C38.5722 54.3689 39.1223 54.2999 39.6694 54.3424Z" fill="#E6E6E6"/>
<path d="M39.3778 59.08L36.141 64.12C35.8748 63.5287 35.7678 62.8781 35.8306 62.2327C35.8935 61.5873 36.1241 60.9695 36.4994 60.4408C36.8625 60.0314 37.3048 59.6999 37.7995 59.466C38.2941 59.2321 38.831 59.1008 39.3778 59.08Z" fill="#E6E6E6"/>
<path d="M42.4142 36.0586L40.2246 41.6586C40.2246 41.6586 38.8974 39.889 39.855 37.9738C40.131 37.499 40.4999 37.0847 40.9396 36.7557C41.3793 36.4266 41.8808 36.1896 42.4142 36.0586Z" fill="#ECEEF1"/>
<path d="M30.0601 34.4009L33.0337 39.6201C33.3301 39.0428 33.4706 38.398 33.4411 37.7497C33.4117 37.1014 33.2133 36.4721 32.8657 35.9241C32.5257 35.4933 32.1016 35.1361 31.6193 34.8743C31.137 34.6124 30.6065 34.4514 30.0601 34.4009Z" fill="#ECEEF1"/>
<path d="M32.0485 46.9337L35.0221 52.1585C35.0221 52.1585 36.0805 50.2153 34.8541 48.4625C34.5146 48.0307 34.0908 47.6725 33.6084 47.4097C33.1261 47.1468 32.5954 46.9849 32.0485 46.9337Z" fill="#ECEEF1"/>
<path d="M22.0122 39.9336L26.3746 44.1C26.4899 43.4616 26.437 42.8041 26.2209 42.1923C26.0049 41.5806 25.6333 41.0357 25.1426 40.6112C24.694 40.2919 24.1852 40.0671 23.647 39.9507C23.1089 39.8342 22.5527 39.8284 22.0122 39.9336Z" fill="#ECEEF1"/>
<path d="M22.8303 44.9344L27.2207 49.0672C27.3361 48.4296 27.2832 47.773 27.0671 47.1621C26.8511 46.5512 26.4794 46.0073 25.9887 45.584C25.5345 45.2658 25.02 45.044 24.4768 44.9322C23.9336 44.8205 23.3732 44.8213 22.8303 44.9344Z" fill="#ECEEF1"/>
<path d="M24.0575 49.8007L28.4199 53.9391C28.5369 53.3007 28.4848 52.6427 28.2686 52.0306C28.0525 51.4185 27.6799 50.8737 27.1879 50.4503C26.7372 50.1358 26.2274 49.9161 25.6893 49.8044C25.1512 49.6928 24.5961 49.6915 24.0575 49.8007Z" fill="#ECEEF1"/>
<path d="M24.2194 55.3002L28.5818 59.433C28.6971 58.7945 28.6441 58.1371 28.4281 57.5253C28.2121 56.9135 27.8404 56.3686 27.3498 55.9442C26.8984 55.6312 26.3884 55.4128 25.8504 55.3021C25.3124 55.1915 24.7576 55.1908 24.2194 55.3002Z" fill="#ECEEF1"/>
<path d="M36.6838 44.0105C36.6838 44.0105 36.6222 40.1969 40.3686 39.9113C40.6598 44.0105 36.6838 44.0105 36.6838 44.0105Z" fill="#B7BEC5"/>
<path d="M36.4103 44.2904V44.016C36.4103 43.9768 36.4103 39.9336 40.3303 39.6312H40.6103V39.9056C40.6866 40.4627 40.6442 41.0296 40.4859 41.5691C40.3276 42.1086 40.057 42.6085 39.6919 43.036C38.8752 43.8321 37.7857 44.2867 36.6455 44.3072L36.4103 44.2904ZM40.1007 40.2192C37.4687 40.572 37.0375 42.8736 36.9703 43.7136C37.8528 43.6357 38.6814 43.2559 39.3167 42.6384C39.8849 41.9659 40.1664 41.0972 40.1007 40.2192Z" fill="#B7BEC5"/>
<path d="M40.711 39.8888L36.427 44.1C36.2984 43.4644 36.3388 42.8061 36.5442 42.191C36.7496 41.5758 37.1127 41.0253 37.5974 40.5944C38.0413 40.2716 38.5463 40.0426 39.0816 39.9213C39.6169 39.8 40.1713 39.7889 40.711 39.8888Z" fill="#ECEEF1"/>
<path d="M35.5375 49.0113C35.5375 49.0113 35.4759 45.1921 39.2167 44.9121C39.5415 49.0057 35.5375 49.0113 35.5375 49.0113Z" fill="#B7BEC5"/>
<path d="M35.2574 49.2914V49.017C35.2574 48.9722 35.2574 44.929 39.1774 44.6322H39.4574V44.9122C39.5372 45.4629 39.5002 46.0243 39.3487 46.5598C39.1972 47.0953 38.9347 47.5929 38.5782 48.0202C37.7605 48.8111 36.6748 49.265 35.5374 49.2914H35.2574ZM38.9814 45.2202C36.3494 45.573 35.9238 47.8746 35.8566 48.709C36.7379 48.6325 37.5652 48.2525 38.1974 47.6338C38.4815 47.3035 38.6972 46.9201 38.8318 46.5057C38.9663 46.0914 39.0172 45.6544 38.9814 45.2202Z" fill="#B7BEC5"/>
<path d="M39.3775 44.6208L35.5583 49.2576C35.3647 48.6384 35.3363 47.9794 35.4758 47.3459C35.6152 46.7124 35.9178 46.1262 36.3535 45.6456C36.7621 45.2793 37.2407 44.9996 37.7605 44.8234C38.2803 44.6473 38.8303 44.5784 39.3775 44.6208Z" fill="#ECEEF1"/>
<path d="M32.3733 44.9121C32.3733 44.9121 33.0341 41.1489 29.3829 40.2809C28.4253 44.2737 32.3733 44.9121 32.3733 44.9121Z" fill="#B7BEC5"/>
<path d="M32.5972 45.2201L32.3284 45.1753C31.2097 44.9701 30.2097 44.3501 29.5284 43.4393C29.2346 42.9597 29.0458 42.4232 28.9744 41.8653C28.9029 41.3074 28.9505 40.7407 29.114 40.2025L29.1812 39.9337L29.45 39.9953C33.314 40.9193 32.6588 44.9065 32.6532 44.9457L32.5972 45.2201ZM29.5956 40.6281C29.492 41.0515 29.4732 41.4911 29.5405 41.9218C29.6078 42.3524 29.7598 42.7654 29.9876 43.1369C30.5157 43.8442 31.271 44.3484 32.1268 44.5649C32.194 43.7305 32.1268 41.3897 29.5956 40.6281Z" fill="#B7BEC5"/>
<path d="M29.1238 39.984L32.0974 45.22C32.3939 44.6437 32.5344 43.9998 32.5049 43.3524C32.4755 42.705 32.277 42.0766 31.9294 41.5296C31.5914 41.0947 31.1683 40.7333 30.6859 40.4676C30.2035 40.2018 29.672 40.0373 29.1238 39.984Z" fill="#ECEEF1"/>
<path d="M26.012 63.98H38.2872C38.6533 63.9791 39.0158 64.0537 39.3518 64.199C39.6879 64.3444 39.9904 64.5574 40.2405 64.8249C40.4906 65.0923 40.6829 65.4084 40.8055 65.7535C40.928 66.0985 40.9782 66.4651 40.9528 66.8304L40.1016 79.4752C40.0561 80.1512 39.7555 80.7846 39.2606 81.2473C38.7657 81.71 38.1135 81.9673 37.436 81.9672H26.8576C26.1801 81.9673 25.5279 81.71 25.0329 81.2473C24.538 80.7846 24.2374 80.1512 24.192 79.4752L23.3464 66.8304C23.321 66.4651 23.3711 66.0985 23.4937 65.7535C23.6162 65.4084 23.8085 65.0923 24.0586 64.8249C24.3087 64.5574 24.6113 64.3444 24.9473 64.199C25.2834 64.0537 25.6458 63.9791 26.012 63.98Z" fill="#B7BEC5"/>
<path d="M101.981 107.016H35.6942C35.1524 107.012 34.619 106.882 34.1354 106.638C33.6518 106.393 33.2311 106.041 32.906 105.607C32.5809 105.174 32.3602 104.671 32.261 104.139C32.1619 103.606 32.1869 103.058 32.3342 102.536L35.571 91.3361C35.7823 90.6068 36.2235 89.9653 36.829 89.5071C37.4345 89.049 38.1718 88.7987 38.931 88.7937H98.851C99.6187 88.7938 100.365 89.0443 100.978 89.5071C101.59 89.97 102.035 90.62 102.245 91.3585L105.403 102.559C105.548 103.083 105.569 103.635 105.464 104.169C105.36 104.704 105.133 105.207 104.801 105.639C104.47 106.071 104.042 106.42 103.553 106.659C103.064 106.898 102.526 107.02 101.981 107.016Z" fill="#ACB4BB"/>
<path d="M95.7588 93.4194L95.4172 92.2377C95.3793 92.1022 95.298 91.9828 95.1857 91.8978C95.0734 91.8129 94.9364 91.767 94.7956 91.7673H92.4996C92.4 91.7674 92.3018 91.7903 92.2125 91.8344C92.1231 91.8785 92.0452 91.9425 91.9845 92.0216C91.9239 92.1006 91.8823 92.1925 91.8628 92.2902C91.8434 92.3879 91.8467 92.4887 91.8724 92.5849L92.186 93.7666C92.223 93.9047 92.3045 94.0267 92.4179 94.1138C92.5313 94.2009 92.6703 94.2481 92.8132 94.2482H95.1372C95.238 94.2489 95.3375 94.226 95.4278 94.1812C95.5181 94.1365 95.5967 94.0712 95.6571 93.9906C95.7176 93.91 95.7583 93.8163 95.776 93.7171C95.7936 93.6179 95.7878 93.5159 95.7588 93.4194Z" fill="#D6DADF"/>
<path d="M51.429 93.7441L51.709 92.5625C51.7309 92.4674 51.7311 92.3685 51.7095 92.2732C51.6879 92.178 51.6451 92.0889 51.5842 92.0124C51.5234 91.936 51.4462 91.8743 51.3582 91.8319C51.2703 91.7894 51.1739 91.7674 51.0762 91.7673H48.6234C48.4805 91.7674 48.3415 91.8146 48.2281 91.9017C48.1147 91.9888 48.0332 92.1108 47.9962 92.2489L47.6826 93.4305C47.6569 93.5268 47.6536 93.6276 47.673 93.7253C47.6924 93.823 47.7341 93.9149 47.7947 93.9939C47.8553 94.0729 47.9333 94.137 48.0226 94.1811C48.112 94.2251 48.2102 94.2481 48.3098 94.2481H50.8018C50.9481 94.2478 51.0898 94.1977 51.2038 94.1061C51.3178 94.0145 51.3972 93.8869 51.429 93.7441Z" fill="#D6DADF"/>
<path d="M62.8992 93.6657L63.0224 92.4841C63.0318 92.3938 63.0222 92.3025 62.9941 92.2162C62.9661 92.1298 62.9202 92.0503 62.8595 91.9828C62.7989 91.9153 62.7247 91.8612 62.6418 91.8241C62.559 91.787 62.4692 91.7676 62.3784 91.7673H59.1416C58.9861 91.7697 58.8364 91.8273 58.7194 91.9299C58.6025 92.0325 58.5258 92.1734 58.5032 92.3273L58.3072 93.5089C58.2918 93.6018 58.2968 93.6968 58.3217 93.7876C58.3467 93.8783 58.391 93.9625 58.4517 94.0344C58.5125 94.1063 58.5881 94.1642 58.6734 94.204C58.7586 94.2438 58.8515 94.2646 58.9456 94.2649H62.2328C62.4 94.2711 62.563 94.2121 62.6874 94.1003C62.8117 93.9884 62.8877 93.8326 62.8992 93.6657Z" fill="#D6DADF"/>
<path d="M79.8614 93.4753L79.6318 92.2937C79.6032 92.1455 79.5238 92.0118 79.4073 91.9157C79.2908 91.8197 79.1444 91.7672 78.9934 91.7673H75.7174C75.6266 91.7676 75.5369 91.787 75.454 91.8241C75.3712 91.8612 75.297 91.9153 75.2363 91.9828C75.1757 92.0503 75.1298 92.1298 75.1017 92.2162C75.0737 92.3026 75.064 92.3938 75.0734 92.4841L75.191 93.6657C75.2128 93.8221 75.2907 93.9651 75.4103 94.0682C75.5298 94.1713 75.6828 94.2273 75.8406 94.2257H79.2006C79.2961 94.2286 79.3909 94.2103 79.4785 94.1723C79.5661 94.1342 79.6442 94.0774 79.7073 94.0057C79.7703 93.9341 79.8169 93.8494 79.8435 93.7577C79.8702 93.6661 79.8763 93.5696 79.8614 93.4753Z" fill="#D6DADF"/>
<path d="M46.4351 93.7665L46.7487 92.5849C46.7745 92.4887 46.7777 92.3879 46.7583 92.2902C46.7389 92.1925 46.6972 92.1006 46.6366 92.0216C46.576 91.9425 46.498 91.8785 46.4087 91.8344C46.3194 91.7903 46.2211 91.7674 46.1215 91.7673H43.1255C42.9849 91.7679 42.8484 91.8141 42.7363 91.8989C42.6242 91.9838 42.5427 92.1026 42.5039 92.2377L42.1623 93.4193C42.1346 93.5158 42.1296 93.6174 42.1478 93.7161C42.166 93.8148 42.2068 93.908 42.267 93.9883C42.3272 94.0686 42.4052 94.1339 42.4949 94.1789C42.5846 94.224 42.6835 94.2477 42.7839 94.2481H45.8079C45.9509 94.2481 46.0898 94.2008 46.2032 94.1138C46.3166 94.0267 46.3981 93.9046 46.4351 93.7665Z" fill="#D6DADF"/>
<path d="M90.9372 93.4306L90.6236 92.2489C90.5875 92.1104 90.5062 91.9878 90.3927 91.9005C90.2791 91.8133 90.1396 91.7665 89.9964 91.7673H87.09C86.9925 91.7672 86.8962 91.7891 86.8084 91.8316C86.7206 91.8741 86.6436 91.9359 86.5832 92.0125C86.5228 92.0891 86.4806 92.1784 86.4597 92.2737C86.4389 92.369 86.4399 92.4677 86.4628 92.5625L86.7316 93.7442C86.7646 93.8873 86.8451 94.0152 86.96 94.1067C87.0749 94.1982 87.2175 94.2481 87.3644 94.2482H90.31C90.4096 94.2481 90.5079 94.2252 90.5972 94.1811C90.6865 94.137 90.7645 94.073 90.8252 93.9939C90.8858 93.9149 90.9274 93.823 90.9468 93.7253C90.9663 93.6276 90.963 93.5268 90.9372 93.4306Z" fill="#D6DADF"/>
<path d="M85.5169 93.4529L85.2481 92.2713C85.2152 92.1281 85.1347 92.0004 85.0198 91.9088C84.9048 91.8173 84.7623 91.7674 84.6153 91.7673H81.4513C81.3555 91.7672 81.2609 91.7884 81.1742 91.8291C81.0875 91.8699 81.0109 91.9294 80.9499 92.0032C80.8889 92.0771 80.845 92.1635 80.8213 92.2563C80.7976 92.3492 80.7948 92.4461 80.8129 92.5401L81.0425 93.7217C81.071 93.8691 81.1496 94.002 81.2649 94.098C81.3803 94.1939 81.5253 94.247 81.6753 94.2481H84.9009C84.9975 94.2466 85.0925 94.2234 85.1789 94.1802C85.2653 94.137 85.3409 94.075 85.4001 93.9986C85.4592 93.9222 85.5005 93.8335 85.5207 93.7391C85.5409 93.6446 85.5396 93.5468 85.5169 93.4529Z" fill="#D6DADF"/>
<path d="M57.1533 93.7049L57.3549 92.5233C57.3703 92.4305 57.3654 92.3354 57.3404 92.2447C57.3155 92.154 57.2711 92.0697 57.2104 91.9978C57.1497 91.9259 57.074 91.8681 56.9888 91.8283C56.9035 91.7885 56.8106 91.7677 56.7165 91.7673H53.5413C53.3944 91.7674 53.2518 91.8173 53.1368 91.9088C53.0219 92.0004 52.9414 92.1281 52.9085 92.2713L52.6341 93.4529C52.6122 93.5481 52.612 93.647 52.6336 93.7422C52.6553 93.8375 52.698 93.9266 52.7589 94.003C52.8197 94.0795 52.8969 94.1412 52.9849 94.1836C53.0728 94.226 53.1692 94.2481 53.2669 94.2482H56.4981C56.6547 94.2528 56.8076 94.2002 56.9282 94.1002C57.0488 94.0002 57.1288 93.8597 57.1533 93.7049Z" fill="#D6DADF"/>
<path d="M100.25 93.4137L99.8913 92.2321C99.8515 92.0981 99.7695 91.9804 99.6575 91.8967C99.5455 91.813 99.4095 91.7676 99.2697 91.7673H97.3097C97.2093 91.7678 97.1104 91.7915 97.0207 91.8365C96.931 91.8816 96.853 91.9469 96.7928 92.0272C96.7325 92.1075 96.6917 92.2006 96.6736 92.2993C96.6554 92.3981 96.6604 92.4997 96.6881 92.5961L97.0297 93.7777C97.0684 93.9128 97.15 94.0317 97.2621 94.1165C97.3741 94.2014 97.5107 94.2475 97.6513 94.2481H99.6281C99.7291 94.248 99.8286 94.2242 99.9189 94.1788C100.009 94.1334 100.087 94.0676 100.148 93.9866C100.208 93.9056 100.249 93.8117 100.266 93.7122C100.284 93.6128 100.278 93.5106 100.25 93.4137Z" fill="#D6DADF"/>
<path d="M68.4805 93.5986V92.417C68.4813 92.3319 68.4652 92.2476 68.4331 92.1688C68.4011 92.09 68.3538 92.0184 68.2939 91.958C68.234 91.8976 68.1628 91.8496 68.0843 91.8169C68.0058 91.7842 67.9216 91.7674 67.8365 91.7674H64.8069C64.6497 91.766 64.4975 91.8222 64.3789 91.9254C64.2602 92.0285 64.1834 92.1715 64.1629 92.3274L64.0397 93.509C64.0303 93.5993 64.04 93.6906 64.068 93.7769C64.0961 93.8633 64.142 93.9428 64.2026 94.0103C64.2633 94.0779 64.3375 94.1319 64.4204 94.169C64.5032 94.2061 64.5929 94.2255 64.6837 94.2258H67.8365C68.0045 94.2258 68.1658 94.1603 68.2861 94.0431C68.4064 93.926 68.4761 93.7664 68.4805 93.5986Z" fill="#D6DADF"/>
<path d="M37.821 92.2266L37.4626 93.4082C37.4328 93.5054 37.4262 93.6082 37.4434 93.7084C37.4606 93.8085 37.501 93.9033 37.5615 93.985C37.622 94.0667 37.7008 94.1331 37.7915 94.1788C37.8823 94.2245 37.9826 94.2483 38.0842 94.2482H40.2682C40.4088 94.2476 40.5453 94.2014 40.6574 94.1166C40.7695 94.0318 40.851 93.9129 40.8898 93.7778L41.2202 92.5962C41.2491 92.4996 41.255 92.3977 41.2373 92.2984C41.2197 92.1992 41.179 92.1056 41.1185 92.0249C41.058 91.9443 40.9795 91.879 40.8892 91.8343C40.7989 91.7895 40.6994 91.7666 40.5986 91.7674H38.4202C38.2849 91.7719 38.1545 91.8187 38.0471 91.901C37.9396 91.9833 37.8606 92.0971 37.821 92.2266Z" fill="#D6DADF"/>
<path d="M74.0476 93.5314L73.9244 92.3498C73.9028 92.1944 73.8256 92.0521 73.7073 91.9492C73.5889 91.8463 73.4373 91.7896 73.2804 91.7898H70.2508C70.0785 91.7898 69.9133 91.8582 69.7915 91.9801C69.6696 92.1019 69.6012 92.2671 69.6012 92.4394V93.621C69.6012 93.7933 69.6696 93.9585 69.7915 94.0803C69.9133 94.2022 70.0785 94.2706 70.2508 94.2706H73.4036C73.4965 94.2707 73.5884 94.2508 73.673 94.2124C73.7576 94.1739 73.833 94.1178 73.894 94.0477C73.955 93.9776 74.0003 93.8953 74.0268 93.8062C74.0533 93.7172 74.0604 93.6234 74.0476 93.5314Z" fill="#D6DADF"/>
<path d="M87.342 96.3929L87.5716 97.3897C87.6127 97.55 87.706 97.6921 87.8368 97.7935C87.9676 97.895 88.1285 97.9499 88.294 97.9497H91.1836C91.2973 97.9495 91.4094 97.923 91.5112 97.8724C91.6129 97.8218 91.7017 97.7484 91.7705 97.658C91.8393 97.5675 91.8863 97.4624 91.9079 97.3508C91.9294 97.2392 91.925 97.1241 91.8948 97.0145L91.6316 96.0177C91.5917 95.8578 91.4995 95.7159 91.3696 95.6144C91.2397 95.5129 91.0797 95.4578 90.9148 95.4577H88.0644C87.9498 95.4562 87.8364 95.4814 87.7332 95.5312C87.63 95.5811 87.5398 95.6543 87.4698 95.745C87.3997 95.8357 87.3517 95.9414 87.3295 96.0539C87.3073 96.1663 87.3116 96.2824 87.342 96.3929Z" fill="#D6DADF"/>
<path d="M81.54 96.3648L81.7304 97.3616C81.7628 97.5312 81.8532 97.6842 81.986 97.7946C82.1188 97.9049 82.2858 97.9656 82.4584 97.9664H85.6112C85.7228 97.9668 85.833 97.942 85.9336 97.8937C86.0342 97.8454 86.1225 97.775 86.192 97.6877C86.2615 97.6004 86.3103 97.4986 86.3349 97.3897C86.3594 97.2809 86.359 97.1679 86.3336 97.0593L86.104 96.0624C86.0629 95.9021 85.9696 95.76 85.8388 95.6586C85.708 95.5572 85.5471 95.5022 85.3816 95.5024H82.268C82.1606 95.5026 82.0545 95.5261 81.9571 95.5714C81.8597 95.6167 81.7733 95.6827 81.704 95.7648C81.6347 95.8469 81.5841 95.9431 81.5558 96.0467C81.5275 96.1504 81.5221 96.2589 81.54 96.3648Z" fill="#D6DADF"/>
<path d="M63.7715 96.1801L63.6707 97.1769C63.6597 97.2799 63.6705 97.384 63.7023 97.4826C63.7342 97.5811 63.7863 97.6719 63.8555 97.749C63.9247 97.8261 64.0093 97.8877 64.1038 97.93C64.1983 97.9723 64.3007 97.9943 64.4043 97.9945H67.7643C67.9608 97.993 68.1488 97.9139 68.2873 97.7744C68.4258 97.6349 68.5035 97.4463 68.5035 97.2497V96.2529C68.5035 96.0569 68.4256 95.8688 68.287 95.7302C68.1483 95.5916 67.9603 95.5137 67.7643 95.5137H64.5275C64.3405 95.5086 64.1586 95.5744 64.0183 95.6981C63.878 95.8218 63.7898 95.994 63.7715 96.1801Z" fill="#D6DADF"/>
<path d="M36.8067 96.0011L36.4931 97.0035C36.4579 97.1144 36.4493 97.232 36.4681 97.3469C36.4869 97.4617 36.5325 97.5705 36.6013 97.6643C36.67 97.7582 36.76 97.8345 36.8638 97.887C36.9676 97.9396 37.0824 97.9669 37.1987 97.9667H39.1195C39.2834 97.9654 39.4421 97.9097 39.5709 97.8083C39.6996 97.7069 39.791 97.5657 39.8307 97.4067L40.1219 96.4099C40.1541 96.2996 40.1602 96.1833 40.1396 96.0702C40.119 95.9572 40.0723 95.8505 40.0033 95.7586C39.9343 95.6668 39.8448 95.5923 39.7419 95.541C39.639 95.4898 39.5256 95.4632 39.4107 95.4635H37.5123C37.3522 95.4638 37.1965 95.5165 37.0691 95.6136C36.9417 95.7106 36.8495 95.8467 36.8067 96.0011Z" fill="#D6DADF"/>
<path d="M92.8925 96.4152L93.1613 97.412C93.201 97.571 93.2924 97.7122 93.4211 97.8136C93.5498 97.915 93.7086 97.9707 93.8725 97.972H96.1125C96.2274 97.9722 96.3408 97.9457 96.4436 97.8945C96.5465 97.8433 96.636 97.7687 96.705 97.6769C96.7741 97.585 96.8207 97.4783 96.8413 97.3653C96.8619 97.2522 96.8559 97.1359 96.8236 97.0256L96.538 96.0232C96.4975 95.8647 96.4058 95.724 96.2773 95.6228C96.1487 95.5215 95.9904 95.4655 95.8268 95.4632H93.6317C93.5138 95.4582 93.3964 95.4814 93.2893 95.531C93.1823 95.5807 93.0887 95.6552 93.0163 95.7484C92.9439 95.8416 92.8949 95.9507 92.8734 96.0667C92.8518 96.1827 92.8584 96.3022 92.8925 96.4152Z" fill="#D6DADF"/>
<path d="M41.4103 96.0177L41.1191 97.0201C41.0869 97.1304 41.0808 97.2467 41.1014 97.3598C41.122 97.4728 41.1687 97.5795 41.2377 97.6714C41.3068 97.7632 41.3963 97.8377 41.4991 97.889C41.602 97.9402 41.7154 97.9668 41.8303 97.9665H44.7479C44.9122 97.9645 45.0713 97.9087 45.2008 97.8075C45.3303 97.7063 45.423 97.5654 45.4647 97.4065L45.7279 96.4097C45.7572 96.3 45.7607 96.1851 45.7384 96.0738C45.716 95.9625 45.6684 95.8578 45.599 95.7679C45.5297 95.678 45.4406 95.6053 45.3387 95.5554C45.2367 95.5055 45.1246 95.4797 45.0111 95.4801H42.1159C41.956 95.4813 41.8007 95.5344 41.6735 95.6313C41.5463 95.7282 41.4539 95.8638 41.4103 96.0177Z" fill="#D6DADF"/>
<path d="M46.9877 96.0343L46.7245 97.0311C46.6943 97.1407 46.6899 97.2558 46.7114 97.3674C46.733 97.479 46.78 97.5841 46.8488 97.6746C46.9176 97.765 47.0064 97.8384 47.1081 97.889C47.2099 97.9396 47.322 97.9661 47.4357 97.9663H49.8549C50.0204 97.9665 50.1813 97.9116 50.3121 97.8102C50.4429 97.7087 50.5362 97.5667 50.5773 97.4063L50.8125 96.4039C50.8378 96.2953 50.8383 96.1823 50.8137 96.0734C50.7892 95.9646 50.7404 95.8627 50.6709 95.7754C50.6014 95.6882 50.513 95.6177 50.4124 95.5695C50.3118 95.5212 50.2016 95.4963 50.0901 95.4967H47.7045C47.5428 95.4964 47.3855 95.5487 47.2562 95.6457C47.1269 95.7427 47.0326 95.8791 46.9877 96.0343Z" fill="#D6DADF"/>
<path d="M52.0409 96.0567L51.8113 97.0535C51.7851 97.1621 51.7838 97.2752 51.8076 97.3843C51.8313 97.4934 51.8795 97.5958 51.9485 97.6836C52.0175 97.7715 52.1055 97.8426 52.2059 97.8915C52.3062 97.9405 52.4164 97.966 52.5281 97.9663H55.8097C55.9857 97.9661 56.156 97.9035 56.2903 97.7897C56.4246 97.6759 56.5142 97.5183 56.5433 97.3447L56.7113 96.3479C56.7283 96.2416 56.7221 96.133 56.693 96.0294C56.664 95.9257 56.6129 95.8297 56.5432 95.7477C56.4735 95.6657 56.3868 95.5999 56.2892 95.5546C56.1916 95.5093 56.0853 95.4857 55.9777 95.4855H52.7633C52.5963 95.4859 52.4343 95.5424 52.3033 95.646C52.1722 95.7496 52.0799 95.8943 52.0409 96.0567Z" fill="#D6DADF"/>
<path d="M69.6012 96.225V97.2218C69.6027 97.4189 69.6816 97.6075 69.821 97.7468C69.9603 97.8862 70.1489 97.9651 70.346 97.9666H73.706C73.8096 97.9664 73.9119 97.9444 74.0065 97.9021C74.101 97.8598 74.1856 97.7981 74.2548 97.7211C74.3239 97.644 74.3761 97.5532 74.408 97.4547C74.4398 97.3561 74.4506 97.252 74.4396 97.149L74.3164 96.1802C74.2983 95.997 74.2125 95.8272 74.0758 95.704C73.939 95.5807 73.7613 95.5129 73.5772 95.5138H70.3404C70.1495 95.515 69.9664 95.5895 69.8289 95.7219C69.6913 95.8542 69.6098 96.0343 69.6012 96.225Z" fill="#D6DADF"/>
<path d="M57.8861 96.1016L57.7181 97.104C57.7002 97.2099 57.7056 97.3184 57.7339 97.4221C57.7622 97.5257 57.8128 97.6219 57.8821 97.704C57.9514 97.7861 58.0378 97.8521 58.1352 97.8974C58.2326 97.9427 58.3387 97.9662 58.4461 97.9664H61.8061C61.9898 97.966 62.1669 97.8978 62.3034 97.7748C62.4398 97.6517 62.526 97.4826 62.5453 97.3L62.6461 96.3032C62.6571 96.1997 62.6462 96.0951 62.614 95.9962C62.5819 95.8972 62.5292 95.8062 62.4594 95.729C62.3896 95.6518 62.3043 95.5903 62.2091 95.5483C62.1139 95.5064 62.0109 95.485 61.9069 95.4856H58.6309C58.4538 95.4829 58.2815 95.5434 58.145 95.6563C58.0085 95.7692 57.9167 95.9271 57.8861 96.1016Z" fill="#D6DADF"/>
<path d="M101.184 97.0031L100.876 96.0063C100.83 95.8555 100.736 95.7236 100.609 95.6299C100.482 95.5362 100.329 95.4856 100.171 95.4855H98.4908C98.3759 95.4852 98.2625 95.5118 98.1597 95.563C98.0568 95.6142 97.9673 95.6887 97.8983 95.7806C97.8292 95.8725 97.7826 95.9792 97.762 96.0922C97.7414 96.2053 97.7474 96.3216 97.7796 96.4319L98.0708 97.4287C98.1106 97.5877 98.202 97.7289 98.3307 97.8303C98.4594 97.9317 98.6182 97.9874 98.782 97.9887H100.462C100.582 97.9929 100.702 97.9676 100.81 97.915C100.919 97.8624 101.013 97.7841 101.084 97.6869C101.155 97.5898 101.201 97.4767 101.219 97.3575C101.237 97.2383 101.225 97.1166 101.184 97.0031Z" fill="#D6DADF"/>
<path d="M75.4592 96.3031L75.5601 97.2999C75.5794 97.4826 75.6656 97.6517 75.802 97.7747C75.9384 97.8977 76.1155 97.9659 76.2992 97.9663H79.8217C79.931 97.9658 80.039 97.9412 80.1377 97.8942C80.2365 97.8473 80.3238 97.7792 80.3933 97.6947C80.4628 97.6103 80.5128 97.5115 80.5398 97.4055C80.5669 97.2996 80.5702 97.1889 80.5497 97.0815L80.3593 96.0847C80.3257 95.9162 80.2348 95.7644 80.1021 95.6552C79.9695 95.546 79.8031 95.486 79.6313 95.4855H76.1928C76.0893 95.4857 75.9869 95.5076 75.8924 95.5499C75.7978 95.5922 75.7132 95.6539 75.6441 95.731C75.5749 95.8081 75.5227 95.8989 75.4909 95.9974C75.459 96.096 75.4483 96.2001 75.4592 96.3031Z" fill="#D6DADF"/>
<path d="M63.0661 99.5402H74.8662C75.5185 99.5416 76.1526 99.7142 76.673 100.032C77.1935 100.35 77.5722 100.795 77.7523 101.302L79.3006 105.7H58.5806L60.1801 101.284C60.3634 100.78 60.7437 100.338 61.264 100.024C61.7842 99.7093 62.4165 99.5397 63.0661 99.5402Z" fill="#D6DADF"/>
<path d="M97.5061 52.6401H40.1678C37.9935 52.6401 36.231 54.4027 36.231 56.5769V83.1825C36.231 85.3568 37.9935 87.1193 40.1678 87.1193H97.5061C99.6804 87.1193 101.443 85.3568 101.443 83.1825V56.5769C101.443 54.4027 99.6804 52.6401 97.5061 52.6401Z" fill="#ACB4BB"/>
<path d="M95.0377 54.7123H42.6441C40.4698 54.7123 38.7073 56.4748 38.7073 58.6491V81.1107C38.7073 83.2849 40.4698 85.0475 42.6441 85.0475H95.0377C97.2119 85.0475 98.9745 83.2849 98.9745 81.1107V58.6491C98.9745 56.4748 97.2119 54.7123 95.0377 54.7123Z" fill="white"/>
<path d="M69.7806 73.136C69.5578 73.136 69.3441 73.0475 69.1866 72.89C69.0291 72.7324 68.9406 72.5188 68.9406 72.296V61.2304C68.9406 61.0076 69.0291 60.7939 69.1866 60.6364C69.3441 60.4789 69.5578 60.3904 69.7806 60.3904C70.0033 60.3904 70.217 60.4789 70.3745 60.6364C70.5321 60.7939 70.6206 61.0076 70.6206 61.2304V72.296C70.6206 72.5188 70.5321 72.7324 70.3745 72.89C70.217 73.0475 70.0033 73.136 69.7806 73.136Z" fill="#F15525"/>
<path d="M82.6607 64.6129C79.5066 63.0401 76.0894 62.0624 72.5807 61.7289V64.5289C75.6705 64.8523 78.677 65.7287 81.4567 67.1161C81.6475 67.213 81.8587 67.2629 82.0727 67.2617C82.3847 67.2626 82.6878 67.1579 82.9329 66.9648C83.1779 66.7716 83.3504 66.5013 83.4224 66.1977C83.4944 65.8941 83.4617 65.5751 83.3295 65.2925C83.1973 65.0099 82.9735 64.7802 82.6943 64.6409L82.6607 64.6129Z" fill="#F15525"/>
<path d="M56.8999 64.613C56.5717 64.7772 56.3221 65.065 56.206 65.4131C56.09 65.7612 56.117 66.1412 56.2811 66.4695C56.4452 66.7977 56.733 67.0473 57.0811 67.1633C57.4293 67.2794 57.8093 67.2524 58.1375 67.0883C60.9166 65.6995 63.9234 64.823 67.0135 64.5011V61.701C63.4914 62.0386 60.0623 63.0259 56.8999 64.613Z" fill="#F15525"/>
<path d="M77.1005 72.8282C77.3172 72.9634 77.5674 73.0352 77.8228 73.0354C78.0592 73.0353 78.2916 72.9751 78.4983 72.8605C78.705 72.7459 78.8792 72.5806 79.0045 72.3802C79.1975 72.0683 79.2588 71.6925 79.1747 71.3354C79.0907 70.9784 78.8683 70.6693 78.5564 70.4762C76.7193 69.352 74.6831 68.5915 72.5588 68.2362V71.0362C74.166 71.3629 75.7032 71.9695 77.1005 72.8282Z" fill="#F15525"/>
<path d="M61.0286 70.476C60.8718 70.5705 60.7353 70.6951 60.627 70.8427C60.5188 70.9903 60.4409 71.1579 60.3978 71.3359C60.3548 71.5138 60.3476 71.6985 60.3765 71.8793C60.4054 72.06 60.4699 72.2333 60.5662 72.3889C60.6626 72.5446 60.7889 72.6795 60.9378 72.786C61.0867 72.8925 61.2553 72.9683 61.4337 73.0092C61.6121 73.05 61.7969 73.055 61.9773 73.0239C62.1577 72.9928 62.3301 72.9262 62.4846 72.828C63.8823 71.9738 65.4197 71.3729 67.0262 71.0528V68.2528C64.9031 68.6029 62.867 69.3577 61.0286 70.476Z" fill="#F15525"/>
<path d="M71.8631 77.2438C71.8631 76.0979 70.9342 75.1689 69.7883 75.1689C68.6424 75.1689 67.7135 76.0979 67.7135 77.2438C67.7135 78.3896 68.6424 79.3186 69.7883 79.3186C70.9342 79.3186 71.8631 78.3896 71.8631 77.2438Z" fill="#F15525"/>
<path d="M116.528 87.3992C120.042 87.3992 122.89 86.6545 122.89 85.736C122.89 84.8174 120.042 84.0728 116.528 84.0728C113.015 84.0728 110.167 84.8174 110.167 85.736C110.167 86.6545 113.015 87.3992 116.528 87.3992Z" fill="#D6DADF"/>
<path d="M116.529 87.6794C113.231 87.6794 109.893 87.013 109.893 85.7362C109.893 84.4594 113.253 83.7874 116.529 83.7874C119.805 83.7874 123.193 84.4594 123.193 85.7362C123.193 87.013 119.833 87.6794 116.529 87.6794ZM116.529 84.3474C112.822 84.3474 110.453 85.1706 110.453 85.7362C110.453 86.3018 112.822 87.1194 116.529 87.1194C120.236 87.1194 122.633 86.2962 122.633 85.7362C122.633 85.1762 120.242 84.3474 116.529 84.3474Z" fill="#D6DADF"/>
<path d="M123.087 71.7585H109.972V85.7306H123.087V71.7585Z" fill="#D6DADF"/>
<path d="M116.528 73.4216C120.042 73.4216 122.89 72.677 122.89 71.7584C122.89 70.8399 120.042 70.0952 116.528 70.0952C113.015 70.0952 110.167 70.8399 110.167 71.7584C110.167 72.677 113.015 73.4216 116.528 73.4216Z" fill="#ECEEF1"/>
<path d="M116.529 73.7016C113.231 73.7016 109.893 73.0352 109.893 71.7584C109.893 70.4816 113.253 69.8152 116.529 69.8152C119.805 69.8152 123.193 70.4816 123.193 71.7584C123.193 73.0352 119.833 73.7016 116.529 73.7016ZM116.529 70.3752C112.822 70.3752 110.453 71.1928 110.453 71.7584C110.453 72.324 112.822 73.1416 116.529 73.1416C120.236 73.1416 122.633 72.324 122.633 71.7584C122.633 71.1928 120.242 70.3752 116.529 70.3752Z" fill="#D6DADF"/>
<path d="M123.614 83.5969H122.891V80.7969H123.614C124.139 80.7694 124.634 80.5412 124.997 80.1593C125.359 79.7774 125.561 79.271 125.561 78.7445C125.561 78.218 125.359 77.7116 124.997 77.3297C124.634 76.9478 124.139 76.7196 123.614 76.6921H122.891V73.8921H123.614C124.872 73.9348 126.064 74.4648 126.94 75.3701C127.815 76.2755 128.304 77.4854 128.304 78.7445C128.304 80.0036 127.815 81.2135 126.94 82.1188C126.064 83.0242 124.872 83.5541 123.614 83.5969Z" fill="#D6DADF"/>
<path d="M118.531 76.4401L117.386 76.9623C117.255 77.0201 117.142 77.1225 117.063 77.2578C116.984 77.3931 116.941 77.5559 116.938 77.7274L116.878 82.213L118.029 81.6951C118.161 81.6349 118.273 81.5315 118.354 81.3959C118.431 81.2607 118.474 81.0996 118.477 80.9299" fill="#F15525"/>
<path d="M116.117 80.0457L114.966 80.5636C114.835 80.6236 114.724 80.7266 114.645 80.8615C114.566 80.9964 114.522 81.158 114.517 81.3288L114.487 83.2711L115.637 82.7477C115.769 82.69 115.881 82.5875 115.96 82.4522C116.039 82.3169 116.083 82.1541 116.085 81.9826" fill="#F15525"/>
<path d="M113.735 59.8024C110.58 65.9835 112.42 67.8967 113.735 68.0806C112.75 62.2858 118.663 56.4911 118.334 54.2835C118.071 52.5175 115.815 51.892 114.719 51.8C115.706 51.892 116.889 53.6213 113.735 59.8024Z" fill="white"/>
<path d="M116.691 64.4934C114.588 68.2462 116.91 70.2882 118.334 70.84C117.545 67.9702 119.977 66.425 120.306 64.2174C120.634 62.0099 119.977 60.6302 119.32 60.0783C118.794 59.6368 118.005 59.7104 117.677 59.8024C117.677 59.8024 118.794 60.7406 116.691 64.4934Z" fill="white"/>
</svg>
