<svg width="140" height="141" viewBox="0 0 140 141" fill="none" xmlns="http://www.w3.org/2000/svg">
<path d="M126.883 30.1724L98.6123 74.2281H73.9135L113.171 15.898C99.2339 4.97853 81.6766 -0.253883 64.0356 1.2547C46.3946 2.76329 29.9806 10.9008 18.0997 24.0281C6.21893 37.1555 -0.245992 54.2973 0.0071634 72.0009C0.260318 89.7045 7.21274 106.654 19.4641 119.437C31.7154 132.219 48.3553 139.884 66.0323 140.887C83.7092 141.891 101.11 136.159 114.729 124.845C128.348 113.532 137.174 97.4774 139.43 79.9162C141.685 62.355 137.202 44.5916 126.883 30.204V30.1724Z" fill="#F6F7F8"/>
<path opacity="0.75" d="M98.2592 74.5L127.4 30.1452C123.41 24.7021 118.651 19.8388 113.266 15.7L72.8 74.5H98.2592Z" fill="white"/>
<path d="M140 74.0531H0V75.3961H140V74.0531Z" fill="#ACB4BB"/>
<path d="M70.2676 74.3965V1H68.9062V74.3965H70.2676Z" fill="#ACB4BB"/>
<path opacity="0.75" d="M0.0192985 73.8H25.6909L68.6 0.300049C56.3789 0.466634 44.7909 3.45909 34.3098 9.76357L0.33425 63.0747C0.0570729 65.6374 0.0240329 68.0679 0.0203777 70.6455C0.0203777 71.6171 -0.0247439 72.8411 0.0192985 73.8Z" fill="white"/>
<path d="M31.007 66.7719C30.9365 66.7722 30.8685 66.7458 30.8166 66.698C30.7647 66.6502 30.7327 66.5846 30.727 66.5143C30.727 66.3127 29.159 45.9959 35.0334 31.4079C35.047 31.3737 35.0672 31.3425 35.0929 31.3161C35.1185 31.2897 35.1491 31.2686 35.1829 31.254C35.2167 31.2395 35.2531 31.2317 35.2899 31.2312C35.3267 31.2307 35.3633 31.2375 35.3974 31.2511C35.4321 31.2641 35.4639 31.2839 35.4907 31.3094C35.5175 31.335 35.5389 31.3657 35.5535 31.3997C35.5682 31.4337 35.5758 31.4703 35.5759 31.5073C35.576 31.5444 35.5687 31.581 35.5542 31.6151C29.7358 46.0799 31.2758 66.2959 31.2926 66.4695C31.2957 66.5063 31.2915 66.5434 31.2802 66.5785C31.2688 66.6137 31.2507 66.6462 31.2268 66.6743C31.2028 66.7024 31.1736 66.7255 31.1407 66.7423C31.1077 66.759 31.0719 66.7691 31.035 66.7719H31.007Z" fill="#B7BEC5"/>
<path d="M33.9088 67.679C33.8395 67.6781 33.7729 67.6521 33.7213 67.6057C33.6698 67.5594 33.6369 67.4958 33.6288 67.427C33.6288 67.2646 32.0552 50.7782 37.9464 38.9398C37.9625 38.9067 37.985 38.8771 38.0126 38.8526C38.0402 38.8282 38.0724 38.8095 38.1072 38.7975C38.1421 38.7855 38.179 38.7806 38.2158 38.7829C38.2525 38.7852 38.2885 38.7948 38.3216 38.811C38.3548 38.8271 38.3844 38.8496 38.4087 38.8774C38.4329 38.9051 38.4514 38.9374 38.4629 38.9725C38.4744 39.0075 38.4787 39.0445 38.4756 39.0812C38.4725 39.1179 38.462 39.1536 38.4448 39.1862C32.632 50.8846 34.172 67.1862 34.1888 67.371C34.1926 67.4078 34.1892 67.445 34.1786 67.4805C34.168 67.5159 34.1505 67.5489 34.127 67.5776C34.1036 67.6062 34.0747 67.6299 34.0421 67.6473C34.0094 67.6648 33.9736 67.6755 33.9368 67.679H33.9088Z" fill="#B7BEC5"/>
<path d="M35.4876 68.2278C35.4192 68.2271 35.3533 68.2018 35.3019 68.1566C35.2505 68.1114 35.217 68.0492 35.2076 67.9814C35.2076 67.8358 33.634 53.1526 39.5308 42.6022C39.5483 42.5697 39.5722 42.5411 39.6011 42.518C39.6299 42.4949 39.6631 42.4779 39.6986 42.468C39.7342 42.4581 39.7714 42.4554 39.808 42.4602C39.8446 42.465 39.8798 42.4771 39.9117 42.4958C39.9762 42.5323 40.0236 42.5928 40.0436 42.6642C40.0635 42.7356 40.0543 42.812 40.018 42.8766C34.2108 53.2702 35.7452 67.7742 35.762 67.9198C35.7699 67.9933 35.7484 68.0669 35.7023 68.1246C35.6561 68.1822 35.589 68.2194 35.5156 68.2278H35.4876Z" fill="#B7BEC5"/>
<path d="M27.8146 67.1079C27.7777 67.1044 27.7419 67.0937 27.7093 67.0762C27.6766 67.0588 27.6478 67.0351 27.6243 67.0065C27.6009 66.9778 27.5834 66.9448 27.5728 66.9094C27.5622 66.8739 27.5587 66.8367 27.5626 66.7999C27.5626 66.6375 29.1194 50.3135 23.301 38.6151C23.2848 38.582 23.2753 38.5461 23.273 38.5093C23.2707 38.4725 23.2757 38.4357 23.2877 38.4009C23.2996 38.366 23.3183 38.3339 23.3427 38.3063C23.3671 38.2786 23.3967 38.2561 23.4298 38.2399C23.4629 38.2237 23.4988 38.2142 23.5356 38.212C23.5723 38.2097 23.6092 38.2147 23.644 38.2266C23.6789 38.2386 23.711 38.2573 23.7386 38.2817C23.7662 38.3061 23.7888 38.3356 23.805 38.3687C29.6906 50.2071 28.1338 66.6935 28.117 66.8559C28.1142 66.8925 28.1041 66.9282 28.0872 66.9608C28.0704 66.9934 28.0472 67.0223 28.019 67.0458C27.9908 67.0693 27.9582 67.0869 27.9231 67.0976C27.888 67.1083 27.8511 67.1118 27.8146 67.1079Z" fill="#B7BEC5"/>
<path d="M25.0215 42.0031C25.0215 42.0031 23.5263 38.4919 26.8863 36.8175C28.7231 40.4911 25.0215 42.0031 25.0215 42.0031Z" fill="#B7BEC5"/>
<path d="M24.8744 42.3671L24.7624 42.1151C24.7624 42.0759 23.2056 38.3407 26.7616 36.5655L27.008 36.4423L27.1368 36.6943C27.4165 37.1812 27.5904 37.7216 27.6473 38.2803C27.7043 38.8389 27.6429 39.4033 27.4672 39.9367C27.006 40.9788 26.1707 41.8101 25.1264 42.2663L24.8744 42.3671ZM26.756 37.2039C24.4544 38.5199 24.9248 40.8159 25.1768 41.6167C25.964 41.2115 26.5872 40.5468 26.9408 39.7351C27.0802 39.3221 27.1357 38.8855 27.1039 38.4508C27.0722 38.0161 26.9539 37.5922 26.756 37.2039Z" fill="#B7BEC5"/>
<path d="M33.7005 37.9263C33.7005 37.9263 33.6445 34.1127 37.3853 33.8271C37.7269 37.9263 33.7005 37.9263 33.7005 37.9263Z" fill="#B7BEC5"/>
<path d="M33.427 38.2063V37.9319C33.427 37.8927 33.427 33.8495 37.347 33.5471H37.627V33.8271C37.7043 34.3833 37.6623 34.9496 37.504 35.4883C37.3457 36.0271 37.0745 36.526 36.7086 36.9519C35.8919 37.748 34.8025 38.2026 33.6622 38.2231L33.427 38.2063ZM37.123 34.1407C34.4966 34.4879 34.0654 36.7895 33.9982 37.6295C34.8787 37.5503 35.7052 37.1707 36.339 36.5543C36.622 36.2234 36.837 35.8398 36.9715 35.4257C37.1061 35.0115 37.1575 34.5748 37.123 34.1407Z" fill="#B7BEC5"/>
<path d="M32.2457 43.5095C32.2457 43.5095 32.1841 39.6959 35.9249 39.4159C36.2441 43.5095 32.2457 43.5095 32.2457 43.5095Z" fill="#B7BEC5"/>
<path d="M31.9656 43.7897V43.5153C31.9656 43.4761 31.9656 39.4329 35.8856 39.1305H36.16V39.4049C36.2377 39.962 36.196 40.5292 36.0377 41.0689C35.8793 41.6087 35.6079 42.1085 35.2416 42.5353C34.4238 43.3262 33.3381 43.7801 32.2008 43.8065L31.9656 43.7897ZM35.6616 39.7185C33.0408 40.0713 32.6096 42.3729 32.5368 43.2073C33.418 43.1308 34.2454 42.7508 34.8776 42.1321C35.1625 41.8023 35.3786 41.4189 35.5132 41.0044C35.6479 40.59 35.6983 40.1527 35.6616 39.7185Z" fill="#B7BEC5"/>
<path d="M31.4559 48.4599C31.4559 48.4599 31.3943 44.6463 35.1407 44.3607C35.4543 48.4599 31.4559 48.4599 31.4559 48.4599Z" fill="#B7BEC5"/>
<path d="M31.1802 48.74V48.4656C31.1802 48.4264 31.1802 44.3832 35.1002 44.0808H35.3802V44.3552C35.4565 44.9123 35.4141 45.4791 35.2558 46.0186C35.0975 46.5581 34.8269 47.0581 34.4618 47.4856C33.6426 48.2778 32.5547 48.7318 31.4154 48.7568L31.1802 48.74ZM34.8762 44.6688C34.0224 44.7776 33.2363 45.1899 32.6616 45.8305C32.0868 46.4711 31.7617 47.2971 31.7458 48.1576C32.629 48.0824 33.4585 47.7022 34.0922 47.0824C34.6622 46.4131 34.9441 45.5453 34.8762 44.6688Z" fill="#B7BEC5"/>
<path d="M30.8062 58.2207C30.8062 58.2207 30.7502 54.4015 34.491 54.1215C34.8046 58.2151 30.8062 58.2207 30.8062 58.2207Z" fill="#B7BEC5"/>
<path d="M30.5305 58.5006V58.2262C30.5305 58.1814 30.5305 54.1382 34.4505 53.8414H34.7305V54.1214C34.8078 54.6776 34.7659 55.2439 34.6075 55.7826C34.4492 56.3214 34.178 56.8203 33.8121 57.2462C32.9945 58.0414 31.906 58.4976 30.7657 58.523L30.5305 58.5006ZM34.2265 54.4294C31.5945 54.7766 31.1689 57.0838 31.1017 57.9182C31.9822 57.839 32.8087 57.4594 33.4425 56.843C33.7266 56.5127 33.9422 56.1293 34.0768 55.7149C34.2114 55.3006 34.2623 54.8636 34.2265 54.4294Z" fill="#B7BEC5"/>
<path d="M26.3757 45.9343C26.3757 45.9343 24.8805 42.4231 28.2405 40.7487C30.0773 44.4223 26.3757 45.9343 26.3757 45.9343Z" fill="#B7BEC5"/>
<path d="M26.225 46.2983L26.1186 46.0463C26.1186 46.0071 24.5618 42.2719 28.1178 40.4967L28.3642 40.3735L28.4874 40.6255C28.7738 41.1151 28.9516 41.6605 29.0086 42.2248C29.0656 42.7891 29.0005 43.359 28.8178 43.8959C28.3584 44.9374 27.5251 45.7687 26.4826 46.2255L26.225 46.2983ZM28.1122 41.1351C25.805 42.4511 26.281 44.7471 26.5274 45.5759C27.3135 45.1693 27.9362 44.5051 28.2914 43.6943C28.434 43.2774 28.4916 42.8362 28.4608 42.3966C28.43 41.957 28.3115 41.5281 28.1122 41.1351Z" fill="#B7BEC5"/>
<path d="M27.4396 50.8456C27.4396 50.8456 25.9668 47.3288 29.3268 45.6544C31.1412 49.3336 27.4396 50.8456 27.4396 50.8456Z" fill="#B7BEC5"/>
<path d="M27.2938 51.2097L27.1818 50.9521C27.1818 50.9185 25.625 47.1777 29.181 45.4081L29.433 45.2793L29.5562 45.5313C29.8386 46.0172 30.0141 46.5578 30.0711 47.1169C30.128 47.676 30.0652 48.2408 29.8866 48.7737C29.4315 49.82 28.5943 50.6532 27.5458 51.1033L27.2938 51.2097ZM29.1754 46.0409C28.4256 46.4635 27.8535 47.1426 27.5644 47.9534C27.2753 48.7641 27.2885 49.652 27.6018 50.4537C28.3891 50.0485 29.0122 49.3838 29.3658 48.5721C29.5028 48.1585 29.5565 47.7219 29.5239 47.2875C29.4912 46.853 29.3727 46.4293 29.1754 46.0409Z" fill="#B7BEC5"/>
<path d="M28.1629 56.7143C28.1629 56.7143 26.6677 53.1975 30.0277 51.5287C31.8645 55.2023 28.1629 56.7143 28.1629 56.7143Z" fill="#B7BEC5"/>
<path d="M28.0179 57.0784L27.9059 56.8208C27.9059 56.7872 26.3491 53.0464 29.9051 51.2768L30.1515 51.1536L30.2803 51.4C30.5613 51.8864 30.7361 52.4269 30.793 52.9858C30.85 53.5446 30.7878 54.1092 30.6107 54.6424C30.1556 55.6887 29.3184 56.5219 28.2699 56.972L28.0179 57.0784ZM29.8883 51.9096C27.5867 53.2312 28.0571 55.5216 28.3091 56.3224C29.0974 55.9212 29.7212 55.2578 30.0731 54.4464C30.2124 54.0324 30.2678 53.5949 30.236 53.1594C30.2043 52.7238 30.0861 52.2989 29.8883 51.9096Z" fill="#B7BEC5"/>
<path d="M28.2074 63.4399C28.2074 63.4399 27.4402 60.6846 30.1002 59.7662C31.0802 62.6782 28.2074 63.4399 28.2074 63.4399Z" fill="#B7BEC5"/>
<path d="M27.9886 63.7815L27.9158 63.5127C27.9158 63.5127 27.1094 60.4943 29.9822 59.5031L30.251 59.4135L30.3406 59.6767C30.5062 60.0745 30.5849 60.5032 30.5714 60.9339C30.5579 61.3647 30.4525 61.7876 30.2622 62.1743C29.8118 62.9207 29.0955 63.4689 28.2574 63.7086L27.9886 63.7815ZM29.887 60.1359C29.3365 60.3749 28.886 60.7975 28.6123 61.3316C28.3387 61.8657 28.2587 62.4782 28.3862 63.0647C28.962 62.843 29.447 62.4349 29.7638 61.9055C30.0308 61.3534 30.0749 60.7196 29.887 60.1359Z" fill="#B7BEC5"/>
<path d="M35.8737 64.5768C35.8737 64.5768 35.0281 61.5304 37.9681 60.5168C39.0769 63.7312 35.8737 64.5768 35.8737 64.5768Z" fill="#B7BEC5"/>
<path d="M35.6769 64.9183L35.6041 64.6495C35.6041 64.6159 34.7193 61.3343 37.8721 60.2535L38.1409 60.1583L38.2305 60.4271C38.4096 60.8639 38.4947 61.3334 38.4803 61.8053C38.4658 62.2771 38.3521 62.7406 38.1465 63.1655C37.6501 63.9822 36.8644 64.582 35.9457 64.8455L35.6769 64.9183ZM37.7881 60.8863C37.1638 61.1559 36.6538 61.6358 36.3469 62.2426C36.0399 62.8493 35.9554 63.5445 36.1081 64.2071C36.7665 63.9622 37.3216 63.4999 37.6817 62.8967C37.9798 62.2666 38.018 61.5444 37.7881 60.8863Z" fill="#B7BEC5"/>
<path d="M35.3202 59.7887C35.3202 59.7887 34.8778 55.9975 38.5738 55.3423C39.2962 59.3855 35.3202 59.7887 35.3202 59.7887Z" fill="#B7BEC5"/>
<path d="M35.0731 60.0967L35.0395 59.8223C35.0395 59.7831 34.6139 55.7623 38.5227 55.0679L38.7971 55.0175L38.8475 55.2919C38.9793 55.8387 38.994 56.4073 38.8908 56.9603C38.7875 57.5133 38.5686 58.0382 38.2483 58.5007C37.5159 59.3731 36.4786 59.9338 35.3475 60.0687L35.0731 60.0967ZM38.3435 55.6559C35.7563 56.2663 35.5435 58.6015 35.5771 59.4415C36.4519 59.2779 37.2433 58.8169 37.8171 58.1367C38.0636 57.7781 38.237 57.3744 38.3273 56.9487C38.4177 56.523 38.4232 56.0837 38.3435 55.6559Z" fill="#B7BEC5"/>
<path d="M36.6074 53.5055C36.6074 53.5055 36.6914 49.6863 40.4378 49.5463C40.617 53.6511 36.6074 53.5055 36.6074 53.5055Z" fill="#B7BEC5"/>
<path d="M36.6804 53.7855H36.6076H36.3276V53.5111C36.3276 53.4663 36.462 49.4287 40.4324 49.2775H40.7124V49.5575C40.7676 50.1171 40.7033 50.6821 40.5237 51.215C40.3442 51.7479 40.0535 52.2366 39.6708 52.6487C38.8479 53.3827 37.7832 53.7875 36.6804 53.7855ZM40.1804 49.8655C37.5372 50.1175 37.0276 52.4023 36.9268 53.2255C37.8101 53.1811 38.6508 52.8329 39.3068 52.2399C39.6048 51.9187 39.8356 51.5413 39.9856 51.1297C40.1356 50.7181 40.2019 50.2806 40.1804 49.8431V49.8655Z" fill="#B7BEC5"/>
<path d="M38.4495 46.3657C38.4495 46.3657 39.4575 42.6809 43.1311 43.4593C42.2855 47.4801 38.4495 46.3657 38.4495 46.3657Z" fill="#B7BEC5"/>
<path d="M39.6046 46.7855C39.1891 46.788 38.7751 46.7372 38.3726 46.6343L38.1038 46.5559L38.1766 46.2871C38.1766 46.2479 39.2966 42.3671 43.2166 43.1847L43.491 43.2407L43.435 43.5151C43.3348 44.4411 42.8862 45.2943 42.18 45.9017C41.4739 46.509 40.5631 46.825 39.6326 46.7855H39.6046ZM38.815 46.1359C39.6828 46.306 40.5828 46.1715 41.363 45.7551C42.0869 45.2773 42.5923 44.5323 42.7686 43.6831C40.1758 43.2855 39.1174 45.3743 38.815 46.1359Z" fill="#B7BEC5"/>
<path d="M25.5139 44.6407C25.5139 44.6407 25.2899 40.8327 21.5379 40.8271C21.5267 44.9375 25.5139 44.6407 25.5139 44.6407Z" fill="#B7BEC5"/>
<path d="M25.3344 44.9264C24.2658 44.9475 23.2256 44.5816 22.4056 43.896C22.0133 43.4958 21.7105 43.0166 21.5174 42.4905C21.3243 41.9643 21.2453 41.4031 21.2856 40.844V40.536H21.5656C25.536 40.536 25.8216 44.5736 25.8216 44.6128V44.8928H25.5472L25.3344 44.9264ZM21.8232 41.096C21.8201 41.5315 21.9036 41.9632 22.069 42.366C22.2343 42.7689 22.4782 43.1348 22.7864 43.4424C23.4632 44.0118 24.3157 44.3303 25.2 44.344C25.0656 43.5376 24.4664 41.2752 21.8232 41.096Z" fill="#B7BEC5"/>
<path d="M33.7451 35.0143C33.7451 35.0143 34.4059 31.2567 30.7547 30.3887C29.7971 34.3759 33.7451 35.0143 33.7451 35.0143Z" fill="#B7BEC5"/>
<path d="M33.9752 35.3335L33.7008 35.2943C32.582 35.0856 31.5826 34.464 30.9008 33.5527C30.6082 33.0737 30.42 32.5382 30.3486 31.9814C30.2771 31.4246 30.3241 30.8589 30.4864 30.3215L30.5536 30.0471L30.828 30.1143C34.6864 31.0327 34.0312 35.0255 34.0256 35.0647L33.9752 35.3335ZM30.968 30.7359C30.8644 31.1593 30.8456 31.5989 30.9129 32.0296C30.9802 32.4602 31.1322 32.8732 31.36 33.2447C31.8895 33.9531 32.647 34.4574 33.5048 34.6727C33.5664 33.8159 33.5048 31.4919 30.968 30.7359Z" fill="#B7BEC5"/>
<path d="M32.6143 40.2447C32.6143 40.2447 33.2751 36.4815 29.6239 35.6135C28.6663 39.6119 32.6143 40.2447 32.6143 40.2447Z" fill="#B7BEC5"/>
<path d="M32.8387 40.5639L32.5699 40.5359C31.45 40.3338 30.4489 39.7132 29.7699 38.7999C29.4674 38.3209 29.2713 37.7825 29.195 37.2212C29.1187 36.6598 29.1639 36.0886 29.3275 35.5463L29.3947 35.2775L29.6635 35.3391C33.5275 36.2631 32.8723 40.2503 32.8667 40.2895L32.8387 40.5639ZM29.8315 35.9607C29.7287 36.3844 29.7109 36.8243 29.7791 37.2549C29.8474 37.6855 30.0003 38.0983 30.2291 38.4695C30.754 39.1802 31.5107 39.6853 32.3683 39.8975C32.488 39.0461 32.2976 38.1801 31.8319 37.4574C31.3662 36.7347 30.6563 36.2035 29.8315 35.9607Z" fill="#B7BEC5"/>
<path d="M34.098 53.0462C34.098 53.0462 35.5596 49.5182 32.1884 47.8774C30.3852 51.5678 34.098 53.0462 34.098 53.0462Z" fill="#B7BEC5"/>
<path d="M34.2561 53.4158L33.9985 53.315C32.9485 52.8735 32.1044 52.0513 31.6352 51.0134C31.4531 50.4814 31.3859 49.9169 31.438 49.357C31.4901 48.7971 31.6604 48.2547 31.9377 47.7654L32.0609 47.5134L32.3129 47.6366C35.8801 49.3726 34.3737 53.1246 34.3625 53.1638L34.2561 53.4158ZM32.3185 48.2638C32.1258 48.6553 32.0128 49.0811 31.9859 49.5165C31.959 49.952 32.0187 50.3884 32.1617 50.8006C32.5239 51.6048 33.1503 52.2609 33.9369 52.6598C34.1833 51.8534 34.6313 49.5574 32.3185 48.2638Z" fill="#B7BEC5"/>
<path d="M26.332 49.7816C26.332 49.7816 26.108 45.968 22.356 45.968C22.3448 50.056 26.332 49.7816 26.332 49.7816Z" fill="#B7BEC5"/>
<path d="M26.1532 50.0561C25.0825 50.0725 24.042 49.7005 23.2244 49.0089C22.8297 48.6092 22.5235 48.1309 22.3257 47.605C22.1279 47.0792 22.043 46.5177 22.0764 45.9569V45.6769H22.3564C26.3268 45.6769 26.6124 49.7145 26.6124 49.7537V50.0281H26.338L26.1532 50.0561ZM22.642 46.2425C22.6397 46.6787 22.7236 47.111 22.8889 47.5146C23.0542 47.9183 23.2976 48.2853 23.6052 48.5945C24.2808 49.1659 25.1341 49.4847 26.0188 49.4961C25.89 48.6785 25.2852 46.4105 22.642 46.2537V46.2425Z" fill="#B7BEC5"/>
<path d="M27.5634 54.6536C27.5634 54.6536 27.3394 50.84 23.5874 50.8344C23.5762 54.9448 27.5634 54.6536 27.5634 54.6536Z" fill="#B7BEC5"/>
<path d="M27.385 54.9336C26.3138 54.9532 25.2723 54.5808 24.4562 53.8864C24.0621 53.4875 23.7581 53.0085 23.5649 52.482C23.3717 51.9555 23.2937 51.3937 23.3362 50.8344V50.5544H23.6162C27.5866 50.5544 27.8666 54.5921 27.8722 54.6368V54.9112H27.5978L27.385 54.9336ZM23.8738 51.1256C23.8711 51.5629 23.9559 51.9962 24.1232 52.4002C24.2906 52.8041 24.5371 53.1705 24.8482 53.4776C25.5243 54.0475 26.3777 54.3643 27.2618 54.3736C27.1162 53.5448 26.5282 51.2824 23.8738 51.1256Z" fill="#B7BEC5"/>
<path d="M27.7604 60.1641C27.7604 60.1641 27.5364 56.3505 23.7844 56.3505C23.7732 60.4553 27.7604 60.1641 27.7604 60.1641Z" fill="#B7BEC5"/>
<path d="M27.5798 60.4496C26.5081 60.466 25.467 60.0918 24.651 59.3968C24.2609 58.9962 23.9595 58.5178 23.7665 57.9929C23.5736 57.4681 23.4933 56.9084 23.531 56.3504V56.0704H23.811C27.7814 56.0704 28.067 60.108 28.067 60.1472V60.4216H27.7926L27.5798 60.4496ZM24.0686 56.636C24.0694 57.5159 24.4152 58.3604 25.0318 58.988C25.7089 59.5562 26.5616 59.8728 27.4454 59.884C27.3166 59.0552 26.7118 56.776 24.0686 56.636Z" fill="#B7BEC5"/>
<path d="M35.1738 31.7942C35.1738 31.7942 33.6786 28.283 37.0386 26.6086C38.8754 30.2878 35.1738 31.7942 35.1738 31.7942Z" fill="#B7BEC5"/>
<path d="M35.0234 32.1359L34.9282 31.9063C34.9282 31.8671 33.3714 28.1319 36.9218 26.3623L37.1738 26.2335L37.297 26.4855C37.5794 26.9714 37.7549 27.512 37.8119 28.0711C37.8689 28.6302 37.806 29.195 37.6274 29.7279C37.1699 30.7706 36.336 31.6025 35.2922 32.0575L35.0234 32.1359ZM36.9106 26.9727C34.6034 28.2943 35.0794 30.5847 35.3314 31.3855C36.1187 30.9803 36.7418 30.3157 37.0954 29.5039C37.3652 28.6758 37.2988 27.7748 36.9106 26.9951V26.9727Z" fill="#B7BEC5"/>
<path d="M23.4078 38.2624C23.4078 38.2624 19.7566 37.1424 20.6414 33.4968C24.6342 34.46 23.4078 38.2624 23.4078 38.2624Z" fill="#B7BEC5"/>
<path d="M23.5884 38.6094L23.3252 38.531C23.286 38.531 19.4052 37.2878 20.374 33.4294L20.4356 33.155L20.71 33.2222C21.2633 33.3206 21.7894 33.5352 22.2537 33.8518C22.718 34.1685 23.1099 34.5799 23.4036 35.059C23.9034 36.084 23.9993 37.2594 23.6724 38.3518L23.5884 38.6094ZM20.8556 33.8438C20.3796 36.4534 22.4348 37.5678 23.2132 37.8926C23.4082 37.0301 23.3015 36.1268 22.9108 35.3334C22.6838 34.9615 22.3853 34.6383 22.0325 34.3826C21.6797 34.1269 21.2797 33.9438 20.8556 33.8438Z" fill="#B7BEC5"/>
<path d="M38.1748 39.063C38.1748 39.063 36.6796 35.5518 40.0396 33.8774C41.8764 37.551 38.1748 39.063 38.1748 39.063Z" fill="#B7BEC5"/>
<path d="M38.0251 39.4159L37.9187 39.1639C37.9187 39.1247 36.3619 35.3839 39.9123 33.6143L40.1643 33.4911L40.2875 33.7431C40.5699 34.229 40.7454 34.7696 40.8024 35.3287C40.8593 35.8878 40.7965 36.4526 40.6179 36.9855C40.1666 38.0318 39.3336 38.8669 38.2883 39.3207L38.0251 39.4159ZM39.9123 34.2639C37.6051 35.5799 38.0811 37.8759 38.3331 38.6711C39.1203 38.2684 39.7436 37.6055 40.0971 36.7951C40.3731 35.9602 40.3066 35.0499 39.9123 34.2639Z" fill="#B7BEC5"/>
<path d="M39.7665 42.7368C39.7665 42.7368 38.2882 39.2255 41.6481 37.5511C43.4681 41.2247 39.7665 42.7368 39.7665 42.7368Z" fill="#B7BEC5"/>
<path d="M39.6205 43.1007L39.5085 42.8487C39.5085 42.8095 37.9517 39.0743 41.5077 37.2991L41.7597 37.1759L41.8829 37.4279C42.163 37.9148 42.3367 38.4554 42.3927 39.0143C42.4487 39.5732 42.3856 40.1376 42.2077 40.6703C41.7465 41.7124 40.9112 42.5437 39.8669 42.9999L39.6205 43.1007ZM41.5021 37.9375C39.2005 39.2535 39.6709 41.5495 39.9229 42.3503C40.7101 41.9451 41.3333 41.2804 41.6869 40.4687C41.8263 40.0558 41.8818 39.6191 41.85 39.1844C41.8183 38.7498 41.7 38.3258 41.5021 37.9375Z" fill="#B7BEC5"/>
<path d="M20.501 33.0432L23.4802 38.2624C23.7766 37.6851 23.9171 37.0404 23.8876 36.3921C23.8582 35.7438 23.6598 35.1144 23.3122 34.5664C22.9704 34.1362 22.5452 33.7795 22.0621 33.5177C21.579 33.256 21.048 33.0946 20.501 33.0432Z" fill="#ECEEF1"/>
<path d="M30.5437 30.092L33.5173 35.3112C33.8138 34.7339 33.9542 34.0892 33.9248 33.4409C33.8953 32.7926 33.6969 32.1633 33.3493 31.6152C33.0089 31.1849 32.5847 30.8281 32.1025 30.5663C31.6203 30.3045 31.09 30.1432 30.5437 30.092Z" fill="#ECEEF1"/>
<path d="M37.1676 26.3232L35.2972 32.0352C35.2972 32.0352 33.8692 30.3552 34.7372 28.3784C34.983 27.8898 35.3249 27.4559 35.7426 27.1027C36.1602 26.7496 36.6449 26.4844 37.1676 26.3232Z" fill="#ECEEF1"/>
<path d="M36.2725 39.4159L31.9829 43.6271C31.856 42.9915 31.8973 42.3337 32.1026 41.7189C32.3078 41.1041 32.67 40.5535 33.1533 40.1215C33.5984 39.7989 34.1043 39.57 34.6405 39.4487C35.1767 39.3274 35.7319 39.3163 36.2725 39.4159Z" fill="#ECEEF1"/>
<path d="M37.8403 33.5807L33.5564 37.7919C33.429 37.1554 33.47 36.4966 33.6753 35.8808C33.8805 35.265 34.243 34.7135 34.7267 34.2807C35.1714 33.9594 35.6766 33.7318 36.2118 33.6114C36.747 33.4911 37.301 33.4806 37.8403 33.5807Z" fill="#ECEEF1"/>
<path d="M35.8798 44.0527L31.5678 48.2639C31.4405 47.6274 31.4815 46.9686 31.6868 46.3528C31.892 45.737 32.2545 45.1855 32.7382 44.7527C33.1868 44.4286 33.6968 44.1994 34.2369 44.079C34.7771 43.9587 35.3361 43.9497 35.8798 44.0527Z" fill="#ECEEF1"/>
<path d="M34.9277 54.0993L30.6381 58.3104C30.5108 57.6739 30.5518 57.0152 30.7571 56.3994C30.9623 55.7836 31.3248 55.2321 31.8085 54.7993C32.2543 54.4782 32.7605 54.2506 33.2966 54.1303C33.8326 54.01 34.3875 53.9994 34.9277 54.0993Z" fill="#ECEEF1"/>
<path d="M40.7179 49.4568L36.4339 53.668C36.3054 53.0315 36.3458 52.3724 36.5512 51.7564C36.7565 51.1404 37.1196 50.5889 37.6043 50.1568C38.0489 49.8355 38.5541 49.6079 39.0893 49.4875C39.6245 49.3672 40.1785 49.3567 40.7179 49.4568Z" fill="#ECEEF1"/>
<path d="M43.3269 43.2297L38.2197 46.3937C38.2346 45.7456 38.4187 45.1126 38.7536 44.5576C39.0886 44.0026 39.5628 43.5448 40.1293 43.2297C40.6347 43.0138 41.1786 42.9026 41.7281 42.9026C42.2777 42.9026 42.8215 43.0138 43.3269 43.2297Z" fill="#ECEEF1"/>
<path d="M40.0187 33.6144L38.1539 39.3264C37.7501 38.8196 37.4859 38.2159 37.3876 37.5754C37.2894 36.9348 37.3605 36.2797 37.5939 35.6752C37.838 35.1857 38.1786 34.7508 38.5954 34.3966C39.0121 34.0424 39.4963 33.7763 40.0187 33.6144Z" fill="#ECEEF1"/>
<path d="M27.1273 36.4647L25.2681 42.1767C24.8652 41.6694 24.6017 41.0658 24.5035 40.4254C24.4053 39.7851 24.4758 39.1303 24.7081 38.5255C24.9523 38.0372 25.2924 37.603 25.708 37.249C26.1236 36.8949 26.6063 36.6282 27.1273 36.4647Z" fill="#ECEEF1"/>
<path d="M28.4813 40.4856L26.6221 46.1976C26.2193 45.6903 25.9557 45.0867 25.8575 44.4463C25.7593 43.806 25.8298 43.1511 26.0621 42.5464C26.3063 42.058 26.6464 41.6239 27.062 41.2698C27.4777 40.9158 27.9604 40.6491 28.4813 40.4856Z" fill="#ECEEF1"/>
<path d="M29.4384 45.3911L27.5736 51.1087C27.1692 50.6011 26.9048 49.9964 26.8065 49.3549C26.7083 48.7134 26.7797 48.0573 27.0136 47.4519C27.2576 46.9624 27.5983 46.5275 28.015 46.1733C28.4318 45.8191 28.9159 45.553 29.4384 45.3911Z" fill="#ECEEF1"/>
<path d="M30.105 51.1759L28.2458 56.8879C27.8425 56.3797 27.5787 55.7751 27.4805 55.1338C27.3823 54.4925 27.4531 53.8367 27.6858 53.2311C27.9306 52.7438 28.271 52.3107 28.6866 51.9576C29.1022 51.6046 29.5846 51.3387 30.105 51.1759Z" fill="#ECEEF1"/>
<path d="M30.7053 59.5759L27.9053 63.5967C27.7069 63.1055 27.6408 62.5709 27.7135 62.0462C27.7862 61.5215 27.9952 61.025 28.3197 60.6063C28.6271 60.2822 28.9969 60.0238 29.407 59.8467C29.817 59.6696 30.2587 59.5775 30.7053 59.5759Z" fill="#ECEEF1"/>
<path d="M38.9763 55.2582L35.1515 59.895C35.1515 59.895 34.4403 57.8006 35.9523 56.283C36.3609 55.9167 36.8396 55.637 37.3593 55.4609C37.8791 55.2848 38.4291 55.2158 38.9763 55.2582Z" fill="#E6E6E6"/>
<path d="M38.6846 59.9958L35.4478 65.0359C35.1815 64.4446 35.0745 63.794 35.1374 63.1486C35.2003 62.5032 35.4308 61.8854 35.8062 61.3567C36.1693 60.9473 36.6115 60.6158 37.1062 60.3819C37.6009 60.148 38.1378 60.0167 38.6846 59.9958Z" fill="#E6E6E6"/>
<path d="M41.7211 36.9745L39.5315 42.5745C39.5315 42.5745 38.2043 40.8049 39.1619 38.8897C39.4379 38.4149 39.8068 38.0006 40.2465 37.6716C40.6862 37.3425 41.1877 37.1054 41.7211 36.9745Z" fill="#ECEEF1"/>
<path d="M29.3667 35.3168L32.3403 40.536C32.6368 39.9587 32.7772 39.3139 32.7478 38.6656C32.7183 38.0173 32.5199 37.388 32.1723 36.84C31.8323 36.4092 31.4083 36.052 30.926 35.7902C30.4437 35.5283 29.9132 35.3673 29.3667 35.3168Z" fill="#ECEEF1"/>
<path d="M31.3552 47.8496L34.3288 53.0744C34.3288 53.0744 35.3872 51.1312 34.1608 49.3784C33.8213 48.9466 33.3975 48.5884 32.9152 48.3256C32.4329 48.0627 31.9021 47.9008 31.3552 47.8496Z" fill="#ECEEF1"/>
<path d="M21.3191 40.8495L25.6815 45.0159C25.7968 44.3774 25.7438 43.72 25.5278 43.1082C25.3118 42.4965 24.9401 41.9515 24.4495 41.5271C24.0009 41.2078 23.4921 40.983 22.9539 40.8666C22.4158 40.7501 21.8596 40.7443 21.3191 40.8495Z" fill="#ECEEF1"/>
<path d="M22.1372 45.8503L26.5276 49.9831C26.643 49.3455 26.5901 48.6889 26.374 48.078C26.158 47.4671 25.7862 46.9232 25.2956 46.4999C24.8414 46.1817 24.3269 45.9599 23.7837 45.8481C23.2405 45.7364 22.6801 45.7372 22.1372 45.8503Z" fill="#ECEEF1"/>
<path d="M23.3645 50.7166L27.7269 54.855C27.8439 54.2165 27.7918 53.5586 27.5756 52.9465C27.3595 52.3344 26.9869 51.7896 26.4949 51.3662C26.0442 51.0517 25.5344 50.832 24.9963 50.7203C24.4582 50.6087 23.9031 50.6074 23.3645 50.7166Z" fill="#ECEEF1"/>
<path d="M23.5261 56.216L27.8885 60.3488C28.0038 59.7104 27.9509 59.0529 27.7349 58.4412C27.5188 57.8294 27.1472 57.2845 26.6565 56.86C26.2052 56.5471 25.6951 56.3287 25.1572 56.218C24.6192 56.1074 24.0644 56.1067 23.5261 56.216Z" fill="#ECEEF1"/>
<path d="M35.9908 44.9263C35.9908 44.9263 35.9292 41.1127 39.6756 40.8271C39.9668 44.9263 35.9908 44.9263 35.9908 44.9263Z" fill="#B7BEC5"/>
<path d="M35.7173 45.2063V44.9319C35.7173 44.8927 35.7173 40.8495 39.6373 40.5471H39.9173V40.8215C39.9936 41.3786 39.9512 41.9454 39.7929 42.4849C39.6346 43.0245 39.364 43.5244 38.9989 43.9519C38.1822 44.748 37.0927 45.2026 35.9525 45.2231L35.7173 45.2063ZM39.4077 41.1351C36.7757 41.4879 36.3445 43.7895 36.2773 44.6295C37.1598 44.5515 37.9884 44.1718 38.6237 43.5543C39.1919 42.8818 39.4734 42.0131 39.4077 41.1351Z" fill="#B7BEC5"/>
<path d="M40.018 40.8047L35.734 45.0159C35.6054 44.3802 35.6458 43.722 35.8512 43.1068C36.0566 42.4917 36.4197 41.9412 36.9044 41.5103C37.3483 41.1875 37.8533 40.9585 38.3886 40.8372C38.9239 40.7159 39.4783 40.7048 40.018 40.8047Z" fill="#ECEEF1"/>
<path d="M34.8445 49.9272C34.8445 49.9272 34.7829 46.108 38.5237 45.828C38.8485 49.9216 34.8445 49.9272 34.8445 49.9272Z" fill="#B7BEC5"/>
<path d="M34.5645 50.2073V49.9329C34.5645 49.8881 34.5645 45.8449 38.4845 45.5481H38.7645V45.8281C38.8442 46.3788 38.8072 46.9402 38.6557 47.4757C38.5042 48.0112 38.2417 48.5088 37.8853 48.9361C37.0675 49.727 35.9818 50.1809 34.8445 50.2073H34.5645ZM38.2885 46.1361C35.6565 46.4889 35.2309 48.7905 35.1637 49.6249C36.0449 49.5484 36.8722 49.1684 37.5045 48.5497C37.7886 48.2194 38.0042 47.836 38.1388 47.4216C38.2734 47.0073 38.3242 46.5703 38.2885 46.1361Z" fill="#B7BEC5"/>
<path d="M38.6846 45.5367L34.8654 50.1735C34.6719 49.5543 34.6434 48.8953 34.7829 48.2618C34.9224 47.6283 35.2249 47.0421 35.6606 46.5615C36.0692 46.1952 36.5479 45.9155 37.0676 45.7393C37.5874 45.5632 38.1374 45.4943 38.6846 45.5367Z" fill="#ECEEF1"/>
<path d="M31.6802 45.828C31.6802 45.828 32.341 42.0648 28.6898 41.1968C27.7322 45.1896 31.6802 45.828 31.6802 45.828Z" fill="#B7BEC5"/>
<path d="M31.9041 46.136L31.6353 46.0912C30.5166 45.886 29.5166 45.266 28.8353 44.3552C28.5415 43.8756 28.3527 43.3391 28.2813 42.7812C28.2098 42.2233 28.2574 41.6566 28.4209 41.1184L28.4881 40.8496L28.7569 40.9112C32.6209 41.8352 31.9657 45.8224 31.9601 45.8616L31.9041 46.136ZM28.9025 41.544C28.7988 41.9673 28.7801 42.407 28.8474 42.8376C28.9147 43.2683 29.0666 43.6813 29.2945 44.0528C29.8226 44.7601 30.5779 45.2643 31.4337 45.4808C31.5009 44.6464 31.4337 42.3056 28.9025 41.544Z" fill="#B7BEC5"/>
<path d="M28.4307 40.8999L31.4043 46.1359C31.7008 45.5596 31.8413 44.9158 31.8118 44.2683C31.7824 43.6209 31.5839 42.9925 31.2363 42.4455C30.8983 42.0106 30.4752 41.6492 29.9928 41.3835C29.5104 41.1177 28.9788 40.9532 28.4307 40.8999Z" fill="#ECEEF1"/>
<path d="M25.319 64.8959H37.5942C37.9603 64.895 38.3228 64.9696 38.6588 65.1149C38.9949 65.2603 39.2974 65.4733 39.5475 65.7408C39.7976 66.0082 39.9899 66.3243 40.1125 66.6694C40.235 67.0144 40.2852 67.381 40.2598 67.7463L39.4086 80.3911C39.3631 81.0671 39.0625 81.7005 38.5676 82.1632C38.0727 82.6259 37.4205 82.8832 36.743 82.8831H26.1646C25.4871 82.8832 24.8349 82.6259 24.34 82.1632C23.845 81.7005 23.5444 81.0671 23.499 80.3911L22.6534 67.7463C22.628 67.381 22.6781 67.0144 22.8007 66.6694C22.9232 66.3243 23.1156 66.0082 23.3657 65.7408C23.6158 65.4733 23.9183 65.2603 24.2543 65.1149C24.5904 64.9696 24.9528 64.895 25.319 64.8959Z" fill="#B7BEC5"/>
<path d="M113.735 89.799C117.249 89.799 120.097 89.0544 120.097 88.1359C120.097 87.2173 117.249 86.4727 113.735 86.4727C110.222 86.4727 107.374 87.2173 107.374 88.1359C107.374 89.0544 110.222 89.799 113.735 89.799Z" fill="#D6DADF"/>
<path d="M113.736 90.0793C110.438 90.0793 107.1 89.4129 107.1 88.1361C107.1 86.8593 110.46 86.1873 113.736 86.1873C117.012 86.1873 120.4 86.8593 120.4 88.1361C120.4 89.4129 117.04 90.0793 113.736 90.0793ZM113.736 86.7473C110.029 86.7473 107.66 87.5705 107.66 88.1361C107.66 88.7017 110.029 89.5193 113.736 89.5193C117.443 89.5193 119.84 88.6961 119.84 88.1361C119.84 87.5761 117.449 86.7473 113.736 86.7473Z" fill="#D6DADF"/>
<path d="M120.294 74.1584H107.179V88.1305H120.294V74.1584Z" fill="#D6DADF"/>
<path d="M113.735 75.8215C117.249 75.8215 120.097 75.0769 120.097 74.1583C120.097 73.2398 117.249 72.4951 113.735 72.4951C110.222 72.4951 107.374 73.2398 107.374 74.1583C107.374 75.0769 110.222 75.8215 113.735 75.8215Z" fill="#ECEEF1"/>
<path d="M113.736 76.1015C110.438 76.1015 107.1 75.4351 107.1 74.1583C107.1 72.8815 110.46 72.2151 113.736 72.2151C117.012 72.2151 120.4 72.8815 120.4 74.1583C120.4 75.4351 117.04 76.1015 113.736 76.1015ZM113.736 72.7751C110.029 72.7751 107.66 73.5927 107.66 74.1583C107.66 74.7239 110.029 75.5415 113.736 75.5415C117.443 75.5415 119.84 74.7239 119.84 74.1583C119.84 73.5927 117.449 72.7751 113.736 72.7751Z" fill="#D6DADF"/>
<path d="M120.821 85.9968H120.098V83.1968H120.821C121.346 83.1693 121.842 82.9411 122.204 82.5592C122.566 82.1773 122.768 81.6709 122.768 81.1444C122.768 80.6179 122.566 80.1115 122.204 79.7296C121.842 79.3477 121.346 79.1195 120.821 79.092H120.098V76.292H120.821C122.079 76.3347 123.272 76.8647 124.147 77.77C125.022 78.6754 125.511 79.8853 125.511 81.1444C125.511 82.4035 125.022 83.6134 124.147 84.5187C123.272 85.4241 122.079 85.954 120.821 85.9968Z" fill="#D6DADF"/>
<path d="M115.739 78.84L114.593 79.3622C114.462 79.42 114.35 79.5224 114.27 79.6577C114.191 79.793 114.148 79.9558 114.145 80.1273L114.085 84.613L115.236 84.095C115.368 84.0349 115.48 83.9314 115.561 83.7958C115.638 83.6607 115.681 83.4996 115.684 83.3299" fill="#F15525"/>
<path d="M113.323 82.4456L112.173 82.9635C112.042 83.0235 111.931 83.1265 111.852 83.2614C111.773 83.3963 111.729 83.5579 111.724 83.7286L111.694 85.671L112.844 85.1476C112.975 85.0899 113.087 84.9875 113.167 84.8521C113.246 84.7168 113.289 84.554 113.292 84.3825" fill="#F15525"/>
<path d="M110.942 62.2023C107.787 68.3834 109.628 70.2966 110.942 70.4805C109.957 64.6858 115.87 58.891 115.541 56.6834C115.278 54.9174 113.022 54.2919 111.927 54.2C112.913 54.2919 114.097 56.0212 110.942 62.2023Z" fill="white"/>
<path d="M113.898 66.8933C111.795 70.6461 114.117 72.6881 115.541 73.24C114.753 70.3702 117.184 68.8249 117.513 66.6173C117.841 64.4098 117.184 63.0301 116.527 62.4782C116.001 62.0367 115.213 62.1103 114.884 62.2023C114.884 62.2023 116.001 63.1405 113.898 66.8933Z" fill="white"/>
<path d="M101.288 107.932H35.0012C34.4594 107.927 33.926 107.798 33.4424 107.554C32.9588 107.309 32.5381 106.957 32.213 106.523C31.8879 106.09 31.6672 105.587 31.568 105.054C31.4689 104.522 31.4939 103.973 31.6412 103.452L34.878 92.252C35.0893 91.5227 35.5305 90.8812 36.136 90.423C36.7415 89.9649 37.4788 89.7146 38.238 89.7096H98.158C98.9257 89.7097 99.6724 89.9602 100.285 90.423C100.897 90.8859 101.342 91.5359 101.552 92.2744L104.71 103.474C104.855 103.999 104.876 104.551 104.771 105.085C104.667 105.62 104.44 106.122 104.108 106.554C103.777 106.986 103.349 107.336 102.86 107.575C102.371 107.814 101.833 107.936 101.288 107.932Z" fill="#ACB4BB"/>
<path d="M95.066 94.3352L94.7244 93.1536C94.6864 93.0181 94.6051 92.8987 94.4928 92.8137C94.3806 92.7287 94.2436 92.6829 94.1028 92.6832H91.8068C91.7072 92.6833 91.6089 92.7062 91.5196 92.7503C91.4303 92.7944 91.3523 92.8584 91.2917 92.9374C91.231 93.0165 91.1894 93.1084 91.17 93.2061C91.1505 93.3038 91.1538 93.4046 91.1796 93.5008L91.4932 94.6824C91.5301 94.8205 91.6117 94.9426 91.7251 95.0297C91.8385 95.1167 91.9774 95.164 92.1204 95.164H94.4444C94.5451 95.1648 94.6447 95.1418 94.735 95.0971C94.8253 95.0524 94.9038 94.9871 94.9643 94.9065C95.0247 94.8258 95.0654 94.7322 95.0831 94.6329C95.1008 94.5337 95.0949 94.4318 95.066 94.3352Z" fill="#D6DADF"/>
<path d="M50.736 94.66L51.016 93.4784C51.0379 93.3833 51.0381 93.2844 51.0165 93.1891C50.9949 93.0939 50.9521 93.0048 50.8913 92.9283C50.8304 92.8519 50.7532 92.7902 50.6652 92.7478C50.5773 92.7053 50.4809 92.6833 50.3832 92.6832H47.9304C47.7875 92.6833 47.6485 92.7305 47.5351 92.8176C47.4217 92.9047 47.3402 93.0267 47.3032 93.1648L46.9896 94.3464C46.9639 94.4426 46.9606 94.5435 46.98 94.6412C46.9995 94.7389 47.0411 94.8308 47.1017 94.9098C47.1623 94.9888 47.2403 95.0529 47.3296 95.097C47.419 95.141 47.5172 95.164 47.6168 95.164H50.1088C50.2551 95.1637 50.3968 95.1136 50.5108 95.022C50.6248 94.9304 50.7042 94.8028 50.736 94.66Z" fill="#D6DADF"/>
<path d="M62.2062 94.5816L62.3294 93.4C62.3388 93.3097 62.3292 93.2184 62.3011 93.1321C62.2731 93.0457 62.2272 92.9662 62.1665 92.8987C62.1059 92.8311 62.0317 92.7771 61.9488 92.74C61.866 92.7029 61.7762 92.6835 61.6854 92.6832H58.4486C58.2931 92.6856 58.1434 92.7432 58.0264 92.8458C57.9095 92.9484 57.8328 93.0893 57.8102 93.2432L57.6142 94.4248C57.5988 94.5177 57.6038 94.6127 57.6287 94.7035C57.6537 94.7942 57.698 94.8784 57.7588 94.9503C57.8195 95.0222 57.8951 95.0801 57.9804 95.1199C58.0656 95.1597 58.1585 95.1805 58.2526 95.1808H61.5398C61.707 95.187 61.87 95.128 61.9944 95.0162C62.1187 94.9043 62.1947 94.7485 62.2062 94.5816Z" fill="#D6DADF"/>
<path d="M79.1684 94.3912L78.9388 93.2096C78.9102 93.0614 78.8308 92.9277 78.7143 92.8316C78.5978 92.7356 78.4514 92.6831 78.3004 92.6832H75.0244C74.9336 92.6835 74.8439 92.7029 74.7611 92.74C74.6782 92.7771 74.604 92.8311 74.5433 92.8987C74.4827 92.9662 74.4368 93.0457 74.4087 93.1321C74.3807 93.2185 74.371 93.3097 74.3804 93.4L74.498 94.5816C74.5198 94.738 74.5977 94.881 74.7173 94.9841C74.8368 95.0872 74.9898 95.1432 75.1476 95.1416H78.5076C78.6031 95.1445 78.6979 95.1262 78.7855 95.0882C78.8731 95.0501 78.9512 94.9933 79.0143 94.9216C79.0774 94.85 79.1239 94.7653 79.1505 94.6736C79.1772 94.582 79.1833 94.4855 79.1684 94.3912Z" fill="#D6DADF"/>
<path d="M45.7421 94.6824L46.0557 93.5008C46.0815 93.4046 46.0848 93.3038 46.0653 93.2061C46.0459 93.1084 46.0042 93.0165 45.9436 92.9374C45.883 92.8584 45.805 92.7944 45.7157 92.7503C45.6264 92.7062 45.5281 92.6833 45.4285 92.6832H42.4325C42.2919 92.6838 42.1554 92.73 42.0433 92.8148C41.9312 92.8996 41.8497 93.0185 41.8109 93.1536L41.4693 94.3352C41.4416 94.4317 41.4367 94.5333 41.4548 94.632C41.473 94.7307 41.5138 94.8239 41.574 94.9042C41.6342 94.9845 41.7123 95.0497 41.8019 95.0948C41.8916 95.1399 41.9905 95.1636 42.0909 95.164H45.1149C45.2579 95.164 45.3968 95.1167 45.5102 95.0297C45.6236 94.9426 45.7051 94.8205 45.7421 94.6824Z" fill="#D6DADF"/>
<path d="M90.2444 94.3464L89.9308 93.1648C89.8947 93.0263 89.8134 92.9037 89.6998 92.8164C89.5862 92.7292 89.4468 92.6823 89.3036 92.6832H86.3972C86.2996 92.6831 86.2033 92.705 86.1155 92.7475C86.0277 92.79 85.9507 92.8518 85.8903 92.9284C85.8299 93.005 85.7877 93.0943 85.7668 93.1896C85.746 93.2849 85.7471 93.3836 85.77 93.4784L86.0388 94.66C86.0717 94.8032 86.1522 94.931 86.2671 95.0226C86.3821 95.1141 86.5246 95.164 86.6716 95.1641H89.6172C89.7168 95.164 89.815 95.1411 89.9043 95.097C89.9937 95.0529 90.0717 94.9889 90.1323 94.9098C90.1929 94.8308 90.2345 94.7389 90.254 94.6412C90.2734 94.5435 90.2701 94.4427 90.2444 94.3464Z" fill="#D6DADF"/>
<path d="M84.8239 94.3688L84.5551 93.1872C84.5222 93.044 84.4417 92.9162 84.3268 92.8247C84.2118 92.7332 84.0693 92.6833 83.9223 92.6832H80.7583C80.6625 92.6831 80.5679 92.7042 80.4812 92.745C80.3945 92.7858 80.3179 92.8453 80.2569 92.9191C80.1959 92.993 80.152 93.0794 80.1283 93.1722C80.1046 93.2651 80.1018 93.362 80.1199 93.456L80.3495 94.6376C80.378 94.785 80.4566 94.9179 80.5719 95.0138C80.6873 95.1098 80.8323 95.1629 80.9823 95.164H84.2079C84.3045 95.1625 84.3995 95.1393 84.4859 95.0961C84.5723 95.0529 84.6479 94.9909 84.7071 94.9145C84.7662 94.8381 84.8075 94.7494 84.8277 94.655C84.8479 94.5605 84.8466 94.4627 84.8239 94.3688Z" fill="#D6DADF"/>
<path d="M56.4603 94.6208L56.6619 93.4392C56.6773 93.3464 56.6724 93.2513 56.6474 93.1606C56.6225 93.0698 56.5781 92.9856 56.5174 92.9137C56.4567 92.8418 56.381 92.784 56.2958 92.7442C56.2105 92.7044 56.1176 92.6836 56.0235 92.6832H52.8483C52.7014 92.6833 52.5588 92.7332 52.4439 92.8247C52.3289 92.9162 52.2484 93.044 52.2155 93.1872L51.9411 94.3688C51.9192 94.464 51.9191 94.5629 51.9407 94.6581C51.9623 94.7534 52.0051 94.8425 52.0659 94.9189C52.1267 94.9953 52.2039 95.0571 52.2919 95.0995C52.3798 95.1419 52.4762 95.164 52.5739 95.164H55.8051C55.9617 95.1687 56.1146 95.1161 56.2352 95.0161C56.3558 94.9161 56.4358 94.7756 56.4603 94.6208Z" fill="#D6DADF"/>
<path d="M99.5568 94.3296L99.1984 93.148C99.1586 93.014 99.0766 92.8963 98.9646 92.8126C98.8527 92.7288 98.7166 92.6835 98.5768 92.6832H96.6168C96.5164 92.6837 96.4175 92.7074 96.3278 92.7524C96.2381 92.7975 96.1601 92.8628 96.0999 92.9431C96.0397 93.0234 95.9989 93.1165 95.9807 93.2152C95.9625 93.314 95.9675 93.4156 95.9952 93.512L96.3368 94.6936C96.3756 94.8287 96.4571 94.9476 96.5692 95.0324C96.6813 95.1172 96.8178 95.1634 96.9584 95.164H98.9352C99.0362 95.1639 99.1358 95.1401 99.226 95.0947C99.3162 95.0493 99.3946 94.9835 99.455 94.9025C99.5153 94.8215 99.5559 94.7276 99.5736 94.6281C99.5913 94.5287 99.5855 94.4265 99.5568 94.3296Z" fill="#D6DADF"/>
<path d="M67.7875 94.5145V93.3329C67.7883 93.2478 67.7722 93.1635 67.7401 93.0847C67.7081 93.0059 67.6608 92.9343 67.6009 92.8739C67.541 92.8135 67.4698 92.7655 67.3913 92.7328C67.3128 92.7001 67.2286 92.6832 67.1435 92.6833H64.1139C63.9568 92.6819 63.8045 92.7381 63.6859 92.8413C63.5672 92.9444 63.4904 93.0874 63.4699 93.2433L63.3467 94.4249C63.3374 94.5152 63.347 94.6065 63.3751 94.6928C63.4031 94.7792 63.449 94.8587 63.5096 94.9262C63.5703 94.9938 63.6445 95.0478 63.7274 95.0849C63.8102 95.1221 63.9 95.1414 63.9907 95.1417H67.1435C67.3115 95.1417 67.4728 95.0762 67.5931 94.959C67.7134 94.8419 67.7832 94.6823 67.7875 94.5145Z" fill="#D6DADF"/>
<path d="M37.1279 93.1424L36.7695 94.3241C36.7397 94.4212 36.7331 94.524 36.7503 94.6242C36.7675 94.7244 36.8079 94.8192 36.8684 94.9009C36.9289 94.9826 37.0076 95.0489 37.0984 95.0947C37.1892 95.1404 37.2895 95.1641 37.3911 95.1641H39.5751C39.7157 95.1634 39.8522 95.1173 39.9643 95.0325C40.0764 94.9476 40.1579 94.8288 40.1967 94.6937L40.5271 93.5121C40.556 93.4155 40.5619 93.3135 40.5442 93.2143C40.5265 93.1151 40.4858 93.0214 40.4254 92.9408C40.3649 92.8602 40.2864 92.7949 40.1961 92.7502C40.1058 92.7054 40.0063 92.6825 39.9055 92.6832H37.7271C37.5918 92.6878 37.4614 92.7345 37.3539 92.8169C37.2465 92.8992 37.1675 93.013 37.1279 93.1424Z" fill="#D6DADF"/>
<path d="M73.3546 94.4473L73.2314 93.2657C73.2098 93.1103 73.1326 92.968 73.0143 92.8651C72.8959 92.7622 72.7443 92.7055 72.5874 92.7057H69.5578C69.3855 92.7057 69.2203 92.7741 69.0985 92.8959C68.9766 93.0178 68.9082 93.183 68.9082 93.3553V94.5369C68.9082 94.7092 68.9766 94.8744 69.0985 94.9962C69.2203 95.118 69.3855 95.1865 69.5578 95.1865H72.7106C72.8035 95.1866 72.8954 95.1667 72.98 95.1283C73.0646 95.0898 73.14 95.0337 73.201 94.9636C73.262 94.8935 73.3073 94.8112 73.3338 94.7221C73.3603 94.633 73.3674 94.5393 73.3546 94.4473Z" fill="#D6DADF"/>
<path d="M86.649 97.3088L86.8786 98.3056C86.9197 98.4659 87.013 98.608 87.1438 98.7094C87.2746 98.8108 87.4355 98.8658 87.601 98.8656H90.4906C90.6043 98.8654 90.7164 98.8389 90.8181 98.7883C90.9199 98.7377 91.0087 98.6643 91.0775 98.5739C91.1463 98.4834 91.1933 98.3783 91.2149 98.2667C91.2364 98.1551 91.232 98.04 91.2018 97.9304L90.9386 96.9336C90.8987 96.7737 90.8064 96.6317 90.6766 96.5303C90.5467 96.4288 90.3866 96.3737 90.2218 96.3736H87.3714C87.2568 96.3721 87.1434 96.3973 87.0402 96.4471C86.937 96.497 86.8468 96.5701 86.7768 96.6609C86.7067 96.7516 86.6587 96.8573 86.6365 96.9698C86.6143 97.0822 86.6186 97.1983 86.649 97.3088Z" fill="#D6DADF"/>
<path d="M80.847 97.2807L81.0374 98.2775C81.0699 98.4471 81.1602 98.6001 81.293 98.7105C81.4258 98.8208 81.5928 98.8815 81.7654 98.8824H84.9182C85.0298 98.8827 85.14 98.8579 85.2406 98.8096C85.3412 98.7613 85.4295 98.6909 85.499 98.6036C85.5685 98.5163 85.6174 98.4145 85.6419 98.3056C85.6664 98.1968 85.666 98.0838 85.6406 97.9751L85.411 96.9783C85.3699 96.818 85.2766 96.6759 85.1458 96.5745C85.015 96.4731 84.8541 96.4181 84.6886 96.4183H81.575C81.4676 96.4185 81.3615 96.442 81.2641 96.4873C81.1667 96.5326 81.0803 96.5986 81.011 96.6807C80.9417 96.7628 80.8912 96.859 80.8628 96.9626C80.8345 97.0663 80.8291 97.1748 80.847 97.2807Z" fill="#D6DADF"/>
<path d="M63.0786 97.096L62.9778 98.0928C62.9668 98.1958 62.9776 98.2999 63.0094 98.3985C63.0413 98.497 63.0935 98.5878 63.1626 98.6649C63.2318 98.7419 63.3164 98.8036 63.4109 98.8459C63.5055 98.8882 63.6078 98.9102 63.7114 98.9104H67.0714C67.268 98.9089 67.456 98.8298 67.5944 98.6903C67.7329 98.5508 67.8106 98.3622 67.8106 98.1656V97.1688C67.8106 96.9728 67.7327 96.7847 67.5941 96.6461C67.4555 96.5075 67.2675 96.4296 67.0714 96.4296H63.8346C63.6477 96.4244 63.4657 96.4903 63.3254 96.614C63.1852 96.7377 63.0969 96.9099 63.0786 97.096Z" fill="#D6DADF"/>
<path d="M36.1137 96.9169L35.8001 97.9193C35.7649 98.0302 35.7563 98.1478 35.7751 98.2626C35.7939 98.3775 35.8395 98.4862 35.9083 98.5801C35.977 98.674 36.067 98.7503 36.1708 98.8028C36.2746 98.8554 36.3894 98.8826 36.5057 98.8825H38.4265C38.5904 98.8811 38.7492 98.8254 38.8779 98.7241C39.0066 98.6227 39.098 98.4814 39.1377 98.3225L39.4289 97.3257C39.4612 97.2154 39.4672 97.0991 39.4466 96.986C39.426 96.873 39.3794 96.7663 39.3103 96.6744C39.2413 96.5825 39.1518 96.508 39.0489 96.4568C38.946 96.4056 38.8327 96.379 38.7177 96.3793H36.8193C36.6592 96.3796 36.5035 96.4323 36.3761 96.5293C36.2487 96.6264 36.1565 96.7625 36.1137 96.9169Z" fill="#D6DADF"/>
<path d="M92.1995 97.3311L92.4683 98.3279C92.508 98.4868 92.5994 98.6281 92.7281 98.7295C92.8569 98.8308 93.0156 98.8866 93.1795 98.8879H95.4195C95.5344 98.8881 95.6478 98.8616 95.7506 98.8104C95.8535 98.7591 95.943 98.6846 96.012 98.5928C96.0811 98.5009 96.1277 98.3942 96.1483 98.2812C96.1689 98.1681 96.1629 98.0518 96.1307 97.9415L95.8451 96.9391C95.8045 96.7806 95.7128 96.6399 95.5843 96.5386C95.4558 96.4374 95.2975 96.3814 95.1339 96.3791H92.9387C92.8208 96.3741 92.7034 96.3973 92.5964 96.4469C92.4893 96.4965 92.3957 96.5711 92.3233 96.6643C92.2509 96.7575 92.2019 96.8666 92.1804 96.9826C92.1588 97.0986 92.1654 97.2181 92.1995 97.3311Z" fill="#D6DADF"/>
<path d="M40.7173 96.9336L40.4261 97.936C40.3939 98.0463 40.3879 98.1626 40.4084 98.2757C40.429 98.3887 40.4757 98.4954 40.5447 98.5873C40.6138 98.6791 40.7033 98.7536 40.8061 98.8049C40.909 98.8561 41.0224 98.8827 41.1373 98.8824H44.0549C44.2192 98.8804 44.3783 98.8246 44.5078 98.7234C44.6373 98.6222 44.73 98.4813 44.7717 98.3224L45.0349 97.3256C45.0642 97.2159 45.0677 97.101 45.0454 96.9897C45.023 96.8784 44.9754 96.7737 44.906 96.6838C44.8367 96.5939 44.7476 96.5212 44.6457 96.4713C44.5437 96.4214 44.4316 96.3956 44.3181 96.396H41.4229C41.263 96.3972 41.1077 96.4503 40.9805 96.5472C40.8533 96.6441 40.7609 96.7797 40.7173 96.9336Z" fill="#D6DADF"/>
<path d="M46.2948 96.9502L46.0316 97.947C46.0014 98.0566 45.997 98.1717 46.0186 98.2833C46.0401 98.3949 46.0871 98.5 46.1559 98.5905C46.2247 98.6809 46.3135 98.7543 46.4153 98.8049C46.517 98.8555 46.6291 98.882 46.7428 98.8822H49.162C49.3275 98.8824 49.4884 98.8275 49.6192 98.726C49.75 98.6246 49.8433 98.4825 49.8844 98.3222L50.1196 97.3198C50.1449 97.2111 50.1454 97.0982 50.1209 96.9893C50.0963 96.8805 50.0475 96.7786 49.978 96.6913C49.9085 96.604 49.8201 96.5336 49.7195 96.4854C49.619 96.4371 49.5088 96.4122 49.3972 96.4126H47.0116C46.85 96.4123 46.6926 96.4646 46.5633 96.5616C46.434 96.6585 46.3398 96.795 46.2948 96.9502Z" fill="#D6DADF"/>
<path d="M51.3479 96.9727L51.1183 97.9695C51.0921 98.0781 51.0908 98.1912 51.1146 98.3003C51.1383 98.4095 51.1865 98.5118 51.2555 98.5996C51.3245 98.6875 51.4125 98.7586 51.5129 98.8075C51.6133 98.8565 51.7234 98.8821 51.8351 98.8823H55.1167C55.2927 98.8821 55.463 98.8195 55.5973 98.7058C55.7316 98.592 55.8212 98.4343 55.8503 98.2607L56.0183 97.2639C56.0353 97.1577 56.0291 97.049 56.0001 96.9454C55.971 96.8418 55.9199 96.7457 55.8502 96.6637C55.7805 96.5818 55.6938 96.5159 55.5962 96.4706C55.4986 96.4253 55.3923 96.4018 55.2847 96.4015H52.0703C51.9033 96.4019 51.7413 96.4585 51.6103 96.5621C51.4792 96.6657 51.3869 96.8103 51.3479 96.9727Z" fill="#D6DADF"/>
<path d="M68.9082 97.1409V98.1377C68.9097 98.3348 68.9886 98.5234 69.128 98.6627C69.2673 98.8021 69.4559 98.881 69.653 98.8825H73.013C73.1166 98.8823 73.2189 98.8603 73.3135 98.818C73.408 98.7757 73.4926 98.714 73.5618 98.637C73.6309 98.5599 73.6831 98.4691 73.715 98.3706C73.7468 98.272 73.7576 98.1679 73.7466 98.0649L73.6234 97.0961C73.6053 96.9129 73.5195 96.7431 73.3828 96.6199C73.246 96.4966 73.0683 96.4288 72.8842 96.4297H69.6474C69.4565 96.4309 69.2734 96.5054 69.1359 96.6378C68.9983 96.7701 68.9168 96.9502 68.9082 97.1409Z" fill="#D6DADF"/>
<path d="M57.1932 97.0176L57.0252 98.02C57.0073 98.1259 57.0127 98.2345 57.0411 98.3381C57.0694 98.4417 57.1199 98.5379 57.1892 98.62C57.2585 98.7021 57.3449 98.7681 57.4423 98.8134C57.5397 98.8587 57.6458 98.8823 57.7532 98.8824H61.1132C61.2969 98.882 61.474 98.8138 61.6105 98.6908C61.7469 98.5678 61.8331 98.3987 61.8524 98.216L61.9532 97.2192C61.9643 97.1157 61.9533 97.0111 61.9212 96.9122C61.889 96.8132 61.8363 96.7222 61.7665 96.645C61.6968 96.5678 61.6115 96.5063 61.5163 96.4643C61.4211 96.4224 61.3181 96.401 61.214 96.4016H57.938C57.7609 96.3989 57.5886 96.4595 57.4521 96.5724C57.3156 96.6852 57.2238 96.8431 57.1932 97.0176Z" fill="#D6DADF"/>
<path d="M100.491 97.9191L100.183 96.9223C100.137 96.7715 100.043 96.6397 99.9161 96.546C99.7891 96.4522 99.6355 96.4016 99.4777 96.4015H97.7977C97.6828 96.4012 97.5694 96.4278 97.4665 96.479C97.3637 96.5302 97.2742 96.6048 97.2051 96.6966C97.1361 96.7885 97.0894 96.8952 97.0688 97.0082C97.0483 97.1213 97.0543 97.2376 97.0865 97.3479L97.3777 98.3447C97.4174 98.5037 97.5088 98.6449 97.6376 98.7463C97.7663 98.8477 97.9251 98.9034 98.0889 98.9047H99.7689C99.8893 98.9089 100.009 98.8836 100.117 98.831C100.226 98.7784 100.32 98.7001 100.391 98.6029C100.462 98.5058 100.508 98.3927 100.526 98.2735C100.543 98.1543 100.532 98.0327 100.491 97.9191Z" fill="#D6DADF"/>
<path d="M74.7661 97.2191L74.8669 98.2159C74.8863 98.3986 74.9724 98.5677 75.1089 98.6907C75.2453 98.8137 75.4224 98.882 75.6061 98.8823H79.1285C79.2379 98.8818 79.3458 98.8572 79.4446 98.8103C79.5434 98.7633 79.6307 98.6952 79.7002 98.6107C79.7696 98.5263 79.8197 98.4275 79.8467 98.3216C79.8737 98.2156 79.8771 98.1049 79.8565 97.9975L79.6661 97.0007C79.6325 96.8322 79.5417 96.6804 79.409 96.5712C79.2763 96.462 79.11 96.4021 78.9381 96.4015H75.4997C75.3962 96.4017 75.2938 96.4237 75.1993 96.466C75.1047 96.5083 75.0201 96.5699 74.951 96.647C74.8818 96.7241 74.8296 96.8149 74.7978 96.9134C74.7659 97.012 74.7551 97.1161 74.7661 97.2191Z" fill="#D6DADF"/>
<path d="M62.3732 100.456H74.1734C74.8257 100.458 75.4597 100.63 75.9802 100.948C76.5006 101.266 76.8794 101.711 77.0594 102.218L78.6077 106.616H57.8877L59.4872 102.2C59.6705 101.696 60.0508 101.254 60.5711 100.94C61.0914 100.625 61.7237 100.456 62.3732 100.456Z" fill="#D6DADF"/>
<path d="M96.813 53.556H39.4746C37.3004 53.556 35.5378 55.3186 35.5378 57.4928V84.0984C35.5378 86.2727 37.3004 88.0352 39.4746 88.0352H96.813C98.9873 88.0352 100.75 86.2727 100.75 84.0984V57.4928C100.75 55.3186 98.9873 53.556 96.813 53.556Z" fill="#ACB4BB"/>
<path d="M94.3443 55.6282H41.9507C39.7765 55.6282 38.0139 57.3907 38.0139 59.565V82.0266C38.0139 84.2008 39.7765 85.9634 41.9507 85.9634H94.3443C96.5186 85.9634 98.2811 84.2008 98.2811 82.0266V59.565C98.2811 57.3907 96.5186 55.6282 94.3443 55.6282Z" fill="white"/>
<path d="M73.6794 60.8473L62.5298 70.7593L71.1762 70.8209L62.5298 80.6601L73.6346 69.5945H65.9178L73.6794 60.8473Z" fill="#F15525"/>
<path d="M62.5299 81.2201C62.3877 81.2181 62.2515 81.162 62.1491 81.0633C62.046 80.9645 61.9845 80.8301 61.9773 80.6875C61.97 80.5449 62.0174 80.4049 62.1099 80.2961L69.9499 71.3753L62.5243 71.3361C62.4111 71.3348 62.301 71.2992 62.2084 71.2341C62.1158 71.1689 62.0452 71.0772 62.0057 70.9711C61.9663 70.865 61.96 70.7494 61.9876 70.6396C62.0152 70.5298 62.0754 70.431 62.1603 70.3561L73.3099 60.4273C73.4146 60.3189 73.5581 60.2565 73.7088 60.2539C73.8595 60.2512 74.0051 60.3086 74.1135 60.4133C74.222 60.518 74.2843 60.6615 74.287 60.8122C74.2896 60.9629 74.2322 61.1085 74.1275 61.2169L67.1891 69.0569H73.6347C73.7453 69.0575 73.8532 69.0907 73.9449 69.1525C74.0366 69.2143 74.1079 69.3018 74.1499 69.4041C74.1921 69.5066 74.2029 69.6193 74.181 69.728C74.1591 69.8367 74.1054 69.9364 74.0267 70.0145L62.9275 81.0521C62.8757 81.105 62.8138 81.1471 62.7456 81.176C62.6773 81.2048 62.604 81.2198 62.5299 81.2201ZM63.9915 70.2161L71.1819 70.2665C71.2897 70.2667 71.395 70.298 71.4854 70.3566C71.5758 70.4152 71.6474 70.4987 71.6915 70.5969C71.7078 70.6325 71.7191 70.6702 71.7251 70.7089L72.2851 70.1489H65.9179C65.8102 70.1487 65.7048 70.1174 65.6145 70.0588C65.5241 70.0002 65.4525 69.9168 65.4083 69.8185C65.3642 69.7206 65.3492 69.612 65.3651 69.5057C65.381 69.3995 65.4271 69.3001 65.4979 69.2193L66.9819 67.5393L63.9915 70.2161Z" fill="#F15525"/>
</svg>
