<svg width="24" height="24" viewBox="0 0 24 24" fill="none" xmlns="http://www.w3.org/2000/svg">
<g clip-path="url(#clip0)">
<circle opacity="0.2" cx="8" cy="16" r="8" fill="#239A54"/>
<circle cx="8" cy="16" r="4" fill="#239A54"/>
<path d="M15.9149 0.402333C16.0074 0.308735 16.1175 0.234321 16.2388 0.183357C16.3601 0.132394 16.4904 0.105883 16.622 0.105347C16.8861 0.106133 17.1393 0.211429 17.3261 0.398236C17.5129 0.585044 17.6182 0.838183 17.619 1.10237L17.619 6.46224L22.8091 6.47638C22.9412 6.47584 23.072 6.50144 23.194 6.55171C23.3161 6.60198 23.427 6.67592 23.5204 6.76927C23.6137 6.86261 23.6876 6.97352 23.7379 7.09558C23.7882 7.21765 23.8138 7.34846 23.8132 7.48047C23.8125 7.74466 23.7072 7.9978 23.5204 8.18461C23.3335 8.37141 23.0804 8.47671 22.8162 8.47749L16.5937 8.47749C16.3295 8.47671 16.0764 8.37141 15.8895 8.1846C15.7027 7.9978 15.5974 7.74466 15.5967 7.48047L15.6037 1.12358C15.6042 0.988585 15.632 0.855086 15.6855 0.73113C15.739 0.607174 15.817 0.495328 15.9149 0.402333Z" fill="#239A54"/>
<path d="M16.8902 5.70694L22.369 0.228138C22.4867 0.110385 22.6742 0.0719532 22.89 0.121298C23.1059 0.170642 23.3325 0.303721 23.5201 0.491257C23.7076 0.678794 23.8407 0.905425 23.89 1.1213C23.9394 1.33717 23.9009 1.5246 23.7832 1.64235L18.3044 7.12115C18.1866 7.23891 17.9992 7.27734 17.7833 7.22799C17.5675 7.17865 17.3408 7.04557 17.1533 6.85803C16.9658 6.6705 16.8327 6.44386 16.7833 6.22799C16.734 6.01212 16.7724 5.82469 16.8902 5.70694Z" fill="#239A54"/>
</g>
<defs>
<clipPath id="clip0">
<rect width="24" height="24" fill="white"/>
</clipPath>
</defs>
</svg>
