<svg width="24" height="24" viewBox="0 0 24 24" fill="none" xmlns="http://www.w3.org/2000/svg">
<circle opacity="0.2" cx="8" cy="16" r="8" fill="#FF0000"/>
<circle cx="8" cy="16" r="4" fill="#FF0000"/>
<path d="M23.0851 8.59767C22.9926 8.69126 22.8825 8.76568 22.7612 8.81664C22.6399 8.86761 22.5096 8.89412 22.378 8.89465C22.1139 8.89387 21.8607 8.78857 21.6739 8.60176C21.4871 8.41496 21.3818 8.16182 21.381 7.89763L21.381 2.53776L16.1909 2.52362C16.0588 2.52416 15.928 2.49856 15.806 2.44829C15.6839 2.39802 15.573 2.32408 15.4796 2.23073C15.3863 2.13739 15.3124 2.02648 15.2621 1.90442C15.2118 1.78235 15.1862 1.65154 15.1868 1.51953C15.1875 1.25534 15.2928 1.0022 15.4796 0.815395C15.6665 0.628587 15.9196 0.523292 16.1838 0.522506L22.4063 0.522505C22.6705 0.523292 22.9236 0.628588 23.1105 0.815396C23.2973 1.0022 23.4026 1.25534 23.4033 1.51953L23.3963 7.87642C23.3958 8.01141 23.368 8.14491 23.3145 8.26887C23.261 8.39283 23.183 8.50467 23.0851 8.59767Z" fill="#FF0000"/>
<path d="M22.1589 3.24397L17.2857 8.1172C17.181 8.22194 17.006 8.24789 16.7993 8.18934C16.5927 8.13079 16.3712 7.99254 16.1837 7.80501C15.9961 7.61747 15.8579 7.39601 15.7993 7.18934C15.7408 6.98267 15.7667 6.80772 15.8715 6.70299L20.7447 1.82975C20.8494 1.72501 21.0244 1.69907 21.2311 1.75761C21.4377 1.81616 21.6592 1.95441 21.8467 2.14195C22.0343 2.32948 22.1725 2.55094 22.2311 2.75761C22.2896 2.96428 22.2637 3.13923 22.1589 3.24397Z" fill="#FF0000"/>
</svg>
