<svg width="16" height="16" viewBox="0 0 16 16" fill="none" xmlns="http://www.w3.org/2000/svg">
<path fill-rule="evenodd" clip-rule="evenodd" d="M2.09364 6.45216L4.45988 9.1608C4.69747 9.43283 4.66959 9.84593 4.39753 10.0835C4.2735 10.1919 4.12028 10.245 3.96769 10.245C3.78547 10.245 3.60431 10.1692 3.47484 10.0214L0.165891 6.23351C0.0655113 6.12104 0.00343523 5.97365 0.000138347 5.81181C4.57528e-05 5.8073 -3.62289e-07 5.80279 2.14641e-09 5.79828C2.14641e-09 5.79826 0 5.79824 0 5.79822C0 5.62795 0.0650522 5.47289 0.17166 5.35655L3.47481 1.5753C3.71263 1.30349 4.1255 1.27558 4.39753 1.51296C4.66956 1.75055 4.69725 2.16364 4.45988 2.43567L2.09366 5.14429H11.2478C13.8682 5.14429 16 7.27613 16 9.89626C16 12.5164 13.8679 14.6482 11.2478 14.6482H1.52587C1.16469 14.6482 0.871938 14.3555 0.871938 13.9943C0.871938 13.6331 1.16469 13.3403 1.52587 13.3403H11.2478C13.1471 13.3403 14.6921 11.7953 14.6921 9.89626C14.6921 7.99719 13.1471 6.45216 11.2478 6.45216H2.09364Z" fill="#1586BB"/>
</svg>
