<svg width="20" height="20" viewBox="0 0 20 20" fill="none" xmlns="http://www.w3.org/2000/svg">
<path d="M3 2C2.44772 2 2 2.44772 2 3V7H0V3C0 1.34315 1.34315 0 3 0H7V2H3ZM17 0C18.6569 0 20 1.34315 20 3V7H18V3C18 2.44772 17.5523 2 17 2H13V0H17ZM17 20H13V18H17C17.5523 18 18 17.5523 18 17V13H20V17C20 18.6569 18.6569 20 17 20ZM2 17C2 17.5523 2.44772 18 3 18H7V20H3C1.34315 20 0 18.6569 0 17V13H2V17ZM10.5893 6.99397C10.5893 6.52628 10.8545 6.09903 11.2736 5.89144L13.0733 5V11.0615C13.0733 11.5292 12.8081 11.9564 12.389 12.164L10.5893 13.0554V6.99397ZM7.55926 11.1611C7.14016 11.3687 6.875 11.796 6.875 12.2637V14.9126L8.6747 14.0212C9.09379 13.8136 9.35895 13.3863 9.35895 12.9186V10.2697L7.55926 11.1611Z" fill="#666C72"/>
<path d="M3 2C2.44772 2 2 2.44772 2 3V7H0V3C0 1.34315 1.34315 0 3 0H7V2H3ZM17 0C18.6569 0 20 1.34315 20 3V7H18V3C18 2.44772 17.5523 2 17 2H13V0H17ZM17 20H13V18H17C17.5523 18 18 17.5523 18 17V13H20V17C20 18.6569 18.6569 20 17 20ZM2 17C2 17.5523 2.44772 18 3 18H7V20H3C1.34315 20 0 18.6569 0 17V13H2V17ZM10.5893 6.99397C10.5893 6.52628 10.8545 6.09903 11.2736 5.89144L13.0733 5V11.0615C13.0733 11.5292 12.8081 11.9564 12.389 12.164L10.5893 13.0554V6.99397ZM7.55926 11.1611C7.14016 11.3687 6.875 11.796 6.875 12.2637V14.9126L8.6747 14.0212C9.09379 13.8136 9.35895 13.3863 9.35895 12.9186V10.2697L7.55926 11.1611Z" stroke="#666C72"/>
</svg>
