<svg width="101" height="100" viewBox="0 0 101 100" fill="none" xmlns="http://www.w3.org/2000/svg">
<path d="M50.5 100C78.1142 100 100.5 77.6142 100.5 50C100.5 22.3858 78.1142 0 50.5 0C22.8858 0 0.5 22.3858 0.5 50C0.5 77.6142 22.8858 100 50.5 100Z" fill="#F6F7F8"/>
<g opacity="0.75">
<path opacity="0.75" d="M71.8976 52.3869L91.4128 20.9683C88.7508 17.1359 85.5631 13.6985 81.9438 10.7574L54.8398 52.3869H71.8976Z" fill="white"/>
</g>
<g opacity="0.75">
<path opacity="0.75" d="M0.67914 52.387H18.8687L50.0803 0.0180664C41.2995 0.12518 32.7027 2.5534 25.1588 7.05721L0.936156 44.7469C0.743135 46.5884 0.649811 48.439 0.656595 50.2906C0.656595 51.0045 0.656595 51.6957 0.67914 52.387Z" fill="white"/>
</g>
<path d="M100.5 52H0.5V53H100.5V52Z" fill="#B7BEC5"/>
<path d="M52.5 53V0L51.5 0V53H52.5Z" fill="#B7BEC5"/>
<path d="M82.1582 48H89.8269C90.0556 48.0002 90.2819 48.0462 90.4918 48.1352C90.7016 48.2242 90.8906 48.3544 91.047 48.5176C91.2035 48.6808 91.3241 48.8737 91.4014 49.0843C91.4788 49.2949 91.5111 49.5188 91.4966 49.7421L90.9693 57.4751C90.939 57.8885 90.7501 58.2753 90.4404 58.5581C90.1307 58.8409 89.7232 58.9988 89.2996 59H82.6854C82.262 58.9998 81.8544 58.8421 81.5453 58.559C81.2361 58.2759 81.0485 57.8885 81.0203 57.4751L80.5023 49.724C80.4904 49.5033 80.5244 49.2825 80.602 49.0749C80.6797 48.8674 80.7994 48.6773 80.9541 48.5163C81.1089 48.3552 81.2953 48.2264 81.5022 48.1377C81.7091 48.049 81.9323 48.0021 82.1582 48Z" fill="#B7BEC5"/>
<path d="M82.9107 47.9912C82.9107 47.9912 78.7499 44.4396 81.3609 33C85.6228 36.385 84.3088 48 84.3088 48L82.9107 47.9912Z" fill="#ECEEF1"/>
<path d="M89.6925 48C89.6925 48 92.818 45.6343 90.849 38C87.6638 40.2464 88.6414 48 88.6414 48H89.6925Z" fill="#ECEEF1"/>
<path d="M86.6367 48C86.6367 48 88.5791 37.7796 86.6367 29C82.6539 32.2115 85.46 48 85.46 48H86.6367Z" fill="#ECEEF1"/>
<path d="M81.7515 33L84.5 48H83.7155C83.7155 48 78.0583 43.3917 81.7515 33Z" fill="#B7BEC5"/>
<path d="M90.5 33L88.1531 48L87.4945 47.9616C87.4945 47.9616 83.8553 42.0658 90.5 33Z" fill="#B7BEC5"/>
<path d="M85.2268 30L86.5 48H85.7846C85.7846 48 81.0392 41.9137 85.2268 30Z" fill="#B7BEC5"/>
<path d="M66.4091 25H17.5818C16.4992 25 15.461 25.4268 14.6955 26.1865C13.93 26.9462 13.5 27.9766 13.5 29.051V83.7794C15.6208 86.0925 17.9562 88.2023 20.4753 90.0809H25.1195C25.3677 90.0821 25.6053 90.1808 25.7804 90.3554C25.9555 90.53 26.0538 90.7663 26.0538 91.0127V93.6818C32.793 97.4155 40.3091 99.5564 48.0177 99.9381C55.7263 100.32 63.4197 98.9321 70.5 95.8828V29.051C70.5 28.5182 70.3941 27.9907 70.1884 27.4987C69.9827 27.0066 69.6813 26.5596 69.3013 26.1833C68.9213 25.807 68.4702 25.5088 67.9739 25.3058C67.4777 25.1027 66.9459 24.9988 66.4091 25Z" fill="white"/>
<path d="M26.5 91.035C26.5 90.7614 26.3942 90.4989 26.2057 90.3049C26.0173 90.111 25.7615 90.0013 25.4943 90H20.5C22.411 91.4684 24.4155 92.8046 26.5 94V91.035Z" fill="#ECEEF1"/>
<path d="M25.259 46.1746H19.6092C19.0937 46.1746 18.6758 46.5933 18.6758 47.1099V52.771C18.6758 53.2875 19.0937 53.7062 19.6092 53.7062H25.259C25.7745 53.7062 26.1924 53.2875 26.1924 52.771V47.1099C26.1924 46.5933 25.7745 46.1746 25.259 46.1746Z" fill="#ECEEF1"/>
<path d="M25.259 77.277H19.6092C19.0937 77.277 18.6758 77.6957 18.6758 78.2122V83.8734C18.6758 84.3899 19.0937 84.8086 19.6092 84.8086H25.259C25.7745 84.8086 26.1924 84.3899 26.1924 83.8734V78.2122C26.1924 77.6957 25.7745 77.277 25.259 77.277Z" fill="#ECEEF1"/>
<path d="M64.7766 48.6551H35.3415C35.2219 48.6551 35.1073 48.6075 35.0227 48.5228C34.9381 48.438 34.8906 48.3231 34.8906 48.2033C34.8906 48.0834 34.9381 47.9685 35.0227 47.8838C35.1073 47.7991 35.2219 47.7515 35.3415 47.7515H64.7766C64.8962 47.7515 65.0109 47.7991 65.0955 47.8838C65.18 47.9685 65.2275 48.0834 65.2275 48.2033C65.2275 48.3231 65.18 48.438 65.0955 48.5228C65.0109 48.6075 64.8962 48.6551 64.7766 48.6551Z" fill="#E6E6E6"/>
<path d="M64.7766 52.1294H35.3415C35.2219 52.1294 35.1073 52.0818 35.0227 51.9971C34.9381 51.9123 34.8906 51.7974 34.8906 51.6776C34.8906 51.5578 34.9381 51.4429 35.0227 51.3581C35.1073 51.2734 35.2219 51.2258 35.3415 51.2258H64.7766C64.8962 51.2258 65.0109 51.2734 65.0955 51.3581C65.18 51.4429 65.2275 51.5578 65.2275 51.6776C65.2275 51.7974 65.18 51.9123 65.0955 51.9971C65.0109 52.0818 64.8962 52.1294 64.7766 52.1294Z" fill="#E6E6E6"/>
<path d="M35.3415 79.7574C35.2219 79.7574 35.1073 79.7098 35.0227 79.6251C34.9381 79.5404 34.8906 79.4255 34.8906 79.3056C34.8906 79.1858 34.9381 79.0709 35.0227 78.9862C35.1073 78.9014 35.2219 78.8538 35.3415 78.8538H64.7766C64.8962 78.8538 65.0109 78.9014 65.0955 78.9862C65.18 79.0709 65.2275 79.1858 65.2275 79.3056C65.2275 79.4255 65.18 79.5404 65.0955 79.6251C65.0109 79.7098 64.8962 79.7574 64.7766 79.7574H35.3415Z" fill="#E6E6E6"/>
<path d="M64.7766 83.2318H35.3415C35.2219 83.2318 35.1073 83.1842 35.0227 83.0995C34.9381 83.0147 34.8906 82.8998 34.8906 82.78C34.8906 82.6602 34.9381 82.5452 35.0227 82.4605C35.1073 82.3758 35.2219 82.3282 35.3415 82.3282H64.7766C64.8962 82.3282 65.0109 82.3758 65.0955 82.4605C65.18 82.5452 65.2275 82.6602 65.2275 82.78C65.2275 82.8998 65.18 83.0147 65.0955 83.0995C65.0109 83.1842 64.8962 83.2318 64.7766 83.2318Z" fill="#E6E6E6"/>
<path d="M64.7766 92.2318H35.3415C35.2219 92.2318 35.1073 92.1842 35.0227 92.0995C34.9381 92.0147 34.8906 91.8998 34.8906 91.78C34.8906 91.6602 34.9381 91.5452 35.0227 91.4605C35.1073 91.3758 35.2219 91.3282 35.3415 91.3282H64.7766C64.8962 91.3282 65.0109 91.3758 65.0955 91.4605C65.18 91.5452 65.2275 91.6602 65.2275 91.78C65.2275 91.8998 65.18 92.0147 65.0955 92.0995C65.0109 92.1842 64.8962 92.2318 64.7766 92.2318Z" fill="#E6E6E6"/>
<path d="M64.7766 95.7062H35.3415C35.2219 95.7062 35.1073 95.6586 35.0227 95.5739C34.9381 95.4892 34.8906 95.3742 34.8906 95.2544C34.8906 95.1346 34.9381 95.0197 35.0227 94.9349C35.1073 94.8502 35.2219 94.8026 35.3415 94.8026H64.7766C64.8962 94.8026 65.0109 94.8502 65.0955 94.9349C65.18 95.0197 65.2275 95.1346 65.2275 95.2544C65.2275 95.3742 65.18 95.4892 65.0955 95.5739C65.0109 95.6586 64.8962 95.7062 64.7766 95.7062Z" fill="#E6E6E6"/>
<path d="M75.8219 56H25.1781C23.1467 56 21.5 57.6343 21.5 59.6502V67.3498C21.5 69.3657 23.1467 71 25.1781 71H75.8219C77.8533 71 79.5 69.3657 79.5 67.3498V59.6502C79.5 57.6343 77.8533 56 75.8219 56Z" fill="#F15525"/>
<path d="M33.3464 59H28.6536C27.4642 59 26.5 59.9642 26.5 61.1536V65.8464C26.5 67.0358 27.4642 68 28.6536 68H33.3464C34.5358 68 35.5 67.0358 35.5 65.8464V61.1536C35.5 59.9642 34.5358 59 33.3464 59Z" fill="#ECEEF1"/>
<path d="M74.3531 63H42.6469C42.3428 63 42.051 62.8946 41.8359 62.7071C41.6208 62.5196 41.5 62.2652 41.5 62C41.5 61.7348 41.6208 61.4804 41.8359 61.2929C42.051 61.1054 42.3428 61 42.6469 61H74.3531C74.6572 61 74.949 61.1054 75.1641 61.2929C75.3792 61.4804 75.5 61.7348 75.5 62C75.5 62.2652 75.3792 62.5196 75.1641 62.7071C74.949 62.8946 74.6572 63 74.3531 63Z" fill="#ECEEF1"/>
<path d="M67.3657 67H42.6343C42.3334 67 42.0449 66.8946 41.8322 66.7071C41.6195 66.5196 41.5 66.2652 41.5 66C41.5 65.7348 41.6195 65.4804 41.8322 65.2929C42.0449 65.1054 42.3334 65 42.6343 65H67.3657C67.6666 65 67.9551 65.1054 68.1678 65.2929C68.3805 65.4804 68.5 65.7348 68.5 66C68.5 66.2652 68.3805 66.5196 68.1678 66.7071C67.9551 66.8946 67.6666 67 67.3657 67Z" fill="#ECEEF1"/>
</svg>
