<svg width="49" height="48" viewBox="0 0 49 48" fill="none" xmlns="http://www.w3.org/2000/svg">
<path d="M24.5 48C37.7548 48 48.5 37.2548 48.5 24C48.5 10.7452 37.7548 0 24.5 0C11.2452 0 0.5 10.7452 0.5 24C0.5 37.2548 11.2452 48 24.5 48Z" fill="#239A54"/>
<path d="M22.8208 34.5001C22.3107 34.4981 21.8206 34.3014 21.4508 33.9501L13.6008 26.5001C13.3978 26.3233 13.2325 26.1074 13.1149 25.8652C12.9973 25.623 12.9299 25.3596 12.9165 25.0907C12.9032 24.8219 12.9443 24.5531 13.0373 24.3004C13.1303 24.0478 13.2734 23.8166 13.458 23.6206C13.6425 23.4246 13.8647 23.2679 14.1113 23.1598C14.3579 23.0518 14.6237 22.9946 14.8929 22.9917C15.1621 22.9889 15.4291 23.0404 15.6779 23.1432C15.9267 23.246 16.1522 23.398 16.3408 23.5901L22.5908 29.5001L34.1508 14.5701C34.477 14.151 34.9563 13.8787 35.4833 13.8131C36.0103 13.7475 36.5418 13.8938 36.9608 14.2201C37.3799 14.5463 37.6521 15.0256 37.7178 15.5526C37.7834 16.0796 37.637 16.611 37.3108 17.0301L24.4008 33.6801C24.2377 33.907 24.0288 34.0972 23.7877 34.2384C23.5466 34.3796 23.2785 34.4688 23.0008 34.5001H22.8208Z" fill="white"/>
</svg>
