<svg width="24" height="24" viewBox="0 0 24 24" fill="none" xmlns="http://www.w3.org/2000/svg">
<path d="M18.8606 7.64001C18.5954 7.64001 18.3411 7.53466 18.1535 7.34712C17.966 7.15958 17.8606 6.90523 17.8606 6.64001V5.43001C17.8219 4.78529 17.5302 4.18193 17.0489 3.7512C16.5676 3.32047 15.9357 3.09722 15.2906 3.13001H8.71063C8.06557 3.09722 7.43366 3.32047 6.95237 3.7512C6.47107 4.18193 6.17934 4.78529 6.14062 5.43001V6.64001C6.14062 6.90523 6.03527 7.15958 5.84773 7.34712C5.6602 7.53466 5.40584 7.64001 5.14062 7.64001C4.87541 7.64001 4.62105 7.53466 4.43352 7.34712C4.24598 7.15958 4.14062 6.90523 4.14062 6.64001V5.43001C4.17981 4.25493 4.68244 3.14311 5.53872 2.33742C6.395 1.53173 7.53534 1.09766 8.71063 1.13001H15.2906C16.4659 1.09766 17.6062 1.53173 18.4625 2.33742C19.3188 3.14311 19.8214 4.25493 19.8606 5.43001V6.64001C19.8606 6.90523 19.7553 7.15958 19.5677 7.34712C19.3802 7.53466 19.1258 7.64001 18.8606 7.64001Z" fill="#B7BEC5"/>
<path d="M15.2902 22.87H8.70024C7.66354 22.8917 6.65103 22.5555 5.83321 21.918C5.01539 21.2805 4.44223 20.3806 4.21024 19.37C4.18463 19.2387 4.18514 19.1036 4.21174 18.9725C4.23833 18.8413 4.2905 18.7167 4.36525 18.6058C4.44 18.4948 4.53588 18.3997 4.6474 18.3257C4.75893 18.2518 4.88392 18.2006 5.01524 18.175C5.14656 18.1494 5.28164 18.1499 5.41277 18.1765C5.54389 18.2031 5.6685 18.2553 5.77946 18.33C5.89043 18.4048 5.98558 18.5006 6.0595 18.6122C6.13341 18.7237 6.18463 18.8487 6.21024 18.98C6.35034 19.5302 6.67284 20.0167 7.12509 20.36C7.57734 20.7032 8.13262 20.883 8.70024 20.87H15.2902C15.864 20.8976 16.4298 20.7267 16.8924 20.3861C17.3549 20.0455 17.6861 19.5561 17.8302 19C17.878 18.7348 18.0291 18.4994 18.2504 18.3456C18.4717 18.1918 18.745 18.1323 19.0102 18.18C19.2755 18.2277 19.5108 18.3789 19.6646 18.6002C19.8184 18.8215 19.878 19.0948 19.8302 19.36C19.6004 20.382 19.0211 21.2918 18.1923 21.9326C17.3636 22.5733 16.3372 22.9048 15.2902 22.87Z" fill="#B7BEC5"/>
<path d="M4.07031 16.61C3.8051 16.61 3.55074 16.5047 3.36321 16.3171C3.17567 16.1296 3.07031 15.8752 3.07031 15.61V10.17C3.07031 9.9048 3.17567 9.65044 3.36321 9.46291C3.55074 9.27537 3.8051 9.17001 4.07031 9.17001H6.07031C6.74661 9.17001 7.39522 9.43867 7.87344 9.91689C8.35165 10.3951 8.62031 11.0437 8.62031 11.72C8.62031 12.3963 8.35165 13.0449 7.87344 13.5231C7.39522 14.0014 6.74661 14.27 6.07031 14.27H5.07031V15.61C5.07031 15.8752 4.96496 16.1296 4.77742 16.3171C4.58988 16.5047 4.33553 16.61 4.07031 16.61ZM5.07031 12.27H6.07031C6.14291 12.2714 6.21504 12.2581 6.28238 12.2309C6.34973 12.2038 6.4109 12.1633 6.46224 12.1119C6.51359 12.0606 6.55405 11.9994 6.58121 11.9321C6.60837 11.8647 6.62167 11.7926 6.62031 11.72C6.62031 11.5741 6.56237 11.4342 6.45922 11.3311C6.35608 11.228 6.21618 11.17 6.07031 11.17H5.07031V12.27Z" fill="#B7BEC5"/>
<path d="M11.1998 16.61H10.2598C9.99455 16.61 9.7402 16.5047 9.55266 16.3171C9.36512 16.1296 9.25977 15.8752 9.25977 15.61V10.17C9.25977 9.9048 9.36512 9.65044 9.55266 9.46291C9.7402 9.27537 9.99455 9.17001 10.2598 9.17001H11.1898C11.8889 9.17675 12.571 9.38634 13.1532 9.77333C13.7355 10.1603 14.1929 10.7081 14.4698 11.35C14.6739 11.8237 14.7792 12.3342 14.7792 12.85C14.7792 13.3659 14.6739 13.8763 14.4698 14.35C14.2057 15.0054 13.7551 15.5689 13.1738 15.9706C12.5926 16.3723 11.9062 16.5947 11.1998 16.61ZM11.2598 11.17V14.61C11.5649 14.5923 11.8589 14.4891 12.1082 14.3123C12.3576 14.1355 12.5521 13.8921 12.6698 13.61C12.7664 13.3875 12.8162 13.1476 12.8162 12.905C12.8162 12.6625 12.7664 12.4225 12.6698 12.2C12.5566 11.9123 12.364 11.6627 12.1143 11.4803C11.8647 11.2979 11.5683 11.1903 11.2598 11.17Z" fill="#B7BEC5"/>
<path d="M16.4492 16.61C16.184 16.61 15.9296 16.5047 15.7421 16.3171C15.5546 16.1296 15.4492 15.8752 15.4492 15.61V10.17C15.4492 9.9048 15.5546 9.65044 15.7421 9.46291C15.9296 9.27537 16.184 9.17001 16.4492 9.17001H19.9292C20.1944 9.17001 20.4488 9.27537 20.6363 9.46291C20.8239 9.65044 20.9292 9.9048 20.9292 10.17C20.9292 10.4352 20.8239 10.6896 20.6363 10.8771C20.4488 11.0647 20.1944 11.17 19.9292 11.17H17.4492V15.61C17.4492 15.8752 17.3439 16.1296 17.1563 16.3171C16.9688 16.5047 16.7144 16.61 16.4492 16.61Z" fill="#B7BEC5"/>
<path d="M19.1092 14.27H16.4492C16.184 14.27 15.9296 14.1646 15.7421 13.9771C15.5546 13.7896 15.4492 13.5352 15.4492 13.27C15.4492 13.0048 15.5546 12.7504 15.7421 12.5629C15.9296 12.3753 16.184 12.27 16.4492 12.27H19.1092C19.3744 12.27 19.6288 12.3753 19.8163 12.5629C20.0039 12.7504 20.1092 13.0048 20.1092 13.27C20.1092 13.5352 20.0039 13.7896 19.8163 13.9771C19.6288 14.1646 19.3744 14.27 19.1092 14.27Z" fill="#B7BEC5"/>
</svg>
