<svg width="12" height="12" viewBox="0 0 12 12" fill="none" xmlns="http://www.w3.org/2000/svg">
<path d="M0.949143 9.43503C0.558619 9.82556 0.558619 10.4587 0.949143 10.8492C1.33967 11.2398 1.97283 11.2398 2.36336 10.8492L5.89889 7.31372L9.43442 10.8492C9.82495 11.2398 10.4581 11.2398 10.8486 10.8492C11.2392 10.4587 11.2392 9.82556 10.8486 9.43504L7.3131 5.8995L10.8486 2.36397C11.2392 1.97344 11.2392 1.34028 10.8486 0.949754C10.4581 0.559229 9.82495 0.559229 9.43442 0.949754L5.89889 4.48529L2.36336 0.949754C1.97283 0.559229 1.33967 0.559229 0.949143 0.949754C0.558619 1.34028 0.558619 1.97344 0.949143 2.36397L4.48468 5.8995L0.949143 9.43503Z" fill="#B7BEC5"/>
</svg>
