<svg width="40" height="95" viewBox="0 0 40 95" fill="none" xmlns="http://www.w3.org/2000/svg">
<path d="M0 39C0 32.3726 5.37258 27 12 27H28C34.6274 27 40 32.3726 40 39V55C40 61.6274 34.6274 67 28 67H12C5.37258 67 0 61.6274 0 55V39Z" fill="#F6F7F8"/>
<g clip-path="url(#clip0_2880:7833)">
<circle opacity="0.2" cx="20" cy="47" r="8" fill="#239A54"/>
<circle cx="20" cy="47" r="4" fill="#239A54"/>
<path d="M27.9149 31.4023C28.0074 31.3087 28.1175 31.2343 28.2388 31.1834C28.3601 31.1324 28.4904 31.1059 28.622 31.1053C28.8861 31.1061 29.1393 31.2114 29.3261 31.3982C29.5129 31.585 29.6182 31.8382 29.619 32.1024L29.619 37.4622L34.8091 37.4764C34.9412 37.4758 35.072 37.5014 35.194 37.5517C35.3161 37.602 35.427 37.6759 35.5204 37.7693C35.6137 37.8626 35.6876 37.9735 35.7379 38.0956C35.7882 38.2177 35.8138 38.3485 35.8132 38.4805C35.8125 38.7447 35.7072 38.9978 35.5204 39.1846C35.3335 39.3714 35.0804 39.4767 34.8162 39.4775L28.5937 39.4775C28.3295 39.4767 28.0764 39.3714 27.8895 39.1846C27.7027 38.9978 27.5974 38.7447 27.5967 38.4805L27.6037 32.1236C27.6042 31.9886 27.632 31.8551 27.6855 31.7311C27.739 31.6072 27.817 31.4953 27.9149 31.4023Z" fill="#239A54"/>
<path d="M28.8896 36.707L34.3684 31.2282C34.4861 31.1104 34.6735 31.072 34.8894 31.1213C35.1053 31.1707 35.3319 31.3038 35.5195 31.4913C35.707 31.6788 35.8401 31.9055 35.8894 32.1213C35.9388 32.3372 35.9003 32.5246 35.7826 32.6424L30.3038 38.1212C30.186 38.2389 29.9986 38.2774 29.7827 38.228C29.5668 38.1787 29.3402 38.0456 29.1527 37.8581C28.9651 37.6705 28.8321 37.4439 28.7827 37.228C28.7334 37.0122 28.7718 36.8247 28.8896 36.707Z" fill="#239A54"/>
</g>
<defs>
<clipPath id="clip0_2880:7833">
<rect width="24" height="24" fill="white" transform="translate(12 31)"/>
</clipPath>
</defs>
</svg>
