<svg width="16" height="16" viewBox="0 0 16 16" fill="none" xmlns="http://www.w3.org/2000/svg">
<path fill-rule="evenodd" clip-rule="evenodd" d="M7.29289 11.6461C7.48043 11.8727 7.73478 12 8 12C8.13132 12 8.26136 11.9687 8.38268 11.908C8.50401 11.8473 8.61425 11.7583 8.70711 11.6461C8.79997 11.5338 8.87362 11.4006 8.92388 11.254C8.97413 11.1074 9 10.9502 9 10.7915V9H10.7915C11.112 9 11.4194 8.89464 11.6461 8.70711C11.8727 8.51957 12 8.26522 12 8C12 7.73478 11.8727 7.48043 11.6461 7.29289C11.4194 7.10536 11.112 7 10.7915 7H9V5.20846C9 4.88796 8.89464 4.58058 8.70711 4.35395C8.51957 4.12732 8.26522 4 8 4C7.73478 4 7.48043 4.12732 7.29289 4.35395C7.10536 4.58058 7 4.88796 7 5.20846V7H5.20846C4.88796 7 4.58058 7.10536 4.35395 7.29289C4.12732 7.48043 4 7.73478 4 8C4 8.26522 4.12732 8.51957 4.35395 8.70711C4.58058 8.89464 4.88796 9 5.20846 9H7V10.7915C7 11.112 7.10536 11.4194 7.29289 11.6461Z" fill="#EF5630"/>
<path d="M4 2H12V-2H4V2ZM14 4V12H18V4H14ZM12 14H4V18H12V14ZM2 12V4H-2V12H2ZM4 14C2.89543 14 2 13.1046 2 12H-2C-2 15.3137 0.686292 18 4 18V14ZM14 12C14 13.1046 13.1046 14 12 14V18C15.3137 18 18 15.3137 18 12H14ZM12 2C13.1046 2 14 2.89543 14 4H18C18 0.686292 15.3137 -2 12 -2V2ZM4 -2C0.686292 -2 -2 0.686292 -2 4H2C2 2.89543 2.89543 2 4 2V-2Z" fill="#EF5630"/>
</svg>
