<svg width="16" height="16" viewBox="0 0 16 16" fill="none" xmlns="http://www.w3.org/2000/svg">
  <g clip-path="url(#clip0_1487_1642)">
    <path d="M12.0005 8.71002C12.0061 8.8587 11.9786 9.00678 11.9197 9.14344C11.8609 9.28011 11.7724 9.40193 11.6605 9.50002L5.66048 14.79C5.45981 14.9517 5.20449 15.0296 4.94776 15.0076C4.69104 14.9856 4.45271 14.8653 4.28249 14.6719C4.11227 14.4784 4.02328 14.2267 4.03408 13.9693C4.04489 13.7119 4.15465 13.4685 4.34048 13.29L9.50048 8.68002L4.29048 3.68003C4.12172 3.49237 4.03015 3.24784 4.03415 2.9955C4.03815 2.74315 4.13741 2.50165 4.31204 2.31943C4.48666 2.13722 4.72372 2.02777 4.97567 2.01304C5.22762 1.99831 5.47582 2.0794 5.67048 2.24002L11.6705 7.95002C11.7766 8.04576 11.861 8.16314 11.9179 8.29424C11.9748 8.42534 12.003 8.56712 12.0005 8.71002Z" fill="#666C72"/>
  </g>
  <defs>
    <clipPath id="clip0_1487_1642">
      <rect width="13" height="8" fill="white" transform="translate(4 15) rotate(-90)"/>
    </clipPath>
  </defs>
</svg>
