<svg width="40" height="40" viewBox="0 0 40 40" fill="none" xmlns="http://www.w3.org/2000/svg">
<g clip-path="url(#clip0)">
<path d="M15 20.29C14.9943 20.1413 15.0219 19.9933 15.0807 19.8566C15.1396 19.7199 15.2281 19.5981 15.34 19.5L21.34 14.21C21.5407 14.0484 21.796 13.9704 22.0527 13.9925C22.3095 14.0145 22.5478 14.1347 22.718 14.3282C22.8882 14.5216 22.9772 14.7733 22.9664 15.0307C22.9556 15.2882 22.8458 15.5315 22.66 15.71L17.5 20.32L22.71 25.32C22.8788 25.5077 22.9703 25.7522 22.9663 26.0045C22.9623 26.2569 22.8631 26.4984 22.6885 26.6806C22.5138 26.8628 22.2768 26.9723 22.0248 26.987C21.7729 27.0017 21.5247 26.9206 21.33 26.76L15.33 21.05C15.2239 20.9543 15.1395 20.8369 15.0826 20.7058C15.0257 20.5747 14.9975 20.4329 15 20.29Z" fill="#EF5630"/>
</g>
<path d="M12 2H28V-2H12V2ZM38 12V28H42V12H38ZM28 38H12V42H28V38ZM2 28V12H-2V28H2ZM12 38C6.47715 38 2 33.5228 2 28H-2C-2 35.732 4.26801 42 12 42V38ZM38 28C38 33.5228 33.5228 38 28 38V42C35.732 42 42 35.732 42 28H38ZM28 2C33.5228 2 38 6.47715 38 12H42C42 4.26801 35.732 -2 28 -2V2ZM12 -2C4.26801 -2 -2 4.26801 -2 12H2C2 6.47715 6.47715 2 12 2V-2Z" fill="#EF5630"/>
<defs>
<clipPath id="clip0">
<rect width="13" height="8" fill="white" transform="translate(23 14) rotate(90)"/>
</clipPath>
</defs>
</svg>
