<svg width="40" height="40" viewBox="0 0 40 40" fill="none" xmlns="http://www.w3.org/2000/svg">
  <path d="M0 4C0 1.79086 1.79086 0 4 0H36C38.2091 0 40 1.79086 40 4V36C40 38.2091 38.2091 40 36 40H4C1.79086 40 0 38.2091 0 36V4Z" fill="white"/>
  <rect x="4" y="4" width="32" height="32" fill="white"/>
  <g clip-path="url(#clip0_1423_12572)">
    <path d="M19.8058 16.9998C19.6685 16.9949 19.5318 17.019 19.4057 17.0705C19.2795 17.1219 19.1671 17.1994 19.0765 17.2973L14.1934 22.5473C14.0443 22.7229 13.9723 22.9463 13.9926 23.171C14.013 23.3956 14.124 23.6041 14.3025 23.7531C14.4811 23.902 14.7134 23.9799 14.951 23.9704C15.1887 23.961 15.4133 23.8649 15.5781 23.7023L19.8334 19.1873L24.4488 23.7461C24.6221 23.8937 24.8478 23.9739 25.0807 23.9704C25.3136 23.9669 25.5366 23.88 25.7048 23.7272C25.873 23.5744 25.974 23.367 25.9876 23.1465C26.0012 22.9261 25.9263 22.7089 25.7781 22.5386L20.5073 17.2886C20.4189 17.1957 20.3106 17.1219 20.1896 17.0721C20.0685 17.0223 19.9377 16.9976 19.8058 16.9998Z" fill="#EF5630"/>
  </g>
  <defs>
    <clipPath id="clip0_1423_12572">
      <rect width="12" height="7" fill="white" transform="matrix(1 0 0 -1 14 24)"/>
    </clipPath>
  </defs>
</svg>
