<svg width="40" height="40" viewBox="0 0 40 40" fill="none" xmlns="http://www.w3.org/2000/svg">
  <path d="M0 4C0 1.79086 1.79086 0 4 0H36C38.2091 0 40 1.79086 40 4V36C40 38.2091 38.2091 40 36 40H4C1.79086 40 0 38.2091 0 36V4Z" fill="white"/>
  <rect x="4" y="4" width="32" height="32" fill="white"/>
  <g clip-path="url(#clip0_1423_12578)">
    <path d="M19.8058 24.0002C19.6685 24.0051 19.5318 23.981 19.4057 23.9295C19.2795 23.8781 19.1671 23.8006 19.0765 23.7027L14.1934 18.4527C14.0443 18.2771 13.9723 18.0537 13.9926 17.829C14.013 17.6044 14.124 17.3959 14.3025 17.2469C14.4811 17.098 14.7134 17.0201 14.951 17.0296C15.1887 17.039 15.4133 17.1351 15.5781 17.2977L19.8334 21.8127L24.4488 17.2539C24.6221 17.1063 24.8478 17.0261 25.0807 17.0296C25.3136 17.0331 25.5366 17.12 25.7048 17.2728C25.873 17.4256 25.974 17.633 25.9876 17.8535C26.0012 18.0739 25.9263 18.2911 25.7781 18.4614L20.5073 23.7114C20.4189 23.8043 20.3106 23.8781 20.1896 23.9279C20.0685 23.9777 19.9377 24.0024 19.8058 24.0002V24.0002Z" fill="#EF5630"/>
  </g>
  <defs>
    <clipPath id="clip0_1423_12578">
      <rect width="12" height="7" fill="white" transform="translate(14 17)"/>
    </clipPath>
  </defs>
</svg>
