<svg width="24" height="24" viewBox="0 0 24 24" fill="none" xmlns="http://www.w3.org/2000/svg">
<path d="M14 17.29C13.7348 17.29 13.4804 17.1846 13.2929 16.9971C13.1054 16.8096 13 16.5552 13 16.29V8.85001C13 8.58479 13.1054 8.33044 13.2929 8.1429C13.4804 7.95536 13.7348 7.85001 14 7.85001C14.2652 7.85001 14.5196 7.95536 14.7071 8.1429C14.8946 8.33044 15 8.58479 15 8.85001V16.29C15 16.5552 14.8946 16.8096 14.7071 16.9971C14.5196 17.1846 14.2652 17.29 14 17.29Z" fill="#B7BEC5"/>
<path d="M10 17.29C9.73478 17.29 9.48043 17.1846 9.29289 16.9971C9.10536 16.8096 9 16.5552 9 16.29V8.85001C9 8.58479 9.10536 8.33044 9.29289 8.1429C9.48043 7.95536 9.73478 7.85001 10 7.85001C10.2652 7.85001 10.5196 7.95536 10.7071 8.1429C10.8946 8.33044 11 8.58479 11 8.85001V16.29C11 16.5552 10.8946 16.8096 10.7071 16.9971C10.5196 17.1846 10.2652 17.29 10 17.29Z" fill="#B7BEC5"/>
<path d="M13.91 21.88H10.09C8.74178 21.88 7.44863 21.3451 6.49436 20.3927C5.54008 19.4403 5.00265 18.1482 5 16.8V6.79999C5 6.53477 5.10536 6.28042 5.29289 6.09288C5.48043 5.90534 5.73478 5.79999 6 5.79999C6.26522 5.79999 6.51957 5.90534 6.70711 6.09288C6.89464 6.28042 7 6.53477 7 6.79999V16.8C7 17.6169 7.3245 18.4003 7.90211 18.9779C8.18812 19.2639 8.52765 19.4908 8.90133 19.6455C9.27502 19.8003 9.67553 19.88 10.08 19.88H13.9C14.3062 19.8826 14.7088 19.8049 15.0848 19.6513C15.4608 19.4977 15.8027 19.2712 16.0908 18.985C16.379 18.6987 16.6076 18.3583 16.7637 17.9833C16.9197 17.6083 17 17.2061 17 16.8V6.79999C17 6.53477 17.1054 6.28042 17.2929 6.09288C17.4804 5.90534 17.7348 5.79999 18 5.79999C18.2652 5.79999 18.5196 5.90534 18.7071 6.09288C18.8946 6.28042 19 6.53477 19 6.79999V16.8C18.9974 18.1482 18.4599 19.4403 17.5056 20.3927C16.5514 21.3451 15.2582 21.88 13.91 21.88Z" fill="#B7BEC5"/>
<path d="M19.1096 4.87H4.88965C4.62443 4.87 4.37008 4.76464 4.18254 4.5771C3.99501 4.38957 3.88965 4.13521 3.88965 3.87C3.88965 3.60478 3.99501 3.35042 4.18254 3.16289C4.37008 2.97535 4.62443 2.87 4.88965 2.87H19.1096C19.3749 2.87 19.6292 2.97535 19.8168 3.16289C20.0043 3.35042 20.1096 3.60478 20.1096 3.87C20.1096 4.13521 20.0043 4.38957 19.8168 4.5771C19.6292 4.76464 19.3749 4.87 19.1096 4.87Z" fill="#B7BEC5"/>
<path d="M13.6301 4.12H10.3701C10.1049 4.12 9.85055 4.01464 9.66301 3.8271C9.47547 3.63957 9.37012 3.38521 9.37012 3.12C9.37012 2.85478 9.47547 2.60042 9.66301 2.41289C9.85055 2.22535 10.1049 2.12 10.3701 2.12H13.6301C13.8953 2.12 14.1497 2.22535 14.3372 2.41289C14.5248 2.60042 14.6301 2.85478 14.6301 3.12C14.6301 3.38521 14.5248 3.63957 14.3372 3.8271C14.1497 4.01464 13.8953 4.12 13.6301 4.12Z" fill="#B7BEC5"/>
</svg>
