<svg width="20" height="19" viewBox="0 0 20 19" fill="none" xmlns="http://www.w3.org/2000/svg">
<path fill-rule="evenodd" clip-rule="evenodd" d="M18.8253 6.19123L18.8257 6.19084C19.1038 5.92538 19.3236 5.61097 19.4733 5.26596C19.6231 4.92081 19.7 4.55139 19.7 4.17867C19.7 3.80594 19.6231 3.43652 19.4733 3.09137C19.3235 2.74619 19.1035 2.43165 18.8253 2.1661L18.8252 2.16604L17.7516 1.14094L17.7516 1.14088C17.4735 0.875148 17.1425 0.663657 16.7772 0.519131C16.4119 0.374598 16.02 0.300049 15.6238 0.300049C15.2277 0.300049 14.8357 0.374598 14.4704 0.519131C14.1052 0.663635 13.7743 0.875084 13.4962 1.14076L13.4961 1.14088L3.11129 11.1081C2.69024 11.5236 2.36743 12.0189 2.16343 12.5608L2.16299 12.562L0.353379 17.5025L0.352851 17.504C0.301557 17.6498 0.287395 17.8047 0.311223 17.9562C0.335139 18.1083 0.396834 18.2538 0.492315 18.3805C0.587855 18.5072 0.714657 18.6117 0.863065 18.684C1.01118 18.7563 1.17593 18.7941 1.34354 18.7939C1.45952 18.7925 1.57457 18.7755 1.68525 18.7435L6.85976 17.0154L6.86196 17.0147C7.43659 16.8277 7.9574 16.5176 8.3847 16.1092L8.38535 16.1086L18.8253 6.19123ZM15.6267 2.26407L15.6267 2.26414C15.8675 2.26644 16.1003 2.35929 16.2738 2.52654L16.2754 2.52802L17.346 3.53754L17.3513 3.54247L17.3563 3.54765C17.5182 3.71572 17.6103 3.93847 17.6103 4.17226C17.6103 4.40605 17.5182 4.6288 17.3563 4.79687L17.3476 4.80587L17.3474 4.80568L15.7889 6.29384L13.3594 4.07892L14.9848 2.52887C15.0678 2.44622 15.1664 2.38076 15.2745 2.3356C15.3839 2.2899 15.5013 2.26572 15.6199 2.26416L15.6267 2.26407ZM11.91 5.46108L4.5872 12.4443L4.58616 12.4453C4.36971 12.6537 4.20587 12.9083 4.1087 13.1896L3.22369 15.6479L3.01549 16.2262L3.59952 16.0345L6.17233 15.19L6.17427 15.1894C6.46368 15.0983 6.72815 14.9438 6.94636 14.7372L6.94725 14.7364L14.3405 7.67687L11.91 5.46108Z" fill="#B7BEC5"/>
</svg>
