<svg width="48" height="48" viewBox="0 0 48 48" fill="none" xmlns="http://www.w3.org/2000/svg">
<path d="M24 48C37.2548 48 48 37.2548 48 24C48 10.7452 37.2548 0 24 0C10.7452 0 0 10.7452 0 24C0 37.2548 10.7452 48 24 48Z" fill="#FF0000"/>
<path d="M32.5 34.5C31.9704 34.4977 31.4633 34.2856 31.09 33.91L14.09 16.91C13.8889 16.7284 13.7268 16.5079 13.6135 16.2618C13.5002 16.0157 13.4381 15.7491 13.431 15.4783C13.4238 15.2074 13.4718 14.938 13.572 14.6862C13.6721 14.4345 13.8224 14.2057 14.0136 14.0138C14.2048 13.8219 14.4331 13.6709 14.6844 13.5698C14.9358 13.4688 15.2051 13.4199 15.476 13.4261C15.7468 13.4322 16.0136 13.4934 16.2601 13.6058C16.5066 13.7182 16.7277 13.8795 16.91 14.08L33.91 31.08C34.1914 31.3591 34.3836 31.7156 34.462 32.1041C34.5405 32.4927 34.5017 32.8958 34.3506 33.2623C34.1995 33.6288 33.9429 33.9421 33.6134 34.1624C33.2839 34.3828 32.8964 34.5003 32.5 34.5Z" fill="white"/>
<path d="M15.5 34.5C15.1036 34.5003 14.7161 34.3828 14.3866 34.1624C14.0571 33.9421 13.8005 33.6288 13.6494 33.2623C13.4983 32.8958 13.4595 32.4927 13.538 32.1041C13.6164 31.7156 13.8086 31.3591 14.09 31.08L31.09 14.08C31.2723 13.8795 31.4934 13.7182 31.7399 13.6058C31.9864 13.4934 32.2532 13.4322 32.524 13.4261C32.7949 13.4199 33.0642 13.4688 33.3156 13.5698C33.5669 13.6709 33.7952 13.8219 33.9864 14.0138C34.1776 14.2057 34.3279 14.4345 34.428 14.6862C34.5282 14.938 34.5761 15.2074 34.569 15.4783C34.5618 15.7491 34.4998 16.0157 34.3865 16.2618C34.2732 16.5079 34.1111 16.7284 33.91 16.91L16.91 33.91C16.5367 34.2856 16.0296 34.4977 15.5 34.5Z" fill="white"/>
</svg>
