<svg width="52" height="38" viewBox="0 0 52 38" fill="none" xmlns="http://www.w3.org/2000/svg">
  <path d="M23.2513 4.88122L9.39971 4.97935C8.17117 4.99334 6.98508 5.52273 6.07189 6.46464C5.15871 7.40655 4.58366 8.69373 4.45847 10.076L4.1813 30.3528C4.10553 31.2144 4.18926 32.082 4.42717 32.9004C4.66508 33.7188 5.05194 34.4699 5.56312 35.106C6.07429 35.7421 6.69857 36.2492 7.39618 36.595C8.09379 36.9408 8.84943 37.1177 9.61497 37.1144L42.7234 36.8799C43.9398 36.8722 45.1167 36.3563 46.0273 35.4317C46.938 34.5071 47.5181 33.2391 47.6558 31.8718L47.7527 16.0941C47.8403 15.2241 47.765 14.3453 47.5317 13.5151C47.2985 12.6848 46.9125 11.9216 46.3989 11.2751C45.8853 10.6285 45.2556 10.1131 44.5506 9.76241C43.8457 9.41167 43.0813 9.23344 42.3072 9.23929L26.8423 9.34885C26.6218 9.35021 26.4041 9.29957 26.2031 9.20017C26.0022 9.10077 25.8223 8.9548 25.6751 8.77159C25.5278 8.58838 25.4165 8.37197 25.3481 8.1362C25.2798 7.90043 25.256 7.65049 25.2782 7.40237C25.3052 7.0813 25.2732 6.75826 25.184 6.45363C25.0948 6.14901 24.9504 5.86942 24.7599 5.63251C24.5694 5.39561 24.337 5.20653 24.0774 5.07722C23.8177 4.94791 23.5364 4.88117 23.2513 4.88122Z" fill="#DFE0E1"/>
  <path d="M42.7186 37.1131L9.61427 37.3476C8.8184 37.3539 8.03234 37.1724 7.30636 36.8148C6.58038 36.4572 5.93048 35.9314 5.39821 35.271C4.86595 34.6106 4.46305 33.8301 4.21529 32.9795C3.96753 32.1289 3.88036 31.2269 3.95936 30.3312L4.23642 10.0731C4.35436 8.6226 4.95171 7.26846 5.90922 6.28106C6.86674 5.29367 8.11395 4.74566 9.40187 4.74645L23.2741 4.64818C23.5887 4.647 23.8993 4.71989 24.1859 4.8622C24.4726 5.00451 24.7291 5.21311 24.939 5.47472C25.149 5.73633 25.3078 6.04521 25.4053 6.38166C25.5029 6.71811 25.5371 7.07476 25.5057 7.42888C25.4859 7.64463 25.5063 7.86206 25.5655 8.06719C25.6248 8.27232 25.7215 8.46061 25.8496 8.61994C25.9776 8.77927 26.1341 8.90612 26.309 8.99232C26.4839 9.07852 26.6733 9.12217 26.8651 9.12046L42.3259 9.01093C43.1289 9.00391 43.9221 9.18815 44.6535 9.55164C45.385 9.91514 46.0384 10.4497 46.5711 11.1205C47.1038 11.7914 47.5039 12.5834 47.7453 13.4449C47.9867 14.3065 48.0639 15.2182 47.972 16.1207L47.8752 31.8751C47.7363 33.307 47.1315 34.6364 46.1784 35.6046C45.2252 36.5727 43.992 37.1105 42.7186 37.1131ZM9.39901 5.21256C8.21981 5.21578 7.07884 5.71924 6.20214 6.6232C5.32545 7.52717 4.77698 8.76568 4.6654 10.0934L4.38833 30.3514C4.31259 31.1824 4.39105 32.0198 4.61869 32.81C4.84632 33.6002 5.21812 34.3259 5.71029 34.9405C6.20246 35.5552 6.80417 36.0453 7.47691 36.3795C8.14964 36.7138 8.8786 36.8848 9.61713 36.8815L42.7256 36.647C43.8921 36.6423 45.0213 36.1486 45.8942 35.2615C46.7672 34.3743 47.3217 33.157 47.4504 31.8455L47.5472 16.0957C47.6341 15.2565 47.5636 14.4083 47.3405 13.6065C47.1173 12.8047 46.7463 12.0673 46.2519 11.4424C45.7574 10.8174 45.1504 10.319 44.4706 9.97957C43.7908 9.64015 43.0535 9.46737 42.3066 9.4725L26.8416 9.58206C26.5922 9.58378 26.3459 9.52664 26.1186 9.41428C25.8912 9.30193 25.6877 9.13685 25.5211 8.9296C25.3546 8.72236 25.2287 8.47753 25.1515 8.2108C25.0743 7.94407 25.0474 7.66133 25.0727 7.38068C25.0993 7.09154 25.072 6.80011 24.9926 6.52519C24.9133 6.25026 24.7836 5.99792 24.6119 5.78442C24.4403 5.57093 24.2304 5.40101 23.996 5.28562C23.7615 5.17022 23.5076 5.1119 23.2506 5.11443L9.39901 5.21256Z" fill="#DFE0E1"/>
  <path d="M42.6997 17.667C47.4138 17.667 51.2353 13.7642 51.2353 8.94982C51.2353 4.13547 47.4138 0.232666 42.6997 0.232666C37.9856 0.232666 34.1641 4.13547 34.1641 8.94982C34.1641 13.7642 37.9856 17.667 42.6997 17.667Z" fill="#F5F5F5"/>
  <path d="M40.1172 9.51001L42.8723 12.2648L45.6268 9.51001" stroke="#B7BEC5" stroke-width="0.943396" stroke-linecap="round" stroke-linejoin="round"/>
  <path d="M42.873 11.8713V4.39404" stroke="#B7BEC5" stroke-width="0.943396" stroke-miterlimit="10" stroke-linecap="round"/>
  <path d="M19.3615 8.65063H5.87183C5.20709 8.65598 4.55029 8.79867 3.94098 9.07011C3.33167 9.34154 2.78246 9.73612 2.32641 10.2301C1.87037 10.724 1.51694 11.3071 1.28739 11.9442C1.05784 12.5814 0.95694 13.2594 0.990752 13.9374L3.7946 32.2586C3.86722 33.6927 4.4764 35.0435 5.49631 36.0321C6.51621 37.0206 7.86893 37.5713 9.27504 37.5705H42.2192C42.8886 37.5712 43.551 37.4319 44.1656 37.1612C44.7802 36.8904 45.3341 36.494 45.7929 35.9963C46.2518 35.4986 46.606 34.9102 46.8336 34.2674C47.0613 33.6246 47.1577 32.9409 47.1167 32.2586L44.3991 17.9664C44.3193 16.5349 43.7054 15.1891 42.6838 14.2057C41.6621 13.2224 40.3103 12.6762 38.9063 12.6796H23.0274C22.6352 12.6793 22.2571 12.5296 21.9671 12.2598C21.6771 11.99 21.496 11.6195 21.4593 11.2206L21.3936 10.5289C21.341 10.0151 21.1045 9.53927 20.7295 9.19264C20.3544 8.84601 19.8673 8.653 19.3615 8.65063Z" fill="#ECEEF1"/>
  <path d="M42.2019 37.7675H9.25767C7.79949 37.7674 6.39691 37.196 5.33906 36.171C4.28121 35.146 3.64872 33.7457 3.57198 32.2585L0.772233 13.9583C0.731975 13.2491 0.833995 12.539 1.07203 11.8715C1.31007 11.2041 1.67911 10.5933 2.15653 10.0767C2.63394 9.56008 3.20965 9.14851 3.84836 8.86723C4.48708 8.58595 5.17532 8.44088 5.87088 8.44093H19.3606C19.9233 8.43897 20.466 8.65363 20.8807 9.04214C21.2954 9.43064 21.5514 9.96446 21.5979 10.5372L21.6636 11.2289C21.6954 11.5747 21.8531 11.8958 22.1054 12.1286C22.3577 12.3615 22.6864 12.4893 23.0265 12.4867H38.9054C40.3529 12.489 41.7454 13.0534 42.8005 14.0655C43.8556 15.0776 44.4942 16.4617 44.587 17.9369L47.3005 32.1915C47.3472 32.9043 47.2499 33.6194 47.0148 34.2924C46.7797 34.9653 46.4116 35.5817 45.9336 36.1034C45.4555 36.625 44.8776 37.0408 44.2356 37.3249C43.5937 37.609 42.9015 37.7553 42.2019 37.7549V37.7675ZM5.87088 8.86018C5.23484 8.86057 4.60548 8.99278 4.02093 9.24882C3.43637 9.50486 2.90878 9.8794 2.4701 10.3497C2.03142 10.8201 1.69077 11.3765 1.46878 11.9852C1.2468 12.5939 1.14809 13.2424 1.17865 13.8912L3.97839 32.1956C4.0458 33.5793 4.63137 34.8836 5.61399 35.8388C6.59662 36.7939 7.90112 37.3268 9.25767 37.3273H42.2019C42.8432 37.3279 43.4779 37.1944 44.0667 36.935C44.6556 36.6756 45.1862 36.2957 45.6259 35.8188C46.0655 35.342 46.4048 34.7782 46.6229 34.1623C46.8411 33.5463 46.9333 32.8913 46.8941 32.2376L44.1806 17.9831C44.1022 16.6071 43.5127 15.3135 42.5325 14.3662C41.5522 13.4188 40.255 12.8891 38.9054 12.885H23.0265C22.5823 12.8878 22.1534 12.7199 21.8249 12.4147C21.4963 12.1094 21.2922 11.6892 21.2531 11.2373L21.1874 10.5833C21.1472 10.1174 20.9372 9.68381 20.5988 9.36856C20.2605 9.0533 19.8186 8.87935 19.3606 8.88115L5.87088 8.86018Z" fill="#ECEEF1"/>
  <path d="M24.7179 19.4001L23.2975 20.2869C23.1345 20.3985 23.0063 20.5556 22.9283 20.7395C22.8463 20.9476 22.8172 21.1736 22.8439 21.3964L23.5465 27.422L24.9735 26.5343C25.1416 26.4263 25.2729 26.2679 25.3494 26.0808C25.4263 25.874 25.4533 25.6513 25.428 25.4316" fill="#B7BEC5"/>
  <path d="M22.1893 24.6639L20.7623 25.5516C20.5961 25.6623 20.4675 25.8228 20.394 26.011C20.3154 26.2153 20.2859 26.4359 20.3078 26.6543L20.6076 29.2715L22.028 28.3848C22.1962 28.2742 22.3271 28.1135 22.403 27.9244C22.4841 27.7187 22.5112 27.495 22.4816 27.2753" fill="#B7BEC5"/>
</svg>
