<svg width="40" height="40" viewBox="0 0 40 40" fill="none" xmlns="http://www.w3.org/2000/svg">
  <path d="M24.86 29.8999H16.14C15.6629 29.9025 15.1901 29.8109 14.7485 29.6301C14.307 29.4494 13.9056 29.1831 13.5673 28.8467C13.2291 28.5103 12.9606 28.1104 12.7775 27.6699C12.5943 27.2293 12.5 26.757 12.5 26.2799V13.7199C12.5 13.2428 12.5943 12.7705 12.7775 12.33C12.9606 11.8895 13.2291 11.4895 13.5673 11.1531C13.9056 10.8167 14.307 10.5504 14.7485 10.3697C15.1901 10.189 15.6629 10.0973 16.14 10.0999H19.92C20.5201 10.1071 21.1021 10.3069 21.58 10.6699L27.5 15.2699C27.8147 15.5259 28.068 15.8493 28.2411 16.2162C28.4141 16.5831 28.5026 16.9842 28.5 17.3899V26.2799C28.5 26.757 28.4057 27.2293 28.2225 27.6699C28.0394 28.1104 27.7709 28.5103 27.4327 28.8467C27.0944 29.1831 26.693 29.4494 26.2515 29.6301C25.8099 29.8109 25.3371 29.9025 24.86 29.8999ZM16.14 12.0999C15.9256 12.0973 15.7128 12.1372 15.5139 12.2174C15.315 12.2977 15.1341 12.4166 14.9815 12.5673C14.829 12.718 14.7079 12.8974 14.6252 13.0953C14.5425 13.2932 14.5 13.5055 14.5 13.7199V26.2799C14.5 26.4943 14.5425 26.7066 14.6252 26.9045C14.7079 27.1024 14.829 27.2819 14.9815 27.4326C15.1341 27.5832 15.315 27.7022 15.5139 27.7824C15.7128 27.8626 15.9256 27.9026 16.14 27.8999H24.86C25.0744 27.9026 25.2872 27.8626 25.4861 27.7824C25.685 27.7022 25.8659 27.5832 26.0185 27.4326C26.171 27.2819 26.2921 27.1024 26.3748 26.9045C26.4575 26.7066 26.5 26.4943 26.5 26.2799V17.3899C26.4996 17.2852 26.475 17.182 26.4282 17.0883C26.3814 16.9946 26.3135 16.9131 26.23 16.8499L20.36 12.2499C20.2416 12.1527 20.0932 12.0997 19.94 12.0999H16.14Z" fill="#666C72"/>
  <path d="M22.8596 23.6699H18.1396C17.8744 23.6699 17.6201 23.5646 17.4325 23.377C17.245 23.1895 17.1396 22.9351 17.1396 22.6699C17.1396 22.4047 17.245 22.1504 17.4325 21.9628C17.6201 21.7753 17.8744 21.6699 18.1396 21.6699H22.8596C23.1249 21.6699 23.3792 21.7753 23.5668 21.9628C23.7543 22.1504 23.8596 22.4047 23.8596 22.6699C23.8596 22.9351 23.7543 23.1895 23.5668 23.377C23.3792 23.5646 23.1249 23.6699 22.8596 23.6699Z" fill="#666C72"/>
  <path d="M27.1 17.5701H20.5C20.2348 17.5701 19.9804 17.4647 19.7929 17.2772C19.6054 17.0896 19.5 16.8353 19.5 16.5701V11.5701C19.5 11.3049 19.6054 11.0505 19.7929 10.863C19.9804 10.6754 20.2348 10.5701 20.5 10.5701C20.7652 10.5701 21.0196 10.6754 21.2071 10.863C21.3946 11.0505 21.5 11.3049 21.5 11.5701V15.5701H27.1C27.3652 15.5701 27.6196 15.6754 27.8071 15.863C27.9946 16.0505 28.1 16.3049 28.1 16.5701C28.1 16.8353 27.9946 17.0896 27.8071 17.2772C27.6196 17.4647 27.3652 17.5701 27.1 17.5701Z" fill="#666C72"/>
  <path fill-rule="evenodd" clip-rule="evenodd" d="M20 40C31.0457 40 40 31.0457 40 20C40 8.9543 31.0457 0 20 0C8.9543 0 0 8.9543 0 20C0 31.0457 8.9543 40 20 40ZM20 38C29.9411 38 38 29.9411 38 20C38 10.0589 29.9411 2 20 2C10.0589 2 2 10.0589 2 20C2 29.9411 10.0589 38 20 38Z" fill="#1586BB"/>
  <path fill-rule="evenodd" clip-rule="evenodd" d="M20.5 0.00610352V2.00678C30.2099 2.2716 38 10.2261 38 20L40 20C40 9.12143 31.3147 0.271464 20.5 0.00610352Z" fill="#1586BB"/>
  <path fill-rule="evenodd" clip-rule="evenodd" d="M20.5 0.00610352V2.00678C30.2099 2.2716 38 10.2261 38 20L40 20C40 9.12143 31.3147 0.271464 20.5 0.00610352Z" fill="#1586BB"/>
</svg>
