<svg width="120" height="37" viewBox="0 0 120 37" fill="none" xmlns="http://www.w3.org/2000/svg">
<path d="M52.1012 36.1127L52.0887 29.51L48.8951 35.0121H48.3146L45.1209 29.5488V36.1127H43.9091V27.0504H44.9441L48.63 33.4199L52.2653 27.0504H53.3004L53.313 36.1127H52.1012V36.1127ZM61.2986 33.847H56.6031L55.6313 36.1127H54.331L58.3324 27.0503H59.5821L63.5961 36.1127H62.2707L61.2988 33.847H61.2986ZM60.8568 32.8113L58.9509 28.3709L57.0449 32.8113H60.8569H60.8568ZM70.3949 28.1765H65.8509L65.8634 36.1127H64.6138V27.0503H70.4077L70.3949 28.1765ZM75.465 33.847H70.7693L69.7974 36.1127H68.4972L72.4986 27.0503H73.7483L77.7621 36.1127H76.4369L75.4651 33.847H75.465ZM75.0229 32.8113L73.1172 28.3709L71.2111 32.8113H75.0231H75.0229ZM83.0088 31.3873C83.564 31.5424 83.9972 31.8123 84.3087 32.1963C84.6202 32.5806 84.7756 33.0401 84.7756 33.5752C84.7756 34.1103 84.6095 34.5785 84.2772 34.9797C83.9447 35.3813 83.503 35.6877 82.9519 35.899C82.4007 36.1106 81.8011 36.2163 81.1531 36.2163C80.5639 36.2163 79.9792 36.1256 79.3984 35.9442C78.818 35.763 78.2877 35.4911 77.8081 35.1285L78.2499 34.1706C78.6369 34.4812 79.0704 34.7143 79.5501 34.8696C80.0295 35.0251 80.5136 35.1027 81.0015 35.1027C81.7084 35.1027 82.3015 34.9495 82.7813 34.6432C83.2611 34.3368 83.5008 33.9158 83.5008 33.3808C83.5008 32.9234 83.3198 32.5716 82.9579 32.3257C82.5961 32.0797 82.087 31.9567 81.4306 31.9567H79.4615V30.9079H81.3423C81.9061 30.9079 82.3459 30.7893 82.6612 30.552C82.9769 30.3148 83.1345 29.9846 83.1345 29.5617C83.1345 29.087 82.9283 28.7116 82.5161 28.4353C82.1037 28.1591 81.5819 28.021 80.9509 28.021C80.5385 28.021 80.12 28.0814 79.6951 28.2025C79.27 28.3234 78.8682 28.5045 78.4894 28.7462L78.0856 27.6845C78.5317 27.4257 79.0029 27.2314 79.4993 27.1019C79.9959 26.9725 80.4921 26.9078 80.9887 26.9078C81.6114 26.9078 82.1838 27.007 82.7054 27.2056C83.2271 27.4041 83.6417 27.6932 83.9488 28.0728C84.2559 28.4527 84.4095 28.8972 84.4095 29.4063C84.4095 29.8639 84.2853 30.2652 84.0371 30.6103C83.7888 30.9556 83.4459 31.2146 83.0082 31.3871L83.0088 31.3873ZM86.3744 27.0503H87.6241V34.0412L92.85 27.0503H94.0109V36.1127H92.7736V29.1347L87.5358 36.1127H86.3744V27.0503ZM103.852 27.0503V36.1127H102.59V32.0734H97.5154V36.1127H96.2536V27.0503H97.5154V30.9472H102.59V27.0503H103.852Z" fill="#F1511B"/>
<path fill-rule="evenodd" clip-rule="evenodd" d="M54.4471 0.174011L54.435 11.7756C54.435 15.2849 52.8914 17.2152 49.4967 17.2152L43.8436 17.2307V13.2H47.9633C49.3393 13.2 49.9283 12.7386 49.9283 11.1068V3.98667C49.9587 2.89614 50.6126 2.11273 51.7128 1.5746L54.4471 0.174011Z" fill="#F1511B"/>
<path fill-rule="evenodd" clip-rule="evenodd" d="M56.3247 0.167476H60.6645V10.3908C60.6645 12.2357 61.0773 13.883 63.395 13.883C65.3955 13.883 65.9979 12.3605 65.9979 10.3441V0.165771H70.3152V10.6553C70.3152 15.2147 67.6499 17.3316 63.3049 17.3316C58.9962 17.3316 56.2649 15.6263 56.2649 10.6864L56.3247 0.167233V0.167476Z" fill="#F1511B"/>
<path fill-rule="evenodd" clip-rule="evenodd" d="M85.8335 5.56581C85.8335 0.634609 82.9124 0.161133 78.7017 0.160889C74.937 0.160889 72.0695 0.745186 72.0013 5.19183C71.9651 7.54169 73.084 9.31589 75.4847 9.7678L80.6364 10.8512C81.4739 11.0253 81.7375 11.52 81.6719 12.4208C81.6137 13.224 81.1416 13.7572 80.3566 13.7807L79.1145 13.8178C77.5601 13.8642 76.0814 13.9363 76.3195 11.6821L72.1008 11.6354C71.9876 16.9796 75.0643 17.3625 79.2572 17.3625C81.509 17.3625 83.1026 17.1071 84.633 15.6677C85.6209 14.7383 85.903 13.4779 85.8855 12.148C85.831 8.02174 83.2212 7.8437 80.3404 7.09099L77.5286 6.35641C76.6543 6.12808 76.1925 5.95417 76.206 5.01161C76.2295 3.40131 77.6647 3.3129 78.8935 3.33701C80.7716 3.37488 81.6618 3.61735 81.6911 5.55034L85.8337 5.56606L85.8335 5.56581Z" fill="#F1511B"/>
<path fill-rule="evenodd" clip-rule="evenodd" d="M85.5493 17.2367L92.4918 0.178575L96.8618 0.1474L103.852 17.2371L99.2491 17.2498L98.2273 14.7142L91.0654 14.6832L90.1444 17.2438L85.5493 17.2365V17.2367ZM94.6463 5.93691L92.34 11.5707L96.8918 11.5396L94.6463 5.93691Z" fill="#F1511B"/>
<path fill-rule="evenodd" clip-rule="evenodd" d="M105.146 0.162535V17.2547L109.82 17.2508V7.77288L114.887 17.2527L119.501 17.2451V0.166188L114.802 0.167527L114.796 9.48266L109.814 0.162048L105.146 0.162535Z" fill="#F1511B"/>
<path fill-rule="evenodd" clip-rule="evenodd" d="M0 31.2653V4.88323V4.36115C0.260147 1.78126 2.73173 0 5.85385 0H29.7899C33.4325 0 35.5139 2.14989 35.5139 6.01966V30.7125C35.5139 33.968 33.3024 36.3636 30.4404 36.3636H4.94328C2.34156 36.3636 0.260147 34.3672 0 31.7875V31.2653ZM14.4165 28.8405C15.4921 28.2896 16.1706 27.163 16.1706 25.9317V18.996L11.5806 21.3488C10.5042 21.8995 9.82636 23.0276 9.82636 24.2593V31.1952L14.4165 28.8405ZM23.9333 23.9619C25.0075 23.4088 25.6873 22.2829 25.6873 21.0507V5.16829L21.0955 7.52156C20.0211 8.07383 19.343 9.20055 19.343 10.4318V26.3147L23.9333 23.9619Z" fill="#F1511B"/>
</svg>
