<svg width="140" height="140" viewBox="0 0 140 140" fill="none" xmlns="http://www.w3.org/2000/svg">
<path d="M70 140C108.66 140 140 108.66 140 70C140 31.3401 108.66 0 70 0C31.3401 0 0 31.3401 0 70C0 108.66 31.3401 140 70 140Z" fill="#F6F7F8"/>
<g opacity="0.75">
<path opacity="0.75" d="M99.958 73.3418L127.279 29.3557C123.553 23.9903 119.09 19.178 114.023 15.0605L76.0771 73.3418H99.958Z" fill="white"/>
</g>
<g opacity="0.75">
<path opacity="0.75" d="M0.249423 73.3419H25.7148L69.4111 0.0253906C57.118 0.17535 45.0823 3.57485 34.5209 9.8802L0.609245 62.6458C0.339016 65.2239 0.208362 67.8147 0.217859 70.4069C0.217859 71.4063 0.21786 72.3741 0.249423 73.3419Z" fill="white"/>
</g>
<path d="M140 72.8008H0V74.2008H140V72.8008Z" fill="#B7BEC5"/>
<path d="M72.8 74.2V0L71.4 0V74.2H72.8Z" fill="#B7BEC5"/>
<path d="M114.321 67.1992H125.058C125.378 67.1995 125.695 67.2639 125.988 67.3885C126.282 67.5131 126.547 67.6953 126.766 67.9239C126.985 68.1524 127.154 68.4224 127.262 68.7172C127.37 69.0121 127.416 69.3255 127.395 69.6381L126.657 80.4644C126.615 81.0431 126.35 81.5847 125.917 81.9806C125.483 82.3766 124.913 82.5975 124.319 82.5992H115.06C114.467 82.5989 113.896 82.3782 113.463 81.9819C113.031 81.5855 112.768 81.0431 112.728 80.4644L112.003 69.6128C111.987 69.3038 112.034 68.9947 112.143 68.7041C112.252 68.4136 112.419 68.1475 112.636 67.922C112.852 67.6965 113.113 67.5162 113.403 67.392C113.693 67.2678 114.005 67.2022 114.321 67.1992Z" fill="#B7BEC5"/>
<path d="M115.375 67.1869C115.375 67.1869 109.55 62.2147 113.205 46.1992C119.172 50.9382 117.332 67.1992 117.332 67.1992L115.375 67.1869Z" fill="#ECEEF1"/>
<path d="M124.869 67.1992C124.869 67.1992 129.245 63.8872 126.489 53.1992C122.029 56.3441 123.398 67.1992 123.398 67.1992H124.869Z" fill="#ECEEF1"/>
<path d="M120.591 67.1996C120.591 67.1996 123.311 52.891 120.591 40.5996C115.015 45.0957 118.944 67.1996 118.944 67.1996H120.591Z" fill="#ECEEF1"/>
<path d="M113.752 46.1992L117.6 67.1992H116.502C116.502 67.1992 108.582 60.7476 113.752 46.1992Z" fill="#B7BEC5"/>
<path d="M126 46.1992L122.714 67.1992L121.792 67.1454C121.792 67.1454 116.697 58.8913 126 46.1992Z" fill="#B7BEC5"/>
<path d="M118.617 42L120.4 67.2H119.398C119.398 67.2 112.755 58.6791 118.617 42Z" fill="#B7BEC5"/>
<path d="M92.2728 35H23.9145C22.3989 35 20.9454 35.5975 19.8738 36.6611C18.8021 37.7247 18.2 39.1672 18.2 40.6714V117.291C21.1691 120.529 24.4386 123.483 27.9655 126.113H34.4673C34.8148 126.115 35.1475 126.253 35.3926 126.498C35.6377 126.742 35.7753 127.073 35.7753 127.418V131.155C45.2102 136.382 55.7327 139.379 66.5247 139.913C77.3168 140.448 88.0876 138.505 98 134.236V40.6714C98 39.9255 97.8518 39.187 97.5638 38.4981C97.2758 37.8092 96.8538 37.1834 96.3218 36.6567C95.7898 36.1299 95.1583 35.7124 94.4635 35.4281C93.7688 35.1438 93.0243 34.9984 92.2728 35Z" fill="white"/>
<path d="M36.4 127.449C36.4 127.066 36.2519 126.698 35.988 126.427C35.7242 126.155 35.3661 126.002 34.992 126H28C30.6754 128.056 33.4816 129.927 36.4 131.6V127.449Z" fill="#ECEEF1"/>
<path d="M34.6612 64.6445H26.7515C26.0298 64.6445 25.4447 65.2307 25.4447 65.9539V73.8795C25.4447 74.6026 26.0298 75.1888 26.7515 75.1888H34.6612C35.3829 75.1888 35.968 74.6026 35.968 73.8795V65.9539C35.968 65.2307 35.3829 64.6445 34.6612 64.6445Z" fill="#ECEEF1"/>
<path d="M34.6612 108.188H26.7515C26.0298 108.188 25.4447 108.774 25.4447 109.497V117.422C25.4447 118.146 26.0298 118.732 26.7515 118.732H34.6612C35.3829 118.732 35.968 118.146 35.968 117.422V109.497C35.968 108.774 35.3829 108.188 34.6612 108.188Z" fill="#ECEEF1"/>
<path d="M89.9859 68.1166H48.7768C48.6094 68.1166 48.4488 68.05 48.3304 67.9314C48.212 67.8127 48.1455 67.6519 48.1455 67.4841C48.1455 67.3163 48.212 67.1555 48.3304 67.0368C48.4488 66.9182 48.6094 66.8516 48.7768 66.8516H89.9859C90.1533 66.8516 90.3139 66.9182 90.4323 67.0368C90.5507 67.1555 90.6172 67.3163 90.6172 67.4841C90.6172 67.6519 90.5507 67.8127 90.4323 67.9314C90.3139 68.05 90.1533 68.1166 89.9859 68.1166Z" fill="#E6E6E6"/>
<path d="M89.9862 72.9818H48.7771C48.6097 72.9818 48.4491 72.9152 48.3307 72.7966C48.2124 72.678 48.1458 72.5171 48.1458 72.3493C48.1458 72.1816 48.2124 72.0207 48.3307 71.9021C48.4491 71.7834 48.6097 71.7168 48.7771 71.7168H89.9862C90.1537 71.7168 90.3142 71.7834 90.4326 71.9021C90.551 72.0207 90.6175 72.1816 90.6175 72.3493C90.6175 72.5171 90.551 72.678 90.4326 72.7966C90.3142 72.9152 90.1537 72.9818 89.9862 72.9818Z" fill="#E6E6E6"/>
<path d="M48.7771 111.66C48.6097 111.66 48.4491 111.593 48.3307 111.474C48.2124 111.356 48.1458 111.195 48.1458 111.027C48.1458 110.859 48.2124 110.698 48.3307 110.58C48.4491 110.461 48.6097 110.395 48.7771 110.395H89.9862C90.1537 110.395 90.3142 110.461 90.4326 110.58C90.551 110.698 90.6175 110.859 90.6175 111.027C90.6175 111.195 90.551 111.356 90.4326 111.474C90.3142 111.593 90.1537 111.66 89.9862 111.66H48.7771Z" fill="#E6E6E6"/>
<path d="M89.9862 116.525H48.7771C48.6097 116.525 48.4491 116.458 48.3307 116.34C48.2124 116.221 48.1458 116.06 48.1458 115.892C48.1458 115.725 48.2124 115.564 48.3307 115.445C48.4491 115.326 48.6097 115.26 48.7771 115.26H89.9862C90.1537 115.26 90.3142 115.326 90.4326 115.445C90.551 115.564 90.6175 115.725 90.6175 115.892C90.6175 116.06 90.551 116.221 90.4326 116.34C90.3142 116.458 90.1537 116.525 89.9862 116.525Z" fill="#E6E6E6"/>
<path d="M89.9862 129.124H48.7771C48.6097 129.124 48.4491 129.058 48.3307 128.939C48.2124 128.821 48.1458 128.66 48.1458 128.492C48.1458 128.324 48.2124 128.163 48.3307 128.045C48.4491 127.926 48.6097 127.859 48.7771 127.859H89.9862C90.1537 127.859 90.3142 127.926 90.4326 128.045C90.551 128.163 90.6175 128.324 90.6175 128.492C90.6175 128.66 90.551 128.821 90.4326 128.939C90.3142 129.058 90.1537 129.124 89.9862 129.124Z" fill="#E6E6E6"/>
<path d="M89.9862 133.99H48.7771C48.6097 133.99 48.4491 133.923 48.3307 133.804C48.2124 133.686 48.1458 133.525 48.1458 133.357C48.1458 133.189 48.2124 133.028 48.3307 132.91C48.4491 132.791 48.6097 132.725 48.7771 132.725H89.9862C90.1537 132.725 90.3142 132.791 90.4326 132.91C90.551 133.028 90.6175 133.189 90.6175 133.357C90.6175 133.525 90.551 133.686 90.4326 133.804C90.3142 133.923 90.1537 133.99 89.9862 133.99Z" fill="#E6E6E6"/>
<path d="M105.451 78.4004H34.5493C31.7054 78.4004 29.4 80.6884 29.4 83.5107V94.2901C29.4 97.1124 31.7054 99.4004 34.5493 99.4004H105.451C108.295 99.4004 110.6 97.1124 110.6 94.2901V83.5107C110.6 80.6884 108.295 78.4004 105.451 78.4004Z" fill="#F15525"/>
<path d="M45.9849 82.5996H39.415C37.7499 82.5996 36.4 83.9495 36.4 85.6147V92.1846C36.4 93.8497 37.7499 95.1996 39.415 95.1996H45.9849C47.6501 95.1996 49 93.8497 49 92.1846V85.6147C49 83.9495 47.6501 82.5996 45.9849 82.5996Z" fill="#ECEEF1"/>
<path d="M103.394 88.2004H59.0057C58.5799 88.2004 58.1714 88.0529 57.8703 87.7903C57.5692 87.5278 57.4 87.1717 57.4 86.8004C57.4 86.4291 57.5692 86.073 57.8703 85.8104C58.1714 85.5479 58.5799 85.4004 59.0057 85.4004H103.394C103.82 85.4004 104.229 85.5479 104.53 85.8104C104.831 86.073 105 86.4291 105 86.8004C105 87.1717 104.831 87.5278 104.53 87.7903C104.229 88.0529 103.82 88.2004 103.394 88.2004Z" fill="#ECEEF1"/>
<path d="M93.612 93.8H58.988C58.5668 93.8 58.1629 93.6525 57.8651 93.3899C57.5673 93.1274 57.4 92.7713 57.4 92.4C57.4 92.0287 57.5673 91.6726 57.8651 91.41C58.1629 91.1475 58.5668 91 58.988 91H93.612C94.0332 91 94.4371 91.1475 94.7349 91.41C95.0327 91.6726 95.2 92.0287 95.2 92.4C95.2 92.7713 95.0327 93.1274 94.7349 93.3899C94.4371 93.6525 94.0332 93.8 93.612 93.8Z" fill="#ECEEF1"/>
<path d="M90.0772 43.4004L87.5021 44.6622C87.2039 44.8056 86.9535 45.0322 86.781 45.3146C86.6072 45.5893 86.5149 45.9078 86.515 46.233V54.7738L89.0901 53.512C89.3869 53.3665 89.6368 53.1405 89.8111 52.8596C89.982 52.5839 90.0712 52.2655 90.0686 51.9412" fill="#EF5630"/>
<path d="M84.7623 50.834L82.1872 52.1044C81.8908 52.2435 81.6404 52.4645 81.4655 52.7413C81.2906 53.0181 81.1985 53.3392 81.2 53.6666V57.4005L83.7751 56.1387C84.0733 55.9953 84.3237 55.7687 84.4962 55.4863C84.6701 55.2116 84.7623 54.8931 84.7623 54.5679" fill="#EF5630"/>
</svg>
