<svg width="48" height="48" viewBox="0 0 48 48" fill="none" xmlns="http://www.w3.org/2000/svg">
<path d="M24 48C37.2548 48 48 37.2548 48 24C48 10.7452 37.2548 0 24 0C10.7452 0 0 10.7452 0 24C0 37.2548 10.7452 48 24 48Z" fill="#239A54"/>
<path d="M22.32 34.5001C21.8099 34.4981 21.3198 34.3014 20.95 33.9501L13.1 26.5001C12.897 26.3233 12.7317 26.1074 12.6141 25.8652C12.4965 25.623 12.4291 25.3596 12.4157 25.0907C12.4024 24.8219 12.4435 24.5531 12.5365 24.3004C12.6295 24.0478 12.7726 23.8166 12.9572 23.6206C13.1417 23.4246 13.3639 23.2679 13.6105 23.1598C13.8571 23.0518 14.1229 22.9946 14.3921 22.9917C14.6613 22.9889 14.9283 23.0404 15.1771 23.1432C15.4259 23.246 15.6514 23.398 15.84 23.5901L22.09 29.5001L33.65 14.5701C33.9762 14.151 34.4556 13.8787 34.9825 13.8131C35.5095 13.7475 36.041 13.8938 36.46 14.2201C36.8791 14.5463 37.1513 15.0256 37.217 15.5526C37.2826 16.0796 37.1362 16.611 36.81 17.0301L23.9 33.6801C23.7369 33.907 23.528 34.0972 23.2869 34.2384C23.0458 34.3796 22.7777 34.4688 22.5 34.5001H22.32Z" fill="white"/>
</svg>
