<svg width="24" height="24" viewBox="0 0 24 24" fill="none" xmlns="http://www.w3.org/2000/svg">
  <path d="M17.25 23.44C17.0513 23.4412 16.8569 23.3832 16.6913 23.2734C16.5258 23.1636 16.3968 23.0069 16.3206 22.8235C16.2444 22.6401 16.2246 22.4381 16.2637 22.2433C16.3027 22.0486 16.3989 21.8699 16.54 21.73L19.17 19.1L16.6 16.53C16.4137 16.3427 16.3092 16.0892 16.3092 15.825C16.3092 15.5608 16.4137 15.3074 16.6 15.12C16.6929 15.0263 16.8035 14.9519 16.9254 14.9011C17.0472 14.8504 17.1779 14.8242 17.31 14.8242C17.442 14.8242 17.5727 14.8504 17.6945 14.9011C17.8164 14.9519 17.927 15.0263 18.02 15.12L21.29 18.39C21.3837 18.483 21.4581 18.5936 21.5088 18.7154C21.5596 18.8373 21.5858 18.968 21.5858 19.1C21.5858 19.232 21.5596 19.3627 21.5088 19.4846C21.4581 19.6065 21.3837 19.7171 21.29 19.81L18 23.15C17.9018 23.2476 17.7845 23.3238 17.6554 23.3737C17.5263 23.4236 17.3882 23.4462 17.25 23.44Z" fill="#EF5630"/>
  <path d="M19.4202 20.1301H7.10016C5.85802 20.1301 4.66661 19.6374 3.78736 18.76C2.9081 17.8826 2.4128 16.6922 2.41016 15.4501V6.30012C2.4128 5.05799 2.9081 3.86763 3.78736 2.99025C4.66661 2.11287 5.85802 1.62011 7.10016 1.62012H15.7802C17.0206 1.62276 18.2094 2.11668 19.0865 2.99378C19.9636 3.87087 20.4575 5.05972 20.4602 6.30012C20.4602 6.56533 20.3548 6.81969 20.1673 7.00722C19.9797 7.19476 19.7254 7.30012 19.4602 7.30012C19.1949 7.30012 18.9406 7.19476 18.753 7.00722C18.5655 6.81969 18.4602 6.56533 18.4602 6.30012C18.4575 5.59015 18.1743 4.91001 17.6723 4.40798C17.1703 3.90595 16.4901 3.62275 15.7802 3.62012H7.10016C6.38926 3.62273 5.70807 3.90561 5.20445 4.40736C4.70083 4.90911 4.41542 5.58923 4.41016 6.30012V15.4501C4.4128 16.1618 4.69738 16.8435 5.20157 17.3458C5.70575 17.8481 6.38845 18.1301 7.10016 18.1301H19.4202C19.6854 18.1301 19.9397 18.2355 20.1273 18.423C20.3148 18.6105 20.4202 18.8649 20.4202 19.1301C20.4202 19.3953 20.3148 19.6497 20.1273 19.8372C19.9397 20.0248 19.6854 20.1301 19.4202 20.1301Z" fill="#EF5630"/>
  <path d="M15.41 8H8C7.73478 8 7.48043 7.89464 7.29289 7.70711C7.10536 7.51957 7 7.26522 7 7C7 6.73478 7.10536 6.48043 7.29289 6.29289C7.48043 6.10536 7.73478 6 8 6H15.41C15.6752 6 15.9296 6.10536 16.1171 6.29289C16.3046 6.48043 16.41 6.73478 16.41 7C16.41 7.26522 16.3046 7.51957 16.1171 7.70711C15.9296 7.89464 15.6752 8 15.41 8Z" fill="#EF5630"/>
  <path d="M15.41 11.2998H8C7.73478 11.2998 7.48043 11.1944 7.29289 11.0069C7.10536 10.8194 7 10.565 7 10.2998C7 10.0346 7.10536 9.78023 7.29289 9.5927C7.48043 9.40516 7.73478 9.2998 8 9.2998H15.41C15.6752 9.2998 15.9296 9.40516 16.1171 9.5927C16.3046 9.78023 16.41 10.0346 16.41 10.2998C16.41 10.565 16.3046 10.8194 16.1171 11.0069C15.9296 11.1944 15.6752 11.2998 15.41 11.2998Z" fill="#EF5630"/>
  <path d="M11.71 16.4105C11.4447 16.4105 11.1904 16.3052 11.0029 16.1177C10.8153 15.9301 10.71 15.6758 10.71 15.4105V10.3105C10.71 10.0453 10.8153 9.79098 11.0029 9.60344C11.1904 9.4159 11.4447 9.31055 11.71 9.31055C11.9752 9.31055 12.2295 9.4159 12.4171 9.60344C12.6046 9.79098 12.71 10.0453 12.71 10.3105V15.4205C12.7073 15.684 12.6008 15.9358 12.4136 16.1212C12.2263 16.3066 11.9735 16.4106 11.71 16.4105Z" fill="#EF5630"/>
</svg>
