<svg width="9" height="112" viewBox="0 0 9 112" fill="none" xmlns="http://www.w3.org/2000/svg">
  <path d="M0.5 35V35.5H1.5V35H0.5ZM1.5 0V-0.5H0.5V0H1.5ZM1.5 35V0H0.5V35H1.5Z" fill="#E7E7F1"/>
  <path d="M1.5 36V35.5H0.5V36H1.5ZM0.5 76V76.5H1.5V76H0.5ZM7.13414 57.5642L7.53095 57.8684L7.13414 57.5642ZM2.42877 64.5234L7.53095 57.8684L6.73734 57.2599L1.63517 63.915L2.42877 64.5234ZM7.53095 52.3925L2.42877 45.7375L1.63517 46.3459L6.73734 53.0009L7.53095 52.3925ZM1.5 42.9995V36H0.5V42.9995H1.5ZM0.5 67.2613V76H1.5V67.2613H0.5ZM2.42877 45.7375C1.82645 44.9518 1.5 43.9895 1.5 42.9995H0.5C0.5 44.2095 0.898991 45.3857 1.63517 46.3459L2.42877 45.7375ZM7.53095 57.8684C8.76931 56.2531 8.76931 54.0077 7.53095 52.3925L6.73734 53.0009C7.70051 54.2572 7.70051 56.0036 6.73734 57.2599L7.53095 57.8684ZM1.63517 63.915C0.89899 64.8752 0.5 66.0514 0.5 67.2613H1.5C1.5 66.2714 1.82645 65.309 2.42877 64.5234L1.63517 63.915Z" fill="#E7E7F1"/>
  <path d="M0.5 112V112.5H1.5V112H0.5ZM1.5 77V76.5H0.5V77H1.5ZM1.5 112V77H0.5V112H1.5Z" fill="#E7E7F1"/>
</svg>
