<svg width="25" height="25" viewBox="0 0 25 25" fill="none" xmlns="http://www.w3.org/2000/svg">
  <path d="M20.2002 7.89722C19.9349 7.89722 19.6806 7.79186 19.493 7.60433C19.3055 7.41679 19.2002 7.16244 19.2002 6.89722V5.56722C19.1563 4.83492 18.8247 4.14963 18.2778 3.66074C17.7308 3.17184 17.0128 2.91896 16.2802 2.95722H9.07016C8.33922 2.92168 7.62375 3.17578 7.07897 3.6644C6.53419 4.15302 6.20404 4.83674 6.16016 5.56722V6.89722C6.16016 7.16244 6.0548 7.41679 5.86726 7.60433C5.67973 7.79186 5.42537 7.89722 5.16016 7.89722C4.89494 7.89722 4.64059 7.79186 4.45305 7.60433C4.26551 7.41679 4.16016 7.16244 4.16016 6.89722V5.56722C4.20194 4.30547 4.7422 3.11174 5.66255 2.24762C6.58291 1.3835 7.80828 0.919474 9.07016 0.957219H16.2802C17.543 0.919435 18.7695 1.38316 19.6914 2.24701C20.6133 3.11086 21.1558 4.30458 21.2002 5.56722V6.89722C21.2002 7.16244 21.0948 7.41679 20.9073 7.60433C20.7197 7.79186 20.4654 7.89722 20.2002 7.89722Z" fill="#EF5630"/>
  <path d="M16.2796 24.5774H9.06963C7.95459 24.6032 6.86488 24.243 5.98478 23.5579C5.10468 22.8728 4.48821 21.9047 4.23963 20.8174C4.18972 20.5575 4.24484 20.2885 4.39292 20.0692C4.54099 19.8499 4.76995 19.6982 5.02963 19.6474C5.28806 19.5972 5.55584 19.651 5.77488 19.797C5.99392 19.9431 6.14654 20.1696 6.19963 20.4274C6.3578 21.0612 6.7296 21.621 7.25238 22.0127C7.77516 22.4043 8.41696 22.6037 9.06963 22.5774H16.2796C16.9372 22.6061 17.5842 22.4039 18.1083 22.0057C18.6325 21.6076 19.0009 21.0386 19.1496 20.3974C19.1987 20.1322 19.3511 19.8973 19.5733 19.7445C19.7956 19.5916 20.0694 19.5333 20.3346 19.5824C20.5998 19.6315 20.8347 19.7839 20.9876 20.0061C21.1404 20.2283 21.1987 20.5022 21.1496 20.7674C20.9116 21.8718 20.294 22.8577 19.4042 23.5538C18.5144 24.2499 17.4088 24.6121 16.2796 24.5774Z" fill="#EF5630"/>
  <path d="M3.51114 16.8209C3.51114 17.2941 3.88434 17.6547 4.37452 17.6547C4.72545 17.6547 4.90926 17.5138 5.29918 16.9561L6.62489 15.018H6.70844L8.10657 16.9561C8.54104 17.5363 8.69701 17.6547 9.03679 17.6547C9.53254 17.6547 9.91132 17.2941 9.91132 16.8209C9.91132 16.6124 9.82776 16.404 9.64952 16.173L7.79463 13.7786L9.6161 11.3223C9.79991 11.08 9.88347 10.8772 9.88347 10.68C9.88347 10.2068 9.51026 9.84057 9.01451 9.84057C8.65245 9.84057 8.44635 9.99832 8.09543 10.5392L6.78086 12.5617H6.6973L5.30475 10.5392C4.90369 9.97578 4.72545 9.84057 4.37452 9.84057C3.87877 9.84057 3.5 10.2011 3.5 10.68C3.5 10.8885 3.58355 11.0969 3.7618 11.3223L5.55541 13.7279L3.77294 16.1786C3.59469 16.4209 3.51114 16.6237 3.51114 16.8209Z" fill="#EF5630"/>
  <path d="M15.9216 16.8209C15.9216 16.3645 15.5985 16.0434 15.1362 16.0434H12.7688V10.8547C12.7688 10.218 12.4346 9.85184 11.8442 9.85184C11.2537 9.85184 10.9251 10.2124 10.9251 10.8547V16.5335C10.9251 17.2265 11.2983 17.5983 11.9946 17.5983H15.1362C15.5985 17.5983 15.9216 17.2772 15.9216 16.8209Z" fill="#EF5630"/>
  <path d="M16.3783 16.0152C16.3783 16.3307 16.5566 16.6575 16.8797 16.9673C17.3977 17.4631 18.3279 17.7673 19.3751 17.7673C21.2801 17.7673 22.5 16.7927 22.5 15.2772C22.5 14.111 21.8149 13.4068 20.4 13.1194L19.3417 12.8885C18.6343 12.7476 18.3112 12.449 18.3112 12.0265C18.3112 11.542 18.7345 11.2321 19.4085 11.2321C19.9823 11.2321 20.4335 11.4575 20.8234 11.8913C21.0573 12.1166 21.2968 12.2237 21.5364 12.2237C21.9653 12.2237 22.2549 11.942 22.2549 11.5307C22.2549 11.1871 22.0822 10.849 21.7536 10.5448C21.2411 10.0547 20.361 9.76733 19.3863 9.76733C17.6038 9.76733 16.4675 10.7025 16.4675 12.1786C16.4675 13.3561 17.1415 14.0716 18.5117 14.3645L19.5589 14.6068C20.361 14.7814 20.6953 15.0462 20.6953 15.4744C20.6953 16.004 20.2663 16.2969 19.4698 16.2969C18.9072 16.2969 18.3558 16.0603 17.899 15.6265C17.5926 15.3504 17.3643 15.249 17.0969 15.249C16.7014 15.249 16.3783 15.5645 16.3783 16.0152Z" fill="#EF5630"/>
</svg>
