<svg width="40" height="40" viewBox="0 0 40 40" fill="none" xmlns="http://www.w3.org/2000/svg">
<rect width="40" height="40" rx="16" fill="white"/>
<path d="M20.0019 7.20002C21.698 7.20002 22.231 8.44956 22.6781 9.69715C22.8659 10.2269 27.2735 22.6245 27.406 22.9966C27.4413 23.1004 27.4175 23.2708 27.2621 23.3325C27.1057 23.3932 24.8156 24.3078 24.6888 24.3568C24.562 24.4067 24.42 24.3343 24.3742 24.204C24.3265 24.0757 23.376 21.373 23.2692 21.0713H16.7365C16.6335 21.373 15.6716 24.0816 15.6286 24.204C15.5848 24.3284 15.4485 24.4126 15.3131 24.3568C15.1777 24.3019 12.879 23.3873 12.7417 23.3325C12.6102 23.2796 12.5501 23.1258 12.5959 22.9966C12.758 22.5324 17.0988 10.3337 17.32 9.69715C17.7509 8.46817 18.302 7.20002 20.0019 7.20002ZM12.2469 29.3834C12.1096 29.3834 12 29.5009 12 29.6438V32.5415C12 32.6845 12.1096 32.8 12.2469 32.8H27.7502C27.8904 32.8 28 32.6845 28 32.5415V29.6438C28 29.5009 27.8904 29.3834 27.7502 29.3834H12.2469ZM19.9867 11.2483L17.7786 18.0591H22.231L20.0153 11.2483H19.9867Z" fill="#EE2A23"/>
</svg>
