<svg width="40" height="40" viewBox="0 0 40 40" fill="none" xmlns="http://www.w3.org/2000/svg">
<path fill-rule="evenodd" clip-rule="evenodd" d="M31.5757 19.3337L31.2505 21.1669H27.2864L26.5852 24.9176H24.1016L25.8333 15.6082H32.2536L31.9284 17.4773H27.9643L27.6137 19.3337H31.5757Z" fill="#00427A"/>
<path fill-rule="evenodd" clip-rule="evenodd" d="M11.7095 21.868H13.7286L13.1267 19.7603L11.7095 21.868ZM10.681 23.6758L9.84049 24.9176H7.6842L13.8553 15.6082H14.0686L16.6768 24.9176H14.3811L14.0686 23.6758H10.681Z" fill="#00427A"/>
<path fill-rule="evenodd" clip-rule="evenodd" d="M24.2349 15.6082H18.2412L17.8906 17.4646H19.7724L18.2919 24.9176H20.4355L22.0026 17.4646C22.6171 17.4646 23.2697 17.4646 23.8843 17.4646L24.2349 15.6082Z" fill="#00427A"/>
<path fill-rule="evenodd" clip-rule="evenodd" d="M33.4046 15.7973L33.5799 15.9219L33.7319 16.0739L33.8945 16.2365L34.0318 16.4118L34.1691 16.5998L34.3085 16.8131L34.4204 17.0137L34.5345 17.2524L34.6337 17.4784L34.7351 17.7297L34.809 17.9937L34.8724 18.2555L34.923 18.5195L34.9716 18.7962L34.997 19.0855L35.0223 19.3728V19.6621L35.0096 19.962L34.9843 20.2513L34.9357 20.5533L34.8724 20.8532L34.7963 21.1552L34.7097 21.4424L34.5957 21.7445L34.4584 22.0338L34.3211 22.321L34.1459 22.6103L33.9558 22.887L33.7551 23.1616L33.5186 23.4256L33.2673 23.6895L32.9906 23.9409L32.3148 24.4921L31.5608 25.0327L30.7583 25.5333L29.8819 26.0106L28.9653 26.4625L28.0128 26.8764L27.0096 27.265L25.9811 27.6156L24.9146 27.943L23.8354 28.2323L22.7456 28.4815L21.6284 28.7075L20.526 28.8828L19.4088 29.0348L18.3064 29.1341L17.2018 29.1975L16.1247 29.2228L15.0709 29.2101L14.0424 29.1468L13.0519 29.0348L12.0973 28.8955L11.1955 28.6948L10.3423 28.4562L9.53973 28.169L8.80056 27.8289L8.1353 27.4403L7.5334 27.0011L7.0202 26.5132L6.58092 25.9725L6.2409 25.3706L6.00436 24.7181L5.8523 24.0148L5.79105 23.2629L5.81428 22.5343L5.90299 21.8458L6.05293 21.1679L6.27891 20.5407L6.55557 19.9261L6.89348 19.3221L7.28208 18.7582L7.70869 18.2323L8.18598 17.7043L8.68651 17.2144L9.23984 16.7518L9.8164 16.2999L10.4183 15.8733L11.0329 15.472L11.6728 15.094L12.3233 14.7307L12.9885 14.3801L13.6538 14.0528L14.3296 13.7529L14.9822 13.4636L15.6474 13.1996L16.2874 12.9483L16.9146 12.7117L17.5165 12.4857L18.0931 12.2851L18.6443 12.095L19.1723 11.9197L19.6474 11.7571L20.0867 11.6072L20.488 11.4805L20.8259 11.3559L20.2747 12.3464L24.6633 10L19.4468 10.3274L20.6126 10.8279L20.186 10.9546L19.7235 11.0919L19.2462 11.2418L18.7456 11.4065L18.2177 11.5692L17.6664 11.7571L17.1026 11.9451L16.526 12.1584L15.9347 12.3717L15.3328 12.5977L14.7182 12.8363L14.1057 13.1003L13.4785 13.3622L12.8512 13.6389L12.224 13.9282L11.6094 14.2408L10.9822 14.5554L10.3803 14.8807L9.77838 15.2334L9.17648 15.584L8.59992 15.9599L8.03604 16.3485L7.49538 16.7518L6.96951 17.1658L6.46687 17.5924L5.99169 18.0422L5.52706 18.4942L5.10045 18.9715L4.71186 19.4615L4.36127 19.962L4.03392 20.4773L3.7467 21.0158L3.63266 21.2545L3.52073 21.4805L3.41935 21.7064L3.32009 21.9324L3.23139 22.1584L3.15747 22.3844L3.09411 22.5977L3.03076 22.811L2.98007 23.0243L2.9315 23.2376L2.90615 23.4509L2.86814 23.6515L2.85547 23.8648V24.0655V24.2661L2.86814 24.4667L2.88081 24.6547L2.91882 24.8553L2.95684 25.0454L3.00541 25.2334L3.06877 25.434L3.13213 25.622L3.21872 25.8099L3.30742 25.9979L3.40668 26.1859L3.52073 26.3611L3.64533 26.5491L3.78472 26.7265L3.92199 26.9145L4.07194 27.1024L4.24723 27.2777L4.42252 27.453L4.92516 27.8923L5.52706 28.2936L6.17965 28.6463L6.90615 28.9461L7.70869 29.2228L8.56191 29.4361L9.4637 29.6367L10.4183 29.774L11.4215 29.8881L12.4626 29.962L13.5271 30H14.6443L15.772 29.962L16.9146 29.9007L18.0804 29.7994L19.2588 29.6621L20.4373 29.5121L21.6284 29.3221L22.809 29.0961L23.9748 28.8596L25.1406 28.5829L26.281 28.2809L27.3982 27.9683L28.488 27.6156L29.5418 27.2397L30.5704 26.8511L31.5482 26.4372L32.4774 26.0106L33.3666 25.5459L34.1944 25.0813L34.9611 24.5935L35.6622 24.0908L35.8629 23.9029L36.0508 23.7022L36.2388 23.5143L36.4267 23.301L36.602 23.0876L36.7541 22.8743L36.904 22.6737L37.054 22.4477L37.1807 22.2218L37.3053 21.9958L37.4172 21.7698L37.5186 21.5438L37.6052 21.3178L37.6812 21.0792L37.7573 20.8532L37.8058 20.6272L37.8565 20.3886L37.8819 20.1626L37.8945 19.9261L37.9072 19.7001L37.8945 19.4741L37.8819 19.2608L37.8438 19.0348L37.7953 18.8215L37.7192 18.6082L37.6432 18.3949L37.5566 18.1943L37.4426 17.9937L37.318 17.793L37.1807 17.6051L37.016 17.4277L36.8533 17.2397L36.7541 17.1658L36.6654 17.0898L36.5788 17.0137L36.4901 16.9398L36.3887 16.8765L36.2895 16.8131L36.1881 16.7518L36.1015 16.7012L35.9875 16.6378L35.9009 16.5998L35.7868 16.5491L35.6876 16.5132L35.4743 16.4245L35.261 16.3485L35.0476 16.2872L34.8217 16.2239L34.5957 16.1605L34.3592 16.0993L34.1332 16.0232L33.8945 15.9599L33.6559 15.886L33.4046 15.7973Z" fill="#F37920"/>
</svg>
