<svg width="40" height="40" viewBox="0 0 40 40" fill="none" xmlns="http://www.w3.org/2000/svg">
<path d="M11.0013 23.5001C11.5833 24.6172 13.2304 23.5001 13.2304 23.5001V21.7457C11.5192 21.5936 10.4425 22.3773 11.0013 23.5001Z" fill="#E33C35"/>
<path d="M32.7447 0H7.25538C5.33114 0 3.48572 0.763963 2.12508 2.12383C0.764437 3.48369 3.62558e-05 5.32806 3.62558e-05 7.2512V32.7259C-0.00298182 33.6801 0.182456 34.6254 0.54572 35.5078C0.908984 36.3902 1.44293 37.1923 2.11695 37.8681C2.79097 38.5438 3.59182 39.08 4.47357 39.4459C5.35533 39.8117 6.30066 40 7.25538 40H32.7447C34.6689 40 36.5143 39.236 37.875 37.8762C39.2356 36.5163 40 34.6719 40 32.7488V7.2512C40 5.32806 39.2356 3.48369 37.875 2.12383C36.5143 0.763963 34.6689 0 32.7447 0ZM30.3593 6.38013C30.9935 6.37862 31.6139 6.5653 32.1419 6.9165C32.6699 7.26771 33.0816 7.76764 33.325 8.35296C33.5684 8.93827 33.6325 9.58262 33.5092 10.2044C33.3858 10.8261 33.0805 11.3973 32.6321 11.8455C32.1836 12.2937 31.6121 12.5987 30.99 12.722C30.3679 12.8453 29.7232 12.7813 29.1376 12.538C28.5519 12.2948 28.0517 11.8832 27.7003 11.3556C27.3489 10.8279 27.1621 10.2079 27.1636 9.57402C27.1636 8.72695 27.5003 7.91457 28.0996 7.3156C28.6989 6.71663 29.5118 6.38013 30.3593 6.38013ZM20.8104 28.4852C20.8104 28.4852 17.393 30.0134 14.8548 29.2493C14.5419 29.1376 14.2669 28.94 14.0613 28.6791C13.8558 28.4183 13.728 28.1048 13.6927 27.7746C13.6927 27.7746 10.8181 29.5855 8.96027 29.4556C7.10248 29.3257 4.51838 28.8902 4.17434 25.6352C3.83031 22.3801 5.05355 20.2865 13.2569 20.1261C13.2569 20.1261 13.5933 18.3687 12.1789 17.8797C10.7646 17.3906 6.6667 18.4145 6.6667 18.4145L5.6881 15.1748C5.6881 15.1748 7.5459 13.4174 12.9129 13.7077C18.2798 13.9981 18.8685 16.596 18.8685 19.8204V24.9093C18.8685 24.9093 20.7722 25.1079 20.8181 24.9093C20.8639 24.7106 20.8104 28.4852 20.8104 28.4852ZM35.0153 29.4479H24.8395V25.872H26.4985V17.4671H23.1804V13.8453H27.0031L33.2492 17.2225L33.1881 26.0707L35.0076 26.0019L35.0153 29.4479Z" fill="#E33C35"/>
</svg>
