<svg width="40" height="40" viewBox="0 0 40 40" fill="none" xmlns="http://www.w3.org/2000/svg">
<path d="M20.1024 38.8544C16.3925 38.8544 12.7659 37.7542 9.68126 35.6931C6.5966 33.632 4.1924 30.7025 2.77269 27.275C1.35298 23.8475 0.981514 20.076 1.70528 16.4374C2.42904 12.7988 4.21552 9.45654 6.83881 6.83326C9.4621 4.20997 12.8044 2.42349 16.443 1.69972C20.0816 0.97596 23.8531 1.34742 27.2806 2.76713C30.7081 4.18685 33.6376 6.59105 35.6987 9.67571C37.7598 12.7604 38.8599 16.3869 38.8599 20.0968C38.849 25.0683 36.8693 29.833 33.354 33.3484C29.8386 36.8638 25.0739 38.8435 20.1024 38.8544ZM20.1024 4.86405C17.0896 4.86405 14.1445 5.75744 11.6395 7.43124C9.13449 9.10504 7.18206 11.4841 6.02913 14.2675C4.8762 17.0509 4.57454 20.1137 5.1623 23.0686C5.75006 26.0235 7.20084 28.7377 9.33118 30.868C11.4615 32.9984 14.1757 34.4492 17.1306 35.0369C20.0855 35.6247 23.1483 35.323 25.9317 34.1701C28.7151 33.0172 31.0942 31.0647 32.768 28.5597C34.4418 26.0547 35.3352 23.1096 35.3352 20.0968C35.3243 16.0602 33.7159 12.192 30.8616 9.33762C28.0072 6.48327 24.139 4.8749 20.1024 4.86405Z" fill="#F78429"/>
<path d="M27.3997 12.7944H12.8014V27.3927H27.3997V12.7944Z" fill="#F78429"/>
</svg>
