<svg width="40" height="40" viewBox="0 0 40 40" fill="none" xmlns="http://www.w3.org/2000/svg">
<path d="M30.0417 29.5539H20.9709V26.7628H27.2441V24.0399H21.6039V15.641H27.2441V12.918H20.9709V10.127H30.0417V18.432H24.4015V21.2488H30.0417V29.5539Z" fill="#CB2027"/>
<path d="M19.5451 29.5539H10.4744V21.2488H16.1146V18.432H10.4744V10.127H19.5451V12.918H13.272V15.641H18.9122V24.0399H13.272V26.7628H19.5451V29.5539Z" fill="#CB2027"/>
<path d="M20.2611 38.2897C15.9949 38.2876 11.8605 36.8141 8.5585 34.1189C5.25652 31.4237 2.98996 27.6725 2.14284 23.5009C1.29573 19.3293 1.92014 14.9939 3.9103 11.229C5.90045 7.46416 9.13396 4.50146 13.063 2.84285C17.5818 0.938238 22.6738 0.902513 27.2189 2.74353C31.7641 4.58455 35.39 8.15151 37.2991 12.6597C39.2082 17.1679 39.244 22.2481 37.3987 26.7826C35.5533 31.3172 31.978 34.9346 27.4593 36.8393C25.1822 37.8012 22.7339 38.2945 20.2611 38.2897ZM20.2611 4.18349C11.6073 4.18349 4.56695 11.2074 4.56695 19.8411C4.56695 28.4747 11.6073 35.4986 20.2611 35.4986C28.915 35.4986 35.9576 28.4747 35.9576 19.8411C35.9576 11.2074 28.915 4.18349 20.2611 4.18349Z" fill="#CB2027"/>
</svg>
