<svg width="40" height="40" viewBox="0 0 40 40" fill="none" xmlns="http://www.w3.org/2000/svg">
<path fill-rule="evenodd" clip-rule="evenodd" d="M39.7511 15.8866C36.0786 16.1247 32.4061 16.3628 27.3574 16.6255C22.3087 16.8882 15.9668 17.1838 11.1751 17.0689C7.42462 16.9639 3.6882 16.5686 0 15.8866C1.15517 16.9844 2.51904 17.8439 4.01242 18.4153C6.8167 19.3315 9.76776 19.7268 12.717 19.5812C17.4702 19.4084 22.2077 18.9395 26.9014 18.1772C31.6268 17.4958 35.6475 16.6912 39.7511 15.8866Z" fill="#0157A5"/>
<path fill-rule="evenodd" clip-rule="evenodd" d="M38.8121 18.5305C33.4069 19.45 28.0349 20.3696 24.3209 20.9935C20.607 21.6175 18.6754 21.8146 16.7603 21.9541C14.9914 22.0825 13.2153 22.0825 11.4464 21.9541C10.1291 21.8231 8.822 21.6064 7.53345 21.3055C9.12419 22.0634 10.7915 22.6524 12.5075 23.0625C15.0213 23.5981 17.5883 23.8487 20.1593 23.8096C22.7928 23.7175 25.4193 23.4818 28.0266 23.1036L32.3955 22.5699C31.7615 23.3916 31.2839 24.3208 30.9862 25.3121C30.776 26.2955 30.839 27.317 31.1686 28.2678C31.4344 28.9445 31.8543 29.5513 32.3955 30.0412C32.7345 28.5113 33.2089 27.014 33.8131 25.5666C34.4946 24.1158 35.3282 22.7398 36.3002 21.4615C37.0747 20.4326 37.9049 19.4459 38.7872 18.5059" fill="#0157A5"/>
</svg>
