<svg width="40" height="40" viewBox="0 0 40 40" fill="none" xmlns="http://www.w3.org/2000/svg">
<path d="M21.0658 19.1392L22.3224 17.7601V31.1057L21.0658 32.4847V19.1392Z" fill="#C4161C"/>
<path d="M11.0045 25.4424L18.4994 18.6125L19.2338 19.2531L11.7348 26.2339L11.0045 25.4424Z" fill="#C4161C"/>
<path d="M11.2744 6.11977L19.2303 12.966C19.2649 12.9958 19.2926 13.0328 19.3116 13.0743C19.3306 13.1159 19.3404 13.161 19.3405 13.2067V19.0574C19.3407 19.1175 19.3239 19.1765 19.2919 19.2275C19.26 19.2785 19.2142 19.3194 19.16 19.3455C19.1058 19.3715 19.0452 19.3817 18.9855 19.3747C18.9257 19.3678 18.8691 19.344 18.8223 19.3062L10.8664 12.7987C10.83 12.769 10.8006 12.7317 10.7801 12.6894C10.7597 12.6471 10.7487 12.6008 10.748 12.5539V6.37273C10.7456 6.31073 10.7614 6.24937 10.7934 6.19621C10.8254 6.14305 10.8723 6.1004 10.9282 6.07352C10.9841 6.04664 11.0467 6.0367 11.1082 6.04492C11.1697 6.05313 11.2274 6.07915 11.2744 6.11977Z" fill="#ED1D24"/>
<path d="M11.2741 16.2298L19.2301 23.076C19.2646 23.1058 19.2923 23.1428 19.3114 23.1843C19.3304 23.2259 19.3402 23.271 19.3402 23.3167V28.1515C19.3405 28.2116 19.3236 28.2706 19.2917 28.3216C19.2598 28.3726 19.214 28.4135 19.1598 28.4396C19.1055 28.4656 19.045 28.4758 18.9852 28.4688C18.9255 28.4619 18.8689 28.4381 18.8221 28.4003L10.8661 21.8765C10.8298 21.8467 10.8003 21.8094 10.7799 21.7672C10.7594 21.7249 10.7485 21.6786 10.7478 21.6317V16.4705C10.7478 16.4095 10.7653 16.3499 10.7983 16.2986C10.8312 16.2473 10.8782 16.2065 10.9337 16.1812C10.9891 16.1558 11.0507 16.1469 11.111 16.1555C11.1714 16.1642 11.228 16.1899 11.2741 16.2298Z" fill="#ED1D24"/>
<path d="M11.2741 25.4591L19.2301 32.3053C19.2646 32.3351 19.2924 32.3721 19.3114 32.4136C19.3304 32.4552 19.3402 32.5003 19.3402 32.546V38.3844C19.3405 38.4446 19.3237 38.5036 19.2917 38.5546C19.2598 38.6056 19.214 38.6465 19.1598 38.6725C19.1055 38.6986 19.045 38.7087 18.9853 38.7018C18.9255 38.6948 18.8689 38.6711 18.8221 38.6333L10.8661 32.1053C10.8298 32.0756 10.8003 32.0383 10.7799 31.996C10.7595 31.9537 10.7485 31.9075 10.7478 31.8605V25.7039C10.7471 25.6426 10.764 25.5823 10.7966 25.5304C10.8293 25.4785 10.8762 25.4371 10.9318 25.4113C10.9874 25.3854 11.0493 25.3762 11.11 25.3846C11.1708 25.3931 11.2278 25.419 11.2741 25.4591Z" fill="#ED1D24"/>
<path d="M20.625 19.066V13.3051C20.6255 13.2595 20.6356 13.2146 20.6546 13.1731C20.6736 13.1316 20.701 13.0946 20.7352 13.0644L28.7441 6.1203C28.7903 6.08044 28.8469 6.05466 28.9072 6.04604C28.9676 6.03742 29.0291 6.04632 29.0846 6.07168C29.14 6.09704 29.187 6.13779 29.22 6.18908C29.2529 6.24037 29.2704 6.30005 29.2704 6.36102V18.5683C29.2713 18.6147 29.2619 18.6607 29.2428 18.703C29.2238 18.7454 29.1956 18.7829 29.1603 18.8131L28.7523 19.1721C28.7026 19.215 28.6675 19.2722 28.6516 19.3359C28.6357 19.3995 28.6399 19.4666 28.6635 19.5278C28.6872 19.589 28.7292 19.6413 28.7838 19.6777C28.8384 19.7141 28.9029 19.7328 28.9685 19.7311C29.0529 19.7311 29.1339 19.7646 29.1936 19.8243C29.2532 19.884 29.2868 19.9649 29.2868 20.0493V31.8812C29.2868 31.9275 29.277 31.9733 29.258 32.0155C29.239 32.0577 29.2113 32.0953 29.1766 32.126L21.4288 38.6172C21.3824 38.6573 21.3254 38.6832 21.2646 38.6917C21.2039 38.7001 21.142 38.6909 21.0864 38.665C21.0308 38.6392 20.9839 38.5978 20.9513 38.5459C20.9186 38.494 20.9017 38.4338 20.9024 38.3724V32.5422C20.9024 32.4965 20.9123 32.4513 20.9313 32.4098C20.9503 32.3683 20.978 32.3313 21.0126 32.3014L27.6017 26.5569C27.6354 26.5264 27.6622 26.4893 27.6805 26.4478C27.6987 26.4063 27.7081 26.3615 27.7078 26.3161V23.4602C27.7078 23.3992 27.6903 23.3395 27.6573 23.2882C27.6244 23.2369 27.5774 23.1962 27.5219 23.1708C27.4665 23.1455 27.4049 23.1366 27.3446 23.1452C27.2842 23.1538 27.2276 23.1796 27.1815 23.2194L21.1513 28.3602C21.1052 28.4001 21.0486 28.4258 20.9882 28.4345C20.9279 28.4431 20.8663 28.4342 20.8109 28.4088C20.7554 28.3835 20.7084 28.3427 20.6755 28.2914C20.6425 28.2401 20.625 28.1804 20.625 28.1195V23.3378C20.6256 23.2932 20.6353 23.2492 20.6535 23.2085C20.6718 23.1678 20.6982 23.1312 20.7311 23.1011L27.7772 16.7282C27.8107 16.6986 27.8375 16.6622 27.8558 16.6213C27.8741 16.5805 27.8834 16.5363 27.8833 16.4916V14.5903C27.8835 14.5301 27.8667 14.4711 27.8347 14.4201C27.8028 14.3691 27.7571 14.3282 27.7028 14.3022C27.6486 14.2761 27.588 14.266 27.5283 14.2729C27.4685 14.2799 27.4119 14.3036 27.3651 14.3414L21.1472 19.3149C21.1 19.3523 21.0432 19.3757 20.9834 19.3824C20.9235 19.3891 20.863 19.379 20.8086 19.3531C20.7543 19.3272 20.7082 19.2865 20.6758 19.2358C20.6433 19.1851 20.6257 19.1263 20.625 19.066Z" fill="#ED1D24"/>
<path d="M15.385 3.15763V1.33389C15.3864 1.28708 15.4003 1.24151 15.4254 1.20195C15.4504 1.16238 15.4857 1.13028 15.5274 1.10901C15.5691 1.08774 15.6158 1.07807 15.6625 1.08103C15.7092 1.08398 15.7543 1.09945 15.793 1.12581L19.2324 3.81043C19.2628 3.8351 19.2873 3.86619 19.3042 3.90146C19.3212 3.93673 19.3301 3.97531 19.3303 4.01443V5.78513C19.329 5.83194 19.315 5.87751 19.29 5.91707C19.2649 5.95664 19.2297 5.98874 19.188 6.01001C19.1463 6.03128 19.0996 6.04095 19.0529 6.03799C19.0061 6.03504 18.961 6.01957 18.9223 5.99321L18.5143 5.67497C18.4759 5.64877 18.4312 5.6333 18.3848 5.63016C18.3384 5.62703 18.292 5.63634 18.2504 5.65713C18.2088 5.67793 18.1735 5.70946 18.1482 5.74846C18.1229 5.78746 18.1084 5.83251 18.1063 5.87897V7.34368C18.1059 7.38193 18.114 7.41979 18.1303 7.45442C18.1466 7.48905 18.1704 7.51954 18.2002 7.5436L18.6735 7.95159C18.7044 7.9767 18.7292 8.00845 18.7462 8.04447C18.7631 8.08049 18.7717 8.11986 18.7714 8.15967V9.73454C18.7713 9.78413 18.757 9.83267 18.7304 9.87447C18.7037 9.91627 18.6656 9.94961 18.6207 9.97058C18.5757 9.99155 18.5258 9.99929 18.4766 9.9929C18.4274 9.9865 18.3811 9.96623 18.343 9.93446L15.895 7.89448C15.8659 7.86985 15.8425 7.83925 15.8263 7.80475C15.8101 7.77025 15.8015 7.73267 15.8012 7.69456V6.21353C15.8026 6.16672 15.8165 6.12115 15.8415 6.08159C15.8666 6.04203 15.9018 6.00992 15.9435 5.98865C15.9853 5.96738 16.0319 5.95771 16.0787 5.96067C16.1254 5.96362 16.1705 5.97909 16.2092 6.00545C16.2475 6.03329 16.2928 6.04997 16.3401 6.05367C16.3873 6.05736 16.4347 6.04792 16.4769 6.02639C16.5191 6.00486 16.5546 5.97207 16.5793 5.93166C16.6041 5.89124 16.6172 5.84477 16.6172 5.79737V4.23882C16.6171 4.1952 16.6062 4.15227 16.5856 4.11384C16.565 4.07541 16.5352 4.04267 16.4988 4.01851L15.5074 3.37387C15.4701 3.35141 15.4393 3.3197 15.4178 3.28182C15.3964 3.24394 15.3851 3.20116 15.385 3.15763Z" fill="#ED1D24"/>
<path d="M20.625 3.71297V9.89004C20.6271 9.9365 20.6415 9.98155 20.6669 10.0206C20.6922 10.0596 20.7275 10.0911 20.7691 10.1119C20.8107 10.1327 20.8571 10.142 20.9035 10.1389C20.9499 10.1357 20.9946 10.1202 21.033 10.094L24.297 7.51958C24.3275 7.4951 24.3522 7.46405 24.3692 7.42874C24.3861 7.39342 24.3949 7.35475 24.3949 7.31558V5.56527C24.3928 5.51882 24.3783 5.47376 24.353 5.43476C24.3277 5.39576 24.2924 5.36423 24.2508 5.34344C24.2092 5.32264 24.1628 5.31333 24.1164 5.31647C24.07 5.3196 24.0253 5.33507 23.9869 5.36128L22.6405 6.47103C22.603 6.49833 22.5588 6.51497 22.5126 6.51917C22.4664 6.52338 22.4199 6.515 22.378 6.49492C22.3362 6.47484 22.3006 6.44381 22.275 6.40513C22.2493 6.36644 22.2347 6.32154 22.2325 6.27519L22.208 4.87168C22.2071 4.82977 22.2162 4.78824 22.2346 4.7506C22.2531 4.71296 22.2804 4.68032 22.3141 4.65544L24.3174 3.21521C24.3515 3.19142 24.3794 3.15968 24.3986 3.12272C24.4178 3.08576 24.4277 3.0447 24.4275 3.00306V1.16299C24.4261 1.11618 24.4122 1.07061 24.3871 1.03105C24.3621 0.991486 24.3269 0.959386 24.2852 0.938112C24.2434 0.916838 24.1968 0.907172 24.15 0.910128C24.1033 0.913083 24.0582 0.928551 24.0195 0.954911L20.7556 3.50897C20.7187 3.52963 20.6875 3.55905 20.6647 3.59463C20.642 3.63021 20.6283 3.67086 20.625 3.71297Z" fill="#ED1D24"/>
</svg>
