<svg width="40" height="40" viewBox="0 0 40 40" fill="none" xmlns="http://www.w3.org/2000/svg">
<path d="M3.25891 10.7176L19.4698 1.30579L35.661 10.7176V29.7715L21.6074 38.015V27.2972C21.6074 27.2972 21.848 21.5069 27.0448 22.9942C27.7522 23.1928 28.3716 23.6277 28.8011 24.2274C30.6324 26.8288 28.717 29.5373 28.2753 29.8192C29.1245 30.1341 34.3608 28.4682 33.0632 23.063C31.7657 17.6578 24.8296 17.5678 22.3686 19.6624C22.6315 17.8827 23.1048 9.77419 19.4698 5.09011C15.5666 9.50426 16.6854 18.9836 16.7748 19.7193C15.9689 19.1437 10.9903 16.5873 6.97278 21.0359C5.07049 23.1754 5.04946 29.2793 10.7327 29.7689C8.58454 28.058 8.7607 21.9317 14.2677 22.8327C14.2677 22.8327 17.1771 23.1926 17.3558 27.8318V38.0124L3.25891 29.6392V10.7176Z" fill="#F47A04"/>
</svg>
