<svg width="40" height="40" viewBox="0 0 40 40" fill="none" xmlns="http://www.w3.org/2000/svg">
<g clip-path="url(#clip0)">
<path d="M19.9999 44.2857C33.4126 44.2857 44.2857 33.4126 44.2857 20C44.2857 6.58738 33.4126 -4.28571 19.9999 -4.28571C6.58732 -4.28571 -4.28577 6.58738 -4.28577 20C-4.28577 33.4126 6.58732 44.2857 19.9999 44.2857Z" fill="#F0F0F0"/>
<path d="M42.7751 27.9365C43.7514 25.3657 44.2857 22.5852 44.2857 19.6825C44.2857 16.7798 43.7514 13.9993 42.7751 11.4286H-2.77521C-3.75139 13.9993 -4.28577 16.7798 -4.28577 19.6825C-4.28577 22.5852 -3.75139 25.3657 -2.77521 27.9365L19.9999 30L42.7751 27.9365Z" fill="#0052B4"/>
<path d="M20 45.7143C32.4446 45.7143 43.0534 37.9866 47.1429 27.1429H-7.14282C-3.05337 37.9866 7.55552 45.7143 20 45.7143Z" fill="#D80027"/>
</g>
<defs>
<clipPath id="clip0">
<path d="M0 12C0 5.37258 5.37258 0 12 0H28C34.6274 0 40 5.37258 40 12V28C40 34.6274 34.6274 40 28 40H12C5.37258 40 0 34.6274 0 28V12Z" fill="white"/>
</clipPath>
</defs>
</svg>
