<svg width="40" height="40" viewBox="0 0 40 40" fill="none" xmlns="http://www.w3.org/2000/svg">
<path d="M20.5975 39.7664C31.1842 39.7664 39.7664 31.1842 39.7664 20.5975C39.7664 10.0108 31.1842 1.42859 20.5975 1.42859C10.0108 1.42859 1.42859 10.0108 1.42859 20.5975C1.42859 31.1842 10.0108 39.7664 20.5975 39.7664Z" fill="#EE3148"/>
<path d="M25.4037 24.2622C24.6341 25.2584 23.5704 25.987 22.3635 26.3447C21.1566 26.7024 19.8677 26.6709 18.6796 26.2548C17.4916 25.8387 16.4647 25.0591 15.7447 24.0266C15.0246 22.994 14.648 21.761 14.6682 20.5024C14.6883 19.2437 15.1043 18.0234 15.8571 17.0144C16.6099 16.0055 17.6612 15.2592 18.862 14.8814C20.0627 14.5036 21.352 14.5135 22.5468 14.9097C23.7417 15.3059 24.7815 16.0682 25.5187 17.0885L30.1362 13.3693C28.6221 11.3624 26.5164 9.88117 24.1158 9.13444C21.7152 8.38771 19.1408 8.41311 16.7554 9.20705C14.3701 10.001 12.294 11.5235 10.8197 13.5599C9.34547 15.5963 8.54743 18.044 8.53805 20.558C8.52867 23.072 9.30842 25.5256 10.7674 27.573C12.2264 29.6203 14.2911 31.1582 16.6705 31.97C19.0499 32.7817 21.624 32.8263 24.0301 32.0975C26.4362 31.3687 28.5529 29.9033 30.082 27.9077L25.4037 24.2622Z" fill="white"/>
</svg>
