<svg width="40" height="40" viewBox="0 0 40 40" fill="none" xmlns="http://www.w3.org/2000/svg">
<g clip-path="url(#clip0)">
<path fill-rule="evenodd" clip-rule="evenodd" d="M-5.85938 40.1702H63.2044V-0.26506H-5.85938V40.1702Z" fill="#D1202A"/>
<path fill-rule="evenodd" clip-rule="evenodd" d="M14.2824 9.84654C16.2735 9.84771 18.2197 10.4414 19.8747 11.5526C21.5298 12.6637 22.8194 14.2424 23.5806 16.0891C24.3418 17.9359 24.5404 19.9676 24.1512 21.9276C23.762 23.8876 22.8026 25.6877 21.3942 27.1004C19.9858 28.5132 18.1917 29.4751 16.2387 29.8646C14.2857 30.254 12.2615 30.0535 10.422 29.2885C8.58246 28.5234 7.01027 27.2281 5.90415 25.5663C4.79802 23.9046 4.20764 21.9509 4.20764 19.9524C4.20764 18.6248 4.46827 17.3102 4.97465 16.0837C5.48102 14.8572 6.22321 13.7429 7.15882 12.8044C8.09442 11.8659 9.20509 11.1216 10.4274 10.6141C11.6497 10.1066 12.9596 9.84577 14.2824 9.84654Z" fill="white"/>
<path fill-rule="evenodd" clip-rule="evenodd" d="M16.803 11.8638C18.3968 11.8638 19.9549 12.3382 21.2801 13.227C22.6053 14.1157 23.6382 15.3789 24.2482 16.8568C24.8581 18.3348 25.0177 19.9611 24.7068 21.53C24.3958 23.099 23.6283 24.5402 22.5013 25.6713C21.3743 26.8025 19.9384 27.5728 18.3752 27.8849C16.8119 28.197 15.1916 28.0368 13.7191 27.4246C12.2466 26.8125 10.988 25.7758 10.1025 24.4457C9.21702 23.1156 8.74439 21.5518 8.74439 19.9521C8.74362 18.8897 8.95153 17.8376 9.35624 16.8559C9.76095 15.8743 10.3545 14.9823 11.103 14.2311C11.8514 13.4799 12.7401 12.8842 13.7182 12.478C14.6963 12.0718 15.7445 11.8631 16.803 11.8638Z" fill="#D1202A"/>
<path fill-rule="evenodd" clip-rule="evenodd" d="M22.7958 19.9514L27.5841 21.5102L28.3635 19.1044L22.7958 19.9514Z" fill="white"/>
<path fill-rule="evenodd" clip-rule="evenodd" d="M22.7958 19.9548L27.5841 18.3901L28.3635 20.7959L22.7958 19.9548Z" fill="white"/>
<path fill-rule="evenodd" clip-rule="evenodd" d="M26.278 15.1423V20.2011H28.7922L26.278 15.1423Z" fill="white"/>
<path fill-rule="evenodd" clip-rule="evenodd" d="M26.278 15.1423L29.2377 19.2364L27.204 20.7247L26.278 15.1423Z" fill="white"/>
<path fill-rule="evenodd" clip-rule="evenodd" d="M26.278 24.7587L29.2377 20.6645L27.204 19.1881L26.278 24.7587Z" fill="white"/>
<path fill-rule="evenodd" clip-rule="evenodd" d="M26.278 24.7603V19.7014H28.7922L26.278 24.7603Z" fill="white"/>
<path fill-rule="evenodd" clip-rule="evenodd" d="M31.9033 16.981L27.115 18.5399L27.8886 20.9457L31.9033 16.981Z" fill="white"/>
<path fill-rule="evenodd" clip-rule="evenodd" d="M31.9077 16.981L28.948 21.0693L26.9084 19.581L31.9077 16.981Z" fill="white"/>
<path fill-rule="evenodd" clip-rule="evenodd" d="M31.9077 22.9222L28.948 18.8281L26.9084 20.3164L31.9077 22.9222Z" fill="white"/>
<path fill-rule="evenodd" clip-rule="evenodd" d="M31.9033 22.924L27.115 21.3593L27.8886 18.9593L31.9033 22.924Z" fill="white"/>
</g>
<defs>
<clipPath id="clip0">
<path d="M0 12C0 5.37258 5.37258 0 12 0H28C34.6274 0 40 5.37258 40 12V28C40 34.6274 34.6274 40 28 40H12C5.37258 40 0 34.6274 0 28V12Z" fill="white"/>
</clipPath>
</defs>
</svg>
