<svg width="40" height="40" viewBox="0 0 40 40" fill="none" xmlns="http://www.w3.org/2000/svg">
<rect width="40" height="40" rx="16" fill="white"/>
<circle cx="20" cy="20" r="14" fill="white"/>
<path d="M21.0259 12.8065C21.0259 11.7201 21.6418 10.7277 22.6153 10.2455L26.7957 8.17487V22.2545C26.7957 23.3409 26.1797 24.3333 25.2062 24.8155L21.0259 26.8862V12.8065ZM12.3982 25.047C12.3982 23.9607 13.0141 22.9682 13.9876 22.486L18.168 20.4154V26.5684C18.168 27.6547 17.552 28.6472 16.5786 29.1294L12.3982 31.2V25.047Z" fill="#F05323"/>
<path d="M21.0259 12.8065C21.0259 11.7201 21.6418 10.7277 22.6153 10.2455L26.7957 8.17487V22.2545C26.7957 23.3409 26.1797 24.3333 25.2062 24.8155L21.0259 26.8862V12.8065ZM12.3982 25.047C12.3982 23.9607 13.0141 22.9682 13.9876 22.486L18.168 20.4154V26.5684C18.168 27.6547 17.552 28.6472 16.5786 29.1294L12.3982 31.2V25.047Z" stroke="#F05323"/>
</svg>
