<svg width="28" height="28" viewBox="0 0 28 28" fill="none" xmlns="http://www.w3.org/2000/svg">
<path fill-rule="evenodd" clip-rule="evenodd" d="M24 1H4C2.34315 1 1 2.34315 1 4V24C1 25.6569 2.34315 27 4 27H24C25.6569 27 27 25.6569 27 24V4C27 2.34315 25.6569 1 24 1ZM4 0C1.79086 0 0 1.79086 0 4V24C0 26.2091 1.79086 28 4 28H24C26.2091 28 28 26.2091 28 24V4C28 1.79086 26.2091 0 24 0H4Z" fill="#F05323"/>
<path d="M15.1375 8.49337C15.1375 7.5787 15.656 6.74313 16.4757 6.33714L19.8187 4.68124V16.0504C19.8187 16.965 19.3001 17.8006 18.4805 18.2066L15.1375 19.8625V8.49337Z" fill="#F05323"/>
<path d="M8.13745 18.4027C8.13745 17.4881 8.65603 16.6525 9.47566 16.2465L12.8187 14.5906V19.5504C12.8187 20.465 12.3001 21.3006 11.4805 21.7066L8.13745 23.3625L8.13745 18.4027Z" fill="#F05323"/>
</svg>
