<svg width="40" height="40" viewBox="0 0 40 40" fill="none" xmlns="http://www.w3.org/2000/svg">
<g clip-path="url(#clip0)">
<mask id="mask0" mask-type="alpha" maskUnits="userSpaceOnUse" x="-6" y="-3" width="52" height="52">
<path d="M20.0001 48.5716C34.2018 48.5716 45.7145 37.0589 45.7145 22.8572C45.7145 8.65556 34.2018 -2.85715 20.0001 -2.85715C5.79848 -2.85715 -5.71423 8.65556 -5.71423 22.8572C-5.71423 37.0589 5.79848 48.5716 20.0001 48.5716Z" fill="white"/>
</mask>
<g mask="url(#mask0)">
<path d="M20.0001 48.5716C34.2018 48.5716 45.7145 37.0589 45.7145 22.8572C45.7145 8.65556 34.2018 -2.85715 20.0001 -2.85715C5.79848 -2.85715 -5.71423 8.65556 -5.71423 22.8572C-5.71423 37.0589 5.79848 48.5716 20.0001 48.5716Z" fill="#F0F0F0"/>
<path d="M18.5714 21.4286H45.7143C45.7143 18.9573 45.4013 16.5632 44.8182 14.2857H18.5714V21.4286Z" fill="#D80027"/>
<path d="M18.5714 7.14289H41.4286C39.8682 4.4078 37.8731 1.99027 35.5469 3.05176e-05H18.5714V7.14289Z" fill="#D80027"/>
<path d="M-1.46057 35.7143H41.4605C42.6966 33.5186 43.6552 31.1185 44.2857 28.5715H-4.28577C-3.65529 31.1185 -2.69666 33.5186 -1.46057 35.7143Z" fill="#D80027"/>
<path d="M6.19711 -0.270059H8.54042L6.36073 1.31348L7.19333 3.87577L5.01375 2.29223L2.83416 3.87577L3.55336 1.66223C1.63423 3.26083 -0.0478497 5.13376 -1.43401 7.22063H-0.683173L-2.07064 8.22861C-2.2868 8.58921 -2.49412 8.95554 -2.6928 9.32729L-2.03026 11.3665L-3.26635 10.4684C-3.57362 11.1194 -3.85467 11.785 -4.10729 12.4645L-3.37735 14.7113H-0.683173L-2.86286 16.2949L-2.03026 18.8571L-4.20985 17.2736L-5.51545 18.2222C-5.64613 19.2727 -5.71423 20.3426 -5.71423 21.4286H20.0001C20.0001 7.22706 20.0001 5.55282 20.0001 -4.28571C14.9203 -4.28571 10.1849 -2.81216 6.19711 -0.270059ZM7.19333 18.8571L5.01375 17.2736L2.83416 18.8571L3.66676 16.2949L1.48707 14.7113H4.18125L5.01375 12.149L5.84625 14.7113H8.54042L6.36073 16.2949L7.19333 18.8571ZM6.36073 8.80417L7.19333 11.3665L5.01375 9.78292L2.83416 11.3665L3.66676 8.80417L1.48707 7.22063H4.18125L5.01375 4.65834L5.84625 7.22063H8.54042L6.36073 8.80417ZM16.4169 18.8571L14.2373 17.2736L12.0578 18.8571L12.8904 16.2949L10.7107 14.7113H13.4048L14.2373 12.149L15.0698 14.7113H17.764L15.5843 16.2949L16.4169 18.8571ZM15.5843 8.80417L16.4169 11.3665L14.2373 9.78292L12.0578 11.3665L12.8904 8.80417L10.7107 7.22063H13.4048L14.2373 4.65834L15.0698 7.22063H17.764L15.5843 8.80417ZM15.5843 1.31348L16.4169 3.87577L14.2373 2.29223L12.0578 3.87577L12.8904 1.31348L10.7107 -0.270059H13.4048L14.2373 -2.83235L15.0698 -0.270059H17.764L15.5843 1.31348Z" fill="#0052B4"/>
</g>
</g>
<defs>
<clipPath id="clip0">
<path d="M0 12C0 5.37258 5.37258 0 12 0H28C34.6274 0 40 5.37258 40 12V28C40 34.6274 34.6274 40 28 40H12C5.37258 40 0 34.6274 0 28V12Z" fill="white"/>
</clipPath>
</defs>
</svg>
