<svg width="212" height="180" viewBox="0 0 212 180" fill="none" xmlns="http://www.w3.org/2000/svg">
<circle r="19.5" transform="matrix(-1 0 0 1 162.5 128.5)" fill="url(#paint0_linear_476:6518)"/>
<circle r="19.5" transform="matrix(-1 0 0 1 76.5 128.5)" fill="url(#paint1_linear_476:6518)"/>
<path d="M172.35 73.9206L168.482 61.5431C165.221 51.1062 155.555 44 144.62 44H107.5V129H196V95.1929C196 90.1866 193.125 85.6251 188.609 83.4651L174.965 76.9399C173.712 76.3405 172.765 75.2467 172.35 73.9206Z" fill="url(#paint2_linear_476:6518)"/>
<path d="M172.35 73.9206L168.482 61.5431C165.221 51.1062 155.555 44 144.62 44H107.5V129H196V95.1929C196 90.1866 193.125 85.6251 188.609 83.4651L174.965 76.9399C173.712 76.3405 172.765 75.2467 172.35 73.9206Z" fill="url(#paint3_linear_476:6518)"/>
<path d="M147.35 73.9206L143.482 61.5431C140.221 51.1062 130.555 44 119.62 44H107V129H171V95.1929C171 90.1866 168.125 85.6251 163.609 83.4651L149.965 76.9399C148.712 76.3405 147.765 75.2467 147.35 73.9206Z" fill="#FBFBFB"/>
<path d="M147.35 73.9206L143.482 61.5431C140.221 51.1062 130.555 44 119.62 44H107V129H171V95.1929C171 90.1866 168.125 85.6251 163.609 83.4651L149.965 76.9399C148.712 76.3405 147.765 75.2467 147.35 73.9206Z" fill="url(#paint4_linear_476:6518)"/>
<path d="M147.35 73.9206L143.482 61.5431C140.221 51.1062 130.555 44 119.62 44H107V129H171V95.1929C171 90.1866 168.125 85.6251 163.609 83.4651L149.965 76.9399C148.712 76.3405 147.765 75.2467 147.35 73.9206Z" fill="url(#paint5_linear_476:6518)"/>
<path d="M147.35 73.9206L143.482 61.5431C140.221 51.1062 130.555 44 119.62 44H107V129H171V95.1929C171 90.1866 168.125 85.6251 163.609 83.4651L149.965 76.9399C148.712 76.3405 147.765 75.2467 147.35 73.9206Z" fill="url(#paint6_linear_476:6518)"/>
<path d="M107 44H27C21.4771 44 17 48.4772 17 54V119C17 124.523 21.4771 129 27 129H107V44Z" fill="#F2F4F6"/>
<circle r="19.5" transform="matrix(-1 0 0 1 137.5 128.5)" fill="#A4A4A4"/>
<rect width="154" height="15" transform="matrix(-1 0 0 1 171 114)" fill="#D6DADF"/>
<circle r="19.5" transform="matrix(-1 0 0 1 137.5 128.5)" fill="#C1C7CD"/>
<circle r="19.5" transform="matrix(-1 0 0 1 51.5 128.5)" fill="#C1C7CD"/>
<rect width="25" height="15" transform="matrix(-1 0 0 1 196 114)" fill="#ACB4BB"/>
<ellipse rx="3" ry="6.5" transform="matrix(-1 0 0 1 176 101.5)" fill="#FBFBFB"/>
<ellipse rx="3" ry="6.5" transform="matrix(-1 0 0 1 192 101.5)" fill="#FBFBFB"/>
<defs>
<linearGradient id="paint0_linear_476:6518" x1="14.1017" y1="20" x2="14.1017" y2="39" gradientUnits="userSpaceOnUse">
<stop stop-color="#ACB4BB"/>
<stop offset="1" stop-color="#D6DADF"/>
</linearGradient>
<linearGradient id="paint1_linear_476:6518" x1="14.1017" y1="20" x2="14.1017" y2="39" gradientUnits="userSpaceOnUse">
<stop stop-color="#ACB4BB"/>
<stop offset="1" stop-color="#D6DADF"/>
</linearGradient>
<linearGradient id="paint2_linear_476:6518" x1="164" y1="44" x2="164" y2="129" gradientUnits="userSpaceOnUse">
<stop stop-color="#ACB4BB"/>
<stop offset="1" stop-color="#D6DADF"/>
</linearGradient>
<linearGradient id="paint3_linear_476:6518" x1="192.581" y1="56.0567" x2="192.581" y2="129" gradientUnits="userSpaceOnUse">
<stop stop-color="#C03A19"/>
<stop offset="1" stop-color="#EF5630"/>
</linearGradient>
<linearGradient id="paint4_linear_476:6518" x1="76.5" y1="75" x2="202" y2="118.5" gradientUnits="userSpaceOnUse">
<stop stop-color="#BDC3C9"/>
<stop offset="0.459263" stop-color="white"/>
</linearGradient>
<linearGradient id="paint5_linear_476:6518" x1="139" y1="44" x2="139" y2="129" gradientUnits="userSpaceOnUse">
<stop stop-color="white"/>
<stop offset="1" stop-color="#EDEFF2"/>
</linearGradient>
<linearGradient id="paint6_linear_476:6518" x1="139" y1="44" x2="139" y2="129" gradientUnits="userSpaceOnUse">
<stop stop-color="#FF6E4A"/>
<stop offset="1" stop-color="#EF5630"/>
</linearGradient>
</defs>
</svg>
