<svg width="212" height="180" viewBox="0 0 212 180" fill="none" xmlns="http://www.w3.org/2000/svg">
<path d="M114.085 132.651C116.093 135.119 119.326 136.234 122.428 135.528L151.048 129.018C152.614 128.662 154.045 127.863 155.168 126.715L164.253 117.44C166.694 114.947 170.218 113.838 173.647 114.484V114.484C176.081 114.943 177.226 117.764 175.801 119.79L172.96 123.827L178.195 118.744C181.583 115.454 186.434 114.155 191.013 115.312V115.312C194.302 116.142 195.481 120.205 193.149 122.668L174.731 142.116C173.871 143.024 172.819 143.727 171.652 144.174L147.464 153.447C146.206 153.929 144.85 154.1 143.512 153.946L109.31 149.999H93.9935C91.8924 149.999 89.8683 149.208 88.3238 147.784L57.8993 119.724C51.7246 114.03 51.0664 104.506 56.3989 98.0162V98.0162C62.1152 91.0591 72.4725 90.2573 79.1914 96.2517L97.9705 113.006C98.3024 113.302 98.6103 113.624 98.891 113.969L114.085 132.651Z" fill="#C5C8CB"/>
<path d="M114.085 132.651C116.093 135.119 119.326 136.234 122.428 135.528L151.048 129.018C152.614 128.662 154.045 127.863 155.168 126.715L164.253 117.44C166.694 114.947 170.218 113.838 173.647 114.484V114.484C176.081 114.943 177.226 117.764 175.801 119.79L172.96 123.827L178.195 118.744C181.583 115.454 186.434 114.155 191.013 115.312V115.312C194.302 116.142 195.481 120.205 193.149 122.668L174.731 142.116C173.871 143.024 172.819 143.727 171.652 144.174L147.464 153.447C146.206 153.929 144.85 154.1 143.512 153.946L109.31 149.999H93.9935C91.8924 149.999 89.8683 149.208 88.3238 147.784L57.8993 119.724C51.7246 114.03 51.0664 104.506 56.3989 98.0162V98.0162C62.1152 91.0591 72.4725 90.2573 79.1914 96.2517L97.9705 113.006C98.3024 113.302 98.6103 113.624 98.891 113.969L114.085 132.651Z" fill="url(#paint0_linear_476:6536)"/>
<path fill-rule="evenodd" clip-rule="evenodd" d="M78.017 34.0601C73.7335 38.1001 71.5918 43.4058 71.5918 49.977V55.1609C71.5918 62.0728 73.7579 67.5244 78.09 71.5158C82.4708 75.4585 88.2388 77.4299 95.3941 77.4299C95.8331 77.4299 96.2665 77.4225 96.6945 77.4077H109.67C110.098 77.4225 110.532 77.4299 110.97 77.4299C113.048 77.4299 115.002 77.2639 116.833 76.9319L92.3168 116.171C90.324 119.361 91.5038 123.573 94.8634 125.264C95.8175 125.744 96.8392 125.963 97.8441 125.945C97.9071 125.944 97.9701 125.942 98.033 125.939H113.005C115.25 126.046 117.469 124.959 118.73 122.942L122.204 117.38C122.649 123.19 124.786 127.859 128.615 131.387C132.901 135.244 138.516 137.215 145.459 137.298V137.301H161.972V137.298C169 137.212 174.585 135.217 178.726 131.314C182.961 127.322 185.079 122.017 185.079 115.397V110.286C185.079 103.228 182.937 97.7275 178.653 93.7848C174.37 89.8421 168.602 87.8708 161.349 87.8708C161.141 87.8708 160.934 87.8725 160.728 87.8758H146.406C146.197 87.8725 145.986 87.8708 145.773 87.8708C143.876 87.8708 142.077 88.0111 140.378 88.2919L163.842 50.7358C165.835 47.5462 164.655 43.3338 161.296 41.6433C160.368 41.1764 159.376 40.9561 158.398 40.9608C158.352 40.961 158.307 40.9617 158.261 40.9629H143.019C142.973 40.9617 142.928 40.961 142.882 40.9608C140.732 40.9506 138.639 42.029 137.43 43.9652L134.441 48.7485C134.134 42.6335 132.03 37.7374 128.128 34.0601C123.992 30.1144 118.394 28.0954 111.333 28.0033V28H94.8201V28.0024C87.8163 28.0811 82.2152 30.1004 78.017 34.0601ZM103.039 49.2161C103.021 49.5108 103.012 49.8131 103.012 50.123V55.599C103.012 55.6751 103.012 55.7509 103.014 55.8262C103.045 55.3566 103.06 54.8671 103.06 54.3577V49.977C103.06 49.7185 103.053 49.4649 103.039 49.2161ZM153.564 108.211C153.513 108.596 153.48 108.996 153.464 109.41V115.397C153.464 115.926 153.506 116.441 153.589 116.942L153.659 109.775C153.659 109.231 153.627 108.709 153.564 108.211Z" fill="#C13B19"/>
<path fill-rule="evenodd" clip-rule="evenodd" d="M78.017 34.0601C73.7335 38.1001 71.5918 43.4058 71.5918 49.977V55.1609C71.5918 62.0728 73.7579 67.5244 78.09 71.5158C82.4708 75.4585 88.2388 77.4299 95.3941 77.4299C95.8331 77.4299 96.2665 77.4225 96.6945 77.4077H109.67C110.098 77.4225 110.532 77.4299 110.97 77.4299C113.048 77.4299 115.002 77.2639 116.833 76.9319L92.3168 116.171C90.324 119.361 91.5038 123.573 94.8634 125.264C95.8175 125.744 96.8392 125.963 97.8441 125.945C97.9071 125.944 97.9701 125.942 98.033 125.939H113.005C115.25 126.046 117.469 124.959 118.73 122.942L122.204 117.38C122.649 123.19 124.786 127.859 128.615 131.387C132.901 135.244 138.516 137.215 145.459 137.298V137.301H161.972V137.298C169 137.212 174.585 135.217 178.726 131.314C182.961 127.322 185.079 122.017 185.079 115.397V110.286C185.079 103.228 182.937 97.7275 178.653 93.7848C174.37 89.8421 168.602 87.8708 161.349 87.8708C161.141 87.8708 160.934 87.8725 160.728 87.8758H146.406C146.197 87.8725 145.986 87.8708 145.773 87.8708C143.876 87.8708 142.077 88.0111 140.378 88.2919L163.842 50.7358C165.835 47.5462 164.655 43.3338 161.296 41.6433C160.368 41.1764 159.376 40.9561 158.398 40.9608C158.352 40.961 158.307 40.9617 158.261 40.9629H143.019C142.973 40.9617 142.928 40.961 142.882 40.9608C140.732 40.9506 138.639 42.029 137.43 43.9652L134.441 48.7485C134.134 42.6335 132.03 37.7374 128.128 34.0601C123.992 30.1144 118.394 28.0954 111.333 28.0033V28H94.8201V28.0024C87.8163 28.0811 82.2152 30.1004 78.017 34.0601ZM103.039 49.2161C103.021 49.5108 103.012 49.8131 103.012 50.123V55.599C103.012 55.6751 103.012 55.7509 103.014 55.8262C103.045 55.3566 103.06 54.8671 103.06 54.3577V49.977C103.06 49.7185 103.053 49.4649 103.039 49.2161ZM153.564 108.211C153.513 108.596 153.48 108.996 153.464 109.41V115.397C153.464 115.926 153.506 116.441 153.589 116.942L153.659 109.775C153.659 109.231 153.627 108.709 153.564 108.211Z" fill="url(#paint1_linear_476:6536)"/>
<path d="M71.5918 49.977C71.5918 43.4058 73.7335 38.1001 78.017 34.0601C82.3004 30.02 88.0441 28 95.2481 28C102.549 28 108.317 30.02 112.552 34.0601C116.787 38.0515 118.904 43.4788 118.904 50.342V55.599C118.904 62.1701 116.787 67.4514 112.552 71.4428C108.317 75.4342 102.598 77.4299 95.3941 77.4299C88.2388 77.4299 82.4708 75.4585 78.09 71.5158C73.7579 67.5244 71.5918 62.0728 71.5918 55.1609V49.977ZM87.4356 55.599C87.4356 58.1301 88.1414 60.1988 89.553 61.8051C90.9646 63.3627 92.9116 64.1415 95.3941 64.1415C100.505 64.1415 103.06 60.8802 103.06 54.3577V49.977C103.06 47.4458 102.379 45.3771 101.016 43.7708C99.6532 42.1159 97.7305 41.2884 95.2481 41.2884C92.863 41.2884 90.9646 42.0915 89.553 43.6978C88.1414 45.2554 87.4356 47.3972 87.4356 50.123V55.599ZM122.117 109.775C122.117 103.155 124.259 97.8492 128.542 93.8578C132.874 89.8665 138.618 87.8708 145.773 87.8708C153.026 87.8708 158.794 89.8421 163.077 93.7848C167.361 97.7275 169.502 103.228 169.502 110.286V115.397C169.502 122.017 167.385 127.322 163.15 131.314C158.916 135.305 153.172 137.301 145.919 137.301C138.764 137.301 132.996 135.329 128.615 131.387C124.283 127.395 122.117 121.944 122.117 115.032V109.775ZM137.888 115.397C137.888 117.684 138.667 119.704 140.224 121.457C141.782 123.16 143.68 124.012 145.919 124.012C150.641 124.012 153.196 121.773 153.586 117.295L153.659 109.775C153.659 107.195 152.953 105.126 151.541 103.569C150.13 101.962 148.207 101.159 145.773 101.159C143.437 101.159 141.563 101.914 140.151 103.423C138.74 104.883 137.985 106.879 137.888 109.41V115.397ZM103.153 122.942C101.405 125.741 97.8117 126.747 94.8634 125.264V125.264C91.5038 123.573 90.324 119.361 92.3168 116.171L137.43 43.9652C139.178 41.1661 142.771 40.1598 145.72 41.6433V41.6433C149.079 43.3338 150.259 47.5462 148.266 50.7358L103.153 122.942Z" fill="#C13B19"/>
<path d="M71.5918 49.977C71.5918 43.4058 73.7335 38.1001 78.017 34.0601C82.3004 30.02 88.0441 28 95.2481 28C102.549 28 108.317 30.02 112.552 34.0601C116.787 38.0515 118.904 43.4788 118.904 50.342V55.599C118.904 62.1701 116.787 67.4514 112.552 71.4428C108.317 75.4342 102.598 77.4299 95.3941 77.4299C88.2388 77.4299 82.4708 75.4585 78.09 71.5158C73.7579 67.5244 71.5918 62.0728 71.5918 55.1609V49.977ZM87.4356 55.599C87.4356 58.1301 88.1414 60.1988 89.553 61.8051C90.9646 63.3627 92.9116 64.1415 95.3941 64.1415C100.505 64.1415 103.06 60.8802 103.06 54.3577V49.977C103.06 47.4458 102.379 45.3771 101.016 43.7708C99.6532 42.1159 97.7305 41.2884 95.2481 41.2884C92.863 41.2884 90.9646 42.0915 89.553 43.6978C88.1414 45.2554 87.4356 47.3972 87.4356 50.123V55.599ZM122.117 109.775C122.117 103.155 124.259 97.8492 128.542 93.8578C132.874 89.8665 138.618 87.8708 145.773 87.8708C153.026 87.8708 158.794 89.8421 163.077 93.7848C167.361 97.7275 169.502 103.228 169.502 110.286V115.397C169.502 122.017 167.385 127.322 163.15 131.314C158.916 135.305 153.172 137.301 145.919 137.301C138.764 137.301 132.996 135.329 128.615 131.387C124.283 127.395 122.117 121.944 122.117 115.032V109.775ZM137.888 115.397C137.888 117.684 138.667 119.704 140.224 121.457C141.782 123.16 143.68 124.012 145.919 124.012C150.641 124.012 153.196 121.773 153.586 117.295L153.659 109.775C153.659 107.195 152.953 105.126 151.541 103.569C150.13 101.962 148.207 101.159 145.773 101.159C143.437 101.159 141.563 101.914 140.151 103.423C138.74 104.883 137.985 106.879 137.888 109.41V115.397ZM103.153 122.942C101.405 125.741 97.8117 126.747 94.8634 125.264V125.264C91.5038 123.573 90.324 119.361 92.3168 116.171L137.43 43.9652C139.178 41.1661 142.771 40.1598 145.72 41.6433V41.6433C149.079 43.3338 150.259 47.5462 148.266 50.7358L103.153 122.942Z" fill="url(#paint2_linear_476:6536)"/>
<path d="M141.273 121.287C134.257 125.804 137.456 136.682 145.8 136.682H160.159C162.312 136.682 164.381 135.852 165.937 134.365L178.046 122.794C181.819 119.189 187.524 118.522 192.026 121.159V121.159C193.668 122.12 193.967 124.37 192.634 125.727L171.829 146.906C170.272 148.49 168.15 149.391 165.929 149.408L94.0335 149.974C91.908 149.991 89.8559 149.198 88.2943 147.756L56.9112 118.777C53.3426 115.482 53.3224 109.85 56.8674 106.53L57.0153 106.391C60.1511 103.454 65.0025 103.371 68.2371 106.199L84.0057 119.986C88.0745 123.544 94.4164 122.224 96.7278 117.338V117.338C98.0743 114.492 100.941 112.677 104.089 112.677H128.01C129.554 112.677 131.068 112.25 132.383 111.443L150.449 100.36C153.335 98.5886 157.105 99.41 158.993 102.221V102.221C160.965 105.157 160.142 109.138 157.17 111.052L141.273 121.287Z" fill="#D6DADF"/>
<path d="M128.875 129.269C125.497 131.444 127.037 136.682 131.054 136.682H160.159C162.312 136.682 164.381 135.852 165.937 134.365L178.046 122.794C181.819 119.189 187.524 118.522 192.026 121.159V121.159C193.668 122.12 193.967 124.37 192.634 125.727L171.829 146.906C170.272 148.49 168.15 149.391 165.929 149.408L94.0335 149.974C91.908 149.991 89.8559 149.198 88.2943 147.756L56.9112 118.777C53.3426 115.482 53.3224 109.85 56.8674 106.53L57.0153 106.391C60.1511 103.454 65.0025 103.371 68.2371 106.199L84.0057 119.986C88.0745 123.544 94.4164 122.224 96.7278 117.338V117.338C98.0743 114.492 100.941 112.677 104.089 112.677H128.01C129.554 112.677 131.068 112.25 132.383 111.443L150.449 100.36C153.335 98.5886 157.105 99.41 158.993 102.221V102.221C160.965 105.157 160.142 109.138 157.17 111.052L128.875 129.269Z" fill="#F4F7FA"/>
<path d="M128.875 129.269C125.497 131.444 127.037 136.682 131.054 136.682H160.159C162.312 136.682 164.381 135.852 165.937 134.365L178.046 122.794C181.819 119.189 187.524 118.522 192.026 121.159V121.159C193.668 122.12 193.967 124.37 192.634 125.727L171.829 146.906C170.272 148.49 168.15 149.391 165.929 149.408L94.0335 149.974C91.908 149.991 89.8559 149.198 88.2943 147.756L56.9112 118.777C53.3426 115.482 53.3224 109.85 56.8674 106.53L57.0153 106.391C60.1511 103.454 65.0025 103.371 68.2371 106.199L84.0057 119.986C88.0745 123.544 94.4164 122.224 96.7278 117.338V117.338C98.0743 114.492 100.941 112.677 104.089 112.677H128.01C129.554 112.677 131.068 112.25 132.383 111.443L150.449 100.36C153.335 98.5886 157.105 99.41 158.993 102.221V102.221C160.965 105.157 160.142 109.138 157.17 111.052L128.875 129.269Z" fill="url(#paint3_linear_476:6536)"/>
<defs>
<linearGradient id="paint0_linear_476:6536" x1="109.775" y1="106.946" x2="121.544" y2="174.004" gradientUnits="userSpaceOnUse">
<stop stop-color="#E2E6E9"/>
<stop offset="1" stop-color="#ACB4BB"/>
</linearGradient>
<linearGradient id="paint1_linear_476:6536" x1="179.494" y1="137.301" x2="75.5878" y2="38.9596" gradientUnits="userSpaceOnUse">
<stop stop-color="#C03A19"/>
<stop offset="0.363523" stop-color="#EF5630"/>
<stop offset="0.637932" stop-color="#C03A19"/>
<stop offset="1" stop-color="#EF5630"/>
</linearGradient>
<linearGradient id="paint2_linear_476:6536" x1="120.547" y1="28" x2="120.547" y2="137.301" gradientUnits="userSpaceOnUse">
<stop stop-color="#FD6C48"/>
<stop offset="1" stop-color="#F96844"/>
</linearGradient>
<linearGradient id="paint3_linear_476:6536" x1="102.718" y1="97.1904" x2="120.769" y2="196.77" gradientUnits="userSpaceOnUse">
<stop stop-color="#F4F7FA"/>
<stop offset="1" stop-color="#D6DADF"/>
</linearGradient>
</defs>
</svg>
