<svg width="212" height="180" viewBox="0 0 212 180" fill="none" xmlns="http://www.w3.org/2000/svg">
<path d="M88.0555 74.9141H167.451L173.506 157H82L88.0555 74.9141Z" fill="url(#paint0_linear_476:6665)"/>
<path d="M88.0555 74.9141H167.451L173.506 157H82L88.0555 74.9141Z" fill="#F4F7FA"/>
<path d="M88.0555 74.9141H167.451L173.506 157H82L88.0555 74.9141Z" fill="url(#paint1_linear_476:6665)"/>
<path d="M155.34 74.9141H167.451L173.507 157H149.284L155.34 74.9141Z" fill="#D6DADF"/>
<path fill-rule="evenodd" clip-rule="evenodd" d="M146.589 61.4568C146.589 59.6896 146.241 57.9397 145.565 56.3071C144.888 54.6744 143.897 53.191 142.648 51.9414C141.398 50.6918 139.915 49.7006 138.282 49.0243C136.649 48.3481 134.899 48 133.132 48C131.365 48 129.615 48.3481 127.983 49.0243C126.35 49.7006 124.867 50.6918 123.617 51.9414C122.367 53.191 121.376 54.6744 120.7 56.3071C120.024 57.9397 119.676 59.6896 119.676 61.4568H123.713C123.713 60.2198 123.956 58.9949 124.43 57.852C124.903 56.7091 125.597 55.6707 126.472 54.796C127.346 53.9213 128.385 53.2275 129.528 52.7541C130.67 52.2807 131.895 52.037 133.132 52.037C134.369 52.037 135.594 52.2807 136.737 52.7541C137.88 53.2275 138.918 53.9213 139.793 54.796C140.668 55.6707 141.362 56.7091 141.835 57.852C142.308 58.9948 142.552 60.2198 142.552 61.4568H146.589ZM119.676 61.4577H123.713V74.9145H119.676V61.4577ZM146.594 61.4577H142.557V74.9145H146.594V61.4577Z" fill="#C4C4C4"/>
<path fill-rule="evenodd" clip-rule="evenodd" d="M146.589 61.4568C146.589 59.6896 146.241 57.9397 145.565 56.3071C144.888 54.6744 143.897 53.191 142.648 51.9414C141.398 50.6918 139.915 49.7006 138.282 49.0243C136.649 48.3481 134.899 48 133.132 48C131.365 48 129.615 48.3481 127.983 49.0243C126.35 49.7006 124.867 50.6918 123.617 51.9414C122.367 53.191 121.376 54.6744 120.7 56.3071C120.024 57.9397 119.676 59.6896 119.676 61.4568H123.713C123.713 60.2198 123.956 58.9949 124.43 57.852C124.903 56.7091 125.597 55.6707 126.472 54.796C127.346 53.9213 128.385 53.2275 129.528 52.7541C130.67 52.2807 131.895 52.037 133.132 52.037C134.369 52.037 135.594 52.2807 136.737 52.7541C137.88 53.2275 138.918 53.9213 139.793 54.796C140.668 55.6707 141.362 56.7091 141.835 57.852C142.308 58.9948 142.552 60.2198 142.552 61.4568H146.589ZM119.676 61.4577H123.713V74.9145H119.676V61.4577ZM146.594 61.4577H142.557V74.9145H146.594V61.4577Z" fill="#E1E4E8"/>
<path fill-rule="evenodd" clip-rule="evenodd" d="M135.829 61.4563C135.829 59.6893 135.481 57.9396 134.805 56.3071C134.128 54.6744 133.137 53.191 131.888 51.9414C130.638 50.6918 129.155 49.7006 127.522 49.0243C125.889 48.3481 124.139 48 122.372 48C120.605 48 118.855 48.3481 117.223 49.0243C115.59 49.7006 114.107 50.6918 112.857 51.9414C111.607 53.191 110.616 54.6744 109.94 56.3071C109.264 57.9397 108.916 59.6896 108.916 61.4568H108.916V74.9131H112.953V61.4563H112.953C112.953 60.2195 113.196 58.9947 113.67 57.852C114.143 56.7091 114.837 55.6707 115.712 54.796C116.586 53.9213 117.625 53.2275 118.768 52.7541C119.91 52.2807 121.135 52.037 122.372 52.037C123.609 52.037 124.834 52.2807 125.977 52.7541C127.12 53.2275 128.158 53.9213 129.033 54.796C129.908 55.6707 130.602 56.7091 131.075 57.852C131.548 58.9948 131.792 60.2198 131.792 61.4568H131.795V74.9131H135.832V61.4563H135.829Z" fill="#C4C4C4"/>
<path fill-rule="evenodd" clip-rule="evenodd" d="M135.829 61.4563C135.829 59.6893 135.481 57.9396 134.805 56.3071C134.128 54.6744 133.137 53.191 131.888 51.9414C130.638 50.6918 129.155 49.7006 127.522 49.0243C125.889 48.3481 124.139 48 122.372 48C120.605 48 118.855 48.3481 117.223 49.0243C115.59 49.7006 114.107 50.6918 112.857 51.9414C111.607 53.191 110.616 54.6744 109.94 56.3071C109.264 57.9397 108.916 59.6896 108.916 61.4568H108.916V74.9131H112.953V61.4563H112.953C112.953 60.2195 113.196 58.9947 113.67 57.852C114.143 56.7091 114.837 55.6707 115.712 54.796C116.586 53.9213 117.625 53.2275 118.768 52.7541C119.91 52.2807 121.135 52.037 122.372 52.037C123.609 52.037 124.834 52.2807 125.977 52.7541C127.12 53.2275 128.158 53.9213 129.033 54.796C129.908 55.6707 130.602 56.7091 131.075 57.852C131.548 58.9948 131.792 60.2198 131.792 61.4568H131.795V74.9131H135.832V61.4563H135.829Z" fill="#F4F7FA"/>
<path d="M147.802 99H193.932L198.21 156.999H143.523L147.802 99Z" fill="url(#paint2_linear_476:6665)"/>
<path d="M147.802 99H193.932L198.21 156.999H143.523L147.802 99Z" fill="#F4F7FA"/>
<path d="M147.802 99H193.932L198.21 156.999H143.523L147.802 99Z" fill="#EF5630"/>
<path d="M161.782 99H168.64L166.633 127.068H159.776L161.782 99Z" fill="url(#paint3_linear_476:6665)"/>
<path d="M161.782 99H168.64L166.633 127.068H159.776L161.782 99Z" fill="#FFA18A"/>
<path d="M185.375 99H193.932L198.211 156.999H181.096L185.375 99Z" fill="#D6DADF"/>
<path d="M185.375 99H193.932L198.211 156.999H181.096L185.375 99Z" fill="url(#paint4_linear_476:6665)"/>
<rect x="140.996" y="117" width="13.0435" height="40" fill="#C4C4C4"/>
<rect x="140.996" y="117" width="13.0435" height="40" fill="url(#paint5_linear_476:6665)"/>
<path d="M141.866 130.913H154.909L154.04 117H140.996L141.866 130.913Z" fill="#C4C4C4"/>
<path d="M141.866 130.913H154.909L154.04 117H140.996L141.866 130.913Z" fill="url(#paint6_linear_476:6665)"/>
<path d="M141.866 130.913H154.909L154.04 117H140.996L141.866 130.913Z" fill="url(#paint7_linear_476:6665)"/>
<rect x="101.871" y="117" width="39.1304" height="40" fill="url(#paint8_linear_476:6665)"/>
<path d="M101.871 143.087H141.002V117H101.871V143.087Z" fill="url(#paint9_linear_476:6665)"/>
<path d="M101 130.913H140.13L141 117H101.87L101 130.913Z" fill="url(#paint10_linear_476:6665)"/>
<path d="M101 130.913H140.13L141 117H101.87L101 130.913Z" fill="url(#paint11_linear_476:6665)"/>
<path d="M101 130.913H140.13L141 117H101.87L101 130.913Z" fill="white"/>
<defs>
<linearGradient id="paint0_linear_476:6665" x1="161.395" y1="74.9141" x2="161.395" y2="157" gradientUnits="userSpaceOnUse">
<stop stop-color="#ACB4BB"/>
<stop offset="1" stop-color="#D6DADF"/>
</linearGradient>
<linearGradient id="paint1_linear_476:6665" x1="97.5" y1="78.5" x2="154" y2="161.5" gradientUnits="userSpaceOnUse">
<stop stop-color="#F4F7FA"/>
<stop offset="1" stop-color="#D6DADF"/>
</linearGradient>
<linearGradient id="paint2_linear_476:6665" x1="189.653" y1="99" x2="189.653" y2="156.999" gradientUnits="userSpaceOnUse">
<stop stop-color="#ACB4BB"/>
<stop offset="1" stop-color="#D6DADF"/>
</linearGradient>
<linearGradient id="paint3_linear_476:6665" x1="181.406" y1="99" x2="181.406" y2="127.068" gradientUnits="userSpaceOnUse">
<stop stop-color="#ACB4BB"/>
<stop offset="1" stop-color="#D6DADF"/>
</linearGradient>
<linearGradient id="paint4_linear_476:6665" x1="189.553" y1="107.227" x2="189.553" y2="156.999" gradientUnits="userSpaceOnUse">
<stop stop-color="#C03A19"/>
<stop offset="1" stop-color="#EF5630"/>
</linearGradient>
<linearGradient id="paint5_linear_476:6665" x1="147.518" y1="117" x2="147.518" y2="157" gradientUnits="userSpaceOnUse">
<stop stop-color="#ACB4BB"/>
<stop offset="1" stop-color="#D6DADF"/>
</linearGradient>
<linearGradient id="paint6_linear_476:6665" x1="147.518" y1="99.8571" x2="147.518" y2="117" gradientUnits="userSpaceOnUse">
<stop stop-color="#ACB4BB"/>
<stop offset="1" stop-color="#D6DADF"/>
</linearGradient>
<linearGradient id="paint7_linear_476:6665" x1="151.866" y1="114.764" x2="151.866" y2="117" gradientUnits="userSpaceOnUse">
<stop stop-color="#ACB4BB"/>
<stop offset="1" stop-color="#D6DADF"/>
</linearGradient>
<linearGradient id="paint8_linear_476:6665" x1="141.002" y1="157" x2="101.871" y2="119.174" gradientUnits="userSpaceOnUse">
<stop stop-color="#DFE5EA"/>
<stop offset="1" stop-color="#F1F2F2"/>
</linearGradient>
<linearGradient id="paint9_linear_476:6665" x1="121.436" y1="117" x2="121.436" y2="143.087" gradientUnits="userSpaceOnUse">
<stop stop-color="#ACB4BB"/>
<stop offset="1" stop-color="#D6DADF" stop-opacity="0"/>
</linearGradient>
<linearGradient id="paint10_linear_476:6665" x1="141" y1="117" x2="140.748" y2="112.637" gradientUnits="userSpaceOnUse">
<stop stop-color="#DFE5EA"/>
<stop offset="1" stop-color="#F1F2F2"/>
</linearGradient>
<linearGradient id="paint11_linear_476:6665" x1="116.652" y1="110.851" x2="116.732" y2="117.005" gradientUnits="userSpaceOnUse">
<stop stop-color="#ACB4BB"/>
<stop offset="1" stop-color="#D6DADF"/>
</linearGradient>
</defs>
</svg>
