<svg width="212" height="180" viewBox="0 0 212 180" fill="none" xmlns="http://www.w3.org/2000/svg">
<path d="M69.9485 102.918H86.8969L90.854 146.445C91.0044 148.1 89.7019 149.526 88.0409 149.526H81.2475L69.9485 102.918Z" fill="#C1C7CD"/>
<path d="M64.2991 102.918H81.2475L85.2609 147.064C85.381 148.386 84.3403 149.526 83.013 149.526C79.0312 149.526 75.8586 146.106 75.8249 142.125C75.7389 131.955 74.0983 113.697 64.2991 102.918Z" fill="#F2F4F6"/>
<path fill-rule="evenodd" clip-rule="evenodd" d="M97.2005 54.897L62.4728 60.5465V60.5647C57.2045 61.0295 53 70.3286 53 81.732C53 93.1355 57.2045 102.435 62.4728 102.899V102.918L97.2005 108.567V54.897Z" fill="#C1C7CD"/>
<path fill-rule="evenodd" clip-rule="evenodd" d="M97.2005 54.897L62.4728 60.5465V60.5647C57.2045 61.0295 53 70.3286 53 81.732C53 93.1355 57.2045 102.435 62.4728 102.899V102.918L97.2005 108.567V54.897Z" fill="url(#paint0_linear_476:6646)"/>
<ellipse rx="12.6283" ry="26.8351" transform="matrix(-1 0 0 1 97.2004 81.732)" fill="#9FA5AB"/>
<path fill-rule="evenodd" clip-rule="evenodd" d="M152.747 36.771C144.1 44.3996 131.637 55.3943 99.6086 56.3094C92.5883 56.3094 86.8972 67.6915 86.8972 81.7321C86.8972 95.7727 92.5883 107.155 99.6086 107.155C131.637 108.07 144.1 119.065 152.747 126.693C157.445 130.838 161.017 133.99 165.99 133.99V29.4744C161.017 29.4744 157.445 32.6257 152.747 36.771Z" fill="#EBEEF1"/>
<ellipse rx="24.0103" ry="52.2577" transform="matrix(-1 0 0 1 165.99 81.7321)" fill="url(#paint1_linear_476:6646)"/>
<path d="M143.392 61.9589L167.402 69.0207V94.4434L143.392 101.505V61.9589Z" fill="url(#paint2_linear_476:6646)"/>
<ellipse rx="24.0103" ry="52.2577" transform="matrix(-1 0 0 1 165.99 81.7321)" stroke="#EF5630" stroke-width="5.64948"/>
<ellipse rx="5.64948" ry="12.7113" transform="matrix(-1 0 0 1 167.402 81.732)" fill="url(#paint3_linear_476:6646)"/>
<defs>
<linearGradient id="paint0_linear_476:6646" x1="68.9821" y1="54.897" x2="68.9821" y2="108.567" gradientUnits="userSpaceOnUse">
<stop stop-color="#D6DADF"/>
<stop offset="1" stop-color="#ACB4BB"/>
</linearGradient>
<linearGradient id="paint1_linear_476:6646" x1="71" y1="-8.47412" x2="14.1237" y2="104.515" gradientUnits="userSpaceOnUse">
<stop stop-color="#878F97"/>
<stop offset="1" stop-color="#EBEEF1"/>
</linearGradient>
<linearGradient id="paint2_linear_476:6646" x1="155.397" y1="61.9589" x2="155.397" y2="101.505" gradientUnits="userSpaceOnUse">
<stop stop-color="#7D878F"/>
<stop offset="1" stop-color="#7D878F" stop-opacity="0"/>
</linearGradient>
<linearGradient id="paint3_linear_476:6646" x1="9.96968" y1="10.9936" x2="2.95564" y2="25.2417" gradientUnits="userSpaceOnUse">
<stop stop-color="#D6DADF"/>
<stop offset="1" stop-color="#B7BEC5"/>
</linearGradient>
</defs>
</svg>
