<svg width="212" height="180" viewBox="0 0 212 180" fill="none" xmlns="http://www.w3.org/2000/svg">
<path d="M129.258 62.1362H132.83V159.78C132.83 160.767 132.03 161.566 131.044 161.566C130.058 161.566 129.258 160.767 129.258 159.78V62.1362Z" fill="url(#paint0_linear_476:6544)"/>
<path d="M191.503 65.1336H198.216V70.1127C198.216 71.9664 196.713 73.4691 194.86 73.4691C193.006 73.4691 191.503 71.9664 191.503 70.1127V65.1336Z" fill="#ACB4BB"/>
<path d="M149.71 65.1336H191.503V70.0706C191.503 71.9475 189.982 73.4691 188.105 73.4691H153.108C151.232 73.4691 149.71 71.9475 149.71 70.0706V65.1336Z" fill="#FDFDFD"/>
<path d="M97.5537 65.1336H149.71V70.0706C149.71 71.9475 148.188 73.4691 146.311 73.4691H100.952C99.0753 73.4691 97.5537 71.9475 97.5537 70.0706V65.1336Z" fill="#ACB4BB"/>
<path d="M64.4668 65.1336H97.5529V70.0706C97.5529 71.9475 96.0313 73.4691 94.1544 73.4691H67.8653C65.9883 73.4691 64.4668 71.9475 64.4668 70.0706V65.1336Z" fill="#FDFDFD"/>
<path opacity="0.5" fill-rule="evenodd" clip-rule="evenodd" d="M97.552 65.1331H149.708V70.0701C149.708 71.947 148.186 73.4685 146.31 73.4685H100.95C99.0919 73.4685 97.5818 71.9766 97.5524 70.1251C97.5235 71.977 96.0132 73.4694 94.1544 73.4694H67.8653C65.9883 73.4694 64.4668 71.9478 64.4668 70.0709V65.1339H97.552V65.1331ZM191.501 65.1331H149.708V70.0701C149.708 71.947 151.23 73.4685 153.107 73.4685H188.103C189.98 73.4685 191.501 71.947 191.501 70.0701V65.1331ZM198.214 65.1331H191.501V70.1122C191.501 71.9658 193.004 73.4685 194.858 73.4685C196.712 73.4685 198.214 71.9658 198.214 70.1122V65.1331Z" fill="url(#paint1_linear_476:6544)"/>
<path d="M97.5522 65.1338C104.321 42.0055 116.985 26.4333 131.341 26.4333C102.74 26.4333 77.777 42.0055 64.4668 65.1338H97.5522Z" fill="#F2F3F3"/>
<path d="M149.71 65.1335C146.098 42.0053 139.293 26.4331 131.342 26.4331C116.987 26.4331 104.323 42.0053 97.5537 65.1335H149.71Z" fill="#C9CDD1"/>
<path d="M191.503 65.1335C179.529 42.0053 157.071 26.4331 131.342 26.4331C139.293 26.4331 146.098 42.0053 149.71 65.1335H191.503Z" fill="#F2F3F3"/>
<path d="M198.216 65.1335C184.906 42.0053 159.942 26.4331 131.342 26.4331C157.071 26.4331 179.529 42.0053 191.503 65.1335H198.216Z" fill="#C9CDD1"/>
<path fill-rule="evenodd" clip-rule="evenodd" d="M97.5525 65.1338H149.708H149.709H191.501H198.214C184.904 42.0055 159.941 26.4333 131.34 26.4333C131.34 26.4333 131.34 26.4333 131.341 26.4333C131.268 26.4333 131.195 26.4337 131.122 26.4345C102.613 26.5136 77.7431 42.0653 64.4668 65.1347H97.5522L97.5525 65.1338Z" fill="url(#paint2_linear_476:6544)"/>
<line x1="160.982" y1="96.5002" x2="185.652" y2="96.5002" stroke="#ACB4BB" stroke-width="2.71877" stroke-linecap="round"/>
<path d="M114.969 161.567L132.839 135.554M162.005 93.0966L132.839 135.554M132.839 135.554L147.198 158.577M151.553 161.567L147.198 158.577M114.969 136.451L147.198 158.577" stroke="url(#paint3_linear_476:6544)" stroke-width="2.71877" stroke-linecap="round"/>
<path d="M130.449 143.705C121.816 142.514 117.351 138.148 114.671 135.667C137.892 135.667 139.678 137.453 148.906 128.225C156.289 120.842 159.623 105.302 161.112 96.0735H184.928C178.081 132.095 174.508 140.132 164.089 143.705C153.67 147.277 139.082 144.896 130.449 143.705Z" fill="url(#paint4_linear_476:6544)"/>
<path fill-rule="evenodd" clip-rule="evenodd" d="M114.992 135.965H148.311C157.539 144.3 178.08 132.095 184.927 96.0735H161.112C159.623 105.302 156.289 120.842 148.906 128.225C141.139 135.992 138.644 135.956 124.203 135.751C121.487 135.712 118.348 135.667 114.671 135.667C114.755 135.744 114.84 135.824 114.927 135.904C114.949 135.924 114.97 135.944 114.992 135.965Z" fill="#EF5630"/>
<path d="M148.608 161.269L163.877 135.369M188.797 93.0966L163.877 135.369M163.877 135.369L176.145 158.292M179.866 161.269L176.145 158.292M148.608 136.262L176.145 158.292" stroke="#ACB4BB" stroke-width="2.71877" stroke-linecap="round"/>
<defs>
<linearGradient id="paint0_linear_476:6544" x1="131.044" y1="62.1362" x2="131.044" y2="161.566" gradientUnits="userSpaceOnUse">
<stop stop-color="#ACB4BB"/>
<stop offset="0.751887" stop-color="#ACB4BB" stop-opacity="0"/>
</linearGradient>
<linearGradient id="paint1_linear_476:6544" x1="198.215" y1="73.4694" x2="64.4668" y2="73.4694" gradientUnits="userSpaceOnUse">
<stop offset="0.662163" stop-color="#ACB4BB"/>
<stop offset="1" stop-color="#D7DADD"/>
</linearGradient>
<linearGradient id="paint2_linear_476:6544" x1="198.215" y1="65.1347" x2="64.4668" y2="65.1347" gradientUnits="userSpaceOnUse">
<stop stop-color="#ACB4BB"/>
<stop offset="0.68023" stop-color="white" stop-opacity="0.21"/>
</linearGradient>
<linearGradient id="paint3_linear_476:6544" x1="138.487" y1="93.0966" x2="138.487" y2="161.567" gradientUnits="userSpaceOnUse">
<stop stop-color="#ACB4BB"/>
<stop offset="1" stop-color="#D5D9DC"/>
</linearGradient>
<linearGradient id="paint4_linear_476:6544" x1="149.389" y1="103.097" x2="149.389" y2="145.592" gradientUnits="userSpaceOnUse">
<stop stop-color="#EF5630"/>
<stop offset="1" stop-color="#C03A19"/>
</linearGradient>
</defs>
</svg>
