<svg width="212" height="180" viewBox="0 0 212 180" fill="none" xmlns="http://www.w3.org/2000/svg">
<path d="M175 19H177.5C183.023 19 187.5 23.4772 187.5 29V150C187.5 155.523 183.023 160 177.5 160H87C114.106 160 133.679 43.4465 160 24.4531V19H175Z" fill="#C4C4C4"/>
<path d="M175 19H177.5C183.023 19 187.5 23.4772 187.5 29V150C187.5 155.523 183.023 160 177.5 160H87C114.106 160 133.679 43.4465 160 24.4531V19H175Z" fill="url(#paint0_linear_476:6504)"/>
<path d="M160 19C125.5 19 104 160 72 160H162.5C168.023 160 172.5 155.523 172.5 150V29C172.5 23.4772 168.023 19 162.5 19H160Z" fill="#EF5630"/>
<path d="M160 59H162.5C168.023 59 172.5 63.4772 172.5 69V150C172.5 155.523 168.023 160 162.5 160H72C99.1063 160 118.679 83.4465 145 64.4531V59H160Z" fill="#C4C4C4"/>
<path d="M160 59H162.5C168.023 59 172.5 63.4772 172.5 69V150C172.5 155.523 168.023 160 162.5 160H72C99.1063 160 118.679 83.4465 145 64.4531V59H160Z" fill="url(#paint1_linear_476:6504)"/>
<path d="M145 59C110.5 59 89 160 57 160H147.5C153.023 160 157.5 155.523 157.5 150V69C157.5 63.4772 153.023 59 147.5 59H145Z" fill="#F6F7F9"/>
<path d="M145 99H147.5C153.023 99 157.5 103.477 157.5 109V149.799C157.5 155.4 152.901 159.908 147.301 159.797L67.3932 158.207C89.4018 150.638 107.16 120.934 130 104.453V99H145Z" fill="#C4C4C4"/>
<path d="M145 99H147.5C153.023 99 157.5 103.477 157.5 109V149.799C157.5 155.4 152.901 159.908 147.301 159.797L67.3932 158.207C89.4018 150.638 107.16 120.934 130 104.453V99H145Z" fill="url(#paint2_linear_476:6504)"/>
<path d="M130 99C95.5 99 74 160 42 160H132.5C138.023 160 142.5 155.523 142.5 150V109C142.5 103.477 138.023 99 132.5 99H130Z" fill="#F6F7F9"/>
<path d="M130 99C95.5 99 74 160 42 160H132.5C138.023 160 142.5 155.523 142.5 150V109C142.5 103.477 138.023 99 132.5 99H130Z" fill="url(#paint3_linear_476:6504)"/>
<path d="M130 99C95.5 99 74 160 42 160H132.5C138.023 160 142.5 155.523 142.5 150V109C142.5 103.477 138.023 99 132.5 99H130Z" fill="#F6F7F9"/>
<path d="M130 99C95.5 99 74 160 42 160H132.5C138.023 160 142.5 155.523 142.5 150V109C142.5 103.477 138.023 99 132.5 99H130Z" fill="url(#paint4_linear_476:6504)"/>
<defs>
<linearGradient id="paint0_linear_476:6504" x1="90.883" y1="39" x2="90.883" y2="160" gradientUnits="userSpaceOnUse">
<stop stop-color="#C03A19"/>
<stop offset="1" stop-color="#EF5630"/>
</linearGradient>
<linearGradient id="paint1_linear_476:6504" x1="75.883" y1="39" x2="75.883" y2="160" gradientUnits="userSpaceOnUse">
<stop stop-color="#ACB4BB"/>
<stop offset="1" stop-color="#D6DADF"/>
</linearGradient>
<linearGradient id="paint2_linear_476:6504" x1="60.883" y1="90" x2="60.883" y2="160" gradientUnits="userSpaceOnUse">
<stop stop-color="#ACB4BB"/>
<stop offset="1" stop-color="#D6DADF"/>
</linearGradient>
<linearGradient id="paint3_linear_476:6504" x1="311" y1="-60" x2="263.754" y2="185.617" gradientUnits="userSpaceOnUse">
<stop stop-color="#B4BBC2"/>
<stop offset="1" stop-color="#F6F7F9"/>
</linearGradient>
<linearGradient id="paint4_linear_476:6504" x1="391" y1="45.5" x2="266.318" y2="305.165" gradientUnits="userSpaceOnUse">
<stop stop-color="#BDC3C9"/>
<stop offset="1" stop-color="#F6F7F9"/>
</linearGradient>
</defs>
</svg>
