<svg width="402" height="576" viewBox="0 0 402 576" fill="none" xmlns="http://www.w3.org/2000/svg">
<g clip-path="url(#clip0_476:6608)">
<path d="M217.139 371.988C218.963 368.391 220.012 364.336 220.012 360.028C220.012 345.397 208.151 333.538 193.525 333.538C191.445 333.538 189.432 333.799 187.491 334.255C182.123 318.972 167.606 307.994 150.485 307.994C139.171 307.994 129.004 312.809 121.84 320.469C116.256 312.364 106.92 307.048 96.3337 307.048C82.2614 307.048 70.4005 316.435 66.6236 329.288C51.8019 329.368 39.8118 341.405 39.8118 356.246C39.8118 361.204 41.1745 365.835 43.5103 369.827C37.2731 374.292 33.1919 381.58 33.1919 389.834C33.1919 401.924 41.9193 411.956 53.4137 414.02C56.5334 423.409 65.3692 430.187 75.8029 430.187C80.5667 430.187 84.9869 428.755 88.6923 426.322L121.324 460.586V508.194H141.555V460.288L166.573 432.452C169.983 433.628 173.633 434.299 177.445 434.299C186.589 434.299 194.869 430.632 200.924 424.705C216.129 423.354 228.052 410.598 228.052 395.037C228.05 385.745 223.798 377.452 217.139 371.988ZM117.457 440.056L107.876 430.215C111.55 431.022 115.359 431.458 119.272 431.458C120.159 431.458 121.029 431.393 121.905 431.349L117.457 440.056ZM131.737 452.851L122.514 443.923L129.894 430.348C137.589 428.778 144.691 425.579 150.778 421.068C152.417 423.213 154.322 425.134 156.416 426.829L131.737 452.851Z" fill="black"/>
<path d="M217.139 371.988C218.963 368.391 220.012 364.336 220.012 360.028C220.012 345.397 208.151 333.538 193.525 333.538C191.445 333.538 189.432 333.799 187.491 334.255C182.123 318.972 167.606 307.994 150.485 307.994C139.171 307.994 129.004 312.809 121.84 320.469C116.256 312.364 106.92 307.048 96.3337 307.048C82.2614 307.048 70.4005 316.435 66.6236 329.288C51.8019 329.368 39.8118 341.405 39.8118 356.246C39.8118 361.204 41.1745 365.835 43.5103 369.827C37.2731 374.292 33.1919 381.58 33.1919 389.834C33.1919 401.924 41.9193 411.956 53.4137 414.02C56.5334 423.409 65.3692 430.187 75.8029 430.187C80.5667 430.187 84.9869 428.755 88.6923 426.322L121.324 460.586V508.194H141.555V460.288L166.573 432.452C169.983 433.628 173.633 434.299 177.445 434.299C186.589 434.299 194.869 430.632 200.924 424.705C216.129 423.354 228.052 410.598 228.052 395.037C228.05 385.745 223.798 377.452 217.139 371.988ZM117.457 440.056L107.876 430.215C111.55 431.022 115.359 431.458 119.272 431.458C120.159 431.458 121.029 431.393 121.905 431.349L117.457 440.056ZM131.737 452.851L122.514 443.923L129.894 430.348C137.589 428.778 144.691 425.579 150.778 421.068C152.417 423.213 154.322 425.134 156.416 426.829L131.737 452.851Z" fill="url(#paint0_linear_476:6608)"/>
<rect x="175.244" y="441.194" width="42" height="67" fill="url(#paint1_linear_476:6608)"/>
<circle cx="209.744" cy="478.694" r="2.5" fill="white"/>
<path fill-rule="evenodd" clip-rule="evenodd" d="M185.244 338.194C175.303 338.194 167.244 346.253 167.244 356.194V508.194H178.244V464.194C178.244 452.044 188.094 442.194 200.244 442.194H203.244C214.29 442.194 223.244 451.148 223.244 462.194V508.194H338.244V356.194C338.244 346.253 330.185 338.194 320.244 338.194H185.244Z" fill="url(#paint2_linear_476:6608)"/>
<path fill-rule="evenodd" clip-rule="evenodd" d="M172.244 338.194C162.303 338.194 154.244 346.253 154.244 356.194V508.194H170.244V464.694C170.244 452.268 180.318 442.194 192.744 442.194H195.244C206.29 442.194 215.244 451.148 215.244 462.194V508.194H323.244V356.194C323.244 346.253 315.185 338.194 305.244 338.194H172.244Z" fill="url(#paint3_linear_476:6608)"/>
<path fill-rule="evenodd" clip-rule="evenodd" d="M172.244 338.194C162.303 338.194 154.244 346.253 154.244 356.194V508.194H170.244V464.694C170.244 452.268 180.318 442.194 192.744 442.194H195.244C206.29 442.194 215.244 451.148 215.244 462.194V508.194H323.244V356.194C323.244 346.253 315.185 338.194 305.244 338.194H172.244Z" fill="url(#paint4_linear_476:6608)"/>
<path d="M154.244 356.194C154.244 346.253 162.303 338.194 172.244 338.194H305.244C315.185 338.194 323.244 346.253 323.244 356.194H154.244Z" fill="#F3F6F9"/>
<path d="M154.244 356.194H323.244L289.244 382.194H122.244L154.244 356.194Z" fill="white"/>
<path d="M298.244 356.194H304.244L276.244 382.194H270.244L298.244 356.194Z" fill="#C7CED3"/>
<path d="M272.244 356.194H278.244L250.244 382.194H244.244L272.244 356.194Z" fill="#F4F7FA"/>
<path d="M246.244 356.194H252.244L224.244 382.194H218.244L246.244 356.194Z" fill="#C7CED3"/>
<path d="M220.244 356.194H226.244L198.244 382.194H192.244L220.244 356.194Z" fill="#F4F7FA"/>
<path d="M194.244 356.194H200.244L172.244 382.194H166.244L194.244 356.194Z" fill="#C7CED3"/>
<path d="M168.244 356.194H174.244L146.244 382.194H140.244L168.244 356.194Z" fill="#F4F7FA"/>
<path d="M261.244 382.194C261.244 384.032 260.895 385.853 260.217 387.552C259.538 389.25 258.544 390.793 257.29 392.093C256.036 393.393 254.548 394.425 252.91 395.128C251.272 395.832 249.517 396.194 247.744 396.194C245.971 396.194 244.216 395.832 242.578 395.128C240.94 394.425 239.452 393.393 238.198 392.093C236.945 390.793 235.95 389.25 235.272 387.552C234.593 385.853 234.244 384.032 234.244 382.194L261.244 382.194Z" fill="#D6DADF"/>
<path d="M233.244 382.194C233.244 384.032 232.895 385.853 232.217 387.552C231.538 389.25 230.544 390.793 229.29 392.093C228.036 393.393 226.548 394.425 224.91 395.128C223.272 395.832 221.517 396.194 219.744 396.194C217.971 396.194 216.216 395.832 214.578 395.128C212.94 394.425 211.452 393.393 210.198 392.093C208.945 390.793 207.95 389.25 207.272 387.552C206.593 385.853 206.244 384.032 206.244 382.194L233.244 382.194Z" fill="#ACB4BB"/>
<path d="M205.244 382.194C205.244 384.032 204.895 385.853 204.217 387.552C203.538 389.25 202.544 390.793 201.29 392.093C200.036 393.393 198.548 394.425 196.91 395.128C195.272 395.832 193.517 396.194 191.744 396.194C189.971 396.194 188.216 395.832 186.578 395.128C184.94 394.425 183.452 393.393 182.198 392.093C180.945 390.793 179.95 389.25 179.272 387.552C178.593 385.853 178.244 384.032 178.244 382.194L205.244 382.194Z" fill="#D6DADF"/>
<path d="M177.244 382.194C177.244 384.032 176.895 385.853 176.217 387.552C175.538 389.25 174.544 390.793 173.29 392.093C172.036 393.393 170.548 394.425 168.91 395.128C167.272 395.832 165.517 396.194 163.744 396.194C161.971 396.194 160.216 395.832 158.578 395.128C156.94 394.425 155.452 393.393 154.198 392.093C152.945 390.793 151.95 389.25 151.272 387.552C150.593 385.853 150.244 384.032 150.244 382.194L177.244 382.194Z" fill="#ACB4BB"/>
<path d="M149.244 382.194C149.244 384.032 148.895 385.853 148.217 387.552C147.538 389.25 146.544 390.793 145.29 392.093C144.036 393.393 142.548 394.425 140.91 395.128C139.272 395.832 137.517 396.194 135.744 396.194C133.971 396.194 132.216 395.832 130.578 395.128C128.94 394.425 127.452 393.393 126.198 392.093C124.945 390.793 123.95 389.25 123.272 387.552C122.593 385.853 122.244 384.032 122.244 382.194L149.244 382.194Z" fill="#D6DADF"/>
<path d="M289.244 382.194C289.244 384.032 288.895 385.853 288.217 387.552C287.538 389.25 286.544 390.793 285.29 392.093C284.036 393.393 282.548 394.425 280.91 395.128C279.272 395.832 277.517 396.194 275.744 396.194C273.971 396.194 272.216 395.832 270.578 395.128C268.94 394.425 267.452 393.393 266.198 392.093C264.945 390.793 263.95 389.25 263.272 387.552C262.593 385.853 262.244 384.032 262.244 382.194L289.244 382.194Z" fill="#ACB4BB"/>
<path fill-rule="evenodd" clip-rule="evenodd" d="M259.244 419.096H268.244V450.096L239.244 450.096V439.096C239.244 428.051 248.198 419.096 259.244 419.096ZM239.244 455.096V485.096H268.244V455.096H239.244ZM273.244 455.096V485.096H302.244V455.096H273.244ZM302.244 450.096V439.096C302.244 428.051 293.29 419.096 282.244 419.096H273.244V450.096L302.244 450.096Z" fill="#C7CCD2"/>
<path fill-rule="evenodd" clip-rule="evenodd" d="M259.244 419.096H268.244V450.096L239.244 450.096V439.096C239.244 428.051 248.198 419.096 259.244 419.096ZM239.244 455.096V485.096H268.244V455.096H239.244ZM273.244 455.096V485.096H302.244V455.096H273.244ZM302.244 450.096V439.096C302.244 428.051 293.29 419.096 282.244 419.096H273.244V450.096L302.244 450.096Z" fill="url(#paint5_linear_476:6608)"/>
<path d="M90.1144 201.829C96.303 201.829 101.299 196.834 101.299 190.645C101.299 185.351 97.5706 180.878 92.5749 179.759C92.5749 179.535 92.5749 179.312 92.5749 179.163C92.5749 173.049 87.6538 168.053 81.5398 167.978C81.5398 161.864 76.5441 156.869 70.3555 156.869C64.9871 156.869 60.4388 160.671 59.3949 165.742C58.4256 165.369 57.3072 165.145 56.1888 165.145C52.9826 165.145 50.2238 166.86 48.7326 169.395C47.1668 167.084 44.4826 165.518 41.5001 165.518C37.0264 165.518 33.3728 168.873 32.8509 173.123C25.171 173.347 18.9824 179.685 18.9824 187.439C18.9824 195.343 25.3947 201.829 33.3728 201.829H90.1144Z" fill="#F1F3F4"/>
<path d="M422.611 232.479C428.911 232.479 434.011 227.379 434.011 221.079C434.011 214.779 428.911 209.679 422.611 209.679C421.311 209.679 420.111 209.879 419.011 210.279C418.611 204.679 413.911 200.179 408.111 200.179C408.011 200.179 407.911 200.179 407.811 200.179C407.711 192.779 401.611 186.779 394.211 186.779C393.711 186.779 393.311 186.779 392.911 186.879C390.811 177.879 382.711 171.179 373.111 171.179C366.011 171.179 359.711 174.879 356.011 180.479C354.411 179.879 352.611 179.479 350.811 179.479C343.311 179.479 337.111 185.179 336.411 192.579C335.411 192.179 334.411 191.979 333.311 191.979C330.211 191.979 327.611 193.579 326.111 196.079C324.311 194.979 322.211 194.379 320.011 194.379C313.611 194.379 308.411 199.579 308.411 205.979C308.411 206.179 308.411 206.279 308.411 206.479C307.911 206.379 307.411 206.379 306.911 206.379C301.411 206.379 296.911 210.879 296.911 216.379C296.911 217.979 297.311 219.579 298.011 220.879C296.011 221.879 294.711 223.979 294.711 226.279C294.711 229.679 297.411 232.379 300.811 232.379H422.611V232.479Z" fill="#F1F3F4"/>
</g>
<defs>
<linearGradient id="paint0_linear_476:6608" x1="130.622" y1="307.048" x2="130.622" y2="508.194" gradientUnits="userSpaceOnUse">
<stop stop-color="#D6DADF"/>
<stop offset="1" stop-color="#F6F7F8"/>
</linearGradient>
<linearGradient id="paint1_linear_476:6608" x1="196.244" y1="441.194" x2="196.244" y2="508.194" gradientUnits="userSpaceOnUse">
<stop stop-color="#D1D5DB"/>
<stop offset="1" stop-color="#F4F7FA"/>
</linearGradient>
<linearGradient id="paint2_linear_476:6608" x1="251.744" y1="338.194" x2="251.744" y2="508.194" gradientUnits="userSpaceOnUse">
<stop stop-color="#ACB4BB"/>
<stop offset="1" stop-color="#D6DADF"/>
</linearGradient>
<linearGradient id="paint3_linear_476:6608" x1="238.744" y1="338.194" x2="238.744" y2="508.194" gradientUnits="userSpaceOnUse">
<stop stop-color="#BDC3C9"/>
<stop offset="0.459263" stop-color="white"/>
</linearGradient>
<linearGradient id="paint4_linear_476:6608" x1="238.744" y1="338.194" x2="238.744" y2="508.194" gradientUnits="userSpaceOnUse">
<stop stop-color="#ADB5BC"/>
<stop offset="0.459263" stop-color="#F3F7FA"/>
</linearGradient>
<linearGradient id="paint5_linear_476:6608" x1="339.471" y1="486.909" x2="261.398" y2="422.434" gradientUnits="userSpaceOnUse">
<stop stop-color="#ACB4BB"/>
<stop offset="1" stop-color="#D8DEE2"/>
</linearGradient>
<clipPath id="clip0_476:6608">
<rect width="402" height="602" fill="white"/>
</clipPath>
</defs>
</svg>
