<svg width="532" height="296" viewBox="0 0 532 296" fill="none" xmlns="http://www.w3.org/2000/svg">
<g clip-path="url(#clip0_476:6687)">
<path d="M307.289 113.728C309.734 108.904 311.141 103.469 311.141 97.6928C311.141 78.0774 295.239 62.1785 275.631 62.1785C272.842 62.1785 270.143 62.5279 267.541 63.1401C260.344 42.6497 240.881 27.932 217.928 27.932C202.759 27.932 189.129 34.388 179.525 44.6564C172.037 33.7913 159.521 26.6643 145.328 26.6643C126.462 26.6643 110.56 39.2486 105.497 56.4801C85.6258 56.5883 69.551 72.7252 69.551 92.622C69.551 99.2697 71.3779 105.478 74.5094 110.831C66.1474 116.817 60.6758 126.587 60.6758 137.653C60.6758 153.861 72.3764 167.311 87.7866 170.079C91.9692 182.666 103.815 191.753 117.803 191.753C124.19 191.753 130.116 189.833 135.084 186.571L178.832 232.508V296.336H205.955V232.109L239.496 194.79C244.068 196.366 248.962 197.266 254.072 197.266C266.332 197.266 277.433 192.35 285.551 184.404C305.935 182.592 321.92 165.49 321.92 144.629C321.917 132.171 316.216 121.053 307.289 113.728ZM173.648 204.984L160.804 191.79C165.728 192.873 170.835 193.457 176.081 193.457C177.271 193.457 178.436 193.37 179.611 193.312L173.648 204.984ZM192.793 222.138L180.427 210.169L190.323 191.97C200.638 189.864 210.16 185.576 218.321 179.528C220.519 182.403 223.072 184.979 225.879 187.251L192.793 222.138Z" fill="black"/>
<path d="M307.289 113.728C309.734 108.904 311.141 103.469 311.141 97.6928C311.141 78.0774 295.239 62.1785 275.631 62.1785C272.842 62.1785 270.143 62.5279 267.541 63.1401C260.344 42.6497 240.881 27.932 217.928 27.932C202.759 27.932 189.129 34.388 179.525 44.6564C172.037 33.7913 159.521 26.6643 145.328 26.6643C126.462 26.6643 110.56 39.2486 105.497 56.4801C85.6258 56.5883 69.551 72.7252 69.551 92.622C69.551 99.2697 71.3779 105.478 74.5094 110.831C66.1474 116.817 60.6758 126.587 60.6758 137.653C60.6758 153.861 72.3764 167.311 87.7866 170.079C91.9692 182.666 103.815 191.753 117.803 191.753C124.19 191.753 130.116 189.833 135.084 186.571L178.832 232.508V296.336H205.955V232.109L239.496 194.79C244.068 196.366 248.962 197.266 254.072 197.266C266.332 197.266 277.433 192.35 285.551 184.404C305.935 182.592 321.92 165.49 321.92 144.629C321.917 132.171 316.216 121.053 307.289 113.728ZM173.648 204.984L160.804 191.79C165.728 192.873 170.835 193.457 176.081 193.457C177.271 193.457 178.436 193.37 179.611 193.312L173.648 204.984ZM192.793 222.138L180.427 210.169L190.323 191.97C200.638 189.864 210.16 185.576 218.321 179.528C220.519 182.403 223.072 184.979 225.879 187.251L192.793 222.138Z" fill="url(#paint0_linear_476:6687)"/>
<rect x="289.003" y="213.303" width="52.0505" height="83.033" fill="url(#paint1_linear_476:6687)"/>
<circle cx="331.76" cy="259.777" r="3.09825" fill="white"/>
<path fill-rule="evenodd" clip-rule="evenodd" d="M301.397 85.655C289.077 85.655 279.09 95.6424 279.09 107.962V296.336H292.721V241.807C292.721 226.749 304.928 214.542 319.986 214.542H323.703C337.392 214.542 348.489 225.639 348.489 239.328V296.336H491.01V107.962C491.01 95.6424 481.023 85.655 468.703 85.655H301.397Z" fill="url(#paint2_linear_476:6687)"/>
<path fill-rule="evenodd" clip-rule="evenodd" d="M285.285 85.655C272.965 85.655 262.978 95.6424 262.978 107.962V296.336H282.809V242.427C282.809 227.027 295.293 214.542 310.693 214.542H313.791C327.48 214.542 338.577 225.639 338.577 239.328V296.336H472.419V107.962C472.419 95.6424 462.432 85.655 450.112 85.655H285.285Z" fill="url(#paint3_linear_476:6687)"/>
<path fill-rule="evenodd" clip-rule="evenodd" d="M285.285 85.655C272.965 85.655 262.978 95.6424 262.978 107.962V296.336H282.809V242.427C282.809 227.027 295.293 214.542 310.693 214.542H313.791C327.48 214.542 338.577 225.639 338.577 239.328V296.336H472.419V107.962C472.419 95.6424 462.432 85.655 450.112 85.655H285.285Z" fill="url(#paint4_linear_476:6687)"/>
<path d="M262.978 107.962C262.978 95.6424 272.965 85.655 285.285 85.655H450.112C462.432 85.655 472.419 95.6424 472.419 107.962H262.978Z" fill="white"/>
<path d="M262.979 107.962H472.42L430.284 140.184H223.321L262.979 107.962Z" fill="white"/>
<path d="M441.439 107.962H448.875L414.174 140.184H406.739L441.439 107.962Z" fill="#C7CED3"/>
<path d="M409.216 107.962H416.652L381.952 140.184H374.516L409.216 107.962Z" fill="#F4F7FA"/>
<path d="M376.995 107.962H384.431L349.731 140.184H342.295L376.995 107.962Z" fill="#C7CED3"/>
<path d="M344.773 107.962H352.208L317.508 140.184H310.072L344.773 107.962Z" fill="#F4F7FA"/>
<path d="M312.552 107.962H319.987L285.287 140.184H277.851L312.552 107.962Z" fill="#C7CED3"/>
<path d="M280.329 107.962H287.765L253.065 140.184H245.629L280.329 107.962Z" fill="#F4F7FA"/>
<path d="M395.585 140.184C395.585 142.463 395.152 144.719 394.311 146.824C393.471 148.929 392.238 150.842 390.685 152.453C389.131 154.064 387.287 155.342 385.257 156.214C383.227 157.086 381.051 157.534 378.854 157.534C376.657 157.534 374.482 157.086 372.452 156.214C370.422 155.342 368.578 154.064 367.024 152.453C365.47 150.842 364.238 148.929 363.397 146.824C362.557 144.719 362.124 142.463 362.124 140.184L395.585 140.184Z" fill="#D6DADF"/>
<path d="M360.883 140.184C360.883 142.463 360.451 144.719 359.61 146.824C358.769 148.929 357.537 150.842 355.983 152.453C354.43 154.064 352.585 155.342 350.555 156.214C348.526 157.086 346.35 157.534 344.153 157.534C341.956 157.534 339.78 157.086 337.75 156.214C335.721 155.342 333.876 154.064 332.323 152.453C330.769 150.842 329.537 148.929 328.696 146.824C327.855 144.719 327.422 142.463 327.422 140.184L360.883 140.184Z" fill="#ACB4BB"/>
<path d="M326.183 140.184C326.183 142.463 325.751 144.719 324.91 146.824C324.069 148.929 322.837 150.842 321.283 152.453C319.73 154.064 317.885 155.342 315.855 156.214C313.826 157.086 311.65 157.534 309.453 157.534C307.256 157.534 305.08 157.086 303.05 156.214C301.021 155.342 299.176 154.064 297.623 152.453C296.069 150.842 294.837 148.929 293.996 146.824C293.155 144.719 292.722 142.463 292.722 140.184L326.183 140.184Z" fill="#D6DADF"/>
<path d="M291.484 140.184C291.484 142.463 291.051 144.719 290.21 146.824C289.37 148.929 288.137 150.842 286.584 152.453C285.03 154.064 283.186 155.342 281.156 156.214C279.126 157.086 276.951 157.534 274.753 157.534C272.556 157.534 270.381 157.086 268.351 156.214C266.321 155.342 264.477 154.064 262.923 152.453C261.37 150.842 260.137 148.929 259.296 146.824C258.456 144.719 258.023 142.463 258.023 140.184L291.484 140.184Z" fill="#ACB4BB"/>
<path d="M256.782 140.184C256.782 142.463 256.35 144.719 255.509 146.824C254.668 148.929 253.436 150.842 251.882 152.453C250.329 154.064 248.484 155.342 246.454 156.214C244.424 157.086 242.249 157.534 240.052 157.534C237.855 157.534 235.679 157.086 233.649 156.214C231.619 155.342 229.775 154.064 228.222 152.453C226.668 150.842 225.436 148.929 224.595 146.824C223.754 144.719 223.321 142.463 223.321 140.184L256.782 140.184Z" fill="#D6DADF"/>
<path d="M430.285 140.184C430.285 142.463 429.852 144.719 429.011 146.824C428.17 148.929 426.938 150.842 425.384 152.453C423.831 154.064 421.986 155.342 419.957 156.214C417.927 157.086 415.751 157.534 413.554 157.534C411.357 157.534 409.181 157.086 407.152 156.214C405.122 155.342 403.277 154.064 401.724 152.453C400.17 150.842 398.938 148.929 398.097 146.824C397.256 144.719 396.823 142.463 396.823 140.184L430.285 140.184Z" fill="#ACB4BB"/>
<path fill-rule="evenodd" clip-rule="evenodd" d="M393.104 185.917H404.26V224.336H368.318V210.703C368.318 197.014 379.415 185.917 393.104 185.917ZM368.318 230.533V267.711H404.26V230.533H368.318ZM410.457 230.533V267.711H446.394V230.533H410.457ZM446.394 224.336V210.703C446.394 197.014 435.297 185.917 421.608 185.917H410.457V224.336H446.394Z" fill="#C7CCD2"/>
<path fill-rule="evenodd" clip-rule="evenodd" d="M393.104 185.917H404.26V224.336H368.318V210.703C368.318 197.014 379.415 185.917 393.104 185.917ZM368.318 230.533V267.711H404.26V230.533H368.318ZM410.457 230.533V267.711H446.394V230.533H410.457ZM446.394 224.336V210.703C446.394 197.014 435.297 185.917 421.608 185.917H410.457V224.336H446.394Z" fill="#D6DADF"/>
<path d="M221.214 244.929H270.934L274.727 296.336H217.421L221.214 244.929Z" fill="url(#paint5_linear_476:6687)"/>
<path d="M221.214 244.929H270.934L274.727 296.336H217.421L221.214 244.929Z" fill="#EF5630"/>
<path d="M263.35 244.929H270.934L274.727 296.336H259.558L263.35 244.929Z" fill="#C13B19"/>
<g opacity="0.5">
<path fill-rule="evenodd" clip-rule="evenodd" d="M257.872 236.502C257.872 235.395 257.654 234.3 257.23 233.277C256.807 232.255 256.186 231.326 255.403 230.543C254.621 229.761 253.692 229.14 252.669 228.716C251.647 228.293 250.551 228.075 249.444 228.075C248.338 228.075 247.242 228.293 246.219 228.716C245.197 229.14 244.268 229.761 243.485 230.543C242.703 231.326 242.082 232.255 241.659 233.277C241.235 234.3 241.017 235.395 241.017 236.502H243.545C243.545 235.727 243.698 234.96 243.994 234.245C244.291 233.529 244.725 232.879 245.273 232.331C245.821 231.783 246.471 231.348 247.187 231.052C247.903 230.756 248.67 230.603 249.444 230.603C250.219 230.603 250.986 230.756 251.702 231.052C252.417 231.348 253.068 231.783 253.616 232.331C254.163 232.879 254.598 233.529 254.894 234.245C255.191 234.96 255.343 235.727 255.343 236.502H257.872ZM241.018 236.502H243.546V244.929H241.018V236.502ZM257.872 236.502H255.344V244.929H257.872V236.502Z" fill="#C4C4C4"/>
<path fill-rule="evenodd" clip-rule="evenodd" d="M257.872 236.502C257.872 235.395 257.654 234.3 257.23 233.277C256.807 232.255 256.186 231.326 255.403 230.543C254.621 229.761 253.692 229.14 252.669 228.716C251.647 228.293 250.551 228.075 249.444 228.075C248.338 228.075 247.242 228.293 246.219 228.716C245.197 229.14 244.268 229.761 243.485 230.543C242.703 231.326 242.082 232.255 241.659 233.277C241.235 234.3 241.017 235.395 241.017 236.502H243.545C243.545 235.727 243.698 234.96 243.994 234.245C244.291 233.529 244.725 232.879 245.273 232.331C245.821 231.783 246.471 231.348 247.187 231.052C247.903 230.756 248.67 230.603 249.444 230.603C250.219 230.603 250.986 230.756 251.702 231.052C252.417 231.348 253.068 231.783 253.616 232.331C254.163 232.879 254.598 233.529 254.894 234.245C255.191 234.96 255.343 235.727 255.343 236.502H257.872ZM241.018 236.502H243.546V244.929H241.018V236.502ZM257.872 236.502H255.344V244.929H257.872V236.502Z" fill="url(#paint6_linear_476:6687)"/>
</g>
<path fill-rule="evenodd" clip-rule="evenodd" d="M251.131 236.502C251.131 235.396 250.913 234.3 250.489 233.277C250.066 232.255 249.445 231.326 248.663 230.543C247.88 229.761 246.951 229.14 245.929 228.716C244.906 228.293 243.81 228.075 242.704 228.075C241.597 228.075 240.501 228.293 239.479 228.716C238.456 229.14 237.527 229.761 236.745 230.543C235.962 231.326 235.341 232.255 234.918 233.277C234.494 234.3 234.276 235.396 234.276 236.502L234.277 236.502V244.929H236.805V236.502L236.805 236.502C236.805 235.728 236.957 234.96 237.254 234.245C237.55 233.529 237.985 232.879 238.532 232.331C239.08 231.783 239.73 231.349 240.446 231.052C241.162 230.756 241.929 230.603 242.704 230.603C243.478 230.603 244.245 230.756 244.961 231.052C245.677 231.349 246.327 231.783 246.875 232.331C247.423 232.879 247.857 233.529 248.154 234.245C248.45 234.96 248.603 235.728 248.603 236.502H248.603V244.929H251.131V236.502H251.131Z" fill="#C4C4C4"/>
<path fill-rule="evenodd" clip-rule="evenodd" d="M251.131 236.502C251.131 235.396 250.913 234.3 250.489 233.277C250.066 232.255 249.445 231.326 248.663 230.543C247.88 229.761 246.951 229.14 245.929 228.716C244.906 228.293 243.81 228.075 242.704 228.075C241.597 228.075 240.501 228.293 239.479 228.716C238.456 229.14 237.527 229.761 236.745 230.543C235.962 231.326 235.341 232.255 234.918 233.277C234.494 234.3 234.276 235.396 234.276 236.502L234.277 236.502V244.929H236.805V236.502L236.805 236.502C236.805 235.728 236.957 234.96 237.254 234.245C237.55 233.529 237.985 232.879 238.532 232.331C239.08 231.783 239.73 231.349 240.446 231.052C241.162 230.756 241.929 230.603 242.704 230.603C243.478 230.603 244.245 230.756 244.961 231.052C245.677 231.349 246.327 231.783 246.875 232.331C247.423 232.879 247.857 233.529 248.154 234.245C248.45 234.96 248.603 235.728 248.603 236.502H248.603V244.929H251.131V236.502H251.131Z" fill="url(#paint7_linear_476:6687)"/>
<path d="M249.409 259.808L244.87 261.655C244.345 261.864 243.892 262.221 243.564 262.682C243.236 263.13 243.041 263.662 243.003 264.216L241.996 278.775L246.534 276.927C247.057 276.715 247.51 276.359 247.84 275.9C248.164 275.451 248.353 274.918 248.387 274.365" fill="white"/>
<path d="M239.472 271.853L234.933 273.715C234.411 273.917 233.958 274.265 233.628 274.716C233.297 275.167 233.102 275.704 233.066 276.262L232.626 282.627L237.164 280.78C237.69 280.57 238.143 280.214 238.47 279.753C238.799 279.305 238.994 278.773 239.032 278.218" fill="white"/>
<rect x="516.588" y="257.57" width="12.6408" height="38.7653" fill="#C4C4C4"/>
<rect x="516.588" y="257.57" width="12.6408" height="38.7653" fill="url(#paint8_linear_476:6687)"/>
<path d="M517.431 271.054H530.072L529.229 257.57H516.588L517.431 271.054Z" fill="#C4C4C4"/>
<path d="M517.431 271.054H530.072L529.229 257.57H516.588L517.431 271.054Z" fill="url(#paint9_linear_476:6687)"/>
<path d="M517.431 271.054H530.072L529.229 257.57H516.588L517.431 271.054Z" fill="url(#paint10_linear_476:6687)"/>
<rect x="478.666" y="257.57" width="37.9225" height="38.7653" fill="url(#paint11_linear_476:6687)"/>
<path d="M478.666 282.852H516.588V257.57H478.666V282.852Z" fill="url(#paint12_linear_476:6687)"/>
<rect x="466.868" y="257.57" width="12.6408" height="38.7653" fill="#C4C4C4"/>
<rect x="466.868" y="257.57" width="12.6408" height="38.7653" fill="url(#paint13_linear_476:6687)"/>
<rect x="477.823" y="218.805" width="12.6408" height="38.7653" fill="#C4C4C4"/>
<rect x="477.823" y="218.805" width="12.6408" height="38.7653" fill="url(#paint14_linear_476:6687)"/>
<path d="M486.25 223.862H498.891L490.464 218.805H477.823L486.25 223.862Z" fill="#C4C4C4"/>
<path d="M486.25 223.862H498.891L490.464 218.805H477.823L486.25 223.862Z" fill="url(#paint15_linear_476:6687)"/>
<path d="M486.25 223.862H498.891L490.464 218.805H477.823L486.25 223.862Z" fill="url(#paint16_linear_476:6687)"/>
<rect x="428.945" y="257.57" width="37.9225" height="38.7653" fill="url(#paint17_linear_476:6687)"/>
<rect x="439.9" y="218.805" width="37.9225" height="38.7653" fill="url(#paint18_linear_476:6687)"/>
<path d="M439.9 244.087H477.823V218.805H439.9V244.087Z" fill="url(#paint19_linear_476:6687)"/>
<path d="M431.473 223.862H469.396L477.823 218.805H439.9L431.473 223.862Z" fill="url(#paint20_linear_476:6687)"/>
<path d="M431.473 223.862H469.396L477.823 218.805H439.9L431.473 223.862Z" fill="url(#paint21_linear_476:6687)"/>
<path d="M431.473 223.862H469.396L477.823 218.805H439.9L431.473 223.862Z" fill="white"/>
<path d="M477.823 271.054H515.746L516.588 257.57H478.666L477.823 271.054Z" fill="url(#paint22_linear_476:6687)"/>
<path d="M477.823 271.054H515.746L516.588 257.57H478.666L477.823 271.054Z" fill="url(#paint23_linear_476:6687)"/>
<path d="M477.823 271.054H515.746L516.588 257.57H478.666L477.823 271.054Z" fill="white"/>
<circle r="16.4331" transform="matrix(-1 0 0 1 159.696 279.902)" fill="url(#paint24_linear_476:6687)"/>
<circle r="16.4331" transform="matrix(-1 0 0 1 87.2222 279.902)" fill="url(#paint25_linear_476:6687)"/>
<path d="M167.998 233.907L164.738 223.476C161.989 214.681 153.844 208.692 144.629 208.692H113.347V280.324H187.928V251.834C187.928 247.615 185.505 243.771 181.699 241.951L170.201 236.452C169.145 235.946 168.347 235.025 167.998 233.907Z" fill="url(#paint26_linear_476:6687)"/>
<path d="M146.929 233.907L143.67 223.476C140.921 214.681 132.775 208.692 123.56 208.692H112.925V280.324H166.859V251.834C166.859 247.615 164.437 243.771 160.631 241.951L149.133 236.452C148.077 235.946 147.278 235.025 146.929 233.907Z" fill="url(#paint27_linear_476:6687)"/>
<path d="M112.925 208.692H45.5075C40.8532 208.692 37.0802 212.465 37.0802 217.12V271.897C37.0802 276.551 40.8532 280.324 45.5075 280.324H112.925V208.692Z" fill="white"/>
<circle r="16.4331" transform="matrix(-1 0 0 1 138.628 279.902)" fill="#A4A4A4"/>
<rect width="129.779" height="12.6408" transform="matrix(-1 0 0 1 166.859 267.683)" fill="#D6DADF"/>
<circle r="16.4331" transform="matrix(-1 0 0 1 138.628 279.902)" fill="#C1C7CD"/>
<circle r="16.4331" transform="matrix(-1 0 0 1 66.1538 279.902)" fill="#C1C7CD"/>
<rect width="21.0681" height="12.6408" transform="matrix(-1 0 0 1 187.928 267.683)" fill="#ACB4BB"/>
<ellipse rx="2.52817" ry="5.4777" transform="matrix(-1 0 0 1 171.073 257.149)" fill="#FBFBFB"/>
<ellipse rx="2.52817" ry="5.4777" transform="matrix(-1 0 0 1 184.557 257.149)" fill="#FBFBFB"/>
</g>
<defs>
<linearGradient id="paint0_linear_476:6687" x1="191.298" y1="26.6643" x2="191.298" y2="296.336" gradientUnits="userSpaceOnUse">
<stop stop-color="#D6DADF"/>
<stop offset="1" stop-color="#F6F7F8"/>
</linearGradient>
<linearGradient id="paint1_linear_476:6687" x1="315.029" y1="213.303" x2="315.029" y2="296.336" gradientUnits="userSpaceOnUse">
<stop stop-color="#D1D5DB"/>
<stop offset="1" stop-color="#F4F7FA"/>
</linearGradient>
<linearGradient id="paint2_linear_476:6687" x1="383.811" y1="85.655" x2="383.811" y2="296.336" gradientUnits="userSpaceOnUse">
<stop stop-color="#ACB4BB"/>
<stop offset="1" stop-color="#D6DADF"/>
</linearGradient>
<linearGradient id="paint3_linear_476:6687" x1="367.699" y1="85.655" x2="367.699" y2="296.336" gradientUnits="userSpaceOnUse">
<stop stop-color="#BDC3C9"/>
<stop offset="0.459263" stop-color="white"/>
</linearGradient>
<linearGradient id="paint4_linear_476:6687" x1="367.699" y1="85.655" x2="367.699" y2="296.336" gradientUnits="userSpaceOnUse">
<stop stop-color="#ADB5BC"/>
<stop offset="0.459263" stop-color="white"/>
</linearGradient>
<linearGradient id="paint5_linear_476:6687" x1="267.142" y1="244.929" x2="267.142" y2="296.336" gradientUnits="userSpaceOnUse">
<stop stop-color="#ACB4BB"/>
<stop offset="1" stop-color="#D6DADF"/>
</linearGradient>
<linearGradient id="paint6_linear_476:6687" x1="249.445" y1="228.075" x2="249.445" y2="244.929" gradientUnits="userSpaceOnUse">
<stop stop-color="#ACB4BB"/>
<stop offset="1" stop-color="#D6DADF"/>
</linearGradient>
<linearGradient id="paint7_linear_476:6687" x1="242.704" y1="228.075" x2="242.704" y2="244.929" gradientUnits="userSpaceOnUse">
<stop stop-color="#ACB4BB"/>
<stop offset="1" stop-color="#D6DADF"/>
</linearGradient>
<linearGradient id="paint8_linear_476:6687" x1="522.909" y1="257.57" x2="522.909" y2="296.336" gradientUnits="userSpaceOnUse">
<stop stop-color="#ACB4BB"/>
<stop offset="1" stop-color="#D6DADF"/>
</linearGradient>
<linearGradient id="paint9_linear_476:6687" x1="522.909" y1="240.957" x2="522.909" y2="257.57" gradientUnits="userSpaceOnUse">
<stop stop-color="#ACB4BB"/>
<stop offset="1" stop-color="#D6DADF"/>
</linearGradient>
<linearGradient id="paint10_linear_476:6687" x1="527.122" y1="255.403" x2="527.122" y2="257.57" gradientUnits="userSpaceOnUse">
<stop stop-color="#ACB4BB"/>
<stop offset="1" stop-color="#D6DADF"/>
</linearGradient>
<linearGradient id="paint11_linear_476:6687" x1="516.588" y1="296.336" x2="478.666" y2="259.677" gradientUnits="userSpaceOnUse">
<stop stop-color="#DFE5EA"/>
<stop offset="1" stop-color="#F1F2F2"/>
</linearGradient>
<linearGradient id="paint12_linear_476:6687" x1="497.627" y1="257.57" x2="497.627" y2="282.852" gradientUnits="userSpaceOnUse">
<stop stop-color="#ACB4BB"/>
<stop offset="1" stop-color="#D6DADF" stop-opacity="0"/>
</linearGradient>
<linearGradient id="paint13_linear_476:6687" x1="473.188" y1="257.57" x2="473.188" y2="296.336" gradientUnits="userSpaceOnUse">
<stop stop-color="#ACB4BB"/>
<stop offset="1" stop-color="#D6DADF"/>
</linearGradient>
<linearGradient id="paint14_linear_476:6687" x1="484.143" y1="218.805" x2="484.143" y2="257.57" gradientUnits="userSpaceOnUse">
<stop stop-color="#ACB4BB"/>
<stop offset="1" stop-color="#D6DADF"/>
</linearGradient>
<linearGradient id="paint15_linear_476:6687" x1="484.143" y1="202.191" x2="484.143" y2="218.805" gradientUnits="userSpaceOnUse">
<stop stop-color="#ACB4BB"/>
<stop offset="1" stop-color="#D6DADF"/>
</linearGradient>
<linearGradient id="paint16_linear_476:6687" x1="488.357" y1="216.638" x2="488.357" y2="218.805" gradientUnits="userSpaceOnUse">
<stop stop-color="#ACB4BB"/>
<stop offset="1" stop-color="#D6DADF"/>
</linearGradient>
<linearGradient id="paint17_linear_476:6687" x1="466.868" y1="296.336" x2="428.945" y2="259.677" gradientUnits="userSpaceOnUse">
<stop stop-color="#DFE5EA"/>
<stop offset="1" stop-color="#F1F2F2"/>
</linearGradient>
<linearGradient id="paint18_linear_476:6687" x1="477.823" y1="257.57" x2="439.9" y2="220.912" gradientUnits="userSpaceOnUse">
<stop stop-color="#DFE5EA"/>
<stop offset="1" stop-color="#F1F2F2"/>
</linearGradient>
<linearGradient id="paint19_linear_476:6687" x1="458.862" y1="218.805" x2="458.862" y2="244.087" gradientUnits="userSpaceOnUse">
<stop stop-color="#ACB4BB"/>
<stop offset="1" stop-color="#D6DADF" stop-opacity="0"/>
</linearGradient>
<linearGradient id="paint20_linear_476:6687" x1="477.823" y1="218.805" x2="477.578" y2="214.577" gradientUnits="userSpaceOnUse">
<stop stop-color="#DFE5EA"/>
<stop offset="1" stop-color="#F1F2F2"/>
</linearGradient>
<linearGradient id="paint21_linear_476:6687" x1="454.227" y1="212.846" x2="454.304" y2="218.81" gradientUnits="userSpaceOnUse">
<stop stop-color="#ACB4BB"/>
<stop offset="1" stop-color="#D6DADF"/>
</linearGradient>
<linearGradient id="paint22_linear_476:6687" x1="516.588" y1="257.57" x2="516.344" y2="253.342" gradientUnits="userSpaceOnUse">
<stop stop-color="#DFE5EA"/>
<stop offset="1" stop-color="#F1F2F2"/>
</linearGradient>
<linearGradient id="paint23_linear_476:6687" x1="492.992" y1="251.611" x2="493.069" y2="257.575" gradientUnits="userSpaceOnUse">
<stop stop-color="#ACB4BB"/>
<stop offset="1" stop-color="#D6DADF"/>
</linearGradient>
<linearGradient id="paint24_linear_476:6687" x1="11.8838" y1="16.8545" x2="11.8838" y2="32.8662" gradientUnits="userSpaceOnUse">
<stop stop-color="#ACB4BB"/>
<stop offset="1" stop-color="#D6DADF"/>
</linearGradient>
<linearGradient id="paint25_linear_476:6687" x1="11.8838" y1="16.8545" x2="11.8838" y2="32.8662" gradientUnits="userSpaceOnUse">
<stop stop-color="#ACB4BB"/>
<stop offset="1" stop-color="#D6DADF"/>
</linearGradient>
<linearGradient id="paint26_linear_476:6687" x1="160.961" y1="208.692" x2="160.961" y2="280.324" gradientUnits="userSpaceOnUse">
<stop stop-color="#ACB4BB"/>
<stop offset="1" stop-color="#D6DADF"/>
</linearGradient>
<linearGradient id="paint27_linear_476:6687" x1="139.892" y1="208.692" x2="139.892" y2="280.324" gradientUnits="userSpaceOnUse">
<stop stop-color="white"/>
<stop offset="1" stop-color="#EDEFF2"/>
</linearGradient>
<clipPath id="clip0_476:6687">
<rect width="532" height="296" fill="white"/>
</clipPath>
</defs>
</svg>
