<svg width="41" height="40" viewBox="0 0 41 40" fill="none" xmlns="http://www.w3.org/2000/svg">
<g clip-path="url(#clip0)">
<path d="M60.5498 0.100006H-19.4502V40.1H60.5498V0.100006Z" fill="#00008B"/>
<path d="M-19.46 0.0999985L20.54 20.1L-19.46 0.0999985ZM20.54 0.0999985L-19.46 20.1L20.54 0.0999985Z" fill="black"/>
<path d="M19.5 22.19L0.549999 12.72L-18.4 22.19L-20.5 18L-4.69 10.1L-20.5 2.19L-18.4 -2L0.549999 7.48L19.5 -2L21.6 2.19L5.79 10.1L21.6 18L19.5 22.19Z" fill="white"/>
<path d="M-19.4597 0.0999985L20.5403 20.1L-19.4597 0.0999985ZM20.5403 0.0999985L-19.4597 20.1L20.5403 0.0999985Z" fill="black"/>
<path d="M19.9902 21.21L0.550234 11.49L-18.8898 21.21L-20.0098 18.98L-2.24977 10.1L-20.0098 1.21L-18.8898 -1.02L0.550234 8.7L19.9902 -1.02L21.1102 1.21L3.34023 10.1L21.1102 18.98L19.9902 21.21Z" fill="#FF0000"/>
<path d="M0.540039 0.100006V23.43V0.100006ZM-19.46 10.1H27.22H-19.46Z" fill="black"/>
<path d="M3.67005 23.43H-2.57995V13.22H-19.45V6.97001H-2.57995V0.100006H3.67005V6.97001H27.2201V13.22H3.67005V23.43Z" fill="white"/>
<path d="M0.540039 0.100006V21.51V0.100006ZM-19.46 10.1H21.96H-19.46Z" fill="black"/>
<path d="M2.42005 21.5H-1.32995V11.97H-19.45V8.22001H-1.32995V0.100006H2.42005V8.22001H21.9501V11.97H2.42005V21.5Z" fill="#FF0000"/>
<path d="M-19.46 20.1H20.54V0.100006H33.88V26.77H-19.46V20.1Z" fill="#00008B"/>
<path d="M0.539942 24.1L1.69994 27.7L5.22994 26.36L3.13994 29.51L6.38994 31.44L2.62994 31.76L3.13994 35.51L0.539942 32.77L-2.06006 35.51L-1.54006 31.76L-5.31006 31.44L-2.06006 29.51L-4.15006 26.36L-0.620058 27.7L0.539942 24.1Z" fill="white"/>
<path d="M40.5398 30.58L41.0898 32.29L42.7698 31.65L41.7698 33.15L43.3398 34.1L41.5398 34.26L41.7898 36.04L40.5398 34.7L39.2998 36.01L39.5398 34.23L37.7598 34.1L39.3098 33.18L38.3098 31.68L39.9898 32.32L40.5398 30.58Z" fill="white"/>
<path d="M30.5402 14.74L31.0902 16.46L32.7702 15.82L31.7702 17.32L33.3202 18.24L31.5202 18.39L31.7702 20.17L30.5402 18.87L29.3002 20.17L29.5402 18.39L27.7402 18.24L29.2902 17.32L28.2902 15.82L29.9702 16.46L30.5402 14.74Z" fill="white"/>
<path d="M40.5402 3.91L41.0902 5.62L42.7702 4.99L41.7702 6.48L43.3202 7.4L41.5402 7.56L41.7902 9.34L40.5402 8.04L39.3002 9.34L39.5402 7.56L37.7402 7.4L39.2902 6.48L38.2902 4.99L39.9702 5.62L40.5402 3.91Z" fill="white"/>
</g>
<defs>
<clipPath id="clip0">
<path d="M0.5 12C0.5 5.37258 5.87258 0 12.5 0H28.5C35.1274 0 40.5 5.37258 40.5 12V28C40.5 34.6274 35.1274 40 28.5 40H12.5C5.87258 40 0.5 34.6274 0.5 28V12Z" fill="white"/>
</clipPath>
</defs>
</svg>
