<svg width="41" height="40" viewBox="0 0 41 40" fill="none" xmlns="http://www.w3.org/2000/svg">
<g clip-path="url(#clip0)">
<path d="M61.9275 0H-20.9297V40H61.9275V0Z" fill="#0098C3"/>
<path d="M61.9275 13.334H-20.9297V26.6673H61.9275V13.334Z" fill="#E00034"/>
<path d="M61.9275 26.666H-20.9297V39.9993H61.9275V26.666Z" fill="#00AE65"/>
<path d="M19.1863 26.0011C22.6184 26.0011 25.4006 23.3148 25.4006 20.0011C25.4006 16.6874 22.6184 14.0011 19.1863 14.0011C15.7543 14.0011 12.972 16.6874 12.972 20.0011C12.972 23.3148 15.7543 26.0011 19.1863 26.0011Z" fill="white"/>
<path d="M20.4989 25C23.3589 25 25.6775 22.7614 25.6775 20C25.6775 17.2386 23.3589 15 20.4989 15C17.6388 15 15.3203 17.2386 15.3203 20C15.3203 22.7614 17.6388 25 20.4989 25Z" fill="#E00034"/>
<path d="M28.5398 22.3547L26.7586 21.5387L26.0993 23.3327L25.4374 21.5396L23.6574 22.358L24.5026 20.6382L22.6445 20.0017L24.5017 19.3626L23.654 17.644L25.4352 18.46L26.0945 16.666L26.7564 18.4591L28.5364 17.6407L27.6912 19.3605L29.5493 19.997L27.6922 20.6361L28.5398 22.3547Z" fill="white"/>
</g>
<defs>
<clipPath id="clip0">
<path d="M0.5 12C0.5 5.37258 5.87258 0 12.5 0H28.5C35.1274 0 40.5 5.37258 40.5 12V28C40.5 34.6274 35.1274 40 28.5 40H12.5C5.87258 40 0.5 34.6274 0.5 28V12Z" fill="white"/>
</clipPath>
</defs>
</svg>
