<svg width="40" height="40" viewBox="0 0 40 40" fill="none" xmlns="http://www.w3.org/2000/svg">
<g clip-path="url(#clip0)">
<path d="M80 0H0V40H80V0Z" fill="#C8313E"/>
<path d="M80 26.6685H0V40.0019H80V26.6685Z" fill="#4AA657"/>
<path d="M8.888 0H0V40H8.888V0Z" fill="white"/>
<path d="M1.54667 0H2.704V0.656H3.09067V1.312H3.46667V1.968H3.85333V2.624H4.24V3.28H3.864V3.93333H3.46667V4.58933H3.09067V5.24533H2.704V5.90133H2.32V6.55733H1.93333V5.90133H1.54667V5.24533H1.16V4.58933H0.773333V3.93333H0.386667V3.28H0V2.624H0.386667V1.968H0.773333V1.312H1.16V0.656H1.54667V0ZM1.93333 1.312H2.32V1.968H2.704V2.624H3.09067V3.28H2.704V3.93333H2.32V4.58933H1.93333V3.93333H1.54667V3.28H1.16V2.624H1.54667V1.968H1.93333V1.312ZM1.93333 2.624H2.32V3.28H1.93333V2.624ZM0 0.656H0.386667V1.312H0V0.656ZM0 4.58933H0.386667V5.24533H0V4.58933ZM4.25067 0H4.48267V1.312H4.25067V0ZM4.25067 4.58933H4.48267V5.90133H4.25067V4.58933ZM0.784 5.90133H1.16V6.55733H1.54667V7.21333H1.93333V7.86933H1.54667V8.53333H1.16V9.18933H0.773333V8.53333H0.386667V7.86933H0V7.21333H0.386667V6.55733H0.773333L0.784 5.90133ZM0.784 7.21333H1.16V7.86933H0.773333L0.784 7.21333ZM3.10133 5.90133H3.46667V6.55733H3.85333V7.21333H4.24V7.86933H3.864V8.53333H3.46667V9.18933H3.09067V8.53333H2.704V7.86933H2.32V7.21333H2.704V6.55733H3.09067L3.10133 5.90133ZM3.10133 7.21333H3.46667V7.86933H3.09067L3.10133 7.21333ZM0 9.83733H0.386667V10.4907H0V9.83733ZM4.25067 9.18133H4.48267V10.4907H4.25067V9.18133Z" fill="#C8313E"/>
<path d="M0 11.8017H0.386667V11.1457H0.773333V10.4897H1.16V9.83636H1.54667V9.18036H1.93333V8.53236H2.32V9.18836H2.704V9.84436H3.09067V10.4977H3.46667V11.1457H3.85333V11.8017H4.24V12.4577H4.472V15.0817H4.24V15.7324H3.864V16.3884H3.46667V17.0417H3.09067V17.6977H2.704V18.3537H2.32V20.0604H1.54667V19.671H1.16V19.015H0.773333V18.359H0.386667V17.703H0V15.7324H0.386667V16.3884H0.773333V17.0417H1.16V17.6977H1.54667V17.047H1.93333V16.3937H2.32V15.7324H2.704V15.0817H3.09067V14.4257H3.46667V13.7697H3.09067V13.1137H2.704V12.4577H1.54667V13.1137H2.32V13.7697H1.93333V14.4257H1.54667V15.0817H1.16V14.4257H0.773333V13.7697H0.386667V13.1137H0V11.8017ZM0 14.4257H0.386667V15.0817H0V14.4257ZM4.25067 16.3937H4.48267V17.047H4.25067V16.3937ZM3.46667 17.703H3.85333V18.359H4.24V19.015H4.472V20.0657H4.24V19.671H3.864V19.015H3.46667V17.703ZM2.69333 19.671H3.08V20.0657H2.704L2.69333 19.671Z" fill="#C8313E"/>
<path d="M7.34162 0H6.18162V0.656H5.79495V1.312H5.40829V1.968H5.02162V2.624H4.63495V3.28H5.02162V3.93333H5.40829V4.58933H5.79495V5.24533H6.18162V5.90133H6.56829V6.55733H6.95495V5.90133H7.34162V5.24533H7.73095V4.58933H8.11495V3.93333H8.50162V3.28H8.88829V2.624H8.49895V1.968H8.11229V1.312H7.73095V0.656H7.34162V0ZM6.95495 1.312H6.56829V1.968H6.18162V2.624H5.79495V3.28H6.18162V3.93333H6.56829V4.58933H6.95495V3.93333H7.34162V3.28H7.73095V2.624H7.34162V1.968H6.95495V1.312ZM6.95495 2.624H6.56829V3.28H6.95495V2.624ZM8.88562 0.656H8.49895V1.312H8.88562V0.656ZM8.88562 4.58933H8.49895V5.24533H8.88562V4.58933ZM4.63495 0H4.40295V1.312H4.63495V0ZM4.63495 4.58933H4.40295V5.90133H4.63495V4.58933ZM8.10162 5.90133H7.73095V6.55733H7.34162V7.21333H6.95495V7.86933H7.34162V8.53333H7.73095V9.18933H8.11495V8.53333H8.50162V7.86933H8.88829V7.21333H8.49895V6.55733H8.11229L8.10162 5.90133ZM8.10162 7.21333H7.73095V7.86933H8.11495L8.10162 7.21333ZM5.78429 5.90133H5.40829V6.55733H5.02162V7.21333H4.63495V7.86933H5.02162V8.53333H5.40829V9.18933H5.79495V8.53333H6.18162V7.86933H6.56829V7.21333H6.18162V6.55733H5.79495L5.78429 5.90133ZM5.78429 7.21333H5.40829V7.86933H5.79495L5.78429 7.21333ZM8.87495 9.83733H8.49895V10.4907H8.88562L8.87495 9.83733ZM4.63495 9.18133H4.40295V10.4907H4.63495V9.18133Z" fill="#C8313E"/>
<path d="M8.88562 11.8017H8.49895V11.1457H8.11229V10.4897H7.73095V9.83636H7.34162V9.18036H6.95495V8.53236H6.56829V9.18836H6.18162V9.84436H5.79495V10.4977H5.40829V11.1457H5.02162V11.8017H4.63495V12.4577H4.40295V15.0817H4.63495V15.7324H5.02162V16.3884H5.40829V17.0417H5.79495V17.6977H6.18162V18.3537H6.56829V20.0604H7.34162V19.671H7.73095V19.015H8.11495V18.359H8.50162V17.703H8.88829V15.7324H8.49895V16.3884H8.11229V17.0417H7.73095V17.6977H7.34162V17.047H6.95495V16.3937H6.56829V15.7324H6.18162V15.0817H5.79495V14.4257H5.40829V13.7697H5.79495V13.1137H6.18162V12.4577H7.34162V13.1137H6.56829V13.7697H6.95495V14.4257H7.34162V15.0817H7.73095V14.4257H8.11495V13.7697H8.50162V13.1137H8.88829L8.88562 11.8017ZM8.88562 14.4257H8.49895V15.0817H8.88562V14.4257ZM4.63495 16.3937H4.40295V17.047H4.63495V16.3937ZM5.40829 17.703H5.02162V18.359H4.63495V19.015H4.40295V20.0657H4.63495V19.671H5.02162V19.015H5.40829V17.703ZM6.18162 19.671H5.79495V20.0657H6.18162V19.671Z" fill="#C8313E"/>
<path d="M2.33578 4.56711H1.94911V3.91111H1.56245V3.25511H1.17578V2.59911H1.56245V1.94311H1.94911V1.28711H2.33578V1.94311H2.72245V2.59911H3.10645V3.25511H2.72245V3.91111H2.33578V4.56711Z" fill="#FCFCFC"/>
<path d="M6.97641 4.56711H6.58974V3.91111H6.20307V3.25511H5.81641V2.59911H6.20307V1.94311H6.58974V1.28711H6.97641V1.94311H7.36307V2.59911H7.74974V3.25511H7.36307V3.91111H6.97641V4.56711Z" fill="#FCFCFC"/>
<path d="M2.33979 2.60044H1.95312V3.25644H2.33979V2.60044Z" fill="#C8313E"/>
<path d="M6.95307 2.62305H6.56641V3.27905H6.95307V2.62305Z" fill="#C8313E"/>
<path d="M8.13215 7.24888H7.74548V7.90488H8.13215V7.24888Z" fill="white"/>
<path d="M5.7884 7.19866H5.40173V7.85466H5.7884V7.19866Z" fill="white"/>
<path d="M3.49604 7.19922H3.10938V7.85522H3.49604V7.19922Z" fill="#FFFDFD"/>
<path d="M1.17182 7.19922H0.785156V7.85522H1.17182V7.19922Z" fill="white"/>
<path d="M1.54667 39.9996H2.704V39.3436H3.09067V38.6876H3.46667V38.0316H3.85333V37.3756H4.24V36.7223H3.864V36.0663H3.46667V35.4103H3.09067V34.7543H2.704V34.0983H2.32V33.4423H1.93333V34.0983H1.54667V34.7543H1.16V35.4103H0.773333V36.0663H0.386667V36.7223H0V37.3756H0.386667V38.0316H0.773333V38.6876H1.16V39.3436H1.54667V39.9996ZM1.93333 38.6876H2.32V38.0316H2.704V37.3756H3.09067V36.7223H2.704V36.0663H2.32V35.4103H1.93333V36.0663H1.54667V36.7223H1.16V37.3756H1.54667V38.0316H1.93333V38.6876ZM1.93333 37.3756H2.32V36.7223H1.93333V37.3756ZM0 39.3436H0.386667V38.6876H0V39.3436ZM0 35.4103H0.386667V34.7543H0V35.4103ZM4.25067 39.9996H4.48267V38.6876H4.25067V39.9996ZM4.25067 35.4103H4.48267V34.0983H4.25067V35.4103ZM0.784 34.0983H1.16V33.4423H1.54667V32.7996H1.93333V32.1436H1.54667V31.4663H1.16V30.8103H0.773333V31.4663H0.386667V32.1223H0V32.7996H0.386667V33.4556H0.773333L0.784 34.0983ZM0.784 32.7863H1.16V32.1303H0.773333L0.784 32.7863ZM3.10133 34.0983H3.46667V33.4423H3.85333V32.7996H4.24V32.1436H3.864V31.4663H3.46667V30.8103H3.09067V31.4663H2.704V32.1223H2.32V32.7996H2.704V33.4556H3.09067L3.10133 34.0983ZM3.10133 32.7863H3.46667V32.1303H3.09067L3.10133 32.7863ZM0 30.1623H0.386667V29.5089H0V30.1623ZM4.25067 30.8183H4.48267V29.5089H4.25067V30.8183Z" fill="#C8313E"/>
<path d="M0 28.197H0.386667V28.853H0.773333V29.509H1.16V30.1624H1.54667V30.8184H1.93333V31.4664H2.32V30.8104H2.704V30.1544H3.09067V29.501H3.46667V28.853H3.85333V28.197H4.24V27.541H4.472V24.917H4.24V24.2664H3.864V23.605H3.46667V22.9517H3.09067V22.2957H2.704V21.6397H2.32V19.933H1.54667V20.3277H1.16V20.9837H0.773333V21.6397H0.386667V22.2957H0V24.2664H0.386667V23.605H0.773333V22.9517H1.16V22.2957H1.54667V22.9517H1.93333V23.605H2.32V24.2664H2.704V24.9224H3.09067V25.573H3.46667V26.229H3.09067V26.885H2.704V27.541H1.54667V26.885H2.32V26.229H1.93333V25.573H1.54667V24.917H1.16V25.573H0.773333V26.229H0.386667V26.885H0V28.197ZM0 25.573H0.386667V24.917H0V25.573ZM4.25067 23.605H4.48267V22.9517H4.25067V23.605ZM3.46667 22.2957H3.85333V21.6397H4.24V20.9837H4.472V19.933H4.24V20.3277H3.864V20.9837H3.46667V22.2957ZM2.69333 20.3277H3.08V19.933H2.704L2.69333 20.3277Z" fill="#C8313E"/>
<path d="M7.33996 40.0004H6.17996V39.3444H5.79329V38.6884H5.40663V38.0324H5.01996V37.3764H4.63329V36.7231H5.01996V36.0671H5.40663V35.4111H5.79329V34.7551H6.17996V34.0991H6.56662V33.4431H6.95329V34.0991H7.33996V34.7551H7.72929V35.4111H8.11329V36.0671H8.49996V36.7231H8.88662V37.3764H8.49729V38.0324H8.11062V38.6884H7.72929V39.3444H7.33996V40.0004ZM6.95329 38.6884H6.56662V38.0324H6.17996V37.3764H5.79329V36.7231H6.17996V36.0671H6.56662V35.4111H6.95329V36.0671H7.33996V36.7231H7.72929V37.3764H7.33996V38.0324H6.95329V38.6884ZM6.95329 37.3764H6.56662V36.7231H6.95329V37.3764ZM8.88396 39.3444H8.49729V38.6884H8.88396V39.3444ZM8.88396 35.4111H8.49729V34.7551H8.88396V35.4111ZM4.63329 40.0004H4.40129V38.6884H4.63329V40.0004ZM4.63329 35.4111H4.40129V34.0991H4.63329V35.4111ZM8.09996 34.0991H7.72929V33.4431H7.33996V32.8004H6.95329V32.1444H7.33996V31.4671H7.72929V30.8111H8.11329V31.4671H8.49996V32.1231H8.88662V32.8004H8.49729V33.4564H8.11062L8.09996 34.0991ZM8.09996 32.7871H7.72929V32.1311H8.11329L8.09996 32.7871ZM5.78262 34.0991H5.40663V33.4431H5.01996V32.8004H4.63329V32.1444H5.01996V31.4671H5.40663V30.8111H5.79329V31.4671H6.17996V32.1231H6.56662V32.8004H6.17996V33.4564H5.79329L5.78262 34.0991ZM5.78262 32.7871H5.40663V32.1311H5.79329L5.78262 32.7871ZM8.87329 30.1631H8.49729V29.5098H8.88396L8.87329 30.1631ZM4.62263 30.8191H4.39062V29.5098H4.62263V30.8191Z" fill="#C8313E"/>
<path d="M8.88562 28.197H8.49895V28.853H8.11229V29.509H7.73095V30.1624H7.34162V30.8184H6.95495V31.4664H6.56829V30.8104H6.18162V30.1544H5.79495V29.501H5.40829V28.853H5.02162V28.197H4.63495V27.541H4.40295V24.917H4.63495V24.2664H5.02162V23.605H5.40829V22.9517H5.79495V22.2957H6.18162V21.6397H6.56829V19.933H7.34162V20.3277H7.73095V20.9837H8.11495V21.6397H8.50162V22.2957H8.88829V24.2664H8.49895V23.605H8.11229V22.9517H7.73095V22.2957H7.34162V22.9517H6.95495V23.605H6.56829V24.2664H6.18162V24.9224H5.79495V25.573H5.40829V26.229H5.79495V26.885H6.18162V27.541H7.34162V26.885H6.56829V26.229H6.95495V25.573H7.34162V24.917H7.73095V25.573H8.11495V26.229H8.50162V26.885H8.88829L8.88562 28.197ZM8.88562 25.573H8.49895V24.917H8.88562V25.573ZM4.63495 23.605H4.40295V22.9517H4.63495V23.605ZM5.40829 22.2957H5.02162V21.6397H4.63495V20.9837H4.40295V19.933H4.63495V20.3277H5.02162V20.9837H5.40829V22.2957ZM6.18162 20.3277H5.79495V19.933H6.18162V20.3277Z" fill="#C8313E"/>
<path d="M6.55458 35.4325H6.94125V36.0885H7.32792V36.7445H7.71458V37.4005H7.32792V38.0565H6.94125V38.7098H6.55458V38.0565H6.16792V37.4005H5.78125V36.7445H6.16792V36.0885H6.55458V35.4325Z" fill="#FCFCFC"/>
<path d="M1.91738 35.4325H2.30404V36.0885H2.69071V36.7445H3.07738V37.4005H2.69071V38.0565H2.30404V38.7098H1.91738V38.0565H1.53071V37.4005H1.14404V36.7445H1.53071V36.0885H1.91738V35.4325Z" fill="#FCFCFC"/>
<path d="M6.94526 36.7441H6.55859V37.4001H6.94526V36.7441Z" fill="#C8313E"/>
<path d="M2.31635 36.7207H1.92969V37.3767H2.31635V36.7207Z" fill="#C8313E"/>
<path d="M1.14008 32.0982H0.753418V32.7542H1.14008V32.0982Z" fill="white"/>
<path d="M3.48823 32.1465H3.10156V32.8025H3.48823V32.1465Z" fill="white"/>
<path d="M5.7812 32.1465H5.39453V32.8025H5.7812V32.1465Z" fill="#FFFDFD"/>
<path d="M8.0976 32.1465H7.71094V32.8025H8.0976V32.1465Z" fill="white"/>
</g>
<defs>
<clipPath id="clip0">
<path d="M0 12C0 5.37258 5.37258 0 12 0H28C34.6274 0 40 5.37258 40 12V28C40 34.6274 34.6274 40 28 40H12C5.37258 40 0 34.6274 0 28V12Z" fill="white"/>
</clipPath>
</defs>
</svg>
