<svg width="40" height="40" viewBox="0 0 40 40" fill="none" xmlns="http://www.w3.org/2000/svg">
<g clip-path="url(#clip0)">
<path d="M52.8588 2.85742H-12.8555V37.1431H52.8588V2.85742Z" fill="#FF0000"/>
<path d="M36 0H4V40H36V0Z" fill="#F0F0F0"/>
<path d="M19.9981 6.07227L17.755 10.4357C17.5009 10.9088 17.0453 10.8654 16.5897 10.6003L14.96 9.71569L16.1691 16.4174C16.4254 17.6403 15.6083 17.6403 15.2053 17.1031L12.3796 13.8117L11.9196 15.4917C11.8807 15.629 11.7938 15.746 11.6762 15.8196C11.5586 15.8933 11.4187 15.9182 11.2843 15.8894L7.70292 15.1031L8.64263 18.6711C8.84416 19.4665 9.00187 19.7957 8.43892 20.0037L7.16406 20.63L13.3281 25.8551C13.4515 25.9566 13.5438 26.0936 13.5936 26.2491C13.6434 26.4047 13.6486 26.572 13.6084 26.7306L13.0696 28.5797C15.1922 28.3237 17.0935 27.9397 19.2183 27.702C19.4066 27.6814 19.7199 28.006 19.7177 28.2323L19.4373 35.0026H20.469L20.3069 28.246C20.3069 28.0174 20.5895 27.6814 20.7779 27.702C22.9026 27.9305 24.804 28.3237 26.9265 28.5797L26.3877 26.7306C26.3474 26.5723 26.3525 26.4053 26.4024 26.2501C26.4522 26.0949 26.5446 25.9584 26.6681 25.8574L32.8321 20.63L31.5572 20.0014C30.9942 19.7934 31.152 19.4643 31.3535 18.6688L32.2932 15.1008L28.7118 15.8871C28.5774 15.9159 28.4376 15.891 28.3199 15.8174C28.2023 15.7437 28.1154 15.6267 28.0765 15.4894L27.6165 13.8094L24.7843 17.1214C24.3812 17.6494 23.5642 17.6494 23.8204 16.4357L25.0362 9.71569L23.413 10.5911C22.9574 10.8563 22.5018 10.8997 22.2477 10.4266" fill="#FF0000"/>
</g>
<defs>
<clipPath id="clip0">
<path d="M0 12C0 5.37258 5.37258 0 12 0H28C34.6274 0 40 5.37258 40 12V28C40 34.6274 34.6274 40 28 40H12C5.37258 40 0 34.6274 0 28V12Z" fill="white"/>
</clipPath>
</defs>
</svg>
