<svg width="40" height="40" viewBox="0 0 40 40" fill="none" xmlns="http://www.w3.org/2000/svg">
<g clip-path="url(#clip0)">
<path d="M60 0H0V40H60V0Z" fill="#DE2910"/>
<path d="M10.0029 4.00111L13.5289 14.8551L4.29688 8.14711H15.7089L6.47688 14.8551L10.0029 4.00111Z" fill="#FFDE00"/>
<path d="M18.2812 5.02759L20.7793 2.15959L20.4453 5.94959L18.4893 2.68759L21.9893 4.17559L18.2812 5.02759Z" fill="#FFDE00"/>
<path d="M22.0201 8.28335L25.4361 6.60935L23.6581 9.97135L23.1201 6.20535L25.7681 8.93535L22.0201 8.28335Z" fill="#FFDE00"/>
<path d="M22.0742 13.4519L25.8742 13.3159L22.8802 15.6619L23.9242 12.0039L25.2282 15.5759L22.0742 13.4519Z" fill="#FFDE00"/>
<path d="M18.4394 16.7492L21.9994 18.0912L18.3314 19.0992L20.7074 16.1272L20.5294 19.9272L18.4394 16.7492Z" fill="#FFDE00"/>
</g>
<defs>
<clipPath id="clip0">
<path d="M0 12C0 5.37258 5.37258 0 12 0H28C34.6274 0 40 5.37258 40 12V28C40 34.6274 34.6274 40 28 40H12C5.37258 40 0 34.6274 0 28V12Z" fill="white"/>
</clipPath>
</defs>
</svg>
