<svg width="40" height="40" viewBox="0 0 40 40" fill="none" xmlns="http://www.w3.org/2000/svg">
<g clip-path="url(#clip0)">
<path d="M58 0H-18V40H58V0Z" fill="#314199"/>
<path d="M19.9898 31.3789L20.5172 32.9362L22.1239 32.9347L20.9835 33.7957L21.297 35.4677L19.9898 34.5191L18.6783 35.4421L18.9957 33.7957L17.8672 32.9294H19.4723L19.9898 31.3789Z" fill="#F8EC26"/>
<path d="M19.9898 4.32422L20.5172 5.88193L22.1239 5.88002L20.9835 6.74135L21.297 8.41296L19.9898 7.46439L18.6783 8.38744L18.9957 6.74135L17.8672 5.87469H19.4723L19.9898 4.32422Z" fill="#F8EC26"/>
<path d="M26.5168 6.06445L27.0442 7.62179L28.6513 7.62026L27.5109 8.48121L27.8241 10.1528L26.5168 9.20464L25.2053 10.1277L25.5231 8.48121L24.3945 7.61493H25.9997L26.5168 6.06445Z" fill="#F8EC26"/>
<path d="M13.1344 6.06564L13.6618 7.62298L15.2689 7.62145L14.1285 8.4824L14.4416 10.154L13.1344 9.20583L11.8229 10.1289L12.1406 8.4824L11.0121 7.61612H12.6169L13.1344 6.06564Z" fill="#F8EC26"/>
<path d="M26.5168 29.5508L27.0442 31.1085L28.6513 31.107L27.5109 31.9679L27.8241 33.6395L26.5168 32.6914L25.2053 33.6144L25.5231 31.9679L24.3945 31.1013H25.9997L26.5168 29.5508Z" fill="#F8EC26"/>
<path d="M13.1344 29.5507L13.6618 31.1084L15.2689 31.1068L14.1285 31.9678L14.4416 33.6394L13.1344 32.6912L11.8229 33.6143L12.1406 31.9678L11.0121 31.1011H12.6169L13.1344 29.5507Z" fill="#F8EC26"/>
<path d="M8.13437 11.1719L8.66178 12.7296L10.2685 12.7277L9.12848 13.589L9.44126 15.2606L8.13437 14.3124L6.82289 15.2351L7.14026 13.589L6.01172 12.7224H7.61688L8.13437 11.1719Z" fill="#F8EC26"/>
<path d="M31.6855 11.1719L32.2129 12.7296L33.82 12.7277L32.6796 13.589L32.9928 15.2606L31.6855 14.3124L30.374 15.2351L30.6914 13.589L29.5629 12.7224H31.168L31.6855 11.1719Z" fill="#F8EC26"/>
<path d="M8.13437 24.6758L8.66178 26.2335L10.2685 26.2316L9.12848 27.0929L9.44126 28.7645L8.13437 27.816L6.82289 28.739L7.14026 27.0929L6.01172 26.2263H7.61688L8.13437 24.6758Z" fill="#F8EC26"/>
<path d="M31.6855 24.6764L32.2129 26.2341L33.82 26.2322L32.6796 27.0936L32.9928 28.7652L31.6855 27.8166L30.374 28.7397L30.6914 27.0936L29.5629 26.2269H31.168L31.6855 24.6764Z" fill="#F8EC26"/>
<path d="M6.57871 17.8712L7.10613 19.4289L8.71321 19.427L7.57282 20.2884L7.88599 21.96L6.57871 21.0114L5.26723 21.9345L5.5846 20.2884L4.45605 19.4217H6.06122L6.57871 17.8712Z" fill="#F8EC26"/>
<path d="M33.4074 17.8711L33.9348 19.4288L35.5419 19.4269L34.4015 20.2882L34.7147 21.9599L33.4074 21.0113L32.0959 21.9343L32.4137 20.2882L31.2852 19.4216H32.8899L33.4074 17.8711Z" fill="#F8EC26"/>
</g>
<defs>
<clipPath id="clip0">
<path d="M0 12C0 5.37258 5.37258 0 12 0H28C34.6274 0 40 5.37258 40 12V28C40 34.6274 34.6274 40 28 40H12C5.37258 40 0 34.6274 0 28V12Z" fill="white"/>
</clipPath>
</defs>
</svg>
