<svg width="40" height="40" viewBox="0 0 40 40" fill="none" xmlns="http://www.w3.org/2000/svg">
<g clip-path="url(#clip0)">
<path d="M59.9573 0H-20V39.9947H59.9573V0Z" fill="white"/>
<path d="M15.9813 23.984V39.9947H23.976V23.984H59.9573V15.9893H23.976V0H15.9813V15.9893H-20V23.984H15.9813Z" fill="#CF142B"/>
<path d="M26.6406 12.9467V0H52.5313L26.6406 12.9467Z" fill="#00247D"/>
<path d="M26.6406 27.0488V39.9955H52.5313L26.6406 27.0488Z" fill="#00247D"/>
<path d="M13.3135 27.0482V39.9948H-12.5745L13.3135 27.0482Z" fill="#00247D"/>
<path d="M13.3135 12.9467V0H-12.5745L13.3135 12.9467Z" fill="#00247D"/>
<path d="M59.9569 0H55.5169L28.9062 13.3307H33.3463L59.9996 0" fill="#CF142B"/>
<path d="M11.0507 26.6636H6.61067L-20 39.9943H-15.56L11.0933 26.6636" fill="#CF142B"/>
<path d="M2.20533 13.3413H6.64533L-20 0V2.23467L2.20533 13.3413Z" fill="#CF142B"/>
<path d="M37.7379 26.6576H33.2979L59.9432 39.9989V37.7643L37.7379 26.6576Z" fill="#CF142B"/>
</g>
<defs>
<clipPath id="clip0">
<path d="M0 12C0 5.37258 5.37258 0 12 0H28C34.6274 0 40 5.37258 40 12V28C40 34.6274 34.6274 40 28 40H12C5.37258 40 0 34.6274 0 28V12Z" fill="white"/>
</clipPath>
</defs>
</svg>
