<svg width="40" height="40" viewBox="0 0 40 40" fill="none" xmlns="http://www.w3.org/2000/svg">
<g clip-path="url(#clip0)">
<path d="M50 0H-10V40H50V0Z" fill="white"/>
<path d="M50 15.9989H-10V23.9989H50V15.9989Z" fill="#FF0000"/>
<path d="M24 0H16V40H24V0Z" fill="#FF0000"/>
<path d="M7 6.62995C7 6.62995 5.548 6.82995 4.032 6.91195C4.136 5.49595 4.372 4.00195 4.372 4.00195H1.628C1.628 4.00195 1.828 5.41595 1.908 6.91195C0.382 6.83395 -1 6.62995 -1 6.62995V9.37395C-1 9.37395 0.43 9.11795 1.914 9.02195C1.84 10.5759 1.628 12.0019 1.628 12.0019H4.372C4.20284 11.0173 4.08402 10.0247 4.016 9.02795C5.452 9.12795 7 9.37395 7 9.37395V6.62995Z" fill="#FF0000"/>
<path d="M7 30.628C7 30.628 5.548 30.828 4.032 30.91C4.136 29.494 4.372 28 4.372 28H1.628C1.628 28 1.828 29.414 1.908 30.91C0.382 30.832 -1 30.628 -1 30.628V33.372C-1 33.372 0.43 33.116 1.914 33.02C1.84 34.574 1.628 36 1.628 36H4.372C4.20284 35.0154 4.08402 34.0227 4.016 33.026C5.452 33.126 7 33.372 7 33.372V30.628Z" fill="#FF0000"/>
<path d="M41.0039 6.62995C41.0039 6.62995 39.5519 6.82995 38.0359 6.91195C38.1399 5.49595 38.3759 4.00195 38.3759 4.00195H35.6319C35.6319 4.00195 35.8319 5.41595 35.9119 6.91195C34.3839 6.83395 33.0039 6.62995 33.0039 6.62995V9.37395C33.0039 9.37395 34.4339 9.11795 35.9179 9.02195C35.8439 10.5759 35.6319 12.0019 35.6319 12.0019H38.3759C38.2067 11.0173 38.0879 10.0247 38.0199 9.02795C39.4559 9.12795 41.0039 9.37395 41.0039 9.37395V6.62995Z" fill="#FF0000"/>
<path d="M41.0039 30.628C41.0039 30.628 39.5519 30.828 38.0359 30.91C38.1399 29.494 38.3759 28 38.3759 28H35.6319C35.6319 28 35.8319 29.414 35.9119 30.91C34.3839 30.832 33.0039 30.628 33.0039 30.628V33.372C33.0039 33.372 34.4339 33.116 35.9179 33.02C35.8439 34.574 35.6319 36 35.6319 36H38.3759C38.2067 35.0154 38.0879 34.0227 38.0199 33.026C39.4559 33.126 41.0039 33.372 41.0039 33.372V30.628Z" fill="#FF0000"/>
</g>
<defs>
<clipPath id="clip0">
<path d="M0 12C0 5.37258 5.37258 0 12 0H28C34.6274 0 40 5.37258 40 12V28C40 34.6274 34.6274 40 28 40H12C5.37258 40 0 34.6274 0 28V12Z" fill="white"/>
</clipPath>
</defs>
</svg>
