<svg width="40" height="40" viewBox="0 0 40 40" fill="none" xmlns="http://www.w3.org/2000/svg">
<g clip-path="url(#clip0)">
<path d="M51.4286 0H-10V40H51.4286V0Z" fill="#DE2910"/>
<path d="M20.7129 19.9949C13.5283 17.0359 16.7125 7.88949 23.5841 8.34813C22.1939 9.04184 21.992 10.3569 22.7863 11.5553C23.6749 12.9049 22.7039 15.0781 21.5022 15.6058C19.5281 16.4737 19.1326 18.7899 20.7129 19.9949Z" fill="white"/>
<path d="M20.3259 13.3951L19.922 14.0149L19.7756 13.2949L19.0469 13.1107L19.7032 12.7507L19.6578 12.0176L20.2098 12.5173L20.9099 12.2477L20.5952 12.9151L21.0732 13.4823L20.3259 13.3951Z" fill="#DE2910"/>
<path d="M20.7523 19.9193C19.8822 19.4837 19.1821 18.5763 18.8775 17.4913C18.7045 16.8757 18.6643 16.2318 18.7593 15.6002C18.8543 14.9686 19.0825 14.3632 19.4295 13.8222L19.278 13.7285C18.9183 14.2903 18.6817 14.9188 18.5832 15.5744C18.4848 16.2299 18.5265 16.8983 18.7058 17.5373C19.0289 18.688 19.7442 19.6102 20.6698 20.0738L20.7523 19.9193Z" fill="#DE2910"/>
<path d="M20.7188 19.9953C21.3919 12.4056 31.2693 12.5387 32.9455 19.0649C31.8365 17.9881 30.5069 18.2035 29.5796 19.3131C28.5395 20.5575 26.1228 20.3274 25.2375 19.3739C23.7818 17.8073 21.4054 18.1558 20.7204 19.9953H20.7188Z" fill="white"/>
<path d="M27.0217 17.5959L26.293 17.4118L26.9493 17.0535L26.9039 16.3203L27.4576 16.8184L28.156 16.5488L27.8413 17.2162L28.3193 17.7833L27.572 17.6979L27.1681 18.316L27.0217 17.5959Z" fill="#DE2910"/>
<path d="M20.8056 20.0104C20.9605 19.0685 21.6286 18.1364 22.5913 17.5183C23.1369 17.1668 23.7514 16.9301 24.3958 16.8231C25.0402 16.7162 25.7003 16.7413 26.3342 16.8969L26.3779 16.7325C25.72 16.5722 25.0352 16.5467 24.3667 16.6576C23.6982 16.7685 23.0605 17.0134 22.4936 17.3769C21.4754 18.0345 20.7955 18.983 20.6289 19.9874L20.8056 20.0104Z" fill="#DE2910"/>
<path d="M20.7188 20.0041C28.3157 18.278 31.2407 27.5001 25.4041 31.0738C26.1093 29.7111 25.4883 28.5423 24.12 28.0228C22.5885 27.4409 22.0668 25.1247 22.7215 24.0085C23.7969 22.1723 22.7215 20.0632 20.7188 20.0041Z" fill="white"/>
<path d="M25.0034 25.1193L24.9563 24.3862L25.51 24.8859L26.2101 24.6163L25.8937 25.2837L26.3733 25.8509L25.6261 25.7637L25.2222 26.3835L25.0741 25.6634L24.347 25.4777L25.0034 25.1193Z" fill="#DE2910"/>
<path d="M20.7289 20.0908C21.6949 19.9445 22.8074 20.2765 23.7078 20.9785C24.2182 21.3777 24.6384 21.876 24.9417 22.4419C25.245 23.0078 25.4248 23.629 25.4698 24.2662L25.6466 24.2547C25.6008 23.5939 25.4151 22.9496 25.1014 22.3625C24.7877 21.7754 24.3527 21.2582 23.8239 20.8437C22.8713 20.1007 21.7353 19.762 20.707 19.9182L20.7289 20.0908Z" fill="#DE2910"/>
<path d="M20.7132 20.0075C24.7406 26.532 16.664 32.0981 11.3828 27.7813C12.9261 28.0147 13.8736 27.0777 13.9561 25.6443C14.0503 24.0415 16.1439 22.8399 17.4331 23.1029C19.5537 23.5352 21.2669 21.8897 20.7132 20.0059V20.0075Z" fill="white"/>
<path d="M17.0575 25.5684L17.7576 25.2988L17.4412 25.9662L17.9208 26.5334L17.1736 26.4479L16.768 27.0676L16.6233 26.346L15.8945 26.1618L16.5509 25.8035L16.5054 25.0703L17.0575 25.5684Z" fill="#DE2910"/>
<path d="M20.6298 20.046C21.0707 20.8975 21.0909 22.0351 20.6853 23.0871C20.4554 23.6847 20.1007 24.2291 19.6438 24.6855C19.1868 25.142 18.6377 25.5007 18.0312 25.7387L18.0969 25.9031C18.7261 25.6551 19.2958 25.2824 19.77 24.8085C20.2442 24.3346 20.6126 23.7697 20.8519 23.1496C21.2811 22.0367 21.2592 20.8762 20.788 19.9688L20.6298 20.046Z" fill="#DE2910"/>
<path d="M20.7067 19.9996C15.5988 25.7531 7.6838 19.975 10.2554 13.7332C10.5045 15.2407 11.7095 15.8292 13.1299 15.4659C14.7186 15.0566 16.5346 16.6297 16.6776 17.9086C16.9132 20.0128 19.0456 21.0944 20.7067 19.9996Z" fill="white"/>
<path d="M14.1616 18.3214L14.6396 18.8885L13.8923 18.8014L13.4884 19.4211L13.3403 18.6995L12.6133 18.5153L13.2696 18.157L13.2242 17.4238L13.7762 17.9219L14.4763 17.654L14.1616 18.3214Z" fill="#DE2910"/>
<path d="M20.6469 19.9407C19.9552 20.6131 18.8545 20.983 17.7034 20.9271C17.0506 20.8979 16.4111 20.7368 15.8253 20.4539C15.2395 20.1709 14.7203 19.7723 14.3004 19.2832L14.1641 19.395C14.6002 19.903 15.1394 20.3171 15.7478 20.6111C16.3561 20.9051 17.0203 21.0726 17.6983 21.103C18.9151 21.1572 20.0376 20.7742 20.7765 20.0624L20.6469 19.9407Z" fill="#DE2910"/>
</g>
<defs>
<clipPath id="clip0">
<path d="M0 12C0 5.37258 5.37258 0 12 0H28C34.6274 0 40 5.37258 40 12V28C40 34.6274 34.6274 40 28 40H12C5.37258 40 0 34.6274 0 28V12Z" fill="white"/>
</clipPath>
</defs>
</svg>
