<svg width="40" height="40" viewBox="0 0 40 40" fill="none" xmlns="http://www.w3.org/2000/svg">
<g clip-path="url(#clip0)">
<path d="M53 0H-13V40H53V0Z" fill="#E8112D"/>
<path d="M20.6006 12.841C20.0462 11.3743 21.2343 9.10768 20.0462 8.04102C20.4422 9.64102 19.1222 11.3743 19.4918 12.841C19.8614 14.3077 21.1551 14.3077 20.6006 12.841Z" fill="#FFEF00"/>
<path d="M21.7056 13.0161C21.3844 11.4806 22.909 9.42945 21.9014 8.18945C22.0444 9.83168 20.4736 11.3339 20.61 12.8428C20.7464 14.3517 22.0268 14.5539 21.7056 13.0161Z" fill="#FFEF00"/>
<path d="M22.774 13.3669C22.697 11.7981 24.5186 10.0136 23.7156 8.62695C23.6034 10.2736 21.817 11.5158 21.7202 13.0203C21.6235 14.5247 22.8598 14.9336 22.774 13.3669Z" fill="#FFEF00"/>
<path d="M23.7734 13.8807C23.9384 12.3252 26.0152 10.8452 25.4366 9.34961C25.0692 10.9563 23.1156 11.8963 22.7856 13.3718C22.4556 14.8474 23.6084 15.4407 23.7734 13.8807Z" fill="#FFEF00"/>
<path d="M24.6849 14.5464C25.0897 13.0309 27.3689 11.902 27.0279 10.3242C26.4185 11.8553 24.3417 12.4731 23.7873 13.8798C23.2329 15.2864 24.2801 16.062 24.6849 14.5464Z" fill="#FFEF00"/>
<path d="M25.4792 15.3442C26.1128 13.9109 28.5395 13.1575 28.4471 11.5664C27.6067 12.9797 25.4594 13.262 24.6938 14.5642C23.9282 15.8664 24.8412 16.7775 25.4792 15.3442Z" fill="#FFEF00"/>
<path d="M26.1376 16.2632C26.9868 14.9476 29.4992 14.5854 29.6576 12.9876C28.6082 14.2521 26.4456 14.1921 25.4776 15.3565C24.5096 16.5209 25.2796 17.5765 26.1376 16.2632Z" fill="#FFEF00"/>
<path d="M26.6497 17.2702C27.6903 16.1057 30.2291 16.1457 30.6317 14.6035C29.3997 15.6857 27.2723 15.2835 26.1459 16.2835C25.0195 17.2835 25.6069 18.4435 26.6497 17.2702Z" fill="#FFEF00"/>
<path d="M26.9964 18.3486C28.2042 17.362 30.7056 17.802 31.3436 16.3309C29.9598 17.2064 27.9204 16.4753 26.6532 17.282C25.386 18.0886 25.7864 19.3331 26.9964 18.3486Z" fill="#FFEF00"/>
<path d="M27.1735 19.466C28.5199 18.6838 30.9135 19.5149 31.7803 18.1616C30.2777 18.8082 28.3769 17.7616 26.9997 18.3593C25.6225 18.9571 25.8249 20.2482 27.1735 19.466Z" fill="#FFEF00"/>
<path d="M27.1744 20.6006C28.6264 20.0406 30.8704 21.2406 31.9264 20.0406C30.3424 20.4406 28.6264 19.1073 27.1744 19.4806C25.7224 19.8539 25.7224 21.1606 27.1744 20.6006Z" fill="#FFEF00"/>
<path d="M27 21.7209C28.5202 21.3964 30.5508 22.9364 31.7806 21.9187C30.1548 22.0631 28.6654 20.4742 27.1738 20.6142C25.6822 20.7542 25.4798 22.0453 27 21.7209Z" fill="#FFEF00"/>
<path d="M26.6536 22.7977C28.1936 22.7177 29.9734 24.5599 31.344 23.7488C29.716 23.6354 28.484 21.831 26.9968 21.7332C25.5096 21.6354 25.1004 22.8888 26.6536 22.7977Z" fill="#FFEF00"/>
<path d="M26.1421 23.809C27.6821 23.9757 29.1473 26.0735 30.6279 25.489C29.0373 25.1179 28.1067 23.1446 26.6459 22.8224C25.1851 22.5001 24.5955 23.6424 26.1421 23.809Z" fill="#FFEF00"/>
<path d="M25.4855 24.7248C26.9881 25.136 28.1035 27.4382 29.6655 27.0937C28.1519 26.4782 27.5381 24.3804 26.1455 23.8204C24.7529 23.2604 23.9851 24.316 25.4855 24.7248Z" fill="#FFEF00"/>
<path d="M24.6964 25.5263C26.1154 26.1685 26.8634 28.6196 28.4496 28.5263C27.0482 27.6774 26.7688 25.5085 25.4818 24.7352C24.1948 23.9618 23.2774 24.8885 24.6964 25.5263Z" fill="#FFEF00"/>
<path d="M23.7854 26.1965C25.0878 27.052 25.4442 29.592 27.026 29.752C25.7764 28.692 25.8358 26.5053 24.683 25.5298C23.5302 24.5542 22.483 25.3342 23.7854 26.1965Z" fill="#FFEF00"/>
<path d="M22.7866 26.7097C23.9394 27.763 23.8998 30.3274 25.4376 30.7341C24.3662 29.4897 24.7622 27.3385 23.7744 26.203C22.7866 25.0674 21.6338 25.6585 22.7866 26.7097Z" fill="#FFEF00"/>
<path d="M21.7201 27.0601C22.6969 28.2823 22.2591 30.809 23.7155 31.4534C22.8487 30.0557 23.5747 27.9956 22.7739 26.7156C21.9731 25.4356 20.7433 25.8401 21.7201 27.0601Z" fill="#FFEF00"/>
<path d="M20.6094 27.2395C21.3838 28.5995 20.5632 31.0173 21.9008 31.8929C21.2628 30.3751 22.2968 28.4529 21.705 27.064C21.1132 25.6751 19.835 25.8773 20.6094 27.2395Z" fill="#FFEF00"/>
<path d="M19.4874 27.2413C20.0418 28.708 18.8538 30.9747 20.0418 32.0413C19.6458 30.4413 20.9658 28.708 20.5962 27.2413C20.2266 25.7747 18.933 25.7791 19.4874 27.2413Z" fill="#FFEF00"/>
<path d="M18.3863 27.0653C18.7053 28.6009 17.1807 30.652 18.1905 31.8942C18.0453 30.2497 19.6183 28.7475 19.4797 27.2409C19.3411 25.7342 18.0651 25.5297 18.3863 27.0653Z" fill="#FFEF00"/>
<path d="M17.3122 26.7146C17.3914 28.2702 15.5676 30.0657 16.3728 31.4524C16.485 29.8057 18.2714 28.5635 18.3682 27.0591C18.465 25.5546 17.2352 25.1457 17.3122 26.7146Z" fill="#FFEF00"/>
<path d="M16.3124 26.2029C16.1474 27.7584 14.0706 29.2384 14.6492 30.734C15.0144 29.1251 16.9702 28.1873 17.3002 26.7095C17.6302 25.2317 16.4774 24.6406 16.3124 26.2029Z" fill="#FFEF00"/>
<path d="M15.4065 25.5356C15.0017 27.0511 12.7225 28.18 13.0613 29.7578C13.6729 28.2289 15.7497 27.6089 16.3041 26.2022C16.8585 24.7956 15.8201 24.02 15.4065 25.5356Z" fill="#FFEF00"/>
<path d="M14.6149 24.7341C13.9813 26.1674 11.5547 26.9208 11.6471 28.5252C12.4875 27.1097 14.6347 26.8275 15.4003 25.5252C16.1659 24.223 15.2507 23.3008 14.6149 24.7341Z" fill="#FFEF00"/>
<path d="M13.9497 23.82C13.1005 25.1356 10.5881 25.4956 10.4297 27.0933C11.4769 25.8289 13.6417 25.8889 14.6097 24.7244C15.5777 23.56 14.7989 22.5044 13.9497 23.82Z" fill="#FFEF00"/>
<path d="M13.4429 22.8103C12.4001 23.9747 9.86134 23.9347 9.46094 25.4769C10.6929 24.3925 12.8203 24.7947 13.9467 23.7969C15.0731 22.7992 14.4857 21.6436 13.4429 22.8103Z" fill="#FFEF00"/>
<path d="M13.0926 21.7337C11.8826 22.7181 9.38116 22.2781 8.74536 23.7492C10.1292 22.8737 12.1686 23.607 13.4358 22.7981C14.703 21.9892 14.3026 20.747 13.0926 21.7337Z" fill="#FFEF00"/>
<path d="M12.9154 20.6138C11.5668 21.396 9.17539 20.5649 8.30859 21.9183C9.81119 21.2716 11.712 22.3183 13.0892 21.7205C14.4664 21.1227 14.2618 19.8316 12.9154 20.6138Z" fill="#FFEF00"/>
<path d="M12.9164 19.4798C11.4644 20.0398 9.22043 18.8398 8.16443 20.0398C9.74843 19.6398 11.4644 20.9731 12.9164 20.5998C14.3684 20.2264 14.3684 18.9198 12.9164 19.4798Z" fill="#FFEF00"/>
<path d="M13.0892 18.3593C11.5668 18.6838 9.53619 17.1438 8.30859 18.1616C9.93439 18.0171 11.4238 19.606 12.9154 19.466C14.407 19.326 14.6094 18.0371 13.0892 18.3593Z" fill="#FFEF00"/>
<path d="M13.4358 17.283C11.8826 17.363 10.116 15.5207 8.74536 16.3318C10.3734 16.4474 11.6054 18.2496 13.0926 18.3496C14.5798 18.4496 14.9868 17.2052 13.4358 17.283Z" fill="#FFEF00"/>
<path d="M13.9467 16.2753C12.4067 16.1087 10.9415 14.0087 9.46094 14.5953C11.0515 14.9642 11.9821 16.9398 13.4429 17.262C14.9037 17.5842 15.4911 16.4464 13.9467 16.2753Z" fill="#FFEF00"/>
<path d="M14.6057 15.3552C13.1053 14.9463 11.9877 12.6419 10.4257 12.9863C11.9393 13.6041 12.5509 15.7019 13.9457 16.2619C15.3405 16.8219 16.1061 15.7641 14.6057 15.3552Z" fill="#FFEF00"/>
<path d="M15.3982 14.5532C13.9792 13.911 13.2312 11.4599 11.6406 11.5555C13.0398 12.4043 13.3214 14.571 14.6084 15.3332C15.8954 16.0955 16.815 15.1932 15.3982 14.5532Z" fill="#FFEF00"/>
<path d="M16.3014 13.8876C14.999 13.0298 14.6404 10.4898 13.0586 10.332C14.3104 11.392 14.251 13.5787 15.4038 14.5543C16.5566 15.5298 17.6038 14.7454 16.3014 13.8876Z" fill="#FFEF00"/>
<path d="M17.3003 13.3712C16.1475 12.3178 16.1871 9.75338 14.6493 9.34894C15.7207 10.5934 15.3247 12.7423 16.3125 13.88C17.3003 15.0178 18.4575 14.4245 17.3003 13.3712Z" fill="#FFEF00"/>
<path d="M18.37 13.0199C17.3932 11.7977 17.831 9.27103 16.3746 8.62659C17.2392 10.0266 16.5154 12.0866 17.314 13.3666C18.1126 14.6466 19.3402 14.2421 18.37 13.0199Z" fill="#FFEF00"/>
<path d="M19.4728 12.8428C18.6984 11.4806 19.5212 9.06501 18.1836 8.18945C18.8216 9.70723 17.7854 11.6272 18.3794 13.0161C18.9734 14.405 20.2494 14.2028 19.4728 12.8428Z" fill="#FFEF00"/>
<path d="M20.0421 27.2399C23.9788 27.2399 27.1701 24.0163 27.1701 20.0398C27.1701 16.0634 23.9788 12.8398 20.0421 12.8398C16.1054 12.8398 12.9141 16.0634 12.9141 20.0398C12.9141 24.0163 16.1054 27.2399 20.0421 27.2399Z" fill="#E8112D"/>
<path d="M27.0614 19.9335C27.0614 21.8112 26.3229 23.6121 25.0084 24.9398C23.694 26.2676 21.9111 27.0135 20.0522 27.0135C18.1932 27.0135 16.4104 26.2676 15.0959 24.9398C13.7814 23.6121 13.043 21.8112 13.043 19.9335V19.9335C13.043 18.0558 13.7814 16.255 15.0959 14.9272C16.4104 13.5994 18.1932 12.8535 20.0522 12.8535C21.9111 12.8535 23.694 13.5994 25.0084 14.9272C26.3229 16.255 27.0614 18.0558 27.0614 19.9335V19.9335Z" stroke="#FFEF00" stroke-width="2.4" stroke-linecap="round" stroke-linejoin="round"/>
<path d="M20.0413 25.0453C22.9611 25.0453 25.3279 22.6286 25.3279 19.6475C25.3279 16.6664 22.9611 14.2498 20.0413 14.2498C17.1216 14.2498 14.7548 16.6664 14.7548 19.6475C14.7548 22.6286 17.1216 25.0453 20.0413 25.0453Z" fill="#FFEF00"/>
<path d="M25.3307 16.6922C23.3485 16.7263 21.459 17.5457 20.0691 18.9737C18.6793 20.4017 17.9005 22.3241 17.9005 24.3266C17.9005 26.3291 18.6793 28.2515 20.0691 29.6795C21.459 31.1075 23.3485 31.9269 25.3307 31.9611L24.9083 32.2566C22.849 32.2218 20.8856 31.371 19.4414 29.8876C17.9973 28.4042 17.188 26.4071 17.188 24.3266C17.188 22.2461 17.9973 20.249 19.4414 18.7656C20.8856 17.2822 22.849 16.4314 24.9083 16.3966L25.3307 16.6922Z" fill="#E8112D"/>
<path d="M24.6196 16.1873C22.5057 16.2226 20.4902 17.0956 19.0076 18.6181C17.525 20.1406 16.6942 22.1906 16.6942 24.3262C16.6942 26.4618 17.525 28.5118 19.0076 30.0343C20.4902 31.5568 22.5057 32.4298 24.6196 32.4651L24.1972 32.7962C21.9968 32.7602 19.8986 31.852 18.3551 30.2675C16.8117 28.683 15.9467 26.5491 15.9467 24.3262C15.9467 22.1033 16.8117 19.9694 18.3551 18.3849C19.8986 16.8004 21.9968 15.8922 24.1972 15.8562L24.6196 16.1873Z" fill="#E8112D"/>
<path d="M23.9198 15.6277C21.6355 15.6277 19.4447 16.5443 17.8295 18.1759C16.2142 19.8074 15.3068 22.0203 15.3068 24.3277C15.3068 26.6351 16.2142 28.848 17.8295 30.4795C19.4447 32.1111 21.6355 33.0277 23.9198 33.0277L23.4974 33.3855C21.1432 33.3482 18.8979 32.3774 17.2461 30.6826C15.5943 28.9878 14.6685 26.7049 14.6685 24.3266C14.6685 21.9483 15.5943 19.6654 17.2461 17.9706C18.8979 16.2757 21.1432 15.3049 23.4974 15.2677L23.9198 15.6277Z" fill="#E8112D"/>
<path d="M14.7583 16.6922C16.7405 16.7263 18.6301 17.5457 20.0199 18.9737C21.4097 20.4017 22.1885 22.3241 22.1885 24.3266C22.1885 26.3291 21.4097 28.2515 20.0199 29.6795C18.6301 31.1075 16.7405 31.9269 14.7583 31.9611L15.1807 32.2566C17.2401 32.2218 19.2034 31.371 20.6476 29.8876C22.0918 28.4042 22.9011 26.4071 22.9011 24.3266C22.9011 22.2461 22.0918 20.249 20.6476 18.7656C19.2034 17.2822 17.2401 16.4314 15.1807 16.3966L14.7583 16.6922Z" fill="#E8112D"/>
<path d="M15.4614 16.1867C17.5753 16.222 19.5909 17.095 21.0734 18.6175C22.556 20.14 23.3869 22.19 23.3869 24.3256C23.3869 26.4612 22.556 28.5112 21.0734 30.0337C19.5909 31.5562 17.5753 32.4292 15.4614 32.4645L15.8838 32.7956C18.0842 32.7596 20.1824 31.8514 21.7259 30.2669C23.2694 28.6823 24.1344 26.5485 24.1344 24.3256C24.1344 22.1027 23.2694 19.9688 21.7259 18.3843C20.1824 16.7998 18.0842 15.8916 15.8838 15.8556L15.4614 16.1867Z" fill="#E8112D"/>
<path d="M16.1655 15.6277C18.4498 15.6277 20.6406 16.5443 22.2558 18.1759C23.8711 19.8074 24.7785 22.0203 24.7785 24.3277C24.7785 26.6351 23.8711 28.848 22.2558 30.4795C20.6406 32.1111 18.4498 33.0277 16.1655 33.0277L16.5901 33.3855C18.9443 33.3482 21.1897 32.3774 22.8415 30.6826C24.4933 28.9878 25.4191 26.7049 25.4191 24.3266C25.4191 21.9483 24.4933 19.6654 22.8415 17.9706C21.1897 16.2757 18.9443 15.3049 16.5901 15.2677L16.1655 15.6277Z" fill="#E8112D"/>
</g>
<defs>
<clipPath id="clip0">
<path d="M0 12C0 5.37258 5.37258 0 12 0H28C34.6274 0 40 5.37258 40 12V28C40 34.6274 34.6274 40 28 40H12C5.37258 40 0 34.6274 0 28V12Z" fill="white"/>
</clipPath>
</defs>
</svg>
