<svg width="40" height="40" viewBox="0 0 40 40" fill="none" xmlns="http://www.w3.org/2000/svg">
<g clip-path="url(#clip0)">
<rect width="40" height="40" rx="12" fill="#00ADEF"/>
<path d="M63 -3H-31V44H63V-3Z" fill="#00AFCA"/>
<path d="M21.1833 9.6951C21.5528 9.76382 21.7368 9.56094 21.7918 9.28449C21.8652 8.91589 21.7075 7.05961 21.7075 7.05961C21.7075 7.05961 20.8515 8.71426 20.7782 9.08286C20.7232 9.35931 20.8147 9.62179 21.1833 9.6951Z" fill="#FEC50C"/>
<path d="M22.5311 10.1039C22.8801 10.2434 23.1002 10.0803 23.2081 9.81991C23.3519 9.47269 23.5595 7.62134 23.5595 7.62134C23.5595 7.62134 22.3971 9.07719 22.2533 9.4244C22.1454 9.68481 22.1839 9.96009 22.5311 10.1039Z" fill="#FEC50C"/>
<path d="M23.7727 10.7676C24.0878 10.9725 24.3355 10.8555 24.4921 10.6212C24.7009 10.3087 25.2656 8.53337 25.2656 8.53337C25.2656 8.53337 23.8415 9.73448 23.6328 10.047C23.4762 10.2813 23.4602 10.5588 23.7727 10.7676Z" fill="#FEC50C"/>
<path d="M24.8613 11.6609C25.1304 11.9234 25.3961 11.8569 25.5954 11.6576C25.8612 11.3919 26.7614 9.76085 26.7614 9.76085C26.7614 9.76085 25.1304 10.6611 24.8646 10.9268C24.6653 11.1261 24.5956 11.3952 24.8613 11.6609Z" fill="#FEC50C"/>
<path d="M25.7545 12.7494C25.9672 13.0593 26.2408 13.046 26.4752 12.8894C26.7876 12.6806 27.9888 11.2565 27.9888 11.2565C27.9888 11.2565 26.2135 11.8212 25.901 12.03C25.6666 12.1866 25.5457 12.4369 25.7545 12.7494Z" fill="#FEC50C"/>
<path d="M26.4183 13.9912C26.5665 14.3366 26.8374 14.3769 27.0978 14.2691C27.445 14.1253 28.9009 12.9629 28.9009 12.9629C28.9009 12.9629 27.0495 13.1704 26.7023 13.3142C26.4419 13.4221 26.2745 13.644 26.4183 13.9912Z" fill="#FEC50C"/>
<path d="M26.8271 15.3387C26.9051 15.7064 27.1629 15.7988 27.4394 15.7438C27.808 15.6704 29.4626 14.8144 29.4626 14.8144C29.4626 14.8144 27.6064 14.6568 27.2378 14.7301C26.9613 14.7851 26.7538 14.9701 26.8271 15.3387Z" fill="#FEC50C"/>
<path d="M26.9647 16.74C26.9694 17.1158 27.2043 17.2568 27.4862 17.2568C27.862 17.2568 29.6519 16.74 29.6519 16.74C29.6519 16.74 27.862 16.2233 27.4862 16.2233C27.2043 16.2233 26.9647 16.3642 26.9647 16.74Z" fill="#FEC50C"/>
<path d="M26.8272 18.1413C26.7585 18.5108 26.9613 18.6948 27.2378 18.7498C27.6064 18.8232 29.4627 18.6655 29.4627 18.6655C29.4627 18.6655 27.808 17.8095 27.4394 17.7362C27.163 17.6812 26.9005 17.7727 26.8272 18.1413Z" fill="#FEC50C"/>
<path d="M26.4183 19.4888C26.2788 19.8378 26.4419 20.0579 26.7023 20.1657C27.0495 20.3096 28.9009 20.5171 28.9009 20.5171C28.9009 20.5171 27.445 19.3547 27.0978 19.2109C26.8374 19.103 26.5621 19.1416 26.4183 19.4888Z" fill="#FEC50C"/>
<path d="M25.7545 20.7306C25.5496 21.0457 25.6667 21.2934 25.901 21.45C26.2135 21.6588 27.9888 22.2235 27.9888 22.2235C27.9888 22.2235 26.7877 20.7994 26.4752 20.5906C26.2408 20.434 25.9633 20.4181 25.7545 20.7306Z" fill="#FEC50C"/>
<path d="M24.861 21.8191C24.5986 22.0881 24.665 22.3539 24.8643 22.5532C25.1301 22.8189 26.7611 23.7192 26.7611 23.7192C26.7611 23.7192 25.8609 22.0881 25.5951 21.8224C25.3958 21.6231 25.1267 21.5533 24.861 21.8191Z" fill="#FEC50C"/>
<path d="M23.7728 22.7123C23.4629 22.925 23.4762 23.1986 23.6328 23.433C23.8416 23.7455 25.2656 24.9466 25.2656 24.9466C25.2656 24.9466 24.7009 23.1713 24.4921 22.8588C24.3355 22.6244 24.0852 22.5035 23.7728 22.7123Z" fill="#FEC50C"/>
<path d="M22.5309 23.3761C22.1855 23.5243 22.1452 23.7952 22.253 24.0556C22.3968 24.4029 23.5592 25.8587 23.5592 25.8587C23.5592 25.8587 23.3517 24.0073 23.2079 23.6601C23.1 23.3997 22.8781 23.2323 22.5309 23.3761Z" fill="#FEC50C"/>
<path d="M15.7917 22.7123C15.4766 22.5075 15.229 22.6245 15.0724 22.8588C14.8636 23.1713 14.2989 24.9466 14.2989 24.9466C14.2989 24.9466 15.7229 23.7455 15.9317 23.433C16.0883 23.1986 16.1042 22.9211 15.7917 22.7123Z" fill="#FEC50C"/>
<path d="M14.7031 21.8191C14.4341 21.5566 14.1683 21.6231 13.969 21.8224C13.7033 22.0881 12.8031 23.7191 12.8031 23.7191C12.8031 23.7191 14.4341 22.8189 14.6998 22.5532C14.8991 22.3539 14.9689 22.0848 14.7031 21.8191Z" fill="#FEC50C"/>
<path d="M13.81 20.7306C13.5973 20.4207 13.3237 20.434 13.0893 20.5906C12.7768 20.7994 11.5757 22.2235 11.5757 22.2235C11.5757 22.2235 13.351 21.6588 13.6635 21.45C13.8978 21.2934 14.0188 21.0431 13.81 20.7306Z" fill="#FEC50C"/>
<path d="M13.1462 19.4888C12.998 19.1434 12.7271 19.103 12.4666 19.2109C12.1194 19.3547 10.6636 20.5171 10.6636 20.5171C10.6636 20.5171 12.5149 20.3096 12.8621 20.1657C13.1226 20.0579 13.29 19.836 13.1462 19.4888Z" fill="#FEC50C"/>
<path d="M12.7373 18.1413C12.6594 17.7736 12.4015 17.6812 12.1251 17.7362C11.7565 17.8095 10.1018 18.6655 10.1018 18.6655C10.1018 18.6655 11.9581 18.8232 12.3267 18.7499C12.6031 18.6949 12.8106 18.5099 12.7373 18.1413Z" fill="#FEC50C"/>
<path d="M12.5992 16.74C12.5945 16.3642 12.3596 16.2233 12.0778 16.2233C11.702 16.2233 9.91211 16.74 9.91211 16.74C9.91211 16.74 11.702 17.2568 12.0778 17.2568C12.3596 17.2568 12.5992 17.1158 12.5992 16.74Z" fill="#FEC50C"/>
<path d="M12.7373 15.3387C12.806 14.9692 12.6031 14.7851 12.3267 14.7301C11.9581 14.6568 10.1018 14.8145 10.1018 14.8145C10.1018 14.8145 11.7564 15.6705 12.125 15.7438C12.4015 15.7988 12.664 15.7073 12.7373 15.3387Z" fill="#FEC50C"/>
<path d="M13.1462 13.9912C13.2856 13.6422 13.1226 13.4221 12.8621 13.3142C12.5149 13.1704 10.6636 12.9629 10.6636 12.9629C10.6636 12.9629 12.1194 14.1253 12.4666 14.2691C12.7271 14.3769 13.0023 14.3384 13.1462 13.9912Z" fill="#FEC50C"/>
<path d="M13.8094 12.7494C14.0143 12.4343 13.8973 12.1866 13.663 12.03C13.3505 11.8212 11.5752 11.2565 11.5752 11.2565C11.5752 11.2565 12.7763 12.6805 13.0888 12.8893C13.3231 13.0459 13.6006 13.0619 13.8094 12.7494Z" fill="#FEC50C"/>
<path d="M14.703 11.661C14.9654 11.3919 14.899 11.1262 14.6997 10.9268C14.4339 10.6611 12.8029 9.76088 12.8029 9.76088C12.8029 9.76088 13.7031 11.3919 13.9689 11.6576C14.1682 11.857 14.4372 11.9267 14.703 11.661Z" fill="#FEC50C"/>
<path d="M19.774 23.0719C23.2666 23.0719 26.0979 20.2406 26.0979 16.748C26.0979 13.2555 23.2666 10.4242 19.774 10.4242C16.2815 10.4242 13.4502 13.2555 13.4502 16.748C13.4502 20.2406 16.2815 23.0719 19.774 23.0719Z" fill="#FEC50C"/>
<path d="M19.7819 9.55712C20.1577 9.55242 20.2987 9.31753 20.2987 9.03566C20.2987 8.65984 19.7819 6.87 19.7819 6.87C19.7819 6.87 19.2651 8.65984 19.2651 9.03566C19.2651 9.31753 19.4061 9.55712 19.7819 9.55712Z" fill="#FEC50C"/>
<path d="M21.1833 23.7848C20.8156 23.8628 20.7232 24.1206 20.7782 24.3971C20.8515 24.7657 21.7075 26.4203 21.7075 26.4203C21.7075 26.4203 21.8652 24.5641 21.7918 24.1955C21.7369 23.919 21.5519 23.7115 21.1833 23.7848Z" fill="#FEC50C"/>
<path d="M19.7821 23.9229C19.4063 23.9276 19.2653 24.1624 19.2653 24.4443C19.2653 24.8201 19.7821 26.61 19.7821 26.61C19.7821 26.61 20.2988 24.8201 20.2988 24.4443C20.2988 24.1624 20.1579 23.9229 19.7821 23.9229Z" fill="#FEC50C"/>
<path d="M18.3812 23.7849C18.0117 23.7162 17.8276 23.9191 17.7726 24.1955C17.6993 24.5641 17.8569 26.4204 17.8569 26.4204C17.8569 26.4204 18.713 24.7657 18.7863 24.3971C18.8413 24.1207 18.7498 23.8582 18.3812 23.7849Z" fill="#FEC50C"/>
<path d="M17.0338 23.3761C16.6848 23.2367 16.4647 23.3997 16.3568 23.6601C16.213 24.0073 16.0055 25.8587 16.0055 25.8587C16.0055 25.8587 17.1679 24.4029 17.3117 24.0556C17.4195 23.7952 17.381 23.52 17.0338 23.3761Z" fill="#FEC50C"/>
<path d="M15.7917 10.7677C16.1016 10.555 16.0882 10.2814 15.9316 10.047C15.7229 9.73451 14.2988 8.5334 14.2988 8.5334C14.2988 8.5334 14.8635 10.3087 15.0723 10.6212C15.2289 10.8555 15.4792 10.9765 15.7917 10.7677Z" fill="#FEC50C"/>
<path d="M17.0336 10.1039C17.379 9.95575 17.4193 9.68481 17.3114 9.4244C17.1676 9.07719 16.0052 7.62134 16.0052 7.62134C16.0052 7.62134 16.2128 9.4727 16.3566 9.81991C16.4645 10.0803 16.6863 10.2477 17.0336 10.1039Z" fill="#FEC50C"/>
<path d="M18.3807 9.69513C18.7483 9.61721 18.8407 9.35934 18.7857 9.08289C18.7124 8.71429 17.8564 7.05965 17.8564 7.05965C17.8564 7.05965 17.6988 8.91592 17.7721 9.28452C17.8271 9.56096 18.0121 9.76845 18.3807 9.69513Z" fill="#FEC50C"/>
<path fill-rule="evenodd" clip-rule="evenodd" d="M19.5626 27.7827L19.4535 28.0009L19.3323 28.2798L19.2595 28.4131L19.1989 28.5344L19.1504 28.6314L19.0898 28.692L18.9443 28.5707L18.7867 28.4616L18.6169 28.3767L18.4351 28.304L18.2411 28.2555L18.0471 28.207L17.8531 28.1706L17.647 28.1464L17.2227 28.11L16.7983 28.0979L16.3861 28.0736L15.9982 28.0252L15.7799 27.9888L15.5738 27.9403L15.4647 27.9039L15.3556 27.8675L15.2586 27.819L15.1737 27.7706L15.0404 27.6857L14.907 27.5887L14.7615 27.4796L14.6281 27.3583L14.3493 27.0916L14.0704 26.8249L13.7916 26.5703L13.537 26.3399L13.4157 26.255L13.2945 26.1702L13.1854 26.1217L13.0763 26.0853L12.8702 26.0368L12.6883 25.9762L12.5064 25.9156L12.3246 25.8307L12.167 25.758L12.0094 25.661L11.8639 25.564L11.7305 25.467L11.585 25.3579L11.4638 25.2488L11.3425 25.1275L11.2213 25.0063L10.9909 24.7517L10.7727 24.4849L10.3362 23.9151L9.87553 23.3332L9.6088 23.0543L9.32995 22.7755L9.17234 22.63L9.01473 22.4966L8.84499 22.3754L8.66313 22.242L8.62676 22.2541L8.59038 22.2905L8.55401 22.339L8.52976 22.3996L8.49339 22.5087L8.48127 22.5572L8.3964 22.5209L8.32365 22.4845L8.23879 22.4481L8.16604 22.4239H8.00843L7.92356 22.4481L7.83869 22.4845L7.92356 22.5936L8.03268 22.7391L8.14179 22.9088L8.23879 23.0907L8.33578 23.2847L8.40853 23.4665L8.43277 23.5635L8.45702 23.6363L8.46915 23.7211V23.7939H8.33578H7.81446L7.91145 23.9394L8.02057 24.0849L8.14181 24.2303L8.27517 24.3637L8.40854 24.4971L8.5419 24.6304L8.67526 24.7395L8.7965 24.8244L8.66314 24.8365L8.48128 24.8487L8.29942 24.8729L8.16605 24.885L8.27517 24.982L8.40853 25.079L8.55402 25.1881L8.71163 25.2973L8.86924 25.3942L9.02685 25.4791L9.17234 25.5276L9.30571 25.564L9.36633 25.5761L9.41482 25.5882L9.45119 25.6004L9.47544 25.6246L9.48756 25.6367V25.6852L9.47544 25.7095L9.45119 25.7822L9.43907 25.855L9.42694 25.9035V25.9398L9.43907 26.0004L9.45119 26.0489L9.47544 26.0732L9.51181 26.0974L9.56031 26.1217L9.62093 26.1338L9.68155 26.1581L9.74217 26.1823L9.80279 26.2066L9.85128 26.2429L9.86341 26.255V26.2793L9.85128 26.2914L9.80279 26.3278L9.75429 26.3642L9.7058 26.4127L9.6573 26.4733V26.5218L9.64518 26.5703L9.6573 26.6309L9.66943 26.7036L9.87554 26.7764L10.0938 26.8491L10.1908 26.8734L10.2878 26.9097L10.3605 26.9461L10.4211 26.9825L10.021 27.2977L10.1301 27.3947L10.2635 27.4675L10.4332 27.5523L10.603 27.6129L10.797 27.6736L10.9788 27.7099L11.1364 27.7463H11.2819L11.1486 27.8433L10.9788 27.9524L10.797 28.0494L10.6636 28.1464L10.7848 28.2313L10.9546 28.3161L11.1486 28.4131L11.3789 28.5222L11.9124 28.7526L12.4943 28.983L13.1005 29.2012L13.6946 29.3952L13.9613 29.48L14.2038 29.5407L14.4221 29.6013L14.616 29.6377L14.2281 29.6013L13.8644 29.5528L13.5006 29.4922L13.1612 29.4194L12.8217 29.3224L12.4943 29.2254L12.1791 29.1163L11.876 28.9951L11.2819 28.7526L10.7242 28.5101L10.4575 28.401L10.1908 28.2919L9.93617 28.1949L9.68156 28.0979L9.74219 28.0615L9.81493 28.0373L9.91193 28.0009L10.021 27.9767L10.2514 27.9039L10.4575 27.8312L10.0938 27.7705L9.59672 27.6735L9.35423 27.6008L9.14812 27.5402L9.06326 27.5038L8.99051 27.4674L8.92989 27.4311L8.89352 27.3947V27.3826L8.90564 27.3704L8.94201 27.3583L8.97839 27.3341L9.07538 27.2977L9.20874 27.2613L9.49972 27.1765L9.7422 27.0916L9.14812 26.9825L8.68741 26.9097L8.51767 26.8734L8.38431 26.8249L8.33581 26.8006L8.28732 26.7642L8.25095 26.74L8.2267 26.7036L8.26307 26.6794L8.37219 26.6551L8.5298 26.6309L8.71166 26.5945L8.90564 26.5703L9.07538 26.5218L9.16024 26.4975L9.23299 26.4733L9.28149 26.4369L9.32998 26.4005L9.23299 26.3642L9.13599 26.3278L9.01475 26.3035L8.89351 26.2793L8.61466 26.2429L8.33581 26.2065L8.19032 26.1702L8.05696 26.1459L7.9236 26.0974L7.79023 26.0489L7.66899 25.9883L7.55988 25.9034L7.46288 25.8186L7.39014 25.7095L7.41439 25.6973L7.46288 25.6852H7.5235L7.62049 25.6973L7.83872 25.7095L8.08121 25.7216L8.34794 25.7458H8.68741L8.7844 25.7337L8.85715 25.7095L8.90564 25.6852L8.61467 25.564L8.2267 25.3942L8.00847 25.2851L7.77811 25.176L7.54775 25.0548L7.3174 24.9335L7.09917 24.8002L6.89306 24.6547L6.69908 24.5092L6.52934 24.3637L6.4566 24.2788L6.38385 24.2061L6.33536 24.1333L6.28686 24.0485L6.23837 23.9757L6.21412 23.8909L6.202 23.8181L6.18987 23.7332H6.27474L6.37173 23.7454L6.46873 23.7817L6.56572 23.8181L6.7597 23.9394L6.97794 24.0606L7.07493 24.1212L7.18404 24.1818L7.29316 24.2303L7.39015 24.2667L7.49927 24.291L7.59626 24.3031H7.70538L7.80237 24.2667L7.51139 24.0485L7.18404 23.7696L6.8082 23.4423L6.43235 23.0786L6.05651 22.6906L5.70491 22.3026L5.5473 22.0965L5.38969 21.9025L5.25633 21.7085L5.13509 21.5267L5.11084 21.4782V21.3933L5.12297 21.357L5.13509 21.3206L5.17146 21.2963L5.20783 21.26L5.24421 21.2357L5.2927 21.2236L5.3412 21.2115H5.43819L5.49881 21.2236L5.5473 21.2357L5.5958 21.2721L5.63217 21.3085L5.8504 21.5267L6.105 21.7813L6.37173 22.0601L6.66271 22.339L6.95369 22.5936L7.24466 22.8361L7.39015 22.9331L7.52352 23.0179L7.669 23.0907L7.80237 23.1392L7.70537 23.0786L7.59626 22.9694L7.45077 22.824L7.29316 22.6421L6.94156 22.2177L6.55359 21.7207L6.35961 21.4539L6.17775 21.1872L6.00801 20.9205L5.83828 20.6659L5.69279 20.4234L5.57155 20.2052L5.48668 19.9991L5.41394 19.8293L5.40181 19.7687V19.6717L5.41394 19.6353L5.43818 19.599L5.46243 19.5626L5.48668 19.5383L5.52305 19.5141L5.60792 19.4899L5.68066 19.4656H5.8504L5.89889 19.4777L5.93526 19.4899L5.98376 19.5141L6.02013 19.5505L6.11712 19.6353L6.21412 19.7566L6.43235 20.0354L6.6627 20.387L6.92943 20.7629L7.20828 21.1508L7.35377 21.3327L7.49926 21.5146L7.65687 21.6722L7.82661 21.8177L7.6205 21.4176L7.39014 20.9569L7.2689 20.7023L7.15979 20.4477L7.05067 20.1809L6.95368 19.9142L6.86881 19.6353L6.78394 19.3686L6.72332 19.1019L6.67483 18.8352L6.65058 18.5805L6.63845 18.3381L6.65058 18.2168L6.6627 18.1077L6.67483 17.9986L6.69907 17.8895L6.72332 17.8531L6.73545 17.8167L6.77182 17.7804L6.79606 17.7561L6.88093 17.7197L6.9658 17.6955H7.05067L7.12341 17.7076L7.15979 17.7197L7.18404 17.7319L7.19616 17.7561L7.20828 17.7925L7.32952 18.1805L7.43864 18.5927L7.54775 19.017L7.65687 19.4292L7.76598 19.8414L7.91147 20.2294L7.98422 20.4113L8.06908 20.5931L8.16608 20.7629L8.27519 20.9326L8.20245 20.581L8.15395 20.2658L8.10546 19.9748L8.08121 19.7081L8.05696 19.4777L8.04484 19.2716L8.05696 19.1019L8.06909 18.9564L8.09333 18.8351L8.12971 18.7382L8.15395 18.7018L8.1782 18.6654L8.20245 18.6412L8.23882 18.6169L8.27519 18.6048H8.38431L8.4813 18.6412L8.5783 18.6897L8.66316 19.0776L8.74803 19.4535L8.84503 19.8051L8.95414 20.1445L9.07538 20.484L9.20874 20.8235L9.35423 21.1751L9.52397 21.5267L9.64521 21.757L9.76645 21.9874L9.89981 22.2177L10.0332 22.4481L10.1787 22.6663L10.3242 22.8846L10.4818 23.1028L10.6394 23.321L10.9304 23.6847L11.2335 24.0242L11.5487 24.3637L11.876 24.6789L12.2155 24.9941L12.5671 25.2851L12.9308 25.564L13.3067 25.8307L13.5613 26.0004L13.828 26.158L14.1068 26.3157L14.3736 26.4611L14.7979 26.6672L15.2101 26.8612L15.6466 27.031L16.0831 27.1886L16.4953 27.3219L16.9196 27.4311L17.3561 27.528L17.7804 27.6129L18.229 27.6735L18.6655 27.722L19.1141 27.7584L19.5627 27.7827" fill="#FEC50C"/>
<path fill-rule="evenodd" clip-rule="evenodd" d="M20.6672 31.4684L20.8734 31.4927L20.9703 31.529L20.9946 31.5412V31.5533H20.9703L20.9461 31.5654L20.7521 31.6018H20.5945L20.0853 31.5654L19.467 31.5533L18.8001 31.5412L18.109 31.5533L17.7817 31.5654L17.4544 31.5897L17.1634 31.6139L16.8845 31.6382L16.6542 31.6745L16.4481 31.723L16.3753 31.7473L16.3026 31.7715L16.242 31.7958L16.1935 31.8321L16.2177 31.7109L16.2662 31.5897L16.1813 31.6139L16.0965 31.6381L16.0237 31.6745L15.951 31.7109L15.8904 31.7473L15.8419 31.7958L15.8055 31.8564L15.7934 31.917L15.757 31.8321L15.7327 31.7594L15.7206 31.6745L15.7085 31.6018L15.7206 31.5412L15.7327 31.4684L15.7449 31.4078L15.7812 31.3472L15.8055 31.2987L15.854 31.2381L15.9025 31.1896L15.951 31.1411L16.0843 31.0562L16.2298 30.9713C16.3084 31.019 16.3967 31.0535 16.4844 31.0804C16.5605 31.0905 16.651 31.0782 16.739 31.0562C16.887 31.1865 17.0849 31.1705 17.2119 31.0319C17.235 31.0067 17.263 30.9679 17.2725 30.935C17.2925 30.865 17.2887 30.7734 17.2725 30.6925L17.418 30.6803L17.5877 30.6561L17.7696 30.6076L17.9635 30.5591L18.1575 30.5227L18.3394 30.4742L18.5091 30.45L18.6546 30.4379L18.594 30.4864L18.4485 30.5955L18.2788 30.7288L18.1575 30.8137L18.3151 30.8501L18.4485 30.8743L18.3515 30.9834L18.2545 31.0926L18.1575 31.2017L18.0848 31.2987L18.1818 31.335L18.2788 31.3593L18.3879 31.3835H18.6061L18.7152 31.3593L18.8243 31.335L18.9092 31.2865L19.0062 31.335L19.1032 31.3714L19.2002 31.3957L19.2972 31.4199L19.5154 31.4442L19.7458 31.4684H20.6672" fill="#FEC50C"/>
<path fill-rule="evenodd" clip-rule="evenodd" d="M16.9446 30.7775L16.9809 30.7896L17.0173 30.8017L17.0294 30.8381L17.0416 30.8745L17.0294 30.9108L17.0173 30.9472L16.9809 30.9715H16.8961L16.8718 30.9472L16.8476 30.9108L16.8354 30.8745L16.8476 30.8381L16.8718 30.8017L16.8961 30.7896L16.9446 30.7775Z" fill="#FEC50C"/>
<path fill-rule="evenodd" clip-rule="evenodd" d="M16.9304 30.8259L16.9547 30.838L16.9668 30.8622L16.9547 30.8865L16.9304 30.8986L16.9062 30.8865L16.894 30.8622L16.9062 30.838L16.9304 30.8259Z" fill="#FEC50C"/>
<path d="M16.9403 30.9927C16.8789 30.9928 16.8291 30.943 16.8291 30.8816C16.8291 30.8202 16.8789 30.7704 16.9403 30.7704C17.0017 30.7704 17.0515 30.8202 17.0515 30.8816C17.0515 30.943 17.0017 30.9928 16.9403 30.9927Z" fill="#FEC50C"/>
<path fill-rule="evenodd" clip-rule="evenodd" d="M25.9734 32.0625L25.8886 32.0988L25.8037 32.1109L25.731 32.1231L25.6704 32.1109L25.6097 32.0988L25.5491 32.0746L25.5006 32.0503L25.44 32.014L25.343 31.9412L25.246 31.8685L25.1975 31.8321L25.1369 31.8078L25.0884 31.7957H25.0278L24.9187 32.0261L24.7732 32.317L24.7247 32.3898L24.6762 32.4504L24.6277 32.4868L24.5792 32.5232L24.5186 32.5474H24.4579L24.3973 32.5232L24.3246 32.4868L24.3003 32.4504L24.2761 32.414L24.2518 32.3656L24.2276 32.3049L24.2033 32.1958L24.1912 32.1231L24.1185 32.1837L24.0457 32.2686L23.9851 32.3656L23.9124 32.4747L23.8275 32.5838L23.7426 32.6686L23.6941 32.7171L23.6335 32.7535L23.5729 32.7778L23.5002 32.802H23.4638L23.4032 32.8141L23.3425 32.802L23.294 32.7778L23.1486 32.608L22.9909 32.4383L22.8818 32.608L22.7606 32.7535L22.7 32.8141L22.6393 32.8748L22.5787 32.9233L22.5181 32.9596L22.4696 32.9839L22.409 32.996H22.3484L22.2999 32.9839L22.2514 32.9596L22.215 32.9233L22.1665 32.8626L22.1423 32.7899L22.118 32.7171L22.0695 32.5959L22.0574 32.5353L22.0331 32.4868L22.0089 32.4625H21.9846L21.6573 32.996L21.6088 33.0445L21.5239 33.0809L21.4269 33.1051L21.33 33.1293H21.2208L21.136 33.1051L21.1117 33.093L21.0753 33.0566L21.0632 33.0324V32.9839L21.1117 32.4504L21.0753 32.4625L21.0269 32.4868L20.9784 32.511L20.9299 32.5595L20.8329 32.6686L20.7237 32.7899L20.6146 32.9232L20.4813 33.0324L20.4206 33.0809L20.36 33.1293L20.2873 33.1657L20.2267 33.1778L20.1418 33.19L20.0812 33.1778L20.0569 33.1657L20.0327 33.1415L20.0206 33.1051V33.0687L20.0327 32.9111L20.0569 32.7535L20.0691 32.6686L20.0569 32.5959L20.0448 32.5232L19.9963 32.4383L19.9236 32.5474L19.8023 32.705L19.6568 32.8626L19.4992 33.0202L19.4144 33.0809L19.3295 33.1415L19.2567 33.1657L19.1961 33.19L19.1719 33.1778H19.1355L19.1113 33.1536L19.0991 33.1415L19.0749 33.1051L19.0628 33.0687V33.0202L19.0506 32.9596L19.0628 32.4989L18.7597 32.705L18.3959 32.9354L18.3111 32.9717L18.2141 33.0202L18.1292 33.0445L18.0322 33.0687L17.9474 33.093H17.8625L17.7776 33.0809L17.7049 33.0566L17.7412 32.9596L17.7776 32.8747L17.814 32.7899L17.8625 32.7171L17.911 32.6444L17.9595 32.5716L18.0201 32.511L18.0807 32.4504L18.2141 32.3534L18.3717 32.2564L18.5293 32.1837L18.7112 32.123L18.893 32.0746L19.0991 32.0382L19.3052 32.0018L19.5113 31.9776L19.9599 31.9533L20.4206 31.9412H21.3421L21.5724 31.9291L21.7907 31.9169L22.0089 31.9048L22.215 31.8806L22.4211 31.8442L22.603 31.8078L22.7848 31.7593L22.9546 31.6866L23.1122 31.6138L23.2456 31.5168L23.3789 31.4199L23.488 31.2865L23.3668 31.044L23.4638 31.0319L23.5608 31.0076L23.6578 30.9591L23.7426 30.8985L23.779 30.8743L23.8154 30.8379L23.8396 30.7894L23.8639 30.753L23.876 30.7045V30.6197L23.8518 30.5712L24.0579 30.5348L24.2761 30.5106L24.5065 30.4984H24.7489L25.246 30.5227L25.7552 30.5591L26.2765 30.6197L26.7857 30.6682L27.2828 30.7167L27.7435 30.7409V30.9106L27.7314 30.9834L27.7071 31.0561L27.6829 31.1289L27.6586 31.1895L27.6223 31.238L27.5738 31.2986L27.4889 31.3835L27.3798 31.4562L27.2707 31.5047L27.1494 31.529L27.0161 31.5532L26.8827 31.5411L26.7615 31.529L26.6281 31.4926L26.5069 31.432L26.3856 31.3714L26.2886 31.2865L26.1916 31.1895V31.3956L26.1553 31.6623L26.131 31.7957L26.0946 31.9169L26.0704 31.9654L26.034 32.0018L26.0098 32.0382L25.9734 32.0625ZM16.2256 30.9228L16.5045 31.044L16.5772 30.9834L16.6742 30.9107L16.7833 30.85L16.8803 30.7894L17.244 30.6439L17.5592 30.4984L17.7169 30.4378L17.8502 30.3651L17.9836 30.2923L18.0927 30.2196L18.3716 30.0377L18.6504 29.8559L18.9171 29.6861L19.1596 29.5164L19.3415 29.3709L19.487 29.2375L19.6446 29.092L19.8143 28.9344L19.8749 28.8738L19.9477 28.8253L20.0325 28.7768L20.1295 28.7283L20.3356 28.6313L20.5417 28.5586L20.8206 28.4858L21.1237 28.4131L21.4389 28.3525L21.7905 28.2919L22.2149 28.2434L22.6392 28.1827L23.0757 28.1342L23.5 28.0615L23.6455 28.0373L23.7789 28.0009L23.9244 27.9645L24.0698 27.9281L24.2153 27.7463L24.4457 27.4917L24.6033 27.3341L24.7852 27.1886L24.9913 27.031L25.2337 26.8734L25.5975 26.6551L25.9854 26.4611L26.3855 26.255L26.7735 26.0732L27.1372 25.8913L27.4767 25.7216L27.7555 25.5761L27.9738 25.4306L28.0344 25.2487L28.1193 25.0669L28.2284 24.885L28.3617 24.7032L28.5072 24.5092L28.6891 24.3152L28.8831 24.097L29.1256 23.8666L29.3438 23.6726L29.5741 23.4786L29.6954 23.3938L29.8166 23.3089L29.95 23.2362L30.0834 23.1634L30.2167 23.1028L30.3501 23.0543L30.4956 23.0179L30.6289 22.9815L30.7744 22.9694L30.9078 22.9573L31.0533 22.9694L31.1866 22.9937L31.1745 23.1392L31.1381 23.2847L31.0896 23.4301L31.029 23.5878L30.9442 23.7454L30.835 23.903L30.7017 24.0727L30.5441 24.2424L30.6653 24.2303L30.7744 24.2061L30.8593 24.1818L30.9442 24.1455L31.0169 24.1212L31.1018 24.097L31.2109 24.0848L31.3321 24.0727L31.3443 24.1576V24.2424L31.3321 24.3273L31.3079 24.4001L31.2715 24.4728L31.223 24.5455L31.1745 24.6062L31.1139 24.6668L30.8593 24.9093L30.6047 25.1396L30.7502 25.1518L30.9078 25.2002L31.0654 25.2487L31.1866 25.273L31.0412 25.3821L30.8714 25.4912L30.7017 25.6003L30.5077 25.7094L30.3137 25.8186L30.1197 25.9398L29.9257 26.0732L29.7439 26.2187L29.8287 26.2308L29.9379 26.2793L29.9864 26.2914L30.0349 26.3156L30.0712 26.3278L30.1076 26.3156L29.8651 26.449L29.562 26.5945L29.4165 26.6672L29.2953 26.74L29.2347 26.7764L29.1983 26.8127L29.1741 26.8491L29.1498 26.8855L29.1619 26.934L29.1862 26.9703L29.2347 27.0067L29.271 27.0431L29.2589 27.0916L29.2347 27.1279L29.1862 27.1643L29.1377 27.2007L29.0286 27.2613L28.8831 27.3219L28.7376 27.3704L28.6042 27.4189L28.5072 27.4674L28.4345 27.5038L28.677 27.7463L28.5921 27.8311L28.5072 27.8918L28.4345 27.9281L28.3496 27.9645L28.1799 27.9888H27.9495L27.9738 28.0979L28.0101 28.207L28.0344 28.3282L28.0586 28.4495L27.8525 28.6071L27.5979 28.7889L27.3191 28.9708L27.0039 29.1527L26.822 29.2497L26.6401 29.3345L26.4461 29.4073L26.24 29.48L26.0218 29.5528L25.7915 29.6013L25.549 29.6497L25.2944 29.6861L25.743 29.6982H26.1309L26.4946 29.6619L26.822 29.6255L27.1251 29.5649L27.3918 29.4921L27.6586 29.3951L27.9132 29.2981L28.2526 29.1405L28.58 28.9587L28.8952 28.7647L29.2226 28.5707L29.0286 28.4737L28.8346 28.4131L28.7376 28.3767L28.6406 28.3282L28.5315 28.2797L28.4224 28.2191L28.5194 28.1464L28.6285 28.0979L28.7618 28.0494L28.9073 28.013L29.1983 27.9524L29.5014 27.916L29.7681 27.8796L30.0106 27.8554L30.1076 27.8311L30.1925 27.8069L30.241 27.7826L30.2773 27.7463L30.2652 27.7341L30.241 27.7099L30.2046 27.6978L30.1561 27.6735L30.0227 27.6493L29.853 27.625L29.6833 27.6129L29.5135 27.5887L29.368 27.5523L29.271 27.5159L29.5984 27.4432L29.9257 27.3704L30.2167 27.3098L30.4592 27.2492L30.6653 27.1886L30.8472 27.1158L30.932 27.0794L30.9927 27.0431L31.0533 27.0067L31.1018 26.9582L31.0896 26.9461L31.0654 26.9218L31.0169 26.9097L30.9563 26.8976L30.7987 26.8855H30.6168L30.4228 26.8733L30.241 26.8612L30.0834 26.837L29.9864 26.8127L30.0712 26.7764L30.1561 26.74L30.4471 26.6551L30.7017 26.5824L30.932 26.5217L31.1503 26.449L31.3806 26.3763L31.611 26.2793L31.7201 26.2186L31.8171 26.158L31.8535 26.1216L31.8898 26.0732L31.9262 26.0368L31.9383 26.0004L31.9262 25.964L31.8898 25.9398L31.8535 25.9277H31.514L31.3564 25.9398H31.1381L31.0775 25.9277L31.029 25.9034L30.9805 25.8792L31.4655 25.5639L31.9141 25.273L32.3142 25.0184L32.6658 24.7759L32.8112 24.6546L32.9446 24.5334L33.0537 24.4122L33.1507 24.2909L33.2235 24.1576L33.2841 24.0242L33.3205 23.8787V23.7211H33.2356L33.1507 23.7332L33.0537 23.7696L32.9567 23.806L32.7628 23.9272L32.5566 24.0484L32.4475 24.1091L32.3505 24.1697L32.2414 24.2182L32.1323 24.2546L32.0353 24.2788L31.9383 24.2909H31.8292L31.7322 24.2546L32.0232 24.0363L32.3505 23.7575L32.7264 23.4301L33.1022 23.0664L33.4781 22.6784L33.8297 22.2905L33.9873 22.0844L34.1449 21.8904L34.2783 21.6964L34.3995 21.5145L34.4237 21.466L34.4359 21.4297L34.4237 21.3812L34.4116 21.3448L34.3995 21.3084L34.3631 21.2842L34.3268 21.2478L34.2904 21.2357L34.2419 21.2114L34.1934 21.1993H34.0964L34.0479 21.2114L33.9873 21.2236L33.9509 21.2599L33.9024 21.2963L33.6842 21.5145L33.4296 21.7691L33.1628 22.048L32.8719 22.3268L32.5809 22.5814L32.2899 22.8239L32.1444 22.9209L32.0111 23.0058L31.8656 23.0785L31.7443 23.1392L31.8292 23.0664L31.9383 22.9573L32.0838 22.8118L32.2414 22.6299L32.593 22.2056L32.981 21.7085L33.175 21.4418L33.3568 21.1751L33.5387 20.9205L33.6963 20.6537L33.8418 20.4113L33.963 20.193L34.06 19.9869L34.1206 19.8172L34.1328 19.7566V19.6596L34.1206 19.6232L34.0964 19.5868L34.0721 19.5505L34.0479 19.5262L34.0115 19.5141L33.9388 19.4777L33.8539 19.4535H33.6842L33.6357 19.4656L33.5993 19.4777L33.5508 19.502L33.5144 19.5383L33.4174 19.6232L33.3205 19.7444L33.1022 20.0233L32.8719 20.3749L32.6173 20.7507L32.3384 21.1387L32.1808 21.3206L32.0353 21.5024L31.8777 21.66L31.708 21.8055L31.9262 21.4054L32.1444 20.9447L32.2657 20.6901L32.3748 20.4355L32.4839 20.1688L32.5809 19.902L32.6658 19.6232L32.7506 19.3565L32.8112 19.0897L32.8597 18.823L32.884 18.5684L32.8961 18.3259L32.884 18.2047L32.8719 18.0956L32.8597 17.9864L32.8355 17.8773L32.8234 17.841L32.7991 17.8046L32.7628 17.7682L32.7385 17.744L32.6536 17.7076L32.5688 17.6833H32.4839L32.4112 17.6955L32.3869 17.7076L32.3505 17.7197L32.3384 17.744L32.3263 17.7803L32.205 18.1804L32.0959 18.5805L31.9868 19.0049L31.8777 19.4171L31.7686 19.8293L31.6231 20.2173L31.5503 20.4113L31.4655 20.581L31.3685 20.7628L31.2594 20.9205L31.3321 20.5689L31.3806 20.2536L31.4291 19.9627L31.4534 19.6959L31.4776 19.4656L31.4897 19.2595L31.4776 19.0897L31.4655 18.9442L31.4412 18.823L31.4049 18.726L31.3806 18.6896L31.3564 18.6533L31.3321 18.629L31.2957 18.6169L31.2594 18.6048L31.223 18.5926H31.1866L31.1503 18.6048L31.0533 18.629L30.9563 18.6775L30.8714 19.0655L30.7865 19.4413L30.6895 19.7929L30.5804 20.1324L30.4592 20.4719L30.3258 20.8113L30.1803 21.1629L30.0106 21.5145L29.8894 21.7449L29.7681 21.9752L29.6348 22.2056L29.5014 22.436L29.3559 22.6542L29.2104 22.8724L29.0528 23.0906L28.8952 23.3089L28.6042 23.6726L28.3011 24.0121L27.9859 24.3515L27.6585 24.6668L27.3191 24.982L26.9675 25.273L26.6037 25.5518L26.2279 25.8185L25.9733 25.9883L25.7066 26.158L25.4398 26.3156L25.1731 26.4732L24.7488 26.6672L24.3244 26.8612L23.888 27.0188L23.4515 27.1764L23.0878 27.2855L22.7241 27.3946L22.3482 27.4795L21.9724 27.5644L21.5965 27.625L21.2086 27.6735L20.8327 27.722L20.4447 27.7462L20.4084 27.7584L20.372 27.7705L20.2993 27.8069L20.2144 27.8675L20.0931 27.9766L19.9355 28.1221L19.7416 28.3161L19.5112 28.5707L19.293 28.8253L19.0384 29.1041L18.905 29.2375L18.7716 29.3709L18.614 29.4921L18.4564 29.6133L18.3352 29.6982L18.2139 29.7709L18.0806 29.8316L17.9472 29.8922L17.6562 30.0134L17.3652 30.1225L17.0743 30.2317L16.8197 30.3287L16.7106 30.3771L16.6014 30.4378L16.5044 30.4863L16.4317 30.5348L16.359 30.6075L16.2983 30.6681L16.262 30.7287L16.2377 30.7894L16.2256 30.8742L16.2256 30.9228Z" fill="#FEC50C"/>
<path d="M16.9306 30.9091C16.9056 30.9091 16.8853 30.8888 16.8853 30.8638C16.8853 30.8387 16.9056 30.8184 16.9306 30.8184C16.9557 30.8184 16.976 30.8387 16.976 30.8638C16.976 30.8888 16.9557 30.9091 16.9306 30.9091Z" fill="#FEC50C" stroke="#00AFCA" stroke-width="0.114382"/>
</g>
<defs>
<clipPath id="clip0">
<rect width="40" height="40" rx="12" fill="white"/>
</clipPath>
</defs>
</svg>
