<svg width="40" height="40" viewBox="0 0 40 40" fill="none" xmlns="http://www.w3.org/2000/svg">
<g clip-path="url(#clip0)">
<path d="M20.0001 44.2857C33.4127 44.2857 44.2858 33.4126 44.2858 20C44.2858 6.58738 33.4127 -4.28571 20.0001 -4.28571C6.58744 -4.28571 -4.28564 6.58738 -4.28564 20C-4.28564 33.4126 6.58744 44.2857 20.0001 44.2857Z" fill="#F0F0F0"/>
<path d="M42.7752 27.9365C43.7515 25.3657 44.2858 22.5852 44.2858 19.6825C44.2858 16.7798 43.7515 13.9993 42.7752 11.4286H-2.77509C-3.75126 13.9993 -4.28564 16.7798 -4.28564 19.6825C-4.28564 22.5852 -3.75126 25.3657 -2.77509 27.9365L20.0001 30L42.7752 27.9365Z" fill="#0052B4"/>
<path d="M20 45.7143C32.4446 45.7143 43.0534 37.9866 47.1429 27.1429H-7.14282C-3.05337 37.9866 7.55552 45.7143 20 45.7143Z" fill="#D80027"/>
</g>
<defs>
<clipPath id="clip0">
<path d="M0 12C0 5.37258 5.37258 0 12 0H28C34.6274 0 40 5.37258 40 12V28C40 34.6274 34.6274 40 28 40H12C5.37258 40 0 34.6274 0 28V12Z" fill="white"/>
</clipPath>
</defs>
</svg>
