<svg width="40" height="40" viewBox="0 0 40 40" fill="none" xmlns="http://www.w3.org/2000/svg">
<g clip-path="url(#clip0)">
<path d="M-10 0H49.6491V40H-10V0Z" fill="#006C35"/>
<path fill-rule="evenodd" clip-rule="evenodd" d="M27.2612 27.5C27.2605 27.5003 27.2593 27.5017 27.2587 27.5021C26.7785 27.6067 26.7934 28.0294 27.1017 28.2157C22.0311 28.2157 14.2497 28.1426 12.5809 28.1426C11.6473 28.1426 8.69358 28.048 8.63672 28.048C9.27019 28.8345 10.1878 28.9948 11.3885 29.0109L27.0459 28.9872C26.8348 29.3055 27.0651 29.8183 27.2307 29.9114C27.2342 29.9134 27.2398 29.9163 27.2433 29.9179C27.2497 29.9208 27.2565 29.923 27.2636 29.9243C27.2656 29.9247 27.2693 29.9241 27.2712 29.9243C27.4678 29.9636 27.5543 29.8427 27.6205 29.7545C27.9395 29.7783 29.7346 29.8003 29.8989 29.7523C29.8994 29.7521 29.9009 29.7503 29.9014 29.7502C30.0125 29.8891 30.1228 30.0202 30.3344 29.9974C30.7044 29.93 30.9959 29.8959 31.0051 29.2581C31.0051 29.2581 30.9674 28.1714 30.1266 28.2394C29.9278 28.2649 29.3698 28.3125 29.3698 28.3125C28.724 28.2473 28.2502 28.2406 27.5243 28.2179C27.5913 28.1457 27.7096 27.8533 27.5647 27.7473C27.5269 27.7206 27.4707 27.7057 27.3926 27.7107H27.3901C27.389 27.7107 27.3861 27.7109 27.385 27.7107C27.3845 27.7106 27.383 27.7087 27.3826 27.7086C27.3806 27.708 27.3769 27.7075 27.375 27.7065C27.3704 27.7033 27.3661 27.6997 27.3624 27.6958C27.3615 27.6948 27.3582 27.6925 27.3573 27.6915C27.3206 27.6461 27.3006 27.5348 27.2763 27.5067L27.2738 27.5045C27.2735 27.5043 27.2716 27.5025 27.2713 27.5024C27.2697 27.5016 27.268 27.5009 27.2663 27.5003H27.2612L27.2612 27.5ZM27.6055 29.0539C27.6063 29.0536 27.6071 29.0543 27.608 29.0539C28.3477 29.0846 29.0427 29.0598 29.7825 29.0905C29.8998 29.175 29.8412 29.3689 29.7648 29.4042C29.7607 29.4059 29.7565 29.4074 29.7522 29.4085C29.7495 29.4091 29.7455 29.4085 29.7421 29.4085C29.7387 29.4085 29.7353 29.4091 29.732 29.4085L29.1117 29.3935C29.1116 29.3833 29.1099 29.3732 29.1067 29.3634C29.0497 29.2199 28.6368 29.2296 28.5396 29.3419C28.5378 29.3441 28.5363 29.3461 28.5346 29.3483C28.5326 29.351 28.5309 29.3539 28.5295 29.357C28.5276 29.3605 28.526 29.3641 28.5245 29.3677C28.5229 29.3719 28.5225 29.3783 28.5219 29.3827C28.5213 29.3885 28.5189 29.3945 28.5194 29.3999C28.1954 29.4331 27.9024 29.3907 27.5777 29.3806C27.4832 29.2799 27.4935 29.0977 27.6056 29.0539H27.6055Z" fill="white"/>
<path d="M29.9078 17.2427C30.0101 17.2932 30.2792 16.9867 30.2696 16.6017C30.2993 16.4042 30.1936 15.6748 29.9252 15.5512C29.8938 15.5412 29.8606 15.537 29.8278 15.5412C29.6875 15.56 29.5548 15.68 29.6157 15.8766C29.5772 15.9918 29.806 16.3957 29.8654 16.6101C29.9187 16.7627 29.7966 17.1941 29.9076 17.2394L29.9078 17.2427ZM8.72338 11.0496C9.05191 11.1947 9.66802 11.1338 9.64197 10.6424C9.64197 10.5999 9.63163 10.453 9.62693 10.4133C9.59352 10.341 9.53142 10.3136 9.47217 10.323L9.47284 10.3232C9.41292 10.3332 9.35632 10.3789 9.33551 10.4526C9.32232 10.5018 9.35804 10.583 9.31059 10.6076C9.28335 10.636 9.17896 10.6176 9.18327 10.4805C9.18327 10.438 9.14894 10.3921 9.12833 10.3648C9.10771 10.3506 9.0936 10.3459 9.05595 10.3459C9.01042 10.3471 9.01135 10.36 8.9861 10.3945C8.97483 10.4276 8.96071 10.4664 8.96071 10.5078C8.95515 10.556 8.9344 10.5726 8.89576 10.5796C8.85308 10.5796 8.86249 10.5834 8.82842 10.5608C8.80867 10.5371 8.78382 10.5324 8.78382 10.496C8.78382 10.4629 8.77348 10.3996 8.76129 10.3755C8.74293 10.3519 8.71476 10.3424 8.68142 10.333C8.50201 10.3336 8.48889 10.5243 8.49916 10.5966C8.48611 10.6108 8.47901 10.9481 8.72391 11.0431L8.72338 11.0496ZM6.09007 11.0308C6.14044 11.147 6.04016 11.5214 6.14501 11.556C6.24138 11.5938 6.37413 11.2966 6.42457 11.0215C6.45234 10.8708 6.43119 10.355 6.05275 10.2486C6.033 10.2448 6.01325 10.2386 5.99277 10.2386C5.84802 10.2348 5.6883 10.3179 5.7506 10.479C5.71441 10.5669 6.03393 10.8636 6.09007 11.0276V11.0308ZM17.6922 11.1692C17.8808 10.6966 17.8817 10.4951 17.8943 10.2946C17.8652 10.142 17.7934 10.0683 17.7122 10.0744C17.6309 10.0844 17.541 10.1684 17.4676 10.3381C17.4046 10.4676 17.3278 11.141 17.3402 11.141C17.29 11.3418 17.5664 11.4264 17.6922 11.1694V11.1692ZM15.3481 11.0374C15.4413 11.1612 15.5332 11.1484 15.72 11.061C15.8273 10.9878 15.8636 10.9405 15.8997 10.8177C15.9443 10.6117 15.6657 10.915 15.6301 10.6854C15.5678 10.4724 15.7457 10.385 15.9146 10.1786C15.9185 10.0818 15.9202 10.0024 15.8523 10C15.8213 9.99923 15.775 10.0142 15.71 10.0506C15.564 10.1408 15.2746 10.421 15.2657 10.7424C15.2567 10.9238 15.2201 10.9229 15.348 11.0387L15.3481 11.0374ZM5.76842 14.2918C6.72738 14.3772 6.19763 12.789 6.54479 12.5007C6.61041 12.3585 6.73202 12.3556 6.74197 12.5338V13.8829C6.73302 14.3213 7.04452 14.4518 7.2861 14.5424C7.53755 14.5236 7.7043 14.5283 7.80286 14.7574L7.92269 17.0922C7.92269 17.0922 8.50393 17.2467 8.53177 15.7802C8.55941 14.9188 8.34666 14.196 8.47186 14.0285C8.47616 13.8641 8.70396 13.8556 8.86123 13.9358C9.11189 14.0998 9.2231 14.3015 9.61255 14.2203C10.2053 14.0691 10.5623 13.8022 10.571 13.3803C10.5368 12.9792 10.4864 12.578 10.299 12.177C10.3249 12.1042 10.1856 11.9148 10.2116 11.8415C10.3181 11.9965 10.4792 11.9832 10.5162 11.8415C10.4153 11.5335 10.2582 11.238 10.0045 11.1103C9.79481 10.9388 9.48781 10.9747 9.37547 11.3324C9.32331 11.7439 9.53639 12.2318 9.85969 12.6305C9.92835 12.7859 10.0245 13.0453 9.98197 13.2785C9.80985 13.3696 9.63932 13.3313 9.49517 13.1906C9.49517 13.1906 9.02348 12.8632 9.02348 12.7904C9.14854 12.0473 9.05019 11.9623 8.98119 11.756C8.93274 11.4716 8.7872 11.3813 8.66923 11.1868C8.55119 11.071 8.39113 11.071 8.31478 11.1868C8.10627 11.5217 8.2041 12.2419 8.35474 12.5636C8.46357 12.8598 8.63046 13.045 8.55192 13.045C8.48717 13.2122 8.35229 13.1734 8.25487 12.9802C8.11588 12.5805 8.08758 11.9852 8.08758 11.7167C8.04629 11.3841 7.99943 10.673 7.76309 10.4926C7.70013 10.4128 7.62563 10.3854 7.55346 10.393C7.46067 10.403 7.37325 10.4729 7.3313 10.5664C7.31586 10.8966 7.31393 11.227 7.35383 11.5314C7.51595 12.0652 7.56724 12.5349 7.64592 13.0816C7.66752 13.8141 7.18966 13.3982 7.21154 13.0344C7.32195 12.5629 7.2914 11.8203 7.19417 11.6321C7.11643 11.4441 7.02649 11.3973 6.8372 11.4285C6.68696 11.4185 6.29917 11.8121 6.19074 12.4606C6.19074 12.4606 6.10041 12.7936 6.0609 13.09C6.00788 13.425 5.76836 13.6623 5.60161 13.0427C5.45745 12.5934 5.36878 11.4854 5.12733 11.7447C5.05814 12.6096 4.97609 14.1316 5.76882 14.2878L5.76842 14.2918ZM11.9465 12.8241C11.9469 12.8243 11.9485 12.824 11.9491 12.8241C11.9495 12.8243 11.9511 12.8266 11.9515 12.8266C11.952 12.8268 11.9534 12.8266 11.954 12.8266L11.9565 12.8291C12.019 12.8668 12.7876 12.8668 12.8726 12.8316C12.8733 12.8312 12.8746 12.8291 12.8751 12.8291C12.8756 12.8287 12.8773 12.8292 12.8776 12.8291C12.8778 12.829 12.8775 12.8266 12.8776 12.8266C13.1417 12.7363 14.3952 11.4081 14.3952 11.4081C14.3303 11.3566 14.2704 11.3183 14.2055 11.2668C14.1359 11.2106 14.143 11.1563 14.2055 11.1001C14.516 10.9328 14.4176 10.564 14.2554 10.3965C14.121 10.3408 13.9945 10.3219 13.881 10.327C13.7768 10.3302 13.6746 10.3563 13.5815 10.4035C13.3637 10.5968 13.3126 10.9067 13.4842 11.1C13.6511 11.1728 13.8169 11.3287 13.7063 11.4147C13.2337 11.882 12.0059 12.6629 11.944 12.8054C11.9434 12.8068 11.9426 12.8081 11.9416 12.8092C11.9413 12.8102 11.9416 12.8129 11.9416 12.8142V12.8166C11.9422 12.818 11.943 12.8192 11.944 12.8216L11.9465 12.8242V12.8241ZM13.8065 10.7421C13.8117 10.741 13.8163 10.7396 13.8215 10.7396C13.8982 10.7296 13.9907 10.7978 14.0363 10.8898C14.0846 10.9881 14.0601 11.0822 13.9812 11.1006C13.9023 11.1194 13.8001 11.0533 13.7517 10.955C13.7033 10.8568 13.7277 10.7599 13.8066 10.742L13.8065 10.7421ZM15.5403 13.6036C15.9237 13.7506 16.1671 13.0741 16.3241 12.3333C16.4314 12.125 16.5135 12.1018 16.5686 12.2081C16.5546 13.1934 16.6448 13.4132 16.9181 13.7122C17.5277 14.1482 18.0319 13.7674 18.0714 13.7311L18.5457 13.2912C18.6513 13.1882 18.7909 13.1821 18.94 13.2724C19.085 13.3942 19.0665 13.6054 19.3769 13.7514C19.6382 13.8483 20.1961 13.775 20.3255 13.5662C20.4996 13.2894 20.5418 13.1944 20.6225 13.0895C20.7467 12.936 20.9595 13.0045 20.9595 13.0565C20.9398 13.142 20.8147 13.2261 20.8996 13.3806C21.0474 13.4831 21.0818 13.4137 21.1692 13.3947C21.4785 13.2577 21.7108 12.6357 21.7108 12.6357C21.7244 12.4037 21.5821 12.4217 21.4912 12.4689C21.3725 12.5364 21.3653 12.5592 21.2466 12.6262C21.0953 12.6498 20.8025 12.7396 20.6575 12.5312C20.5094 12.2813 20.5085 11.9327 20.3954 11.6797C20.3954 11.6608 20.1976 11.2828 20.3803 11.2588C20.4726 11.2776 20.671 11.322 20.7023 11.1685C20.7991 11.0188 20.4935 10.5938 20.2854 10.3794C20.1048 10.1956 19.8554 10.1734 19.614 10.3606C19.445 10.5046 19.47 10.6662 19.4368 10.8188C19.394 10.9942 19.402 11.2114 19.594 11.4436C19.7628 11.7516 20.0696 12.1482 19.9685 12.707C19.9685 12.707 19.7902 12.9726 19.4767 12.9385C19.3462 12.9102 19.1332 12.8596 19.0199 12.0847C18.9343 11.4981 19.0412 10.6762 18.7727 10.2914C18.7129 10.1464 18.6601 10.0051 18.5731 10.016C18.5209 10.0197 18.457 10.0834 18.3684 10.2338C18.305 10.3896 18.031 10.6259 18.2286 11.1131C18.3904 11.4216 18.4568 11.9239 18.3834 12.483C18.2713 12.6416 18.2458 12.697 18.0989 12.8552C17.8926 13.0612 17.6689 13.0083 17.4974 12.9317C17.337 12.8316 17.2111 12.7801 17.1379 12.4621C17.1511 11.9549 17.1825 11.1249 17.083 10.9488C16.9355 10.6761 16.6926 10.7739 16.5888 10.8561C16.0897 11.2789 15.8432 11.9932 15.6926 12.5614C15.5541 12.9748 15.4067 12.8558 15.3032 12.6886C15.0511 12.4693 15.0334 10.7572 14.729 11.0387C14.2416 12.3301 15.0087 13.7448 15.5403 13.6072V13.6036ZM13.5318 12.6834C13.2413 12.8289 13.1289 13.2614 13.3098 13.5141C13.4788 13.7362 13.7459 13.6554 13.7815 13.6554C14.0661 13.6885 14.2358 13.1602 14.2358 13.1602C14.2358 13.1602 14.2442 13.0114 13.9063 13.292C13.7641 13.3204 13.7447 13.2684 13.7091 13.1952C13.6795 13.0577 13.6861 12.9183 13.7537 12.7813C13.7852 12.699 13.7539 12.6466 13.6864 12.64C13.6464 12.6363 13.5927 12.65 13.5316 12.6825L13.5318 12.6834ZM32.3097 19.2769C32.2474 19.2108 32.107 19.2485 32.0126 19.2438C31.968 19.2438 31.8196 19.2202 31.8904 19.1025C31.9489 19.0274 31.9705 18.9825 32.0102 18.8894C32.0543 18.7988 32.0154 18.7378 31.8554 18.6882C31.7739 18.674 31.7175 18.6693 31.6582 18.6693C31.5989 18.6718 31.5365 18.6793 31.4461 18.6882C31.3482 18.707 31.3141 18.7472 31.2963 18.8568C31.3034 19.0236 31.4134 19.0151 31.5259 19.0812C31.5912 19.1582 31.6336 19.2277 31.5207 19.3539L31.2312 19.5854C31.1808 19.6647 31.1493 19.7876 31.3036 19.8258C31.5883 19.9 32.2471 19.5032 32.2471 19.4946C32.3538 19.4205 32.3184 19.2797 32.3095 19.2797L32.3097 19.2769ZM34.3542 12.306C34.3326 12.1586 34.2624 11.8202 34.2893 11.776C34.3325 11.6724 34.5528 11.786 34.6313 11.6673C34.7462 11.5582 34.0621 10.7465 33.8225 10.3993C33.7746 10.3124 33.7451 10.2405 33.7026 10.2443C33.6698 10.2468 33.6294 10.2968 33.5678 10.4176C33.4197 10.643 33.3681 11.0454 33.4281 11.4012C33.7848 13.6376 34.0497 15.8033 34.1045 17.7856C34.0741 17.9736 34.0651 18.0737 33.9697 18.3108C33.7592 18.5606 33.5271 18.8746 33.3083 19.0258C33.0896 19.177 32.6243 19.3211 32.4721 19.433C31.9893 19.6919 31.9861 19.9892 32.3772 20C33.0499 19.9277 33.8458 19.8766 34.394 19.1091C34.5408 18.8942 34.7135 18.3111 34.7211 17.9544C34.7724 15.8628 34.6924 13.8176 34.3541 12.306H34.3542ZM5.23562 16.4073L7.73174 15.2966C7.59528 15.1077 7.72333 14.9376 7.21014 14.924C6.42132 14.938 5.26611 15.8824 5.23562 16.4072V16.4073ZM5.68028 18.8042C5.47276 19.1949 5.38641 18.9275 5.36831 18.7092C5.33683 18.2954 5.37958 17.9142 5.42823 17.6124C5.45407 17.4575 5.45315 17.4036 5.43346 17.4041C5.41371 17.4048 5.37381 17.4598 5.32112 17.5212C4.85188 18.2144 4.81013 19.2488 5.06901 19.5576C5.20666 19.7036 5.43346 19.7673 5.60068 19.722C5.89554 19.6033 6.02505 19.0498 5.95506 18.8473C5.85671 18.7042 5.7787 18.682 5.68048 18.8048L5.68028 18.8042ZM11.5645 17.7626C11.9063 16.7077 11.5574 15.9119 11.6718 15.8143C11.6728 15.8135 11.6758 15.813 11.6771 15.8118C11.6781 15.8111 11.6809 15.8106 11.6823 15.8093C11.6834 15.8088 11.686 15.8068 11.6875 15.8068C11.6924 15.8053 11.6974 15.8045 11.7025 15.8043C12.1243 16.2252 12.716 15.8576 12.8457 15.7116C12.9014 15.639 13.0405 15.5916 13.1377 15.6833C13.4667 15.9025 14.0433 15.799 14.1637 15.4126C14.2333 15.0346 14.292 14.6454 14.3059 14.2418C14.0916 14.3036 13.9188 14.3499 13.8492 14.4175C13.8327 14.4364 13.8205 14.4506 13.8167 14.4733L13.7618 14.8087C13.7601 14.8187 13.7566 14.8276 13.752 14.8371C13.7422 14.8512 13.7281 14.8654 13.7121 14.8702C13.6363 14.908 13.5042 14.8891 13.4974 14.7847C13.3956 14.3552 12.976 14.2992 12.7211 14.9652C12.5497 15.0942 12.2369 15.1192 12.2044 14.9274C12.2457 14.4805 12.0513 14.4207 11.6628 14.6312L11.2884 12.0165C11.4506 12.0128 11.5993 12.1209 11.7477 11.9489C11.5879 11.4859 11.2476 10.5447 11.0563 10.4563C11.0548 10.4557 11.0528 10.4551 11.051 10.4538C11.0425 10.4439 11.0334 10.4344 11.0238 10.4254C11.0199 10.423 11.0159 10.4204 11.0117 10.4154C11.0081 10.413 11.0027 10.4117 10.9995 10.4054C10.9915 10.4017 10.983 10.3954 10.9745 10.3954C10.9576 10.3917 10.9398 10.3917 10.9221 10.3917H10.9222C10.8747 10.3954 10.822 10.4201 10.76 10.4342C10.5562 10.4947 10.3653 10.6577 10.4255 10.9757L11.0645 14.7267C11.1017 14.8854 10.9578 15.0952 10.7725 15.0739C10.4574 14.8764 10.3798 14.4754 9.84153 14.4932C9.45222 14.4969 9.0083 14.89 8.95289 15.2683C8.88794 15.5688 8.86488 15.8948 8.95289 16.1569C9.22576 16.4616 9.55416 16.4295 9.84153 16.3605C10.0778 16.2702 10.2721 16.0544 10.3557 16.1058C10.356 16.1061 10.358 16.1056 10.3582 16.1058C10.3584 16.1062 10.358 16.1084 10.3582 16.1084C10.4097 16.192 10.3535 16.8979 9.24484 17.4435C8.56365 17.727 8.02137 17.7945 7.72969 17.2791C7.54895 16.9569 7.74281 15.7303 7.29789 16.0133C5.9819 19.1579 10.381 19.5969 10.8723 16.1427C10.9043 16.0454 11.0011 15.9476 11.0696 15.9717C11.0991 15.9858 11.127 16.0213 11.137 16.0917C11.035 19.2191 7.7338 19.4334 7.17316 18.4497C7.03418 18.2177 6.99229 17.7016 6.97844 17.3922C6.95312 17.2052 6.90235 17.0969 6.84363 17.0544C6.71055 16.9618 6.53081 17.2047 6.4917 17.626C6.43603 17.9652 6.4518 18.0578 6.4518 18.385C6.62784 20.8551 10.876 19.7938 11.5664 17.7533L11.5645 17.7626ZM9.92345 15.6253C9.92312 15.6257 9.92365 15.6278 9.92345 15.6278C9.92279 15.6289 9.92166 15.6315 9.92093 15.6315C9.88806 15.6693 9.77154 15.6552 9.68883 15.6552C9.58862 15.6514 9.53931 15.6363 9.47913 15.5602C9.4505 15.476 9.53792 15.3934 9.57656 15.331C9.57695 15.3304 9.57868 15.3297 9.57908 15.3285C9.58425 15.3248 9.58988 15.3144 9.59644 15.3096C9.62646 15.2812 9.67816 15.2605 9.7337 15.2539C9.7445 15.2526 9.75491 15.2514 9.76618 15.2514C9.84346 15.2522 9.92504 15.2845 9.96825 15.3879C10.0001 15.4683 9.98323 15.5585 9.92358 15.6242L9.92345 15.6253ZM28.1365 19.672L27.3975 19.7456L28.1365 19.672ZM23.9703 13.2666C24.2988 13.4116 24.9175 13.3478 24.8913 12.857C24.8913 12.8144 24.8787 12.6675 24.874 12.6278C24.8406 12.5551 24.7785 12.5282 24.7192 12.5376C24.66 12.5476 24.6028 12.5947 24.582 12.6698C24.5688 12.719 24.6073 12.7978 24.5594 12.8225C24.5321 12.8508 24.4253 12.8325 24.4295 12.6972C24.4295 12.6548 24.3957 12.6066 24.3746 12.5791C24.354 12.565 24.3399 12.5602 24.3023 12.5602C24.2567 12.5616 24.2577 12.5744 24.2324 12.6089C24.2216 12.642 24.2075 12.6811 24.2075 12.7222C24.2019 12.7704 24.1836 12.787 24.1452 12.7941C24.1024 12.7941 24.1099 12.7979 24.0753 12.7752C24.0555 12.7516 24.0306 12.7469 24.0306 12.7106C24.0306 12.6774 24.0203 12.6146 24.0081 12.59C23.9902 12.5664 23.9616 12.5616 23.9283 12.5522C23.7488 12.5529 23.7382 12.7417 23.7485 12.8136C23.7354 12.8276 23.726 13.1683 23.9706 13.2623L23.9703 13.2666ZM29.2675 14.5324C29.273 14.2457 29.3031 13.8647 29.3198 13.6276C29.3269 13.5378 29.3494 13.4396 29.442 13.4169C29.5345 13.3932 29.6948 13.5029 29.6967 13.4069C29.6798 13.2245 29.6405 12.9557 29.5294 12.8284C29.4725 12.75 29.3791 12.7079 29.2823 12.7032C29.121 12.6932 28.9493 12.793 28.9053 12.9971C28.906 13.1176 28.9641 13.1838 28.9527 13.2928C28.9358 13.3552 28.8664 13.3964 28.7006 13.3212C28.7269 13.2976 28.5932 13.1242 28.5932 13.1242C28.4639 13.0515 28.2913 13.128 28.1789 13.196C28.117 13.3 28.0714 13.479 28.1418 13.6608C28.3273 13.9788 28.964 14.521 29.2676 14.5263L29.2675 14.5324ZM27.2203 18.4887C27.4492 18.49 27.7138 18.0034 27.8269 17.5216C27.8888 16.8578 27.7855 16.4539 27.767 16.0638C27.7481 15.6736 27.2906 12.5084 27.1978 12.2132C27.086 11.6552 27.643 12.1394 27.5822 11.8154C27.3897 11.4062 26.909 10.8096 26.7586 10.4548C26.702 10.3594 26.695 10.2715 26.6487 10.2791C26.621 10.2841 26.5799 10.3216 26.5039 10.4156C26.316 10.9851 26.2499 11.4503 26.3217 11.804C26.8043 14.139 27.2988 16.2662 27.2203 18.489V18.4887ZM25.5031 18.0122C24.9748 18.5235 24.2131 19.1538 23.3839 19.4446C23.2947 19.5372 23.6056 19.9332 24.0079 19.9328C24.6806 19.8606 25.2718 19.5104 25.8201 18.5884C25.9668 18.3734 26.2244 17.9131 26.2321 17.5563C26.2834 15.4647 26.1189 13.8384 25.7803 12.3267C25.7587 12.1793 25.7732 12.0059 25.8 11.961C25.8432 11.9128 25.9913 11.9622 26.0696 11.8429C26.1845 11.7342 25.7626 10.8318 25.523 10.4845C25.475 10.3975 25.4455 10.3282 25.4031 10.3319C25.3703 10.3344 25.3299 10.382 25.2683 10.5034C25.1201 10.7288 25.0195 11.1202 25.0311 11.4869C25.3519 13.5465 25.4504 15.3488 25.6601 17.4084C25.6771 17.6078 25.6455 17.897 25.5029 18.0124L25.5031 18.0122ZM26.8843 17.1682C26.8922 17.1398 26.8909 17.1398 26.8843 17.1682V17.1682ZM24.1921 11.3616C24.3094 11.6659 24.1026 11.956 24.2246 11.998C24.3368 12.0452 24.493 11.6834 24.5516 11.35C24.6193 11.0803 24.4116 10.5271 24.1172 10.413C24.0947 10.408 24.0708 10.408 24.0474 10.403C23.879 10.398 23.6928 10.497 23.7653 10.6921C23.723 10.7988 24.127 11.1612 24.1921 11.3585V11.3616ZM30.1243 14.5202C30.1152 14.5188 30.1059 14.5197 30.0971 14.5227L28.537 15.5616C28.3861 15.6864 28.4616 16.1236 28.537 16.0731C28.6462 16.1108 30.1788 15.1491 30.1495 15.0364C30.2164 15.0401 30.2485 14.541 30.1247 14.5204L30.1243 14.5202ZM29.0526 11.7107C29.5155 12.2387 29.9682 12.7756 30.4105 13.3212C30.5068 14.4702 30.5325 15.5233 30.6302 16.6741C30.6166 17.1664 30.453 17.82 30.2983 17.8821C30.2983 17.8821 30.0619 18.0077 29.9039 17.868C29.7891 17.8254 29.3298 17.1575 29.3298 17.1575C29.0947 16.9576 28.9379 17.0148 28.7707 17.1575C28.3094 17.5704 28.1007 18.344 27.7872 18.8768C27.7064 18.9958 27.4787 19.0965 27.2257 18.8668C26.7049 18.2066 26.8526 17.3216 26.885 17.1673L26.8785 17.1957C26.3058 17.7939 26.5595 18.7851 26.6888 18.9984C26.8775 19.3484 27.0302 19.5726 27.3977 19.7457C27.7324 19.9739 27.9928 19.8317 28.1365 19.672C28.4732 19.3483 28.4777 18.5213 28.6357 18.3576C28.7466 18.0567 29.0244 18.1086 29.16 18.2419C29.2912 18.4167 29.4463 18.531 29.6391 18.626C29.9533 18.8825 30.3281 18.9293 30.6976 18.6955C30.95 18.5642 31.1138 18.3931 31.2617 18.0568C31.4203 17.6637 31.3419 15.6028 31.3063 14.4562L32.0102 15.4026C32.1123 16.4084 32.1587 17.4002 32.1251 18.3506C32.1011 18.5396 32.8364 17.7864 32.8315 17.4296V16.5711C33.1883 17.0991 33.5335 17.6359 33.8599 18.1794C34.0621 18.0806 33.9928 17.0184 33.8651 16.872C33.5233 16.3404 33.0857 15.766 32.7468 15.3216C32.6798 14.76 32.5885 14.099 32.5471 13.8961C32.4826 13.5801 32.4177 13.1051 32.3199 12.7299C32.2931 12.5834 32.2121 12.1154 32.2377 12.0705C32.2776 11.9661 32.428 12.0742 32.5022 11.9524C32.6133 11.8398 32.1175 10.6493 31.8657 10.3094C31.7752 10.1568 31.6115 10.2098 31.4089 10.4577C31.2209 10.6207 31.289 10.9926 31.3615 11.3463C31.5479 12.2477 31.7141 13.1658 31.8457 14.0815L31.0119 12.9476L30.9748 12.769C30.9748 12.7502 30.9349 12.0317 30.8999 11.8597C30.8934 11.7899 30.8761 11.77 30.9549 11.779C31.0386 11.8441 31.0499 11.8475 31.1022 11.8692C31.1868 11.8834 31.2605 11.7511 31.2096 11.6288L30.4258 10.2866C30.3944 10.2583 30.3591 10.2276 30.3184 10.222C30.2781 10.2169 30.2335 10.236 30.1836 10.3026C30.0883 10.3802 29.9858 10.5204 29.9889 10.7004C30.012 11.0179 30.0731 11.3431 30.0963 11.6608L30.1212 11.7879C30.0937 11.7547 30.0646 11.723 30.0338 11.6929C29.366 11.0425 30.34 11.5866 29.9064 11.0842C29.5393 10.7106 29.4319 10.5916 29.1177 10.3669C28.9601 10.2724 28.8649 10.092 28.8131 10.3953C28.7934 10.665 28.7713 10.9777 28.7911 11.2053C28.7899 11.3314 28.9312 11.5695 29.0531 11.7097L29.0526 11.7107ZM32.9245 12.2324C32.9778 12.385 32.8432 12.8766 32.9541 12.922C33.0563 12.9724 33.2002 12.5822 33.2536 12.2208C33.2832 12.0233 33.1251 11.3286 32.8566 11.205C32.8355 11.2012 32.8139 11.195 32.7918 11.195C32.6383 11.1912 32.471 11.298 32.5372 11.5096C32.4987 11.6249 32.8646 12.0172 32.9241 12.2316L32.9245 12.2324ZM21.2864 19.3509C21.2864 19.365 21.415 19.4648 21.566 19.3793C21.8846 19.2664 22.0832 19.1568 22.5294 19.067C22.6466 19.0645 22.6398 18.7741 22.4545 18.7642C22.2129 18.7783 21.9897 18.7878 21.748 18.9631C21.5994 18.9914 21.5739 18.9111 21.5408 18.836C21.5033 18.6494 21.6259 18.5176 21.6008 18.3777C21.6073 18.3827 21.5257 18.3158 21.421 18.3106C21.383 18.3093 21.3451 18.3156 21.3113 18.3342C21.3046 18.3342 20.9752 18.5402 20.8695 18.6834C20.8048 18.7306 20.8122 18.7684 20.8324 18.8478C20.8827 18.955 20.9713 18.9215 21.072 18.8714C21.2056 18.8525 21.2702 18.9356 21.2592 19.0844C21.1975 19.2696 21.2864 19.3391 21.2864 19.3509ZM22.793 16.4021L22.7955 16.3996C22.7957 16.3994 22.7977 16.3971 22.798 16.3971C22.7982 16.3968 22.8 16.3958 22.8004 16.3946V16.3896C22.8007 16.3816 22.7999 16.3737 22.798 16.366L22.6532 16.2871L19.8001 16.273C19.7648 16.2588 19.7386 16.2446 19.7227 16.2398C19.7209 16.2382 19.7192 16.2365 19.7174 16.2348L19.715 16.2324L19.7125 16.2298L19.71 16.2261L19.7076 16.2236V16.2211L19.705 16.2186V16.2086V16.1961L19.7076 16.1936L19.71 16.1898C19.7232 16.171 19.7577 16.1567 19.7999 16.1412C20.4812 16.0552 21.6915 15.8714 21.7719 14.7922C21.7588 14.2307 21.5125 13.8621 20.7685 13.76C20.2218 13.7978 19.832 14.2895 19.8948 14.8292C19.869 14.9742 19.9479 15.2601 19.7874 15.2917C18.7388 15.3806 17.5943 15.989 17.5559 16.4256H17.5534L17.5509 16.428L17.5456 16.4306H17.5404C17.5379 16.4314 17.5352 16.4318 17.533 16.433H17.518C17.5147 16.4324 17.5114 16.4318 17.5082 16.4306C17.44 16.4117 17.3522 16.3087 17.3659 16.1622C17.326 15.4086 17.0614 14.5558 16.647 13.8991C16.4992 13.7621 16.434 13.7068 16.3925 13.7002C16.3911 13.7001 16.3888 13.7002 16.3872 13.7002H16.3717C16.3691 13.701 16.3667 13.7023 16.3646 13.704C16.3625 13.7057 16.3608 13.7078 16.3595 13.7102C16.3569 13.7115 16.3544 13.7127 16.3521 13.714C16.3202 13.7376 16.2821 13.7877 16.1973 13.8434C16.0544 13.9941 16.0288 14.099 16.0376 14.4011C16.0455 14.4294 16.3089 15.1107 16.5318 15.5881C16.6821 16.0836 16.8211 16.6512 16.719 17.1871C16.3671 17.8956 15.6596 18.5311 14.9768 18.8763C14.6288 18.9793 14.3285 18.9443 14.2479 18.8738L14.2456 18.8713C14.0459 18.7465 14.0413 18.526 14.0536 18.4872V18.4847L14.056 18.4822C14.6323 18.1099 15.2904 17.8096 15.8057 16.8046C15.958 16.4204 16.0044 16.1902 15.8532 15.5966C15.7943 15.3756 15.7213 15.1936 15.5586 15.0366L15.5611 15.0342C15.6592 14.9916 15.9137 15.1646 15.953 15.0578C15.8927 14.7743 15.6858 14.394 15.4513 14.1993C15.246 14.0264 15.0226 14.0065 14.8347 14.1662C14.6231 14.2753 14.578 14.6675 14.6799 15.0108C14.7931 15.2692 15.0988 15.3141 15.3165 15.8345V15.837C15.321 15.8654 15.3912 16.2258 15.2817 16.3692C15.1927 16.6262 14.0503 17.4614 13.9687 17.5123C13.9678 17.5132 13.9621 17.516 13.9611 17.5173L13.9586 17.5198C13.9578 17.5205 13.957 17.521 13.9561 17.5223C13.9553 17.5231 13.9545 17.5236 13.9537 17.5248H13.9484C13.9476 17.524 13.9467 17.5235 13.9459 17.5223V17.5198C13.9449 17.5183 13.944 17.5166 13.9435 17.5148C13.94 17.4912 13.9461 17.441 13.9435 17.3551C13.9359 17.1988 14.0058 16.8443 14.0008 16.7835V16.781L13.9983 16.7785V16.776H13.9958C13.6181 17.0018 13.4933 17.6955 13.4243 17.9007C12.4678 18.5134 11.3808 18.9692 10.756 19.5899C10.4301 20.0614 13.0007 19.0483 13.2995 18.9258C13.3022 18.927 13.3048 18.9308 13.307 18.9358C13.3637 18.9934 13.3687 19.1956 13.5391 19.3775C13.8062 19.7129 14.3743 19.9196 14.927 19.7914C15.8538 19.481 16.3878 18.8952 16.9314 18.2456C17.0091 18.1408 17.1309 18.0585 17.2434 18.1394C17.6169 18.9147 18.694 19.4663 20.0865 19.5232C20.4086 19.1598 20.2546 18.9814 20.1236 18.9053C20.0837 18.8769 19.4311 18.6445 19.3299 18.4101C19.266 18.1918 19.421 17.9981 19.7317 17.8524C20.6258 17.7523 21.5046 17.6408 22.3552 17.3875C22.3636 17.1225 22.5322 16.7265 22.6448 16.5544C22.723 16.435 22.7732 16.4231 22.792 16.4061L22.793 16.4021ZM20.4399 14.7413C20.4418 14.7313 20.445 14.7272 20.4497 14.7176C20.4513 14.7152 20.4528 14.7139 20.4549 14.7076L20.4574 14.7052C20.4611 14.7002 20.4653 14.6952 20.4696 14.691C20.4874 14.6769 20.5132 14.6674 20.542 14.6626C20.6041 14.6576 20.6856 14.6768 20.764 14.7184C20.8777 14.7794 20.9478 14.8715 20.9388 14.9386C20.9385 14.9398 20.9392 14.9423 20.9388 14.9486C20.9384 14.9498 20.9344 14.9523 20.9336 14.9586L20.9311 14.9686C20.9306 14.9696 20.9291 14.9723 20.9286 14.9723C20.9278 14.9736 20.927 14.9748 20.9261 14.9773C20.9219 14.9823 20.9167 14.9914 20.9111 14.9962C20.8565 15.0435 20.7304 15.034 20.6115 14.9726C20.499 14.912 20.4294 14.8195 20.4369 14.7529C20.4371 14.7516 20.439 14.7491 20.4393 14.7429L20.4399 14.7413ZM19.2992 17.3904C18.993 17.4877 18.699 17.5637 18.6977 17.9735C18.7377 18.1766 18.7292 18.2829 18.6953 18.332C18.6923 18.3358 18.6892 18.342 18.6854 18.3462L18.6829 18.3487L18.6805 18.3512C18.6797 18.352 18.6788 18.3525 18.678 18.3537L18.6755 18.3562C18.6737 18.3569 18.672 18.3575 18.6702 18.3587C18.6656 18.3624 18.6605 18.3624 18.6552 18.3687C18.651 18.37 18.6449 18.37 18.6402 18.3712C18.5675 18.3812 18.4618 18.3168 18.3831 18.2786C18.1943 18.1529 17.6646 17.8486 17.5893 17.1956C17.5785 17.0482 17.6975 16.9211 17.8889 16.9088C17.8983 16.9082 17.9062 16.9088 17.916 16.9088H17.9213C18.2391 16.9887 18.7076 16.9972 19.1145 17.0359C19.4458 17.0548 19.6095 17.2958 19.2992 17.3968V17.3904ZM12.6048 16.488C12.5973 16.6056 12.955 16.7487 12.9767 17.0202C13.0279 17.1322 12.9001 17.4912 13.0068 17.5246C13.1045 17.5623 13.2401 17.2766 13.2913 17.0109C13.3195 16.8654 13.1686 16.3566 12.9119 16.2658C12.872 16.2558 12.8306 16.2517 12.7897 16.2558C12.6657 16.2658 12.555 16.3253 12.6049 16.4873L12.6048 16.488ZM18.3549 14.8308C18.6834 14.9758 19.4665 14.8908 19.2759 14.4216C19.2759 14.3791 19.2632 14.2322 19.2585 14.1925C19.2251 14.1202 19.1631 14.0928 19.1038 14.1022C19.0445 14.1122 18.9873 14.158 18.9665 14.2317C18.9533 14.2808 18.9918 14.3621 18.9444 14.3871C18.9172 14.4155 18.8103 14.3971 18.8146 14.2619C18.8146 14.2194 18.7803 14.1712 18.7597 14.1438C18.739 14.1297 18.7277 14.1249 18.6898 14.1249C18.6442 14.1262 18.6433 14.139 18.6174 14.1736C18.6066 14.2067 18.5925 14.2458 18.5925 14.2869C18.587 14.335 18.5686 14.3517 18.5302 14.3587C18.4874 14.3587 18.4968 14.3637 18.4627 14.3398C18.443 14.3162 18.4153 14.3114 18.4153 14.275C18.4153 14.2419 18.4073 14.1792 18.3956 14.155C18.3777 14.1314 18.3461 14.1267 18.3132 14.1173C18.1338 14.118 18.1232 14.3068 18.1336 14.3786C18.1204 14.3927 18.111 14.7334 18.3556 14.8274L18.3549 14.8308ZM21.1368 11.4768C21.6876 12.1632 22.2176 12.8528 22.7295 13.5664C22.8093 14.0962 22.8688 14.6144 22.9067 15.1306C22.9896 16.2623 23.0147 17.6712 22.9391 18.863C23.1678 18.873 23.5343 18.5205 23.663 18.0069C23.7467 17.2962 23.6333 15.8461 23.6259 15.4268C23.6206 15.2529 23.609 15.045 23.5958 14.8274C24.2182 15.7698 24.7987 16.7396 25.3355 17.7338C25.5423 17.6431 25.4964 16.564 25.3755 16.4125C24.9217 15.5072 24.2948 14.6134 24.095 14.2696C24.0228 14.1463 23.7772 13.7991 23.4859 13.3996C23.4323 12.8296 23.3741 12.3468 23.3362 12.201C23.2425 11.5984 23.6033 12.2685 23.5533 11.9184C23.4362 11.3167 23.0779 10.9078 22.6547 10.3566C22.5183 10.1775 22.5216 10.1406 22.3103 10.399C22.1843 10.6641 22.1861 10.8842 22.2228 11.091C22.1531 10.9966 22.079 10.9056 22.0007 10.8183L21.3093 10.2746C21.2136 10.2117 21.0316 10.114 20.8925 10.1263C20.809 10.1363 20.7425 10.1788 20.7178 10.293C20.6844 10.5618 20.7018 10.7078 20.7502 10.9316C20.7873 11.081 21.0217 11.3304 21.137 11.4756L21.1368 11.4768ZM22.303 11.439C22.3162 11.4972 22.3312 11.5553 22.3406 11.6148C22.372 11.7428 22.3991 11.8699 22.428 11.9965C22.3069 11.8416 22.2066 11.7168 22.1635 11.6724C21.8892 11.37 22.1695 11.4744 22.3032 11.4391L22.303 11.439Z" fill="white"/>
</g>
<defs>
<clipPath id="clip0">
<path d="M0 12C0 5.37258 5.37258 0 12 0H28C34.6274 0 40 5.37258 40 12V28C40 34.6274 34.6274 40 28 40H12C5.37258 40 0 34.6274 0 28V12Z" fill="white"/>
</clipPath>
</defs>
</svg>
