<svg width="40" height="40" viewBox="0 0 40 40" fill="none" xmlns="http://www.w3.org/2000/svg">
<g clip-path="url(#clip0)">
<path d="M60 0H0V20H60V0Z" fill="#ED2939"/>
<path d="M60 20H0V40H60V20Z" fill="#F0F0F0"/>
<path d="M20.5758 10.0005C20.5758 11.4878 20.1347 12.9417 19.3084 14.1784C18.4821 15.415 17.3076 16.3789 15.9335 16.948C14.5594 17.5172 13.0474 17.6661 11.5887 17.376C10.13 17.0858 8.79002 16.3696 7.73833 15.3179C6.68664 14.2662 5.97043 12.9263 5.68026 11.4675C5.3901 10.0088 5.53902 8.49679 6.1082 7.12269C6.67737 5.74859 7.64122 4.57413 8.87788 3.74782C10.1145 2.92151 11.5685 2.48047 13.0558 2.48047C14.0434 2.48021 15.0214 2.67454 15.9339 3.05236C16.8463 3.43018 17.6754 3.98409 18.3738 4.68244C19.0721 5.38079 19.6261 6.20989 20.0039 7.12238C20.3817 8.03487 20.576 9.01285 20.5758 10.0005Z" fill="#F0F0F0"/>
<path d="M22.9437 9.99863C22.9437 11.4045 22.5268 12.7787 21.7458 13.9476C20.9647 15.1165 19.8546 16.0276 18.5558 16.5656C17.257 17.1035 15.8278 17.2443 14.449 16.97C13.0701 16.6958 11.8036 16.0188 10.8095 15.0247C9.81548 14.0307 9.13851 12.7641 8.86424 11.3853C8.58998 10.0065 8.73074 8.57733 9.26873 7.27851C9.80672 5.97969 10.7178 4.86958 11.8867 4.08854C13.0556 3.3075 14.4298 2.89063 15.8357 2.89062C17.7208 2.89063 19.5288 3.6395 20.8618 4.97251C22.1948 6.30552 22.9437 8.11347 22.9437 9.99863Z" fill="#ED2939"/>
<path d="M13.9885 10.183L12.9685 9.401L11.9465 10.185L12.3465 8.921L11.3225 8.141H12.5865L12.9745 6.875L13.3745 8.141H14.6385L13.6005 8.919L13.9885 10.183Z" fill="#F0F0F0"/>
<path d="M21.9999 10.183L20.9839 9.401L19.9619 10.185L20.3619 8.921L19.3359 8.141H20.6019L20.9899 6.875L21.3779 8.141H22.6419L21.6179 8.921L21.9999 10.183Z" fill="#F0F0F0"/>
<path d="M17.9972 7.2007L16.9772 6.4227L15.9552 7.2007L16.3552 5.9367L15.3292 5.1587H16.5972L16.9772 3.9007L17.3652 5.1667H18.6292L17.5972 5.9427L17.9972 7.2007Z" fill="#F0F0F0"/>
<path d="M15.4865 14.9431L14.4665 14.1591L13.4445 14.9431L13.8445 13.6791L12.8125 12.9011H14.0765L14.4645 11.6351L14.8645 12.9011H16.1285L15.1045 13.6811L15.4865 14.9431Z" fill="#F0F0F0"/>
<path d="M20.5052 14.9431L19.4832 14.1591L18.4612 14.9431L18.8612 13.6791L17.8292 12.9011H19.0952L19.4832 11.6351L19.8712 12.9011H21.1352L20.1112 13.6811L20.5052 14.9431Z" fill="#F0F0F0"/>
</g>
<defs>
<clipPath id="clip0">
<path d="M0 12C0 5.37258 5.37258 0 12 0H28C34.6274 0 40 5.37258 40 12V28C40 34.6274 34.6274 40 28 40H12C5.37258 40 0 34.6274 0 28V12Z" fill="white"/>
</clipPath>
</defs>
</svg>
