<svg width="40" height="40" viewBox="0 0 40 40" fill="none" xmlns="http://www.w3.org/2000/svg">
<rect width="40" height="40" rx="12" fill="#F0F0F0"/>
<path d="M27.9822 8L23.636 10.1296C23.1327 10.3717 22.7101 10.7541 22.4191 11.2307C22.1256 11.6944 21.9698 12.232 21.97 12.7808V27.1957L26.3162 25.0661C26.8172 24.8206 27.2389 24.4391 27.5331 23.965C27.8215 23.4998 27.9722 22.9623 27.9677 22.4149" fill="#666C72"/>
<path d="M19.0123 20.5461L14.6661 22.6902C14.1659 22.9251 13.7432 23.2981 13.448 23.7653C13.1528 24.2324 12.9974 24.7743 13 25.3269V31.6289L17.3462 29.4993C17.8495 29.2572 18.2721 28.8748 18.5632 28.3982C18.8567 27.9345 19.0124 27.3969 19.0123 26.8481" fill="#666C72"/>
</svg>
