<svg width="40" height="40" viewBox="0 0 40 40" fill="none" xmlns="http://www.w3.org/2000/svg">
<g clip-path="url(#clip0)">
<mask id="mask0" mask-type="alpha" maskUnits="userSpaceOnUse" x="-6" y="-3" width="52" height="52">
<path d="M20 48.5716C34.2016 48.5716 45.7144 37.0589 45.7144 22.8572C45.7144 8.65556 34.2016 -2.85715 20 -2.85715C5.79835 -2.85715 -5.71436 8.65556 -5.71436 22.8572C-5.71436 37.0589 5.79835 48.5716 20 48.5716Z" fill="white"/>
</mask>
<g mask="url(#mask0)">
<path d="M20 48.5716C34.2016 48.5716 45.7144 37.0589 45.7144 22.8572C45.7144 8.65556 34.2016 -2.85715 20 -2.85715C5.79835 -2.85715 -5.71436 8.65556 -5.71436 22.8572C-5.71436 37.0589 5.79835 48.5716 20 48.5716Z" fill="#F0F0F0"/>
<path d="M18.5713 21.4286H45.7141C45.7141 18.9573 45.4012 16.5632 44.8181 14.2857H18.5713V21.4286Z" fill="#D80027"/>
<path d="M18.5713 7.14289H41.4284C39.8681 4.4078 37.8729 1.99027 35.5468 3.05176e-05H18.5713V7.14289Z" fill="#D80027"/>
<path d="M-1.46069 35.7143H41.4603C42.6964 33.5186 43.6551 31.1185 44.2855 28.5715H-4.28589C-3.65541 31.1185 -2.69678 33.5186 -1.46069 35.7143Z" fill="#D80027"/>
<path d="M6.19698 -0.270059H8.5403L6.36061 1.31348L7.19321 3.87577L5.01363 2.29223L2.83404 3.87577L3.55323 1.66223C1.6341 3.26083 -0.0479717 5.13376 -1.43413 7.22063H-0.683295L-2.07076 8.22861C-2.28692 8.58921 -2.49424 8.95554 -2.69293 9.32729L-2.03038 11.3665L-3.26648 10.4684C-3.57374 11.1194 -3.85479 11.785 -4.10741 12.4645L-3.37747 14.7113H-0.683295L-2.86298 16.2949L-2.03038 18.8571L-4.20997 17.2736L-5.51557 18.2222C-5.64625 19.2727 -5.71436 20.3426 -5.71436 21.4286H19.9999C19.9999 7.22706 19.9999 5.55282 19.9999 -4.28571C14.9202 -4.28571 10.1848 -2.81216 6.19698 -0.270059ZM7.19321 18.8571L5.01363 17.2736L2.83404 18.8571L3.66664 16.2949L1.48695 14.7113H4.18112L5.01363 12.149L5.84612 14.7113H8.5403L6.36061 16.2949L7.19321 18.8571ZM6.36061 8.80417L7.19321 11.3665L5.01363 9.78292L2.83404 11.3665L3.66664 8.80417L1.48695 7.22063H4.18112L5.01363 4.65834L5.84612 7.22063H8.5403L6.36061 8.80417ZM16.4168 18.8571L14.2372 17.2736L12.0576 18.8571L12.8902 16.2949L10.7105 14.7113H13.4047L14.2372 12.149L15.0697 14.7113H17.7639L15.5842 16.2949L16.4168 18.8571ZM15.5842 8.80417L16.4168 11.3665L14.2372 9.78292L12.0576 11.3665L12.8902 8.80417L10.7105 7.22063H13.4047L14.2372 4.65834L15.0697 7.22063H17.7639L15.5842 8.80417ZM15.5842 1.31348L16.4168 3.87577L14.2372 2.29223L12.0576 3.87577L12.8902 1.31348L10.7105 -0.270059H13.4047L14.2372 -2.83235L15.0697 -0.270059H17.7639L15.5842 1.31348Z" fill="#0052B4"/>
</g>
</g>
<defs>
<clipPath id="clip0">
<path d="M0 12C0 5.37258 5.37258 0 12 0H28C34.6274 0 40 5.37258 40 12V28C40 34.6274 34.6274 40 28 40H12C5.37258 40 0 34.6274 0 28V12Z" fill="white"/>
</clipPath>
</defs>
</svg>
