<svg width="40" height="40" viewBox="0 0 40 40" fill="none" xmlns="http://www.w3.org/2000/svg">
<path d="M0 12C0 5.37258 5.37258 0 12 0H28C34.6274 0 40 5.37258 40 12V28C40 34.6274 34.6274 40 28 40H12C5.37258 40 0 34.6274 0 28V12Z" fill="#F0F0F0"/>
<path d="M4.65186 25L8.10889 19.6753L4.68115 14.4312H6.91504L9.32471 18.313H9.44922L11.8955 14.4312H14.0195L10.4746 19.7192L13.9609 25H11.7783L9.32471 21.2061H9.2002L6.70996 25H4.65186ZM22.5466 25L21.6531 22.2974H17.7639L16.8557 25H14.9441L18.6941 14.4312H20.8181L24.5754 25H22.5466ZM19.6536 16.4453L18.2034 20.8032H21.2136L19.7781 16.4453H19.6536ZM27.8144 14.4312V21.1841C27.8144 21.9116 28.0317 22.4927 28.4663 22.9272C28.9009 23.3569 29.5039 23.5718 30.2754 23.5718C31.0469 23.5718 31.6474 23.3569 32.0771 22.9272C32.5117 22.4927 32.729 21.9116 32.729 21.1841V14.4312H34.6186V21.3599C34.6186 22.5269 34.2256 23.4692 33.4394 24.187C32.6533 24.9048 31.5986 25.2637 30.2754 25.2637C28.9521 25.2637 27.8974 24.9048 27.1113 24.187C26.3252 23.4692 25.9321 22.5269 25.9321 21.3599V14.4312H27.8144Z" fill="black"/>
</svg>
