<svg width="17" height="16" viewBox="0 0 17 16" fill="none" xmlns="http://www.w3.org/2000/svg">
<g clip-path="url(#clip0)">
<mask id="path-1-inside-1" fill="white">
<path d="M3.5 5V7H5.5V8H3.5V10H2.5V8H0.5V7H2.5V5H3.5Z"/>
</mask>
<path d="M3.5 5V7H5.5V8H3.5V10H2.5V8H0.5V7H2.5V5H3.5Z" fill="#666C72"/>
<path d="M3.5 7H2V8.5H3.5V7ZM3.5 5H5V3.5H3.5V5ZM2.5 5V3.5H1V5H2.5ZM2.5 7V8.5H4V7H2.5ZM0.5 7V5.5H-1V7H0.5ZM0.5 8H-1V9.5H0.5V8ZM2.5 8H4V6.5H2.5V8ZM2.5 10H1V11.5H2.5V10ZM3.5 10V11.5H5V10H3.5ZM3.5 8V6.5H2V8H3.5ZM5.5 8V9.5H7V8H5.5ZM5.5 7H7V5.5H5.5V7ZM5 7V5H2V7H5ZM3.5 3.5H2.5V6.5H3.5V3.5ZM1 5V7H4V5H1ZM2.5 5.5H0.5V8.5H2.5V5.5ZM-1 7V8H2V7H-1ZM0.5 9.5H2.5V6.5H0.5V9.5ZM1 8V10H4V8H1ZM2.5 11.5H3.5V8.5H2.5V11.5ZM5 10V8H2V10H5ZM3.5 9.5H5.5V6.5H3.5V9.5ZM7 8V7H4V8H7ZM5.5 5.5H3.5V8.5H5.5V5.5Z" fill="#666C72" mask="url(#path-1-inside-1)"/>
<path d="M5.16602 12.6667C5.16602 10.8933 8.71935 10 10.4993 10C12.2793 10 15.8327 10.8933 15.8327 12.6667V14H5.16602V12.6667Z" stroke="#666C72" stroke-width="1.2"/>
<path d="M13.1673 4.66667C13.1673 6.14 11.974 7.33333 10.5007 7.33333C9.02732 7.33333 7.83398 6.14 7.83398 4.66667C7.83398 3.19333 9.02732 2 10.5007 2C11.974 2 13.1673 3.19333 13.1673 4.66667Z" stroke="#666C72" stroke-width="1.2"/>
</g>
<defs>
<clipPath id="clip0">
<rect width="16" height="16" fill="white" transform="translate(0.5)"/>
</clipPath>
</defs>
</svg>
