<svg width="17" height="16" viewBox="0 0 17 16" fill="none" xmlns="http://www.w3.org/2000/svg">
<g clip-path="url(#clip0)">
<path d="M11.7901 14.59C10.8267 14.5887 9.88507 14.3034 9.08292 13.7698C8.28076 13.2363 7.6537 12.478 7.28013 11.59C7.11303 11.1972 7.04599 10.7691 7.08503 10.344C7.12408 9.91894 7.26798 9.51019 7.50385 9.15441C7.73972 8.79863 8.06018 8.50693 8.4365 8.30545C8.81283 8.10398 9.23327 7.99903 9.66013 8.00001H13.9301C14.3682 8.00077 14.7989 8.11307 15.1816 8.32633C15.5643 8.53959 15.8863 8.84679 16.1175 9.21897C16.3486 9.59114 16.4811 10.016 16.5026 10.4536C16.524 10.8912 16.4337 11.327 16.2401 11.72L16.1901 11.84C15.7785 12.6571 15.1506 13.3455 14.3748 13.8304C13.5989 14.3153 12.7049 14.578 11.7901 14.59ZM9.66013 10C9.56308 9.99803 9.46712 10.0209 9.38137 10.0664C9.29562 10.1119 9.22291 10.1785 9.17013 10.26C9.11756 10.3406 9.08552 10.4329 9.07681 10.5288C9.06809 10.6247 9.08297 10.7212 9.12013 10.81C9.33491 11.3239 9.6936 11.7647 10.153 12.0796C10.6125 12.3944 11.1531 12.5697 11.7099 12.5845C12.2666 12.5993 12.8158 12.4529 13.2913 12.1629C13.7668 11.8729 14.1484 11.4517 14.3901 10.95L14.4501 10.84C14.4983 10.7527 14.5235 10.6547 14.5235 10.555C14.5235 10.4553 14.4983 10.3573 14.4501 10.27C14.3986 10.1867 14.3264 10.118 14.2405 10.0708C14.1547 10.0235 14.0581 9.99909 13.9601 10H9.66013Z" fill="currentCOlor"/>
<path d="M11.7903 7.1498C11.4336 7.1498 11.0804 7.07937 10.7509 6.94256C10.4215 6.80574 10.1223 6.60523 9.8705 6.35252C9.61872 6.09982 9.41931 5.79989 9.28371 5.46994C9.14811 5.13999 9.07899 4.78652 9.0803 4.4298C9.07102 3.71106 9.34764 3.01807 9.8493 2.50329C10.351 1.9885 11.0366 1.69408 11.7553 1.6848C12.474 1.67551 13.167 1.95213 13.6818 2.45379C14.1966 2.95545 14.491 3.64106 14.5003 4.3598C14.5083 4.72165 14.4442 5.08147 14.3118 5.41833C14.1795 5.75519 13.9814 6.06236 13.7292 6.32199C13.4771 6.58161 13.1758 6.7885 12.8429 6.93061C12.51 7.07273 12.1522 7.14723 11.7903 7.1498ZM11.7903 3.6498C11.6971 3.6498 11.6047 3.66816 11.5186 3.70384C11.4325 3.73952 11.3542 3.79182 11.2883 3.85775C11.2223 3.92368 11.17 4.00195 11.1344 4.08809C11.0987 4.17423 11.0803 4.26656 11.0803 4.3598C11.0721 4.45892 11.0842 4.55868 11.116 4.65294C11.1477 4.74721 11.1984 4.83399 11.2649 4.90797C11.3314 4.98195 11.4123 5.04156 11.5026 5.08314C11.593 5.12473 11.6909 5.14741 11.7903 5.1498C11.8844 5.14981 11.9775 5.13112 12.0643 5.09481C12.1511 5.05851 12.2299 5.00531 12.2959 4.93832C12.362 4.87133 12.4141 4.79187 12.4492 4.70457C12.4842 4.61728 12.5016 4.52387 12.5003 4.4298C12.5071 4.33147 12.4939 4.23279 12.4615 4.13971C12.4291 4.04662 12.3782 3.96106 12.3119 3.88817C12.2455 3.81529 12.1651 3.75659 12.0755 3.71562C11.9858 3.67466 11.8888 3.65226 11.7903 3.6498Z" fill="currentCOlor"/>
<path fill-rule="evenodd" clip-rule="evenodd" d="M3.26305 8.12691C3.45058 8.31445 3.70494 8.4198 3.97015 8.4198C4.10148 8.4198 4.23151 8.39394 4.35284 8.34368C4.47416 8.29343 4.5844 8.21977 4.67726 8.12691C4.77012 8.03405 4.84378 7.92381 4.89403 7.80249C4.94429 7.68116 4.97015 7.55113 4.97015 7.4198V6.10974H6.28016C6.54537 6.10974 6.79973 6.00438 6.98726 5.81685C7.1748 5.62931 7.28016 5.37496 7.28016 5.10974C7.28016 4.84452 7.1748 4.59017 6.98726 4.40263C6.79973 4.2151 6.54537 4.10974 6.28016 4.10974H4.97015V2.7998C4.97015 2.53459 4.8648 2.28023 4.67726 2.0927C4.48972 1.90516 4.23537 1.7998 3.97015 1.7998C3.70494 1.7998 3.45058 1.90516 3.26305 2.0927C3.07551 2.28023 2.97015 2.53459 2.97015 2.7998V4.10974H1.66016C1.39494 4.10974 1.14059 4.2151 0.953049 4.40263C0.765513 4.59017 0.660156 4.84452 0.660156 5.10974C0.660156 5.37496 0.765513 5.62931 0.953049 5.81685C1.14059 6.00438 1.39494 6.10974 1.66016 6.10974H2.97015V7.4198C2.97015 7.68502 3.07551 7.93937 3.26305 8.12691Z" fill="currentCOlor"/>
</g>
<defs>
<clipPath id="clip0">
<rect width="16" height="16" fill="white" transform="translate(0.5)"/>
</clipPath>
</defs>
</svg>
