<svg width="16" height="16" viewBox="0 0 16 16" fill="none" xmlns="http://www.w3.org/2000/svg">
<g clip-path="url(#clip0)">
<path fill-rule="evenodd" clip-rule="evenodd" d="M2.09364 6.45204L4.45988 9.16068C4.69747 9.43271 4.66959 9.8458 4.39753 10.0834C4.2735 10.1917 4.12028 10.2449 3.96769 10.2449C3.78547 10.2449 3.60431 10.1691 3.47484 10.0213L0.165891 6.23339C0.0655113 6.12092 0.00343523 5.97352 0.000138347 5.81169C4.57528e-05 5.80718 -3.62292e-07 5.80267 2.14309e-09 5.79816C2.14309e-09 5.79814 0 5.79812 0 5.7981C0 5.62783 0.0650522 5.47277 0.17166 5.35643L3.47481 1.57518C3.71263 1.30336 4.1255 1.27546 4.39753 1.51283C4.66956 1.75043 4.69725 2.16352 4.45988 2.43555L2.09366 5.14417H11.2478C13.8682 5.14417 16 7.27601 16 9.89613C16 12.5163 13.8679 14.6481 11.2478 14.6481H1.52587C1.16469 14.6481 0.871938 14.3554 0.871938 13.9942C0.871938 13.633 1.16469 13.3402 1.52587 13.3402H11.2478C13.1471 13.3402 14.6921 11.7952 14.6921 9.89613C14.6921 7.99707 13.1471 6.45204 11.2478 6.45204H2.09364Z" fill="currentColor"/>
</g>
<defs>
<clipPath id="clip0">
<rect width="16" height="16" fill="white"/>
</clipPath>
</defs>
</svg>
