<svg width="16" height="16" viewBox="0 0 16 16" fill="none" xmlns="http://www.w3.org/2000/svg">
<path d="M10.7987 15.6659H5.1987C4.17894 15.6659 3.20046 15.2631 2.47627 14.5452C1.75208 13.8273 1.34082 12.8523 1.33203 11.8326V6.25924C1.33203 5.23374 1.73941 4.25024 2.46455 3.5251C3.18969 2.79996 4.17319 2.39258 5.1987 2.39258H10.7987C11.8242 2.39258 12.8077 2.79996 13.5328 3.5251C14.258 4.25024 14.6654 5.23374 14.6654 6.25924V11.8326C14.6566 12.8523 14.2453 13.8273 13.5211 14.5452C12.7969 15.2631 11.8185 15.6659 10.7987 15.6659ZM5.1987 3.72591C4.52682 3.72591 3.88245 3.99282 3.40736 4.46791C2.93227 4.943 2.66536 5.58736 2.66536 6.25924V11.8326C2.66536 12.5045 2.93227 13.1488 3.40736 13.6239C3.88245 14.099 4.52682 14.3659 5.1987 14.3659H10.7987C11.4706 14.3659 12.1149 14.099 12.59 13.6239C13.0651 13.1488 13.332 12.5045 13.332 11.8326V6.25924C13.332 5.58736 13.0651 4.943 12.59 4.46791C12.1149 3.99282 11.4706 3.72591 10.7987 3.72591H5.1987Z" fill="currentColor"/>
<path d="M10.9753 4.78065C10.7984 4.78065 10.6289 4.71041 10.5039 4.58539C10.3788 4.46036 10.3086 4.2908 10.3086 4.11398V2.00065C10.3086 1.82384 10.3788 1.65427 10.5039 1.52925C10.6289 1.40422 10.7984 1.33398 10.9753 1.33398C11.1521 1.33398 11.3216 1.40422 11.4467 1.52925C11.5717 1.65427 11.6419 1.82384 11.6419 2.00065V4.11398C11.6419 4.2908 11.5717 4.46036 11.4467 4.58539C11.3216 4.71041 11.1521 4.78065 10.9753 4.78065Z" fill="currentColor"/>
<path d="M5.02604 4.78065C4.84923 4.78065 4.67966 4.71041 4.55464 4.58539C4.42961 4.46036 4.35938 4.2908 4.35938 4.11398V2.00065C4.35937 1.9131 4.37662 1.82641 4.41012 1.74553C4.44363 1.66465 4.49273 1.59115 4.55464 1.52925C4.61654 1.46734 4.69004 1.41823 4.77092 1.38473C4.8518 1.35123 4.93849 1.33398 5.02604 1.33398C5.11359 1.33398 5.20028 1.35123 5.28116 1.38473C5.36205 1.41823 5.43554 1.46734 5.49745 1.52925C5.55935 1.59115 5.60846 1.66465 5.64196 1.74553C5.67546 1.82641 5.69271 1.9131 5.69271 2.00065V4.11398C5.69271 4.2908 5.62247 4.46036 5.49745 4.58539C5.37242 4.71041 5.20285 4.78065 5.02604 4.78065Z" fill="currentColor"/>
<path d="M10.8404 13.087C11.4663 13.087 11.9737 12.5796 11.9737 11.9536C11.9737 11.3277 11.4663 10.8203 10.8404 10.8203C10.2144 10.8203 9.70703 11.3277 9.70703 11.9536C9.70703 12.5796 10.2144 13.087 10.8404 13.087Z" fill="currentColor"/>
<path d="M13.9984 5.75977H2.01172V7.0931H13.9984V5.75977Z" fill="currentColor"/>
</svg>
