<svg width="24" height="24" viewBox="0 0 24 24" fill="none" xmlns="http://www.w3.org/2000/svg">
<path d="M16.2 22.7498H7.8C6.27037 22.7499 4.80264 22.1457 3.71636 21.0688C2.63007 19.9919 2.01319 18.5294 2 16.9998V8.63984C2 7.10159 2.61107 5.62634 3.69878 4.53862C4.78649 3.45091 6.26174 2.83984 7.8 2.83984H16.2C17.7383 2.83984 19.2135 3.45091 20.3012 4.53862C21.3889 5.62634 22 7.10159 22 8.63984V16.9998C21.9868 18.5294 21.3699 19.9919 20.2836 21.0688C19.1974 22.1457 17.7296 22.7499 16.2 22.7498ZM7.8 4.83984C6.79218 4.83984 5.82563 5.2402 5.11299 5.95284C4.40036 6.66548 4 7.63202 4 8.63984V16.9998C4 18.0077 4.40036 18.9742 5.11299 19.6868C5.82563 20.3995 6.79218 20.7998 7.8 20.7998H16.2C17.2078 20.7998 18.1744 20.3995 18.887 19.6868C19.5996 18.9742 20 18.0077 20 16.9998V8.63984C20 7.63202 19.5996 6.66548 18.887 5.95284C18.1744 5.2402 17.2078 4.83984 16.2 4.83984H7.8Z" fill="#1586BB"/>
<path d="M16.4609 6.42C16.1957 6.42 15.9414 6.31464 15.7538 6.12711C15.5663 5.93957 15.4609 5.68522 15.4609 5.42V2.25C15.4609 1.98478 15.5663 1.73043 15.7538 1.54289C15.9414 1.35536 16.1957 1.25 16.4609 1.25C16.7262 1.25 16.9805 1.35536 17.168 1.54289C17.3556 1.73043 17.4609 1.98478 17.4609 2.25V5.42C17.4609 5.68522 17.3556 5.93957 17.168 6.12711C16.9805 6.31464 16.7262 6.42 16.4609 6.42Z" fill="#1586BB"/>
<path d="M7.53906 6.42C7.27385 6.42 7.01949 6.31464 6.83196 6.12711C6.64442 5.93957 6.53906 5.68522 6.53906 5.42V2.25C6.53906 2.11868 6.56493 1.98864 6.61518 1.86732C6.66544 1.74599 6.7391 1.63575 6.83196 1.54289C6.92481 1.45003 7.03505 1.37638 7.15638 1.32612C7.2777 1.27587 7.40774 1.25 7.53906 1.25C7.67038 1.25 7.80042 1.27587 7.92175 1.32612C8.04307 1.37638 8.15331 1.45003 8.24617 1.54289C8.33903 1.63575 8.41269 1.74599 8.46294 1.86732C8.5132 1.98864 8.53906 2.11868 8.53906 2.25V5.42C8.53906 5.68522 8.43371 5.93957 8.24617 6.12711C8.05863 6.31464 7.80428 6.42 7.53906 6.42Z" fill="#1586BB"/>
<path d="M16.2586 18.8805C17.1975 18.8805 17.9586 18.1194 17.9586 17.1805C17.9586 16.2416 17.1975 15.4805 16.2586 15.4805C15.3197 15.4805 14.5586 16.2416 14.5586 17.1805C14.5586 18.1194 15.3197 18.8805 16.2586 18.8805Z" fill="#1586BB"/>
<path d="M20.9995 7.89062H3.01953V9.89063H20.9995V7.89062Z" fill="#1586BB"/>
</svg>
