<svg width="16" height="16" viewBox="0 0 16 16" fill="none" xmlns="http://www.w3.org/2000/svg">
<path d="M8 16C12.3765 16 16 12.3765 16 8C16 3.63137 12.3686 0 7.99216 0C3.62353 0 0 3.63137 0 8C0 12.3765 3.63137 16 8 16ZM5.18431 11.4824C4.82353 11.4824 4.52549 11.1843 4.52549 10.8157C4.52549 10.6353 4.59608 10.4784 4.72157 10.3608L7.06667 8.00784L4.72157 5.6549C4.59608 5.5451 4.52549 5.38039 4.52549 5.2C4.52549 4.83922 4.82353 4.54902 5.18431 4.54902C5.37255 4.54902 5.52157 4.61961 5.63922 4.7451L7.99216 7.0902L10.3608 4.73725C10.4941 4.59608 10.6431 4.53333 10.8157 4.53333C11.1843 4.53333 11.4745 4.83137 11.4745 5.19216C11.4745 5.37255 11.4196 5.52157 11.2784 5.64706L8.92549 8.00784L11.2706 10.3451C11.3961 10.4706 11.4667 10.6275 11.4667 10.8157C11.4667 11.1843 11.1765 11.4824 10.8078 11.4824C10.6196 11.4824 10.4549 11.4039 10.3373 11.2863L7.99216 8.93333L5.6549 11.2863C5.53725 11.4118 5.37255 11.4824 5.18431 11.4824Z"/>
</svg>
