<svg width="24" height="24" viewBox="0 0 24 24" fill="none" xmlns="http://www.w3.org/2000/svg">
<path d="M13.1416 18.4894H6.46156C5.37152 18.4894 4.32613 18.0564 3.55535 17.2856C2.78458 16.5148 2.35156 15.4694 2.35156 14.3794V5.46937C2.35156 4.37933 2.78458 3.33394 3.55535 2.56317C4.32613 1.79239 5.37152 1.35938 6.46156 1.35938H13.1416C14.2316 1.35938 15.277 1.79239 16.0478 2.56317C16.8185 3.33394 17.2516 4.37933 17.2516 5.46937V14.3794C17.2516 15.4694 16.8185 16.5148 16.0478 17.2856C15.277 18.0564 14.2316 18.4894 13.1416 18.4894ZM6.46156 3.35937C5.90196 3.35937 5.36527 3.58168 4.96957 3.97738C4.57387 4.37308 4.35156 4.90977 4.35156 5.46937V14.3794C4.35419 14.9382 4.57734 15.4733 4.97247 15.8685C5.36761 16.2636 5.90277 16.4867 6.46156 16.4894H13.1416C13.7004 16.4867 14.2355 16.2636 14.6307 15.8685C15.0258 15.4733 15.2489 14.9382 15.2516 14.3794V5.46937C15.2516 4.90977 15.0293 4.37308 14.6336 3.97738C14.2379 3.58168 13.7012 3.35937 13.1416 3.35937H6.46156Z" fill="currentColor"/>
<path d="M17.54 22.6398H10.86C9.76996 22.6398 8.72457 22.2067 7.95379 21.436C7.18302 20.6652 6.75 19.6198 6.75 18.5298V17.5298H8.75V18.5298C8.75 19.0894 8.9723 19.6261 9.368 20.0218C9.76371 20.4175 10.3004 20.6398 10.86 20.6398H17.54C18.0996 20.6398 18.6363 20.4175 19.032 20.0218C19.4277 19.6261 19.65 19.0894 19.65 18.5298V9.61977C19.6474 9.06097 19.4242 8.52581 19.0291 8.13068C18.634 7.73554 18.0988 7.5124 17.54 7.50977H16.25V5.50977H17.54C18.63 5.50977 19.6754 5.94278 20.4462 6.71356C21.217 7.48433 21.65 8.52973 21.65 9.61977V18.5298C21.65 19.6198 21.217 20.6652 20.4462 21.436C19.6754 22.2067 18.63 22.6398 17.54 22.6398Z" fill="currentColor"/>
<path d="M11.59 8.78906H8C7.73478 8.78906 7.48043 8.68371 7.29289 8.49617C7.10536 8.30863 7 8.05428 7 7.78906C7 7.52385 7.10536 7.26949 7.29289 7.08196C7.48043 6.89442 7.73478 6.78906 8 6.78906H11.58C11.8452 6.78906 12.0996 6.89442 12.2871 7.08196C12.4746 7.26949 12.58 7.52385 12.58 7.78906C12.58 8.05428 12.4746 8.30863 12.2871 8.49617C12.0996 8.68371 11.8452 8.78906 11.58 8.78906H11.59Z" fill="currentColor"/>
<path d="M11.59 12.5801H8C7.73478 12.5801 7.48043 12.4747 7.29289 12.2872C7.10536 12.0996 7 11.8453 7 11.5801C7 11.3149 7.10536 11.0605 7.29289 10.873C7.48043 10.6854 7.73478 10.5801 8 10.5801H11.58C11.8452 10.5801 12.0996 10.6854 12.2871 10.873C12.4746 11.0605 12.58 11.3149 12.58 11.5801C12.58 11.8453 12.4746 12.0996 12.2871 12.2872C12.0996 12.4747 11.8452 12.5801 11.58 12.5801H11.59Z" fill="currentColor"/>
</svg>
