<svg width="16" height="16" viewBox="0 0 16 16" fill="none" xmlns="http://www.w3.org/2000/svg">
<path d="M12.8336 14.3105L13.3275 3.8443H14.0434C14.3369 3.8443 14.5732 3.60089 14.5732 3.30738C14.5732 3.01387 14.3369 2.76331 14.0434 2.76331H10.915V1.68949C10.915 0.665772 10.2206 0 9.11812 0H6.44072C5.33825 0 4.65101 0.665772 4.65101 1.68949V2.76331H1.53691C1.25056 2.76331 1 3.01387 1 3.30738C1 3.60089 1.25056 3.8443 1.53691 3.8443H2.2528L2.74676 14.3177C2.79687 15.3485 3.47696 16 4.50783 16H11.0725C12.0962 16 12.7834 15.3414 12.8336 14.3105ZM5.79642 1.76107C5.79642 1.35302 6.09709 1.06667 6.52662 1.06667H9.03937C9.47606 1.06667 9.77673 1.35302 9.77673 1.76107V2.76331H5.79642V1.76107ZM4.61521 14.9262C4.2 14.9262 3.89217 14.6112 3.87069 14.196L3.36958 3.8443H12.1821L11.7096 14.196C11.6881 14.6183 11.3875 14.9262 10.9651 14.9262H4.61521ZM9.91275 13.6662C10.149 13.6662 10.328 13.4729 10.3351 13.2009L10.5499 5.64116C10.557 5.36913 10.3709 5.16868 10.1275 5.16868C9.90559 5.16868 9.71946 5.37629 9.7123 5.634L9.49754 13.2009C9.49038 13.4586 9.66935 13.6662 9.91275 13.6662ZM5.66756 13.6662C5.91096 13.6662 6.08993 13.4586 6.08277 13.2009L5.86801 5.634C5.86085 5.37629 5.66756 5.16868 5.44564 5.16868C5.20224 5.16868 5.02327 5.36913 5.03043 5.64116L5.25235 13.2009C5.25951 13.4729 5.43132 13.6662 5.66756 13.6662ZM8.22327 13.2009V5.634C8.22327 5.37629 8.02998 5.16868 7.79374 5.16868C7.55749 5.16868 7.35705 5.37629 7.35705 5.634V13.2009C7.35705 13.4586 7.55749 13.6662 7.79374 13.6662C8.02282 13.6662 8.22327 13.4586 8.22327 13.2009Z" fill="#EF5630"/>
</svg>
