<svg width="16" height="16" viewBox="0 0 16 16" fill="none" xmlns="http://www.w3.org/2000/svg">
<g clip-path="url(#clip0)">
<path d="M14.6421 0.718945C13.6835 -0.239648 12.1294 -0.239648 11.1708 0.718945L1.43958 10.4502C1.37289 10.5169 1.32473 10.5995 1.29959 10.6903L0.0199041 15.3103C-0.0327237 15.4997 0.0207563 15.7025 0.159677 15.8417C0.29881 15.9806 0.501651 16.0341 0.691068 15.9816L5.31102 14.7017C5.40179 14.6766 5.48446 14.6284 5.55115 14.5618L15.2822 4.8303C16.2393 3.87107 16.2393 2.31823 15.2822 1.359L14.6421 0.718945ZM2.62807 10.8047L10.5923 2.84025L13.1609 5.40878L5.19639 13.3733L2.62807 10.8047ZM2.115 11.8343L4.16706 13.8865L1.32857 14.673L2.115 11.8343ZM14.5109 4.059L13.9324 4.63748L11.3636 2.06873L11.9423 1.49025C12.4748 0.957794 13.3381 0.957794 13.8706 1.49025L14.5109 2.13031C15.0425 2.6634 15.0425 3.52611 14.5109 4.059Z" fill="#666C72"/>
</g>
<defs>
<clipPath id="clip0">
<rect width="16" height="16" fill="white"/>
</clipPath>
</defs>
</svg>
