<svg width="24" height="24" viewBox="0 0 24 24" fill="none" xmlns="http://www.w3.org/2000/svg">
<path fill-rule="evenodd" clip-rule="evenodd" d="M20.8251 8.19123L20.8255 8.19084C21.1036 7.92538 21.3234 7.61097 21.4731 7.26596C21.6229 6.92081 21.6998 6.55139 21.6998 6.17867C21.6998 5.80594 21.6229 5.43652 21.4731 5.09137C21.3233 4.74619 21.1034 4.43165 20.8251 4.1661L20.825 4.16604L19.7515 3.14094L19.7514 3.14088C19.4733 2.87515 19.1423 2.66366 18.777 2.51913C18.4118 2.3746 18.0198 2.30005 17.6236 2.30005C17.2275 2.30005 16.8355 2.3746 16.4702 2.51913C16.105 2.66364 15.7741 2.87508 15.496 3.14076L15.4959 3.14088L5.11111 13.1081C4.69005 13.5236 4.36725 14.0189 4.16325 14.5608L4.16281 14.562L2.3532 19.5025L2.35267 19.504C2.30137 19.6498 2.28721 19.8047 2.31104 19.9562C2.33496 20.1083 2.39665 20.2538 2.49213 20.3805C2.58767 20.5072 2.71447 20.6117 2.86288 20.684C3.011 20.7563 3.17575 20.7941 3.34336 20.7939C3.45933 20.7925 3.57439 20.7755 3.68507 20.7435L8.85958 19.0154L8.86178 19.0147C9.43641 18.8277 9.95722 18.5176 10.3845 18.1092L10.3852 18.1086L20.8251 8.19123ZM17.6265 4.26407L17.6265 4.26414C17.8674 4.26644 18.1002 4.35929 18.2737 4.52654L18.2752 4.52802L19.3459 5.53754L19.3511 5.54247L19.3561 5.54765C19.518 5.71572 19.6102 5.93847 19.6102 6.17226C19.6102 6.40605 19.518 6.6288 19.3561 6.79687L19.3474 6.80587L19.3472 6.80568L17.7887 8.29384L15.3592 6.07892L16.9846 4.52887C17.0676 4.44622 17.1662 4.38076 17.2743 4.3356C17.3837 4.2899 17.5011 4.26572 17.6197 4.26416L17.6265 4.26407ZM13.9098 7.46108L6.58701 14.4443L6.58598 14.4453C6.36953 14.6537 6.20568 14.9083 6.10851 15.1896L5.22351 17.6479L5.0153 18.2262L5.59934 18.0345L8.17214 17.19L8.17408 17.1894C8.4635 17.0983 8.72797 16.9438 8.94617 16.7372L8.94707 16.7364L16.3403 9.67687L13.9098 7.46108Z" fill="currentColor"/>
</svg>
