<svg width="16" height="16" viewBox="0 0 16 16" fill="none" xmlns="http://www.w3.org/2000/svg">
<path d="M8.00293 13C12.7333 13 16 9.1902 16 8C16 6.80397 12.7274 3 8.00293 3C3.33699 3 0 6.80397 0 8C0 9.1902 3.33114 13 8.00293 13ZM8.00293 12.0782C4.15075 12.0782 1.02452 8.82264 1.02452 8C1.02452 7.30572 4.15075 3.92182 8.00293 3.92182C11.8434 3.92182 14.9755 7.30572 14.9755 8C14.9755 8.82264 11.8434 12.0782 8.00293 12.0782ZM8.00293 11.2672C9.82364 11.2672 11.2872 9.77946 11.2872 8C11.2872 6.17386 9.82364 4.73279 8.00293 4.73279C6.17051 4.73279 4.70106 6.17386 4.71277 8C4.71862 9.77946 6.17051 11.2672 8.00293 11.2672ZM8.00293 9.08518C7.39407 9.08518 6.90231 8.5951 6.90231 8C6.90231 7.39907 7.39407 6.91482 8.00293 6.91482C8.60593 6.91482 9.0977 7.39907 9.0977 8C9.0977 8.5951 8.60593 9.08518 8.00293 9.08518Z" fill="#EF5630"/>
</svg>
