<svg width="16" height="16" viewBox="0 0 16 16" fill="none" xmlns="http://www.w3.org/2000/svg">
<path d="M12.4919 13.2225C12.5784 13.3076 12.6996 13.3529 12.8092 13.3529C13.04 13.3529 13.2535 13.1488 13.2535 12.9164C13.2535 12.803 13.2074 12.6896 13.1208 12.6045L3.46772 3.12473C3.38118 3.03969 3.26578 3 3.15038 3C2.91958 3 2.70609 3.20411 2.70609 3.4309C2.70609 3.54996 2.74648 3.66336 2.83303 3.74274L12.4919 13.2225ZM8.00288 3.44791C6.99892 3.44791 6.09304 3.618 5.24486 3.89582L6.00072 4.63855C6.64118 4.45145 7.28741 4.34373 8.00288 4.34373C11.9149 4.34373 14.9903 7.63218 14.9903 8.30687C14.9903 8.76612 13.9805 10.0021 12.3823 10.966L13.092 11.6634C14.9153 10.5011 16 8.9759 16 8.30687C16 7.14458 12.7804 3.44791 8.00288 3.44791ZM8.00288 13.1658C9.07609 13.1658 10.057 12.9787 10.9513 12.6782L10.1955 11.9355C9.50883 12.1453 8.78182 12.27 8.00288 12.27C4.09088 12.27 1.00974 9.10631 1.00974 8.30687C1.00974 7.90999 2.08294 6.58894 3.7793 5.5854L3.06383 4.88235C1.14244 6.05032 0 7.62084 0 8.30687C0 9.4635 3.28309 13.1658 8.00288 13.1658ZM10.9629 9.54855C11.1417 9.16867 11.2398 8.74344 11.2398 8.30687C11.2398 6.53225 9.79733 5.13182 8.00288 5.13182C7.54706 5.13182 7.12009 5.22821 6.7335 5.39263L10.9629 9.54855ZM8.00288 11.4819C8.51064 11.4819 8.98954 11.3572 9.41652 11.1531L5.09484 6.90078C4.87559 7.32034 4.76019 7.7966 4.76019 8.30687C4.76019 10.0361 6.1969 11.4819 8.00288 11.4819Z" fill="#EF5630"/>
</svg>
