<svg width="24" height="24" viewBox="0 0 24 24" fill="none"
    xmlns="http://www.w3.org/2000/svg">
    <path d="M8 13L12 17L16 13" stroke="currentColor" stroke-width="2" stroke-linecap="round" stroke-linejoin="round"/>
    <path d="M12 16L12 7" stroke="currentColor" stroke-width="2" stroke-linecap="round"/>
    <path d="M4 23C3.59138 23 3.20424 22.9189 2.8519 22.7728L2.08579 24.6202C2.67672 24.8653 3.32389 25 4 25V23ZM1.22725 21.1481C1.08114 20.7958 1 20.4086 1 20H-1C-1 20.6761 -0.865251 21.3233 -0.620204 21.9142L1.22725 21.1481ZM1 20V18H-1V20H1ZM1 14V10H-1V14H1ZM1 6V4H-1V6H1ZM1 4C1 3.59138 1.08114 3.20424 1.22725 2.8519L-0.620204 2.08579C-0.865251 2.67672 -1 3.32389 -1 4H1ZM2.8519 1.22725C3.20424 1.08114 3.59138 1 4 1V-1C3.32389 -1 2.67672 -0.865251 2.0858 -0.620204L2.8519 1.22725ZM4 1H6V-1H4V1ZM10 1H14V-1H10V1ZM18 1H20V-1H18V1ZM20 1C20.4086 1 20.7958 1.08114 21.1481 1.22725L21.9142 -0.620204C21.3233 -0.865251 20.6761 -1 20 -1V1ZM22.7728 2.8519C22.9189 3.20424 23 3.59138 23 4H25C25 3.32389 24.8653 2.67672 24.6202 2.0858L22.7728 2.8519ZM23 4V6H25V4H23ZM23 10V14H25V10H23ZM23 18V20H25V18H23ZM23 20C23 20.4086 22.9189 20.7958 22.7728 21.1481L24.6202 21.9142C24.8653 21.3233 25 20.6761 25 20H23ZM21.1481 22.7728C20.7958 22.9189 20.4086 23 20 23V25C20.6761 25 21.3233 24.8653 21.9142 24.6202L21.1481 22.7728ZM20 23H18V25H20V23ZM14 23H10V25H14V23ZM6 23H4V25H6V23ZM4 22C3.72513 22 3.468 21.9457 3.23496 21.849L1.70274 25.5439C2.41296 25.8384 3.19014 26 4 26V22ZM2.15097 20.765C2.05434 20.532 2 20.2749 2 20H-2C-2 20.8099 -1.83845 21.587 -1.54393 22.2973L2.15097 20.765ZM2 20V18H-2V20H2ZM2 14V10H-2V14H2ZM2 6V4H-2V6H2ZM2 4C2 3.72513 2.05434 3.468 2.15097 3.23496L-1.54393 1.70274C-1.83845 2.41296 -2 3.19014 -2 4H2ZM3.23496 2.15097C3.468 2.05434 3.72513 2 4 2V-2C3.19014 -2 2.41296 -1.83845 1.70274 -1.54393L3.23496 2.15097ZM4 2H6V-2H4V2ZM10 2H14V-2H10V2ZM18 2H20V-2H18V2ZM20 2C20.2749 2 20.532 2.05434 20.765 2.15097L22.2973 -1.54393C21.587 -1.83845 20.8099 -2 20 -2V2ZM21.849 3.23496C21.9457 3.468 22 3.72513 22 4H26C26 3.19014 25.8384 2.41296 25.5439 1.70274L21.849 3.23496ZM22 4V6H26V4H22ZM22 10V14H26V10H22ZM22 18V20H26V18H22ZM22 20C22 20.2749 21.9457 20.532 21.849 20.765L25.5439 22.2973C25.8384 21.587 26 20.8099 26 20H22ZM20.765 21.849C20.532 21.9457 20.2749 22 20 22V26C20.8099 26 21.587 25.8384 22.2973 25.5439L20.765 21.849ZM20 22H18V26H20V22ZM14 22H10V26H14V22ZM6 22H4V26H6V22Z" fill="currentColor"/>
</svg>
