<svg width="16" height="16" viewBox="0 0 16 16" fill="none" xmlns="http://www.w3.org/2000/svg">
<path fill-rule="evenodd" clip-rule="evenodd" d="M7.96875 15.9375C12.3203 15.9375 15.9375 12.3281 15.9375 7.96875C15.9375 3.61719 12.3125 0 7.96094 0C3.60156 0 0 3.61719 0 7.96875C0 12.3281 3.60938 15.9375 7.96875 15.9375ZM7.89844 5.1875C7.32812 5.1875 6.88281 4.73438 6.88281 4.17188C6.88281 3.60156 7.32812 3.14844 7.89844 3.14844C8.46875 3.14844 8.91406 3.60156 8.91406 4.17188C8.91406 4.73438 8.46875 5.1875 7.89844 5.1875ZM7.89844 6.49219C8.28906 6.49219 8.50781 6.77344 8.50781 7.19531V12.2656H7.26562V7.21094C7.26562 6.76562 7.50781 6.49219 7.89844 6.49219Z" fill="#F05323"/>
</svg>
