<svg width="16" height="16" viewBox="0 0 16 16" fill="none" xmlns="http://www.w3.org/2000/svg">
<path d="M0.874698 4.22016H2.2061C2.68602 4.22016 3.08853 3.83539 3.08853 3.36008C3.08853 2.88477 2.68602 2.5 2.2061 2.5H0.874698C0.394775 2.5 0 2.88477 0 3.36008C0 3.83539 0.394775 4.22016 0.874698 4.22016ZM5.48041 4.08436H15.2492C15.6672 4.08436 16 3.76749 16 3.36008C16 2.95267 15.6749 2.6358 15.2492 2.6358H5.48041C5.06241 2.6358 4.7373 2.95267 4.7373 3.36008C4.7373 3.76749 5.06241 4.08436 5.48041 4.08436ZM0.874698 8.86008H2.2061C2.68602 8.86008 3.08853 8.47531 3.08853 8C3.08853 7.52469 2.68602 7.13992 2.2061 7.13992H0.874698C0.394775 7.13992 0 7.52469 0 8C0 8.47531 0.394775 8.86008 0.874698 8.86008ZM5.48041 8.72428H15.2492C15.6672 8.72428 16 8.40741 16 8C16 7.59259 15.6749 7.27572 15.2492 7.27572H5.48041C5.06241 7.27572 4.7373 7.59259 4.7373 8C4.7373 8.40741 5.06241 8.72428 5.48041 8.72428ZM0.874698 13.5H2.2061C2.68602 13.5 3.08853 13.1152 3.08853 12.6399C3.08853 12.1646 2.68602 11.7798 2.2061 11.7798H0.874698C0.394775 11.7798 0 12.1646 0 12.6399C0 13.1152 0.394775 13.5 0.874698 13.5ZM5.48041 13.3642H15.2492C15.6672 13.3642 16 13.0473 16 12.6399C16 12.2325 15.6749 11.9156 15.2492 11.9156H5.48041C5.06241 11.9156 4.7373 12.2325 4.7373 12.6399C4.7373 13.0473 5.06241 13.3642 5.48041 13.3642Z" fill="#F05323"/>
</svg>
