<svg width="32" height="32" viewBox="0 0 32 32" fill="none" xmlns="http://www.w3.org/2000/svg">
<path d="M24.3332 20.1667H7.6665C8.32955 20.1667 8.96543 19.9034 9.43427 19.4345C9.90311 18.9657 10.1665 18.3298 10.1665 17.6667V13.5001C10.1665 11.953 10.7811 10.4693 11.875 9.37529C12.969 8.28133 14.4527 7.66675 15.9998 7.66675C17.5469 7.66675 19.0307 8.28133 20.1246 9.37529C21.2186 10.4693 21.8332 11.953 21.8332 13.5001V17.6667C21.8332 18.3298 22.0966 18.9657 22.5654 19.4345C23.0342 19.9034 23.6701 20.1667 24.3332 20.1667Z" stroke="#1A1C1F" stroke-width="1.5" stroke-linecap="round" stroke-linejoin="round"/>
<path d="M17.4414 23.5C17.2949 23.7526 17.0846 23.9622 16.8316 24.1079C16.5786 24.2537 16.2918 24.3304 15.9998 24.3304C15.7078 24.3304 15.4209 24.2537 15.1679 24.1079C14.9149 23.9622 14.7046 23.7526 14.5581 23.5" stroke="#1A1C1F" stroke-width="1.5" stroke-linecap="round" stroke-linejoin="round"/>
</svg>
