<svg width="24" height="24" viewBox="0 0 24 24" fill="none"
    xmlns="http://www.w3.org/2000/svg">
    <path d="M19.7002 7.12964C19.4349 7.12964 19.1806 7.02428 18.993 6.83675C18.8055 6.64921 18.7002 6.39486 18.7002 6.12964V4.79964C18.6563 4.06734 18.3247 3.38206 17.7778 2.89316C17.2308 2.40426 16.5128 2.15138 15.7802 2.18964H8.57016C7.83922 2.1541 7.12375 2.40821 6.57897 2.89682C6.03419 3.38544 5.70404 4.06916 5.66016 4.79964V6.12964C5.66016 6.39486 5.5548 6.64921 5.36726 6.83675C5.17973 7.02428 4.92537 7.12964 4.66016 7.12964C4.39494 7.12964 4.14059 7.02428 3.95305 6.83675C3.76551 6.64921 3.66016 6.39486 3.66016 6.12964V4.79964C3.70194 3.53789 4.2422 2.34417 5.16255 1.48005C6.08291 0.615927 7.30828 0.151896 8.57016 0.18964H15.7802C17.043 0.151857 18.2695 0.615577 19.1914 1.47943C20.1133 2.34328 20.6558 3.537 20.7002 4.79964V6.12964C20.7002 6.39486 20.5948 6.64921 20.4073 6.83675C20.2197 7.02428 19.9654 7.12964 19.7002 7.12964Z" fill="#EF5630"/>
    <path d="M15.7806 23.8108H8.57061C7.45557 23.8365 6.36585 23.4764 5.48576 22.7913C4.60566 22.1061 3.98919 21.1381 3.74061 20.0508C3.6907 19.7909 3.74582 19.5219 3.89389 19.3026C4.04197 19.0833 4.27093 18.9316 4.53061 18.8808C4.78904 18.8306 5.05682 18.8844 5.27586 19.0304C5.49489 19.1765 5.64752 19.403 5.70061 19.6608C5.85878 20.2946 6.23058 20.8544 6.75336 21.2461C7.27614 21.6377 7.91794 21.8371 8.57061 21.8108H15.7806C16.4382 21.8395 17.0851 21.6373 17.6093 21.2391C18.1335 20.841 18.5018 20.272 18.6506 19.6308C18.6997 19.3656 18.8521 19.1307 19.0743 18.9779C19.2965 18.825 19.5704 18.7667 19.8356 18.8158C20.1008 18.8649 20.3357 19.0173 20.4885 19.2395C20.6414 19.4617 20.6997 19.7356 20.6506 20.0008C20.4126 21.1051 19.795 22.0911 18.9052 22.7872C18.0154 23.4833 16.9098 23.8455 15.7806 23.8108Z" fill="#EF5630"/>
    <path d="M3.12891 16.9991C2.86369 16.9991 2.60934 16.8938 2.4218 16.7062C2.23426 16.5187 2.12891 16.2644 2.12891 15.9991V9.99914C2.12891 9.73392 2.23426 9.47957 2.4218 9.29203C2.60934 9.1045 2.86369 8.99914 3.12891 8.99914H5.31891C5.68663 8.97673 6.05504 9.02981 6.40148 9.15511C6.74792 9.28042 7.06505 9.47529 7.33336 9.72774C7.60166 9.98019 7.81547 10.2849 7.96161 10.6231C8.10775 10.9612 8.18315 11.3257 8.18315 11.6941C8.18315 12.0625 8.10775 12.427 7.96161 12.7652C7.81547 13.1034 7.60166 13.4081 7.33336 13.6605C7.06505 13.913 6.74792 14.1079 6.40148 14.2332C6.05504 14.3585 5.68663 14.4116 5.31891 14.3891H4.12891V15.9991C4.12891 16.2644 4.02355 16.5187 3.83601 16.7062C3.64848 16.8938 3.39412 16.9991 3.12891 16.9991ZM4.12891 12.4391H5.31891C5.41717 12.4509 5.51683 12.4418 5.61129 12.4123C5.70576 12.3827 5.79289 12.3335 5.86693 12.2678C5.94098 12.2021 6.00025 12.1215 6.04084 12.0312C6.08143 11.941 6.10242 11.8431 6.10242 11.7441C6.10242 11.6452 6.08143 11.5473 6.04084 11.457C6.00025 11.3668 5.94098 11.2861 5.86693 11.2205C5.79289 11.1548 5.70576 11.1056 5.61129 11.076C5.51683 11.0465 5.41717 11.0373 5.31891 11.0491H4.12891V12.4391Z" fill="#EF5630"/>
    <path d="M11.2812 17H10.2812C10.016 17 9.76168 16.8946 9.57414 16.7071C9.38661 16.5196 9.28125 16.2652 9.28125 16V10C9.28125 9.73478 9.38661 9.48043 9.57414 9.29289C9.76168 9.10536 10.016 9 10.2812 9H11.2812C12.0294 9.0053 12.7599 9.2285 13.3832 9.6423C14.0066 10.0561 14.4959 10.6426 14.7913 11.33C15.0139 11.8428 15.1288 12.3959 15.1288 12.955C15.1288 13.5141 15.0139 14.0672 14.7913 14.58C14.5085 15.2835 14.0249 15.8882 13.4007 16.3186C12.7765 16.7489 12.0393 16.9859 11.2812 17ZM11.2812 15C11.6554 14.9962 12.0197 14.8796 12.3265 14.6655C12.6334 14.4515 12.8685 14.1498 13.0013 13.8C13.1099 13.542 13.1658 13.2649 13.1658 12.985C13.1658 12.7051 13.1099 12.428 13.0013 12.17C12.862 11.825 12.623 11.5294 12.3148 11.321C12.0066 11.1126 11.6433 11.0008 11.2713 11L11.2812 15Z" fill="#EF5630"/>
    <path d="M17.4219 17C17.1567 17 16.9023 16.8946 16.7148 16.7071C16.5272 16.5196 16.4219 16.2652 16.4219 16V10C16.4219 9.73478 16.5272 9.48043 16.7148 9.29289C16.9023 9.10536 17.1567 9 17.4219 9H21.2319C21.4971 9 21.7514 9.10536 21.939 9.29289C22.1265 9.48043 22.2319 9.73478 22.2319 10C22.2319 10.2652 22.1265 10.5196 21.939 10.7071C21.7514 10.8946 21.4971 11 21.2319 11H18.4219V16C18.4219 16.2652 18.3165 16.5196 18.129 16.7071C17.9414 16.8946 17.6871 17 17.4219 17Z" fill="#EF5630"/>
    <path d="M20.3319 14.3906H17.4219C17.1567 14.3906 16.9023 14.2853 16.7148 14.0977C16.5272 13.9102 16.4219 13.6558 16.4219 13.3906C16.4219 13.1254 16.5272 12.8711 16.7148 12.6835C16.9023 12.496 17.1567 12.3906 17.4219 12.3906H20.3319C20.5971 12.3906 20.8514 12.496 21.039 12.6835C21.2265 12.8711 21.3319 13.1254 21.3319 13.3906C21.3319 13.6558 21.2265 13.9102 21.039 14.0977C20.8514 14.2853 20.5971 14.3906 20.3319 14.3906Z" fill="#EF5630"/>
</svg>
