<svg width="24" height="24" viewBox="0 0 24 24" fill="none" xmlns="http://www.w3.org/2000/svg">
<path d="M16.7512 21.86H7.25125C6.97407 21.8748 6.6967 21.8348 6.43501 21.7423C6.17332 21.6497 5.93247 21.5064 5.72624 21.3207C5.52002 21.1349 5.35247 20.9102 5.23322 20.6596C5.11396 20.4089 5.04532 20.1372 5.03125 19.86V13C5.03125 12.7348 5.13661 12.4804 5.32414 12.2929C5.51168 12.1054 5.76603 12 6.03125 12H18.0012C18.2665 12 18.5208 12.1054 18.7084 12.2929C18.8959 12.4804 19.0012 12.7348 19.0012 13V19.88C18.9847 20.1582 18.9133 20.4303 18.791 20.6807C18.6687 20.9311 18.4981 21.1548 18.2889 21.3389C18.0797 21.523 17.8361 21.6638 17.5722 21.7533C17.3083 21.8427 17.0293 21.879 16.7512 21.86ZM7.00125 14V19.87C7.00125 19.82 7.09125 19.87 7.22125 19.87H16.7212C16.807 19.8761 16.8922 19.8513 16.9612 19.8L17.0012 14H7.00125Z" fill="#1586BB"/>
<path d="M19 7.44954H17V4.44954C17 4.3912 16.9768 4.33524 16.9356 4.29398C16.8943 4.25272 16.8383 4.22954 16.78 4.22954H7.25C7.19306 4.22085 7.13498 4.23483 7.08824 4.26848C7.04149 4.30214 7.00981 4.35278 7 4.40954V7.40954H5V4.40954C5.00131 4.11585 5.06061 3.8253 5.17452 3.55459C5.28842 3.28388 5.45468 3.03834 5.66375 2.83206C5.87281 2.62578 6.12057 2.46283 6.39278 2.35257C6.665 2.24231 6.95631 2.18691 7.25 2.18954H16.75C17.0437 2.18691 17.335 2.24231 17.6072 2.35257C17.8794 2.46283 18.1272 2.62578 18.3363 2.83206C18.5453 3.03834 18.7116 3.28388 18.8255 3.55459C18.9394 3.8253 18.9987 4.11585 19 4.40954V7.44954Z" fill="#1586BB"/>
<path d="M13.6516 17.5605H10.3516C10.0863 17.5605 9.83199 17.4552 9.64445 17.2677C9.45692 17.0801 9.35156 16.8258 9.35156 16.5605C9.35156 16.2953 9.45692 16.041 9.64445 15.8534C9.83199 15.6659 10.0863 15.5605 10.3516 15.5605H13.6516C13.9168 15.5605 14.1711 15.6659 14.3587 15.8534C14.5462 16.041 14.6516 16.2953 14.6516 16.5605C14.6516 16.8258 14.5462 17.0801 14.3587 17.2677C14.1711 17.4552 13.9168 17.5605 13.6516 17.5605Z" fill="#1586BB"/>
<path d="M19.5286 17.5592H17.9986V15.5592H19.5586C19.7328 15.5566 19.8992 15.4863 20.0224 15.3631C20.1456 15.2398 20.216 15.0735 20.2186 14.8992V9.10922C20.2186 9.02255 20.2015 8.93672 20.1684 8.85665C20.1352 8.77657 20.0866 8.70382 20.0253 8.64253C19.964 8.58124 19.8912 8.53263 19.8112 8.49946C19.7311 8.46629 19.6453 8.44922 19.5586 8.44922H4.46859C4.38192 8.44922 4.2961 8.46629 4.21602 8.49946C4.13595 8.53263 4.06319 8.58124 4.0019 8.64253C3.94062 8.70382 3.892 8.77657 3.85883 8.85665C3.82567 8.93672 3.80859 9.02255 3.80859 9.10922V14.8992C3.81118 15.0735 3.88154 15.2398 4.00476 15.3631C4.12798 15.4863 4.29435 15.5566 4.46859 15.5592H5.99859V17.5592H4.46859C3.76393 17.5566 3.08888 17.2755 2.5906 16.7772C2.09232 16.2789 1.81123 15.6039 1.80859 14.8992V9.10922C1.81123 8.40455 2.09232 7.7295 2.5906 7.23123C3.08888 6.73295 3.76393 6.45185 4.46859 6.44922H19.5286C20.2333 6.45185 20.9083 6.73295 21.4066 7.23123C21.9049 7.7295 22.186 8.40455 22.1886 9.10922V14.8992C22.186 15.6039 21.9049 16.2789 21.4066 16.7772C20.9083 17.2755 20.2333 17.5566 19.5286 17.5592Z" fill="#1586BB"/>
</svg>
