<svg width="16" height="16" viewBox="0 0 16 16" fill="none" xmlns="http://www.w3.org/2000/svg">
<path d="M7.00781 13.0156C8.30469 13.0156 9.51562 12.5938 10.5 11.8906L14.2031 15.5938C14.375 15.7656 14.6016 15.8516 14.8359 15.8516C15.3438 15.8516 15.7109 15.4609 15.7109 14.9609C15.7109 14.7266 15.6328 14.5078 15.4609 14.3359L11.7812 10.6484C12.5547 9.63281 13.0156 8.375 13.0156 7.00781C13.0156 3.70312 10.3125 1 7.00781 1C3.69531 1 1 3.70312 1 7.00781C1 10.3125 3.69531 13.0156 7.00781 13.0156ZM7.00781 11.7188C4.42188 11.7188 2.29688 9.58594 2.29688 7.00781C2.29688 4.42969 4.42188 2.29688 7.00781 2.29688C9.58594 2.29688 11.7188 4.42969 11.7188 7.00781C11.7188 9.58594 9.58594 11.7188 7.00781 11.7188Z" fill="currentColor"/>
</svg>
