<svg width="24" height="24" viewBox="0 0 24 24" fill="none" xmlns="http://www.w3.org/2000/svg">
<path d="M13.1396 18.4899H6.45961C5.36957 18.4899 4.32418 18.0568 3.5534 17.2861C2.78263 16.5153 2.34961 15.4699 2.34961 14.3799V5.46986C2.34961 4.37982 2.78263 3.33443 3.5534 2.56365C4.32418 1.79288 5.36957 1.35986 6.45961 1.35986H13.1396C14.2297 1.35986 15.275 1.79288 16.0458 2.56365C16.8166 3.33443 17.2496 4.37982 17.2496 5.46986V14.3799C17.2496 15.4699 16.8166 16.5153 16.0458 17.2861C15.275 18.0568 14.2297 18.4899 13.1396 18.4899ZM6.45961 3.35986C5.9 3.35986 5.36332 3.58217 4.96761 3.97787C4.57191 4.37357 4.34961 4.91026 4.34961 5.46986V14.3799C4.35224 14.9387 4.57539 15.4738 4.97052 15.869C5.36565 16.2641 5.90081 16.4872 6.45961 16.4899H13.1396C13.6984 16.4872 14.2336 16.2641 14.6287 15.869C15.0238 15.4738 15.247 14.9387 15.2496 14.3799V5.46986C15.2496 4.91026 15.0273 4.37357 14.6316 3.97787C14.2359 3.58217 13.6992 3.35986 13.1396 3.35986H6.45961Z" fill="currentColor"/>
<path d="M17.54 22.6398H10.86C9.76996 22.6398 8.72457 22.2067 7.95379 21.436C7.18302 20.6652 6.75 19.6198 6.75 18.5298V17.5298H8.75V18.5298C8.75 19.0894 8.9723 19.6261 9.368 20.0218C9.76371 20.4175 10.3004 20.6398 10.86 20.6398H17.54C18.0996 20.6398 18.6363 20.4175 19.032 20.0218C19.4277 19.6261 19.65 19.0894 19.65 18.5298V9.61977C19.6474 9.06097 19.4242 8.52581 19.0291 8.13068C18.634 7.73554 18.0988 7.5124 17.54 7.50977H16.25V5.50977H17.54C18.63 5.50977 19.6754 5.94278 20.4462 6.71356C21.217 7.48433 21.65 8.52973 21.65 9.61977V18.5298C21.65 19.6198 21.217 20.6652 20.4462 21.436C19.6754 22.2067 18.63 22.6398 17.54 22.6398Z" fill="currentColor"/>
<path d="M11.59 8.79004H8C7.73478 8.79004 7.48043 8.68468 7.29289 8.49715C7.10536 8.30961 7 8.05526 7 7.79004C7 7.52482 7.10536 7.27047 7.29289 7.08293C7.48043 6.8954 7.73478 6.79004 8 6.79004H11.58C11.8452 6.79004 12.0996 6.8954 12.2871 7.08293C12.4746 7.27047 12.58 7.52482 12.58 7.79004C12.58 8.05526 12.4746 8.30961 12.2871 8.49715C12.0996 8.68468 11.8452 8.79004 11.58 8.79004H11.59Z" fill="currentColor"/>
<path d="M11.59 12.5801H8C7.73478 12.5801 7.48043 12.4747 7.29289 12.2872C7.10536 12.0996 7 11.8453 7 11.5801C7 11.3149 7.10536 11.0605 7.29289 10.873C7.48043 10.6854 7.73478 10.5801 8 10.5801H11.58C11.8452 10.5801 12.0996 10.6854 12.2871 10.873C12.4746 11.0605 12.58 11.3149 12.58 11.5801C12.58 11.8453 12.4746 12.0996 12.2871 12.2872C12.0996 12.4747 11.8452 12.5801 11.58 12.5801H11.59Z" fill="currentColor"/>
</svg>
