<svg width="16" height="16" viewBox="0 0 16 16" fill="none" xmlns="http://www.w3.org/2000/svg">
<path d="M11.1668 14.5733H4.83352C4.64873 14.5832 4.46381 14.5565 4.28935 14.4948C4.1149 14.4331 3.95433 14.3376 3.81684 14.2138C3.67936 14.0899 3.56766 13.9401 3.48816 13.773C3.40865 13.606 3.3629 13.4248 3.35352 13.24V8.66667C3.35352 8.48986 3.42375 8.32029 3.54878 8.19526C3.6738 8.07024 3.84337 8 4.02018 8H12.0002C12.177 8 12.3466 8.07024 12.4716 8.19526C12.5966 8.32029 12.6668 8.48986 12.6668 8.66667V13.2533C12.6558 13.4388 12.6082 13.6202 12.5267 13.7871C12.4452 13.9541 12.3314 14.1032 12.1919 14.2259C12.0525 14.3487 11.8901 14.4425 11.7141 14.5022C11.5382 14.5618 11.3522 14.586 11.1668 14.5733ZM4.66685 9.33333V13.2467C4.66685 13.2133 4.72685 13.2467 4.81352 13.2467H11.1468C11.204 13.2507 11.2608 13.2342 11.3068 13.2L11.3335 9.33333H4.66685Z" fill="currentColor"/>
<path d="M12.6673 4.96571H11.334V2.96571C11.334 2.92681 11.3185 2.88951 11.291 2.862C11.2635 2.8345 11.2262 2.81904 11.1873 2.81904H4.83398C4.79602 2.81325 4.75731 2.82257 4.72614 2.845C4.69498 2.86744 4.67386 2.90121 4.66732 2.93904V4.93904H3.33398V2.93904C3.33485 2.74325 3.37439 2.54955 3.45033 2.36908C3.52627 2.1886 3.63711 2.02491 3.77648 1.88739C3.91586 1.74987 4.08103 1.64124 4.26251 1.56773C4.44398 1.49422 4.63819 1.45729 4.83398 1.45904H11.1673C11.3631 1.45729 11.5573 1.49422 11.7388 1.56773C11.9203 1.64124 12.0854 1.74987 12.2248 1.88739C12.3642 2.02491 12.475 2.1886 12.551 2.36908C12.6269 2.54955 12.6664 2.74325 12.6673 2.93904V4.96571Z" fill="currentColor"/>
<path d="M9.09909 11.7064H6.89909C6.72228 11.7064 6.55271 11.6361 6.42768 11.5111C6.30266 11.3861 6.23242 11.2165 6.23242 11.0397C6.23242 10.8629 6.30266 10.6933 6.42768 10.5683C6.55271 10.4433 6.72228 10.373 6.89909 10.373H9.09909C9.2759 10.373 9.44547 10.4433 9.57049 10.5683C9.69552 10.6933 9.76575 10.8629 9.76575 11.0397C9.76575 11.2165 9.69552 11.3861 9.57049 11.5111C9.44547 11.6361 9.2759 11.7064 9.09909 11.7064Z" fill="currentColor"/>
<path d="M13.0204 11.7074H12.0004V10.3741H13.0404C13.1565 10.3724 13.2674 10.3255 13.3496 10.2433C13.4317 10.1612 13.4786 10.0503 13.4804 9.93411V6.07411C13.4804 6.01633 13.469 5.95912 13.4469 5.90573C13.4248 5.85235 13.3923 5.80385 13.3515 5.76299C13.3106 5.72213 13.2621 5.68972 13.2087 5.66761C13.1554 5.6455 13.0981 5.63411 13.0404 5.63411H2.98036C2.92258 5.63411 2.86537 5.6455 2.81198 5.66761C2.7586 5.68972 2.7101 5.72213 2.66924 5.76299C2.62838 5.80385 2.59597 5.85235 2.57386 5.90573C2.55175 5.95912 2.54036 6.01633 2.54036 6.07411V9.93411C2.54209 10.0503 2.589 10.1612 2.67114 10.2433C2.75329 10.3255 2.86421 10.3724 2.98036 10.3741H4.00036V11.7074H2.98036C2.51059 11.7057 2.06055 11.5183 1.72837 11.1861C1.39618 10.8539 1.20879 10.4039 1.20703 9.93411V6.07411C1.20879 5.60434 1.39618 5.1543 1.72837 4.82212C2.06055 4.48993 2.51059 4.30254 2.98036 4.30078H13.0204C13.4901 4.30254 13.9402 4.48993 14.2724 4.82212C14.6045 5.1543 14.7919 5.60434 14.7937 6.07411V9.93411C14.7919 10.4039 14.6045 10.8539 14.2724 11.1861C13.9402 11.5183 13.4901 11.7057 13.0204 11.7074Z" fill="currentColor"/>
</svg>
